ISO-10303-21;
HEADER;
/* Generated by software containing ST-Developer
 * from STEP Tools, Inc. (www.steptools.com) 
 */

FILE_DESCRIPTION(
/* description */ (''),
/* implementation_level */ '2;1');

FILE_NAME(
/* name */ 'BaseInferior.step',
/* time_stamp */ '2026-04-01T21:02:17-03:00',
/* author */ (''),
/* organization */ (''),
/* preprocessor_version */ 'ST-DEVELOPER v20.1',
/* originating_system */ 'Autodesk Translation Framework v14.24.0.0',
/* authorisation */ '');

FILE_SCHEMA (('AUTOMOTIVE_DESIGN { 1 0 10303 214 3 1 1 }'));
ENDSEC;

DATA;
#10=MECHANICAL_DESIGN_GEOMETRIC_PRESENTATION_REPRESENTATION('',(#13),#1551);
#11=SHAPE_REPRESENTATION_RELATIONSHIP('SRR','None',#1558,#12);
#12=ADVANCED_BREP_SHAPE_REPRESENTATION('',(#14),#1550);
#13=STYLED_ITEM('',(#1567),#14);
#14=MANIFOLD_SOLID_BREP('Corpo2',#963);
#15=FACE_BOUND('',#160,.T.);
#16=FACE_BOUND('',#161,.T.);
#17=FACE_BOUND('',#162,.T.);
#18=FACE_BOUND('',#163,.T.);
#19=FACE_BOUND('',#164,.T.);
#20=FACE_BOUND('',#165,.T.);
#21=FACE_BOUND('',#166,.T.);
#22=FACE_BOUND('',#167,.T.);
#23=FACE_BOUND('',#169,.T.);
#24=FACE_BOUND('',#170,.T.);
#25=FACE_BOUND('',#171,.T.);
#26=FACE_BOUND('',#172,.T.);
#27=FACE_BOUND('',#173,.T.);
#28=FACE_BOUND('',#174,.T.);
#29=FACE_BOUND('',#175,.T.);
#30=FACE_BOUND('',#176,.T.);
#31=PLANE('',#1001);
#32=PLANE('',#1002);
#33=PLANE('',#1003);
#34=PLANE('',#1004);
#35=PLANE('',#1005);
#36=PLANE('',#1006);
#37=PLANE('',#1007);
#38=PLANE('',#1008);
#39=PLANE('',#1009);
#40=PLANE('',#1010);
#41=PLANE('',#1011);
#42=PLANE('',#1012);
#43=PLANE('',#1013);
#44=PLANE('',#1014);
#45=PLANE('',#1015);
#46=PLANE('',#1016);
#47=PLANE('',#1017);
#48=PLANE('',#1018);
#49=PLANE('',#1019);
#50=PLANE('',#1020);
#51=PLANE('',#1021);
#52=PLANE('',#1022);
#53=PLANE('',#1023);
#54=PLANE('',#1024);
#55=PLANE('',#1025);
#56=PLANE('',#1026);
#57=PLANE('',#1027);
#58=PLANE('',#1028);
#59=PLANE('',#1029);
#60=PLANE('',#1030);
#61=PLANE('',#1031);
#62=PLANE('',#1032);
#63=PLANE('',#1033);
#64=PLANE('',#1034);
#65=PLANE('',#1035);
#66=PLANE('',#1036);
#67=PLANE('',#1037);
#68=PLANE('',#1038);
#69=FACE_OUTER_BOUND('',#115,.T.);
#70=FACE_OUTER_BOUND('',#116,.T.);
#71=FACE_OUTER_BOUND('',#117,.T.);
#72=FACE_OUTER_BOUND('',#118,.T.);
#73=FACE_OUTER_BOUND('',#119,.T.);
#74=FACE_OUTER_BOUND('',#120,.T.);
#75=FACE_OUTER_BOUND('',#121,.T.);
#76=FACE_OUTER_BOUND('',#122,.T.);
#77=FACE_OUTER_BOUND('',#123,.T.);
#78=FACE_OUTER_BOUND('',#124,.T.);
#79=FACE_OUTER_BOUND('',#125,.T.);
#80=FACE_OUTER_BOUND('',#126,.T.);
#81=FACE_OUTER_BOUND('',#127,.T.);
#82=FACE_OUTER_BOUND('',#128,.T.);
#83=FACE_OUTER_BOUND('',#129,.T.);
#84=FACE_OUTER_BOUND('',#130,.T.);
#85=FACE_OUTER_BOUND('',#131,.T.);
#86=FACE_OUTER_BOUND('',#132,.T.);
#87=FACE_OUTER_BOUND('',#133,.T.);
#88=FACE_OUTER_BOUND('',#134,.T.);
#89=FACE_OUTER_BOUND('',#135,.T.);
#90=FACE_OUTER_BOUND('',#136,.T.);
#91=FACE_OUTER_BOUND('',#137,.T.);
#92=FACE_OUTER_BOUND('',#138,.T.);
#93=FACE_OUTER_BOUND('',#139,.T.);
#94=FACE_OUTER_BOUND('',#140,.T.);
#95=FACE_OUTER_BOUND('',#141,.T.);
#96=FACE_OUTER_BOUND('',#142,.T.);
#97=FACE_OUTER_BOUND('',#143,.T.);
#98=FACE_OUTER_BOUND('',#144,.T.);
#99=FACE_OUTER_BOUND('',#145,.T.);
#100=FACE_OUTER_BOUND('',#146,.T.);
#101=FACE_OUTER_BOUND('',#147,.T.);
#102=FACE_OUTER_BOUND('',#148,.T.);
#103=FACE_OUTER_BOUND('',#149,.T.);
#104=FACE_OUTER_BOUND('',#150,.T.);
#105=FACE_OUTER_BOUND('',#151,.T.);
#106=FACE_OUTER_BOUND('',#152,.T.);
#107=FACE_OUTER_BOUND('',#153,.T.);
#108=FACE_OUTER_BOUND('',#154,.T.);
#109=FACE_OUTER_BOUND('',#155,.T.);
#110=FACE_OUTER_BOUND('',#156,.T.);
#111=FACE_OUTER_BOUND('',#157,.T.);
#112=FACE_OUTER_BOUND('',#158,.T.);
#113=FACE_OUTER_BOUND('',#159,.T.);
#114=FACE_OUTER_BOUND('',#168,.T.);
#115=EDGE_LOOP('',(#645,#646,#647,#648));
#116=EDGE_LOOP('',(#649,#650,#651,#652));
#117=EDGE_LOOP('',(#653,#654,#655,#656));
#118=EDGE_LOOP('',(#657,#658,#659,#660));
#119=EDGE_LOOP('',(#661,#662,#663,#664));
#120=EDGE_LOOP('',(#665,#666,#667,#668));
#121=EDGE_LOOP('',(#669,#670,#671,#672));
#122=EDGE_LOOP('',(#673,#674,#675,#676));
#123=EDGE_LOOP('',(#677,#678,#679,#680));
#124=EDGE_LOOP('',(#681,#682,#683,#684));
#125=EDGE_LOOP('',(#685,#686,#687,#688));
#126=EDGE_LOOP('',(#689,#690,#691,#692));
#127=EDGE_LOOP('',(#693,#694,#695,#696));
#128=EDGE_LOOP('',(#697,#698,#699,#700));
#129=EDGE_LOOP('',(#701,#702,#703,#704));
#130=EDGE_LOOP('',(#705,#706,#707,#708));
#131=EDGE_LOOP('',(#709,#710,#711,#712));
#132=EDGE_LOOP('',(#713,#714,#715,#716));
#133=EDGE_LOOP('',(#717,#718,#719,#720));
#134=EDGE_LOOP('',(#721,#722,#723,#724));
#135=EDGE_LOOP('',(#725,#726,#727,#728));
#136=EDGE_LOOP('',(#729,#730,#731,#732));
#137=EDGE_LOOP('',(#733,#734,#735,#736));
#138=EDGE_LOOP('',(#737,#738,#739,#740));
#139=EDGE_LOOP('',(#741,#742,#743,#744));
#140=EDGE_LOOP('',(#745,#746,#747,#748));
#141=EDGE_LOOP('',(#749,#750,#751,#752));
#142=EDGE_LOOP('',(#753,#754,#755,#756));
#143=EDGE_LOOP('',(#757,#758,#759,#760));
#144=EDGE_LOOP('',(#761,#762,#763,#764));
#145=EDGE_LOOP('',(#765,#766,#767,#768));
#146=EDGE_LOOP('',(#769,#770,#771,#772));
#147=EDGE_LOOP('',(#773,#774,#775,#776));
#148=EDGE_LOOP('',(#777,#778,#779,#780));
#149=EDGE_LOOP('',(#781,#782,#783,#784));
#150=EDGE_LOOP('',(#785,#786,#787,#788));
#151=EDGE_LOOP('',(#789,#790,#791,#792));
#152=EDGE_LOOP('',(#793,#794,#795,#796));
#153=EDGE_LOOP('',(#797,#798,#799,#800));
#154=EDGE_LOOP('',(#801,#802,#803,#804));
#155=EDGE_LOOP('',(#805,#806,#807,#808));
#156=EDGE_LOOP('',(#809,#810,#811,#812));
#157=EDGE_LOOP('',(#813,#814,#815,#816));
#158=EDGE_LOOP('',(#817,#818,#819,#820));
#159=EDGE_LOOP('',(#821,#822,#823,#824,#825,#826,#827,#828,#829,#830,#831,
#832,#833,#834,#835,#836,#837,#838,#839,#840,#841,#842,#843,#844,#845,#846,
#847,#848,#849,#850,#851,#852,#853,#854,#855,#856));
#160=EDGE_LOOP('',(#857));
#161=EDGE_LOOP('',(#858));
#162=EDGE_LOOP('',(#859));
#163=EDGE_LOOP('',(#860));
#164=EDGE_LOOP('',(#861));
#165=EDGE_LOOP('',(#862));
#166=EDGE_LOOP('',(#863));
#167=EDGE_LOOP('',(#864));
#168=EDGE_LOOP('',(#865,#866,#867,#868,#869,#870,#871,#872,#873,#874,#875,
#876,#877,#878,#879,#880,#881,#882,#883,#884,#885,#886,#887,#888,#889,#890,
#891,#892,#893,#894,#895,#896,#897,#898,#899,#900));
#169=EDGE_LOOP('',(#901));
#170=EDGE_LOOP('',(#902));
#171=EDGE_LOOP('',(#903));
#172=EDGE_LOOP('',(#904));
#173=EDGE_LOOP('',(#905));
#174=EDGE_LOOP('',(#906));
#175=EDGE_LOOP('',(#907));
#176=EDGE_LOOP('',(#908));
#177=LINE('',#1286,#293);
#178=LINE('',#1292,#294);
#179=LINE('',#1298,#295);
#180=LINE('',#1304,#296);
#181=LINE('',#1310,#297);
#182=LINE('',#1316,#298);
#183=LINE('',#1322,#299);
#184=LINE('',#1328,#300);
#185=LINE('',#1333,#301);
#186=LINE('',#1335,#302);
#187=LINE('',#1337,#303);
#188=LINE('',#1338,#304);
#189=LINE('',#1341,#305);
#190=LINE('',#1343,#306);
#191=LINE('',#1344,#307);
#192=LINE('',#1347,#308);
#193=LINE('',#1349,#309);
#194=LINE('',#1350,#310);
#195=LINE('',#1353,#311);
#196=LINE('',#1355,#312);
#197=LINE('',#1356,#313);
#198=LINE('',#1359,#314);
#199=LINE('',#1361,#315);
#200=LINE('',#1362,#316);
#201=LINE('',#1365,#317);
#202=LINE('',#1367,#318);
#203=LINE('',#1368,#319);
#204=LINE('',#1371,#320);
#205=LINE('',#1373,#321);
#206=LINE('',#1374,#322);
#207=LINE('',#1377,#323);
#208=LINE('',#1379,#324);
#209=LINE('',#1380,#325);
#210=LINE('',#1383,#326);
#211=LINE('',#1385,#327);
#212=LINE('',#1386,#328);
#213=LINE('',#1389,#329);
#214=LINE('',#1391,#330);
#215=LINE('',#1392,#331);
#216=LINE('',#1395,#332);
#217=LINE('',#1397,#333);
#218=LINE('',#1398,#334);
#219=LINE('',#1401,#335);
#220=LINE('',#1403,#336);
#221=LINE('',#1404,#337);
#222=LINE('',#1407,#338);
#223=LINE('',#1409,#339);
#224=LINE('',#1410,#340);
#225=LINE('',#1413,#341);
#226=LINE('',#1415,#342);
#227=LINE('',#1416,#343);
#228=LINE('',#1419,#344);
#229=LINE('',#1421,#345);
#230=LINE('',#1422,#346);
#231=LINE('',#1425,#347);
#232=LINE('',#1427,#348);
#233=LINE('',#1428,#349);
#234=LINE('',#1431,#350);
#235=LINE('',#1433,#351);
#236=LINE('',#1434,#352);
#237=LINE('',#1437,#353);
#238=LINE('',#1439,#354);
#239=LINE('',#1440,#355);
#240=LINE('',#1443,#356);
#241=LINE('',#1445,#357);
#242=LINE('',#1446,#358);
#243=LINE('',#1449,#359);
#244=LINE('',#1451,#360);
#245=LINE('',#1452,#361);
#246=LINE('',#1455,#362);
#247=LINE('',#1457,#363);
#248=LINE('',#1458,#364);
#249=LINE('',#1461,#365);
#250=LINE('',#1463,#366);
#251=LINE('',#1464,#367);
#252=LINE('',#1467,#368);
#253=LINE('',#1469,#369);
#254=LINE('',#1470,#370);
#255=LINE('',#1473,#371);
#256=LINE('',#1475,#372);
#257=LINE('',#1476,#373);
#258=LINE('',#1479,#374);
#259=LINE('',#1481,#375);
#260=LINE('',#1482,#376);
#261=LINE('',#1485,#377);
#262=LINE('',#1487,#378);
#263=LINE('',#1488,#379);
#264=LINE('',#1491,#380);
#265=LINE('',#1493,#381);
#266=LINE('',#1494,#382);
#267=LINE('',#1497,#383);
#268=LINE('',#1499,#384);
#269=LINE('',#1500,#385);
#270=LINE('',#1503,#386);
#271=LINE('',#1505,#387);
#272=LINE('',#1506,#388);
#273=LINE('',#1509,#389);
#274=LINE('',#1511,#390);
#275=LINE('',#1512,#391);
#276=LINE('',#1515,#392);
#277=LINE('',#1517,#393);
#278=LINE('',#1518,#394);
#279=LINE('',#1521,#395);
#280=LINE('',#1523,#396);
#281=LINE('',#1524,#397);
#282=LINE('',#1527,#398);
#283=LINE('',#1529,#399);
#284=LINE('',#1530,#400);
#285=LINE('',#1533,#401);
#286=LINE('',#1535,#402);
#287=LINE('',#1536,#403);
#288=LINE('',#1539,#404);
#289=LINE('',#1541,#405);
#290=LINE('',#1542,#406);
#291=LINE('',#1544,#407);
#292=LINE('',#1545,#408);
#293=VECTOR('',#1045,1.6);
#294=VECTOR('',#1052,1.6);
#295=VECTOR('',#1059,1.6);
#296=VECTOR('',#1066,1.6);
#297=VECTOR('',#1073,1.6);
#298=VECTOR('',#1080,1.6);
#299=VECTOR('',#1087,1.6);
#300=VECTOR('',#1094,1.6);
#301=VECTOR('',#1099,10.);
#302=VECTOR('',#1100,10.);
#303=VECTOR('',#1101,10.);
#304=VECTOR('',#1102,10.);
#305=VECTOR('',#1105,10.);
#306=VECTOR('',#1106,10.);
#307=VECTOR('',#1107,10.);
#308=VECTOR('',#1110,10.);
#309=VECTOR('',#1111,10.);
#310=VECTOR('',#1112,10.);
#311=VECTOR('',#1115,10.);
#312=VECTOR('',#1116,10.);
#313=VECTOR('',#1117,10.);
#314=VECTOR('',#1120,10.);
#315=VECTOR('',#1121,10.);
#316=VECTOR('',#1122,10.);
#317=VECTOR('',#1125,10.);
#318=VECTOR('',#1126,10.);
#319=VECTOR('',#1127,10.);
#320=VECTOR('',#1130,10.);
#321=VECTOR('',#1131,10.);
#322=VECTOR('',#1132,10.);
#323=VECTOR('',#1135,10.);
#324=VECTOR('',#1136,10.);
#325=VECTOR('',#1137,10.);
#326=VECTOR('',#1140,10.);
#327=VECTOR('',#1141,10.);
#328=VECTOR('',#1142,10.);
#329=VECTOR('',#1145,10.);
#330=VECTOR('',#1146,10.);
#331=VECTOR('',#1147,10.);
#332=VECTOR('',#1150,10.);
#333=VECTOR('',#1151,10.);
#334=VECTOR('',#1152,10.);
#335=VECTOR('',#1155,10.);
#336=VECTOR('',#1156,10.);
#337=VECTOR('',#1157,10.);
#338=VECTOR('',#1160,10.);
#339=VECTOR('',#1161,10.);
#340=VECTOR('',#1162,10.);
#341=VECTOR('',#1165,10.);
#342=VECTOR('',#1166,10.);
#343=VECTOR('',#1167,10.);
#344=VECTOR('',#1170,10.);
#345=VECTOR('',#1171,10.);
#346=VECTOR('',#1172,10.);
#347=VECTOR('',#1175,10.);
#348=VECTOR('',#1176,10.);
#349=VECTOR('',#1177,10.);
#350=VECTOR('',#1180,10.);
#351=VECTOR('',#1181,10.);
#352=VECTOR('',#1182,10.);
#353=VECTOR('',#1185,10.);
#354=VECTOR('',#1186,10.);
#355=VECTOR('',#1187,10.);
#356=VECTOR('',#1190,10.);
#357=VECTOR('',#1191,10.);
#358=VECTOR('',#1192,10.);
#359=VECTOR('',#1195,10.);
#360=VECTOR('',#1196,10.);
#361=VECTOR('',#1197,10.);
#362=VECTOR('',#1200,10.);
#363=VECTOR('',#1201,10.);
#364=VECTOR('',#1202,10.);
#365=VECTOR('',#1205,10.);
#366=VECTOR('',#1206,10.);
#367=VECTOR('',#1207,10.);
#368=VECTOR('',#1210,10.);
#369=VECTOR('',#1211,10.);
#370=VECTOR('',#1212,10.);
#371=VECTOR('',#1215,10.);
#372=VECTOR('',#1216,10.);
#373=VECTOR('',#1217,10.);
#374=VECTOR('',#1220,10.);
#375=VECTOR('',#1221,10.);
#376=VECTOR('',#1222,10.);
#377=VECTOR('',#1225,10.);
#378=VECTOR('',#1226,10.);
#379=VECTOR('',#1227,10.);
#380=VECTOR('',#1230,10.);
#381=VECTOR('',#1231,10.);
#382=VECTOR('',#1232,10.);
#383=VECTOR('',#1235,10.);
#384=VECTOR('',#1236,10.);
#385=VECTOR('',#1237,10.);
#386=VECTOR('',#1240,10.);
#387=VECTOR('',#1241,10.);
#388=VECTOR('',#1242,10.);
#389=VECTOR('',#1245,10.);
#390=VECTOR('',#1246,10.);
#391=VECTOR('',#1247,10.);
#392=VECTOR('',#1250,10.);
#393=VECTOR('',#1251,10.);
#394=VECTOR('',#1252,10.);
#395=VECTOR('',#1255,10.);
#396=VECTOR('',#1256,10.);
#397=VECTOR('',#1257,10.);
#398=VECTOR('',#1260,10.);
#399=VECTOR('',#1261,10.);
#400=VECTOR('',#1262,10.);
#401=VECTOR('',#1265,10.);
#402=VECTOR('',#1266,10.);
#403=VECTOR('',#1267,10.);
#404=VECTOR('',#1270,10.);
#405=VECTOR('',#1271,10.);
#406=VECTOR('',#1272,10.);
#407=VECTOR('',#1275,10.);
#408=VECTOR('',#1276,10.);
#409=CIRCLE('',#978,1.6);
#410=CIRCLE('',#979,1.6);
#411=CIRCLE('',#981,1.6);
#412=CIRCLE('',#982,1.6);
#413=CIRCLE('',#984,1.6);
#414=CIRCLE('',#985,1.6);
#415=CIRCLE('',#987,1.6);
#416=CIRCLE('',#988,1.6);
#417=CIRCLE('',#990,1.6);
#418=CIRCLE('',#991,1.6);
#419=CIRCLE('',#993,1.6);
#420=CIRCLE('',#994,1.6);
#421=CIRCLE('',#996,1.6);
#422=CIRCLE('',#997,1.6);
#423=CIRCLE('',#999,1.6);
#424=CIRCLE('',#1000,1.6);
#425=VERTEX_POINT('',#1283);
#426=VERTEX_POINT('',#1285);
#427=VERTEX_POINT('',#1289);
#428=VERTEX_POINT('',#1291);
#429=VERTEX_POINT('',#1295);
#430=VERTEX_POINT('',#1297);
#431=VERTEX_POINT('',#1301);
#432=VERTEX_POINT('',#1303);
#433=VERTEX_POINT('',#1307);
#434=VERTEX_POINT('',#1309);
#435=VERTEX_POINT('',#1313);
#436=VERTEX_POINT('',#1315);
#437=VERTEX_POINT('',#1319);
#438=VERTEX_POINT('',#1321);
#439=VERTEX_POINT('',#1325);
#440=VERTEX_POINT('',#1327);
#441=VERTEX_POINT('',#1331);
#442=VERTEX_POINT('',#1332);
#443=VERTEX_POINT('',#1334);
#444=VERTEX_POINT('',#1336);
#445=VERTEX_POINT('',#1340);
#446=VERTEX_POINT('',#1342);
#447=VERTEX_POINT('',#1346);
#448=VERTEX_POINT('',#1348);
#449=VERTEX_POINT('',#1352);
#450=VERTEX_POINT('',#1354);
#451=VERTEX_POINT('',#1358);
#452=VERTEX_POINT('',#1360);
#453=VERTEX_POINT('',#1364);
#454=VERTEX_POINT('',#1366);
#455=VERTEX_POINT('',#1370);
#456=VERTEX_POINT('',#1372);
#457=VERTEX_POINT('',#1376);
#458=VERTEX_POINT('',#1378);
#459=VERTEX_POINT('',#1382);
#460=VERTEX_POINT('',#1384);
#461=VERTEX_POINT('',#1388);
#462=VERTEX_POINT('',#1390);
#463=VERTEX_POINT('',#1394);
#464=VERTEX_POINT('',#1396);
#465=VERTEX_POINT('',#1400);
#466=VERTEX_POINT('',#1402);
#467=VERTEX_POINT('',#1406);
#468=VERTEX_POINT('',#1408);
#469=VERTEX_POINT('',#1412);
#470=VERTEX_POINT('',#1414);
#471=VERTEX_POINT('',#1418);
#472=VERTEX_POINT('',#1420);
#473=VERTEX_POINT('',#1424);
#474=VERTEX_POINT('',#1426);
#475=VERTEX_POINT('',#1430);
#476=VERTEX_POINT('',#1432);
#477=VERTEX_POINT('',#1436);
#478=VERTEX_POINT('',#1438);
#479=VERTEX_POINT('',#1442);
#480=VERTEX_POINT('',#1444);
#481=VERTEX_POINT('',#1448);
#482=VERTEX_POINT('',#1450);
#483=VERTEX_POINT('',#1454);
#484=VERTEX_POINT('',#1456);
#485=VERTEX_POINT('',#1460);
#486=VERTEX_POINT('',#1462);
#487=VERTEX_POINT('',#1466);
#488=VERTEX_POINT('',#1468);
#489=VERTEX_POINT('',#1472);
#490=VERTEX_POINT('',#1474);
#491=VERTEX_POINT('',#1478);
#492=VERTEX_POINT('',#1480);
#493=VERTEX_POINT('',#1484);
#494=VERTEX_POINT('',#1486);
#495=VERTEX_POINT('',#1490);
#496=VERTEX_POINT('',#1492);
#497=VERTEX_POINT('',#1496);
#498=VERTEX_POINT('',#1498);
#499=VERTEX_POINT('',#1502);
#500=VERTEX_POINT('',#1504);
#501=VERTEX_POINT('',#1508);
#502=VERTEX_POINT('',#1510);
#503=VERTEX_POINT('',#1514);
#504=VERTEX_POINT('',#1516);
#505=VERTEX_POINT('',#1520);
#506=VERTEX_POINT('',#1522);
#507=VERTEX_POINT('',#1526);
#508=VERTEX_POINT('',#1528);
#509=VERTEX_POINT('',#1532);
#510=VERTEX_POINT('',#1534);
#511=VERTEX_POINT('',#1538);
#512=VERTEX_POINT('',#1540);
#513=EDGE_CURVE('',#425,#425,#409,.T.);
#514=EDGE_CURVE('',#425,#426,#177,.T.);
#515=EDGE_CURVE('',#426,#426,#410,.T.);
#516=EDGE_CURVE('',#427,#427,#411,.T.);
#517=EDGE_CURVE('',#427,#428,#178,.T.);
#518=EDGE_CURVE('',#428,#428,#412,.T.);
#519=EDGE_CURVE('',#429,#429,#413,.T.);
#520=EDGE_CURVE('',#429,#430,#179,.T.);
#521=EDGE_CURVE('',#430,#430,#414,.T.);
#522=EDGE_CURVE('',#431,#431,#415,.T.);
#523=EDGE_CURVE('',#431,#432,#180,.T.);
#524=EDGE_CURVE('',#432,#432,#416,.T.);
#525=EDGE_CURVE('',#433,#433,#417,.T.);
#526=EDGE_CURVE('',#433,#434,#181,.T.);
#527=EDGE_CURVE('',#434,#434,#418,.T.);
#528=EDGE_CURVE('',#435,#435,#419,.T.);
#529=EDGE_CURVE('',#435,#436,#182,.T.);
#530=EDGE_CURVE('',#436,#436,#420,.T.);
#531=EDGE_CURVE('',#437,#437,#421,.T.);
#532=EDGE_CURVE('',#437,#438,#183,.T.);
#533=EDGE_CURVE('',#438,#438,#422,.T.);
#534=EDGE_CURVE('',#439,#439,#423,.T.);
#535=EDGE_CURVE('',#439,#440,#184,.T.);
#536=EDGE_CURVE('',#440,#440,#424,.T.);
#537=EDGE_CURVE('',#441,#442,#185,.T.);
#538=EDGE_CURVE('',#441,#443,#186,.T.);
#539=EDGE_CURVE('',#444,#443,#187,.T.);
#540=EDGE_CURVE('',#442,#444,#188,.T.);
#541=EDGE_CURVE('',#442,#445,#189,.T.);
#542=EDGE_CURVE('',#446,#444,#190,.T.);
#543=EDGE_CURVE('',#445,#446,#191,.T.);
#544=EDGE_CURVE('',#445,#447,#192,.T.);
#545=EDGE_CURVE('',#448,#446,#193,.T.);
#546=EDGE_CURVE('',#447,#448,#194,.T.);
#547=EDGE_CURVE('',#447,#449,#195,.T.);
#548=EDGE_CURVE('',#450,#448,#196,.T.);
#549=EDGE_CURVE('',#449,#450,#197,.T.);
#550=EDGE_CURVE('',#449,#451,#198,.T.);
#551=EDGE_CURVE('',#452,#450,#199,.T.);
#552=EDGE_CURVE('',#451,#452,#200,.T.);
#553=EDGE_CURVE('',#451,#453,#201,.T.);
#554=EDGE_CURVE('',#454,#452,#202,.T.);
#555=EDGE_CURVE('',#453,#454,#203,.T.);
#556=EDGE_CURVE('',#453,#455,#204,.T.);
#557=EDGE_CURVE('',#456,#454,#205,.T.);
#558=EDGE_CURVE('',#455,#456,#206,.T.);
#559=EDGE_CURVE('',#457,#455,#207,.T.);
#560=EDGE_CURVE('',#458,#456,#208,.T.);
#561=EDGE_CURVE('',#457,#458,#209,.T.);
#562=EDGE_CURVE('',#459,#457,#210,.T.);
#563=EDGE_CURVE('',#460,#458,#211,.T.);
#564=EDGE_CURVE('',#459,#460,#212,.T.);
#565=EDGE_CURVE('',#459,#461,#213,.T.);
#566=EDGE_CURVE('',#462,#460,#214,.T.);
#567=EDGE_CURVE('',#461,#462,#215,.T.);
#568=EDGE_CURVE('',#463,#461,#216,.T.);
#569=EDGE_CURVE('',#464,#462,#217,.T.);
#570=EDGE_CURVE('',#463,#464,#218,.T.);
#571=EDGE_CURVE('',#463,#465,#219,.T.);
#572=EDGE_CURVE('',#466,#464,#220,.T.);
#573=EDGE_CURVE('',#465,#466,#221,.T.);
#574=EDGE_CURVE('',#465,#467,#222,.T.);
#575=EDGE_CURVE('',#468,#466,#223,.T.);
#576=EDGE_CURVE('',#467,#468,#224,.T.);
#577=EDGE_CURVE('',#467,#469,#225,.T.);
#578=EDGE_CURVE('',#470,#468,#226,.T.);
#579=EDGE_CURVE('',#469,#470,#227,.T.);
#580=EDGE_CURVE('',#471,#469,#228,.T.);
#581=EDGE_CURVE('',#472,#470,#229,.T.);
#582=EDGE_CURVE('',#471,#472,#230,.T.);
#583=EDGE_CURVE('',#471,#473,#231,.T.);
#584=EDGE_CURVE('',#474,#472,#232,.T.);
#585=EDGE_CURVE('',#473,#474,#233,.T.);
#586=EDGE_CURVE('',#473,#475,#234,.T.);
#587=EDGE_CURVE('',#476,#474,#235,.T.);
#588=EDGE_CURVE('',#475,#476,#236,.T.);
#589=EDGE_CURVE('',#475,#477,#237,.T.);
#590=EDGE_CURVE('',#478,#476,#238,.T.);
#591=EDGE_CURVE('',#477,#478,#239,.T.);
#592=EDGE_CURVE('',#477,#479,#240,.T.);
#593=EDGE_CURVE('',#480,#478,#241,.T.);
#594=EDGE_CURVE('',#479,#480,#242,.T.);
#595=EDGE_CURVE('',#481,#479,#243,.T.);
#596=EDGE_CURVE('',#482,#480,#244,.T.);
#597=EDGE_CURVE('',#481,#482,#245,.T.);
#598=EDGE_CURVE('',#483,#481,#246,.T.);
#599=EDGE_CURVE('',#484,#482,#247,.T.);
#600=EDGE_CURVE('',#483,#484,#248,.T.);
#601=EDGE_CURVE('',#485,#483,#249,.T.);
#602=EDGE_CURVE('',#486,#484,#250,.T.);
#603=EDGE_CURVE('',#485,#486,#251,.T.);
#604=EDGE_CURVE('',#487,#485,#252,.T.);
#605=EDGE_CURVE('',#488,#486,#253,.T.);
#606=EDGE_CURVE('',#487,#488,#254,.T.);
#607=EDGE_CURVE('',#489,#487,#255,.T.);
#608=EDGE_CURVE('',#490,#488,#256,.T.);
#609=EDGE_CURVE('',#489,#490,#257,.T.);
#610=EDGE_CURVE('',#491,#489,#258,.T.);
#611=EDGE_CURVE('',#492,#490,#259,.T.);
#612=EDGE_CURVE('',#491,#492,#260,.T.);
#613=EDGE_CURVE('',#493,#491,#261,.T.);
#614=EDGE_CURVE('',#494,#492,#262,.T.);
#615=EDGE_CURVE('',#493,#494,#263,.T.);
#616=EDGE_CURVE('',#493,#495,#264,.T.);
#617=EDGE_CURVE('',#496,#494,#265,.T.);
#618=EDGE_CURVE('',#495,#496,#266,.T.);
#619=EDGE_CURVE('',#495,#497,#267,.T.);
#620=EDGE_CURVE('',#498,#496,#268,.T.);
#621=EDGE_CURVE('',#497,#498,#269,.T.);
#622=EDGE_CURVE('',#497,#499,#270,.T.);
#623=EDGE_CURVE('',#500,#498,#271,.T.);
#624=EDGE_CURVE('',#499,#500,#272,.T.);
#625=EDGE_CURVE('',#499,#501,#273,.T.);
#626=EDGE_CURVE('',#502,#500,#274,.T.);
#627=EDGE_CURVE('',#501,#502,#275,.T.);
#628=EDGE_CURVE('',#503,#501,#276,.T.);
#629=EDGE_CURVE('',#504,#502,#277,.T.);
#630=EDGE_CURVE('',#503,#504,#278,.T.);
#631=EDGE_CURVE('',#503,#505,#279,.T.);
#632=EDGE_CURVE('',#506,#504,#280,.T.);
#633=EDGE_CURVE('',#505,#506,#281,.T.);
#634=EDGE_CURVE('',#505,#507,#282,.T.);
#635=EDGE_CURVE('',#508,#506,#283,.T.);
#636=EDGE_CURVE('',#507,#508,#284,.T.);
#637=EDGE_CURVE('',#507,#509,#285,.T.);
#638=EDGE_CURVE('',#510,#508,#286,.T.);
#639=EDGE_CURVE('',#509,#510,#287,.T.);
#640=EDGE_CURVE('',#511,#509,#288,.T.);
#641=EDGE_CURVE('',#512,#510,#289,.T.);
#642=EDGE_CURVE('',#511,#512,#290,.T.);
#643=EDGE_CURVE('',#511,#441,#291,.T.);
#644=EDGE_CURVE('',#443,#512,#292,.T.);
#645=ORIENTED_EDGE('',*,*,#513,.F.);
#646=ORIENTED_EDGE('',*,*,#514,.T.);
#647=ORIENTED_EDGE('',*,*,#515,.F.);
#648=ORIENTED_EDGE('',*,*,#514,.F.);
#649=ORIENTED_EDGE('',*,*,#516,.F.);
#650=ORIENTED_EDGE('',*,*,#517,.T.);
#651=ORIENTED_EDGE('',*,*,#518,.F.);
#652=ORIENTED_EDGE('',*,*,#517,.F.);
#653=ORIENTED_EDGE('',*,*,#519,.F.);
#654=ORIENTED_EDGE('',*,*,#520,.T.);
#655=ORIENTED_EDGE('',*,*,#521,.F.);
#656=ORIENTED_EDGE('',*,*,#520,.F.);
#657=ORIENTED_EDGE('',*,*,#522,.F.);
#658=ORIENTED_EDGE('',*,*,#523,.T.);
#659=ORIENTED_EDGE('',*,*,#524,.F.);
#660=ORIENTED_EDGE('',*,*,#523,.F.);
#661=ORIENTED_EDGE('',*,*,#525,.F.);
#662=ORIENTED_EDGE('',*,*,#526,.T.);
#663=ORIENTED_EDGE('',*,*,#527,.F.);
#664=ORIENTED_EDGE('',*,*,#526,.F.);
#665=ORIENTED_EDGE('',*,*,#528,.F.);
#666=ORIENTED_EDGE('',*,*,#529,.T.);
#667=ORIENTED_EDGE('',*,*,#530,.F.);
#668=ORIENTED_EDGE('',*,*,#529,.F.);
#669=ORIENTED_EDGE('',*,*,#531,.F.);
#670=ORIENTED_EDGE('',*,*,#532,.T.);
#671=ORIENTED_EDGE('',*,*,#533,.F.);
#672=ORIENTED_EDGE('',*,*,#532,.F.);
#673=ORIENTED_EDGE('',*,*,#534,.F.);
#674=ORIENTED_EDGE('',*,*,#535,.T.);
#675=ORIENTED_EDGE('',*,*,#536,.F.);
#676=ORIENTED_EDGE('',*,*,#535,.F.);
#677=ORIENTED_EDGE('',*,*,#537,.F.);
#678=ORIENTED_EDGE('',*,*,#538,.T.);
#679=ORIENTED_EDGE('',*,*,#539,.F.);
#680=ORIENTED_EDGE('',*,*,#540,.F.);
#681=ORIENTED_EDGE('',*,*,#541,.F.);
#682=ORIENTED_EDGE('',*,*,#540,.T.);
#683=ORIENTED_EDGE('',*,*,#542,.F.);
#684=ORIENTED_EDGE('',*,*,#543,.F.);
#685=ORIENTED_EDGE('',*,*,#544,.F.);
#686=ORIENTED_EDGE('',*,*,#543,.T.);
#687=ORIENTED_EDGE('',*,*,#545,.F.);
#688=ORIENTED_EDGE('',*,*,#546,.F.);
#689=ORIENTED_EDGE('',*,*,#547,.F.);
#690=ORIENTED_EDGE('',*,*,#546,.T.);
#691=ORIENTED_EDGE('',*,*,#548,.F.);
#692=ORIENTED_EDGE('',*,*,#549,.F.);
#693=ORIENTED_EDGE('',*,*,#550,.F.);
#694=ORIENTED_EDGE('',*,*,#549,.T.);
#695=ORIENTED_EDGE('',*,*,#551,.F.);
#696=ORIENTED_EDGE('',*,*,#552,.F.);
#697=ORIENTED_EDGE('',*,*,#553,.F.);
#698=ORIENTED_EDGE('',*,*,#552,.T.);
#699=ORIENTED_EDGE('',*,*,#554,.F.);
#700=ORIENTED_EDGE('',*,*,#555,.F.);
#701=ORIENTED_EDGE('',*,*,#556,.F.);
#702=ORIENTED_EDGE('',*,*,#555,.T.);
#703=ORIENTED_EDGE('',*,*,#557,.F.);
#704=ORIENTED_EDGE('',*,*,#558,.F.);
#705=ORIENTED_EDGE('',*,*,#559,.T.);
#706=ORIENTED_EDGE('',*,*,#558,.T.);
#707=ORIENTED_EDGE('',*,*,#560,.F.);
#708=ORIENTED_EDGE('',*,*,#561,.F.);
#709=ORIENTED_EDGE('',*,*,#562,.T.);
#710=ORIENTED_EDGE('',*,*,#561,.T.);
#711=ORIENTED_EDGE('',*,*,#563,.F.);
#712=ORIENTED_EDGE('',*,*,#564,.F.);
#713=ORIENTED_EDGE('',*,*,#565,.F.);
#714=ORIENTED_EDGE('',*,*,#564,.T.);
#715=ORIENTED_EDGE('',*,*,#566,.F.);
#716=ORIENTED_EDGE('',*,*,#567,.F.);
#717=ORIENTED_EDGE('',*,*,#568,.T.);
#718=ORIENTED_EDGE('',*,*,#567,.T.);
#719=ORIENTED_EDGE('',*,*,#569,.F.);
#720=ORIENTED_EDGE('',*,*,#570,.F.);
#721=ORIENTED_EDGE('',*,*,#571,.F.);
#722=ORIENTED_EDGE('',*,*,#570,.T.);
#723=ORIENTED_EDGE('',*,*,#572,.F.);
#724=ORIENTED_EDGE('',*,*,#573,.F.);
#725=ORIENTED_EDGE('',*,*,#574,.F.);
#726=ORIENTED_EDGE('',*,*,#573,.T.);
#727=ORIENTED_EDGE('',*,*,#575,.F.);
#728=ORIENTED_EDGE('',*,*,#576,.F.);
#729=ORIENTED_EDGE('',*,*,#577,.F.);
#730=ORIENTED_EDGE('',*,*,#576,.T.);
#731=ORIENTED_EDGE('',*,*,#578,.F.);
#732=ORIENTED_EDGE('',*,*,#579,.F.);
#733=ORIENTED_EDGE('',*,*,#580,.T.);
#734=ORIENTED_EDGE('',*,*,#579,.T.);
#735=ORIENTED_EDGE('',*,*,#581,.F.);
#736=ORIENTED_EDGE('',*,*,#582,.F.);
#737=ORIENTED_EDGE('',*,*,#583,.F.);
#738=ORIENTED_EDGE('',*,*,#582,.T.);
#739=ORIENTED_EDGE('',*,*,#584,.F.);
#740=ORIENTED_EDGE('',*,*,#585,.F.);
#741=ORIENTED_EDGE('',*,*,#586,.F.);
#742=ORIENTED_EDGE('',*,*,#585,.T.);
#743=ORIENTED_EDGE('',*,*,#587,.F.);
#744=ORIENTED_EDGE('',*,*,#588,.F.);
#745=ORIENTED_EDGE('',*,*,#589,.F.);
#746=ORIENTED_EDGE('',*,*,#588,.T.);
#747=ORIENTED_EDGE('',*,*,#590,.F.);
#748=ORIENTED_EDGE('',*,*,#591,.F.);
#749=ORIENTED_EDGE('',*,*,#592,.F.);
#750=ORIENTED_EDGE('',*,*,#591,.T.);
#751=ORIENTED_EDGE('',*,*,#593,.F.);
#752=ORIENTED_EDGE('',*,*,#594,.F.);
#753=ORIENTED_EDGE('',*,*,#595,.T.);
#754=ORIENTED_EDGE('',*,*,#594,.T.);
#755=ORIENTED_EDGE('',*,*,#596,.F.);
#756=ORIENTED_EDGE('',*,*,#597,.F.);
#757=ORIENTED_EDGE('',*,*,#598,.T.);
#758=ORIENTED_EDGE('',*,*,#597,.T.);
#759=ORIENTED_EDGE('',*,*,#599,.F.);
#760=ORIENTED_EDGE('',*,*,#600,.F.);
#761=ORIENTED_EDGE('',*,*,#601,.T.);
#762=ORIENTED_EDGE('',*,*,#600,.T.);
#763=ORIENTED_EDGE('',*,*,#602,.F.);
#764=ORIENTED_EDGE('',*,*,#603,.F.);
#765=ORIENTED_EDGE('',*,*,#604,.T.);
#766=ORIENTED_EDGE('',*,*,#603,.T.);
#767=ORIENTED_EDGE('',*,*,#605,.F.);
#768=ORIENTED_EDGE('',*,*,#606,.F.);
#769=ORIENTED_EDGE('',*,*,#607,.T.);
#770=ORIENTED_EDGE('',*,*,#606,.T.);
#771=ORIENTED_EDGE('',*,*,#608,.F.);
#772=ORIENTED_EDGE('',*,*,#609,.F.);
#773=ORIENTED_EDGE('',*,*,#610,.T.);
#774=ORIENTED_EDGE('',*,*,#609,.T.);
#775=ORIENTED_EDGE('',*,*,#611,.F.);
#776=ORIENTED_EDGE('',*,*,#612,.F.);
#777=ORIENTED_EDGE('',*,*,#613,.T.);
#778=ORIENTED_EDGE('',*,*,#612,.T.);
#779=ORIENTED_EDGE('',*,*,#614,.F.);
#780=ORIENTED_EDGE('',*,*,#615,.F.);
#781=ORIENTED_EDGE('',*,*,#616,.F.);
#782=ORIENTED_EDGE('',*,*,#615,.T.);
#783=ORIENTED_EDGE('',*,*,#617,.F.);
#784=ORIENTED_EDGE('',*,*,#618,.F.);
#785=ORIENTED_EDGE('',*,*,#619,.F.);
#786=ORIENTED_EDGE('',*,*,#618,.T.);
#787=ORIENTED_EDGE('',*,*,#620,.F.);
#788=ORIENTED_EDGE('',*,*,#621,.F.);
#789=ORIENTED_EDGE('',*,*,#622,.F.);
#790=ORIENTED_EDGE('',*,*,#621,.T.);
#791=ORIENTED_EDGE('',*,*,#623,.F.);
#792=ORIENTED_EDGE('',*,*,#624,.F.);
#793=ORIENTED_EDGE('',*,*,#625,.F.);
#794=ORIENTED_EDGE('',*,*,#624,.T.);
#795=ORIENTED_EDGE('',*,*,#626,.F.);
#796=ORIENTED_EDGE('',*,*,#627,.F.);
#797=ORIENTED_EDGE('',*,*,#628,.T.);
#798=ORIENTED_EDGE('',*,*,#627,.T.);
#799=ORIENTED_EDGE('',*,*,#629,.F.);
#800=ORIENTED_EDGE('',*,*,#630,.F.);
#801=ORIENTED_EDGE('',*,*,#631,.F.);
#802=ORIENTED_EDGE('',*,*,#630,.T.);
#803=ORIENTED_EDGE('',*,*,#632,.F.);
#804=ORIENTED_EDGE('',*,*,#633,.F.);
#805=ORIENTED_EDGE('',*,*,#634,.F.);
#806=ORIENTED_EDGE('',*,*,#633,.T.);
#807=ORIENTED_EDGE('',*,*,#635,.F.);
#808=ORIENTED_EDGE('',*,*,#636,.F.);
#809=ORIENTED_EDGE('',*,*,#637,.F.);
#810=ORIENTED_EDGE('',*,*,#636,.T.);
#811=ORIENTED_EDGE('',*,*,#638,.F.);
#812=ORIENTED_EDGE('',*,*,#639,.F.);
#813=ORIENTED_EDGE('',*,*,#640,.T.);
#814=ORIENTED_EDGE('',*,*,#639,.T.);
#815=ORIENTED_EDGE('',*,*,#641,.F.);
#816=ORIENTED_EDGE('',*,*,#642,.F.);
#817=ORIENTED_EDGE('',*,*,#643,.F.);
#818=ORIENTED_EDGE('',*,*,#642,.T.);
#819=ORIENTED_EDGE('',*,*,#644,.F.);
#820=ORIENTED_EDGE('',*,*,#538,.F.);
#821=ORIENTED_EDGE('',*,*,#644,.T.);
#822=ORIENTED_EDGE('',*,*,#641,.T.);
#823=ORIENTED_EDGE('',*,*,#638,.T.);
#824=ORIENTED_EDGE('',*,*,#635,.T.);
#825=ORIENTED_EDGE('',*,*,#632,.T.);
#826=ORIENTED_EDGE('',*,*,#629,.T.);
#827=ORIENTED_EDGE('',*,*,#626,.T.);
#828=ORIENTED_EDGE('',*,*,#623,.T.);
#829=ORIENTED_EDGE('',*,*,#620,.T.);
#830=ORIENTED_EDGE('',*,*,#617,.T.);
#831=ORIENTED_EDGE('',*,*,#614,.T.);
#832=ORIENTED_EDGE('',*,*,#611,.T.);
#833=ORIENTED_EDGE('',*,*,#608,.T.);
#834=ORIENTED_EDGE('',*,*,#605,.T.);
#835=ORIENTED_EDGE('',*,*,#602,.T.);
#836=ORIENTED_EDGE('',*,*,#599,.T.);
#837=ORIENTED_EDGE('',*,*,#596,.T.);
#838=ORIENTED_EDGE('',*,*,#593,.T.);
#839=ORIENTED_EDGE('',*,*,#590,.T.);
#840=ORIENTED_EDGE('',*,*,#587,.T.);
#841=ORIENTED_EDGE('',*,*,#584,.T.);
#842=ORIENTED_EDGE('',*,*,#581,.T.);
#843=ORIENTED_EDGE('',*,*,#578,.T.);
#844=ORIENTED_EDGE('',*,*,#575,.T.);
#845=ORIENTED_EDGE('',*,*,#572,.T.);
#846=ORIENTED_EDGE('',*,*,#569,.T.);
#847=ORIENTED_EDGE('',*,*,#566,.T.);
#848=ORIENTED_EDGE('',*,*,#563,.T.);
#849=ORIENTED_EDGE('',*,*,#560,.T.);
#850=ORIENTED_EDGE('',*,*,#557,.T.);
#851=ORIENTED_EDGE('',*,*,#554,.T.);
#852=ORIENTED_EDGE('',*,*,#551,.T.);
#853=ORIENTED_EDGE('',*,*,#548,.T.);
#854=ORIENTED_EDGE('',*,*,#545,.T.);
#855=ORIENTED_EDGE('',*,*,#542,.T.);
#856=ORIENTED_EDGE('',*,*,#539,.T.);
#857=ORIENTED_EDGE('',*,*,#515,.T.);
#858=ORIENTED_EDGE('',*,*,#518,.T.);
#859=ORIENTED_EDGE('',*,*,#521,.T.);
#860=ORIENTED_EDGE('',*,*,#524,.T.);
#861=ORIENTED_EDGE('',*,*,#527,.T.);
#862=ORIENTED_EDGE('',*,*,#530,.T.);
#863=ORIENTED_EDGE('',*,*,#533,.T.);
#864=ORIENTED_EDGE('',*,*,#536,.T.);
#865=ORIENTED_EDGE('',*,*,#643,.T.);
#866=ORIENTED_EDGE('',*,*,#537,.T.);
#867=ORIENTED_EDGE('',*,*,#541,.T.);
#868=ORIENTED_EDGE('',*,*,#544,.T.);
#869=ORIENTED_EDGE('',*,*,#547,.T.);
#870=ORIENTED_EDGE('',*,*,#550,.T.);
#871=ORIENTED_EDGE('',*,*,#553,.T.);
#872=ORIENTED_EDGE('',*,*,#556,.T.);
#873=ORIENTED_EDGE('',*,*,#559,.F.);
#874=ORIENTED_EDGE('',*,*,#562,.F.);
#875=ORIENTED_EDGE('',*,*,#565,.T.);
#876=ORIENTED_EDGE('',*,*,#568,.F.);
#877=ORIENTED_EDGE('',*,*,#571,.T.);
#878=ORIENTED_EDGE('',*,*,#574,.T.);
#879=ORIENTED_EDGE('',*,*,#577,.T.);
#880=ORIENTED_EDGE('',*,*,#580,.F.);
#881=ORIENTED_EDGE('',*,*,#583,.T.);
#882=ORIENTED_EDGE('',*,*,#586,.T.);
#883=ORIENTED_EDGE('',*,*,#589,.T.);
#884=ORIENTED_EDGE('',*,*,#592,.T.);
#885=ORIENTED_EDGE('',*,*,#595,.F.);
#886=ORIENTED_EDGE('',*,*,#598,.F.);
#887=ORIENTED_EDGE('',*,*,#601,.F.);
#888=ORIENTED_EDGE('',*,*,#604,.F.);
#889=ORIENTED_EDGE('',*,*,#607,.F.);
#890=ORIENTED_EDGE('',*,*,#610,.F.);
#891=ORIENTED_EDGE('',*,*,#613,.F.);
#892=ORIENTED_EDGE('',*,*,#616,.T.);
#893=ORIENTED_EDGE('',*,*,#619,.T.);
#894=ORIENTED_EDGE('',*,*,#622,.T.);
#895=ORIENTED_EDGE('',*,*,#625,.T.);
#896=ORIENTED_EDGE('',*,*,#628,.F.);
#897=ORIENTED_EDGE('',*,*,#631,.T.);
#898=ORIENTED_EDGE('',*,*,#634,.T.);
#899=ORIENTED_EDGE('',*,*,#637,.T.);
#900=ORIENTED_EDGE('',*,*,#640,.F.);
#901=ORIENTED_EDGE('',*,*,#513,.T.);
#902=ORIENTED_EDGE('',*,*,#516,.T.);
#903=ORIENTED_EDGE('',*,*,#519,.T.);
#904=ORIENTED_EDGE('',*,*,#522,.T.);
#905=ORIENTED_EDGE('',*,*,#525,.T.);
#906=ORIENTED_EDGE('',*,*,#528,.T.);
#907=ORIENTED_EDGE('',*,*,#531,.T.);
#908=ORIENTED_EDGE('',*,*,#534,.T.);
#909=CYLINDRICAL_SURFACE('',#977,1.6);
#910=CYLINDRICAL_SURFACE('',#980,1.6);
#911=CYLINDRICAL_SURFACE('',#983,1.6);
#912=CYLINDRICAL_SURFACE('',#986,1.6);
#913=CYLINDRICAL_SURFACE('',#989,1.6);
#914=CYLINDRICAL_SURFACE('',#992,1.6);
#915=CYLINDRICAL_SURFACE('',#995,1.6);
#916=CYLINDRICAL_SURFACE('',#998,1.6);
#917=ADVANCED_FACE('',(#69),#909,.F.);
#918=ADVANCED_FACE('',(#70),#910,.F.);
#919=ADVANCED_FACE('',(#71),#911,.F.);
#920=ADVANCED_FACE('',(#72),#912,.F.);
#921=ADVANCED_FACE('',(#73),#913,.F.);
#922=ADVANCED_FACE('',(#74),#914,.F.);
#923=ADVANCED_FACE('',(#75),#915,.F.);
#924=ADVANCED_FACE('',(#76),#916,.F.);
#925=ADVANCED_FACE('',(#77),#31,.T.);
#926=ADVANCED_FACE('',(#78),#32,.T.);
#927=ADVANCED_FACE('',(#79),#33,.T.);
#928=ADVANCED_FACE('',(#80),#34,.T.);
#929=ADVANCED_FACE('',(#81),#35,.T.);
#930=ADVANCED_FACE('',(#82),#36,.T.);
#931=ADVANCED_FACE('',(#83),#37,.T.);
#932=ADVANCED_FACE('',(#84),#38,.T.);
#933=ADVANCED_FACE('',(#85),#39,.T.);
#934=ADVANCED_FACE('',(#86),#40,.T.);
#935=ADVANCED_FACE('',(#87),#41,.T.);
#936=ADVANCED_FACE('',(#88),#42,.T.);
#937=ADVANCED_FACE('',(#89),#43,.T.);
#938=ADVANCED_FACE('',(#90),#44,.T.);
#939=ADVANCED_FACE('',(#91),#45,.T.);
#940=ADVANCED_FACE('',(#92),#46,.T.);
#941=ADVANCED_FACE('',(#93),#47,.T.);
#942=ADVANCED_FACE('',(#94),#48,.T.);
#943=ADVANCED_FACE('',(#95),#49,.T.);
#944=ADVANCED_FACE('',(#96),#50,.T.);
#945=ADVANCED_FACE('',(#97),#51,.T.);
#946=ADVANCED_FACE('',(#98),#52,.T.);
#947=ADVANCED_FACE('',(#99),#53,.T.);
#948=ADVANCED_FACE('',(#100),#54,.T.);
#949=ADVANCED_FACE('',(#101),#55,.T.);
#950=ADVANCED_FACE('',(#102),#56,.T.);
#951=ADVANCED_FACE('',(#103),#57,.T.);
#952=ADVANCED_FACE('',(#104),#58,.T.);
#953=ADVANCED_FACE('',(#105),#59,.T.);
#954=ADVANCED_FACE('',(#106),#60,.T.);
#955=ADVANCED_FACE('',(#107),#61,.T.);
#956=ADVANCED_FACE('',(#108),#62,.T.);
#957=ADVANCED_FACE('',(#109),#63,.T.);
#958=ADVANCED_FACE('',(#110),#64,.T.);
#959=ADVANCED_FACE('',(#111),#65,.T.);
#960=ADVANCED_FACE('',(#112),#66,.T.);
#961=ADVANCED_FACE('',(#113,#15,#16,#17,#18,#19,#20,#21,#22),#67,.T.);
#962=ADVANCED_FACE('',(#114,#23,#24,#25,#26,#27,#28,#29,#30),#68,.F.);
#963=CLOSED_SHELL('',(#917,#918,#919,#920,#921,#922,#923,#924,#925,#926,
#927,#928,#929,#930,#931,#932,#933,#934,#935,#936,#937,#938,#939,#940,#941,
#942,#943,#944,#945,#946,#947,#948,#949,#950,#951,#952,#953,#954,#955,#956,
#957,#958,#959,#960,#961,#962));
#964=DERIVED_UNIT_ELEMENT(#966,1.);
#965=DERIVED_UNIT_ELEMENT(#1553,-3.);
#966=(
MASS_UNIT()
NAMED_UNIT(*)
SI_UNIT(.KILO.,.GRAM.)
);
#967=DERIVED_UNIT((#964,#965));
#968=MEASURE_REPRESENTATION_ITEM('density measure',
POSITIVE_RATIO_MEASURE(7850.),#967);
#969=PROPERTY_DEFINITION_REPRESENTATION(#974,#971);
#970=PROPERTY_DEFINITION_REPRESENTATION(#975,#972);
#971=REPRESENTATION('material name',(#973),#1550);
#972=REPRESENTATION('density',(#968),#1550);
#973=DESCRIPTIVE_REPRESENTATION_ITEM('A\X\E7o','A\X\E7o');
#974=PROPERTY_DEFINITION('material property','material name',#1560);
#975=PROPERTY_DEFINITION('material property','density of part',#1560);
#976=AXIS2_PLACEMENT_3D('',#1281,#1039,#1040);
#977=AXIS2_PLACEMENT_3D('',#1282,#1041,#1042);
#978=AXIS2_PLACEMENT_3D('',#1284,#1043,#1044);
#979=AXIS2_PLACEMENT_3D('',#1287,#1046,#1047);
#980=AXIS2_PLACEMENT_3D('',#1288,#1048,#1049);
#981=AXIS2_PLACEMENT_3D('',#1290,#1050,#1051);
#982=AXIS2_PLACEMENT_3D('',#1293,#1053,#1054);
#983=AXIS2_PLACEMENT_3D('',#1294,#1055,#1056);
#984=AXIS2_PLACEMENT_3D('',#1296,#1057,#1058);
#985=AXIS2_PLACEMENT_3D('',#1299,#1060,#1061);
#986=AXIS2_PLACEMENT_3D('',#1300,#1062,#1063);
#987=AXIS2_PLACEMENT_3D('',#1302,#1064,#1065);
#988=AXIS2_PLACEMENT_3D('',#1305,#1067,#1068);
#989=AXIS2_PLACEMENT_3D('',#1306,#1069,#1070);
#990=AXIS2_PLACEMENT_3D('',#1308,#1071,#1072);
#991=AXIS2_PLACEMENT_3D('',#1311,#1074,#1075);
#992=AXIS2_PLACEMENT_3D('',#1312,#1076,#1077);
#993=AXIS2_PLACEMENT_3D('',#1314,#1078,#1079);
#994=AXIS2_PLACEMENT_3D('',#1317,#1081,#1082);
#995=AXIS2_PLACEMENT_3D('',#1318,#1083,#1084);
#996=AXIS2_PLACEMENT_3D('',#1320,#1085,#1086);
#997=AXIS2_PLACEMENT_3D('',#1323,#1088,#1089);
#998=AXIS2_PLACEMENT_3D('',#1324,#1090,#1091);
#999=AXIS2_PLACEMENT_3D('',#1326,#1092,#1093);
#1000=AXIS2_PLACEMENT_3D('',#1329,#1095,#1096);
#1001=AXIS2_PLACEMENT_3D('',#1330,#1097,#1098);
#1002=AXIS2_PLACEMENT_3D('',#1339,#1103,#1104);
#1003=AXIS2_PLACEMENT_3D('',#1345,#1108,#1109);
#1004=AXIS2_PLACEMENT_3D('',#1351,#1113,#1114);
#1005=AXIS2_PLACEMENT_3D('',#1357,#1118,#1119);
#1006=AXIS2_PLACEMENT_3D('',#1363,#1123,#1124);
#1007=AXIS2_PLACEMENT_3D('',#1369,#1128,#1129);
#1008=AXIS2_PLACEMENT_3D('',#1375,#1133,#1134);
#1009=AXIS2_PLACEMENT_3D('',#1381,#1138,#1139);
#1010=AXIS2_PLACEMENT_3D('',#1387,#1143,#1144);
#1011=AXIS2_PLACEMENT_3D('',#1393,#1148,#1149);
#1012=AXIS2_PLACEMENT_3D('',#1399,#1153,#1154);
#1013=AXIS2_PLACEMENT_3D('',#1405,#1158,#1159);
#1014=AXIS2_PLACEMENT_3D('',#1411,#1163,#1164);
#1015=AXIS2_PLACEMENT_3D('',#1417,#1168,#1169);
#1016=AXIS2_PLACEMENT_3D('',#1423,#1173,#1174);
#1017=AXIS2_PLACEMENT_3D('',#1429,#1178,#1179);
#1018=AXIS2_PLACEMENT_3D('',#1435,#1183,#1184);
#1019=AXIS2_PLACEMENT_3D('',#1441,#1188,#1189);
#1020=AXIS2_PLACEMENT_3D('',#1447,#1193,#1194);
#1021=AXIS2_PLACEMENT_3D('',#1453,#1198,#1199);
#1022=AXIS2_PLACEMENT_3D('',#1459,#1203,#1204);
#1023=AXIS2_PLACEMENT_3D('',#1465,#1208,#1209);
#1024=AXIS2_PLACEMENT_3D('',#1471,#1213,#1214);
#1025=AXIS2_PLACEMENT_3D('',#1477,#1218,#1219);
#1026=AXIS2_PLACEMENT_3D('',#1483,#1223,#1224);
#1027=AXIS2_PLACEMENT_3D('',#1489,#1228,#1229);
#1028=AXIS2_PLACEMENT_3D('',#1495,#1233,#1234);
#1029=AXIS2_PLACEMENT_3D('',#1501,#1238,#1239);
#1030=AXIS2_PLACEMENT_3D('',#1507,#1243,#1244);
#1031=AXIS2_PLACEMENT_3D('',#1513,#1248,#1249);
#1032=AXIS2_PLACEMENT_3D('',#1519,#1253,#1254);
#1033=AXIS2_PLACEMENT_3D('',#1525,#1258,#1259);
#1034=AXIS2_PLACEMENT_3D('',#1531,#1263,#1264);
#1035=AXIS2_PLACEMENT_3D('',#1537,#1268,#1269);
#1036=AXIS2_PLACEMENT_3D('',#1543,#1273,#1274);
#1037=AXIS2_PLACEMENT_3D('',#1546,#1277,#1278);
#1038=AXIS2_PLACEMENT_3D('',#1547,#1279,#1280);
#1039=DIRECTION('axis',(0.,0.,1.));
#1040=DIRECTION('refdir',(1.,0.,0.));
#1041=DIRECTION('center_axis',(0.,1.,0.));
#1042=DIRECTION('ref_axis',(1.,0.,0.));
#1043=DIRECTION('center_axis',(0.,1.,0.));
#1044=DIRECTION('ref_axis',(1.,0.,0.));
#1045=DIRECTION('',(0.,1.,0.));
#1046=DIRECTION('center_axis',(0.,-1.,0.));
#1047=DIRECTION('ref_axis',(1.,0.,0.));
#1048=DIRECTION('center_axis',(0.,1.,0.));
#1049=DIRECTION('ref_axis',(1.,0.,0.));
#1050=DIRECTION('center_axis',(0.,1.,0.));
#1051=DIRECTION('ref_axis',(1.,0.,0.));
#1052=DIRECTION('',(0.,1.,0.));
#1053=DIRECTION('center_axis',(0.,-1.,0.));
#1054=DIRECTION('ref_axis',(1.,0.,0.));
#1055=DIRECTION('center_axis',(0.,1.,0.));
#1056=DIRECTION('ref_axis',(1.,0.,0.));
#1057=DIRECTION('center_axis',(0.,1.,0.));
#1058=DIRECTION('ref_axis',(1.,0.,0.));
#1059=DIRECTION('',(0.,1.,0.));
#1060=DIRECTION('center_axis',(0.,-1.,0.));
#1061=DIRECTION('ref_axis',(1.,0.,0.));
#1062=DIRECTION('center_axis',(0.,1.,0.));
#1063=DIRECTION('ref_axis',(1.,0.,0.));
#1064=DIRECTION('center_axis',(0.,1.,0.));
#1065=DIRECTION('ref_axis',(1.,0.,0.));
#1066=DIRECTION('',(0.,1.,0.));
#1067=DIRECTION('center_axis',(0.,-1.,0.));
#1068=DIRECTION('ref_axis',(1.,0.,0.));
#1069=DIRECTION('center_axis',(0.,1.,0.));
#1070=DIRECTION('ref_axis',(1.,0.,0.));
#1071=DIRECTION('center_axis',(0.,1.,0.));
#1072=DIRECTION('ref_axis',(1.,0.,0.));
#1073=DIRECTION('',(0.,1.,0.));
#1074=DIRECTION('center_axis',(0.,-1.,0.));
#1075=DIRECTION('ref_axis',(1.,0.,0.));
#1076=DIRECTION('center_axis',(0.,1.,0.));
#1077=DIRECTION('ref_axis',(1.,0.,0.));
#1078=DIRECTION('center_axis',(0.,1.,0.));
#1079=DIRECTION('ref_axis',(1.,0.,0.));
#1080=DIRECTION('',(0.,1.,0.));
#1081=DIRECTION('center_axis',(0.,-1.,0.));
#1082=DIRECTION('ref_axis',(1.,0.,0.));
#1083=DIRECTION('center_axis',(0.,1.,0.));
#1084=DIRECTION('ref_axis',(1.,0.,0.));
#1085=DIRECTION('center_axis',(0.,1.,0.));
#1086=DIRECTION('ref_axis',(1.,0.,0.));
#1087=DIRECTION('',(0.,1.,0.));
#1088=DIRECTION('center_axis',(0.,-1.,0.));
#1089=DIRECTION('ref_axis',(1.,0.,0.));
#1090=DIRECTION('center_axis',(0.,1.,0.));
#1091=DIRECTION('ref_axis',(1.,0.,0.));
#1092=DIRECTION('center_axis',(0.,1.,0.));
#1093=DIRECTION('ref_axis',(1.,0.,0.));
#1094=DIRECTION('',(0.,1.,0.));
#1095=DIRECTION('center_axis',(0.,-1.,0.));
#1096=DIRECTION('ref_axis',(1.,0.,0.));
#1097=DIRECTION('center_axis',(0.,0.,-1.));
#1098=DIRECTION('ref_axis',(-1.,0.,0.));
#1099=DIRECTION('',(1.,0.,0.));
#1100=DIRECTION('',(0.,1.,0.));
#1101=DIRECTION('',(-1.,0.,0.));
#1102=DIRECTION('',(0.,1.,0.));
#1103=DIRECTION('center_axis',(-1.,0.,0.));
#1104=DIRECTION('ref_axis',(0.,0.,1.));
#1105=DIRECTION('',(0.,0.,-1.));
#1106=DIRECTION('',(0.,0.,1.));
#1107=DIRECTION('',(0.,1.,0.));
#1108=DIRECTION('center_axis',(0.,0.,-1.));
#1109=DIRECTION('ref_axis',(-1.,0.,0.));
#1110=DIRECTION('',(1.,0.,0.));
#1111=DIRECTION('',(-1.,0.,0.));
#1112=DIRECTION('',(0.,1.,0.));
#1113=DIRECTION('center_axis',(1.,0.,0.));
#1114=DIRECTION('ref_axis',(0.,0.,-1.));
#1115=DIRECTION('',(0.,0.,1.));
#1116=DIRECTION('',(0.,0.,-1.));
#1117=DIRECTION('',(0.,1.,0.));
#1118=DIRECTION('center_axis',(0.,0.,-1.));
#1119=DIRECTION('ref_axis',(-1.,0.,0.));
#1120=DIRECTION('',(1.,0.,0.));
#1121=DIRECTION('',(-1.,0.,0.));
#1122=DIRECTION('',(0.,1.,0.));
#1123=DIRECTION('center_axis',(-1.,0.,0.));
#1124=DIRECTION('ref_axis',(0.,0.,1.));
#1125=DIRECTION('',(0.,0.,-1.));
#1126=DIRECTION('',(0.,0.,1.));
#1127=DIRECTION('',(0.,1.,0.));
#1128=DIRECTION('center_axis',(0.,0.,-1.));
#1129=DIRECTION('ref_axis',(-1.,0.,0.));
#1130=DIRECTION('',(1.,0.,0.));
#1131=DIRECTION('',(-1.,0.,0.));
#1132=DIRECTION('',(0.,1.,0.));
#1133=DIRECTION('center_axis',(0.999999999999884,0.,-4.81804208381809E-7));
#1134=DIRECTION('ref_axis',(-4.81804208381809E-7,0.,-0.999999999999884));
#1135=DIRECTION('',(-4.81804208381809E-7,0.,-0.999999999999884));
#1136=DIRECTION('',(-4.81804208381809E-7,0.,-0.999999999999884));
#1137=DIRECTION('',(0.,1.,0.));
#1138=DIRECTION('center_axis',(0.,0.,-1.));
#1139=DIRECTION('ref_axis',(-1.,0.,0.));
#1140=DIRECTION('',(-1.,0.,0.));
#1141=DIRECTION('',(-1.,0.,0.));
#1142=DIRECTION('',(0.,1.,0.));
#1143=DIRECTION('center_axis',(1.,0.,0.));
#1144=DIRECTION('ref_axis',(0.,0.,-1.));
#1145=DIRECTION('',(0.,0.,1.));
#1146=DIRECTION('',(0.,0.,-1.));
#1147=DIRECTION('',(0.,1.,0.));
#1148=DIRECTION('center_axis',(0.,0.,1.));
#1149=DIRECTION('ref_axis',(1.,0.,0.));
#1150=DIRECTION('',(1.,0.,0.));
#1151=DIRECTION('',(1.,0.,0.));
#1152=DIRECTION('',(0.,1.,0.));
#1153=DIRECTION('center_axis',(1.,0.,0.));
#1154=DIRECTION('ref_axis',(0.,0.,-1.));
#1155=DIRECTION('',(0.,0.,1.));
#1156=DIRECTION('',(0.,0.,-1.));
#1157=DIRECTION('',(0.,1.,0.));
#1158=DIRECTION('center_axis',(0.,0.,-1.));
#1159=DIRECTION('ref_axis',(-1.,0.,0.));
#1160=DIRECTION('',(1.,0.,0.));
#1161=DIRECTION('',(-1.,0.,0.));
#1162=DIRECTION('',(0.,1.,0.));
#1163=DIRECTION('center_axis',(1.,0.,0.));
#1164=DIRECTION('ref_axis',(0.,0.,-1.));
#1165=DIRECTION('',(0.,0.,1.));
#1166=DIRECTION('',(0.,0.,-1.));
#1167=DIRECTION('',(0.,1.,0.));
#1168=DIRECTION('center_axis',(0.,0.,1.));
#1169=DIRECTION('ref_axis',(1.,0.,0.));
#1170=DIRECTION('',(1.,0.,0.));
#1171=DIRECTION('',(1.,0.,0.));
#1172=DIRECTION('',(0.,1.,0.));
#1173=DIRECTION('center_axis',(1.,0.,0.));
#1174=DIRECTION('ref_axis',(0.,0.,-1.));
#1175=DIRECTION('',(0.,0.,1.));
#1176=DIRECTION('',(0.,0.,-1.));
#1177=DIRECTION('',(0.,1.,0.));
#1178=DIRECTION('center_axis',(0.,0.,-1.));
#1179=DIRECTION('ref_axis',(-1.,0.,0.));
#1180=DIRECTION('',(1.,0.,0.));
#1181=DIRECTION('',(-1.,0.,0.));
#1182=DIRECTION('',(0.,1.,0.));
#1183=DIRECTION('center_axis',(1.,0.,0.));
#1184=DIRECTION('ref_axis',(0.,0.,-1.));
#1185=DIRECTION('',(0.,0.,1.));
#1186=DIRECTION('',(0.,0.,-1.));
#1187=DIRECTION('',(0.,1.,0.));
#1188=DIRECTION('center_axis',(-2.28484469862635E-7,0.,0.999999999999974));
#1189=DIRECTION('ref_axis',(0.999999999999974,0.,2.28484469862635E-7));
#1190=DIRECTION('',(-0.999999999999974,0.,-2.28484469862635E-7));
#1191=DIRECTION('',(0.999999999999974,0.,2.28484469862635E-7));
#1192=DIRECTION('',(0.,1.,0.));
#1193=DIRECTION('center_axis',(1.,0.,0.));
#1194=DIRECTION('ref_axis',(0.,0.,-1.));
#1195=DIRECTION('',(0.,0.,-1.));
#1196=DIRECTION('',(0.,0.,-1.));
#1197=DIRECTION('',(0.,1.,0.));
#1198=DIRECTION('center_axis',(0.,0.,1.));
#1199=DIRECTION('ref_axis',(1.,0.,0.));
#1200=DIRECTION('',(1.,0.,0.));
#1201=DIRECTION('',(1.,0.,0.));
#1202=DIRECTION('',(0.,1.,0.));
#1203=DIRECTION('center_axis',(-1.,0.,0.));
#1204=DIRECTION('ref_axis',(0.,0.,1.));
#1205=DIRECTION('',(0.,0.,1.));
#1206=DIRECTION('',(0.,0.,1.));
#1207=DIRECTION('',(0.,1.,0.));
#1208=DIRECTION('center_axis',(0.,0.,1.));
#1209=DIRECTION('ref_axis',(1.,0.,0.));
#1210=DIRECTION('',(1.,0.,0.));
#1211=DIRECTION('',(1.,0.,0.));
#1212=DIRECTION('',(0.,1.,0.));
#1213=DIRECTION('center_axis',(1.,0.,0.));
#1214=DIRECTION('ref_axis',(0.,0.,-1.));
#1215=DIRECTION('',(0.,0.,-1.));
#1216=DIRECTION('',(0.,0.,-1.));
#1217=DIRECTION('',(0.,1.,0.));
#1218=DIRECTION('center_axis',(0.,0.,1.));
#1219=DIRECTION('ref_axis',(1.,0.,0.));
#1220=DIRECTION('',(1.,0.,0.));
#1221=DIRECTION('',(1.,0.,0.));
#1222=DIRECTION('',(0.,1.,0.));
#1223=DIRECTION('center_axis',(-1.,0.,0.));
#1224=DIRECTION('ref_axis',(0.,0.,1.));
#1225=DIRECTION('',(0.,0.,1.));
#1226=DIRECTION('',(0.,0.,1.));
#1227=DIRECTION('',(0.,1.,0.));
#1228=DIRECTION('center_axis',(0.,0.,1.));
#1229=DIRECTION('ref_axis',(1.,0.,0.));
#1230=DIRECTION('',(-1.,0.,0.));
#1231=DIRECTION('',(1.,0.,0.));
#1232=DIRECTION('',(0.,1.,0.));
#1233=DIRECTION('center_axis',(-1.,0.,0.));
#1234=DIRECTION('ref_axis',(0.,0.,1.));
#1235=DIRECTION('',(0.,0.,-1.));
#1236=DIRECTION('',(0.,0.,1.));
#1237=DIRECTION('',(0.,1.,0.));
#1238=DIRECTION('center_axis',(0.,0.,-1.));
#1239=DIRECTION('ref_axis',(-1.,0.,0.));
#1240=DIRECTION('',(1.,0.,0.));
#1241=DIRECTION('',(-1.,0.,0.));
#1242=DIRECTION('',(0.,1.,0.));
#1243=DIRECTION('center_axis',(-1.,0.,0.));
#1244=DIRECTION('ref_axis',(0.,0.,1.));
#1245=DIRECTION('',(0.,0.,-1.));
#1246=DIRECTION('',(0.,0.,1.));
#1247=DIRECTION('',(0.,1.,0.));
#1248=DIRECTION('center_axis',(0.,0.,1.));
#1249=DIRECTION('ref_axis',(1.,0.,0.));
#1250=DIRECTION('',(1.,0.,0.));
#1251=DIRECTION('',(1.,0.,0.));
#1252=DIRECTION('',(0.,1.,0.));
#1253=DIRECTION('center_axis',(-1.,0.,0.));
#1254=DIRECTION('ref_axis',(0.,0.,1.));
#1255=DIRECTION('',(0.,0.,-1.));
#1256=DIRECTION('',(0.,0.,1.));
#1257=DIRECTION('',(0.,1.,0.));
#1258=DIRECTION('center_axis',(0.,0.,-1.));
#1259=DIRECTION('ref_axis',(-1.,0.,0.));
#1260=DIRECTION('',(1.,0.,0.));
#1261=DIRECTION('',(-1.,0.,0.));
#1262=DIRECTION('',(0.,1.,0.));
#1263=DIRECTION('center_axis',(-1.,0.,0.));
#1264=DIRECTION('ref_axis',(0.,0.,1.));
#1265=DIRECTION('',(0.,0.,-1.));
#1266=DIRECTION('',(0.,0.,1.));
#1267=DIRECTION('',(0.,1.,0.));
#1268=DIRECTION('center_axis',(0.,0.,1.));
#1269=DIRECTION('ref_axis',(1.,0.,0.));
#1270=DIRECTION('',(1.,0.,0.));
#1271=DIRECTION('',(1.,0.,0.));
#1272=DIRECTION('',(0.,1.,0.));
#1273=DIRECTION('center_axis',(-1.,0.,0.));
#1274=DIRECTION('ref_axis',(0.,0.,1.));
#1275=DIRECTION('',(0.,0.,-1.));
#1276=DIRECTION('',(0.,0.,1.));
#1277=DIRECTION('center_axis',(0.,1.,0.));
#1278=DIRECTION('ref_axis',(0.,0.,1.));
#1279=DIRECTION('center_axis',(0.,1.,0.));
#1280=DIRECTION('ref_axis',(1.,0.,0.));
#1281=CARTESIAN_POINT('',(0.,0.,0.));
#1282=CARTESIAN_POINT('Origin',(99.0390010877848,0.,64.0000013709068));
#1283=CARTESIAN_POINT('',(97.4390010877848,0.,64.0000013709068));
#1284=CARTESIAN_POINT('Origin',(99.0390010877848,0.,64.0000013709068));
#1285=CARTESIAN_POINT('',(97.4390010877848,6.,64.0000013709068));
#1286=CARTESIAN_POINT('',(97.4390010877848,0.,64.0000013709068));
#1287=CARTESIAN_POINT('Origin',(99.0390010877848,6.,64.0000013709068));
#1288=CARTESIAN_POINT('Origin',(68.0000010877848,0.,19.2960013709068));
#1289=CARTESIAN_POINT('',(66.4000010877848,0.,19.2960013709068));
#1290=CARTESIAN_POINT('Origin',(68.0000010877848,0.,19.2960013709068));
#1291=CARTESIAN_POINT('',(66.4000010877848,6.,19.2960013709068));
#1292=CARTESIAN_POINT('',(66.4000010877848,0.,19.2960013709068));
#1293=CARTESIAN_POINT('Origin',(68.0000010877848,6.,19.2960013709068));
#1294=CARTESIAN_POINT('Origin',(99.0390010877848,0.,19.2960013709068));
#1295=CARTESIAN_POINT('',(97.4390010877848,0.,19.2960013709068));
#1296=CARTESIAN_POINT('Origin',(99.0390010877848,0.,19.2960013709068));
#1297=CARTESIAN_POINT('',(97.4390010877848,6.,19.2960013709068));
#1298=CARTESIAN_POINT('',(97.4390010877848,0.,19.2960013709068));
#1299=CARTESIAN_POINT('Origin',(99.0390010877848,6.,19.2960013709068));
#1300=CARTESIAN_POINT('Origin',(68.0000010877848,0.,64.0000013709068));
#1301=CARTESIAN_POINT('',(66.4000010877848,0.,64.0000013709068));
#1302=CARTESIAN_POINT('Origin',(68.0000010877848,0.,64.0000013709068));
#1303=CARTESIAN_POINT('',(66.4000010877848,6.,64.0000013709068));
#1304=CARTESIAN_POINT('',(66.4000010877848,0.,64.0000013709068));
#1305=CARTESIAN_POINT('Origin',(68.0000010877848,6.,64.0000013709068));
#1306=CARTESIAN_POINT('Origin',(167.1265,0.,65.2155013709068));
#1307=CARTESIAN_POINT('',(165.5265,0.,65.2155013709068));
#1308=CARTESIAN_POINT('Origin',(167.1265,0.,65.2155013709068));
#1309=CARTESIAN_POINT('',(165.5265,6.,65.2155013709068));
#1310=CARTESIAN_POINT('',(165.5265,0.,65.2155013709068));
#1311=CARTESIAN_POINT('Origin',(167.1265,6.,65.2155013709068));
#1312=CARTESIAN_POINT('Origin',(162.0905,0.,13.3165));
#1313=CARTESIAN_POINT('',(160.4905,0.,13.3165));
#1314=CARTESIAN_POINT('Origin',(162.0905,0.,13.3165));
#1315=CARTESIAN_POINT('',(160.4905,6.,13.3165));
#1316=CARTESIAN_POINT('',(160.4905,0.,13.3165));
#1317=CARTESIAN_POINT('Origin',(162.0905,6.,13.3165));
#1318=CARTESIAN_POINT('Origin',(119.,0.,64.));
#1319=CARTESIAN_POINT('',(117.4,0.,64.));
#1320=CARTESIAN_POINT('Origin',(119.,0.,64.));
#1321=CARTESIAN_POINT('',(117.4,6.,64.));
#1322=CARTESIAN_POINT('',(117.4,0.,64.));
#1323=CARTESIAN_POINT('Origin',(119.,6.,64.));
#1324=CARTESIAN_POINT('Origin',(134.1505,0.,13.3165));
#1325=CARTESIAN_POINT('',(132.5505,0.,13.3165));
#1326=CARTESIAN_POINT('Origin',(134.1505,0.,13.3165));
#1327=CARTESIAN_POINT('',(132.5505,6.,13.3165));
#1328=CARTESIAN_POINT('',(132.5505,0.,13.3165));
#1329=CARTESIAN_POINT('Origin',(134.1505,6.,13.3165));
#1330=CARTESIAN_POINT('Origin',(81.2,0.,0.));
#1331=CARTESIAN_POINT('',(45.,0.,0.));
#1332=CARTESIAN_POINT('',(81.2,0.,0.));
#1333=CARTESIAN_POINT('',(45.,0.,0.));
#1334=CARTESIAN_POINT('',(45.,6.,0.));
#1335=CARTESIAN_POINT('',(45.,0.,0.));
#1336=CARTESIAN_POINT('',(81.2,6.,0.));
#1337=CARTESIAN_POINT('',(45.,6.,0.));
#1338=CARTESIAN_POINT('',(81.2,0.,0.));
#1339=CARTESIAN_POINT('Origin',(81.2,0.,-6.));
#1340=CARTESIAN_POINT('',(81.2,0.,-6.));
#1341=CARTESIAN_POINT('',(81.2,0.,0.));
#1342=CARTESIAN_POINT('',(81.2,6.,-6.));
#1343=CARTESIAN_POINT('',(81.2,6.,0.));
#1344=CARTESIAN_POINT('',(81.2,0.,-6.));
#1345=CARTESIAN_POINT('Origin',(118.8,0.,-6.));
#1346=CARTESIAN_POINT('',(118.8,0.,-6.));
#1347=CARTESIAN_POINT('',(81.2,0.,-6.));
#1348=CARTESIAN_POINT('',(118.8,6.,-6.));
#1349=CARTESIAN_POINT('',(81.2,6.,-6.));
#1350=CARTESIAN_POINT('',(118.8,0.,-6.));
#1351=CARTESIAN_POINT('Origin',(118.8,0.,0.));
#1352=CARTESIAN_POINT('',(118.8,0.,0.));
#1353=CARTESIAN_POINT('',(118.8,0.,-6.));
#1354=CARTESIAN_POINT('',(118.8,6.,0.));
#1355=CARTESIAN_POINT('',(118.8,6.,-6.));
#1356=CARTESIAN_POINT('',(118.8,0.,0.));
#1357=CARTESIAN_POINT('Origin',(156.4,0.,0.));
#1358=CARTESIAN_POINT('',(156.4,0.,0.));
#1359=CARTESIAN_POINT('',(118.8,0.,0.));
#1360=CARTESIAN_POINT('',(156.4,6.,0.));
#1361=CARTESIAN_POINT('',(118.8,6.,0.));
#1362=CARTESIAN_POINT('',(156.4,0.,0.));
#1363=CARTESIAN_POINT('Origin',(156.4,0.,-6.));
#1364=CARTESIAN_POINT('',(156.4,0.,-6.));
#1365=CARTESIAN_POINT('',(156.4,0.,0.));
#1366=CARTESIAN_POINT('',(156.4,6.,-6.));
#1367=CARTESIAN_POINT('',(156.4,6.,0.));
#1368=CARTESIAN_POINT('',(156.4,0.,-6.));
#1369=CARTESIAN_POINT('Origin',(194.,0.,-6.));
#1370=CARTESIAN_POINT('',(194.,0.,-6.));
#1371=CARTESIAN_POINT('',(156.4,0.,-6.));
#1372=CARTESIAN_POINT('',(194.,6.,-6.));
#1373=CARTESIAN_POINT('',(156.4,6.,-6.));
#1374=CARTESIAN_POINT('',(194.,0.,-6.));
#1375=CARTESIAN_POINT('Origin',(194.,0.,0.));
#1376=CARTESIAN_POINT('',(194.,0.,0.));
#1377=CARTESIAN_POINT('',(194.,0.,0.));
#1378=CARTESIAN_POINT('',(194.,6.,0.));
#1379=CARTESIAN_POINT('',(194.,6.,0.));
#1380=CARTESIAN_POINT('',(194.,0.,0.));
#1381=CARTESIAN_POINT('Origin',(200.,0.,0.));
#1382=CARTESIAN_POINT('',(200.,0.,0.));
#1383=CARTESIAN_POINT('',(200.,0.,0.));
#1384=CARTESIAN_POINT('',(200.,6.,0.));
#1385=CARTESIAN_POINT('',(200.,6.,0.));
#1386=CARTESIAN_POINT('',(200.,0.,0.));
#1387=CARTESIAN_POINT('Origin',(200.,0.,22.));
#1388=CARTESIAN_POINT('',(200.,0.,22.));
#1389=CARTESIAN_POINT('',(200.,0.,6.));
#1390=CARTESIAN_POINT('',(200.,6.,22.));
#1391=CARTESIAN_POINT('',(200.,6.,6.));
#1392=CARTESIAN_POINT('',(200.,0.,22.));
#1393=CARTESIAN_POINT('Origin',(194.,0.,22.));
#1394=CARTESIAN_POINT('',(194.,0.,22.));
#1395=CARTESIAN_POINT('',(194.,0.,22.));
#1396=CARTESIAN_POINT('',(194.,6.,22.));
#1397=CARTESIAN_POINT('',(194.,6.,22.));
#1398=CARTESIAN_POINT('',(194.,0.,22.));
#1399=CARTESIAN_POINT('Origin',(194.,0.,38.));
#1400=CARTESIAN_POINT('',(194.,0.,38.));
#1401=CARTESIAN_POINT('',(194.,0.,22.));
#1402=CARTESIAN_POINT('',(194.,6.,38.));
#1403=CARTESIAN_POINT('',(194.,6.,22.));
#1404=CARTESIAN_POINT('',(194.,0.,38.));
#1405=CARTESIAN_POINT('Origin',(200.,0.,38.));
#1406=CARTESIAN_POINT('',(200.,0.,38.));
#1407=CARTESIAN_POINT('',(194.,0.,38.));
#1408=CARTESIAN_POINT('',(200.,6.,38.));
#1409=CARTESIAN_POINT('',(194.,6.,38.));
#1410=CARTESIAN_POINT('',(200.,0.,38.));
#1411=CARTESIAN_POINT('Origin',(200.,0.,54.));
#1412=CARTESIAN_POINT('',(200.,0.,54.));
#1413=CARTESIAN_POINT('',(200.,0.,38.));
#1414=CARTESIAN_POINT('',(200.,6.,54.));
#1415=CARTESIAN_POINT('',(200.,6.,38.));
#1416=CARTESIAN_POINT('',(200.,0.,54.));
#1417=CARTESIAN_POINT('Origin',(194.,0.,54.));
#1418=CARTESIAN_POINT('',(194.,0.,54.));
#1419=CARTESIAN_POINT('',(194.,0.,54.));
#1420=CARTESIAN_POINT('',(194.,6.,54.));
#1421=CARTESIAN_POINT('',(194.,6.,54.));
#1422=CARTESIAN_POINT('',(194.,0.,54.));
#1423=CARTESIAN_POINT('Origin',(194.,0.,70.));
#1424=CARTESIAN_POINT('',(194.,0.,70.));
#1425=CARTESIAN_POINT('',(194.,0.,54.));
#1426=CARTESIAN_POINT('',(194.,6.,70.));
#1427=CARTESIAN_POINT('',(194.,6.,54.));
#1428=CARTESIAN_POINT('',(194.,0.,70.));
#1429=CARTESIAN_POINT('Origin',(200.,0.,70.));
#1430=CARTESIAN_POINT('',(200.,0.,70.));
#1431=CARTESIAN_POINT('',(194.,0.,70.));
#1432=CARTESIAN_POINT('',(200.,6.,70.));
#1433=CARTESIAN_POINT('',(194.,6.,70.));
#1434=CARTESIAN_POINT('',(200.,0.,70.));
#1435=CARTESIAN_POINT('Origin',(200.,0.,92.0000013709068));
#1436=CARTESIAN_POINT('',(200.,0.,92.0000013709068));
#1437=CARTESIAN_POINT('',(200.,0.,86.));
#1438=CARTESIAN_POINT('',(200.,6.,92.0000013709068));
#1439=CARTESIAN_POINT('',(200.,6.,86.));
#1440=CARTESIAN_POINT('',(200.,0.,92.0000013709068));
#1441=CARTESIAN_POINT('Origin',(194.,0.,92.));
#1442=CARTESIAN_POINT('',(194.,0.,92.));
#1443=CARTESIAN_POINT('',(200.,0.,92.0000013709068));
#1444=CARTESIAN_POINT('',(194.,6.,92.));
#1445=CARTESIAN_POINT('',(200.,6.,92.0000013709068));
#1446=CARTESIAN_POINT('',(194.,0.,92.));
#1447=CARTESIAN_POINT('Origin',(194.,0.,98.));
#1448=CARTESIAN_POINT('',(194.,0.,98.));
#1449=CARTESIAN_POINT('',(194.,0.,98.));
#1450=CARTESIAN_POINT('',(194.,6.,98.));
#1451=CARTESIAN_POINT('',(194.,6.,98.));
#1452=CARTESIAN_POINT('',(194.,0.,98.));
#1453=CARTESIAN_POINT('Origin',(156.4,0.,98.));
#1454=CARTESIAN_POINT('',(156.4,0.,98.));
#1455=CARTESIAN_POINT('',(156.4,0.,98.));
#1456=CARTESIAN_POINT('',(156.4,6.,98.));
#1457=CARTESIAN_POINT('',(156.4,6.,98.));
#1458=CARTESIAN_POINT('',(156.4,0.,98.));
#1459=CARTESIAN_POINT('Origin',(156.4,0.,92.));
#1460=CARTESIAN_POINT('',(156.4,0.,92.));
#1461=CARTESIAN_POINT('',(156.4,0.,92.));
#1462=CARTESIAN_POINT('',(156.4,6.,92.));
#1463=CARTESIAN_POINT('',(156.4,6.,92.));
#1464=CARTESIAN_POINT('',(156.4,0.,92.));
#1465=CARTESIAN_POINT('Origin',(118.8,0.,92.));
#1466=CARTESIAN_POINT('',(118.8,0.,92.));
#1467=CARTESIAN_POINT('',(118.8,0.,92.));
#1468=CARTESIAN_POINT('',(118.8,6.,92.));
#1469=CARTESIAN_POINT('',(118.8,6.,92.));
#1470=CARTESIAN_POINT('',(118.8,0.,92.));
#1471=CARTESIAN_POINT('Origin',(118.8,0.,98.));
#1472=CARTESIAN_POINT('',(118.8,0.,98.));
#1473=CARTESIAN_POINT('',(118.8,0.,98.));
#1474=CARTESIAN_POINT('',(118.8,6.,98.));
#1475=CARTESIAN_POINT('',(118.8,6.,98.));
#1476=CARTESIAN_POINT('',(118.8,0.,98.));
#1477=CARTESIAN_POINT('Origin',(81.2,0.,98.));
#1478=CARTESIAN_POINT('',(81.2,0.,98.));
#1479=CARTESIAN_POINT('',(81.2,0.,98.));
#1480=CARTESIAN_POINT('',(81.2,6.,98.));
#1481=CARTESIAN_POINT('',(81.2,6.,98.));
#1482=CARTESIAN_POINT('',(81.2,0.,98.));
#1483=CARTESIAN_POINT('Origin',(81.2,0.,92.));
#1484=CARTESIAN_POINT('',(81.2,0.,92.));
#1485=CARTESIAN_POINT('',(81.2,0.,92.));
#1486=CARTESIAN_POINT('',(81.2,6.,92.));
#1487=CARTESIAN_POINT('',(81.2,6.,92.));
#1488=CARTESIAN_POINT('',(81.2,0.,92.));
#1489=CARTESIAN_POINT('Origin',(45.,0.,92.));
#1490=CARTESIAN_POINT('',(45.,0.,92.));
#1491=CARTESIAN_POINT('',(51.,0.,92.));
#1492=CARTESIAN_POINT('',(45.,6.,92.));
#1493=CARTESIAN_POINT('',(51.,6.,92.));
#1494=CARTESIAN_POINT('',(45.,0.,92.));
#1495=CARTESIAN_POINT('Origin',(45.,0.,70.));
#1496=CARTESIAN_POINT('',(45.,0.,70.));
#1497=CARTESIAN_POINT('',(45.,0.,86.));
#1498=CARTESIAN_POINT('',(45.,6.,70.));
#1499=CARTESIAN_POINT('',(45.,6.,86.));
#1500=CARTESIAN_POINT('',(45.,0.,70.));
#1501=CARTESIAN_POINT('Origin',(51.,0.,70.));
#1502=CARTESIAN_POINT('',(51.,0.,70.));
#1503=CARTESIAN_POINT('',(45.,0.,70.));
#1504=CARTESIAN_POINT('',(51.,6.,70.));
#1505=CARTESIAN_POINT('',(45.,6.,70.));
#1506=CARTESIAN_POINT('',(51.,0.,70.));
#1507=CARTESIAN_POINT('Origin',(51.,0.,54.));
#1508=CARTESIAN_POINT('',(51.,0.,54.));
#1509=CARTESIAN_POINT('',(51.,0.,60.7857298953205));
#1510=CARTESIAN_POINT('',(51.,6.,54.));
#1511=CARTESIAN_POINT('',(51.,6.,60.7857298953205));
#1512=CARTESIAN_POINT('',(51.,0.,54.));
#1513=CARTESIAN_POINT('Origin',(45.,0.,54.));
#1514=CARTESIAN_POINT('',(45.,0.,54.));
#1515=CARTESIAN_POINT('',(45.,0.,54.));
#1516=CARTESIAN_POINT('',(45.,6.,54.));
#1517=CARTESIAN_POINT('',(45.,6.,54.));
#1518=CARTESIAN_POINT('',(45.,0.,54.));
#1519=CARTESIAN_POINT('Origin',(45.,0.,38.));
#1520=CARTESIAN_POINT('',(45.,0.,38.));
#1521=CARTESIAN_POINT('',(45.,0.,54.));
#1522=CARTESIAN_POINT('',(45.,6.,38.));
#1523=CARTESIAN_POINT('',(45.,6.,54.));
#1524=CARTESIAN_POINT('',(45.,0.,38.));
#1525=CARTESIAN_POINT('Origin',(51.,0.,38.));
#1526=CARTESIAN_POINT('',(51.,0.,38.));
#1527=CARTESIAN_POINT('',(45.,0.,38.));
#1528=CARTESIAN_POINT('',(51.,6.,38.));
#1529=CARTESIAN_POINT('',(45.,6.,38.));
#1530=CARTESIAN_POINT('',(51.,0.,38.));
#1531=CARTESIAN_POINT('Origin',(51.,0.,22.));
#1532=CARTESIAN_POINT('',(51.,0.,22.));
#1533=CARTESIAN_POINT('',(51.,0.,38.));
#1534=CARTESIAN_POINT('',(51.,6.,22.));
#1535=CARTESIAN_POINT('',(51.,6.,38.));
#1536=CARTESIAN_POINT('',(51.,0.,22.));
#1537=CARTESIAN_POINT('Origin',(45.,0.,22.));
#1538=CARTESIAN_POINT('',(45.,0.,22.));
#1539=CARTESIAN_POINT('',(45.,0.,22.));
#1540=CARTESIAN_POINT('',(45.,6.,22.));
#1541=CARTESIAN_POINT('',(45.,6.,22.));
#1542=CARTESIAN_POINT('',(45.,0.,22.));
#1543=CARTESIAN_POINT('Origin',(45.,0.,0.));
#1544=CARTESIAN_POINT('',(45.,0.,22.));
#1545=CARTESIAN_POINT('',(45.,6.,22.));
#1546=CARTESIAN_POINT('Origin',(122.5,6.,45.9999935545874));
#1547=CARTESIAN_POINT('Origin',(122.5,0.,45.9999935545874));
#1548=UNCERTAINTY_MEASURE_WITH_UNIT(LENGTH_MEASURE(0.01),#1552,
'DISTANCE_ACCURACY_VALUE',
'Maximum model space distance between geometric entities at asserted c
onnectivities');
#1549=UNCERTAINTY_MEASURE_WITH_UNIT(LENGTH_MEASURE(0.01),#1552,
'DISTANCE_ACCURACY_VALUE',
'Maximum model space distance between geometric entities at asserted c
onnectivities');
#1550=(
GEOMETRIC_REPRESENTATION_CONTEXT(3)
GLOBAL_UNCERTAINTY_ASSIGNED_CONTEXT((#1548))
GLOBAL_UNIT_ASSIGNED_CONTEXT((#1552,#1554,#1555))
REPRESENTATION_CONTEXT('','3D')
);
#1551=(
GEOMETRIC_REPRESENTATION_CONTEXT(3)
GLOBAL_UNCERTAINTY_ASSIGNED_CONTEXT((#1549))
GLOBAL_UNIT_ASSIGNED_CONTEXT((#1552,#1554,#1555))
REPRESENTATION_CONTEXT('','3D')
);
#1552=(
LENGTH_UNIT()
NAMED_UNIT(*)
SI_UNIT(.MILLI.,.METRE.)
);
#1553=(
LENGTH_UNIT()
NAMED_UNIT(*)
SI_UNIT($,.METRE.)
);
#1554=(
NAMED_UNIT(*)
PLANE_ANGLE_UNIT()
SI_UNIT($,.RADIAN.)
);
#1555=(
NAMED_UNIT(*)
SI_UNIT($,.STERADIAN.)
SOLID_ANGLE_UNIT()
);
#1556=SHAPE_DEFINITION_REPRESENTATION(#1557,#1558);
#1557=PRODUCT_DEFINITION_SHAPE('',$,#1560);
#1558=SHAPE_REPRESENTATION('',(#976),#1550);
#1559=PRODUCT_DEFINITION_CONTEXT('part definition',#1564,'design');
#1560=PRODUCT_DEFINITION('Base Inferior','Base Inferior v44',#1561,#1559);
#1561=PRODUCT_DEFINITION_FORMATION('',$,#1566);
#1562=PRODUCT_RELATED_PRODUCT_CATEGORY('Base Inferior v44',
'Base Inferior v44',(#1566));
#1563=APPLICATION_PROTOCOL_DEFINITION('international standard',
'automotive_design',2009,#1564);
#1564=APPLICATION_CONTEXT(
'Core Data for Automotive Mechanical Design Process');
#1565=PRODUCT_CONTEXT('part definition',#1564,'mechanical');
#1566=PRODUCT('Base Inferior','Base Inferior v44',$,(#1565));
#1567=PRESENTATION_STYLE_ASSIGNMENT((#1568));
#1568=SURFACE_STYLE_USAGE(.BOTH.,#1569);
#1569=SURFACE_SIDE_STYLE('',(#1570));
#1570=SURFACE_STYLE_FILL_AREA(#1571);
#1571=FILL_AREA_STYLE('A\X\E7o - Acetinado',(#1572));
#1572=FILL_AREA_STYLE_COLOUR('A\X\E7o - Acetinado',#1573);
#1573=COLOUR_RGB('A\X\E7o - Acetinado',0.627450980392157,0.627450980392157,
0.627450980392157);
ENDSEC;
END-ISO-10303-21;
