ISO-10303-21;
HEADER;
/* Generated by software containing ST-Developer
 * from STEP Tools, Inc. (www.steptools.com) 
 */

FILE_DESCRIPTION(
/* description */ (''),
/* implementation_level */ '2;1');

FILE_NAME(
/* name */ 'Frontal.step',
/* time_stamp */ '2026-04-01T21:02:39-03:00',
/* author */ (''),
/* organization */ (''),
/* preprocessor_version */ 'ST-DEVELOPER v20.1',
/* originating_system */ 'Autodesk Translation Framework v14.24.0.0',
/* authorisation */ '');

FILE_SCHEMA (('AUTOMOTIVE_DESIGN { 1 0 10303 214 3 1 1 }'));
ENDSEC;

DATA;
#10=MECHANICAL_DESIGN_GEOMETRIC_PRESENTATION_REPRESENTATION('',(#13),#1399);
#11=SHAPE_REPRESENTATION_RELATIONSHIP('SRR','None',#1406,#12);
#12=ADVANCED_BREP_SHAPE_REPRESENTATION('',(#14),#1398);
#13=STYLED_ITEM('',(#1415),#14);
#14=MANIFOLD_SOLID_BREP('Corpo1',#875);
#15=FACE_BOUND('',#146,.T.);
#16=FACE_BOUND('',#147,.T.);
#17=FACE_BOUND('',#148,.T.);
#18=FACE_BOUND('',#149,.T.);
#19=FACE_BOUND('',#150,.T.);
#20=FACE_BOUND('',#152,.T.);
#21=FACE_BOUND('',#153,.T.);
#22=FACE_BOUND('',#154,.T.);
#23=FACE_BOUND('',#155,.T.);
#24=FACE_BOUND('',#156,.T.);
#25=PLANE('',#895);
#26=PLANE('',#896);
#27=PLANE('',#897);
#28=PLANE('',#898);
#29=PLANE('',#905);
#30=PLANE('',#906);
#31=PLANE('',#907);
#32=PLANE('',#908);
#33=PLANE('',#909);
#34=PLANE('',#910);
#35=PLANE('',#911);
#36=PLANE('',#912);
#37=PLANE('',#913);
#38=PLANE('',#914);
#39=PLANE('',#915);
#40=PLANE('',#916);
#41=PLANE('',#917);
#42=PLANE('',#918);
#43=PLANE('',#919);
#44=PLANE('',#920);
#45=PLANE('',#921);
#46=PLANE('',#922);
#47=PLANE('',#923);
#48=PLANE('',#924);
#49=PLANE('',#925);
#50=PLANE('',#926);
#51=PLANE('',#927);
#52=PLANE('',#928);
#53=PLANE('',#929);
#54=PLANE('',#930);
#55=PLANE('',#931);
#56=PLANE('',#932);
#57=PLANE('',#933);
#58=PLANE('',#934);
#59=PLANE('',#935);
#60=PLANE('',#936);
#61=PLANE('',#937);
#62=PLANE('',#938);
#63=FACE_OUTER_BOUND('',#105,.T.);
#64=FACE_OUTER_BOUND('',#106,.T.);
#65=FACE_OUTER_BOUND('',#107,.T.);
#66=FACE_OUTER_BOUND('',#108,.T.);
#67=FACE_OUTER_BOUND('',#109,.T.);
#68=FACE_OUTER_BOUND('',#110,.T.);
#69=FACE_OUTER_BOUND('',#111,.T.);
#70=FACE_OUTER_BOUND('',#112,.T.);
#71=FACE_OUTER_BOUND('',#113,.T.);
#72=FACE_OUTER_BOUND('',#114,.T.);
#73=FACE_OUTER_BOUND('',#115,.T.);
#74=FACE_OUTER_BOUND('',#116,.T.);
#75=FACE_OUTER_BOUND('',#117,.T.);
#76=FACE_OUTER_BOUND('',#118,.T.);
#77=FACE_OUTER_BOUND('',#119,.T.);
#78=FACE_OUTER_BOUND('',#120,.T.);
#79=FACE_OUTER_BOUND('',#121,.T.);
#80=FACE_OUTER_BOUND('',#122,.T.);
#81=FACE_OUTER_BOUND('',#123,.T.);
#82=FACE_OUTER_BOUND('',#124,.T.);
#83=FACE_OUTER_BOUND('',#125,.T.);
#84=FACE_OUTER_BOUND('',#126,.T.);
#85=FACE_OUTER_BOUND('',#127,.T.);
#86=FACE_OUTER_BOUND('',#128,.T.);
#87=FACE_OUTER_BOUND('',#129,.T.);
#88=FACE_OUTER_BOUND('',#130,.T.);
#89=FACE_OUTER_BOUND('',#131,.T.);
#90=FACE_OUTER_BOUND('',#132,.T.);
#91=FACE_OUTER_BOUND('',#133,.T.);
#92=FACE_OUTER_BOUND('',#134,.T.);
#93=FACE_OUTER_BOUND('',#135,.T.);
#94=FACE_OUTER_BOUND('',#136,.T.);
#95=FACE_OUTER_BOUND('',#137,.T.);
#96=FACE_OUTER_BOUND('',#138,.T.);
#97=FACE_OUTER_BOUND('',#139,.T.);
#98=FACE_OUTER_BOUND('',#140,.T.);
#99=FACE_OUTER_BOUND('',#141,.T.);
#100=FACE_OUTER_BOUND('',#142,.T.);
#101=FACE_OUTER_BOUND('',#143,.T.);
#102=FACE_OUTER_BOUND('',#144,.T.);
#103=FACE_OUTER_BOUND('',#145,.T.);
#104=FACE_OUTER_BOUND('',#151,.T.);
#105=EDGE_LOOP('',(#589,#590,#591,#592));
#106=EDGE_LOOP('',(#593,#594,#595,#596));
#107=EDGE_LOOP('',(#597,#598,#599,#600));
#108=EDGE_LOOP('',(#601,#602,#603,#604));
#109=EDGE_LOOP('',(#605,#606,#607,#608));
#110=EDGE_LOOP('',(#609,#610,#611,#612));
#111=EDGE_LOOP('',(#613,#614,#615,#616));
#112=EDGE_LOOP('',(#617,#618,#619,#620));
#113=EDGE_LOOP('',(#621,#622,#623,#624));
#114=EDGE_LOOP('',(#625,#626,#627,#628));
#115=EDGE_LOOP('',(#629,#630,#631,#632));
#116=EDGE_LOOP('',(#633,#634,#635,#636));
#117=EDGE_LOOP('',(#637,#638,#639,#640));
#118=EDGE_LOOP('',(#641,#642,#643,#644));
#119=EDGE_LOOP('',(#645,#646,#647,#648));
#120=EDGE_LOOP('',(#649,#650,#651,#652));
#121=EDGE_LOOP('',(#653,#654,#655,#656));
#122=EDGE_LOOP('',(#657,#658,#659,#660));
#123=EDGE_LOOP('',(#661,#662,#663,#664));
#124=EDGE_LOOP('',(#665,#666,#667,#668));
#125=EDGE_LOOP('',(#669,#670,#671,#672));
#126=EDGE_LOOP('',(#673,#674,#675,#676));
#127=EDGE_LOOP('',(#677,#678,#679,#680));
#128=EDGE_LOOP('',(#681,#682,#683,#684));
#129=EDGE_LOOP('',(#685,#686,#687,#688));
#130=EDGE_LOOP('',(#689,#690,#691,#692));
#131=EDGE_LOOP('',(#693,#694,#695,#696));
#132=EDGE_LOOP('',(#697,#698,#699,#700));
#133=EDGE_LOOP('',(#701,#702,#703,#704));
#134=EDGE_LOOP('',(#705,#706,#707,#708));
#135=EDGE_LOOP('',(#709,#710,#711,#712));
#136=EDGE_LOOP('',(#713,#714,#715,#716));
#137=EDGE_LOOP('',(#717,#718,#719,#720));
#138=EDGE_LOOP('',(#721,#722,#723,#724));
#139=EDGE_LOOP('',(#725,#726,#727,#728));
#140=EDGE_LOOP('',(#729,#730,#731,#732));
#141=EDGE_LOOP('',(#733,#734,#735,#736));
#142=EDGE_LOOP('',(#737,#738,#739,#740));
#143=EDGE_LOOP('',(#741,#742,#743,#744));
#144=EDGE_LOOP('',(#745,#746,#747,#748));
#145=EDGE_LOOP('',(#749,#750,#751,#752,#753,#754,#755,#756,#757,#758,#759,
#760,#761,#762,#763,#764,#765,#766,#767,#768,#769,#770,#771,#772,#773,#774,
#775,#776,#777,#778,#779,#780));
#146=EDGE_LOOP('',(#781));
#147=EDGE_LOOP('',(#782));
#148=EDGE_LOOP('',(#783,#784,#785,#786));
#149=EDGE_LOOP('',(#787));
#150=EDGE_LOOP('',(#788));
#151=EDGE_LOOP('',(#789,#790,#791,#792,#793,#794,#795,#796,#797,#798,#799,
#800,#801,#802,#803,#804,#805,#806,#807,#808,#809,#810,#811,#812,#813,#814,
#815,#816,#817,#818,#819,#820));
#152=EDGE_LOOP('',(#821));
#153=EDGE_LOOP('',(#822));
#154=EDGE_LOOP('',(#823,#824,#825,#826));
#155=EDGE_LOOP('',(#827));
#156=EDGE_LOOP('',(#828));
#157=LINE('',#1158,#269);
#158=LINE('',#1164,#270);
#159=LINE('',#1169,#271);
#160=LINE('',#1171,#272);
#161=LINE('',#1173,#273);
#162=LINE('',#1174,#274);
#163=LINE('',#1177,#275);
#164=LINE('',#1179,#276);
#165=LINE('',#1180,#277);
#166=LINE('',#1183,#278);
#167=LINE('',#1185,#279);
#168=LINE('',#1186,#280);
#169=LINE('',#1188,#281);
#170=LINE('',#1189,#282);
#171=LINE('',#1194,#283);
#172=LINE('',#1200,#284);
#173=LINE('',#1205,#285);
#174=LINE('',#1207,#286);
#175=LINE('',#1209,#287);
#176=LINE('',#1210,#288);
#177=LINE('',#1213,#289);
#178=LINE('',#1215,#290);
#179=LINE('',#1216,#291);
#180=LINE('',#1219,#292);
#181=LINE('',#1221,#293);
#182=LINE('',#1222,#294);
#183=LINE('',#1225,#295);
#184=LINE('',#1227,#296);
#185=LINE('',#1228,#297);
#186=LINE('',#1231,#298);
#187=LINE('',#1233,#299);
#188=LINE('',#1234,#300);
#189=LINE('',#1237,#301);
#190=LINE('',#1239,#302);
#191=LINE('',#1240,#303);
#192=LINE('',#1243,#304);
#193=LINE('',#1245,#305);
#194=LINE('',#1246,#306);
#195=LINE('',#1249,#307);
#196=LINE('',#1251,#308);
#197=LINE('',#1252,#309);
#198=LINE('',#1255,#310);
#199=LINE('',#1257,#311);
#200=LINE('',#1258,#312);
#201=LINE('',#1261,#313);
#202=LINE('',#1263,#314);
#203=LINE('',#1264,#315);
#204=LINE('',#1267,#316);
#205=LINE('',#1269,#317);
#206=LINE('',#1270,#318);
#207=LINE('',#1273,#319);
#208=LINE('',#1275,#320);
#209=LINE('',#1276,#321);
#210=LINE('',#1279,#322);
#211=LINE('',#1281,#323);
#212=LINE('',#1282,#324);
#213=LINE('',#1285,#325);
#214=LINE('',#1287,#326);
#215=LINE('',#1288,#327);
#216=LINE('',#1291,#328);
#217=LINE('',#1293,#329);
#218=LINE('',#1294,#330);
#219=LINE('',#1297,#331);
#220=LINE('',#1299,#332);
#221=LINE('',#1300,#333);
#222=LINE('',#1303,#334);
#223=LINE('',#1305,#335);
#224=LINE('',#1306,#336);
#225=LINE('',#1309,#337);
#226=LINE('',#1311,#338);
#227=LINE('',#1312,#339);
#228=LINE('',#1315,#340);
#229=LINE('',#1317,#341);
#230=LINE('',#1318,#342);
#231=LINE('',#1321,#343);
#232=LINE('',#1323,#344);
#233=LINE('',#1324,#345);
#234=LINE('',#1327,#346);
#235=LINE('',#1329,#347);
#236=LINE('',#1330,#348);
#237=LINE('',#1333,#349);
#238=LINE('',#1335,#350);
#239=LINE('',#1336,#351);
#240=LINE('',#1339,#352);
#241=LINE('',#1341,#353);
#242=LINE('',#1342,#354);
#243=LINE('',#1345,#355);
#244=LINE('',#1347,#356);
#245=LINE('',#1348,#357);
#246=LINE('',#1351,#358);
#247=LINE('',#1353,#359);
#248=LINE('',#1354,#360);
#249=LINE('',#1357,#361);
#250=LINE('',#1359,#362);
#251=LINE('',#1360,#363);
#252=LINE('',#1363,#364);
#253=LINE('',#1365,#365);
#254=LINE('',#1366,#366);
#255=LINE('',#1369,#367);
#256=LINE('',#1371,#368);
#257=LINE('',#1372,#369);
#258=LINE('',#1375,#370);
#259=LINE('',#1377,#371);
#260=LINE('',#1378,#372);
#261=LINE('',#1381,#373);
#262=LINE('',#1383,#374);
#263=LINE('',#1384,#375);
#264=LINE('',#1387,#376);
#265=LINE('',#1389,#377);
#266=LINE('',#1390,#378);
#267=LINE('',#1392,#379);
#268=LINE('',#1393,#380);
#269=VECTOR('',#945,2.5);
#270=VECTOR('',#952,2.5);
#271=VECTOR('',#957,10.);
#272=VECTOR('',#958,10.);
#273=VECTOR('',#959,10.);
#274=VECTOR('',#960,10.);
#275=VECTOR('',#963,10.);
#276=VECTOR('',#964,10.);
#277=VECTOR('',#965,10.);
#278=VECTOR('',#968,10.);
#279=VECTOR('',#969,10.);
#280=VECTOR('',#970,10.);
#281=VECTOR('',#973,10.);
#282=VECTOR('',#974,10.);
#283=VECTOR('',#979,10.);
#284=VECTOR('',#986,9.99999999999998);
#285=VECTOR('',#991,10.);
#286=VECTOR('',#992,10.);
#287=VECTOR('',#993,10.);
#288=VECTOR('',#994,10.);
#289=VECTOR('',#997,10.);
#290=VECTOR('',#998,10.);
#291=VECTOR('',#999,10.);
#292=VECTOR('',#1002,10.);
#293=VECTOR('',#1003,10.);
#294=VECTOR('',#1004,10.);
#295=VECTOR('',#1007,10.);
#296=VECTOR('',#1008,10.);
#297=VECTOR('',#1009,10.);
#298=VECTOR('',#1012,10.);
#299=VECTOR('',#1013,10.);
#300=VECTOR('',#1014,10.);
#301=VECTOR('',#1017,10.);
#302=VECTOR('',#1018,10.);
#303=VECTOR('',#1019,10.);
#304=VECTOR('',#1022,10.);
#305=VECTOR('',#1023,10.);
#306=VECTOR('',#1024,10.);
#307=VECTOR('',#1027,10.);
#308=VECTOR('',#1028,10.);
#309=VECTOR('',#1029,10.);
#310=VECTOR('',#1032,10.);
#311=VECTOR('',#1033,10.);
#312=VECTOR('',#1034,10.);
#313=VECTOR('',#1037,10.);
#314=VECTOR('',#1038,10.);
#315=VECTOR('',#1039,10.);
#316=VECTOR('',#1042,10.);
#317=VECTOR('',#1043,10.);
#318=VECTOR('',#1044,10.);
#319=VECTOR('',#1047,10.);
#320=VECTOR('',#1048,10.);
#321=VECTOR('',#1049,10.);
#322=VECTOR('',#1052,10.);
#323=VECTOR('',#1053,10.);
#324=VECTOR('',#1054,10.);
#325=VECTOR('',#1057,10.);
#326=VECTOR('',#1058,10.);
#327=VECTOR('',#1059,10.);
#328=VECTOR('',#1062,10.);
#329=VECTOR('',#1063,10.);
#330=VECTOR('',#1064,10.);
#331=VECTOR('',#1067,10.);
#332=VECTOR('',#1068,10.);
#333=VECTOR('',#1069,10.);
#334=VECTOR('',#1072,10.);
#335=VECTOR('',#1073,10.);
#336=VECTOR('',#1074,10.);
#337=VECTOR('',#1077,10.);
#338=VECTOR('',#1078,10.);
#339=VECTOR('',#1079,10.);
#340=VECTOR('',#1082,10.);
#341=VECTOR('',#1083,10.);
#342=VECTOR('',#1084,10.);
#343=VECTOR('',#1087,10.);
#344=VECTOR('',#1088,10.);
#345=VECTOR('',#1089,10.);
#346=VECTOR('',#1092,10.);
#347=VECTOR('',#1093,10.);
#348=VECTOR('',#1094,10.);
#349=VECTOR('',#1097,10.);
#350=VECTOR('',#1098,10.);
#351=VECTOR('',#1099,10.);
#352=VECTOR('',#1102,10.);
#353=VECTOR('',#1103,10.);
#354=VECTOR('',#1104,10.);
#355=VECTOR('',#1107,10.);
#356=VECTOR('',#1108,10.);
#357=VECTOR('',#1109,10.);
#358=VECTOR('',#1112,10.);
#359=VECTOR('',#1113,10.);
#360=VECTOR('',#1114,10.);
#361=VECTOR('',#1117,10.);
#362=VECTOR('',#1118,10.);
#363=VECTOR('',#1119,10.);
#364=VECTOR('',#1122,10.);
#365=VECTOR('',#1123,10.);
#366=VECTOR('',#1124,10.);
#367=VECTOR('',#1127,10.);
#368=VECTOR('',#1128,10.);
#369=VECTOR('',#1129,10.);
#370=VECTOR('',#1132,10.);
#371=VECTOR('',#1133,10.);
#372=VECTOR('',#1134,10.);
#373=VECTOR('',#1137,10.);
#374=VECTOR('',#1138,10.);
#375=VECTOR('',#1139,10.);
#376=VECTOR('',#1142,10.);
#377=VECTOR('',#1143,10.);
#378=VECTOR('',#1144,10.);
#379=VECTOR('',#1147,10.);
#380=VECTOR('',#1148,10.);
#381=CIRCLE('',#890,2.5);
#382=CIRCLE('',#891,2.5);
#383=CIRCLE('',#893,2.5);
#384=CIRCLE('',#894,2.5);
#385=CIRCLE('',#900,10.);
#386=CIRCLE('',#901,10.);
#387=CIRCLE('',#903,9.99999999999998);
#388=CIRCLE('',#904,9.99999999999998);
#389=VERTEX_POINT('',#1155);
#390=VERTEX_POINT('',#1157);
#391=VERTEX_POINT('',#1161);
#392=VERTEX_POINT('',#1163);
#393=VERTEX_POINT('',#1167);
#394=VERTEX_POINT('',#1168);
#395=VERTEX_POINT('',#1170);
#396=VERTEX_POINT('',#1172);
#397=VERTEX_POINT('',#1176);
#398=VERTEX_POINT('',#1178);
#399=VERTEX_POINT('',#1182);
#400=VERTEX_POINT('',#1184);
#401=VERTEX_POINT('',#1191);
#402=VERTEX_POINT('',#1193);
#403=VERTEX_POINT('',#1197);
#404=VERTEX_POINT('',#1199);
#405=VERTEX_POINT('',#1203);
#406=VERTEX_POINT('',#1204);
#407=VERTEX_POINT('',#1206);
#408=VERTEX_POINT('',#1208);
#409=VERTEX_POINT('',#1212);
#410=VERTEX_POINT('',#1214);
#411=VERTEX_POINT('',#1218);
#412=VERTEX_POINT('',#1220);
#413=VERTEX_POINT('',#1224);
#414=VERTEX_POINT('',#1226);
#415=VERTEX_POINT('',#1230);
#416=VERTEX_POINT('',#1232);
#417=VERTEX_POINT('',#1236);
#418=VERTEX_POINT('',#1238);
#419=VERTEX_POINT('',#1242);
#420=VERTEX_POINT('',#1244);
#421=VERTEX_POINT('',#1248);
#422=VERTEX_POINT('',#1250);
#423=VERTEX_POINT('',#1254);
#424=VERTEX_POINT('',#1256);
#425=VERTEX_POINT('',#1260);
#426=VERTEX_POINT('',#1262);
#427=VERTEX_POINT('',#1266);
#428=VERTEX_POINT('',#1268);
#429=VERTEX_POINT('',#1272);
#430=VERTEX_POINT('',#1274);
#431=VERTEX_POINT('',#1278);
#432=VERTEX_POINT('',#1280);
#433=VERTEX_POINT('',#1284);
#434=VERTEX_POINT('',#1286);
#435=VERTEX_POINT('',#1290);
#436=VERTEX_POINT('',#1292);
#437=VERTEX_POINT('',#1296);
#438=VERTEX_POINT('',#1298);
#439=VERTEX_POINT('',#1302);
#440=VERTEX_POINT('',#1304);
#441=VERTEX_POINT('',#1308);
#442=VERTEX_POINT('',#1310);
#443=VERTEX_POINT('',#1314);
#444=VERTEX_POINT('',#1316);
#445=VERTEX_POINT('',#1320);
#446=VERTEX_POINT('',#1322);
#447=VERTEX_POINT('',#1326);
#448=VERTEX_POINT('',#1328);
#449=VERTEX_POINT('',#1332);
#450=VERTEX_POINT('',#1334);
#451=VERTEX_POINT('',#1338);
#452=VERTEX_POINT('',#1340);
#453=VERTEX_POINT('',#1344);
#454=VERTEX_POINT('',#1346);
#455=VERTEX_POINT('',#1350);
#456=VERTEX_POINT('',#1352);
#457=VERTEX_POINT('',#1356);
#458=VERTEX_POINT('',#1358);
#459=VERTEX_POINT('',#1362);
#460=VERTEX_POINT('',#1364);
#461=VERTEX_POINT('',#1368);
#462=VERTEX_POINT('',#1370);
#463=VERTEX_POINT('',#1374);
#464=VERTEX_POINT('',#1376);
#465=VERTEX_POINT('',#1380);
#466=VERTEX_POINT('',#1382);
#467=VERTEX_POINT('',#1386);
#468=VERTEX_POINT('',#1388);
#469=EDGE_CURVE('',#389,#389,#381,.T.);
#470=EDGE_CURVE('',#389,#390,#157,.T.);
#471=EDGE_CURVE('',#390,#390,#382,.T.);
#472=EDGE_CURVE('',#391,#391,#383,.T.);
#473=EDGE_CURVE('',#391,#392,#158,.T.);
#474=EDGE_CURVE('',#392,#392,#384,.T.);
#475=EDGE_CURVE('',#393,#394,#159,.T.);
#476=EDGE_CURVE('',#395,#393,#160,.T.);
#477=EDGE_CURVE('',#396,#395,#161,.T.);
#478=EDGE_CURVE('',#396,#394,#162,.T.);
#479=EDGE_CURVE('',#394,#397,#163,.T.);
#480=EDGE_CURVE('',#398,#396,#164,.T.);
#481=EDGE_CURVE('',#398,#397,#165,.T.);
#482=EDGE_CURVE('',#397,#399,#166,.T.);
#483=EDGE_CURVE('',#400,#398,#167,.T.);
#484=EDGE_CURVE('',#400,#399,#168,.T.);
#485=EDGE_CURVE('',#399,#393,#169,.T.);
#486=EDGE_CURVE('',#395,#400,#170,.T.);
#487=EDGE_CURVE('',#401,#401,#385,.T.);
#488=EDGE_CURVE('',#401,#402,#171,.T.);
#489=EDGE_CURVE('',#402,#402,#386,.T.);
#490=EDGE_CURVE('',#403,#403,#387,.T.);
#491=EDGE_CURVE('',#403,#404,#172,.T.);
#492=EDGE_CURVE('',#404,#404,#388,.T.);
#493=EDGE_CURVE('',#405,#406,#173,.T.);
#494=EDGE_CURVE('',#405,#407,#174,.T.);
#495=EDGE_CURVE('',#408,#407,#175,.T.);
#496=EDGE_CURVE('',#406,#408,#176,.T.);
#497=EDGE_CURVE('',#409,#406,#177,.T.);
#498=EDGE_CURVE('',#410,#408,#178,.T.);
#499=EDGE_CURVE('',#409,#410,#179,.T.);
#500=EDGE_CURVE('',#411,#409,#180,.T.);
#501=EDGE_CURVE('',#412,#410,#181,.T.);
#502=EDGE_CURVE('',#411,#412,#182,.T.);
#503=EDGE_CURVE('',#411,#413,#183,.T.);
#504=EDGE_CURVE('',#414,#412,#184,.T.);
#505=EDGE_CURVE('',#413,#414,#185,.T.);
#506=EDGE_CURVE('',#413,#415,#186,.T.);
#507=EDGE_CURVE('',#416,#414,#187,.T.);
#508=EDGE_CURVE('',#415,#416,#188,.T.);
#509=EDGE_CURVE('',#415,#417,#189,.T.);
#510=EDGE_CURVE('',#418,#416,#190,.T.);
#511=EDGE_CURVE('',#417,#418,#191,.T.);
#512=EDGE_CURVE('',#417,#419,#192,.T.);
#513=EDGE_CURVE('',#420,#418,#193,.T.);
#514=EDGE_CURVE('',#419,#420,#194,.T.);
#515=EDGE_CURVE('',#419,#421,#195,.T.);
#516=EDGE_CURVE('',#422,#420,#196,.T.);
#517=EDGE_CURVE('',#421,#422,#197,.T.);
#518=EDGE_CURVE('',#421,#423,#198,.T.);
#519=EDGE_CURVE('',#424,#422,#199,.T.);
#520=EDGE_CURVE('',#423,#424,#200,.T.);
#521=EDGE_CURVE('',#423,#425,#201,.T.);
#522=EDGE_CURVE('',#426,#424,#202,.T.);
#523=EDGE_CURVE('',#425,#426,#203,.T.);
#524=EDGE_CURVE('',#425,#427,#204,.T.);
#525=EDGE_CURVE('',#428,#426,#205,.T.);
#526=EDGE_CURVE('',#427,#428,#206,.T.);
#527=EDGE_CURVE('',#427,#429,#207,.T.);
#528=EDGE_CURVE('',#430,#428,#208,.T.);
#529=EDGE_CURVE('',#429,#430,#209,.T.);
#530=EDGE_CURVE('',#429,#431,#210,.T.);
#531=EDGE_CURVE('',#432,#430,#211,.T.);
#532=EDGE_CURVE('',#431,#432,#212,.T.);
#533=EDGE_CURVE('',#431,#433,#213,.T.);
#534=EDGE_CURVE('',#434,#432,#214,.T.);
#535=EDGE_CURVE('',#433,#434,#215,.T.);
#536=EDGE_CURVE('',#433,#435,#216,.T.);
#537=EDGE_CURVE('',#436,#434,#217,.T.);
#538=EDGE_CURVE('',#435,#436,#218,.T.);
#539=EDGE_CURVE('',#435,#437,#219,.T.);
#540=EDGE_CURVE('',#438,#436,#220,.T.);
#541=EDGE_CURVE('',#437,#438,#221,.T.);
#542=EDGE_CURVE('',#437,#439,#222,.T.);
#543=EDGE_CURVE('',#440,#438,#223,.T.);
#544=EDGE_CURVE('',#439,#440,#224,.T.);
#545=EDGE_CURVE('',#439,#441,#225,.T.);
#546=EDGE_CURVE('',#442,#440,#226,.T.);
#547=EDGE_CURVE('',#441,#442,#227,.T.);
#548=EDGE_CURVE('',#441,#443,#228,.T.);
#549=EDGE_CURVE('',#444,#442,#229,.T.);
#550=EDGE_CURVE('',#443,#444,#230,.T.);
#551=EDGE_CURVE('',#443,#445,#231,.T.);
#552=EDGE_CURVE('',#446,#444,#232,.T.);
#553=EDGE_CURVE('',#445,#446,#233,.T.);
#554=EDGE_CURVE('',#445,#447,#234,.T.);
#555=EDGE_CURVE('',#448,#446,#235,.T.);
#556=EDGE_CURVE('',#447,#448,#236,.T.);
#557=EDGE_CURVE('',#449,#447,#237,.T.);
#558=EDGE_CURVE('',#450,#448,#238,.T.);
#559=EDGE_CURVE('',#449,#450,#239,.T.);
#560=EDGE_CURVE('',#451,#449,#240,.T.);
#561=EDGE_CURVE('',#452,#450,#241,.T.);
#562=EDGE_CURVE('',#451,#452,#242,.T.);
#563=EDGE_CURVE('',#453,#451,#243,.T.);
#564=EDGE_CURVE('',#454,#452,#244,.T.);
#565=EDGE_CURVE('',#453,#454,#245,.T.);
#566=EDGE_CURVE('',#455,#453,#246,.T.);
#567=EDGE_CURVE('',#456,#454,#247,.T.);
#568=EDGE_CURVE('',#455,#456,#248,.T.);
#569=EDGE_CURVE('',#457,#455,#249,.T.);
#570=EDGE_CURVE('',#458,#456,#250,.T.);
#571=EDGE_CURVE('',#457,#458,#251,.T.);
#572=EDGE_CURVE('',#459,#457,#252,.T.);
#573=EDGE_CURVE('',#460,#458,#253,.T.);
#574=EDGE_CURVE('',#459,#460,#254,.T.);
#575=EDGE_CURVE('',#461,#459,#255,.T.);
#576=EDGE_CURVE('',#462,#460,#256,.T.);
#577=EDGE_CURVE('',#461,#462,#257,.T.);
#578=EDGE_CURVE('',#463,#461,#258,.T.);
#579=EDGE_CURVE('',#464,#462,#259,.T.);
#580=EDGE_CURVE('',#463,#464,#260,.T.);
#581=EDGE_CURVE('',#465,#463,#261,.T.);
#582=EDGE_CURVE('',#466,#464,#262,.T.);
#583=EDGE_CURVE('',#465,#466,#263,.T.);
#584=EDGE_CURVE('',#467,#465,#264,.T.);
#585=EDGE_CURVE('',#468,#466,#265,.T.);
#586=EDGE_CURVE('',#467,#468,#266,.T.);
#587=EDGE_CURVE('',#405,#467,#267,.T.);
#588=EDGE_CURVE('',#407,#468,#268,.T.);
#589=ORIENTED_EDGE('',*,*,#469,.F.);
#590=ORIENTED_EDGE('',*,*,#470,.T.);
#591=ORIENTED_EDGE('',*,*,#471,.F.);
#592=ORIENTED_EDGE('',*,*,#470,.F.);
#593=ORIENTED_EDGE('',*,*,#472,.F.);
#594=ORIENTED_EDGE('',*,*,#473,.T.);
#595=ORIENTED_EDGE('',*,*,#474,.F.);
#596=ORIENTED_EDGE('',*,*,#473,.F.);
#597=ORIENTED_EDGE('',*,*,#475,.F.);
#598=ORIENTED_EDGE('',*,*,#476,.F.);
#599=ORIENTED_EDGE('',*,*,#477,.F.);
#600=ORIENTED_EDGE('',*,*,#478,.T.);
#601=ORIENTED_EDGE('',*,*,#479,.F.);
#602=ORIENTED_EDGE('',*,*,#478,.F.);
#603=ORIENTED_EDGE('',*,*,#480,.F.);
#604=ORIENTED_EDGE('',*,*,#481,.T.);
#605=ORIENTED_EDGE('',*,*,#482,.F.);
#606=ORIENTED_EDGE('',*,*,#481,.F.);
#607=ORIENTED_EDGE('',*,*,#483,.F.);
#608=ORIENTED_EDGE('',*,*,#484,.T.);
#609=ORIENTED_EDGE('',*,*,#485,.F.);
#610=ORIENTED_EDGE('',*,*,#484,.F.);
#611=ORIENTED_EDGE('',*,*,#486,.F.);
#612=ORIENTED_EDGE('',*,*,#476,.T.);
#613=ORIENTED_EDGE('',*,*,#487,.F.);
#614=ORIENTED_EDGE('',*,*,#488,.T.);
#615=ORIENTED_EDGE('',*,*,#489,.F.);
#616=ORIENTED_EDGE('',*,*,#488,.F.);
#617=ORIENTED_EDGE('',*,*,#490,.F.);
#618=ORIENTED_EDGE('',*,*,#491,.T.);
#619=ORIENTED_EDGE('',*,*,#492,.F.);
#620=ORIENTED_EDGE('',*,*,#491,.F.);
#621=ORIENTED_EDGE('',*,*,#493,.F.);
#622=ORIENTED_EDGE('',*,*,#494,.T.);
#623=ORIENTED_EDGE('',*,*,#495,.F.);
#624=ORIENTED_EDGE('',*,*,#496,.F.);
#625=ORIENTED_EDGE('',*,*,#497,.T.);
#626=ORIENTED_EDGE('',*,*,#496,.T.);
#627=ORIENTED_EDGE('',*,*,#498,.F.);
#628=ORIENTED_EDGE('',*,*,#499,.F.);
#629=ORIENTED_EDGE('',*,*,#500,.T.);
#630=ORIENTED_EDGE('',*,*,#499,.T.);
#631=ORIENTED_EDGE('',*,*,#501,.F.);
#632=ORIENTED_EDGE('',*,*,#502,.F.);
#633=ORIENTED_EDGE('',*,*,#503,.F.);
#634=ORIENTED_EDGE('',*,*,#502,.T.);
#635=ORIENTED_EDGE('',*,*,#504,.F.);
#636=ORIENTED_EDGE('',*,*,#505,.F.);
#637=ORIENTED_EDGE('',*,*,#506,.F.);
#638=ORIENTED_EDGE('',*,*,#505,.T.);
#639=ORIENTED_EDGE('',*,*,#507,.F.);
#640=ORIENTED_EDGE('',*,*,#508,.F.);
#641=ORIENTED_EDGE('',*,*,#509,.F.);
#642=ORIENTED_EDGE('',*,*,#508,.T.);
#643=ORIENTED_EDGE('',*,*,#510,.F.);
#644=ORIENTED_EDGE('',*,*,#511,.F.);
#645=ORIENTED_EDGE('',*,*,#512,.F.);
#646=ORIENTED_EDGE('',*,*,#511,.T.);
#647=ORIENTED_EDGE('',*,*,#513,.F.);
#648=ORIENTED_EDGE('',*,*,#514,.F.);
#649=ORIENTED_EDGE('',*,*,#515,.F.);
#650=ORIENTED_EDGE('',*,*,#514,.T.);
#651=ORIENTED_EDGE('',*,*,#516,.F.);
#652=ORIENTED_EDGE('',*,*,#517,.F.);
#653=ORIENTED_EDGE('',*,*,#518,.F.);
#654=ORIENTED_EDGE('',*,*,#517,.T.);
#655=ORIENTED_EDGE('',*,*,#519,.F.);
#656=ORIENTED_EDGE('',*,*,#520,.F.);
#657=ORIENTED_EDGE('',*,*,#521,.F.);
#658=ORIENTED_EDGE('',*,*,#520,.T.);
#659=ORIENTED_EDGE('',*,*,#522,.F.);
#660=ORIENTED_EDGE('',*,*,#523,.F.);
#661=ORIENTED_EDGE('',*,*,#524,.F.);
#662=ORIENTED_EDGE('',*,*,#523,.T.);
#663=ORIENTED_EDGE('',*,*,#525,.F.);
#664=ORIENTED_EDGE('',*,*,#526,.F.);
#665=ORIENTED_EDGE('',*,*,#527,.F.);
#666=ORIENTED_EDGE('',*,*,#526,.T.);
#667=ORIENTED_EDGE('',*,*,#528,.F.);
#668=ORIENTED_EDGE('',*,*,#529,.F.);
#669=ORIENTED_EDGE('',*,*,#530,.F.);
#670=ORIENTED_EDGE('',*,*,#529,.T.);
#671=ORIENTED_EDGE('',*,*,#531,.F.);
#672=ORIENTED_EDGE('',*,*,#532,.F.);
#673=ORIENTED_EDGE('',*,*,#533,.F.);
#674=ORIENTED_EDGE('',*,*,#532,.T.);
#675=ORIENTED_EDGE('',*,*,#534,.F.);
#676=ORIENTED_EDGE('',*,*,#535,.F.);
#677=ORIENTED_EDGE('',*,*,#536,.F.);
#678=ORIENTED_EDGE('',*,*,#535,.T.);
#679=ORIENTED_EDGE('',*,*,#537,.F.);
#680=ORIENTED_EDGE('',*,*,#538,.F.);
#681=ORIENTED_EDGE('',*,*,#539,.F.);
#682=ORIENTED_EDGE('',*,*,#538,.T.);
#683=ORIENTED_EDGE('',*,*,#540,.F.);
#684=ORIENTED_EDGE('',*,*,#541,.F.);
#685=ORIENTED_EDGE('',*,*,#542,.F.);
#686=ORIENTED_EDGE('',*,*,#541,.T.);
#687=ORIENTED_EDGE('',*,*,#543,.F.);
#688=ORIENTED_EDGE('',*,*,#544,.F.);
#689=ORIENTED_EDGE('',*,*,#545,.F.);
#690=ORIENTED_EDGE('',*,*,#544,.T.);
#691=ORIENTED_EDGE('',*,*,#546,.F.);
#692=ORIENTED_EDGE('',*,*,#547,.F.);
#693=ORIENTED_EDGE('',*,*,#548,.F.);
#694=ORIENTED_EDGE('',*,*,#547,.T.);
#695=ORIENTED_EDGE('',*,*,#549,.F.);
#696=ORIENTED_EDGE('',*,*,#550,.F.);
#697=ORIENTED_EDGE('',*,*,#551,.F.);
#698=ORIENTED_EDGE('',*,*,#550,.T.);
#699=ORIENTED_EDGE('',*,*,#552,.F.);
#700=ORIENTED_EDGE('',*,*,#553,.F.);
#701=ORIENTED_EDGE('',*,*,#554,.F.);
#702=ORIENTED_EDGE('',*,*,#553,.T.);
#703=ORIENTED_EDGE('',*,*,#555,.F.);
#704=ORIENTED_EDGE('',*,*,#556,.F.);
#705=ORIENTED_EDGE('',*,*,#557,.T.);
#706=ORIENTED_EDGE('',*,*,#556,.T.);
#707=ORIENTED_EDGE('',*,*,#558,.F.);
#708=ORIENTED_EDGE('',*,*,#559,.F.);
#709=ORIENTED_EDGE('',*,*,#560,.T.);
#710=ORIENTED_EDGE('',*,*,#559,.T.);
#711=ORIENTED_EDGE('',*,*,#561,.F.);
#712=ORIENTED_EDGE('',*,*,#562,.F.);
#713=ORIENTED_EDGE('',*,*,#563,.T.);
#714=ORIENTED_EDGE('',*,*,#562,.T.);
#715=ORIENTED_EDGE('',*,*,#564,.F.);
#716=ORIENTED_EDGE('',*,*,#565,.F.);
#717=ORIENTED_EDGE('',*,*,#566,.T.);
#718=ORIENTED_EDGE('',*,*,#565,.T.);
#719=ORIENTED_EDGE('',*,*,#567,.F.);
#720=ORIENTED_EDGE('',*,*,#568,.F.);
#721=ORIENTED_EDGE('',*,*,#569,.T.);
#722=ORIENTED_EDGE('',*,*,#568,.T.);
#723=ORIENTED_EDGE('',*,*,#570,.F.);
#724=ORIENTED_EDGE('',*,*,#571,.F.);
#725=ORIENTED_EDGE('',*,*,#572,.T.);
#726=ORIENTED_EDGE('',*,*,#571,.T.);
#727=ORIENTED_EDGE('',*,*,#573,.F.);
#728=ORIENTED_EDGE('',*,*,#574,.F.);
#729=ORIENTED_EDGE('',*,*,#575,.T.);
#730=ORIENTED_EDGE('',*,*,#574,.T.);
#731=ORIENTED_EDGE('',*,*,#576,.F.);
#732=ORIENTED_EDGE('',*,*,#577,.F.);
#733=ORIENTED_EDGE('',*,*,#578,.T.);
#734=ORIENTED_EDGE('',*,*,#577,.T.);
#735=ORIENTED_EDGE('',*,*,#579,.F.);
#736=ORIENTED_EDGE('',*,*,#580,.F.);
#737=ORIENTED_EDGE('',*,*,#581,.T.);
#738=ORIENTED_EDGE('',*,*,#580,.T.);
#739=ORIENTED_EDGE('',*,*,#582,.F.);
#740=ORIENTED_EDGE('',*,*,#583,.F.);
#741=ORIENTED_EDGE('',*,*,#584,.T.);
#742=ORIENTED_EDGE('',*,*,#583,.T.);
#743=ORIENTED_EDGE('',*,*,#585,.F.);
#744=ORIENTED_EDGE('',*,*,#586,.F.);
#745=ORIENTED_EDGE('',*,*,#587,.T.);
#746=ORIENTED_EDGE('',*,*,#586,.T.);
#747=ORIENTED_EDGE('',*,*,#588,.F.);
#748=ORIENTED_EDGE('',*,*,#494,.F.);
#749=ORIENTED_EDGE('',*,*,#588,.T.);
#750=ORIENTED_EDGE('',*,*,#585,.T.);
#751=ORIENTED_EDGE('',*,*,#582,.T.);
#752=ORIENTED_EDGE('',*,*,#579,.T.);
#753=ORIENTED_EDGE('',*,*,#576,.T.);
#754=ORIENTED_EDGE('',*,*,#573,.T.);
#755=ORIENTED_EDGE('',*,*,#570,.T.);
#756=ORIENTED_EDGE('',*,*,#567,.T.);
#757=ORIENTED_EDGE('',*,*,#564,.T.);
#758=ORIENTED_EDGE('',*,*,#561,.T.);
#759=ORIENTED_EDGE('',*,*,#558,.T.);
#760=ORIENTED_EDGE('',*,*,#555,.T.);
#761=ORIENTED_EDGE('',*,*,#552,.T.);
#762=ORIENTED_EDGE('',*,*,#549,.T.);
#763=ORIENTED_EDGE('',*,*,#546,.T.);
#764=ORIENTED_EDGE('',*,*,#543,.T.);
#765=ORIENTED_EDGE('',*,*,#540,.T.);
#766=ORIENTED_EDGE('',*,*,#537,.T.);
#767=ORIENTED_EDGE('',*,*,#534,.T.);
#768=ORIENTED_EDGE('',*,*,#531,.T.);
#769=ORIENTED_EDGE('',*,*,#528,.T.);
#770=ORIENTED_EDGE('',*,*,#525,.T.);
#771=ORIENTED_EDGE('',*,*,#522,.T.);
#772=ORIENTED_EDGE('',*,*,#519,.T.);
#773=ORIENTED_EDGE('',*,*,#516,.T.);
#774=ORIENTED_EDGE('',*,*,#513,.T.);
#775=ORIENTED_EDGE('',*,*,#510,.T.);
#776=ORIENTED_EDGE('',*,*,#507,.T.);
#777=ORIENTED_EDGE('',*,*,#504,.T.);
#778=ORIENTED_EDGE('',*,*,#501,.T.);
#779=ORIENTED_EDGE('',*,*,#498,.T.);
#780=ORIENTED_EDGE('',*,*,#495,.T.);
#781=ORIENTED_EDGE('',*,*,#471,.T.);
#782=ORIENTED_EDGE('',*,*,#474,.T.);
#783=ORIENTED_EDGE('',*,*,#482,.T.);
#784=ORIENTED_EDGE('',*,*,#485,.T.);
#785=ORIENTED_EDGE('',*,*,#475,.T.);
#786=ORIENTED_EDGE('',*,*,#479,.T.);
#787=ORIENTED_EDGE('',*,*,#489,.T.);
#788=ORIENTED_EDGE('',*,*,#492,.T.);
#789=ORIENTED_EDGE('',*,*,#587,.F.);
#790=ORIENTED_EDGE('',*,*,#493,.T.);
#791=ORIENTED_EDGE('',*,*,#497,.F.);
#792=ORIENTED_EDGE('',*,*,#500,.F.);
#793=ORIENTED_EDGE('',*,*,#503,.T.);
#794=ORIENTED_EDGE('',*,*,#506,.T.);
#795=ORIENTED_EDGE('',*,*,#509,.T.);
#796=ORIENTED_EDGE('',*,*,#512,.T.);
#797=ORIENTED_EDGE('',*,*,#515,.T.);
#798=ORIENTED_EDGE('',*,*,#518,.T.);
#799=ORIENTED_EDGE('',*,*,#521,.T.);
#800=ORIENTED_EDGE('',*,*,#524,.T.);
#801=ORIENTED_EDGE('',*,*,#527,.T.);
#802=ORIENTED_EDGE('',*,*,#530,.T.);
#803=ORIENTED_EDGE('',*,*,#533,.T.);
#804=ORIENTED_EDGE('',*,*,#536,.T.);
#805=ORIENTED_EDGE('',*,*,#539,.T.);
#806=ORIENTED_EDGE('',*,*,#542,.T.);
#807=ORIENTED_EDGE('',*,*,#545,.T.);
#808=ORIENTED_EDGE('',*,*,#548,.T.);
#809=ORIENTED_EDGE('',*,*,#551,.T.);
#810=ORIENTED_EDGE('',*,*,#554,.T.);
#811=ORIENTED_EDGE('',*,*,#557,.F.);
#812=ORIENTED_EDGE('',*,*,#560,.F.);
#813=ORIENTED_EDGE('',*,*,#563,.F.);
#814=ORIENTED_EDGE('',*,*,#566,.F.);
#815=ORIENTED_EDGE('',*,*,#569,.F.);
#816=ORIENTED_EDGE('',*,*,#572,.F.);
#817=ORIENTED_EDGE('',*,*,#575,.F.);
#818=ORIENTED_EDGE('',*,*,#578,.F.);
#819=ORIENTED_EDGE('',*,*,#581,.F.);
#820=ORIENTED_EDGE('',*,*,#584,.F.);
#821=ORIENTED_EDGE('',*,*,#469,.T.);
#822=ORIENTED_EDGE('',*,*,#472,.T.);
#823=ORIENTED_EDGE('',*,*,#483,.T.);
#824=ORIENTED_EDGE('',*,*,#480,.T.);
#825=ORIENTED_EDGE('',*,*,#477,.T.);
#826=ORIENTED_EDGE('',*,*,#486,.T.);
#827=ORIENTED_EDGE('',*,*,#487,.T.);
#828=ORIENTED_EDGE('',*,*,#490,.T.);
#829=CYLINDRICAL_SURFACE('',#889,2.5);
#830=CYLINDRICAL_SURFACE('',#892,2.5);
#831=CYLINDRICAL_SURFACE('',#899,10.);
#832=CYLINDRICAL_SURFACE('',#902,9.99999999999998);
#833=ADVANCED_FACE('',(#63),#829,.F.);
#834=ADVANCED_FACE('',(#64),#830,.F.);
#835=ADVANCED_FACE('',(#65),#25,.F.);
#836=ADVANCED_FACE('',(#66),#26,.F.);
#837=ADVANCED_FACE('',(#67),#27,.F.);
#838=ADVANCED_FACE('',(#68),#28,.F.);
#839=ADVANCED_FACE('',(#69),#831,.F.);
#840=ADVANCED_FACE('',(#70),#832,.F.);
#841=ADVANCED_FACE('',(#71),#29,.T.);
#842=ADVANCED_FACE('',(#72),#30,.T.);
#843=ADVANCED_FACE('',(#73),#31,.T.);
#844=ADVANCED_FACE('',(#74),#32,.T.);
#845=ADVANCED_FACE('',(#75),#33,.T.);
#846=ADVANCED_FACE('',(#76),#34,.T.);
#847=ADVANCED_FACE('',(#77),#35,.T.);
#848=ADVANCED_FACE('',(#78),#36,.T.);
#849=ADVANCED_FACE('',(#79),#37,.T.);
#850=ADVANCED_FACE('',(#80),#38,.T.);
#851=ADVANCED_FACE('',(#81),#39,.T.);
#852=ADVANCED_FACE('',(#82),#40,.T.);
#853=ADVANCED_FACE('',(#83),#41,.T.);
#854=ADVANCED_FACE('',(#84),#42,.T.);
#855=ADVANCED_FACE('',(#85),#43,.T.);
#856=ADVANCED_FACE('',(#86),#44,.T.);
#857=ADVANCED_FACE('',(#87),#45,.T.);
#858=ADVANCED_FACE('',(#88),#46,.T.);
#859=ADVANCED_FACE('',(#89),#47,.T.);
#860=ADVANCED_FACE('',(#90),#48,.T.);
#861=ADVANCED_FACE('',(#91),#49,.T.);
#862=ADVANCED_FACE('',(#92),#50,.T.);
#863=ADVANCED_FACE('',(#93),#51,.T.);
#864=ADVANCED_FACE('',(#94),#52,.T.);
#865=ADVANCED_FACE('',(#95),#53,.T.);
#866=ADVANCED_FACE('',(#96),#54,.T.);
#867=ADVANCED_FACE('',(#97),#55,.T.);
#868=ADVANCED_FACE('',(#98),#56,.T.);
#869=ADVANCED_FACE('',(#99),#57,.T.);
#870=ADVANCED_FACE('',(#100),#58,.T.);
#871=ADVANCED_FACE('',(#101),#59,.T.);
#872=ADVANCED_FACE('',(#102),#60,.T.);
#873=ADVANCED_FACE('',(#103,#15,#16,#17,#18,#19),#61,.T.);
#874=ADVANCED_FACE('',(#104,#20,#21,#22,#23,#24),#62,.F.);
#875=CLOSED_SHELL('',(#833,#834,#835,#836,#837,#838,#839,#840,#841,#842,
#843,#844,#845,#846,#847,#848,#849,#850,#851,#852,#853,#854,#855,#856,#857,
#858,#859,#860,#861,#862,#863,#864,#865,#866,#867,#868,#869,#870,#871,#872,
#873,#874));
#876=DERIVED_UNIT_ELEMENT(#878,1.);
#877=DERIVED_UNIT_ELEMENT(#1401,-3.);
#878=(
MASS_UNIT()
NAMED_UNIT(*)
SI_UNIT(.KILO.,.GRAM.)
);
#879=DERIVED_UNIT((#876,#877));
#880=MEASURE_REPRESENTATION_ITEM('density measure',
POSITIVE_RATIO_MEASURE(7850.),#879);
#881=PROPERTY_DEFINITION_REPRESENTATION(#886,#883);
#882=PROPERTY_DEFINITION_REPRESENTATION(#887,#884);
#883=REPRESENTATION('material name',(#885),#1398);
#884=REPRESENTATION('density',(#880),#1398);
#885=DESCRIPTIVE_REPRESENTATION_ITEM('A\X\E7o','A\X\E7o');
#886=PROPERTY_DEFINITION('material property','material name',#1408);
#887=PROPERTY_DEFINITION('material property','density of part',#1408);
#888=AXIS2_PLACEMENT_3D('',#1153,#939,#940);
#889=AXIS2_PLACEMENT_3D('',#1154,#941,#942);
#890=AXIS2_PLACEMENT_3D('',#1156,#943,#944);
#891=AXIS2_PLACEMENT_3D('',#1159,#946,#947);
#892=AXIS2_PLACEMENT_3D('',#1160,#948,#949);
#893=AXIS2_PLACEMENT_3D('',#1162,#950,#951);
#894=AXIS2_PLACEMENT_3D('',#1165,#953,#954);
#895=AXIS2_PLACEMENT_3D('',#1166,#955,#956);
#896=AXIS2_PLACEMENT_3D('',#1175,#961,#962);
#897=AXIS2_PLACEMENT_3D('',#1181,#966,#967);
#898=AXIS2_PLACEMENT_3D('',#1187,#971,#972);
#899=AXIS2_PLACEMENT_3D('',#1190,#975,#976);
#900=AXIS2_PLACEMENT_3D('',#1192,#977,#978);
#901=AXIS2_PLACEMENT_3D('',#1195,#980,#981);
#902=AXIS2_PLACEMENT_3D('',#1196,#982,#983);
#903=AXIS2_PLACEMENT_3D('',#1198,#984,#985);
#904=AXIS2_PLACEMENT_3D('',#1201,#987,#988);
#905=AXIS2_PLACEMENT_3D('',#1202,#989,#990);
#906=AXIS2_PLACEMENT_3D('',#1211,#995,#996);
#907=AXIS2_PLACEMENT_3D('',#1217,#1000,#1001);
#908=AXIS2_PLACEMENT_3D('',#1223,#1005,#1006);
#909=AXIS2_PLACEMENT_3D('',#1229,#1010,#1011);
#910=AXIS2_PLACEMENT_3D('',#1235,#1015,#1016);
#911=AXIS2_PLACEMENT_3D('',#1241,#1020,#1021);
#912=AXIS2_PLACEMENT_3D('',#1247,#1025,#1026);
#913=AXIS2_PLACEMENT_3D('',#1253,#1030,#1031);
#914=AXIS2_PLACEMENT_3D('',#1259,#1035,#1036);
#915=AXIS2_PLACEMENT_3D('',#1265,#1040,#1041);
#916=AXIS2_PLACEMENT_3D('',#1271,#1045,#1046);
#917=AXIS2_PLACEMENT_3D('',#1277,#1050,#1051);
#918=AXIS2_PLACEMENT_3D('',#1283,#1055,#1056);
#919=AXIS2_PLACEMENT_3D('',#1289,#1060,#1061);
#920=AXIS2_PLACEMENT_3D('',#1295,#1065,#1066);
#921=AXIS2_PLACEMENT_3D('',#1301,#1070,#1071);
#922=AXIS2_PLACEMENT_3D('',#1307,#1075,#1076);
#923=AXIS2_PLACEMENT_3D('',#1313,#1080,#1081);
#924=AXIS2_PLACEMENT_3D('',#1319,#1085,#1086);
#925=AXIS2_PLACEMENT_3D('',#1325,#1090,#1091);
#926=AXIS2_PLACEMENT_3D('',#1331,#1095,#1096);
#927=AXIS2_PLACEMENT_3D('',#1337,#1100,#1101);
#928=AXIS2_PLACEMENT_3D('',#1343,#1105,#1106);
#929=AXIS2_PLACEMENT_3D('',#1349,#1110,#1111);
#930=AXIS2_PLACEMENT_3D('',#1355,#1115,#1116);
#931=AXIS2_PLACEMENT_3D('',#1361,#1120,#1121);
#932=AXIS2_PLACEMENT_3D('',#1367,#1125,#1126);
#933=AXIS2_PLACEMENT_3D('',#1373,#1130,#1131);
#934=AXIS2_PLACEMENT_3D('',#1379,#1135,#1136);
#935=AXIS2_PLACEMENT_3D('',#1385,#1140,#1141);
#936=AXIS2_PLACEMENT_3D('',#1391,#1145,#1146);
#937=AXIS2_PLACEMENT_3D('',#1394,#1149,#1150);
#938=AXIS2_PLACEMENT_3D('',#1395,#1151,#1152);
#939=DIRECTION('axis',(0.,0.,1.));
#940=DIRECTION('refdir',(1.,0.,0.));
#941=DIRECTION('center_axis',(0.,1.,0.));
#942=DIRECTION('ref_axis',(1.,0.,0.));
#943=DIRECTION('center_axis',(0.,1.,0.));
#944=DIRECTION('ref_axis',(1.,0.,0.));
#945=DIRECTION('',(0.,1.,0.));
#946=DIRECTION('center_axis',(0.,-1.,0.));
#947=DIRECTION('ref_axis',(1.,0.,0.));
#948=DIRECTION('center_axis',(0.,1.,0.));
#949=DIRECTION('ref_axis',(1.,0.,0.));
#950=DIRECTION('center_axis',(0.,1.,0.));
#951=DIRECTION('ref_axis',(1.,0.,0.));
#952=DIRECTION('',(0.,1.,0.));
#953=DIRECTION('center_axis',(0.,-1.,0.));
#954=DIRECTION('ref_axis',(1.,0.,0.));
#955=DIRECTION('center_axis',(0.,0.,-1.));
#956=DIRECTION('ref_axis',(-1.,0.,0.));
#957=DIRECTION('',(1.,0.,0.));
#958=DIRECTION('',(0.,1.,0.));
#959=DIRECTION('',(-1.,0.,0.));
#960=DIRECTION('',(0.,1.,0.));
#961=DIRECTION('center_axis',(1.,0.,0.));
#962=DIRECTION('ref_axis',(0.,0.,-1.));
#963=DIRECTION('',(0.,0.,1.));
#964=DIRECTION('',(0.,0.,-1.));
#965=DIRECTION('',(0.,1.,0.));
#966=DIRECTION('center_axis',(0.,0.,1.));
#967=DIRECTION('ref_axis',(1.,0.,0.));
#968=DIRECTION('',(-1.,0.,0.));
#969=DIRECTION('',(1.,0.,0.));
#970=DIRECTION('',(0.,1.,0.));
#971=DIRECTION('center_axis',(-1.,0.,0.));
#972=DIRECTION('ref_axis',(0.,0.,1.));
#973=DIRECTION('',(0.,0.,-1.));
#974=DIRECTION('',(0.,0.,1.));
#975=DIRECTION('center_axis',(0.,1.,0.));
#976=DIRECTION('ref_axis',(1.,0.,0.));
#977=DIRECTION('center_axis',(0.,1.,0.));
#978=DIRECTION('ref_axis',(1.,0.,0.));
#979=DIRECTION('',(0.,1.,0.));
#980=DIRECTION('center_axis',(0.,-1.,0.));
#981=DIRECTION('ref_axis',(1.,0.,0.));
#982=DIRECTION('center_axis',(0.,1.,0.));
#983=DIRECTION('ref_axis',(1.,0.,0.));
#984=DIRECTION('center_axis',(0.,1.,0.));
#985=DIRECTION('ref_axis',(1.,0.,0.));
#986=DIRECTION('',(0.,1.,0.));
#987=DIRECTION('center_axis',(0.,-1.,0.));
#988=DIRECTION('ref_axis',(1.,0.,0.));
#989=DIRECTION('center_axis',(-0.999999999999983,0.,1.86264512443141E-7));
#990=DIRECTION('ref_axis',(1.86264512443141E-7,0.,0.999999999999983));
#991=DIRECTION('',(-1.86264512443141E-7,0.,-0.999999999999983));
#992=DIRECTION('',(0.,1.,0.));
#993=DIRECTION('',(1.86264512443141E-7,0.,0.999999999999983));
#994=DIRECTION('',(0.,1.,0.));
#995=DIRECTION('center_axis',(-1.86264512518949E-7,0.,-0.999999999999983));
#996=DIRECTION('ref_axis',(-0.999999999999983,0.,1.86264512518949E-7));
#997=DIRECTION('',(-0.999999999999983,0.,1.86264512518949E-7));
#998=DIRECTION('',(-0.999999999999983,0.,1.86264512518949E-7));
#999=DIRECTION('',(0.,1.,0.));
#1000=DIRECTION('center_axis',(0.999999999999983,0.,-1.86264510667252E-7));
#1001=DIRECTION('ref_axis',(-1.86264510667252E-7,0.,-0.999999999999983));
#1002=DIRECTION('',(-1.86264510667252E-7,0.,-0.999999999999983));
#1003=DIRECTION('',(-1.86264510667252E-7,0.,-0.999999999999983));
#1004=DIRECTION('',(0.,1.,0.));
#1005=DIRECTION('center_axis',(-1.86264512619984E-7,0.,-0.999999999999983));
#1006=DIRECTION('ref_axis',(-0.999999999999983,0.,1.86264512619984E-7));
#1007=DIRECTION('',(0.999999999999983,0.,-1.86264512619984E-7));
#1008=DIRECTION('',(-0.999999999999983,0.,1.86264512619984E-7));
#1009=DIRECTION('',(0.,1.,0.));
#1010=DIRECTION('center_axis',(-1.,0.,0.));
#1011=DIRECTION('ref_axis',(0.,0.,1.));
#1012=DIRECTION('',(0.,0.,-1.));
#1013=DIRECTION('',(0.,0.,1.));
#1014=DIRECTION('',(0.,1.,0.));
#1015=DIRECTION('center_axis',(0.,0.,-1.));
#1016=DIRECTION('ref_axis',(-1.,0.,0.));
#1017=DIRECTION('',(1.,0.,0.));
#1018=DIRECTION('',(-1.,0.,0.));
#1019=DIRECTION('',(0.,1.,0.));
#1020=DIRECTION('center_axis',(1.,0.,0.));
#1021=DIRECTION('ref_axis',(0.,0.,-1.));
#1022=DIRECTION('',(0.,0.,1.));
#1023=DIRECTION('',(0.,0.,-1.));
#1024=DIRECTION('',(0.,1.,0.));
#1025=DIRECTION('center_axis',(0.,0.,-1.));
#1026=DIRECTION('ref_axis',(-1.,0.,0.));
#1027=DIRECTION('',(1.,0.,0.));
#1028=DIRECTION('',(-1.,0.,0.));
#1029=DIRECTION('',(0.,1.,0.));
#1030=DIRECTION('center_axis',(-1.,0.,0.));
#1031=DIRECTION('ref_axis',(0.,0.,1.));
#1032=DIRECTION('',(0.,0.,-1.));
#1033=DIRECTION('',(0.,0.,1.));
#1034=DIRECTION('',(0.,1.,0.));
#1035=DIRECTION('center_axis',(0.,0.,-1.));
#1036=DIRECTION('ref_axis',(-1.,0.,0.));
#1037=DIRECTION('',(1.,0.,0.));
#1038=DIRECTION('',(-1.,0.,0.));
#1039=DIRECTION('',(0.,1.,0.));
#1040=DIRECTION('center_axis',(0.999999999999983,0.,-1.8626451270265E-7));
#1041=DIRECTION('ref_axis',(-1.8626451270265E-7,0.,-0.999999999999983));
#1042=DIRECTION('',(1.8626451270265E-7,0.,0.999999999999983));
#1043=DIRECTION('',(-1.8626451270265E-7,0.,-0.999999999999983));
#1044=DIRECTION('',(0.,1.,0.));
#1045=DIRECTION('center_axis',(4.62592926927147E-14,0.,1.));
#1046=DIRECTION('ref_axis',(1.,0.,-4.62592926927148E-14));
#1047=DIRECTION('',(-1.,0.,4.62592926927148E-14));
#1048=DIRECTION('',(1.,0.,-4.62592926927148E-14));
#1049=DIRECTION('',(0.,1.,0.));
#1050=DIRECTION('center_axis',(1.,0.,0.));
#1051=DIRECTION('ref_axis',(0.,0.,-1.));
#1052=DIRECTION('',(0.,0.,1.));
#1053=DIRECTION('',(0.,0.,-1.));
#1054=DIRECTION('',(0.,1.,0.));
#1055=DIRECTION('center_axis',(7.40148683083436E-16,0.,-1.));
#1056=DIRECTION('ref_axis',(-1.,0.,-7.40148683083436E-16));
#1057=DIRECTION('',(1.,0.,7.40148683083436E-16));
#1058=DIRECTION('',(-1.,0.,-7.40148683083436E-16));
#1059=DIRECTION('',(0.,1.,0.));
#1060=DIRECTION('center_axis',(1.,0.,0.));
#1061=DIRECTION('ref_axis',(0.,0.,-1.));
#1062=DIRECTION('',(0.,0.,1.));
#1063=DIRECTION('',(0.,0.,-1.));
#1064=DIRECTION('',(0.,1.,0.));
#1065=DIRECTION('center_axis',(0.,0.,1.));
#1066=DIRECTION('ref_axis',(1.,0.,0.));
#1067=DIRECTION('',(-1.,0.,0.));
#1068=DIRECTION('',(1.,0.,0.));
#1069=DIRECTION('',(0.,1.,0.));
#1070=DIRECTION('center_axis',(1.,0.,0.));
#1071=DIRECTION('ref_axis',(0.,0.,-1.));
#1072=DIRECTION('',(0.,0.,1.));
#1073=DIRECTION('',(0.,0.,-1.));
#1074=DIRECTION('',(0.,1.,0.));
#1075=DIRECTION('center_axis',(0.,0.,-1.));
#1076=DIRECTION('ref_axis',(-1.,0.,0.));
#1077=DIRECTION('',(1.,0.,0.));
#1078=DIRECTION('',(-1.,0.,0.));
#1079=DIRECTION('',(0.,1.,0.));
#1080=DIRECTION('center_axis',(1.,0.,0.));
#1081=DIRECTION('ref_axis',(0.,0.,-1.));
#1082=DIRECTION('',(0.,0.,1.));
#1083=DIRECTION('',(0.,0.,-1.));
#1084=DIRECTION('',(0.,1.,0.));
#1085=DIRECTION('center_axis',(0.,0.,1.));
#1086=DIRECTION('ref_axis',(1.,0.,0.));
#1087=DIRECTION('',(-1.,0.,0.));
#1088=DIRECTION('',(1.,0.,0.));
#1089=DIRECTION('',(0.,1.,0.));
#1090=DIRECTION('center_axis',(1.,0.,0.));
#1091=DIRECTION('ref_axis',(0.,0.,-1.));
#1092=DIRECTION('',(0.,0.,1.));
#1093=DIRECTION('',(0.,0.,-1.));
#1094=DIRECTION('',(0.,1.,0.));
#1095=DIRECTION('center_axis',(-1.87170434972703E-16,0.,1.));
#1096=DIRECTION('ref_axis',(1.,0.,1.87170434972703E-16));
#1097=DIRECTION('',(1.,0.,1.87170434972703E-16));
#1098=DIRECTION('',(1.,0.,1.87170434972703E-16));
#1099=DIRECTION('',(0.,1.,0.));
#1100=DIRECTION('center_axis',(-0.999917633908043,0.,0.01283453932718));
#1101=DIRECTION('ref_axis',(0.01283453932718,0.,0.999917633908043));
#1102=DIRECTION('',(0.01283453932718,0.,0.999917633908043));
#1103=DIRECTION('',(0.01283453932718,0.,0.999917633908043));
#1104=DIRECTION('',(0.,1.,0.));
#1105=DIRECTION('center_axis',(0.0128345393271859,0.,0.999917633908043));
#1106=DIRECTION('ref_axis',(0.999917633908043,0.,-0.0128345393271859));
#1107=DIRECTION('',(0.999917633908043,0.,-0.0128345393271859));
#1108=DIRECTION('',(0.999917633908043,0.,-0.0128345393271859));
#1109=DIRECTION('',(0.,1.,0.));
#1110=DIRECTION('center_axis',(-0.999917633908043,0.,0.0128345393271756));
#1111=DIRECTION('ref_axis',(0.0128345393271756,0.,0.999917633908043));
#1112=DIRECTION('',(0.0128345393271756,0.,0.999917633908043));
#1113=DIRECTION('',(0.0128345393271756,0.,0.999917633908043));
#1114=DIRECTION('',(0.,1.,0.));
#1115=DIRECTION('center_axis',(-0.0128345393271756,0.,-0.999917633908043));
#1116=DIRECTION('ref_axis',(-0.999917633908043,0.,0.0128345393271756));
#1117=DIRECTION('',(-0.999917633908043,0.,0.0128345393271756));
#1118=DIRECTION('',(-0.999917633908043,0.,0.0128345393271756));
#1119=DIRECTION('',(0.,1.,0.));
#1120=DIRECTION('center_axis',(-0.999917633908043,0.,0.0128345393271783));
#1121=DIRECTION('ref_axis',(0.0128345393271783,0.,0.999917633908043));
#1122=DIRECTION('',(0.0128345393271783,0.,0.999917633908043));
#1123=DIRECTION('',(0.0128345393271783,0.,0.999917633908043));
#1124=DIRECTION('',(0.,1.,0.));
#1125=DIRECTION('center_axis',(0.012834539327183,0.,0.999917633908043));
#1126=DIRECTION('ref_axis',(0.999917633908043,0.,-0.012834539327183));
#1127=DIRECTION('',(0.999917633908043,0.,-0.012834539327183));
#1128=DIRECTION('',(0.999917633908043,0.,-0.012834539327183));
#1129=DIRECTION('',(0.,1.,0.));
#1130=DIRECTION('center_axis',(-0.999917633908043,0.,0.0128345393271792));
#1131=DIRECTION('ref_axis',(0.0128345393271792,0.,0.999917633908043));
#1132=DIRECTION('',(0.0128345393271792,0.,0.999917633908043));
#1133=DIRECTION('',(0.0128345393271792,0.,0.999917633908043));
#1134=DIRECTION('',(0.,1.,0.));
#1135=DIRECTION('center_axis',(-0.0128345393271793,0.,-0.999917633908043));
#1136=DIRECTION('ref_axis',(-0.999917633908043,0.,0.0128345393271793));
#1137=DIRECTION('',(-0.999917633908043,0.,0.0128345393271793));
#1138=DIRECTION('',(-0.999917633908043,0.,0.0128345393271793));
#1139=DIRECTION('',(0.,1.,0.));
#1140=DIRECTION('center_axis',(-0.999917633908043,0.,0.0128345393271774));
#1141=DIRECTION('ref_axis',(0.0128345393271774,0.,0.999917633908043));
#1142=DIRECTION('',(0.0128345393271774,0.,0.999917633908043));
#1143=DIRECTION('',(0.0128345393271774,0.,0.999917633908043));
#1144=DIRECTION('',(0.,1.,0.));
#1145=DIRECTION('center_axis',(0.0128345393271789,0.,0.999917633908043));
#1146=DIRECTION('ref_axis',(0.999917633908043,0.,-0.0128345393271789));
#1147=DIRECTION('',(0.999917633908043,0.,-0.0128345393271789));
#1148=DIRECTION('',(0.999917633908043,0.,-0.0128345393271789));
#1149=DIRECTION('center_axis',(0.,1.,0.));
#1150=DIRECTION('ref_axis',(0.,0.,1.));
#1151=DIRECTION('center_axis',(0.,1.,0.));
#1152=DIRECTION('ref_axis',(1.,0.,0.));
#1153=CARTESIAN_POINT('',(0.,0.,0.));
#1154=CARTESIAN_POINT('Origin',(61.,0.,31.8660001776677));
#1155=CARTESIAN_POINT('',(58.5,0.,31.8660001776677));
#1156=CARTESIAN_POINT('Origin',(61.,0.,31.8660001776677));
#1157=CARTESIAN_POINT('',(58.5,6.,31.8660001776677));
#1158=CARTESIAN_POINT('',(58.5,0.,31.8660001776677));
#1159=CARTESIAN_POINT('Origin',(61.,6.,31.8660001776677));
#1160=CARTESIAN_POINT('Origin',(184.,0.,31.0000004619355));
#1161=CARTESIAN_POINT('',(181.5,0.,31.0000004619355));
#1162=CARTESIAN_POINT('Origin',(184.,0.,31.0000004619355));
#1163=CARTESIAN_POINT('',(181.5,6.,31.0000004619355));
#1164=CARTESIAN_POINT('',(181.5,0.,31.0000004619355));
#1165=CARTESIAN_POINT('Origin',(184.,6.,31.0000004619355));
#1166=CARTESIAN_POINT('Origin',(140.793,0.,5.8304));
#1167=CARTESIAN_POINT('',(126.793,6.,5.8304));
#1168=CARTESIAN_POINT('',(140.793,6.,5.8304));
#1169=CARTESIAN_POINT('',(131.646500465662,6.,5.8304));
#1170=CARTESIAN_POINT('',(126.793,0.,5.8304));
#1171=CARTESIAN_POINT('',(126.793,0.,5.8304));
#1172=CARTESIAN_POINT('',(140.793,0.,5.8304));
#1173=CARTESIAN_POINT('',(131.646500465662,0.,5.8304));
#1174=CARTESIAN_POINT('',(140.793,0.,5.8304));
#1175=CARTESIAN_POINT('Origin',(140.793,0.,19.8304));
#1176=CARTESIAN_POINT('',(140.793,6.,19.8304));
#1177=CARTESIAN_POINT('',(140.793,6.,26.4152));
#1178=CARTESIAN_POINT('',(140.793,0.,19.8304));
#1179=CARTESIAN_POINT('',(140.793,0.,26.4152));
#1180=CARTESIAN_POINT('',(140.793,0.,19.8304));
#1181=CARTESIAN_POINT('Origin',(126.793,0.,19.8304));
#1182=CARTESIAN_POINT('',(126.793,6.,19.8304));
#1183=CARTESIAN_POINT('',(124.646500465662,6.,19.8304));
#1184=CARTESIAN_POINT('',(126.793,0.,19.8304));
#1185=CARTESIAN_POINT('',(124.646500465662,0.,19.8304));
#1186=CARTESIAN_POINT('',(126.793,0.,19.8304));
#1187=CARTESIAN_POINT('Origin',(126.793,0.,5.8304));
#1188=CARTESIAN_POINT('',(126.793,6.,19.4152));
#1189=CARTESIAN_POINT('',(126.793,0.,19.4152));
#1190=CARTESIAN_POINT('Origin',(88.5000007450581,0.,46.));
#1191=CARTESIAN_POINT('',(78.5000007450581,0.,46.));
#1192=CARTESIAN_POINT('Origin',(88.5000007450581,0.,46.));
#1193=CARTESIAN_POINT('',(78.5000007450581,6.,46.));
#1194=CARTESIAN_POINT('',(78.5000007450581,0.,46.));
#1195=CARTESIAN_POINT('Origin',(88.5000007450581,6.,46.));
#1196=CARTESIAN_POINT('Origin',(156.500000745058,0.,46.));
#1197=CARTESIAN_POINT('',(146.500000745058,0.,46.));
#1198=CARTESIAN_POINT('Origin',(156.500000745058,0.,46.));
#1199=CARTESIAN_POINT('',(146.500000745058,6.,46.));
#1200=CARTESIAN_POINT('',(146.500000745058,0.,46.));
#1201=CARTESIAN_POINT('Origin',(156.500000745058,6.,46.));
#1202=CARTESIAN_POINT('Origin',(44.999998882415,0.,6.74277557122238E-6));
#1203=CARTESIAN_POINT('',(45.0000018777568,0.,16.081125540561));
#1204=CARTESIAN_POINT('',(44.999998882415,0.,6.74277557122238E-6));
#1205=CARTESIAN_POINT('',(45.0000018777568,0.,16.081125540561));
#1206=CARTESIAN_POINT('',(45.0000018777568,6.,16.081125540561));
#1207=CARTESIAN_POINT('',(45.0000018777568,0.,16.081125540561));
#1208=CARTESIAN_POINT('',(44.999998882415,6.,6.74277557122238E-6));
#1209=CARTESIAN_POINT('',(45.0000018777568,6.,16.081125540561));
#1210=CARTESIAN_POINT('',(44.999998882415,0.,6.74277557122238E-6));
#1211=CARTESIAN_POINT('Origin',(81.1999988824144,0.,2.17000451726331E-13));
#1212=CARTESIAN_POINT('',(81.1999988824144,0.,2.17000451726331E-13));
#1213=CARTESIAN_POINT('',(81.1999988824144,0.,2.17000451726331E-13));
#1214=CARTESIAN_POINT('',(81.1999988824144,6.,2.17603712826531E-13));
#1215=CARTESIAN_POINT('',(81.1999988824144,6.,2.17000451726331E-13));
#1216=CARTESIAN_POINT('',(81.1999988824144,0.,2.17000451726331E-13));
#1217=CARTESIAN_POINT('Origin',(81.2000000000028,0.,6.00000700354567));
#1218=CARTESIAN_POINT('',(81.2000000000028,0.,6.00000700354567));
#1219=CARTESIAN_POINT('',(81.2000000000028,0.,6.00000700354567));
#1220=CARTESIAN_POINT('',(81.2000000000028,6.,6.00000700354568));
#1221=CARTESIAN_POINT('',(81.2000000000028,6.,6.00000700354567));
#1222=CARTESIAN_POINT('',(81.2000000000028,0.,6.00000700354567));
#1223=CARTESIAN_POINT('Origin',(118.8,0.,6.));
#1224=CARTESIAN_POINT('',(118.8,0.,6.));
#1225=CARTESIAN_POINT('',(81.2000000000028,0.,6.00000700354567));
#1226=CARTESIAN_POINT('',(118.8,6.,6.));
#1227=CARTESIAN_POINT('',(81.2000000000028,6.,6.00000700354567));
#1228=CARTESIAN_POINT('',(118.8,0.,6.));
#1229=CARTESIAN_POINT('Origin',(118.8,0.,-1.11022302462516E-15));
#1230=CARTESIAN_POINT('',(118.8,0.,-1.11022302462516E-15));
#1231=CARTESIAN_POINT('',(118.8,0.,6.));
#1232=CARTESIAN_POINT('',(118.8,6.,-2.22044604925031E-15));
#1233=CARTESIAN_POINT('',(118.8,6.,6.));
#1234=CARTESIAN_POINT('',(118.8,0.,-1.11022302462516E-15));
#1235=CARTESIAN_POINT('Origin',(156.4,0.,-1.11022302462516E-15));
#1236=CARTESIAN_POINT('',(156.4,0.,-1.11022302462516E-15));
#1237=CARTESIAN_POINT('',(118.8,0.,-1.11022302462516E-15));
#1238=CARTESIAN_POINT('',(156.4,6.,-2.22044604925031E-15));
#1239=CARTESIAN_POINT('',(118.8,6.,-1.11022302462516E-15));
#1240=CARTESIAN_POINT('',(156.4,0.,-1.11022302462516E-15));
#1241=CARTESIAN_POINT('Origin',(156.4,0.,6.));
#1242=CARTESIAN_POINT('',(156.4,0.,6.));
#1243=CARTESIAN_POINT('',(156.4,0.,-1.11022302462516E-15));
#1244=CARTESIAN_POINT('',(156.4,6.,6.));
#1245=CARTESIAN_POINT('',(156.4,6.,-1.11022302462516E-15));
#1246=CARTESIAN_POINT('',(156.4,0.,6.));
#1247=CARTESIAN_POINT('Origin',(194.,0.,6.));
#1248=CARTESIAN_POINT('',(194.,0.,6.));
#1249=CARTESIAN_POINT('',(156.4,0.,6.));
#1250=CARTESIAN_POINT('',(194.,6.,6.));
#1251=CARTESIAN_POINT('',(156.4,6.,6.));
#1252=CARTESIAN_POINT('',(194.,0.,6.));
#1253=CARTESIAN_POINT('Origin',(194.,0.,-1.11022302462516E-15));
#1254=CARTESIAN_POINT('',(194.,0.,-1.11022302462516E-15));
#1255=CARTESIAN_POINT('',(194.,0.,6.));
#1256=CARTESIAN_POINT('',(194.,6.,-2.22044604925031E-15));
#1257=CARTESIAN_POINT('',(194.,6.,6.));
#1258=CARTESIAN_POINT('',(194.,0.,-1.11022302462516E-15));
#1259=CARTESIAN_POINT('Origin',(200.,0.,-1.11022302462516E-15));
#1260=CARTESIAN_POINT('',(200.,0.,-1.11022302462516E-15));
#1261=CARTESIAN_POINT('',(194.,0.,-1.11022302462516E-15));
#1262=CARTESIAN_POINT('',(200.,6.,-2.22044604925031E-15));
#1263=CARTESIAN_POINT('',(194.,6.,-1.11022302462516E-15));
#1264=CARTESIAN_POINT('',(200.,0.,-1.11022302462516E-15));
#1265=CARTESIAN_POINT('Origin',(200.000002980232,0.,15.9999999999997));
#1266=CARTESIAN_POINT('',(200.000002980232,0.,15.9999999999997));
#1267=CARTESIAN_POINT('',(200.,0.,-1.11022302462516E-15));
#1268=CARTESIAN_POINT('',(200.000002980232,6.,15.9999999999997));
#1269=CARTESIAN_POINT('',(200.,6.,-1.11022302462516E-15));
#1270=CARTESIAN_POINT('',(200.000002980232,0.,15.9999999999997));
#1271=CARTESIAN_POINT('Origin',(194.000002980232,0.,16.));
#1272=CARTESIAN_POINT('',(194.000002980232,0.,16.));
#1273=CARTESIAN_POINT('',(200.000002980232,0.,15.9999999999997));
#1274=CARTESIAN_POINT('',(194.000002980232,6.,16.));
#1275=CARTESIAN_POINT('',(200.000002980232,6.,15.9999999999997));
#1276=CARTESIAN_POINT('',(194.000002980232,0.,16.));
#1277=CARTESIAN_POINT('Origin',(194.000002980232,0.,26.));
#1278=CARTESIAN_POINT('',(194.000002980232,0.,26.));
#1279=CARTESIAN_POINT('',(194.000002980232,0.,16.));
#1280=CARTESIAN_POINT('',(194.000002980232,6.,26.));
#1281=CARTESIAN_POINT('',(194.000002980232,6.,16.));
#1282=CARTESIAN_POINT('',(194.000002980232,0.,26.));
#1283=CARTESIAN_POINT('Origin',(200.000002980232,0.,26.));
#1284=CARTESIAN_POINT('',(200.000002980232,0.,26.));
#1285=CARTESIAN_POINT('',(194.000002980232,0.,26.));
#1286=CARTESIAN_POINT('',(200.000002980232,6.,26.));
#1287=CARTESIAN_POINT('',(194.000002980232,6.,26.));
#1288=CARTESIAN_POINT('',(200.000002980232,0.,26.));
#1289=CARTESIAN_POINT('Origin',(200.000002980232,0.,36.));
#1290=CARTESIAN_POINT('',(200.000002980232,0.,36.));
#1291=CARTESIAN_POINT('',(200.000002980232,0.,26.));
#1292=CARTESIAN_POINT('',(200.000002980232,6.,36.));
#1293=CARTESIAN_POINT('',(200.000002980232,6.,26.));
#1294=CARTESIAN_POINT('',(200.000002980232,0.,36.));
#1295=CARTESIAN_POINT('Origin',(194.000002980232,0.,36.));
#1296=CARTESIAN_POINT('',(194.000002980232,0.,36.));
#1297=CARTESIAN_POINT('',(200.000002980232,0.,36.));
#1298=CARTESIAN_POINT('',(194.000002980232,6.,36.));
#1299=CARTESIAN_POINT('',(200.000002980232,6.,36.));
#1300=CARTESIAN_POINT('',(194.000002980232,0.,36.));
#1301=CARTESIAN_POINT('Origin',(194.000002980232,0.,46.));
#1302=CARTESIAN_POINT('',(194.000002980232,0.,46.));
#1303=CARTESIAN_POINT('',(194.000002980232,0.,36.));
#1304=CARTESIAN_POINT('',(194.000002980232,6.,46.));
#1305=CARTESIAN_POINT('',(194.000002980232,6.,36.));
#1306=CARTESIAN_POINT('',(194.000002980232,0.,46.));
#1307=CARTESIAN_POINT('Origin',(200.000002980232,0.,46.));
#1308=CARTESIAN_POINT('',(200.000002980232,0.,46.));
#1309=CARTESIAN_POINT('',(194.000002980232,0.,46.));
#1310=CARTESIAN_POINT('',(200.000002980232,6.,46.));
#1311=CARTESIAN_POINT('',(194.000002980232,6.,46.));
#1312=CARTESIAN_POINT('',(200.000002980232,0.,46.));
#1313=CARTESIAN_POINT('Origin',(200.000002980232,0.,56.));
#1314=CARTESIAN_POINT('',(200.000002980232,0.,56.));
#1315=CARTESIAN_POINT('',(200.000002980232,0.,46.));
#1316=CARTESIAN_POINT('',(200.000002980232,6.,56.));
#1317=CARTESIAN_POINT('',(200.000002980232,6.,46.));
#1318=CARTESIAN_POINT('',(200.000002980232,0.,56.));
#1319=CARTESIAN_POINT('Origin',(194.000002980232,0.,56.));
#1320=CARTESIAN_POINT('',(194.000002980232,0.,56.));
#1321=CARTESIAN_POINT('',(200.000002980232,0.,56.));
#1322=CARTESIAN_POINT('',(194.000002980232,6.,56.));
#1323=CARTESIAN_POINT('',(200.000002980232,6.,56.));
#1324=CARTESIAN_POINT('',(194.000002980232,0.,56.));
#1325=CARTESIAN_POINT('Origin',(194.000002980232,0.,66.));
#1326=CARTESIAN_POINT('',(194.000002980232,0.,66.));
#1327=CARTESIAN_POINT('',(194.000002980232,0.,56.));
#1328=CARTESIAN_POINT('',(194.000002980232,6.,66.));
#1329=CARTESIAN_POINT('',(194.000002980232,6.,56.));
#1330=CARTESIAN_POINT('',(194.000002980232,0.,66.));
#1331=CARTESIAN_POINT('Origin',(51.641234647564,0.,66.));
#1332=CARTESIAN_POINT('',(51.641234647564,0.,66.));
#1333=CARTESIAN_POINT('',(51.641234647564,0.,66.));
#1334=CARTESIAN_POINT('',(51.641234647564,6.,66.));
#1335=CARTESIAN_POINT('',(51.641234647564,6.,66.));
#1336=CARTESIAN_POINT('',(51.641234647564,0.,66.));
#1337=CARTESIAN_POINT('Origin',(51.5128892542922,0.,56.0008236609196));
#1338=CARTESIAN_POINT('',(51.5128892542922,0.,56.0008236609196));
#1339=CARTESIAN_POINT('',(51.5128892542922,0.,56.0008236609196));
#1340=CARTESIAN_POINT('',(51.5128892542922,6.,56.0008236609196));
#1341=CARTESIAN_POINT('',(51.5128892542922,6.,56.0008236609196));
#1342=CARTESIAN_POINT('',(51.5128892542922,0.,56.0008236609196));
#1343=CARTESIAN_POINT('Origin',(45.5133834508439,0.,56.0778308968827));
#1344=CARTESIAN_POINT('',(45.5133834508439,0.,56.0778308968827));
#1345=CARTESIAN_POINT('',(45.5133834508439,0.,56.0778308968827));
#1346=CARTESIAN_POINT('',(45.5133834508439,6.,56.0778308968827));
#1347=CARTESIAN_POINT('',(45.5133834508439,6.,56.0778308968827));
#1348=CARTESIAN_POINT('',(45.5133834508439,0.,56.0778308968827));
#1349=CARTESIAN_POINT('Origin',(45.3850380575722,0.,46.0786545578022));
#1350=CARTESIAN_POINT('',(45.3850380575722,0.,46.0786545578022));
#1351=CARTESIAN_POINT('',(45.3850380575722,0.,46.0786545578022));
#1352=CARTESIAN_POINT('',(45.3850380575722,6.,46.0786545578022));
#1353=CARTESIAN_POINT('',(45.3850380575722,6.,46.0786545578022));
#1354=CARTESIAN_POINT('',(45.3850380575722,0.,46.0786545578022));
#1355=CARTESIAN_POINT('Origin',(51.3845438610204,0.,46.0016473218392));
#1356=CARTESIAN_POINT('',(51.3845438610204,0.,46.0016473218392));
#1357=CARTESIAN_POINT('',(51.3845438610204,0.,46.0016473218392));
#1358=CARTESIAN_POINT('',(51.3845438610204,6.,46.0016473218392));
#1359=CARTESIAN_POINT('',(51.3845438610204,6.,46.0016473218392));
#1360=CARTESIAN_POINT('',(51.3845438610204,0.,46.0016473218392));
#1361=CARTESIAN_POINT('Origin',(51.2561984677486,0.,36.0024709827587));
#1362=CARTESIAN_POINT('',(51.2561984677486,0.,36.0024709827587));
#1363=CARTESIAN_POINT('',(51.2561984677486,0.,36.0024709827587));
#1364=CARTESIAN_POINT('',(51.2561984677486,6.,36.0024709827587));
#1365=CARTESIAN_POINT('',(51.2561984677486,6.,36.0024709827587));
#1366=CARTESIAN_POINT('',(51.2561984677486,0.,36.0024709827587));
#1367=CARTESIAN_POINT('Origin',(45.2566926643004,0.,36.0794782187218));
#1368=CARTESIAN_POINT('',(45.2566926643004,0.,36.0794782187218));
#1369=CARTESIAN_POINT('',(45.2566926643004,0.,36.0794782187218));
#1370=CARTESIAN_POINT('',(45.2566926643004,6.,36.0794782187218));
#1371=CARTESIAN_POINT('',(45.2566926643004,6.,36.0794782187218));
#1372=CARTESIAN_POINT('',(45.2566926643004,0.,36.0794782187218));
#1373=CARTESIAN_POINT('Origin',(45.1283472710286,0.,26.0803018796414));
#1374=CARTESIAN_POINT('',(45.1283472710286,0.,26.0803018796414));
#1375=CARTESIAN_POINT('',(45.1283472710286,0.,26.0803018796414));
#1376=CARTESIAN_POINT('',(45.1283472710286,6.,26.0803018796414));
#1377=CARTESIAN_POINT('',(45.1283472710286,6.,26.0803018796414));
#1378=CARTESIAN_POINT('',(45.1283472710286,0.,26.0803018796414));
#1379=CARTESIAN_POINT('Origin',(51.1278530744768,0.,26.0032946436783));
#1380=CARTESIAN_POINT('',(51.1278530744768,0.,26.0032946436783));
#1381=CARTESIAN_POINT('',(51.1278530744768,0.,26.0032946436783));
#1382=CARTESIAN_POINT('',(51.1278530744768,6.,26.0032946436783));
#1383=CARTESIAN_POINT('',(51.1278530744768,6.,26.0032946436783));
#1384=CARTESIAN_POINT('',(51.1278530744768,0.,26.0032946436783));
#1385=CARTESIAN_POINT('Origin',(50.9995076812051,0.,16.0041183045979));
#1386=CARTESIAN_POINT('',(50.9995076812051,0.,16.0041183045979));
#1387=CARTESIAN_POINT('',(50.9995076812051,0.,16.0041183045979));
#1388=CARTESIAN_POINT('',(50.9995076812051,6.,16.0041183045979));
#1389=CARTESIAN_POINT('',(50.9995076812051,6.,16.0041183045979));
#1390=CARTESIAN_POINT('',(50.9995076812051,0.,16.0041183045979));
#1391=CARTESIAN_POINT('Origin',(45.0000018777568,0.,16.081125540561));
#1392=CARTESIAN_POINT('',(45.0000018777568,0.,16.081125540561));
#1393=CARTESIAN_POINT('',(45.0000018777568,6.,16.081125540561));
#1394=CARTESIAN_POINT('Origin',(122.500000931324,6.,33.));
#1395=CARTESIAN_POINT('Origin',(122.500000931324,0.,33.));
#1396=UNCERTAINTY_MEASURE_WITH_UNIT(LENGTH_MEASURE(0.01),#1400,
'DISTANCE_ACCURACY_VALUE',
'Maximum model space distance between geometric entities at asserted c
onnectivities');
#1397=UNCERTAINTY_MEASURE_WITH_UNIT(LENGTH_MEASURE(0.01),#1400,
'DISTANCE_ACCURACY_VALUE',
'Maximum model space distance between geometric entities at asserted c
onnectivities');
#1398=(
GEOMETRIC_REPRESENTATION_CONTEXT(3)
GLOBAL_UNCERTAINTY_ASSIGNED_CONTEXT((#1396))
GLOBAL_UNIT_ASSIGNED_CONTEXT((#1400,#1402,#1403))
REPRESENTATION_CONTEXT('','3D')
);
#1399=(
GEOMETRIC_REPRESENTATION_CONTEXT(3)
GLOBAL_UNCERTAINTY_ASSIGNED_CONTEXT((#1397))
GLOBAL_UNIT_ASSIGNED_CONTEXT((#1400,#1402,#1403))
REPRESENTATION_CONTEXT('','3D')
);
#1400=(
LENGTH_UNIT()
NAMED_UNIT(*)
SI_UNIT(.MILLI.,.METRE.)
);
#1401=(
LENGTH_UNIT()
NAMED_UNIT(*)
SI_UNIT($,.METRE.)
);
#1402=(
NAMED_UNIT(*)
PLANE_ANGLE_UNIT()
SI_UNIT($,.RADIAN.)
);
#1403=(
NAMED_UNIT(*)
SI_UNIT($,.STERADIAN.)
SOLID_ANGLE_UNIT()
);
#1404=SHAPE_DEFINITION_REPRESENTATION(#1405,#1406);
#1405=PRODUCT_DEFINITION_SHAPE('',$,#1408);
#1406=SHAPE_REPRESENTATION('',(#888),#1398);
#1407=PRODUCT_DEFINITION_CONTEXT('part definition',#1412,'design');
#1408=PRODUCT_DEFINITION('Frontal','Frontal v18',#1409,#1407);
#1409=PRODUCT_DEFINITION_FORMATION('',$,#1414);
#1410=PRODUCT_RELATED_PRODUCT_CATEGORY('Frontal v18','Frontal v18',(#1414));
#1411=APPLICATION_PROTOCOL_DEFINITION('international standard',
'automotive_design',2009,#1412);
#1412=APPLICATION_CONTEXT(
'Core Data for Automotive Mechanical Design Process');
#1413=PRODUCT_CONTEXT('part definition',#1412,'mechanical');
#1414=PRODUCT('Frontal','Frontal v18',$,(#1413));
#1415=PRESENTATION_STYLE_ASSIGNMENT((#1416));
#1416=SURFACE_STYLE_USAGE(.BOTH.,#1417);
#1417=SURFACE_SIDE_STYLE('',(#1418));
#1418=SURFACE_STYLE_FILL_AREA(#1419);
#1419=FILL_AREA_STYLE('A\X\E7o - Acetinado',(#1420));
#1420=FILL_AREA_STYLE_COLOUR('A\X\E7o - Acetinado',#1421);
#1421=COLOUR_RGB('A\X\E7o - Acetinado',0.627450980392157,0.627450980392157,
0.627450980392157);
ENDSEC;
END-ISO-10303-21;
