ISO-10303-21;
HEADER;
/* Generated by software containing ST-Developer
 * from STEP Tools, Inc. (www.steptools.com) 
 */

FILE_DESCRIPTION(
/* description */ (''),
/* implementation_level */ '2;1');

FILE_NAME(
/* name */ 'LateralEsquerda.step',
/* time_stamp */ '2026-04-09T15:48:44-03:00',
/* author */ (''),
/* organization */ (''),
/* preprocessor_version */ 'ST-DEVELOPER v20.1',
/* originating_system */ 'Autodesk Translation Framework v14.24.0.0',
/* authorisation */ '');

FILE_SCHEMA (('AUTOMOTIVE_DESIGN { 1 0 10303 214 3 1 1 }'));
ENDSEC;

DATA;
#10=MECHANICAL_DESIGN_GEOMETRIC_PRESENTATION_REPRESENTATION('',(#13),#1614);
#11=SHAPE_REPRESENTATION_RELATIONSHIP('SRR','None',#1621,#12);
#12=ADVANCED_BREP_SHAPE_REPRESENTATION('',(#14),#1613);
#13=STYLED_ITEM('',(#1630),#14);
#14=MANIFOLD_SOLID_BREP('Corpo2',#994);
#15=FACE_BOUND('',#168,.T.);
#16=FACE_BOUND('',#169,.T.);
#17=FACE_BOUND('',#170,.T.);
#18=FACE_BOUND('',#171,.T.);
#19=FACE_BOUND('',#172,.T.);
#20=FACE_BOUND('',#173,.T.);
#21=FACE_BOUND('',#174,.T.);
#22=FACE_BOUND('',#175,.T.);
#23=FACE_BOUND('',#176,.T.);
#24=FACE_BOUND('',#177,.T.);
#25=FACE_BOUND('',#178,.T.);
#26=FACE_BOUND('',#179,.T.);
#27=FACE_BOUND('',#180,.T.);
#28=FACE_BOUND('',#182,.T.);
#29=FACE_BOUND('',#183,.T.);
#30=FACE_BOUND('',#184,.T.);
#31=FACE_BOUND('',#185,.T.);
#32=FACE_BOUND('',#186,.T.);
#33=FACE_BOUND('',#187,.T.);
#34=FACE_BOUND('',#188,.T.);
#35=FACE_BOUND('',#189,.T.);
#36=FACE_BOUND('',#190,.T.);
#37=FACE_BOUND('',#191,.T.);
#38=FACE_BOUND('',#192,.T.);
#39=FACE_BOUND('',#193,.T.);
#40=FACE_BOUND('',#194,.T.);
#41=PLANE('',#1047);
#42=PLANE('',#1048);
#43=PLANE('',#1049);
#44=PLANE('',#1050);
#45=PLANE('',#1051);
#46=PLANE('',#1052);
#47=PLANE('',#1053);
#48=PLANE('',#1054);
#49=PLANE('',#1055);
#50=PLANE('',#1056);
#51=PLANE('',#1057);
#52=PLANE('',#1058);
#53=PLANE('',#1059);
#54=PLANE('',#1060);
#55=PLANE('',#1061);
#56=PLANE('',#1062);
#57=PLANE('',#1063);
#58=PLANE('',#1064);
#59=PLANE('',#1065);
#60=PLANE('',#1066);
#61=PLANE('',#1067);
#62=PLANE('',#1068);
#63=PLANE('',#1069);
#64=PLANE('',#1070);
#65=PLANE('',#1071);
#66=PLANE('',#1072);
#67=PLANE('',#1073);
#68=PLANE('',#1074);
#69=PLANE('',#1075);
#70=PLANE('',#1076);
#71=PLANE('',#1077);
#72=PLANE('',#1078);
#73=PLANE('',#1079);
#74=PLANE('',#1080);
#75=FACE_OUTER_BOUND('',#122,.T.);
#76=FACE_OUTER_BOUND('',#123,.T.);
#77=FACE_OUTER_BOUND('',#124,.T.);
#78=FACE_OUTER_BOUND('',#125,.T.);
#79=FACE_OUTER_BOUND('',#126,.T.);
#80=FACE_OUTER_BOUND('',#127,.T.);
#81=FACE_OUTER_BOUND('',#128,.T.);
#82=FACE_OUTER_BOUND('',#129,.T.);
#83=FACE_OUTER_BOUND('',#130,.T.);
#84=FACE_OUTER_BOUND('',#131,.T.);
#85=FACE_OUTER_BOUND('',#132,.T.);
#86=FACE_OUTER_BOUND('',#133,.T.);
#87=FACE_OUTER_BOUND('',#134,.T.);
#88=FACE_OUTER_BOUND('',#135,.T.);
#89=FACE_OUTER_BOUND('',#136,.T.);
#90=FACE_OUTER_BOUND('',#137,.T.);
#91=FACE_OUTER_BOUND('',#138,.T.);
#92=FACE_OUTER_BOUND('',#139,.T.);
#93=FACE_OUTER_BOUND('',#140,.T.);
#94=FACE_OUTER_BOUND('',#141,.T.);
#95=FACE_OUTER_BOUND('',#142,.T.);
#96=FACE_OUTER_BOUND('',#143,.T.);
#97=FACE_OUTER_BOUND('',#144,.T.);
#98=FACE_OUTER_BOUND('',#145,.T.);
#99=FACE_OUTER_BOUND('',#146,.T.);
#100=FACE_OUTER_BOUND('',#147,.T.);
#101=FACE_OUTER_BOUND('',#148,.T.);
#102=FACE_OUTER_BOUND('',#149,.T.);
#103=FACE_OUTER_BOUND('',#150,.T.);
#104=FACE_OUTER_BOUND('',#151,.T.);
#105=FACE_OUTER_BOUND('',#152,.T.);
#106=FACE_OUTER_BOUND('',#153,.T.);
#107=FACE_OUTER_BOUND('',#154,.T.);
#108=FACE_OUTER_BOUND('',#155,.T.);
#109=FACE_OUTER_BOUND('',#156,.T.);
#110=FACE_OUTER_BOUND('',#157,.T.);
#111=FACE_OUTER_BOUND('',#158,.T.);
#112=FACE_OUTER_BOUND('',#159,.T.);
#113=FACE_OUTER_BOUND('',#160,.T.);
#114=FACE_OUTER_BOUND('',#161,.T.);
#115=FACE_OUTER_BOUND('',#162,.T.);
#116=FACE_OUTER_BOUND('',#163,.T.);
#117=FACE_OUTER_BOUND('',#164,.T.);
#118=FACE_OUTER_BOUND('',#165,.T.);
#119=FACE_OUTER_BOUND('',#166,.T.);
#120=FACE_OUTER_BOUND('',#167,.T.);
#121=FACE_OUTER_BOUND('',#181,.T.);
#122=EDGE_LOOP('',(#664,#665,#666,#667));
#123=EDGE_LOOP('',(#668,#669,#670,#671));
#124=EDGE_LOOP('',(#672,#673,#674,#675));
#125=EDGE_LOOP('',(#676,#677,#678,#679));
#126=EDGE_LOOP('',(#680,#681,#682,#683));
#127=EDGE_LOOP('',(#684,#685,#686,#687));
#128=EDGE_LOOP('',(#688,#689,#690,#691));
#129=EDGE_LOOP('',(#692,#693,#694,#695));
#130=EDGE_LOOP('',(#696,#697,#698,#699));
#131=EDGE_LOOP('',(#700,#701,#702,#703));
#132=EDGE_LOOP('',(#704,#705,#706,#707));
#133=EDGE_LOOP('',(#708,#709,#710,#711));
#134=EDGE_LOOP('',(#712,#713,#714,#715));
#135=EDGE_LOOP('',(#716,#717,#718,#719));
#136=EDGE_LOOP('',(#720,#721,#722,#723));
#137=EDGE_LOOP('',(#724,#725,#726,#727));
#138=EDGE_LOOP('',(#728,#729,#730,#731));
#139=EDGE_LOOP('',(#732,#733,#734,#735));
#140=EDGE_LOOP('',(#736,#737,#738,#739));
#141=EDGE_LOOP('',(#740,#741,#742,#743));
#142=EDGE_LOOP('',(#744,#745,#746,#747));
#143=EDGE_LOOP('',(#748,#749,#750,#751));
#144=EDGE_LOOP('',(#752,#753,#754,#755));
#145=EDGE_LOOP('',(#756,#757,#758,#759));
#146=EDGE_LOOP('',(#760,#761,#762,#763));
#147=EDGE_LOOP('',(#764,#765,#766,#767));
#148=EDGE_LOOP('',(#768,#769,#770,#771));
#149=EDGE_LOOP('',(#772,#773,#774,#775));
#150=EDGE_LOOP('',(#776,#777,#778,#779));
#151=EDGE_LOOP('',(#780,#781,#782,#783));
#152=EDGE_LOOP('',(#784,#785,#786,#787));
#153=EDGE_LOOP('',(#788,#789,#790,#791));
#154=EDGE_LOOP('',(#792,#793,#794,#795));
#155=EDGE_LOOP('',(#796,#797,#798,#799));
#156=EDGE_LOOP('',(#800,#801,#802,#803));
#157=EDGE_LOOP('',(#804,#805,#806,#807));
#158=EDGE_LOOP('',(#808,#809,#810,#811));
#159=EDGE_LOOP('',(#812,#813,#814,#815));
#160=EDGE_LOOP('',(#816,#817,#818,#819));
#161=EDGE_LOOP('',(#820,#821,#822,#823));
#162=EDGE_LOOP('',(#824,#825,#826,#827));
#163=EDGE_LOOP('',(#828,#829,#830,#831));
#164=EDGE_LOOP('',(#832,#833,#834,#835));
#165=EDGE_LOOP('',(#836,#837,#838,#839));
#166=EDGE_LOOP('',(#840,#841,#842,#843));
#167=EDGE_LOOP('',(#844,#845,#846,#847,#848,#849,#850,#851,#852,#853,#854,
#855,#856,#857,#858,#859,#860,#861,#862,#863,#864,#865,#866,#867,#868,#869,
#870,#871,#872,#873,#874,#875));
#168=EDGE_LOOP('',(#876));
#169=EDGE_LOOP('',(#877));
#170=EDGE_LOOP('',(#878));
#171=EDGE_LOOP('',(#879));
#172=EDGE_LOOP('',(#880));
#173=EDGE_LOOP('',(#881));
#174=EDGE_LOOP('',(#882));
#175=EDGE_LOOP('',(#883));
#176=EDGE_LOOP('',(#884));
#177=EDGE_LOOP('',(#885));
#178=EDGE_LOOP('',(#886));
#179=EDGE_LOOP('',(#887));
#180=EDGE_LOOP('',(#888));
#181=EDGE_LOOP('',(#889,#890,#891,#892,#893,#894,#895,#896,#897,#898,#899,
#900,#901,#902,#903,#904,#905,#906,#907,#908,#909,#910,#911,#912,#913,#914,
#915,#916,#917,#918,#919,#920));
#182=EDGE_LOOP('',(#921));
#183=EDGE_LOOP('',(#922));
#184=EDGE_LOOP('',(#923));
#185=EDGE_LOOP('',(#924));
#186=EDGE_LOOP('',(#925));
#187=EDGE_LOOP('',(#926));
#188=EDGE_LOOP('',(#927));
#189=EDGE_LOOP('',(#928));
#190=EDGE_LOOP('',(#929));
#191=EDGE_LOOP('',(#930));
#192=EDGE_LOOP('',(#931));
#193=EDGE_LOOP('',(#932));
#194=EDGE_LOOP('',(#933));
#195=LINE('',#1343,#304);
#196=LINE('',#1349,#305);
#197=LINE('',#1355,#306);
#198=LINE('',#1361,#307);
#199=LINE('',#1367,#308);
#200=LINE('',#1373,#309);
#201=LINE('',#1379,#310);
#202=LINE('',#1385,#311);
#203=LINE('',#1391,#312);
#204=LINE('',#1397,#313);
#205=LINE('',#1403,#314);
#206=LINE('',#1409,#315);
#207=LINE('',#1415,#316);
#208=LINE('',#1420,#317);
#209=LINE('',#1422,#318);
#210=LINE('',#1424,#319);
#211=LINE('',#1425,#320);
#212=LINE('',#1428,#321);
#213=LINE('',#1430,#322);
#214=LINE('',#1431,#323);
#215=LINE('',#1434,#324);
#216=LINE('',#1436,#325);
#217=LINE('',#1437,#326);
#218=LINE('',#1440,#327);
#219=LINE('',#1442,#328);
#220=LINE('',#1443,#329);
#221=LINE('',#1446,#330);
#222=LINE('',#1448,#331);
#223=LINE('',#1449,#332);
#224=LINE('',#1452,#333);
#225=LINE('',#1454,#334);
#226=LINE('',#1455,#335);
#227=LINE('',#1458,#336);
#228=LINE('',#1460,#337);
#229=LINE('',#1461,#338);
#230=LINE('',#1464,#339);
#231=LINE('',#1466,#340);
#232=LINE('',#1467,#341);
#233=LINE('',#1470,#342);
#234=LINE('',#1472,#343);
#235=LINE('',#1473,#344);
#236=LINE('',#1476,#345);
#237=LINE('',#1478,#346);
#238=LINE('',#1479,#347);
#239=LINE('',#1482,#348);
#240=LINE('',#1484,#349);
#241=LINE('',#1485,#350);
#242=LINE('',#1488,#351);
#243=LINE('',#1490,#352);
#244=LINE('',#1491,#353);
#245=LINE('',#1494,#354);
#246=LINE('',#1496,#355);
#247=LINE('',#1497,#356);
#248=LINE('',#1500,#357);
#249=LINE('',#1502,#358);
#250=LINE('',#1503,#359);
#251=LINE('',#1506,#360);
#252=LINE('',#1508,#361);
#253=LINE('',#1509,#362);
#254=LINE('',#1512,#363);
#255=LINE('',#1514,#364);
#256=LINE('',#1515,#365);
#257=LINE('',#1518,#366);
#258=LINE('',#1520,#367);
#259=LINE('',#1521,#368);
#260=LINE('',#1524,#369);
#261=LINE('',#1526,#370);
#262=LINE('',#1527,#371);
#263=LINE('',#1530,#372);
#264=LINE('',#1532,#373);
#265=LINE('',#1533,#374);
#266=LINE('',#1536,#375);
#267=LINE('',#1538,#376);
#268=LINE('',#1539,#377);
#269=LINE('',#1542,#378);
#270=LINE('',#1544,#379);
#271=LINE('',#1545,#380);
#272=LINE('',#1548,#381);
#273=LINE('',#1550,#382);
#274=LINE('',#1551,#383);
#275=LINE('',#1554,#384);
#276=LINE('',#1556,#385);
#277=LINE('',#1557,#386);
#278=LINE('',#1560,#387);
#279=LINE('',#1562,#388);
#280=LINE('',#1563,#389);
#281=LINE('',#1566,#390);
#282=LINE('',#1568,#391);
#283=LINE('',#1569,#392);
#284=LINE('',#1572,#393);
#285=LINE('',#1574,#394);
#286=LINE('',#1575,#395);
#287=LINE('',#1578,#396);
#288=LINE('',#1580,#397);
#289=LINE('',#1581,#398);
#290=LINE('',#1584,#399);
#291=LINE('',#1586,#400);
#292=LINE('',#1587,#401);
#293=LINE('',#1590,#402);
#294=LINE('',#1592,#403);
#295=LINE('',#1593,#404);
#296=LINE('',#1596,#405);
#297=LINE('',#1598,#406);
#298=LINE('',#1599,#407);
#299=LINE('',#1602,#408);
#300=LINE('',#1604,#409);
#301=LINE('',#1605,#410);
#302=LINE('',#1607,#411);
#303=LINE('',#1608,#412);
#304=VECTOR('',#1087,2.1);
#305=VECTOR('',#1094,2.1);
#306=VECTOR('',#1101,2.1);
#307=VECTOR('',#1108,2.1);
#308=VECTOR('',#1115,2.1);
#309=VECTOR('',#1122,2.1);
#310=VECTOR('',#1129,2.1);
#311=VECTOR('',#1136,2.1);
#312=VECTOR('',#1143,2.1);
#313=VECTOR('',#1150,1.75);
#314=VECTOR('',#1157,3.00000000000001);
#315=VECTOR('',#1164,3.00000000000001);
#316=VECTOR('',#1171,1.75);
#317=VECTOR('',#1176,10.);
#318=VECTOR('',#1177,10.);
#319=VECTOR('',#1178,10.);
#320=VECTOR('',#1179,10.);
#321=VECTOR('',#1182,10.);
#322=VECTOR('',#1183,10.);
#323=VECTOR('',#1184,10.);
#324=VECTOR('',#1187,10.);
#325=VECTOR('',#1188,10.);
#326=VECTOR('',#1189,10.);
#327=VECTOR('',#1192,10.);
#328=VECTOR('',#1193,10.);
#329=VECTOR('',#1194,10.);
#330=VECTOR('',#1197,10.);
#331=VECTOR('',#1198,10.);
#332=VECTOR('',#1199,10.);
#333=VECTOR('',#1202,10.);
#334=VECTOR('',#1203,10.);
#335=VECTOR('',#1204,10.);
#336=VECTOR('',#1207,10.);
#337=VECTOR('',#1208,10.);
#338=VECTOR('',#1209,10.);
#339=VECTOR('',#1212,10.);
#340=VECTOR('',#1213,10.);
#341=VECTOR('',#1214,10.);
#342=VECTOR('',#1217,10.);
#343=VECTOR('',#1218,10.);
#344=VECTOR('',#1219,10.);
#345=VECTOR('',#1222,10.);
#346=VECTOR('',#1223,10.);
#347=VECTOR('',#1224,10.);
#348=VECTOR('',#1227,10.);
#349=VECTOR('',#1228,10.);
#350=VECTOR('',#1229,10.);
#351=VECTOR('',#1232,10.);
#352=VECTOR('',#1233,10.);
#353=VECTOR('',#1234,10.);
#354=VECTOR('',#1237,10.);
#355=VECTOR('',#1238,10.);
#356=VECTOR('',#1239,10.);
#357=VECTOR('',#1242,10.);
#358=VECTOR('',#1243,10.);
#359=VECTOR('',#1244,10.);
#360=VECTOR('',#1247,10.);
#361=VECTOR('',#1248,10.);
#362=VECTOR('',#1249,10.);
#363=VECTOR('',#1252,10.);
#364=VECTOR('',#1253,10.);
#365=VECTOR('',#1254,10.);
#366=VECTOR('',#1257,10.);
#367=VECTOR('',#1258,10.);
#368=VECTOR('',#1259,10.);
#369=VECTOR('',#1262,10.);
#370=VECTOR('',#1263,10.);
#371=VECTOR('',#1264,10.);
#372=VECTOR('',#1267,10.);
#373=VECTOR('',#1268,10.);
#374=VECTOR('',#1269,10.);
#375=VECTOR('',#1272,10.);
#376=VECTOR('',#1273,10.);
#377=VECTOR('',#1274,10.);
#378=VECTOR('',#1277,10.);
#379=VECTOR('',#1278,10.);
#380=VECTOR('',#1279,10.);
#381=VECTOR('',#1282,10.);
#382=VECTOR('',#1283,10.);
#383=VECTOR('',#1284,10.);
#384=VECTOR('',#1287,10.);
#385=VECTOR('',#1288,10.);
#386=VECTOR('',#1289,10.);
#387=VECTOR('',#1292,10.);
#388=VECTOR('',#1293,10.);
#389=VECTOR('',#1294,10.);
#390=VECTOR('',#1297,10.);
#391=VECTOR('',#1298,10.);
#392=VECTOR('',#1299,10.);
#393=VECTOR('',#1302,10.);
#394=VECTOR('',#1303,10.);
#395=VECTOR('',#1304,10.);
#396=VECTOR('',#1307,10.);
#397=VECTOR('',#1308,10.);
#398=VECTOR('',#1309,10.);
#399=VECTOR('',#1312,10.);
#400=VECTOR('',#1313,10.);
#401=VECTOR('',#1314,10.);
#402=VECTOR('',#1317,10.);
#403=VECTOR('',#1318,10.);
#404=VECTOR('',#1319,10.);
#405=VECTOR('',#1322,10.);
#406=VECTOR('',#1323,10.);
#407=VECTOR('',#1324,10.);
#408=VECTOR('',#1327,10.);
#409=VECTOR('',#1328,10.);
#410=VECTOR('',#1329,10.);
#411=VECTOR('',#1332,10.);
#412=VECTOR('',#1333,10.);
#413=CIRCLE('',#1009,2.1);
#414=CIRCLE('',#1010,2.1);
#415=CIRCLE('',#1012,2.1);
#416=CIRCLE('',#1013,2.1);
#417=CIRCLE('',#1015,2.1);
#418=CIRCLE('',#1016,2.1);
#419=CIRCLE('',#1018,2.1);
#420=CIRCLE('',#1019,2.1);
#421=CIRCLE('',#1021,2.1);
#422=CIRCLE('',#1022,2.1);
#423=CIRCLE('',#1024,2.1);
#424=CIRCLE('',#1025,2.1);
#425=CIRCLE('',#1027,2.1);
#426=CIRCLE('',#1028,2.1);
#427=CIRCLE('',#1030,2.1);
#428=CIRCLE('',#1031,2.1);
#429=CIRCLE('',#1033,2.1);
#430=CIRCLE('',#1034,2.1);
#431=CIRCLE('',#1036,1.75);
#432=CIRCLE('',#1037,1.75);
#433=CIRCLE('',#1039,3.00000000000001);
#434=CIRCLE('',#1040,3.00000000000001);
#435=CIRCLE('',#1042,3.00000000000001);
#436=CIRCLE('',#1043,3.00000000000001);
#437=CIRCLE('',#1045,1.75);
#438=CIRCLE('',#1046,1.75);
#439=VERTEX_POINT('',#1340);
#440=VERTEX_POINT('',#1342);
#441=VERTEX_POINT('',#1346);
#442=VERTEX_POINT('',#1348);
#443=VERTEX_POINT('',#1352);
#444=VERTEX_POINT('',#1354);
#445=VERTEX_POINT('',#1358);
#446=VERTEX_POINT('',#1360);
#447=VERTEX_POINT('',#1364);
#448=VERTEX_POINT('',#1366);
#449=VERTEX_POINT('',#1370);
#450=VERTEX_POINT('',#1372);
#451=VERTEX_POINT('',#1376);
#452=VERTEX_POINT('',#1378);
#453=VERTEX_POINT('',#1382);
#454=VERTEX_POINT('',#1384);
#455=VERTEX_POINT('',#1388);
#456=VERTEX_POINT('',#1390);
#457=VERTEX_POINT('',#1394);
#458=VERTEX_POINT('',#1396);
#459=VERTEX_POINT('',#1400);
#460=VERTEX_POINT('',#1402);
#461=VERTEX_POINT('',#1406);
#462=VERTEX_POINT('',#1408);
#463=VERTEX_POINT('',#1412);
#464=VERTEX_POINT('',#1414);
#465=VERTEX_POINT('',#1418);
#466=VERTEX_POINT('',#1419);
#467=VERTEX_POINT('',#1421);
#468=VERTEX_POINT('',#1423);
#469=VERTEX_POINT('',#1427);
#470=VERTEX_POINT('',#1429);
#471=VERTEX_POINT('',#1433);
#472=VERTEX_POINT('',#1435);
#473=VERTEX_POINT('',#1439);
#474=VERTEX_POINT('',#1441);
#475=VERTEX_POINT('',#1445);
#476=VERTEX_POINT('',#1447);
#477=VERTEX_POINT('',#1451);
#478=VERTEX_POINT('',#1453);
#479=VERTEX_POINT('',#1457);
#480=VERTEX_POINT('',#1459);
#481=VERTEX_POINT('',#1463);
#482=VERTEX_POINT('',#1465);
#483=VERTEX_POINT('',#1469);
#484=VERTEX_POINT('',#1471);
#485=VERTEX_POINT('',#1475);
#486=VERTEX_POINT('',#1477);
#487=VERTEX_POINT('',#1481);
#488=VERTEX_POINT('',#1483);
#489=VERTEX_POINT('',#1487);
#490=VERTEX_POINT('',#1489);
#491=VERTEX_POINT('',#1493);
#492=VERTEX_POINT('',#1495);
#493=VERTEX_POINT('',#1499);
#494=VERTEX_POINT('',#1501);
#495=VERTEX_POINT('',#1505);
#496=VERTEX_POINT('',#1507);
#497=VERTEX_POINT('',#1511);
#498=VERTEX_POINT('',#1513);
#499=VERTEX_POINT('',#1517);
#500=VERTEX_POINT('',#1519);
#501=VERTEX_POINT('',#1523);
#502=VERTEX_POINT('',#1525);
#503=VERTEX_POINT('',#1529);
#504=VERTEX_POINT('',#1531);
#505=VERTEX_POINT('',#1535);
#506=VERTEX_POINT('',#1537);
#507=VERTEX_POINT('',#1541);
#508=VERTEX_POINT('',#1543);
#509=VERTEX_POINT('',#1547);
#510=VERTEX_POINT('',#1549);
#511=VERTEX_POINT('',#1553);
#512=VERTEX_POINT('',#1555);
#513=VERTEX_POINT('',#1559);
#514=VERTEX_POINT('',#1561);
#515=VERTEX_POINT('',#1565);
#516=VERTEX_POINT('',#1567);
#517=VERTEX_POINT('',#1571);
#518=VERTEX_POINT('',#1573);
#519=VERTEX_POINT('',#1577);
#520=VERTEX_POINT('',#1579);
#521=VERTEX_POINT('',#1583);
#522=VERTEX_POINT('',#1585);
#523=VERTEX_POINT('',#1589);
#524=VERTEX_POINT('',#1591);
#525=VERTEX_POINT('',#1595);
#526=VERTEX_POINT('',#1597);
#527=VERTEX_POINT('',#1601);
#528=VERTEX_POINT('',#1603);
#529=EDGE_CURVE('',#439,#439,#413,.T.);
#530=EDGE_CURVE('',#439,#440,#195,.T.);
#531=EDGE_CURVE('',#440,#440,#414,.T.);
#532=EDGE_CURVE('',#441,#441,#415,.T.);
#533=EDGE_CURVE('',#441,#442,#196,.T.);
#534=EDGE_CURVE('',#442,#442,#416,.T.);
#535=EDGE_CURVE('',#443,#443,#417,.T.);
#536=EDGE_CURVE('',#443,#444,#197,.T.);
#537=EDGE_CURVE('',#444,#444,#418,.T.);
#538=EDGE_CURVE('',#445,#445,#419,.T.);
#539=EDGE_CURVE('',#445,#446,#198,.T.);
#540=EDGE_CURVE('',#446,#446,#420,.T.);
#541=EDGE_CURVE('',#447,#447,#421,.T.);
#542=EDGE_CURVE('',#447,#448,#199,.T.);
#543=EDGE_CURVE('',#448,#448,#422,.T.);
#544=EDGE_CURVE('',#449,#449,#423,.T.);
#545=EDGE_CURVE('',#449,#450,#200,.T.);
#546=EDGE_CURVE('',#450,#450,#424,.T.);
#547=EDGE_CURVE('',#451,#451,#425,.T.);
#548=EDGE_CURVE('',#451,#452,#201,.T.);
#549=EDGE_CURVE('',#452,#452,#426,.T.);
#550=EDGE_CURVE('',#453,#453,#427,.T.);
#551=EDGE_CURVE('',#453,#454,#202,.T.);
#552=EDGE_CURVE('',#454,#454,#428,.T.);
#553=EDGE_CURVE('',#455,#455,#429,.T.);
#554=EDGE_CURVE('',#455,#456,#203,.T.);
#555=EDGE_CURVE('',#456,#456,#430,.T.);
#556=EDGE_CURVE('',#457,#457,#431,.T.);
#557=EDGE_CURVE('',#457,#458,#204,.T.);
#558=EDGE_CURVE('',#458,#458,#432,.T.);
#559=EDGE_CURVE('',#459,#459,#433,.T.);
#560=EDGE_CURVE('',#459,#460,#205,.T.);
#561=EDGE_CURVE('',#460,#460,#434,.T.);
#562=EDGE_CURVE('',#461,#461,#435,.T.);
#563=EDGE_CURVE('',#461,#462,#206,.T.);
#564=EDGE_CURVE('',#462,#462,#436,.T.);
#565=EDGE_CURVE('',#463,#463,#437,.T.);
#566=EDGE_CURVE('',#463,#464,#207,.T.);
#567=EDGE_CURVE('',#464,#464,#438,.T.);
#568=EDGE_CURVE('',#465,#466,#208,.T.);
#569=EDGE_CURVE('',#465,#467,#209,.T.);
#570=EDGE_CURVE('',#468,#467,#210,.T.);
#571=EDGE_CURVE('',#466,#468,#211,.T.);
#572=EDGE_CURVE('',#466,#469,#212,.T.);
#573=EDGE_CURVE('',#470,#468,#213,.T.);
#574=EDGE_CURVE('',#469,#470,#214,.T.);
#575=EDGE_CURVE('',#469,#471,#215,.T.);
#576=EDGE_CURVE('',#472,#470,#216,.T.);
#577=EDGE_CURVE('',#471,#472,#217,.T.);
#578=EDGE_CURVE('',#471,#473,#218,.T.);
#579=EDGE_CURVE('',#474,#472,#219,.T.);
#580=EDGE_CURVE('',#473,#474,#220,.T.);
#581=EDGE_CURVE('',#473,#475,#221,.T.);
#582=EDGE_CURVE('',#476,#474,#222,.T.);
#583=EDGE_CURVE('',#475,#476,#223,.T.);
#584=EDGE_CURVE('',#475,#477,#224,.T.);
#585=EDGE_CURVE('',#478,#476,#225,.T.);
#586=EDGE_CURVE('',#477,#478,#226,.T.);
#587=EDGE_CURVE('',#477,#479,#227,.T.);
#588=EDGE_CURVE('',#480,#478,#228,.T.);
#589=EDGE_CURVE('',#479,#480,#229,.T.);
#590=EDGE_CURVE('',#479,#481,#230,.T.);
#591=EDGE_CURVE('',#482,#480,#231,.T.);
#592=EDGE_CURVE('',#481,#482,#232,.T.);
#593=EDGE_CURVE('',#481,#483,#233,.T.);
#594=EDGE_CURVE('',#484,#482,#234,.T.);
#595=EDGE_CURVE('',#483,#484,#235,.T.);
#596=EDGE_CURVE('',#483,#485,#236,.T.);
#597=EDGE_CURVE('',#486,#484,#237,.T.);
#598=EDGE_CURVE('',#485,#486,#238,.T.);
#599=EDGE_CURVE('',#485,#487,#239,.T.);
#600=EDGE_CURVE('',#488,#486,#240,.T.);
#601=EDGE_CURVE('',#487,#488,#241,.T.);
#602=EDGE_CURVE('',#487,#489,#242,.T.);
#603=EDGE_CURVE('',#490,#488,#243,.T.);
#604=EDGE_CURVE('',#489,#490,#244,.T.);
#605=EDGE_CURVE('',#489,#491,#245,.T.);
#606=EDGE_CURVE('',#492,#490,#246,.T.);
#607=EDGE_CURVE('',#491,#492,#247,.T.);
#608=EDGE_CURVE('',#491,#493,#248,.T.);
#609=EDGE_CURVE('',#494,#492,#249,.T.);
#610=EDGE_CURVE('',#493,#494,#250,.T.);
#611=EDGE_CURVE('',#493,#495,#251,.T.);
#612=EDGE_CURVE('',#496,#494,#252,.T.);
#613=EDGE_CURVE('',#495,#496,#253,.T.);
#614=EDGE_CURVE('',#495,#497,#254,.T.);
#615=EDGE_CURVE('',#498,#496,#255,.T.);
#616=EDGE_CURVE('',#497,#498,#256,.T.);
#617=EDGE_CURVE('',#497,#499,#257,.T.);
#618=EDGE_CURVE('',#500,#498,#258,.T.);
#619=EDGE_CURVE('',#499,#500,#259,.T.);
#620=EDGE_CURVE('',#499,#501,#260,.T.);
#621=EDGE_CURVE('',#502,#500,#261,.T.);
#622=EDGE_CURVE('',#501,#502,#262,.T.);
#623=EDGE_CURVE('',#501,#503,#263,.T.);
#624=EDGE_CURVE('',#504,#502,#264,.T.);
#625=EDGE_CURVE('',#503,#504,#265,.T.);
#626=EDGE_CURVE('',#503,#505,#266,.T.);
#627=EDGE_CURVE('',#506,#504,#267,.T.);
#628=EDGE_CURVE('',#505,#506,#268,.T.);
#629=EDGE_CURVE('',#507,#505,#269,.T.);
#630=EDGE_CURVE('',#508,#506,#270,.T.);
#631=EDGE_CURVE('',#507,#508,#271,.T.);
#632=EDGE_CURVE('',#509,#507,#272,.T.);
#633=EDGE_CURVE('',#510,#508,#273,.T.);
#634=EDGE_CURVE('',#509,#510,#274,.T.);
#635=EDGE_CURVE('',#511,#509,#275,.T.);
#636=EDGE_CURVE('',#512,#510,#276,.T.);
#637=EDGE_CURVE('',#511,#512,#277,.T.);
#638=EDGE_CURVE('',#513,#511,#278,.T.);
#639=EDGE_CURVE('',#514,#512,#279,.T.);
#640=EDGE_CURVE('',#513,#514,#280,.T.);
#641=EDGE_CURVE('',#515,#513,#281,.T.);
#642=EDGE_CURVE('',#516,#514,#282,.T.);
#643=EDGE_CURVE('',#515,#516,#283,.T.);
#644=EDGE_CURVE('',#517,#515,#284,.T.);
#645=EDGE_CURVE('',#518,#516,#285,.T.);
#646=EDGE_CURVE('',#517,#518,#286,.T.);
#647=EDGE_CURVE('',#519,#517,#287,.T.);
#648=EDGE_CURVE('',#520,#518,#288,.T.);
#649=EDGE_CURVE('',#519,#520,#289,.T.);
#650=EDGE_CURVE('',#519,#521,#290,.T.);
#651=EDGE_CURVE('',#522,#520,#291,.T.);
#652=EDGE_CURVE('',#521,#522,#292,.T.);
#653=EDGE_CURVE('',#521,#523,#293,.T.);
#654=EDGE_CURVE('',#524,#522,#294,.T.);
#655=EDGE_CURVE('',#523,#524,#295,.T.);
#656=EDGE_CURVE('',#523,#525,#296,.T.);
#657=EDGE_CURVE('',#526,#524,#297,.T.);
#658=EDGE_CURVE('',#525,#526,#298,.T.);
#659=EDGE_CURVE('',#527,#525,#299,.T.);
#660=EDGE_CURVE('',#528,#526,#300,.T.);
#661=EDGE_CURVE('',#527,#528,#301,.T.);
#662=EDGE_CURVE('',#465,#527,#302,.T.);
#663=EDGE_CURVE('',#467,#528,#303,.T.);
#664=ORIENTED_EDGE('',*,*,#529,.F.);
#665=ORIENTED_EDGE('',*,*,#530,.T.);
#666=ORIENTED_EDGE('',*,*,#531,.F.);
#667=ORIENTED_EDGE('',*,*,#530,.F.);
#668=ORIENTED_EDGE('',*,*,#532,.F.);
#669=ORIENTED_EDGE('',*,*,#533,.T.);
#670=ORIENTED_EDGE('',*,*,#534,.F.);
#671=ORIENTED_EDGE('',*,*,#533,.F.);
#672=ORIENTED_EDGE('',*,*,#535,.F.);
#673=ORIENTED_EDGE('',*,*,#536,.T.);
#674=ORIENTED_EDGE('',*,*,#537,.F.);
#675=ORIENTED_EDGE('',*,*,#536,.F.);
#676=ORIENTED_EDGE('',*,*,#538,.F.);
#677=ORIENTED_EDGE('',*,*,#539,.T.);
#678=ORIENTED_EDGE('',*,*,#540,.F.);
#679=ORIENTED_EDGE('',*,*,#539,.F.);
#680=ORIENTED_EDGE('',*,*,#541,.F.);
#681=ORIENTED_EDGE('',*,*,#542,.T.);
#682=ORIENTED_EDGE('',*,*,#543,.F.);
#683=ORIENTED_EDGE('',*,*,#542,.F.);
#684=ORIENTED_EDGE('',*,*,#544,.F.);
#685=ORIENTED_EDGE('',*,*,#545,.T.);
#686=ORIENTED_EDGE('',*,*,#546,.F.);
#687=ORIENTED_EDGE('',*,*,#545,.F.);
#688=ORIENTED_EDGE('',*,*,#547,.F.);
#689=ORIENTED_EDGE('',*,*,#548,.T.);
#690=ORIENTED_EDGE('',*,*,#549,.F.);
#691=ORIENTED_EDGE('',*,*,#548,.F.);
#692=ORIENTED_EDGE('',*,*,#550,.F.);
#693=ORIENTED_EDGE('',*,*,#551,.T.);
#694=ORIENTED_EDGE('',*,*,#552,.F.);
#695=ORIENTED_EDGE('',*,*,#551,.F.);
#696=ORIENTED_EDGE('',*,*,#553,.F.);
#697=ORIENTED_EDGE('',*,*,#554,.T.);
#698=ORIENTED_EDGE('',*,*,#555,.F.);
#699=ORIENTED_EDGE('',*,*,#554,.F.);
#700=ORIENTED_EDGE('',*,*,#556,.F.);
#701=ORIENTED_EDGE('',*,*,#557,.T.);
#702=ORIENTED_EDGE('',*,*,#558,.F.);
#703=ORIENTED_EDGE('',*,*,#557,.F.);
#704=ORIENTED_EDGE('',*,*,#559,.F.);
#705=ORIENTED_EDGE('',*,*,#560,.T.);
#706=ORIENTED_EDGE('',*,*,#561,.F.);
#707=ORIENTED_EDGE('',*,*,#560,.F.);
#708=ORIENTED_EDGE('',*,*,#562,.F.);
#709=ORIENTED_EDGE('',*,*,#563,.T.);
#710=ORIENTED_EDGE('',*,*,#564,.F.);
#711=ORIENTED_EDGE('',*,*,#563,.F.);
#712=ORIENTED_EDGE('',*,*,#565,.F.);
#713=ORIENTED_EDGE('',*,*,#566,.T.);
#714=ORIENTED_EDGE('',*,*,#567,.F.);
#715=ORIENTED_EDGE('',*,*,#566,.F.);
#716=ORIENTED_EDGE('',*,*,#568,.F.);
#717=ORIENTED_EDGE('',*,*,#569,.T.);
#718=ORIENTED_EDGE('',*,*,#570,.F.);
#719=ORIENTED_EDGE('',*,*,#571,.F.);
#720=ORIENTED_EDGE('',*,*,#572,.F.);
#721=ORIENTED_EDGE('',*,*,#571,.T.);
#722=ORIENTED_EDGE('',*,*,#573,.F.);
#723=ORIENTED_EDGE('',*,*,#574,.F.);
#724=ORIENTED_EDGE('',*,*,#575,.F.);
#725=ORIENTED_EDGE('',*,*,#574,.T.);
#726=ORIENTED_EDGE('',*,*,#576,.F.);
#727=ORIENTED_EDGE('',*,*,#577,.F.);
#728=ORIENTED_EDGE('',*,*,#578,.F.);
#729=ORIENTED_EDGE('',*,*,#577,.T.);
#730=ORIENTED_EDGE('',*,*,#579,.F.);
#731=ORIENTED_EDGE('',*,*,#580,.F.);
#732=ORIENTED_EDGE('',*,*,#581,.F.);
#733=ORIENTED_EDGE('',*,*,#580,.T.);
#734=ORIENTED_EDGE('',*,*,#582,.F.);
#735=ORIENTED_EDGE('',*,*,#583,.F.);
#736=ORIENTED_EDGE('',*,*,#584,.F.);
#737=ORIENTED_EDGE('',*,*,#583,.T.);
#738=ORIENTED_EDGE('',*,*,#585,.F.);
#739=ORIENTED_EDGE('',*,*,#586,.F.);
#740=ORIENTED_EDGE('',*,*,#587,.F.);
#741=ORIENTED_EDGE('',*,*,#586,.T.);
#742=ORIENTED_EDGE('',*,*,#588,.F.);
#743=ORIENTED_EDGE('',*,*,#589,.F.);
#744=ORIENTED_EDGE('',*,*,#590,.F.);
#745=ORIENTED_EDGE('',*,*,#589,.T.);
#746=ORIENTED_EDGE('',*,*,#591,.F.);
#747=ORIENTED_EDGE('',*,*,#592,.F.);
#748=ORIENTED_EDGE('',*,*,#593,.F.);
#749=ORIENTED_EDGE('',*,*,#592,.T.);
#750=ORIENTED_EDGE('',*,*,#594,.F.);
#751=ORIENTED_EDGE('',*,*,#595,.F.);
#752=ORIENTED_EDGE('',*,*,#596,.F.);
#753=ORIENTED_EDGE('',*,*,#595,.T.);
#754=ORIENTED_EDGE('',*,*,#597,.F.);
#755=ORIENTED_EDGE('',*,*,#598,.F.);
#756=ORIENTED_EDGE('',*,*,#599,.F.);
#757=ORIENTED_EDGE('',*,*,#598,.T.);
#758=ORIENTED_EDGE('',*,*,#600,.F.);
#759=ORIENTED_EDGE('',*,*,#601,.F.);
#760=ORIENTED_EDGE('',*,*,#602,.F.);
#761=ORIENTED_EDGE('',*,*,#601,.T.);
#762=ORIENTED_EDGE('',*,*,#603,.F.);
#763=ORIENTED_EDGE('',*,*,#604,.F.);
#764=ORIENTED_EDGE('',*,*,#605,.F.);
#765=ORIENTED_EDGE('',*,*,#604,.T.);
#766=ORIENTED_EDGE('',*,*,#606,.F.);
#767=ORIENTED_EDGE('',*,*,#607,.F.);
#768=ORIENTED_EDGE('',*,*,#608,.F.);
#769=ORIENTED_EDGE('',*,*,#607,.T.);
#770=ORIENTED_EDGE('',*,*,#609,.F.);
#771=ORIENTED_EDGE('',*,*,#610,.F.);
#772=ORIENTED_EDGE('',*,*,#611,.F.);
#773=ORIENTED_EDGE('',*,*,#610,.T.);
#774=ORIENTED_EDGE('',*,*,#612,.F.);
#775=ORIENTED_EDGE('',*,*,#613,.F.);
#776=ORIENTED_EDGE('',*,*,#614,.F.);
#777=ORIENTED_EDGE('',*,*,#613,.T.);
#778=ORIENTED_EDGE('',*,*,#615,.F.);
#779=ORIENTED_EDGE('',*,*,#616,.F.);
#780=ORIENTED_EDGE('',*,*,#617,.F.);
#781=ORIENTED_EDGE('',*,*,#616,.T.);
#782=ORIENTED_EDGE('',*,*,#618,.F.);
#783=ORIENTED_EDGE('',*,*,#619,.F.);
#784=ORIENTED_EDGE('',*,*,#620,.F.);
#785=ORIENTED_EDGE('',*,*,#619,.T.);
#786=ORIENTED_EDGE('',*,*,#621,.F.);
#787=ORIENTED_EDGE('',*,*,#622,.F.);
#788=ORIENTED_EDGE('',*,*,#623,.F.);
#789=ORIENTED_EDGE('',*,*,#622,.T.);
#790=ORIENTED_EDGE('',*,*,#624,.F.);
#791=ORIENTED_EDGE('',*,*,#625,.F.);
#792=ORIENTED_EDGE('',*,*,#626,.F.);
#793=ORIENTED_EDGE('',*,*,#625,.T.);
#794=ORIENTED_EDGE('',*,*,#627,.F.);
#795=ORIENTED_EDGE('',*,*,#628,.F.);
#796=ORIENTED_EDGE('',*,*,#629,.T.);
#797=ORIENTED_EDGE('',*,*,#628,.T.);
#798=ORIENTED_EDGE('',*,*,#630,.F.);
#799=ORIENTED_EDGE('',*,*,#631,.F.);
#800=ORIENTED_EDGE('',*,*,#632,.T.);
#801=ORIENTED_EDGE('',*,*,#631,.T.);
#802=ORIENTED_EDGE('',*,*,#633,.F.);
#803=ORIENTED_EDGE('',*,*,#634,.F.);
#804=ORIENTED_EDGE('',*,*,#635,.T.);
#805=ORIENTED_EDGE('',*,*,#634,.T.);
#806=ORIENTED_EDGE('',*,*,#636,.F.);
#807=ORIENTED_EDGE('',*,*,#637,.F.);
#808=ORIENTED_EDGE('',*,*,#638,.T.);
#809=ORIENTED_EDGE('',*,*,#637,.T.);
#810=ORIENTED_EDGE('',*,*,#639,.F.);
#811=ORIENTED_EDGE('',*,*,#640,.F.);
#812=ORIENTED_EDGE('',*,*,#641,.T.);
#813=ORIENTED_EDGE('',*,*,#640,.T.);
#814=ORIENTED_EDGE('',*,*,#642,.F.);
#815=ORIENTED_EDGE('',*,*,#643,.F.);
#816=ORIENTED_EDGE('',*,*,#644,.T.);
#817=ORIENTED_EDGE('',*,*,#643,.T.);
#818=ORIENTED_EDGE('',*,*,#645,.F.);
#819=ORIENTED_EDGE('',*,*,#646,.F.);
#820=ORIENTED_EDGE('',*,*,#647,.T.);
#821=ORIENTED_EDGE('',*,*,#646,.T.);
#822=ORIENTED_EDGE('',*,*,#648,.F.);
#823=ORIENTED_EDGE('',*,*,#649,.F.);
#824=ORIENTED_EDGE('',*,*,#650,.F.);
#825=ORIENTED_EDGE('',*,*,#649,.T.);
#826=ORIENTED_EDGE('',*,*,#651,.F.);
#827=ORIENTED_EDGE('',*,*,#652,.F.);
#828=ORIENTED_EDGE('',*,*,#653,.F.);
#829=ORIENTED_EDGE('',*,*,#652,.T.);
#830=ORIENTED_EDGE('',*,*,#654,.F.);
#831=ORIENTED_EDGE('',*,*,#655,.F.);
#832=ORIENTED_EDGE('',*,*,#656,.F.);
#833=ORIENTED_EDGE('',*,*,#655,.T.);
#834=ORIENTED_EDGE('',*,*,#657,.F.);
#835=ORIENTED_EDGE('',*,*,#658,.F.);
#836=ORIENTED_EDGE('',*,*,#659,.T.);
#837=ORIENTED_EDGE('',*,*,#658,.T.);
#838=ORIENTED_EDGE('',*,*,#660,.F.);
#839=ORIENTED_EDGE('',*,*,#661,.F.);
#840=ORIENTED_EDGE('',*,*,#662,.T.);
#841=ORIENTED_EDGE('',*,*,#661,.T.);
#842=ORIENTED_EDGE('',*,*,#663,.F.);
#843=ORIENTED_EDGE('',*,*,#569,.F.);
#844=ORIENTED_EDGE('',*,*,#663,.T.);
#845=ORIENTED_EDGE('',*,*,#660,.T.);
#846=ORIENTED_EDGE('',*,*,#657,.T.);
#847=ORIENTED_EDGE('',*,*,#654,.T.);
#848=ORIENTED_EDGE('',*,*,#651,.T.);
#849=ORIENTED_EDGE('',*,*,#648,.T.);
#850=ORIENTED_EDGE('',*,*,#645,.T.);
#851=ORIENTED_EDGE('',*,*,#642,.T.);
#852=ORIENTED_EDGE('',*,*,#639,.T.);
#853=ORIENTED_EDGE('',*,*,#636,.T.);
#854=ORIENTED_EDGE('',*,*,#633,.T.);
#855=ORIENTED_EDGE('',*,*,#630,.T.);
#856=ORIENTED_EDGE('',*,*,#627,.T.);
#857=ORIENTED_EDGE('',*,*,#624,.T.);
#858=ORIENTED_EDGE('',*,*,#621,.T.);
#859=ORIENTED_EDGE('',*,*,#618,.T.);
#860=ORIENTED_EDGE('',*,*,#615,.T.);
#861=ORIENTED_EDGE('',*,*,#612,.T.);
#862=ORIENTED_EDGE('',*,*,#609,.T.);
#863=ORIENTED_EDGE('',*,*,#606,.T.);
#864=ORIENTED_EDGE('',*,*,#603,.T.);
#865=ORIENTED_EDGE('',*,*,#600,.T.);
#866=ORIENTED_EDGE('',*,*,#597,.T.);
#867=ORIENTED_EDGE('',*,*,#594,.T.);
#868=ORIENTED_EDGE('',*,*,#591,.T.);
#869=ORIENTED_EDGE('',*,*,#588,.T.);
#870=ORIENTED_EDGE('',*,*,#585,.T.);
#871=ORIENTED_EDGE('',*,*,#582,.T.);
#872=ORIENTED_EDGE('',*,*,#579,.T.);
#873=ORIENTED_EDGE('',*,*,#576,.T.);
#874=ORIENTED_EDGE('',*,*,#573,.T.);
#875=ORIENTED_EDGE('',*,*,#570,.T.);
#876=ORIENTED_EDGE('',*,*,#531,.T.);
#877=ORIENTED_EDGE('',*,*,#534,.T.);
#878=ORIENTED_EDGE('',*,*,#537,.T.);
#879=ORIENTED_EDGE('',*,*,#540,.T.);
#880=ORIENTED_EDGE('',*,*,#543,.T.);
#881=ORIENTED_EDGE('',*,*,#546,.T.);
#882=ORIENTED_EDGE('',*,*,#549,.T.);
#883=ORIENTED_EDGE('',*,*,#552,.T.);
#884=ORIENTED_EDGE('',*,*,#555,.T.);
#885=ORIENTED_EDGE('',*,*,#558,.T.);
#886=ORIENTED_EDGE('',*,*,#561,.T.);
#887=ORIENTED_EDGE('',*,*,#564,.T.);
#888=ORIENTED_EDGE('',*,*,#567,.T.);
#889=ORIENTED_EDGE('',*,*,#662,.F.);
#890=ORIENTED_EDGE('',*,*,#568,.T.);
#891=ORIENTED_EDGE('',*,*,#572,.T.);
#892=ORIENTED_EDGE('',*,*,#575,.T.);
#893=ORIENTED_EDGE('',*,*,#578,.T.);
#894=ORIENTED_EDGE('',*,*,#581,.T.);
#895=ORIENTED_EDGE('',*,*,#584,.T.);
#896=ORIENTED_EDGE('',*,*,#587,.T.);
#897=ORIENTED_EDGE('',*,*,#590,.T.);
#898=ORIENTED_EDGE('',*,*,#593,.T.);
#899=ORIENTED_EDGE('',*,*,#596,.T.);
#900=ORIENTED_EDGE('',*,*,#599,.T.);
#901=ORIENTED_EDGE('',*,*,#602,.T.);
#902=ORIENTED_EDGE('',*,*,#605,.T.);
#903=ORIENTED_EDGE('',*,*,#608,.T.);
#904=ORIENTED_EDGE('',*,*,#611,.T.);
#905=ORIENTED_EDGE('',*,*,#614,.T.);
#906=ORIENTED_EDGE('',*,*,#617,.T.);
#907=ORIENTED_EDGE('',*,*,#620,.T.);
#908=ORIENTED_EDGE('',*,*,#623,.T.);
#909=ORIENTED_EDGE('',*,*,#626,.T.);
#910=ORIENTED_EDGE('',*,*,#629,.F.);
#911=ORIENTED_EDGE('',*,*,#632,.F.);
#912=ORIENTED_EDGE('',*,*,#635,.F.);
#913=ORIENTED_EDGE('',*,*,#638,.F.);
#914=ORIENTED_EDGE('',*,*,#641,.F.);
#915=ORIENTED_EDGE('',*,*,#644,.F.);
#916=ORIENTED_EDGE('',*,*,#647,.F.);
#917=ORIENTED_EDGE('',*,*,#650,.T.);
#918=ORIENTED_EDGE('',*,*,#653,.T.);
#919=ORIENTED_EDGE('',*,*,#656,.T.);
#920=ORIENTED_EDGE('',*,*,#659,.F.);
#921=ORIENTED_EDGE('',*,*,#529,.T.);
#922=ORIENTED_EDGE('',*,*,#532,.T.);
#923=ORIENTED_EDGE('',*,*,#535,.T.);
#924=ORIENTED_EDGE('',*,*,#538,.T.);
#925=ORIENTED_EDGE('',*,*,#541,.T.);
#926=ORIENTED_EDGE('',*,*,#544,.T.);
#927=ORIENTED_EDGE('',*,*,#547,.T.);
#928=ORIENTED_EDGE('',*,*,#550,.T.);
#929=ORIENTED_EDGE('',*,*,#553,.T.);
#930=ORIENTED_EDGE('',*,*,#556,.T.);
#931=ORIENTED_EDGE('',*,*,#559,.T.);
#932=ORIENTED_EDGE('',*,*,#562,.T.);
#933=ORIENTED_EDGE('',*,*,#565,.T.);
#934=CYLINDRICAL_SURFACE('',#1008,2.1);
#935=CYLINDRICAL_SURFACE('',#1011,2.1);
#936=CYLINDRICAL_SURFACE('',#1014,2.1);
#937=CYLINDRICAL_SURFACE('',#1017,2.1);
#938=CYLINDRICAL_SURFACE('',#1020,2.1);
#939=CYLINDRICAL_SURFACE('',#1023,2.1);
#940=CYLINDRICAL_SURFACE('',#1026,2.1);
#941=CYLINDRICAL_SURFACE('',#1029,2.1);
#942=CYLINDRICAL_SURFACE('',#1032,2.1);
#943=CYLINDRICAL_SURFACE('',#1035,1.75);
#944=CYLINDRICAL_SURFACE('',#1038,3.00000000000001);
#945=CYLINDRICAL_SURFACE('',#1041,3.00000000000001);
#946=CYLINDRICAL_SURFACE('',#1044,1.75);
#947=ADVANCED_FACE('',(#75),#934,.F.);
#948=ADVANCED_FACE('',(#76),#935,.F.);
#949=ADVANCED_FACE('',(#77),#936,.F.);
#950=ADVANCED_FACE('',(#78),#937,.F.);
#951=ADVANCED_FACE('',(#79),#938,.F.);
#952=ADVANCED_FACE('',(#80),#939,.F.);
#953=ADVANCED_FACE('',(#81),#940,.F.);
#954=ADVANCED_FACE('',(#82),#941,.F.);
#955=ADVANCED_FACE('',(#83),#942,.F.);
#956=ADVANCED_FACE('',(#84),#943,.F.);
#957=ADVANCED_FACE('',(#85),#944,.F.);
#958=ADVANCED_FACE('',(#86),#945,.F.);
#959=ADVANCED_FACE('',(#87),#946,.F.);
#960=ADVANCED_FACE('',(#88),#41,.T.);
#961=ADVANCED_FACE('',(#89),#42,.T.);
#962=ADVANCED_FACE('',(#90),#43,.T.);
#963=ADVANCED_FACE('',(#91),#44,.T.);
#964=ADVANCED_FACE('',(#92),#45,.T.);
#965=ADVANCED_FACE('',(#93),#46,.T.);
#966=ADVANCED_FACE('',(#94),#47,.T.);
#967=ADVANCED_FACE('',(#95),#48,.T.);
#968=ADVANCED_FACE('',(#96),#49,.T.);
#969=ADVANCED_FACE('',(#97),#50,.T.);
#970=ADVANCED_FACE('',(#98),#51,.T.);
#971=ADVANCED_FACE('',(#99),#52,.T.);
#972=ADVANCED_FACE('',(#100),#53,.T.);
#973=ADVANCED_FACE('',(#101),#54,.T.);
#974=ADVANCED_FACE('',(#102),#55,.T.);
#975=ADVANCED_FACE('',(#103),#56,.T.);
#976=ADVANCED_FACE('',(#104),#57,.T.);
#977=ADVANCED_FACE('',(#105),#58,.T.);
#978=ADVANCED_FACE('',(#106),#59,.T.);
#979=ADVANCED_FACE('',(#107),#60,.T.);
#980=ADVANCED_FACE('',(#108),#61,.T.);
#981=ADVANCED_FACE('',(#109),#62,.T.);
#982=ADVANCED_FACE('',(#110),#63,.T.);
#983=ADVANCED_FACE('',(#111),#64,.T.);
#984=ADVANCED_FACE('',(#112),#65,.T.);
#985=ADVANCED_FACE('',(#113),#66,.T.);
#986=ADVANCED_FACE('',(#114),#67,.T.);
#987=ADVANCED_FACE('',(#115),#68,.T.);
#988=ADVANCED_FACE('',(#116),#69,.T.);
#989=ADVANCED_FACE('',(#117),#70,.T.);
#990=ADVANCED_FACE('',(#118),#71,.T.);
#991=ADVANCED_FACE('',(#119),#72,.T.);
#992=ADVANCED_FACE('',(#120,#15,#16,#17,#18,#19,#20,#21,#22,#23,#24,#25,
#26,#27),#73,.T.);
#993=ADVANCED_FACE('',(#121,#28,#29,#30,#31,#32,#33,#34,#35,#36,#37,#38,
#39,#40),#74,.F.);
#994=CLOSED_SHELL('',(#947,#948,#949,#950,#951,#952,#953,#954,#955,#956,
#957,#958,#959,#960,#961,#962,#963,#964,#965,#966,#967,#968,#969,#970,#971,
#972,#973,#974,#975,#976,#977,#978,#979,#980,#981,#982,#983,#984,#985,#986,
#987,#988,#989,#990,#991,#992,#993));
#995=DERIVED_UNIT_ELEMENT(#997,1.);
#996=DERIVED_UNIT_ELEMENT(#1616,-3.);
#997=(
MASS_UNIT()
NAMED_UNIT(*)
SI_UNIT(.KILO.,.GRAM.)
);
#998=DERIVED_UNIT((#995,#996));
#999=MEASURE_REPRESENTATION_ITEM('density measure',
POSITIVE_RATIO_MEASURE(7850.),#998);
#1000=PROPERTY_DEFINITION_REPRESENTATION(#1005,#1002);
#1001=PROPERTY_DEFINITION_REPRESENTATION(#1006,#1003);
#1002=REPRESENTATION('material name',(#1004),#1613);
#1003=REPRESENTATION('density',(#999),#1613);
#1004=DESCRIPTIVE_REPRESENTATION_ITEM('A\X\E7o','A\X\E7o');
#1005=PROPERTY_DEFINITION('material property','material name',#1623);
#1006=PROPERTY_DEFINITION('material property','density of part',#1623);
#1007=AXIS2_PLACEMENT_3D('',#1338,#1081,#1082);
#1008=AXIS2_PLACEMENT_3D('',#1339,#1083,#1084);
#1009=AXIS2_PLACEMENT_3D('',#1341,#1085,#1086);
#1010=AXIS2_PLACEMENT_3D('',#1344,#1088,#1089);
#1011=AXIS2_PLACEMENT_3D('',#1345,#1090,#1091);
#1012=AXIS2_PLACEMENT_3D('',#1347,#1092,#1093);
#1013=AXIS2_PLACEMENT_3D('',#1350,#1095,#1096);
#1014=AXIS2_PLACEMENT_3D('',#1351,#1097,#1098);
#1015=AXIS2_PLACEMENT_3D('',#1353,#1099,#1100);
#1016=AXIS2_PLACEMENT_3D('',#1356,#1102,#1103);
#1017=AXIS2_PLACEMENT_3D('',#1357,#1104,#1105);
#1018=AXIS2_PLACEMENT_3D('',#1359,#1106,#1107);
#1019=AXIS2_PLACEMENT_3D('',#1362,#1109,#1110);
#1020=AXIS2_PLACEMENT_3D('',#1363,#1111,#1112);
#1021=AXIS2_PLACEMENT_3D('',#1365,#1113,#1114);
#1022=AXIS2_PLACEMENT_3D('',#1368,#1116,#1117);
#1023=AXIS2_PLACEMENT_3D('',#1369,#1118,#1119);
#1024=AXIS2_PLACEMENT_3D('',#1371,#1120,#1121);
#1025=AXIS2_PLACEMENT_3D('',#1374,#1123,#1124);
#1026=AXIS2_PLACEMENT_3D('',#1375,#1125,#1126);
#1027=AXIS2_PLACEMENT_3D('',#1377,#1127,#1128);
#1028=AXIS2_PLACEMENT_3D('',#1380,#1130,#1131);
#1029=AXIS2_PLACEMENT_3D('',#1381,#1132,#1133);
#1030=AXIS2_PLACEMENT_3D('',#1383,#1134,#1135);
#1031=AXIS2_PLACEMENT_3D('',#1386,#1137,#1138);
#1032=AXIS2_PLACEMENT_3D('',#1387,#1139,#1140);
#1033=AXIS2_PLACEMENT_3D('',#1389,#1141,#1142);
#1034=AXIS2_PLACEMENT_3D('',#1392,#1144,#1145);
#1035=AXIS2_PLACEMENT_3D('',#1393,#1146,#1147);
#1036=AXIS2_PLACEMENT_3D('',#1395,#1148,#1149);
#1037=AXIS2_PLACEMENT_3D('',#1398,#1151,#1152);
#1038=AXIS2_PLACEMENT_3D('',#1399,#1153,#1154);
#1039=AXIS2_PLACEMENT_3D('',#1401,#1155,#1156);
#1040=AXIS2_PLACEMENT_3D('',#1404,#1158,#1159);
#1041=AXIS2_PLACEMENT_3D('',#1405,#1160,#1161);
#1042=AXIS2_PLACEMENT_3D('',#1407,#1162,#1163);
#1043=AXIS2_PLACEMENT_3D('',#1410,#1165,#1166);
#1044=AXIS2_PLACEMENT_3D('',#1411,#1167,#1168);
#1045=AXIS2_PLACEMENT_3D('',#1413,#1169,#1170);
#1046=AXIS2_PLACEMENT_3D('',#1416,#1172,#1173);
#1047=AXIS2_PLACEMENT_3D('',#1417,#1174,#1175);
#1048=AXIS2_PLACEMENT_3D('',#1426,#1180,#1181);
#1049=AXIS2_PLACEMENT_3D('',#1432,#1185,#1186);
#1050=AXIS2_PLACEMENT_3D('',#1438,#1190,#1191);
#1051=AXIS2_PLACEMENT_3D('',#1444,#1195,#1196);
#1052=AXIS2_PLACEMENT_3D('',#1450,#1200,#1201);
#1053=AXIS2_PLACEMENT_3D('',#1456,#1205,#1206);
#1054=AXIS2_PLACEMENT_3D('',#1462,#1210,#1211);
#1055=AXIS2_PLACEMENT_3D('',#1468,#1215,#1216);
#1056=AXIS2_PLACEMENT_3D('',#1474,#1220,#1221);
#1057=AXIS2_PLACEMENT_3D('',#1480,#1225,#1226);
#1058=AXIS2_PLACEMENT_3D('',#1486,#1230,#1231);
#1059=AXIS2_PLACEMENT_3D('',#1492,#1235,#1236);
#1060=AXIS2_PLACEMENT_3D('',#1498,#1240,#1241);
#1061=AXIS2_PLACEMENT_3D('',#1504,#1245,#1246);
#1062=AXIS2_PLACEMENT_3D('',#1510,#1250,#1251);
#1063=AXIS2_PLACEMENT_3D('',#1516,#1255,#1256);
#1064=AXIS2_PLACEMENT_3D('',#1522,#1260,#1261);
#1065=AXIS2_PLACEMENT_3D('',#1528,#1265,#1266);
#1066=AXIS2_PLACEMENT_3D('',#1534,#1270,#1271);
#1067=AXIS2_PLACEMENT_3D('',#1540,#1275,#1276);
#1068=AXIS2_PLACEMENT_3D('',#1546,#1280,#1281);
#1069=AXIS2_PLACEMENT_3D('',#1552,#1285,#1286);
#1070=AXIS2_PLACEMENT_3D('',#1558,#1290,#1291);
#1071=AXIS2_PLACEMENT_3D('',#1564,#1295,#1296);
#1072=AXIS2_PLACEMENT_3D('',#1570,#1300,#1301);
#1073=AXIS2_PLACEMENT_3D('',#1576,#1305,#1306);
#1074=AXIS2_PLACEMENT_3D('',#1582,#1310,#1311);
#1075=AXIS2_PLACEMENT_3D('',#1588,#1315,#1316);
#1076=AXIS2_PLACEMENT_3D('',#1594,#1320,#1321);
#1077=AXIS2_PLACEMENT_3D('',#1600,#1325,#1326);
#1078=AXIS2_PLACEMENT_3D('',#1606,#1330,#1331);
#1079=AXIS2_PLACEMENT_3D('',#1609,#1334,#1335);
#1080=AXIS2_PLACEMENT_3D('',#1610,#1336,#1337);
#1081=DIRECTION('axis',(0.,0.,1.));
#1082=DIRECTION('refdir',(1.,0.,0.));
#1083=DIRECTION('center_axis',(0.,1.,0.));
#1084=DIRECTION('ref_axis',(1.,0.,0.));
#1085=DIRECTION('center_axis',(0.,1.,0.));
#1086=DIRECTION('ref_axis',(1.,0.,0.));
#1087=DIRECTION('',(0.,1.,0.));
#1088=DIRECTION('center_axis',(0.,-1.,0.));
#1089=DIRECTION('ref_axis',(1.,0.,0.));
#1090=DIRECTION('center_axis',(0.,1.,0.));
#1091=DIRECTION('ref_axis',(1.,0.,0.));
#1092=DIRECTION('center_axis',(0.,1.,0.));
#1093=DIRECTION('ref_axis',(1.,0.,0.));
#1094=DIRECTION('',(0.,1.,0.));
#1095=DIRECTION('center_axis',(0.,-1.,0.));
#1096=DIRECTION('ref_axis',(1.,0.,0.));
#1097=DIRECTION('center_axis',(0.,1.,0.));
#1098=DIRECTION('ref_axis',(1.,0.,0.));
#1099=DIRECTION('center_axis',(0.,1.,0.));
#1100=DIRECTION('ref_axis',(1.,0.,0.));
#1101=DIRECTION('',(0.,1.,0.));
#1102=DIRECTION('center_axis',(0.,-1.,0.));
#1103=DIRECTION('ref_axis',(1.,0.,0.));
#1104=DIRECTION('center_axis',(0.,1.,0.));
#1105=DIRECTION('ref_axis',(1.,0.,0.));
#1106=DIRECTION('center_axis',(0.,1.,0.));
#1107=DIRECTION('ref_axis',(1.,0.,0.));
#1108=DIRECTION('',(0.,1.,0.));
#1109=DIRECTION('center_axis',(0.,-1.,0.));
#1110=DIRECTION('ref_axis',(1.,0.,0.));
#1111=DIRECTION('center_axis',(0.,1.,0.));
#1112=DIRECTION('ref_axis',(1.,0.,0.));
#1113=DIRECTION('center_axis',(0.,1.,0.));
#1114=DIRECTION('ref_axis',(1.,0.,0.));
#1115=DIRECTION('',(0.,1.,0.));
#1116=DIRECTION('center_axis',(0.,-1.,0.));
#1117=DIRECTION('ref_axis',(1.,0.,0.));
#1118=DIRECTION('center_axis',(0.,1.,0.));
#1119=DIRECTION('ref_axis',(1.,0.,0.));
#1120=DIRECTION('center_axis',(0.,1.,0.));
#1121=DIRECTION('ref_axis',(1.,0.,0.));
#1122=DIRECTION('',(0.,1.,0.));
#1123=DIRECTION('center_axis',(0.,-1.,0.));
#1124=DIRECTION('ref_axis',(1.,0.,0.));
#1125=DIRECTION('center_axis',(0.,1.,0.));
#1126=DIRECTION('ref_axis',(1.,0.,0.));
#1127=DIRECTION('center_axis',(0.,1.,0.));
#1128=DIRECTION('ref_axis',(1.,0.,0.));
#1129=DIRECTION('',(0.,1.,0.));
#1130=DIRECTION('center_axis',(0.,-1.,0.));
#1131=DIRECTION('ref_axis',(1.,0.,0.));
#1132=DIRECTION('center_axis',(0.,1.,0.));
#1133=DIRECTION('ref_axis',(1.,0.,0.));
#1134=DIRECTION('center_axis',(0.,1.,0.));
#1135=DIRECTION('ref_axis',(1.,0.,0.));
#1136=DIRECTION('',(0.,1.,0.));
#1137=DIRECTION('center_axis',(0.,-1.,0.));
#1138=DIRECTION('ref_axis',(1.,0.,0.));
#1139=DIRECTION('center_axis',(0.,1.,0.));
#1140=DIRECTION('ref_axis',(1.,0.,0.));
#1141=DIRECTION('center_axis',(0.,1.,0.));
#1142=DIRECTION('ref_axis',(1.,0.,0.));
#1143=DIRECTION('',(0.,1.,0.));
#1144=DIRECTION('center_axis',(0.,-1.,0.));
#1145=DIRECTION('ref_axis',(1.,0.,0.));
#1146=DIRECTION('center_axis',(0.,1.,0.));
#1147=DIRECTION('ref_axis',(1.,0.,0.));
#1148=DIRECTION('center_axis',(0.,1.,0.));
#1149=DIRECTION('ref_axis',(1.,0.,0.));
#1150=DIRECTION('',(0.,1.,0.));
#1151=DIRECTION('center_axis',(0.,-1.,0.));
#1152=DIRECTION('ref_axis',(1.,0.,0.));
#1153=DIRECTION('center_axis',(0.,1.,0.));
#1154=DIRECTION('ref_axis',(1.,0.,0.));
#1155=DIRECTION('center_axis',(0.,1.,0.));
#1156=DIRECTION('ref_axis',(1.,0.,0.));
#1157=DIRECTION('',(0.,1.,0.));
#1158=DIRECTION('center_axis',(0.,-1.,0.));
#1159=DIRECTION('ref_axis',(1.,0.,0.));
#1160=DIRECTION('center_axis',(0.,1.,0.));
#1161=DIRECTION('ref_axis',(1.,0.,0.));
#1162=DIRECTION('center_axis',(0.,1.,0.));
#1163=DIRECTION('ref_axis',(1.,0.,0.));
#1164=DIRECTION('',(0.,1.,0.));
#1165=DIRECTION('center_axis',(0.,-1.,0.));
#1166=DIRECTION('ref_axis',(1.,0.,0.));
#1167=DIRECTION('center_axis',(0.,1.,0.));
#1168=DIRECTION('ref_axis',(1.,0.,0.));
#1169=DIRECTION('center_axis',(0.,1.,0.));
#1170=DIRECTION('ref_axis',(1.,0.,0.));
#1171=DIRECTION('',(0.,1.,0.));
#1172=DIRECTION('center_axis',(0.,-1.,0.));
#1173=DIRECTION('ref_axis',(1.,0.,0.));
#1174=DIRECTION('center_axis',(0.,0.,1.));
#1175=DIRECTION('ref_axis',(1.,0.,0.));
#1176=DIRECTION('',(-1.,0.,0.));
#1177=DIRECTION('',(0.,1.,0.));
#1178=DIRECTION('',(1.,0.,0.));
#1179=DIRECTION('',(0.,1.,0.));
#1180=DIRECTION('center_axis',(-1.,0.,0.));
#1181=DIRECTION('ref_axis',(0.,0.,1.));
#1182=DIRECTION('',(0.,0.,-1.));
#1183=DIRECTION('',(0.,0.,1.));
#1184=DIRECTION('',(0.,1.,0.));
#1185=DIRECTION('center_axis',(0.,0.,1.));
#1186=DIRECTION('ref_axis',(1.,0.,0.));
#1187=DIRECTION('',(-1.,0.,0.));
#1188=DIRECTION('',(1.,0.,0.));
#1189=DIRECTION('',(0.,1.,0.));
#1190=DIRECTION('center_axis',(1.,0.,0.));
#1191=DIRECTION('ref_axis',(0.,0.,-1.));
#1192=DIRECTION('',(0.,0.,1.));
#1193=DIRECTION('',(0.,0.,-1.));
#1194=DIRECTION('',(0.,1.,0.));
#1195=DIRECTION('center_axis',(0.,0.,1.));
#1196=DIRECTION('ref_axis',(1.,0.,0.));
#1197=DIRECTION('',(-1.,0.,0.));
#1198=DIRECTION('',(1.,0.,0.));
#1199=DIRECTION('',(0.,1.,0.));
#1200=DIRECTION('center_axis',(-1.,0.,0.));
#1201=DIRECTION('ref_axis',(0.,0.,1.));
#1202=DIRECTION('',(0.,0.,-1.));
#1203=DIRECTION('',(0.,0.,1.));
#1204=DIRECTION('',(0.,1.,0.));
#1205=DIRECTION('center_axis',(0.,0.,1.));
#1206=DIRECTION('ref_axis',(1.,0.,0.));
#1207=DIRECTION('',(-1.,0.,0.));
#1208=DIRECTION('',(1.,0.,0.));
#1209=DIRECTION('',(0.,1.,0.));
#1210=DIRECTION('center_axis',(1.,0.,0.));
#1211=DIRECTION('ref_axis',(0.,0.,-1.));
#1212=DIRECTION('',(0.,0.,1.));
#1213=DIRECTION('',(0.,0.,-1.));
#1214=DIRECTION('',(0.,1.,0.));
#1215=DIRECTION('center_axis',(0.,0.,1.));
#1216=DIRECTION('ref_axis',(1.,0.,0.));
#1217=DIRECTION('',(-1.,0.,0.));
#1218=DIRECTION('',(1.,0.,0.));
#1219=DIRECTION('',(0.,1.,0.));
#1220=DIRECTION('center_axis',(-1.,0.,0.));
#1221=DIRECTION('ref_axis',(0.,0.,1.));
#1222=DIRECTION('',(0.,0.,-1.));
#1223=DIRECTION('',(0.,0.,1.));
#1224=DIRECTION('',(0.,1.,0.));
#1225=DIRECTION('center_axis',(0.,0.,1.));
#1226=DIRECTION('ref_axis',(1.,0.,0.));
#1227=DIRECTION('',(-1.,0.,0.));
#1228=DIRECTION('',(1.,0.,0.));
#1229=DIRECTION('',(0.,1.,0.));
#1230=DIRECTION('center_axis',(-1.,0.,0.));
#1231=DIRECTION('ref_axis',(0.,0.,1.));
#1232=DIRECTION('',(0.,0.,-1.));
#1233=DIRECTION('',(0.,0.,1.));
#1234=DIRECTION('',(0.,1.,0.));
#1235=DIRECTION('center_axis',(0.,0.,1.));
#1236=DIRECTION('ref_axis',(1.,0.,0.));
#1237=DIRECTION('',(-1.,0.,0.));
#1238=DIRECTION('',(1.,0.,0.));
#1239=DIRECTION('',(0.,1.,0.));
#1240=DIRECTION('center_axis',(-1.,0.,0.));
#1241=DIRECTION('ref_axis',(0.,0.,1.));
#1242=DIRECTION('',(0.,0.,-1.));
#1243=DIRECTION('',(0.,0.,1.));
#1244=DIRECTION('',(0.,1.,0.));
#1245=DIRECTION('center_axis',(0.,0.,-1.));
#1246=DIRECTION('ref_axis',(-1.,0.,0.));
#1247=DIRECTION('',(1.,0.,0.));
#1248=DIRECTION('',(-1.,0.,0.));
#1249=DIRECTION('',(0.,1.,0.));
#1250=DIRECTION('center_axis',(-1.,0.,0.));
#1251=DIRECTION('ref_axis',(0.,0.,1.));
#1252=DIRECTION('',(0.,0.,-1.));
#1253=DIRECTION('',(0.,0.,1.));
#1254=DIRECTION('',(0.,1.,0.));
#1255=DIRECTION('center_axis',(0.,0.,1.));
#1256=DIRECTION('ref_axis',(1.,0.,0.));
#1257=DIRECTION('',(-1.,0.,0.));
#1258=DIRECTION('',(1.,0.,0.));
#1259=DIRECTION('',(0.,1.,0.));
#1260=DIRECTION('center_axis',(-1.,0.,0.));
#1261=DIRECTION('ref_axis',(0.,0.,1.));
#1262=DIRECTION('',(0.,0.,-1.));
#1263=DIRECTION('',(0.,0.,1.));
#1264=DIRECTION('',(0.,1.,0.));
#1265=DIRECTION('center_axis',(0.,0.,-1.));
#1266=DIRECTION('ref_axis',(-1.,0.,0.));
#1267=DIRECTION('',(1.,0.,0.));
#1268=DIRECTION('',(-1.,0.,0.));
#1269=DIRECTION('',(0.,1.,0.));
#1270=DIRECTION('center_axis',(-1.,0.,0.));
#1271=DIRECTION('ref_axis',(0.,0.,1.));
#1272=DIRECTION('',(0.,0.,-1.));
#1273=DIRECTION('',(0.,0.,1.));
#1274=DIRECTION('',(0.,1.,0.));
#1275=DIRECTION('center_axis',(0.,0.,-1.));
#1276=DIRECTION('ref_axis',(-1.,0.,0.));
#1277=DIRECTION('',(-1.,0.,0.));
#1278=DIRECTION('',(-1.,0.,0.));
#1279=DIRECTION('',(0.,1.,0.));
#1280=DIRECTION('center_axis',(-1.,0.,0.));
#1281=DIRECTION('ref_axis',(0.,0.,1.));
#1282=DIRECTION('',(0.,0.,1.));
#1283=DIRECTION('',(0.,0.,1.));
#1284=DIRECTION('',(0.,1.,0.));
#1285=DIRECTION('center_axis',(0.,0.,-1.));
#1286=DIRECTION('ref_axis',(-1.,0.,0.));
#1287=DIRECTION('',(-1.,0.,0.));
#1288=DIRECTION('',(-1.,0.,0.));
#1289=DIRECTION('',(0.,1.,0.));
#1290=DIRECTION('center_axis',(1.,0.,0.));
#1291=DIRECTION('ref_axis',(0.,0.,-1.));
#1292=DIRECTION('',(0.,0.,-1.));
#1293=DIRECTION('',(0.,0.,-1.));
#1294=DIRECTION('',(0.,1.,0.));
#1295=DIRECTION('center_axis',(0.,0.,-1.));
#1296=DIRECTION('ref_axis',(-1.,0.,0.));
#1297=DIRECTION('',(-1.,0.,0.));
#1298=DIRECTION('',(-1.,0.,0.));
#1299=DIRECTION('',(0.,1.,0.));
#1300=DIRECTION('center_axis',(-1.,0.,0.));
#1301=DIRECTION('ref_axis',(0.,0.,1.));
#1302=DIRECTION('',(0.,0.,1.));
#1303=DIRECTION('',(0.,0.,1.));
#1304=DIRECTION('',(0.,1.,0.));
#1305=DIRECTION('center_axis',(0.,0.,-1.));
#1306=DIRECTION('ref_axis',(-1.,0.,0.));
#1307=DIRECTION('',(-1.,0.,0.));
#1308=DIRECTION('',(-1.,0.,0.));
#1309=DIRECTION('',(0.,1.,0.));
#1310=DIRECTION('center_axis',(1.,0.,0.));
#1311=DIRECTION('ref_axis',(0.,0.,-1.));
#1312=DIRECTION('',(0.,0.,1.));
#1313=DIRECTION('',(0.,0.,-1.));
#1314=DIRECTION('',(0.,1.,0.));
#1315=DIRECTION('center_axis',(0.,0.,-1.));
#1316=DIRECTION('ref_axis',(-1.,0.,0.));
#1317=DIRECTION('',(1.,0.,0.));
#1318=DIRECTION('',(-1.,0.,0.));
#1319=DIRECTION('',(0.,1.,0.));
#1320=DIRECTION('center_axis',(-1.,0.,0.));
#1321=DIRECTION('ref_axis',(0.,0.,1.));
#1322=DIRECTION('',(0.,0.,-1.));
#1323=DIRECTION('',(0.,0.,1.));
#1324=DIRECTION('',(0.,1.,0.));
#1325=DIRECTION('center_axis',(0.,0.,-1.));
#1326=DIRECTION('ref_axis',(-1.,0.,0.));
#1327=DIRECTION('',(-1.,0.,0.));
#1328=DIRECTION('',(-1.,0.,0.));
#1329=DIRECTION('',(0.,1.,0.));
#1330=DIRECTION('center_axis',(1.,0.,0.));
#1331=DIRECTION('ref_axis',(0.,0.,-1.));
#1332=DIRECTION('',(0.,0.,-1.));
#1333=DIRECTION('',(0.,0.,-1.));
#1334=DIRECTION('center_axis',(0.,1.,0.));
#1335=DIRECTION('ref_axis',(0.,0.,1.));
#1336=DIRECTION('center_axis',(0.,1.,0.));
#1337=DIRECTION('ref_axis',(1.,0.,0.));
#1338=CARTESIAN_POINT('',(0.,0.,0.));
#1339=CARTESIAN_POINT('Origin',(56.0000010430813,0.,18.0000011920929));
#1340=CARTESIAN_POINT('',(53.9000010430813,0.,18.0000011920929));
#1341=CARTESIAN_POINT('Origin',(56.0000010430813,0.,18.0000011920929));
#1342=CARTESIAN_POINT('',(53.9000010430813,6.,18.0000011920929));
#1343=CARTESIAN_POINT('',(53.9000010430813,0.,18.0000011920929));
#1344=CARTESIAN_POINT('Origin',(56.0000010430813,6.,18.0000011920929));
#1345=CARTESIAN_POINT('Origin',(70.0000010430813,0.,11.0000011920929));
#1346=CARTESIAN_POINT('',(67.9000010430813,0.,11.0000011920929));
#1347=CARTESIAN_POINT('Origin',(70.0000010430813,0.,11.0000011920929));
#1348=CARTESIAN_POINT('',(67.9000010430813,6.,11.0000011920929));
#1349=CARTESIAN_POINT('',(67.9000010430813,0.,11.0000011920929));
#1350=CARTESIAN_POINT('Origin',(70.0000010430813,6.,11.0000011920929));
#1351=CARTESIAN_POINT('Origin',(70.0000010430813,0.,18.0000011920929));
#1352=CARTESIAN_POINT('',(67.9000010430813,0.,18.0000011920929));
#1353=CARTESIAN_POINT('Origin',(70.0000010430813,0.,18.0000011920929));
#1354=CARTESIAN_POINT('',(67.9000010430813,6.,18.0000011920929));
#1355=CARTESIAN_POINT('',(67.9000010430813,0.,18.0000011920929));
#1356=CARTESIAN_POINT('Origin',(70.0000010430813,6.,18.0000011920929));
#1357=CARTESIAN_POINT('Origin',(63.0000010430813,0.,18.0000011920929));
#1358=CARTESIAN_POINT('',(60.9000010430813,0.,18.0000011920929));
#1359=CARTESIAN_POINT('Origin',(63.0000010430813,0.,18.0000011920929));
#1360=CARTESIAN_POINT('',(60.9000010430813,6.,18.0000011920929));
#1361=CARTESIAN_POINT('',(60.9000010430813,0.,18.0000011920929));
#1362=CARTESIAN_POINT('Origin',(63.0000010430813,6.,18.0000011920929));
#1363=CARTESIAN_POINT('Origin',(56.0000010430813,0.,25.0000011920929));
#1364=CARTESIAN_POINT('',(53.9000010430813,0.,25.0000011920929));
#1365=CARTESIAN_POINT('Origin',(56.0000010430813,0.,25.0000011920929));
#1366=CARTESIAN_POINT('',(53.9000010430813,6.,25.0000011920929));
#1367=CARTESIAN_POINT('',(53.9000010430813,0.,25.0000011920929));
#1368=CARTESIAN_POINT('Origin',(56.0000010430813,6.,25.0000011920929));
#1369=CARTESIAN_POINT('Origin',(63.0000010430813,0.,11.0000011920929));
#1370=CARTESIAN_POINT('',(60.9000010430813,0.,11.0000011920929));
#1371=CARTESIAN_POINT('Origin',(63.0000010430813,0.,11.0000011920929));
#1372=CARTESIAN_POINT('',(60.9000010430813,6.,11.0000011920929));
#1373=CARTESIAN_POINT('',(60.9000010430813,0.,11.0000011920929));
#1374=CARTESIAN_POINT('Origin',(63.0000010430813,6.,11.0000011920929));
#1375=CARTESIAN_POINT('Origin',(70.0000010430813,0.,25.0000011920929));
#1376=CARTESIAN_POINT('',(67.9000010430813,0.,25.0000011920929));
#1377=CARTESIAN_POINT('Origin',(70.0000010430813,0.,25.0000011920929));
#1378=CARTESIAN_POINT('',(67.9000010430813,6.,25.0000011920929));
#1379=CARTESIAN_POINT('',(67.9000010430813,0.,25.0000011920929));
#1380=CARTESIAN_POINT('Origin',(70.0000010430813,6.,25.0000011920929));
#1381=CARTESIAN_POINT('Origin',(56.0000010430813,0.,11.0000011920929));
#1382=CARTESIAN_POINT('',(53.9000010430813,0.,11.0000011920929));
#1383=CARTESIAN_POINT('Origin',(56.0000010430813,0.,11.0000011920929));
#1384=CARTESIAN_POINT('',(53.9000010430813,6.,11.0000011920929));
#1385=CARTESIAN_POINT('',(53.9000010430813,0.,11.0000011920929));
#1386=CARTESIAN_POINT('Origin',(56.0000010430813,6.,11.0000011920929));
#1387=CARTESIAN_POINT('Origin',(63.0000010430813,0.,25.0000011920929));
#1388=CARTESIAN_POINT('',(60.9000010430813,0.,25.0000011920929));
#1389=CARTESIAN_POINT('Origin',(63.0000010430813,0.,25.0000011920929));
#1390=CARTESIAN_POINT('',(60.9000010430813,6.,25.0000011920929));
#1391=CARTESIAN_POINT('',(60.9000010430813,0.,25.0000011920929));
#1392=CARTESIAN_POINT('Origin',(63.0000010430813,6.,25.0000011920929));
#1393=CARTESIAN_POINT('Origin',(55.0000010430813,0.,70.0000010430813));
#1394=CARTESIAN_POINT('',(53.2500010430813,0.,70.0000010430813));
#1395=CARTESIAN_POINT('Origin',(55.0000010430813,0.,70.0000010430813));
#1396=CARTESIAN_POINT('',(53.2500010430813,6.,70.0000010430813));
#1397=CARTESIAN_POINT('',(53.2500010430813,0.,70.0000010430813));
#1398=CARTESIAN_POINT('Origin',(55.0000010430813,6.,70.0000010430813));
#1399=CARTESIAN_POINT('Origin',(55.0000010430813,0.,80.0000011920929));
#1400=CARTESIAN_POINT('',(52.0000010430813,0.,80.0000011920929));
#1401=CARTESIAN_POINT('Origin',(55.0000010430813,0.,80.0000011920929));
#1402=CARTESIAN_POINT('',(52.0000010430813,6.,80.0000011920929));
#1403=CARTESIAN_POINT('',(52.0000010430813,0.,80.0000011920929));
#1404=CARTESIAN_POINT('Origin',(55.0000010430813,6.,80.0000011920929));
#1405=CARTESIAN_POINT('Origin',(70.0000010430813,0.,80.0000011920929));
#1406=CARTESIAN_POINT('',(67.0000010430813,0.,80.0000011920929));
#1407=CARTESIAN_POINT('Origin',(70.0000010430813,0.,80.0000011920929));
#1408=CARTESIAN_POINT('',(67.0000010430813,6.,80.0000011920929));
#1409=CARTESIAN_POINT('',(67.0000010430813,0.,80.0000011920929));
#1410=CARTESIAN_POINT('Origin',(70.0000010430813,6.,80.0000011920929));
#1411=CARTESIAN_POINT('Origin',(70.0000010430813,0.,70.0000010430813));
#1412=CARTESIAN_POINT('',(68.2500010430813,0.,70.0000010430813));
#1413=CARTESIAN_POINT('Origin',(70.0000010430813,0.,70.0000010430813));
#1414=CARTESIAN_POINT('',(68.2500010430813,6.,70.0000010430813));
#1415=CARTESIAN_POINT('',(68.2500010430813,0.,70.0000010430813));
#1416=CARTESIAN_POINT('Origin',(70.0000010430813,6.,70.0000010430813));
#1417=CARTESIAN_POINT('Origin',(76.,0.,98.));
#1418=CARTESIAN_POINT('',(86.,0.,98.));
#1419=CARTESIAN_POINT('',(76.,0.,98.));
#1420=CARTESIAN_POINT('',(86.,0.,98.));
#1421=CARTESIAN_POINT('',(86.,6.,98.));
#1422=CARTESIAN_POINT('',(86.,0.,98.));
#1423=CARTESIAN_POINT('',(76.,6.,98.));
#1424=CARTESIAN_POINT('',(86.,6.,98.));
#1425=CARTESIAN_POINT('',(76.,0.,98.));
#1426=CARTESIAN_POINT('Origin',(76.,0.,92.));
#1427=CARTESIAN_POINT('',(76.,0.,92.));
#1428=CARTESIAN_POINT('',(76.,0.,98.));
#1429=CARTESIAN_POINT('',(76.,6.,92.));
#1430=CARTESIAN_POINT('',(76.,6.,98.));
#1431=CARTESIAN_POINT('',(76.,0.,92.));
#1432=CARTESIAN_POINT('Origin',(66.,0.,92.));
#1433=CARTESIAN_POINT('',(66.,0.,92.));
#1434=CARTESIAN_POINT('',(76.,0.,92.));
#1435=CARTESIAN_POINT('',(66.,6.,92.));
#1436=CARTESIAN_POINT('',(76.,6.,92.));
#1437=CARTESIAN_POINT('',(66.,0.,92.));
#1438=CARTESIAN_POINT('Origin',(66.,0.,98.));
#1439=CARTESIAN_POINT('',(66.,0.,98.));
#1440=CARTESIAN_POINT('',(66.,0.,92.));
#1441=CARTESIAN_POINT('',(66.,6.,98.));
#1442=CARTESIAN_POINT('',(66.,6.,92.));
#1443=CARTESIAN_POINT('',(66.,0.,98.));
#1444=CARTESIAN_POINT('Origin',(56.,0.,98.));
#1445=CARTESIAN_POINT('',(56.,0.,98.));
#1446=CARTESIAN_POINT('',(66.,0.,98.));
#1447=CARTESIAN_POINT('',(56.,6.,98.));
#1448=CARTESIAN_POINT('',(66.,6.,98.));
#1449=CARTESIAN_POINT('',(56.,0.,98.));
#1450=CARTESIAN_POINT('Origin',(56.,0.,92.));
#1451=CARTESIAN_POINT('',(56.,0.,92.));
#1452=CARTESIAN_POINT('',(56.,0.,98.));
#1453=CARTESIAN_POINT('',(56.,6.,92.));
#1454=CARTESIAN_POINT('',(56.,6.,98.));
#1455=CARTESIAN_POINT('',(56.,0.,92.));
#1456=CARTESIAN_POINT('Origin',(46.,0.,92.));
#1457=CARTESIAN_POINT('',(46.,0.,92.));
#1458=CARTESIAN_POINT('',(56.,0.,92.));
#1459=CARTESIAN_POINT('',(46.,6.,92.));
#1460=CARTESIAN_POINT('',(56.,6.,92.));
#1461=CARTESIAN_POINT('',(46.,0.,92.));
#1462=CARTESIAN_POINT('Origin',(46.,0.,98.));
#1463=CARTESIAN_POINT('',(46.,0.,98.));
#1464=CARTESIAN_POINT('',(46.,0.,92.));
#1465=CARTESIAN_POINT('',(46.,6.,98.));
#1466=CARTESIAN_POINT('',(46.,6.,92.));
#1467=CARTESIAN_POINT('',(46.,0.,98.));
#1468=CARTESIAN_POINT('Origin',(36.,0.,98.));
#1469=CARTESIAN_POINT('',(36.,0.,98.));
#1470=CARTESIAN_POINT('',(46.,0.,98.));
#1471=CARTESIAN_POINT('',(36.,6.,98.));
#1472=CARTESIAN_POINT('',(46.,6.,98.));
#1473=CARTESIAN_POINT('',(36.,0.,98.));
#1474=CARTESIAN_POINT('Origin',(36.,0.,92.));
#1475=CARTESIAN_POINT('',(36.,0.,92.));
#1476=CARTESIAN_POINT('',(36.,0.,98.));
#1477=CARTESIAN_POINT('',(36.,6.,92.));
#1478=CARTESIAN_POINT('',(36.,6.,98.));
#1479=CARTESIAN_POINT('',(36.,0.,92.));
#1480=CARTESIAN_POINT('Origin',(26.,0.,92.));
#1481=CARTESIAN_POINT('',(26.,0.,92.));
#1482=CARTESIAN_POINT('',(36.,0.,92.));
#1483=CARTESIAN_POINT('',(26.,6.,92.));
#1484=CARTESIAN_POINT('',(36.,6.,92.));
#1485=CARTESIAN_POINT('',(26.,0.,92.));
#1486=CARTESIAN_POINT('Origin',(26.,0.,70.));
#1487=CARTESIAN_POINT('',(26.,0.,70.));
#1488=CARTESIAN_POINT('',(26.,0.,92.));
#1489=CARTESIAN_POINT('',(26.,6.,70.));
#1490=CARTESIAN_POINT('',(26.,6.,92.));
#1491=CARTESIAN_POINT('',(26.,0.,70.));
#1492=CARTESIAN_POINT('Origin',(20.,0.,70.));
#1493=CARTESIAN_POINT('',(20.,0.,70.));
#1494=CARTESIAN_POINT('',(26.,0.,70.));
#1495=CARTESIAN_POINT('',(20.,6.,70.));
#1496=CARTESIAN_POINT('',(26.,6.,70.));
#1497=CARTESIAN_POINT('',(20.,0.,70.));
#1498=CARTESIAN_POINT('Origin',(20.,0.,54.));
#1499=CARTESIAN_POINT('',(20.,0.,54.));
#1500=CARTESIAN_POINT('',(20.,0.,70.));
#1501=CARTESIAN_POINT('',(20.,6.,54.));
#1502=CARTESIAN_POINT('',(20.,6.,70.));
#1503=CARTESIAN_POINT('',(20.,0.,54.));
#1504=CARTESIAN_POINT('Origin',(26.,0.,54.));
#1505=CARTESIAN_POINT('',(26.,0.,54.));
#1506=CARTESIAN_POINT('',(20.,0.,54.));
#1507=CARTESIAN_POINT('',(26.,6.,54.));
#1508=CARTESIAN_POINT('',(20.,6.,54.));
#1509=CARTESIAN_POINT('',(26.,0.,54.));
#1510=CARTESIAN_POINT('Origin',(26.,0.,38.));
#1511=CARTESIAN_POINT('',(26.,0.,38.));
#1512=CARTESIAN_POINT('',(26.,0.,54.));
#1513=CARTESIAN_POINT('',(26.,6.,38.));
#1514=CARTESIAN_POINT('',(26.,6.,54.));
#1515=CARTESIAN_POINT('',(26.,0.,38.));
#1516=CARTESIAN_POINT('Origin',(20.,0.,38.));
#1517=CARTESIAN_POINT('',(20.,0.,38.));
#1518=CARTESIAN_POINT('',(26.,0.,38.));
#1519=CARTESIAN_POINT('',(20.,6.,38.));
#1520=CARTESIAN_POINT('',(26.,6.,38.));
#1521=CARTESIAN_POINT('',(20.,0.,38.));
#1522=CARTESIAN_POINT('Origin',(20.,0.,22.));
#1523=CARTESIAN_POINT('',(20.,0.,22.));
#1524=CARTESIAN_POINT('',(20.,0.,38.));
#1525=CARTESIAN_POINT('',(20.,6.,22.));
#1526=CARTESIAN_POINT('',(20.,6.,38.));
#1527=CARTESIAN_POINT('',(20.,0.,22.));
#1528=CARTESIAN_POINT('Origin',(26.,0.,22.));
#1529=CARTESIAN_POINT('',(26.,0.,22.));
#1530=CARTESIAN_POINT('',(20.,0.,22.));
#1531=CARTESIAN_POINT('',(26.,6.,22.));
#1532=CARTESIAN_POINT('',(20.,6.,22.));
#1533=CARTESIAN_POINT('',(26.,0.,22.));
#1534=CARTESIAN_POINT('Origin',(26.,0.,4.44089209850063E-15));
#1535=CARTESIAN_POINT('',(26.,0.,4.44089209850063E-15));
#1536=CARTESIAN_POINT('',(26.,0.,22.));
#1537=CARTESIAN_POINT('',(26.,6.,0.));
#1538=CARTESIAN_POINT('',(26.,6.,22.));
#1539=CARTESIAN_POINT('',(26.,0.,4.44089209850063E-15));
#1540=CARTESIAN_POINT('Origin',(36.,0.,4.44089209850063E-15));
#1541=CARTESIAN_POINT('',(36.,0.,4.44089209850063E-15));
#1542=CARTESIAN_POINT('',(36.,0.,4.44089209850063E-15));
#1543=CARTESIAN_POINT('',(36.,6.,0.));
#1544=CARTESIAN_POINT('',(36.,6.,4.44089209850063E-15));
#1545=CARTESIAN_POINT('',(36.,0.,4.44089209850063E-15));
#1546=CARTESIAN_POINT('Origin',(36.,0.,-6.));
#1547=CARTESIAN_POINT('',(36.,0.,-6.));
#1548=CARTESIAN_POINT('',(36.,0.,-6.));
#1549=CARTESIAN_POINT('',(36.,6.,-6.));
#1550=CARTESIAN_POINT('',(36.,6.,-6.));
#1551=CARTESIAN_POINT('',(36.,0.,-6.));
#1552=CARTESIAN_POINT('Origin',(46.,0.,-6.));
#1553=CARTESIAN_POINT('',(46.,0.,-6.));
#1554=CARTESIAN_POINT('',(46.,0.,-6.));
#1555=CARTESIAN_POINT('',(46.,6.,-6.));
#1556=CARTESIAN_POINT('',(46.,6.,-6.));
#1557=CARTESIAN_POINT('',(46.,0.,-6.));
#1558=CARTESIAN_POINT('Origin',(46.,0.,4.44089209850063E-15));
#1559=CARTESIAN_POINT('',(46.,0.,4.44089209850063E-15));
#1560=CARTESIAN_POINT('',(46.,0.,4.44089209850063E-15));
#1561=CARTESIAN_POINT('',(46.,6.,0.));
#1562=CARTESIAN_POINT('',(46.,6.,4.44089209850063E-15));
#1563=CARTESIAN_POINT('',(46.,0.,4.44089209850063E-15));
#1564=CARTESIAN_POINT('Origin',(56.,0.,4.44089209850063E-15));
#1565=CARTESIAN_POINT('',(56.,0.,4.44089209850063E-15));
#1566=CARTESIAN_POINT('',(56.,0.,4.44089209850063E-15));
#1567=CARTESIAN_POINT('',(56.,6.,0.));
#1568=CARTESIAN_POINT('',(56.,6.,4.44089209850063E-15));
#1569=CARTESIAN_POINT('',(56.,0.,4.44089209850063E-15));
#1570=CARTESIAN_POINT('Origin',(56.,0.,-6.));
#1571=CARTESIAN_POINT('',(56.,0.,-6.));
#1572=CARTESIAN_POINT('',(56.,0.,-6.));
#1573=CARTESIAN_POINT('',(56.,6.,-6.));
#1574=CARTESIAN_POINT('',(56.,6.,-6.));
#1575=CARTESIAN_POINT('',(56.,0.,-6.));
#1576=CARTESIAN_POINT('Origin',(66.,0.,-6.));
#1577=CARTESIAN_POINT('',(66.,0.,-6.));
#1578=CARTESIAN_POINT('',(66.,0.,-6.));
#1579=CARTESIAN_POINT('',(66.,6.,-6.));
#1580=CARTESIAN_POINT('',(66.,6.,-6.));
#1581=CARTESIAN_POINT('',(66.,0.,-6.));
#1582=CARTESIAN_POINT('Origin',(66.,0.,3.33066907387547E-15));
#1583=CARTESIAN_POINT('',(66.,0.,3.33066907387547E-15));
#1584=CARTESIAN_POINT('',(66.,0.,-6.));
#1585=CARTESIAN_POINT('',(66.,6.,0.));
#1586=CARTESIAN_POINT('',(66.,6.,-6.));
#1587=CARTESIAN_POINT('',(66.,0.,3.33066907387547E-15));
#1588=CARTESIAN_POINT('Origin',(76.,0.,3.33066907387547E-15));
#1589=CARTESIAN_POINT('',(76.,0.,3.33066907387547E-15));
#1590=CARTESIAN_POINT('',(66.,0.,3.33066907387547E-15));
#1591=CARTESIAN_POINT('',(76.,6.,0.));
#1592=CARTESIAN_POINT('',(66.,6.,3.33066907387547E-15));
#1593=CARTESIAN_POINT('',(76.,0.,3.33066907387547E-15));
#1594=CARTESIAN_POINT('Origin',(76.,0.,-6.));
#1595=CARTESIAN_POINT('',(76.,0.,-6.));
#1596=CARTESIAN_POINT('',(76.,0.,3.33066907387547E-15));
#1597=CARTESIAN_POINT('',(76.,6.,-6.));
#1598=CARTESIAN_POINT('',(76.,6.,3.33066907387547E-15));
#1599=CARTESIAN_POINT('',(76.,0.,-6.));
#1600=CARTESIAN_POINT('Origin',(86.,0.,-6.));
#1601=CARTESIAN_POINT('',(86.,0.,-6.));
#1602=CARTESIAN_POINT('',(86.,0.,-6.));
#1603=CARTESIAN_POINT('',(86.,6.,-6.));
#1604=CARTESIAN_POINT('',(86.,6.,-6.));
#1605=CARTESIAN_POINT('',(86.,0.,-6.));
#1606=CARTESIAN_POINT('Origin',(86.,0.,98.));
#1607=CARTESIAN_POINT('',(86.,0.,98.));
#1608=CARTESIAN_POINT('',(86.,6.,98.));
#1609=CARTESIAN_POINT('Origin',(53.,6.,46.));
#1610=CARTESIAN_POINT('Origin',(53.,0.,46.));
#1611=UNCERTAINTY_MEASURE_WITH_UNIT(LENGTH_MEASURE(0.01),#1615,
'DISTANCE_ACCURACY_VALUE',
'Maximum model space distance between geometric entities at asserted c
onnectivities');
#1612=UNCERTAINTY_MEASURE_WITH_UNIT(LENGTH_MEASURE(0.01),#1615,
'DISTANCE_ACCURACY_VALUE',
'Maximum model space distance between geometric entities at asserted c
onnectivities');
#1613=(
GEOMETRIC_REPRESENTATION_CONTEXT(3)
GLOBAL_UNCERTAINTY_ASSIGNED_CONTEXT((#1611))
GLOBAL_UNIT_ASSIGNED_CONTEXT((#1615,#1617,#1618))
REPRESENTATION_CONTEXT('','3D')
);
#1614=(
GEOMETRIC_REPRESENTATION_CONTEXT(3)
GLOBAL_UNCERTAINTY_ASSIGNED_CONTEXT((#1612))
GLOBAL_UNIT_ASSIGNED_CONTEXT((#1615,#1617,#1618))
REPRESENTATION_CONTEXT('','3D')
);
#1615=(
LENGTH_UNIT()
NAMED_UNIT(*)
SI_UNIT(.MILLI.,.METRE.)
);
#1616=(
LENGTH_UNIT()
NAMED_UNIT(*)
SI_UNIT($,.METRE.)
);
#1617=(
NAMED_UNIT(*)
PLANE_ANGLE_UNIT()
SI_UNIT($,.RADIAN.)
);
#1618=(
NAMED_UNIT(*)
SI_UNIT($,.STERADIAN.)
SOLID_ANGLE_UNIT()
);
#1619=SHAPE_DEFINITION_REPRESENTATION(#1620,#1621);
#1620=PRODUCT_DEFINITION_SHAPE('',$,#1623);
#1621=SHAPE_REPRESENTATION('',(#1007),#1613);
#1622=PRODUCT_DEFINITION_CONTEXT('part definition',#1627,'design');
#1623=PRODUCT_DEFINITION('LateralEsquerda','LateralEsquerda v40',#1624,
#1622);
#1624=PRODUCT_DEFINITION_FORMATION('',$,#1629);
#1625=PRODUCT_RELATED_PRODUCT_CATEGORY('LateralEsquerda v40',
'LateralEsquerda v40',(#1629));
#1626=APPLICATION_PROTOCOL_DEFINITION('international standard',
'automotive_design',2009,#1627);
#1627=APPLICATION_CONTEXT(
'Core Data for Automotive Mechanical Design Process');
#1628=PRODUCT_CONTEXT('part definition',#1627,'mechanical');
#1629=PRODUCT('LateralEsquerda','LateralEsquerda v40',$,(#1628));
#1630=PRESENTATION_STYLE_ASSIGNMENT((#1631));
#1631=SURFACE_STYLE_USAGE(.BOTH.,#1632);
#1632=SURFACE_SIDE_STYLE('',(#1633));
#1633=SURFACE_STYLE_FILL_AREA(#1634);
#1634=FILL_AREA_STYLE('A\X\E7o - Acetinado',(#1635));
#1635=FILL_AREA_STYLE_COLOUR('A\X\E7o - Acetinado',#1636);
#1636=COLOUR_RGB('A\X\E7o - Acetinado',0.627450980392157,0.627450980392157,
0.627450980392157);
ENDSEC;
END-ISO-10303-21;
