ISO-10303-21;
HEADER;
/* Generated by software containing ST-Developer
 * from STEP Tools, Inc. (www.steptools.com) 
 */

FILE_DESCRIPTION(
/* description */ (''),
/* implementation_level */ '2;1');

FILE_NAME(
/* name */ 'LateralDireita.step',
/* time_stamp */ '2026-04-01T21:03:53-03:00',
/* author */ (''),
/* organization */ (''),
/* preprocessor_version */ 'ST-DEVELOPER v20.1',
/* originating_system */ 'Autodesk Translation Framework v14.24.0.0',
/* authorisation */ '');

FILE_SCHEMA (('AUTOMOTIVE_DESIGN { 1 0 10303 214 3 1 1 }'));
ENDSEC;

DATA;
#10=MECHANICAL_DESIGN_GEOMETRIC_PRESENTATION_REPRESENTATION('',(#13),#1302);
#11=SHAPE_REPRESENTATION_RELATIONSHIP('SRR','None',#1309,#12);
#12=ADVANCED_BREP_SHAPE_REPRESENTATION('',(#14),#1301);
#13=STYLED_ITEM('',(#1318),#14);
#14=MANIFOLD_SOLID_BREP('Corpo8',#810);
#15=FACE_BOUND('',#136,.T.);
#16=FACE_BOUND('',#137,.T.);
#17=FACE_BOUND('',#138,.T.);
#18=FACE_BOUND('',#139,.T.);
#19=FACE_BOUND('',#140,.T.);
#20=FACE_BOUND('',#142,.T.);
#21=FACE_BOUND('',#143,.T.);
#22=FACE_BOUND('',#144,.T.);
#23=FACE_BOUND('',#145,.T.);
#24=FACE_BOUND('',#146,.T.);
#25=PLANE('',#839);
#26=PLANE('',#840);
#27=PLANE('',#841);
#28=PLANE('',#842);
#29=PLANE('',#843);
#30=PLANE('',#844);
#31=PLANE('',#845);
#32=PLANE('',#846);
#33=PLANE('',#847);
#34=PLANE('',#848);
#35=PLANE('',#849);
#36=PLANE('',#850);
#37=PLANE('',#851);
#38=PLANE('',#852);
#39=PLANE('',#853);
#40=PLANE('',#854);
#41=PLANE('',#855);
#42=PLANE('',#856);
#43=PLANE('',#857);
#44=PLANE('',#858);
#45=PLANE('',#859);
#46=PLANE('',#860);
#47=PLANE('',#861);
#48=PLANE('',#862);
#49=PLANE('',#863);
#50=PLANE('',#864);
#51=PLANE('',#865);
#52=PLANE('',#866);
#53=PLANE('',#867);
#54=PLANE('',#868);
#55=PLANE('',#869);
#56=PLANE('',#870);
#57=PLANE('',#871);
#58=PLANE('',#872);
#59=FACE_OUTER_BOUND('',#98,.T.);
#60=FACE_OUTER_BOUND('',#99,.T.);
#61=FACE_OUTER_BOUND('',#100,.T.);
#62=FACE_OUTER_BOUND('',#101,.T.);
#63=FACE_OUTER_BOUND('',#102,.T.);
#64=FACE_OUTER_BOUND('',#103,.T.);
#65=FACE_OUTER_BOUND('',#104,.T.);
#66=FACE_OUTER_BOUND('',#105,.T.);
#67=FACE_OUTER_BOUND('',#106,.T.);
#68=FACE_OUTER_BOUND('',#107,.T.);
#69=FACE_OUTER_BOUND('',#108,.T.);
#70=FACE_OUTER_BOUND('',#109,.T.);
#71=FACE_OUTER_BOUND('',#110,.T.);
#72=FACE_OUTER_BOUND('',#111,.T.);
#73=FACE_OUTER_BOUND('',#112,.T.);
#74=FACE_OUTER_BOUND('',#113,.T.);
#75=FACE_OUTER_BOUND('',#114,.T.);
#76=FACE_OUTER_BOUND('',#115,.T.);
#77=FACE_OUTER_BOUND('',#116,.T.);
#78=FACE_OUTER_BOUND('',#117,.T.);
#79=FACE_OUTER_BOUND('',#118,.T.);
#80=FACE_OUTER_BOUND('',#119,.T.);
#81=FACE_OUTER_BOUND('',#120,.T.);
#82=FACE_OUTER_BOUND('',#121,.T.);
#83=FACE_OUTER_BOUND('',#122,.T.);
#84=FACE_OUTER_BOUND('',#123,.T.);
#85=FACE_OUTER_BOUND('',#124,.T.);
#86=FACE_OUTER_BOUND('',#125,.T.);
#87=FACE_OUTER_BOUND('',#126,.T.);
#88=FACE_OUTER_BOUND('',#127,.T.);
#89=FACE_OUTER_BOUND('',#128,.T.);
#90=FACE_OUTER_BOUND('',#129,.T.);
#91=FACE_OUTER_BOUND('',#130,.T.);
#92=FACE_OUTER_BOUND('',#131,.T.);
#93=FACE_OUTER_BOUND('',#132,.T.);
#94=FACE_OUTER_BOUND('',#133,.T.);
#95=FACE_OUTER_BOUND('',#134,.T.);
#96=FACE_OUTER_BOUND('',#135,.T.);
#97=FACE_OUTER_BOUND('',#141,.T.);
#98=EDGE_LOOP('',(#544,#545,#546,#547));
#99=EDGE_LOOP('',(#548,#549,#550,#551));
#100=EDGE_LOOP('',(#552,#553,#554,#555));
#101=EDGE_LOOP('',(#556,#557,#558,#559));
#102=EDGE_LOOP('',(#560,#561,#562,#563));
#103=EDGE_LOOP('',(#564,#565,#566,#567));
#104=EDGE_LOOP('',(#568,#569,#570,#571));
#105=EDGE_LOOP('',(#572,#573,#574,#575));
#106=EDGE_LOOP('',(#576,#577,#578,#579));
#107=EDGE_LOOP('',(#580,#581,#582,#583));
#108=EDGE_LOOP('',(#584,#585,#586,#587));
#109=EDGE_LOOP('',(#588,#589,#590,#591));
#110=EDGE_LOOP('',(#592,#593,#594,#595));
#111=EDGE_LOOP('',(#596,#597,#598,#599));
#112=EDGE_LOOP('',(#600,#601,#602,#603));
#113=EDGE_LOOP('',(#604,#605,#606,#607));
#114=EDGE_LOOP('',(#608,#609,#610,#611));
#115=EDGE_LOOP('',(#612,#613,#614,#615));
#116=EDGE_LOOP('',(#616,#617,#618,#619));
#117=EDGE_LOOP('',(#620,#621,#622,#623));
#118=EDGE_LOOP('',(#624,#625,#626,#627));
#119=EDGE_LOOP('',(#628,#629,#630,#631));
#120=EDGE_LOOP('',(#632,#633,#634,#635));
#121=EDGE_LOOP('',(#636,#637,#638,#639));
#122=EDGE_LOOP('',(#640,#641,#642,#643));
#123=EDGE_LOOP('',(#644,#645,#646,#647));
#124=EDGE_LOOP('',(#648,#649,#650,#651));
#125=EDGE_LOOP('',(#652,#653,#654,#655));
#126=EDGE_LOOP('',(#656,#657,#658,#659));
#127=EDGE_LOOP('',(#660,#661,#662,#663));
#128=EDGE_LOOP('',(#664,#665,#666,#667));
#129=EDGE_LOOP('',(#668,#669,#670,#671));
#130=EDGE_LOOP('',(#672,#673,#674,#675));
#131=EDGE_LOOP('',(#676,#677,#678,#679));
#132=EDGE_LOOP('',(#680,#681,#682,#683));
#133=EDGE_LOOP('',(#684,#685,#686,#687));
#134=EDGE_LOOP('',(#688,#689,#690,#691));
#135=EDGE_LOOP('',(#692,#693,#694,#695,#696,#697,#698,#699,#700,#701,#702,
#703,#704,#705,#706,#707,#708,#709,#710,#711,#712,#713,#714,#715,#716,#717,
#718,#719,#720,#721,#722,#723));
#136=EDGE_LOOP('',(#724));
#137=EDGE_LOOP('',(#725));
#138=EDGE_LOOP('',(#726));
#139=EDGE_LOOP('',(#727));
#140=EDGE_LOOP('',(#728));
#141=EDGE_LOOP('',(#729,#730,#731,#732,#733,#734,#735,#736,#737,#738,#739,
#740,#741,#742,#743,#744,#745,#746,#747,#748,#749,#750,#751,#752,#753,#754,
#755,#756,#757,#758,#759,#760));
#142=EDGE_LOOP('',(#761));
#143=EDGE_LOOP('',(#762));
#144=EDGE_LOOP('',(#763));
#145=EDGE_LOOP('',(#764));
#146=EDGE_LOOP('',(#765));
#147=LINE('',#1079,#248);
#148=LINE('',#1085,#249);
#149=LINE('',#1091,#250);
#150=LINE('',#1097,#251);
#151=LINE('',#1103,#252);
#152=LINE('',#1108,#253);
#153=LINE('',#1110,#254);
#154=LINE('',#1112,#255);
#155=LINE('',#1113,#256);
#156=LINE('',#1116,#257);
#157=LINE('',#1118,#258);
#158=LINE('',#1119,#259);
#159=LINE('',#1122,#260);
#160=LINE('',#1124,#261);
#161=LINE('',#1125,#262);
#162=LINE('',#1128,#263);
#163=LINE('',#1130,#264);
#164=LINE('',#1131,#265);
#165=LINE('',#1134,#266);
#166=LINE('',#1136,#267);
#167=LINE('',#1137,#268);
#168=LINE('',#1140,#269);
#169=LINE('',#1142,#270);
#170=LINE('',#1143,#271);
#171=LINE('',#1146,#272);
#172=LINE('',#1148,#273);
#173=LINE('',#1149,#274);
#174=LINE('',#1152,#275);
#175=LINE('',#1154,#276);
#176=LINE('',#1155,#277);
#177=LINE('',#1158,#278);
#178=LINE('',#1160,#279);
#179=LINE('',#1161,#280);
#180=LINE('',#1164,#281);
#181=LINE('',#1166,#282);
#182=LINE('',#1167,#283);
#183=LINE('',#1170,#284);
#184=LINE('',#1172,#285);
#185=LINE('',#1173,#286);
#186=LINE('',#1176,#287);
#187=LINE('',#1178,#288);
#188=LINE('',#1179,#289);
#189=LINE('',#1182,#290);
#190=LINE('',#1184,#291);
#191=LINE('',#1185,#292);
#192=LINE('',#1188,#293);
#193=LINE('',#1190,#294);
#194=LINE('',#1191,#295);
#195=LINE('',#1194,#296);
#196=LINE('',#1196,#297);
#197=LINE('',#1197,#298);
#198=LINE('',#1200,#299);
#199=LINE('',#1202,#300);
#200=LINE('',#1203,#301);
#201=LINE('',#1206,#302);
#202=LINE('',#1208,#303);
#203=LINE('',#1209,#304);
#204=LINE('',#1212,#305);
#205=LINE('',#1214,#306);
#206=LINE('',#1215,#307);
#207=LINE('',#1218,#308);
#208=LINE('',#1220,#309);
#209=LINE('',#1221,#310);
#210=LINE('',#1224,#311);
#211=LINE('',#1226,#312);
#212=LINE('',#1227,#313);
#213=LINE('',#1230,#314);
#214=LINE('',#1232,#315);
#215=LINE('',#1233,#316);
#216=LINE('',#1236,#317);
#217=LINE('',#1238,#318);
#218=LINE('',#1239,#319);
#219=LINE('',#1242,#320);
#220=LINE('',#1244,#321);
#221=LINE('',#1245,#322);
#222=LINE('',#1248,#323);
#223=LINE('',#1250,#324);
#224=LINE('',#1251,#325);
#225=LINE('',#1254,#326);
#226=LINE('',#1256,#327);
#227=LINE('',#1257,#328);
#228=LINE('',#1260,#329);
#229=LINE('',#1262,#330);
#230=LINE('',#1263,#331);
#231=LINE('',#1266,#332);
#232=LINE('',#1268,#333);
#233=LINE('',#1269,#334);
#234=LINE('',#1272,#335);
#235=LINE('',#1274,#336);
#236=LINE('',#1275,#337);
#237=LINE('',#1278,#338);
#238=LINE('',#1280,#339);
#239=LINE('',#1281,#340);
#240=LINE('',#1284,#341);
#241=LINE('',#1286,#342);
#242=LINE('',#1287,#343);
#243=LINE('',#1290,#344);
#244=LINE('',#1292,#345);
#245=LINE('',#1293,#346);
#246=LINE('',#1295,#347);
#247=LINE('',#1296,#348);
#248=VECTOR('',#879,1.5);
#249=VECTOR('',#886,1.5);
#250=VECTOR('',#893,1.5);
#251=VECTOR('',#900,1.5);
#252=VECTOR('',#907,19.);
#253=VECTOR('',#912,10.);
#254=VECTOR('',#913,10.);
#255=VECTOR('',#914,10.);
#256=VECTOR('',#915,10.);
#257=VECTOR('',#918,10.);
#258=VECTOR('',#919,10.);
#259=VECTOR('',#920,10.);
#260=VECTOR('',#923,10.);
#261=VECTOR('',#924,10.);
#262=VECTOR('',#925,10.);
#263=VECTOR('',#928,10.);
#264=VECTOR('',#929,10.);
#265=VECTOR('',#930,10.);
#266=VECTOR('',#933,10.);
#267=VECTOR('',#934,10.);
#268=VECTOR('',#935,10.);
#269=VECTOR('',#938,10.);
#270=VECTOR('',#939,10.);
#271=VECTOR('',#940,10.);
#272=VECTOR('',#943,10.);
#273=VECTOR('',#944,10.);
#274=VECTOR('',#945,10.);
#275=VECTOR('',#948,10.);
#276=VECTOR('',#949,10.);
#277=VECTOR('',#950,10.);
#278=VECTOR('',#953,10.);
#279=VECTOR('',#954,10.);
#280=VECTOR('',#955,10.);
#281=VECTOR('',#958,10.);
#282=VECTOR('',#959,10.);
#283=VECTOR('',#960,10.);
#284=VECTOR('',#963,10.);
#285=VECTOR('',#964,10.);
#286=VECTOR('',#965,10.);
#287=VECTOR('',#968,10.);
#288=VECTOR('',#969,10.);
#289=VECTOR('',#970,10.);
#290=VECTOR('',#973,10.);
#291=VECTOR('',#974,10.);
#292=VECTOR('',#975,10.);
#293=VECTOR('',#978,10.);
#294=VECTOR('',#979,10.);
#295=VECTOR('',#980,10.);
#296=VECTOR('',#983,10.);
#297=VECTOR('',#984,10.);
#298=VECTOR('',#985,10.);
#299=VECTOR('',#988,10.);
#300=VECTOR('',#989,10.);
#301=VECTOR('',#990,10.);
#302=VECTOR('',#993,10.);
#303=VECTOR('',#994,10.);
#304=VECTOR('',#995,10.);
#305=VECTOR('',#998,10.);
#306=VECTOR('',#999,10.);
#307=VECTOR('',#1000,10.);
#308=VECTOR('',#1003,10.);
#309=VECTOR('',#1004,10.);
#310=VECTOR('',#1005,10.);
#311=VECTOR('',#1008,10.);
#312=VECTOR('',#1009,10.);
#313=VECTOR('',#1010,10.);
#314=VECTOR('',#1013,10.);
#315=VECTOR('',#1014,10.);
#316=VECTOR('',#1015,10.);
#317=VECTOR('',#1018,10.);
#318=VECTOR('',#1019,10.);
#319=VECTOR('',#1020,10.);
#320=VECTOR('',#1023,10.);
#321=VECTOR('',#1024,10.);
#322=VECTOR('',#1025,10.);
#323=VECTOR('',#1028,10.);
#324=VECTOR('',#1029,10.);
#325=VECTOR('',#1030,10.);
#326=VECTOR('',#1033,10.);
#327=VECTOR('',#1034,10.);
#328=VECTOR('',#1035,10.);
#329=VECTOR('',#1038,10.);
#330=VECTOR('',#1039,10.);
#331=VECTOR('',#1040,10.);
#332=VECTOR('',#1043,10.);
#333=VECTOR('',#1044,10.);
#334=VECTOR('',#1045,10.);
#335=VECTOR('',#1048,10.);
#336=VECTOR('',#1049,10.);
#337=VECTOR('',#1050,10.);
#338=VECTOR('',#1053,10.);
#339=VECTOR('',#1054,10.);
#340=VECTOR('',#1055,10.);
#341=VECTOR('',#1058,10.);
#342=VECTOR('',#1059,10.);
#343=VECTOR('',#1060,10.);
#344=VECTOR('',#1063,10.);
#345=VECTOR('',#1064,10.);
#346=VECTOR('',#1065,10.);
#347=VECTOR('',#1068,10.);
#348=VECTOR('',#1069,10.);
#349=CIRCLE('',#825,1.5);
#350=CIRCLE('',#826,1.5);
#351=CIRCLE('',#828,1.5);
#352=CIRCLE('',#829,1.5);
#353=CIRCLE('',#831,1.5);
#354=CIRCLE('',#832,1.5);
#355=CIRCLE('',#834,1.5);
#356=CIRCLE('',#835,1.5);
#357=CIRCLE('',#837,19.);
#358=CIRCLE('',#838,19.);
#359=VERTEX_POINT('',#1076);
#360=VERTEX_POINT('',#1078);
#361=VERTEX_POINT('',#1082);
#362=VERTEX_POINT('',#1084);
#363=VERTEX_POINT('',#1088);
#364=VERTEX_POINT('',#1090);
#365=VERTEX_POINT('',#1094);
#366=VERTEX_POINT('',#1096);
#367=VERTEX_POINT('',#1100);
#368=VERTEX_POINT('',#1102);
#369=VERTEX_POINT('',#1106);
#370=VERTEX_POINT('',#1107);
#371=VERTEX_POINT('',#1109);
#372=VERTEX_POINT('',#1111);
#373=VERTEX_POINT('',#1115);
#374=VERTEX_POINT('',#1117);
#375=VERTEX_POINT('',#1121);
#376=VERTEX_POINT('',#1123);
#377=VERTEX_POINT('',#1127);
#378=VERTEX_POINT('',#1129);
#379=VERTEX_POINT('',#1133);
#380=VERTEX_POINT('',#1135);
#381=VERTEX_POINT('',#1139);
#382=VERTEX_POINT('',#1141);
#383=VERTEX_POINT('',#1145);
#384=VERTEX_POINT('',#1147);
#385=VERTEX_POINT('',#1151);
#386=VERTEX_POINT('',#1153);
#387=VERTEX_POINT('',#1157);
#388=VERTEX_POINT('',#1159);
#389=VERTEX_POINT('',#1163);
#390=VERTEX_POINT('',#1165);
#391=VERTEX_POINT('',#1169);
#392=VERTEX_POINT('',#1171);
#393=VERTEX_POINT('',#1175);
#394=VERTEX_POINT('',#1177);
#395=VERTEX_POINT('',#1181);
#396=VERTEX_POINT('',#1183);
#397=VERTEX_POINT('',#1187);
#398=VERTEX_POINT('',#1189);
#399=VERTEX_POINT('',#1193);
#400=VERTEX_POINT('',#1195);
#401=VERTEX_POINT('',#1199);
#402=VERTEX_POINT('',#1201);
#403=VERTEX_POINT('',#1205);
#404=VERTEX_POINT('',#1207);
#405=VERTEX_POINT('',#1211);
#406=VERTEX_POINT('',#1213);
#407=VERTEX_POINT('',#1217);
#408=VERTEX_POINT('',#1219);
#409=VERTEX_POINT('',#1223);
#410=VERTEX_POINT('',#1225);
#411=VERTEX_POINT('',#1229);
#412=VERTEX_POINT('',#1231);
#413=VERTEX_POINT('',#1235);
#414=VERTEX_POINT('',#1237);
#415=VERTEX_POINT('',#1241);
#416=VERTEX_POINT('',#1243);
#417=VERTEX_POINT('',#1247);
#418=VERTEX_POINT('',#1249);
#419=VERTEX_POINT('',#1253);
#420=VERTEX_POINT('',#1255);
#421=VERTEX_POINT('',#1259);
#422=VERTEX_POINT('',#1261);
#423=VERTEX_POINT('',#1265);
#424=VERTEX_POINT('',#1267);
#425=VERTEX_POINT('',#1271);
#426=VERTEX_POINT('',#1273);
#427=VERTEX_POINT('',#1277);
#428=VERTEX_POINT('',#1279);
#429=VERTEX_POINT('',#1283);
#430=VERTEX_POINT('',#1285);
#431=VERTEX_POINT('',#1289);
#432=VERTEX_POINT('',#1291);
#433=EDGE_CURVE('',#359,#359,#349,.T.);
#434=EDGE_CURVE('',#359,#360,#147,.T.);
#435=EDGE_CURVE('',#360,#360,#350,.T.);
#436=EDGE_CURVE('',#361,#361,#351,.T.);
#437=EDGE_CURVE('',#361,#362,#148,.T.);
#438=EDGE_CURVE('',#362,#362,#352,.T.);
#439=EDGE_CURVE('',#363,#363,#353,.T.);
#440=EDGE_CURVE('',#363,#364,#149,.T.);
#441=EDGE_CURVE('',#364,#364,#354,.T.);
#442=EDGE_CURVE('',#365,#365,#355,.T.);
#443=EDGE_CURVE('',#365,#366,#150,.T.);
#444=EDGE_CURVE('',#366,#366,#356,.T.);
#445=EDGE_CURVE('',#367,#367,#357,.T.);
#446=EDGE_CURVE('',#367,#368,#151,.T.);
#447=EDGE_CURVE('',#368,#368,#358,.T.);
#448=EDGE_CURVE('',#369,#370,#152,.T.);
#449=EDGE_CURVE('',#369,#371,#153,.T.);
#450=EDGE_CURVE('',#372,#371,#154,.T.);
#451=EDGE_CURVE('',#370,#372,#155,.T.);
#452=EDGE_CURVE('',#370,#373,#156,.T.);
#453=EDGE_CURVE('',#374,#372,#157,.T.);
#454=EDGE_CURVE('',#373,#374,#158,.T.);
#455=EDGE_CURVE('',#373,#375,#159,.T.);
#456=EDGE_CURVE('',#376,#374,#160,.T.);
#457=EDGE_CURVE('',#375,#376,#161,.T.);
#458=EDGE_CURVE('',#375,#377,#162,.T.);
#459=EDGE_CURVE('',#378,#376,#163,.T.);
#460=EDGE_CURVE('',#377,#378,#164,.T.);
#461=EDGE_CURVE('',#377,#379,#165,.T.);
#462=EDGE_CURVE('',#380,#378,#166,.T.);
#463=EDGE_CURVE('',#379,#380,#167,.T.);
#464=EDGE_CURVE('',#379,#381,#168,.T.);
#465=EDGE_CURVE('',#382,#380,#169,.T.);
#466=EDGE_CURVE('',#381,#382,#170,.T.);
#467=EDGE_CURVE('',#381,#383,#171,.T.);
#468=EDGE_CURVE('',#384,#382,#172,.T.);
#469=EDGE_CURVE('',#383,#384,#173,.T.);
#470=EDGE_CURVE('',#383,#385,#174,.T.);
#471=EDGE_CURVE('',#386,#384,#175,.T.);
#472=EDGE_CURVE('',#385,#386,#176,.T.);
#473=EDGE_CURVE('',#385,#387,#177,.T.);
#474=EDGE_CURVE('',#388,#386,#178,.T.);
#475=EDGE_CURVE('',#387,#388,#179,.T.);
#476=EDGE_CURVE('',#387,#389,#180,.T.);
#477=EDGE_CURVE('',#390,#388,#181,.T.);
#478=EDGE_CURVE('',#389,#390,#182,.T.);
#479=EDGE_CURVE('',#389,#391,#183,.T.);
#480=EDGE_CURVE('',#392,#390,#184,.T.);
#481=EDGE_CURVE('',#391,#392,#185,.T.);
#482=EDGE_CURVE('',#393,#391,#186,.T.);
#483=EDGE_CURVE('',#394,#392,#187,.T.);
#484=EDGE_CURVE('',#393,#394,#188,.T.);
#485=EDGE_CURVE('',#395,#393,#189,.T.);
#486=EDGE_CURVE('',#396,#394,#190,.T.);
#487=EDGE_CURVE('',#395,#396,#191,.T.);
#488=EDGE_CURVE('',#397,#395,#192,.T.);
#489=EDGE_CURVE('',#398,#396,#193,.T.);
#490=EDGE_CURVE('',#397,#398,#194,.T.);
#491=EDGE_CURVE('',#399,#397,#195,.T.);
#492=EDGE_CURVE('',#400,#398,#196,.T.);
#493=EDGE_CURVE('',#399,#400,#197,.T.);
#494=EDGE_CURVE('',#401,#399,#198,.T.);
#495=EDGE_CURVE('',#402,#400,#199,.T.);
#496=EDGE_CURVE('',#401,#402,#200,.T.);
#497=EDGE_CURVE('',#403,#401,#201,.T.);
#498=EDGE_CURVE('',#404,#402,#202,.T.);
#499=EDGE_CURVE('',#403,#404,#203,.T.);
#500=EDGE_CURVE('',#405,#403,#204,.T.);
#501=EDGE_CURVE('',#406,#404,#205,.T.);
#502=EDGE_CURVE('',#405,#406,#206,.T.);
#503=EDGE_CURVE('',#407,#405,#207,.T.);
#504=EDGE_CURVE('',#408,#406,#208,.T.);
#505=EDGE_CURVE('',#407,#408,#209,.T.);
#506=EDGE_CURVE('',#409,#407,#210,.T.);
#507=EDGE_CURVE('',#410,#408,#211,.T.);
#508=EDGE_CURVE('',#409,#410,#212,.T.);
#509=EDGE_CURVE('',#411,#409,#213,.T.);
#510=EDGE_CURVE('',#412,#410,#214,.T.);
#511=EDGE_CURVE('',#411,#412,#215,.T.);
#512=EDGE_CURVE('',#413,#411,#216,.T.);
#513=EDGE_CURVE('',#414,#412,#217,.T.);
#514=EDGE_CURVE('',#413,#414,#218,.T.);
#515=EDGE_CURVE('',#415,#413,#219,.T.);
#516=EDGE_CURVE('',#416,#414,#220,.T.);
#517=EDGE_CURVE('',#415,#416,#221,.T.);
#518=EDGE_CURVE('',#417,#415,#222,.T.);
#519=EDGE_CURVE('',#418,#416,#223,.T.);
#520=EDGE_CURVE('',#417,#418,#224,.T.);
#521=EDGE_CURVE('',#419,#417,#225,.T.);
#522=EDGE_CURVE('',#420,#418,#226,.T.);
#523=EDGE_CURVE('',#419,#420,#227,.T.);
#524=EDGE_CURVE('',#421,#419,#228,.T.);
#525=EDGE_CURVE('',#422,#420,#229,.T.);
#526=EDGE_CURVE('',#421,#422,#230,.T.);
#527=EDGE_CURVE('',#423,#421,#231,.T.);
#528=EDGE_CURVE('',#424,#422,#232,.T.);
#529=EDGE_CURVE('',#423,#424,#233,.T.);
#530=EDGE_CURVE('',#425,#423,#234,.T.);
#531=EDGE_CURVE('',#426,#424,#235,.T.);
#532=EDGE_CURVE('',#425,#426,#236,.T.);
#533=EDGE_CURVE('',#427,#425,#237,.T.);
#534=EDGE_CURVE('',#428,#426,#238,.T.);
#535=EDGE_CURVE('',#427,#428,#239,.T.);
#536=EDGE_CURVE('',#429,#427,#240,.T.);
#537=EDGE_CURVE('',#430,#428,#241,.T.);
#538=EDGE_CURVE('',#429,#430,#242,.T.);
#539=EDGE_CURVE('',#431,#429,#243,.T.);
#540=EDGE_CURVE('',#432,#430,#244,.T.);
#541=EDGE_CURVE('',#431,#432,#245,.T.);
#542=EDGE_CURVE('',#369,#431,#246,.T.);
#543=EDGE_CURVE('',#371,#432,#247,.T.);
#544=ORIENTED_EDGE('',*,*,#433,.F.);
#545=ORIENTED_EDGE('',*,*,#434,.T.);
#546=ORIENTED_EDGE('',*,*,#435,.T.);
#547=ORIENTED_EDGE('',*,*,#434,.F.);
#548=ORIENTED_EDGE('',*,*,#436,.F.);
#549=ORIENTED_EDGE('',*,*,#437,.T.);
#550=ORIENTED_EDGE('',*,*,#438,.T.);
#551=ORIENTED_EDGE('',*,*,#437,.F.);
#552=ORIENTED_EDGE('',*,*,#439,.F.);
#553=ORIENTED_EDGE('',*,*,#440,.T.);
#554=ORIENTED_EDGE('',*,*,#441,.T.);
#555=ORIENTED_EDGE('',*,*,#440,.F.);
#556=ORIENTED_EDGE('',*,*,#442,.F.);
#557=ORIENTED_EDGE('',*,*,#443,.T.);
#558=ORIENTED_EDGE('',*,*,#444,.T.);
#559=ORIENTED_EDGE('',*,*,#443,.F.);
#560=ORIENTED_EDGE('',*,*,#445,.F.);
#561=ORIENTED_EDGE('',*,*,#446,.T.);
#562=ORIENTED_EDGE('',*,*,#447,.T.);
#563=ORIENTED_EDGE('',*,*,#446,.F.);
#564=ORIENTED_EDGE('',*,*,#448,.F.);
#565=ORIENTED_EDGE('',*,*,#449,.T.);
#566=ORIENTED_EDGE('',*,*,#450,.F.);
#567=ORIENTED_EDGE('',*,*,#451,.F.);
#568=ORIENTED_EDGE('',*,*,#452,.F.);
#569=ORIENTED_EDGE('',*,*,#451,.T.);
#570=ORIENTED_EDGE('',*,*,#453,.F.);
#571=ORIENTED_EDGE('',*,*,#454,.F.);
#572=ORIENTED_EDGE('',*,*,#455,.F.);
#573=ORIENTED_EDGE('',*,*,#454,.T.);
#574=ORIENTED_EDGE('',*,*,#456,.F.);
#575=ORIENTED_EDGE('',*,*,#457,.F.);
#576=ORIENTED_EDGE('',*,*,#458,.F.);
#577=ORIENTED_EDGE('',*,*,#457,.T.);
#578=ORIENTED_EDGE('',*,*,#459,.F.);
#579=ORIENTED_EDGE('',*,*,#460,.F.);
#580=ORIENTED_EDGE('',*,*,#461,.F.);
#581=ORIENTED_EDGE('',*,*,#460,.T.);
#582=ORIENTED_EDGE('',*,*,#462,.F.);
#583=ORIENTED_EDGE('',*,*,#463,.F.);
#584=ORIENTED_EDGE('',*,*,#464,.F.);
#585=ORIENTED_EDGE('',*,*,#463,.T.);
#586=ORIENTED_EDGE('',*,*,#465,.F.);
#587=ORIENTED_EDGE('',*,*,#466,.F.);
#588=ORIENTED_EDGE('',*,*,#467,.F.);
#589=ORIENTED_EDGE('',*,*,#466,.T.);
#590=ORIENTED_EDGE('',*,*,#468,.F.);
#591=ORIENTED_EDGE('',*,*,#469,.F.);
#592=ORIENTED_EDGE('',*,*,#470,.F.);
#593=ORIENTED_EDGE('',*,*,#469,.T.);
#594=ORIENTED_EDGE('',*,*,#471,.F.);
#595=ORIENTED_EDGE('',*,*,#472,.F.);
#596=ORIENTED_EDGE('',*,*,#473,.F.);
#597=ORIENTED_EDGE('',*,*,#472,.T.);
#598=ORIENTED_EDGE('',*,*,#474,.F.);
#599=ORIENTED_EDGE('',*,*,#475,.F.);
#600=ORIENTED_EDGE('',*,*,#476,.F.);
#601=ORIENTED_EDGE('',*,*,#475,.T.);
#602=ORIENTED_EDGE('',*,*,#477,.F.);
#603=ORIENTED_EDGE('',*,*,#478,.F.);
#604=ORIENTED_EDGE('',*,*,#479,.F.);
#605=ORIENTED_EDGE('',*,*,#478,.T.);
#606=ORIENTED_EDGE('',*,*,#480,.F.);
#607=ORIENTED_EDGE('',*,*,#481,.F.);
#608=ORIENTED_EDGE('',*,*,#482,.T.);
#609=ORIENTED_EDGE('',*,*,#481,.T.);
#610=ORIENTED_EDGE('',*,*,#483,.F.);
#611=ORIENTED_EDGE('',*,*,#484,.F.);
#612=ORIENTED_EDGE('',*,*,#485,.T.);
#613=ORIENTED_EDGE('',*,*,#484,.T.);
#614=ORIENTED_EDGE('',*,*,#486,.F.);
#615=ORIENTED_EDGE('',*,*,#487,.F.);
#616=ORIENTED_EDGE('',*,*,#488,.T.);
#617=ORIENTED_EDGE('',*,*,#487,.T.);
#618=ORIENTED_EDGE('',*,*,#489,.F.);
#619=ORIENTED_EDGE('',*,*,#490,.F.);
#620=ORIENTED_EDGE('',*,*,#491,.T.);
#621=ORIENTED_EDGE('',*,*,#490,.T.);
#622=ORIENTED_EDGE('',*,*,#492,.F.);
#623=ORIENTED_EDGE('',*,*,#493,.F.);
#624=ORIENTED_EDGE('',*,*,#494,.T.);
#625=ORIENTED_EDGE('',*,*,#493,.T.);
#626=ORIENTED_EDGE('',*,*,#495,.F.);
#627=ORIENTED_EDGE('',*,*,#496,.F.);
#628=ORIENTED_EDGE('',*,*,#497,.T.);
#629=ORIENTED_EDGE('',*,*,#496,.T.);
#630=ORIENTED_EDGE('',*,*,#498,.F.);
#631=ORIENTED_EDGE('',*,*,#499,.F.);
#632=ORIENTED_EDGE('',*,*,#500,.T.);
#633=ORIENTED_EDGE('',*,*,#499,.T.);
#634=ORIENTED_EDGE('',*,*,#501,.F.);
#635=ORIENTED_EDGE('',*,*,#502,.F.);
#636=ORIENTED_EDGE('',*,*,#503,.T.);
#637=ORIENTED_EDGE('',*,*,#502,.T.);
#638=ORIENTED_EDGE('',*,*,#504,.F.);
#639=ORIENTED_EDGE('',*,*,#505,.F.);
#640=ORIENTED_EDGE('',*,*,#506,.T.);
#641=ORIENTED_EDGE('',*,*,#505,.T.);
#642=ORIENTED_EDGE('',*,*,#507,.F.);
#643=ORIENTED_EDGE('',*,*,#508,.F.);
#644=ORIENTED_EDGE('',*,*,#509,.T.);
#645=ORIENTED_EDGE('',*,*,#508,.T.);
#646=ORIENTED_EDGE('',*,*,#510,.F.);
#647=ORIENTED_EDGE('',*,*,#511,.F.);
#648=ORIENTED_EDGE('',*,*,#512,.T.);
#649=ORIENTED_EDGE('',*,*,#511,.T.);
#650=ORIENTED_EDGE('',*,*,#513,.F.);
#651=ORIENTED_EDGE('',*,*,#514,.F.);
#652=ORIENTED_EDGE('',*,*,#515,.T.);
#653=ORIENTED_EDGE('',*,*,#514,.T.);
#654=ORIENTED_EDGE('',*,*,#516,.F.);
#655=ORIENTED_EDGE('',*,*,#517,.F.);
#656=ORIENTED_EDGE('',*,*,#518,.T.);
#657=ORIENTED_EDGE('',*,*,#517,.T.);
#658=ORIENTED_EDGE('',*,*,#519,.F.);
#659=ORIENTED_EDGE('',*,*,#520,.F.);
#660=ORIENTED_EDGE('',*,*,#521,.T.);
#661=ORIENTED_EDGE('',*,*,#520,.T.);
#662=ORIENTED_EDGE('',*,*,#522,.F.);
#663=ORIENTED_EDGE('',*,*,#523,.F.);
#664=ORIENTED_EDGE('',*,*,#524,.T.);
#665=ORIENTED_EDGE('',*,*,#523,.T.);
#666=ORIENTED_EDGE('',*,*,#525,.F.);
#667=ORIENTED_EDGE('',*,*,#526,.F.);
#668=ORIENTED_EDGE('',*,*,#527,.T.);
#669=ORIENTED_EDGE('',*,*,#526,.T.);
#670=ORIENTED_EDGE('',*,*,#528,.F.);
#671=ORIENTED_EDGE('',*,*,#529,.F.);
#672=ORIENTED_EDGE('',*,*,#530,.T.);
#673=ORIENTED_EDGE('',*,*,#529,.T.);
#674=ORIENTED_EDGE('',*,*,#531,.F.);
#675=ORIENTED_EDGE('',*,*,#532,.F.);
#676=ORIENTED_EDGE('',*,*,#533,.T.);
#677=ORIENTED_EDGE('',*,*,#532,.T.);
#678=ORIENTED_EDGE('',*,*,#534,.F.);
#679=ORIENTED_EDGE('',*,*,#535,.F.);
#680=ORIENTED_EDGE('',*,*,#536,.T.);
#681=ORIENTED_EDGE('',*,*,#535,.T.);
#682=ORIENTED_EDGE('',*,*,#537,.F.);
#683=ORIENTED_EDGE('',*,*,#538,.F.);
#684=ORIENTED_EDGE('',*,*,#539,.T.);
#685=ORIENTED_EDGE('',*,*,#538,.T.);
#686=ORIENTED_EDGE('',*,*,#540,.F.);
#687=ORIENTED_EDGE('',*,*,#541,.F.);
#688=ORIENTED_EDGE('',*,*,#542,.T.);
#689=ORIENTED_EDGE('',*,*,#541,.T.);
#690=ORIENTED_EDGE('',*,*,#543,.F.);
#691=ORIENTED_EDGE('',*,*,#449,.F.);
#692=ORIENTED_EDGE('',*,*,#543,.T.);
#693=ORIENTED_EDGE('',*,*,#540,.T.);
#694=ORIENTED_EDGE('',*,*,#537,.T.);
#695=ORIENTED_EDGE('',*,*,#534,.T.);
#696=ORIENTED_EDGE('',*,*,#531,.T.);
#697=ORIENTED_EDGE('',*,*,#528,.T.);
#698=ORIENTED_EDGE('',*,*,#525,.T.);
#699=ORIENTED_EDGE('',*,*,#522,.T.);
#700=ORIENTED_EDGE('',*,*,#519,.T.);
#701=ORIENTED_EDGE('',*,*,#516,.T.);
#702=ORIENTED_EDGE('',*,*,#513,.T.);
#703=ORIENTED_EDGE('',*,*,#510,.T.);
#704=ORIENTED_EDGE('',*,*,#507,.T.);
#705=ORIENTED_EDGE('',*,*,#504,.T.);
#706=ORIENTED_EDGE('',*,*,#501,.T.);
#707=ORIENTED_EDGE('',*,*,#498,.T.);
#708=ORIENTED_EDGE('',*,*,#495,.T.);
#709=ORIENTED_EDGE('',*,*,#492,.T.);
#710=ORIENTED_EDGE('',*,*,#489,.T.);
#711=ORIENTED_EDGE('',*,*,#486,.T.);
#712=ORIENTED_EDGE('',*,*,#483,.T.);
#713=ORIENTED_EDGE('',*,*,#480,.T.);
#714=ORIENTED_EDGE('',*,*,#477,.T.);
#715=ORIENTED_EDGE('',*,*,#474,.T.);
#716=ORIENTED_EDGE('',*,*,#471,.T.);
#717=ORIENTED_EDGE('',*,*,#468,.T.);
#718=ORIENTED_EDGE('',*,*,#465,.T.);
#719=ORIENTED_EDGE('',*,*,#462,.T.);
#720=ORIENTED_EDGE('',*,*,#459,.T.);
#721=ORIENTED_EDGE('',*,*,#456,.T.);
#722=ORIENTED_EDGE('',*,*,#453,.T.);
#723=ORIENTED_EDGE('',*,*,#450,.T.);
#724=ORIENTED_EDGE('',*,*,#445,.T.);
#725=ORIENTED_EDGE('',*,*,#442,.T.);
#726=ORIENTED_EDGE('',*,*,#439,.T.);
#727=ORIENTED_EDGE('',*,*,#436,.T.);
#728=ORIENTED_EDGE('',*,*,#433,.T.);
#729=ORIENTED_EDGE('',*,*,#542,.F.);
#730=ORIENTED_EDGE('',*,*,#448,.T.);
#731=ORIENTED_EDGE('',*,*,#452,.T.);
#732=ORIENTED_EDGE('',*,*,#455,.T.);
#733=ORIENTED_EDGE('',*,*,#458,.T.);
#734=ORIENTED_EDGE('',*,*,#461,.T.);
#735=ORIENTED_EDGE('',*,*,#464,.T.);
#736=ORIENTED_EDGE('',*,*,#467,.T.);
#737=ORIENTED_EDGE('',*,*,#470,.T.);
#738=ORIENTED_EDGE('',*,*,#473,.T.);
#739=ORIENTED_EDGE('',*,*,#476,.T.);
#740=ORIENTED_EDGE('',*,*,#479,.T.);
#741=ORIENTED_EDGE('',*,*,#482,.F.);
#742=ORIENTED_EDGE('',*,*,#485,.F.);
#743=ORIENTED_EDGE('',*,*,#488,.F.);
#744=ORIENTED_EDGE('',*,*,#491,.F.);
#745=ORIENTED_EDGE('',*,*,#494,.F.);
#746=ORIENTED_EDGE('',*,*,#497,.F.);
#747=ORIENTED_EDGE('',*,*,#500,.F.);
#748=ORIENTED_EDGE('',*,*,#503,.F.);
#749=ORIENTED_EDGE('',*,*,#506,.F.);
#750=ORIENTED_EDGE('',*,*,#509,.F.);
#751=ORIENTED_EDGE('',*,*,#512,.F.);
#752=ORIENTED_EDGE('',*,*,#515,.F.);
#753=ORIENTED_EDGE('',*,*,#518,.F.);
#754=ORIENTED_EDGE('',*,*,#521,.F.);
#755=ORIENTED_EDGE('',*,*,#524,.F.);
#756=ORIENTED_EDGE('',*,*,#527,.F.);
#757=ORIENTED_EDGE('',*,*,#530,.F.);
#758=ORIENTED_EDGE('',*,*,#533,.F.);
#759=ORIENTED_EDGE('',*,*,#536,.F.);
#760=ORIENTED_EDGE('',*,*,#539,.F.);
#761=ORIENTED_EDGE('',*,*,#447,.F.);
#762=ORIENTED_EDGE('',*,*,#444,.F.);
#763=ORIENTED_EDGE('',*,*,#441,.F.);
#764=ORIENTED_EDGE('',*,*,#438,.F.);
#765=ORIENTED_EDGE('',*,*,#435,.F.);
#766=CYLINDRICAL_SURFACE('',#824,1.5);
#767=CYLINDRICAL_SURFACE('',#827,1.5);
#768=CYLINDRICAL_SURFACE('',#830,1.5);
#769=CYLINDRICAL_SURFACE('',#833,1.5);
#770=CYLINDRICAL_SURFACE('',#836,19.);
#771=ADVANCED_FACE('',(#59),#766,.F.);
#772=ADVANCED_FACE('',(#60),#767,.F.);
#773=ADVANCED_FACE('',(#61),#768,.F.);
#774=ADVANCED_FACE('',(#62),#769,.F.);
#775=ADVANCED_FACE('',(#63),#770,.F.);
#776=ADVANCED_FACE('',(#64),#25,.T.);
#777=ADVANCED_FACE('',(#65),#26,.T.);
#778=ADVANCED_FACE('',(#66),#27,.T.);
#779=ADVANCED_FACE('',(#67),#28,.T.);
#780=ADVANCED_FACE('',(#68),#29,.T.);
#781=ADVANCED_FACE('',(#69),#30,.T.);
#782=ADVANCED_FACE('',(#70),#31,.T.);
#783=ADVANCED_FACE('',(#71),#32,.T.);
#784=ADVANCED_FACE('',(#72),#33,.T.);
#785=ADVANCED_FACE('',(#73),#34,.T.);
#786=ADVANCED_FACE('',(#74),#35,.T.);
#787=ADVANCED_FACE('',(#75),#36,.T.);
#788=ADVANCED_FACE('',(#76),#37,.T.);
#789=ADVANCED_FACE('',(#77),#38,.T.);
#790=ADVANCED_FACE('',(#78),#39,.T.);
#791=ADVANCED_FACE('',(#79),#40,.T.);
#792=ADVANCED_FACE('',(#80),#41,.T.);
#793=ADVANCED_FACE('',(#81),#42,.T.);
#794=ADVANCED_FACE('',(#82),#43,.T.);
#795=ADVANCED_FACE('',(#83),#44,.T.);
#796=ADVANCED_FACE('',(#84),#45,.T.);
#797=ADVANCED_FACE('',(#85),#46,.T.);
#798=ADVANCED_FACE('',(#86),#47,.T.);
#799=ADVANCED_FACE('',(#87),#48,.T.);
#800=ADVANCED_FACE('',(#88),#49,.T.);
#801=ADVANCED_FACE('',(#89),#50,.T.);
#802=ADVANCED_FACE('',(#90),#51,.T.);
#803=ADVANCED_FACE('',(#91),#52,.T.);
#804=ADVANCED_FACE('',(#92),#53,.T.);
#805=ADVANCED_FACE('',(#93),#54,.T.);
#806=ADVANCED_FACE('',(#94),#55,.T.);
#807=ADVANCED_FACE('',(#95),#56,.T.);
#808=ADVANCED_FACE('',(#96,#15,#16,#17,#18,#19),#57,.T.);
#809=ADVANCED_FACE('',(#97,#20,#21,#22,#23,#24),#58,.F.);
#810=CLOSED_SHELL('',(#771,#772,#773,#774,#775,#776,#777,#778,#779,#780,
#781,#782,#783,#784,#785,#786,#787,#788,#789,#790,#791,#792,#793,#794,#795,
#796,#797,#798,#799,#800,#801,#802,#803,#804,#805,#806,#807,#808,#809));
#811=DERIVED_UNIT_ELEMENT(#813,1.);
#812=DERIVED_UNIT_ELEMENT(#1304,-3.);
#813=(
MASS_UNIT()
NAMED_UNIT(*)
SI_UNIT(.KILO.,.GRAM.)
);
#814=DERIVED_UNIT((#811,#812));
#815=MEASURE_REPRESENTATION_ITEM('density measure',
POSITIVE_RATIO_MEASURE(7850.),#814);
#816=PROPERTY_DEFINITION_REPRESENTATION(#821,#818);
#817=PROPERTY_DEFINITION_REPRESENTATION(#822,#819);
#818=REPRESENTATION('material name',(#820),#1301);
#819=REPRESENTATION('density',(#815),#1301);
#820=DESCRIPTIVE_REPRESENTATION_ITEM('A\X\E7o','A\X\E7o');
#821=PROPERTY_DEFINITION('material property','material name',#1311);
#822=PROPERTY_DEFINITION('material property','density of part',#1311);
#823=AXIS2_PLACEMENT_3D('',#1074,#873,#874);
#824=AXIS2_PLACEMENT_3D('',#1075,#875,#876);
#825=AXIS2_PLACEMENT_3D('',#1077,#877,#878);
#826=AXIS2_PLACEMENT_3D('',#1080,#880,#881);
#827=AXIS2_PLACEMENT_3D('',#1081,#882,#883);
#828=AXIS2_PLACEMENT_3D('',#1083,#884,#885);
#829=AXIS2_PLACEMENT_3D('',#1086,#887,#888);
#830=AXIS2_PLACEMENT_3D('',#1087,#889,#890);
#831=AXIS2_PLACEMENT_3D('',#1089,#891,#892);
#832=AXIS2_PLACEMENT_3D('',#1092,#894,#895);
#833=AXIS2_PLACEMENT_3D('',#1093,#896,#897);
#834=AXIS2_PLACEMENT_3D('',#1095,#898,#899);
#835=AXIS2_PLACEMENT_3D('',#1098,#901,#902);
#836=AXIS2_PLACEMENT_3D('',#1099,#903,#904);
#837=AXIS2_PLACEMENT_3D('',#1101,#905,#906);
#838=AXIS2_PLACEMENT_3D('',#1104,#908,#909);
#839=AXIS2_PLACEMENT_3D('',#1105,#910,#911);
#840=AXIS2_PLACEMENT_3D('',#1114,#916,#917);
#841=AXIS2_PLACEMENT_3D('',#1120,#921,#922);
#842=AXIS2_PLACEMENT_3D('',#1126,#926,#927);
#843=AXIS2_PLACEMENT_3D('',#1132,#931,#932);
#844=AXIS2_PLACEMENT_3D('',#1138,#936,#937);
#845=AXIS2_PLACEMENT_3D('',#1144,#941,#942);
#846=AXIS2_PLACEMENT_3D('',#1150,#946,#947);
#847=AXIS2_PLACEMENT_3D('',#1156,#951,#952);
#848=AXIS2_PLACEMENT_3D('',#1162,#956,#957);
#849=AXIS2_PLACEMENT_3D('',#1168,#961,#962);
#850=AXIS2_PLACEMENT_3D('',#1174,#966,#967);
#851=AXIS2_PLACEMENT_3D('',#1180,#971,#972);
#852=AXIS2_PLACEMENT_3D('',#1186,#976,#977);
#853=AXIS2_PLACEMENT_3D('',#1192,#981,#982);
#854=AXIS2_PLACEMENT_3D('',#1198,#986,#987);
#855=AXIS2_PLACEMENT_3D('',#1204,#991,#992);
#856=AXIS2_PLACEMENT_3D('',#1210,#996,#997);
#857=AXIS2_PLACEMENT_3D('',#1216,#1001,#1002);
#858=AXIS2_PLACEMENT_3D('',#1222,#1006,#1007);
#859=AXIS2_PLACEMENT_3D('',#1228,#1011,#1012);
#860=AXIS2_PLACEMENT_3D('',#1234,#1016,#1017);
#861=AXIS2_PLACEMENT_3D('',#1240,#1021,#1022);
#862=AXIS2_PLACEMENT_3D('',#1246,#1026,#1027);
#863=AXIS2_PLACEMENT_3D('',#1252,#1031,#1032);
#864=AXIS2_PLACEMENT_3D('',#1258,#1036,#1037);
#865=AXIS2_PLACEMENT_3D('',#1264,#1041,#1042);
#866=AXIS2_PLACEMENT_3D('',#1270,#1046,#1047);
#867=AXIS2_PLACEMENT_3D('',#1276,#1051,#1052);
#868=AXIS2_PLACEMENT_3D('',#1282,#1056,#1057);
#869=AXIS2_PLACEMENT_3D('',#1288,#1061,#1062);
#870=AXIS2_PLACEMENT_3D('',#1294,#1066,#1067);
#871=AXIS2_PLACEMENT_3D('',#1297,#1070,#1071);
#872=AXIS2_PLACEMENT_3D('',#1298,#1072,#1073);
#873=DIRECTION('axis',(0.,0.,1.));
#874=DIRECTION('refdir',(1.,0.,0.));
#875=DIRECTION('center_axis',(0.,1.,0.));
#876=DIRECTION('ref_axis',(1.,0.,0.));
#877=DIRECTION('center_axis',(0.,-1.,0.));
#878=DIRECTION('ref_axis',(1.,0.,0.));
#879=DIRECTION('',(0.,-1.,0.));
#880=DIRECTION('center_axis',(0.,-1.,0.));
#881=DIRECTION('ref_axis',(1.,0.,0.));
#882=DIRECTION('center_axis',(0.,1.,0.));
#883=DIRECTION('ref_axis',(1.,0.,0.));
#884=DIRECTION('center_axis',(0.,-1.,0.));
#885=DIRECTION('ref_axis',(1.,0.,0.));
#886=DIRECTION('',(0.,-1.,0.));
#887=DIRECTION('center_axis',(0.,-1.,0.));
#888=DIRECTION('ref_axis',(1.,0.,0.));
#889=DIRECTION('center_axis',(0.,1.,0.));
#890=DIRECTION('ref_axis',(1.,0.,0.));
#891=DIRECTION('center_axis',(0.,-1.,0.));
#892=DIRECTION('ref_axis',(1.,0.,0.));
#893=DIRECTION('',(0.,-1.,0.));
#894=DIRECTION('center_axis',(0.,-1.,0.));
#895=DIRECTION('ref_axis',(1.,0.,0.));
#896=DIRECTION('center_axis',(0.,1.,0.));
#897=DIRECTION('ref_axis',(1.,0.,0.));
#898=DIRECTION('center_axis',(0.,-1.,0.));
#899=DIRECTION('ref_axis',(1.,0.,0.));
#900=DIRECTION('',(0.,-1.,0.));
#901=DIRECTION('center_axis',(0.,-1.,0.));
#902=DIRECTION('ref_axis',(1.,0.,0.));
#903=DIRECTION('center_axis',(0.,1.,0.));
#904=DIRECTION('ref_axis',(1.,0.,0.));
#905=DIRECTION('center_axis',(0.,-1.,0.));
#906=DIRECTION('ref_axis',(1.,0.,0.));
#907=DIRECTION('',(0.,-1.,0.));
#908=DIRECTION('center_axis',(0.,-1.,0.));
#909=DIRECTION('ref_axis',(1.,0.,0.));
#910=DIRECTION('center_axis',(0.,0.,1.));
#911=DIRECTION('ref_axis',(1.,0.,0.));
#912=DIRECTION('',(-1.,0.,0.));
#913=DIRECTION('',(0.,1.,0.));
#914=DIRECTION('',(1.,0.,0.));
#915=DIRECTION('',(0.,1.,0.));
#916=DIRECTION('center_axis',(-1.,0.,0.));
#917=DIRECTION('ref_axis',(0.,0.,1.));
#918=DIRECTION('',(0.,0.,-1.));
#919=DIRECTION('',(0.,0.,1.));
#920=DIRECTION('',(0.,1.,0.));
#921=DIRECTION('center_axis',(0.,0.,1.));
#922=DIRECTION('ref_axis',(1.,0.,0.));
#923=DIRECTION('',(-1.,0.,0.));
#924=DIRECTION('',(1.,0.,0.));
#925=DIRECTION('',(0.,1.,0.));
#926=DIRECTION('center_axis',(1.,0.,0.));
#927=DIRECTION('ref_axis',(0.,0.,-1.));
#928=DIRECTION('',(0.,0.,1.));
#929=DIRECTION('',(0.,0.,-1.));
#930=DIRECTION('',(0.,1.,0.));
#931=DIRECTION('center_axis',(0.,0.,1.));
#932=DIRECTION('ref_axis',(1.,0.,0.));
#933=DIRECTION('',(-1.,0.,0.));
#934=DIRECTION('',(1.,0.,0.));
#935=DIRECTION('',(0.,1.,0.));
#936=DIRECTION('center_axis',(-1.,0.,0.));
#937=DIRECTION('ref_axis',(0.,0.,1.));
#938=DIRECTION('',(0.,0.,-1.));
#939=DIRECTION('',(0.,0.,1.));
#940=DIRECTION('',(0.,1.,0.));
#941=DIRECTION('center_axis',(0.,0.,1.));
#942=DIRECTION('ref_axis',(1.,0.,0.));
#943=DIRECTION('',(-1.,0.,0.));
#944=DIRECTION('',(1.,0.,0.));
#945=DIRECTION('',(0.,1.,0.));
#946=DIRECTION('center_axis',(1.,0.,0.));
#947=DIRECTION('ref_axis',(0.,0.,-1.));
#948=DIRECTION('',(0.,0.,1.));
#949=DIRECTION('',(0.,0.,-1.));
#950=DIRECTION('',(0.,1.,0.));
#951=DIRECTION('center_axis',(0.,0.,1.));
#952=DIRECTION('ref_axis',(1.,0.,0.));
#953=DIRECTION('',(-1.,0.,0.));
#954=DIRECTION('',(1.,0.,0.));
#955=DIRECTION('',(0.,1.,0.));
#956=DIRECTION('center_axis',(-1.,0.,0.));
#957=DIRECTION('ref_axis',(0.,0.,1.));
#958=DIRECTION('',(0.,0.,-1.));
#959=DIRECTION('',(0.,0.,1.));
#960=DIRECTION('',(0.,1.,0.));
#961=DIRECTION('center_axis',(0.,0.,1.));
#962=DIRECTION('ref_axis',(1.,0.,0.));
#963=DIRECTION('',(-1.,0.,0.));
#964=DIRECTION('',(1.,0.,0.));
#965=DIRECTION('',(0.,1.,0.));
#966=DIRECTION('center_axis',(-1.,0.,0.));
#967=DIRECTION('ref_axis',(0.,0.,1.));
#968=DIRECTION('',(0.,0.,1.));
#969=DIRECTION('',(0.,0.,1.));
#970=DIRECTION('',(0.,1.,0.));
#971=DIRECTION('center_axis',(0.,0.,1.));
#972=DIRECTION('ref_axis',(1.,0.,0.));
#973=DIRECTION('',(1.,0.,0.));
#974=DIRECTION('',(1.,0.,0.));
#975=DIRECTION('',(0.,1.,0.));
#976=DIRECTION('center_axis',(-1.,0.,-1.38777878078145E-16));
#977=DIRECTION('ref_axis',(-1.38777878078145E-16,0.,1.));
#978=DIRECTION('',(-1.38777878078145E-16,0.,1.));
#979=DIRECTION('',(-1.38777878078145E-16,0.,1.));
#980=DIRECTION('',(0.,1.,0.));
#981=DIRECTION('center_axis',(0.,0.,-1.));
#982=DIRECTION('ref_axis',(-1.,0.,0.));
#983=DIRECTION('',(-1.,0.,0.));
#984=DIRECTION('',(-1.,0.,0.));
#985=DIRECTION('',(0.,1.,0.));
#986=DIRECTION('center_axis',(-1.,0.,0.));
#987=DIRECTION('ref_axis',(0.,0.,1.));
#988=DIRECTION('',(0.,0.,1.));
#989=DIRECTION('',(0.,0.,1.));
#990=DIRECTION('',(0.,1.,0.));
#991=DIRECTION('center_axis',(-7.40148683083438E-16,0.,1.));
#992=DIRECTION('ref_axis',(1.,0.,7.40148683083438E-16));
#993=DIRECTION('',(1.,0.,7.40148683083438E-16));
#994=DIRECTION('',(1.,0.,7.40148683083438E-16));
#995=DIRECTION('',(0.,1.,0.));
#996=DIRECTION('center_axis',(-1.,0.,0.));
#997=DIRECTION('ref_axis',(0.,0.,1.));
#998=DIRECTION('',(0.,0.,1.));
#999=DIRECTION('',(0.,0.,1.));
#1000=DIRECTION('',(0.,1.,0.));
#1001=DIRECTION('center_axis',(0.,0.,-1.));
#1002=DIRECTION('ref_axis',(-1.,0.,0.));
#1003=DIRECTION('',(-1.,0.,0.));
#1004=DIRECTION('',(-1.,0.,0.));
#1005=DIRECTION('',(0.,1.,0.));
#1006=DIRECTION('center_axis',(-1.,0.,0.));
#1007=DIRECTION('ref_axis',(0.,0.,1.));
#1008=DIRECTION('',(0.,0.,1.));
#1009=DIRECTION('',(0.,0.,1.));
#1010=DIRECTION('',(0.,1.,0.));
#1011=DIRECTION('center_axis',(-6.12323399573678E-17,0.,-1.));
#1012=DIRECTION('ref_axis',(-1.,0.,6.12323399573678E-17));
#1013=DIRECTION('',(-1.,0.,6.12323399573678E-17));
#1014=DIRECTION('',(-1.,0.,6.12323399573678E-17));
#1015=DIRECTION('',(0.,1.,0.));
#1016=DIRECTION('center_axis',(-1.,0.,0.));
#1017=DIRECTION('ref_axis',(0.,0.,1.));
#1018=DIRECTION('',(0.,0.,1.));
#1019=DIRECTION('',(0.,0.,1.));
#1020=DIRECTION('',(0.,1.,0.));
#1021=DIRECTION('center_axis',(0.,0.,-1.));
#1022=DIRECTION('ref_axis',(-1.,0.,0.));
#1023=DIRECTION('',(-1.,0.,0.));
#1024=DIRECTION('',(-1.,0.,0.));
#1025=DIRECTION('',(0.,1.,0.));
#1026=DIRECTION('center_axis',(1.,0.,0.));
#1027=DIRECTION('ref_axis',(0.,0.,-1.));
#1028=DIRECTION('',(0.,0.,-1.));
#1029=DIRECTION('',(0.,0.,-1.));
#1030=DIRECTION('',(0.,1.,0.));
#1031=DIRECTION('center_axis',(-6.12323399573677E-17,0.,-1.));
#1032=DIRECTION('ref_axis',(-1.,0.,6.12323399573677E-17));
#1033=DIRECTION('',(-1.,0.,6.12323399573677E-17));
#1034=DIRECTION('',(-1.,0.,6.12323399573677E-17));
#1035=DIRECTION('',(0.,1.,0.));
#1036=DIRECTION('center_axis',(-1.,0.,0.));
#1037=DIRECTION('ref_axis',(0.,0.,1.));
#1038=DIRECTION('',(0.,0.,1.));
#1039=DIRECTION('',(0.,0.,1.));
#1040=DIRECTION('',(0.,1.,0.));
#1041=DIRECTION('center_axis',(-1.11022302462516E-16,0.,-1.));
#1042=DIRECTION('ref_axis',(-1.,0.,1.11022302462516E-16));
#1043=DIRECTION('',(-1.,0.,1.11022302462516E-16));
#1044=DIRECTION('',(-1.,0.,1.11022302462516E-16));
#1045=DIRECTION('',(0.,1.,0.));
#1046=DIRECTION('center_axis',(1.,0.,0.));
#1047=DIRECTION('ref_axis',(0.,0.,-1.));
#1048=DIRECTION('',(0.,0.,-1.));
#1049=DIRECTION('',(0.,0.,-1.));
#1050=DIRECTION('',(0.,1.,0.));
#1051=DIRECTION('center_axis',(0.,0.,-1.));
#1052=DIRECTION('ref_axis',(-1.,0.,0.));
#1053=DIRECTION('',(-1.,0.,0.));
#1054=DIRECTION('',(-1.,0.,0.));
#1055=DIRECTION('',(0.,1.,0.));
#1056=DIRECTION('center_axis',(-1.,0.,0.));
#1057=DIRECTION('ref_axis',(0.,0.,1.));
#1058=DIRECTION('',(0.,0.,1.));
#1059=DIRECTION('',(0.,0.,1.));
#1060=DIRECTION('',(0.,1.,0.));
#1061=DIRECTION('center_axis',(0.,0.,-1.));
#1062=DIRECTION('ref_axis',(-1.,0.,0.));
#1063=DIRECTION('',(-1.,0.,0.));
#1064=DIRECTION('',(-1.,0.,0.));
#1065=DIRECTION('',(0.,1.,0.));
#1066=DIRECTION('center_axis',(1.,0.,0.));
#1067=DIRECTION('ref_axis',(0.,0.,-1.));
#1068=DIRECTION('',(0.,0.,-1.));
#1069=DIRECTION('',(0.,0.,-1.));
#1070=DIRECTION('center_axis',(0.,1.,0.));
#1071=DIRECTION('ref_axis',(1.,0.,0.));
#1072=DIRECTION('center_axis',(0.,1.,0.));
#1073=DIRECTION('ref_axis',(1.,0.,0.));
#1074=CARTESIAN_POINT('',(0.,0.,0.));
#1075=CARTESIAN_POINT('Origin',(40.0000004470348,0.,30.0000003874302));
#1076=CARTESIAN_POINT('',(38.5000004470348,6.,30.0000003874302));
#1077=CARTESIAN_POINT('Origin',(40.0000004470348,6.,30.0000003874302));
#1078=CARTESIAN_POINT('',(38.5000004470348,0.,30.0000003874302));
#1079=CARTESIAN_POINT('',(38.5000004470348,0.,30.0000003874302));
#1080=CARTESIAN_POINT('Origin',(40.0000004470348,0.,30.0000003874302));
#1081=CARTESIAN_POINT('Origin',(72.000000923872,0.,30.0000003874302));
#1082=CARTESIAN_POINT('',(70.500000923872,6.,30.0000003874302));
#1083=CARTESIAN_POINT('Origin',(72.000000923872,6.,30.0000003874302));
#1084=CARTESIAN_POINT('',(70.500000923872,0.,30.0000003874302));
#1085=CARTESIAN_POINT('',(70.500000923872,0.,30.0000003874302));
#1086=CARTESIAN_POINT('Origin',(72.000000923872,0.,30.0000003874302));
#1087=CARTESIAN_POINT('Origin',(40.000000923872,0.,62.0000009834766));
#1088=CARTESIAN_POINT('',(38.500000923872,6.,62.0000009834766));
#1089=CARTESIAN_POINT('Origin',(40.000000923872,6.,62.0000009834766));
#1090=CARTESIAN_POINT('',(38.500000923872,0.,62.0000009834766));
#1091=CARTESIAN_POINT('',(38.500000923872,0.,62.0000009834766));
#1092=CARTESIAN_POINT('Origin',(40.000000923872,0.,62.0000009834766));
#1093=CARTESIAN_POINT('Origin',(72.000000923872,0.,62.0000009834766));
#1094=CARTESIAN_POINT('',(70.500000923872,6.,62.0000009834766));
#1095=CARTESIAN_POINT('Origin',(72.000000923872,6.,62.0000009834766));
#1096=CARTESIAN_POINT('',(70.500000923872,0.,62.0000009834766));
#1097=CARTESIAN_POINT('',(70.500000923872,0.,62.0000009834766));
#1098=CARTESIAN_POINT('Origin',(72.000000923872,0.,62.0000009834766));
#1099=CARTESIAN_POINT('Origin',(56.,0.,46.));
#1100=CARTESIAN_POINT('',(37.,6.,46.));
#1101=CARTESIAN_POINT('Origin',(56.,6.,46.));
#1102=CARTESIAN_POINT('',(37.,0.,46.));
#1103=CARTESIAN_POINT('',(37.,0.,46.));
#1104=CARTESIAN_POINT('Origin',(56.,0.,46.));
#1105=CARTESIAN_POINT('Origin',(76.,0.,98.));
#1106=CARTESIAN_POINT('',(86.,0.,98.));
#1107=CARTESIAN_POINT('',(76.,0.,98.));
#1108=CARTESIAN_POINT('',(86.,0.,98.));
#1109=CARTESIAN_POINT('',(86.,6.,98.));
#1110=CARTESIAN_POINT('',(86.,0.,98.));
#1111=CARTESIAN_POINT('',(76.,6.,98.));
#1112=CARTESIAN_POINT('',(86.,6.,98.));
#1113=CARTESIAN_POINT('',(76.,0.,98.));
#1114=CARTESIAN_POINT('Origin',(76.,0.,92.));
#1115=CARTESIAN_POINT('',(76.,0.,92.));
#1116=CARTESIAN_POINT('',(76.,0.,98.));
#1117=CARTESIAN_POINT('',(76.,6.,92.));
#1118=CARTESIAN_POINT('',(76.,6.,98.));
#1119=CARTESIAN_POINT('',(76.,0.,92.));
#1120=CARTESIAN_POINT('Origin',(66.,0.,92.));
#1121=CARTESIAN_POINT('',(66.,0.,92.));
#1122=CARTESIAN_POINT('',(76.,0.,92.));
#1123=CARTESIAN_POINT('',(66.,6.,92.));
#1124=CARTESIAN_POINT('',(76.,6.,92.));
#1125=CARTESIAN_POINT('',(66.,0.,92.));
#1126=CARTESIAN_POINT('Origin',(66.,0.,98.));
#1127=CARTESIAN_POINT('',(66.,0.,98.));
#1128=CARTESIAN_POINT('',(66.,0.,92.));
#1129=CARTESIAN_POINT('',(66.,6.,98.));
#1130=CARTESIAN_POINT('',(66.,6.,92.));
#1131=CARTESIAN_POINT('',(66.,0.,98.));
#1132=CARTESIAN_POINT('Origin',(56.,0.,98.));
#1133=CARTESIAN_POINT('',(56.,0.,98.));
#1134=CARTESIAN_POINT('',(66.,0.,98.));
#1135=CARTESIAN_POINT('',(56.,6.,98.));
#1136=CARTESIAN_POINT('',(66.,6.,98.));
#1137=CARTESIAN_POINT('',(56.,0.,98.));
#1138=CARTESIAN_POINT('Origin',(56.,0.,92.));
#1139=CARTESIAN_POINT('',(56.,0.,92.));
#1140=CARTESIAN_POINT('',(56.,0.,98.));
#1141=CARTESIAN_POINT('',(56.,6.,92.));
#1142=CARTESIAN_POINT('',(56.,6.,98.));
#1143=CARTESIAN_POINT('',(56.,0.,92.));
#1144=CARTESIAN_POINT('Origin',(46.,0.,92.));
#1145=CARTESIAN_POINT('',(46.,0.,92.));
#1146=CARTESIAN_POINT('',(56.,0.,92.));
#1147=CARTESIAN_POINT('',(46.,6.,92.));
#1148=CARTESIAN_POINT('',(56.,6.,92.));
#1149=CARTESIAN_POINT('',(46.,0.,92.));
#1150=CARTESIAN_POINT('Origin',(46.,0.,98.));
#1151=CARTESIAN_POINT('',(46.,0.,98.));
#1152=CARTESIAN_POINT('',(46.,0.,92.));
#1153=CARTESIAN_POINT('',(46.,6.,98.));
#1154=CARTESIAN_POINT('',(46.,6.,92.));
#1155=CARTESIAN_POINT('',(46.,0.,98.));
#1156=CARTESIAN_POINT('Origin',(36.,0.,98.));
#1157=CARTESIAN_POINT('',(36.,0.,98.));
#1158=CARTESIAN_POINT('',(46.,0.,98.));
#1159=CARTESIAN_POINT('',(36.,6.,98.));
#1160=CARTESIAN_POINT('',(46.,6.,98.));
#1161=CARTESIAN_POINT('',(36.,0.,98.));
#1162=CARTESIAN_POINT('Origin',(36.,0.,92.));
#1163=CARTESIAN_POINT('',(36.,0.,92.));
#1164=CARTESIAN_POINT('',(36.,0.,98.));
#1165=CARTESIAN_POINT('',(36.,6.,92.));
#1166=CARTESIAN_POINT('',(36.,6.,98.));
#1167=CARTESIAN_POINT('',(36.,0.,92.));
#1168=CARTESIAN_POINT('Origin',(26.,0.,92.));
#1169=CARTESIAN_POINT('',(26.,0.,92.));
#1170=CARTESIAN_POINT('',(36.,0.,92.));
#1171=CARTESIAN_POINT('',(26.,6.,92.));
#1172=CARTESIAN_POINT('',(36.,6.,92.));
#1173=CARTESIAN_POINT('',(26.,0.,92.));
#1174=CARTESIAN_POINT('Origin',(26.,0.,70.));
#1175=CARTESIAN_POINT('',(26.,0.,70.));
#1176=CARTESIAN_POINT('',(26.,0.,70.));
#1177=CARTESIAN_POINT('',(26.,6.,70.));
#1178=CARTESIAN_POINT('',(26.,6.,70.));
#1179=CARTESIAN_POINT('',(26.,0.,70.));
#1180=CARTESIAN_POINT('Origin',(20.,0.,70.));
#1181=CARTESIAN_POINT('',(20.,0.,70.));
#1182=CARTESIAN_POINT('',(20.,0.,70.));
#1183=CARTESIAN_POINT('',(20.,6.,70.));
#1184=CARTESIAN_POINT('',(20.,6.,70.));
#1185=CARTESIAN_POINT('',(20.,0.,70.));
#1186=CARTESIAN_POINT('Origin',(20.,0.,54.));
#1187=CARTESIAN_POINT('',(20.,0.,54.));
#1188=CARTESIAN_POINT('',(20.,0.,54.));
#1189=CARTESIAN_POINT('',(20.,6.,54.));
#1190=CARTESIAN_POINT('',(20.,6.,54.));
#1191=CARTESIAN_POINT('',(20.,0.,54.));
#1192=CARTESIAN_POINT('Origin',(26.,0.,54.));
#1193=CARTESIAN_POINT('',(26.,0.,54.));
#1194=CARTESIAN_POINT('',(26.,0.,54.));
#1195=CARTESIAN_POINT('',(26.,6.,54.));
#1196=CARTESIAN_POINT('',(26.,6.,54.));
#1197=CARTESIAN_POINT('',(26.,0.,54.));
#1198=CARTESIAN_POINT('Origin',(26.,0.,38.));
#1199=CARTESIAN_POINT('',(26.,0.,38.));
#1200=CARTESIAN_POINT('',(26.,0.,38.));
#1201=CARTESIAN_POINT('',(26.,6.,38.));
#1202=CARTESIAN_POINT('',(26.,6.,38.));
#1203=CARTESIAN_POINT('',(26.,0.,38.));
#1204=CARTESIAN_POINT('Origin',(20.,0.,38.));
#1205=CARTESIAN_POINT('',(20.,0.,38.));
#1206=CARTESIAN_POINT('',(20.,0.,38.));
#1207=CARTESIAN_POINT('',(20.,6.,38.));
#1208=CARTESIAN_POINT('',(20.,6.,38.));
#1209=CARTESIAN_POINT('',(20.,0.,38.));
#1210=CARTESIAN_POINT('Origin',(20.,0.,22.));
#1211=CARTESIAN_POINT('',(20.,0.,22.));
#1212=CARTESIAN_POINT('',(20.,0.,22.));
#1213=CARTESIAN_POINT('',(20.,6.,22.));
#1214=CARTESIAN_POINT('',(20.,6.,22.));
#1215=CARTESIAN_POINT('',(20.,0.,22.));
#1216=CARTESIAN_POINT('Origin',(26.,0.,22.));
#1217=CARTESIAN_POINT('',(26.,0.,22.));
#1218=CARTESIAN_POINT('',(26.,0.,22.));
#1219=CARTESIAN_POINT('',(26.,6.,22.));
#1220=CARTESIAN_POINT('',(26.,6.,22.));
#1221=CARTESIAN_POINT('',(26.,0.,22.));
#1222=CARTESIAN_POINT('Origin',(26.,0.,4.56335675651697E-15));
#1223=CARTESIAN_POINT('',(26.,0.,4.56335675651697E-15));
#1224=CARTESIAN_POINT('',(26.,0.,4.56335675651697E-15));
#1225=CARTESIAN_POINT('',(26.,6.,8.88178419700125E-15));
#1226=CARTESIAN_POINT('',(26.,6.,4.56335675651697E-15));
#1227=CARTESIAN_POINT('',(26.,0.,4.56335675651697E-15));
#1228=CARTESIAN_POINT('Origin',(36.,0.,3.95103335694329E-15));
#1229=CARTESIAN_POINT('',(36.,0.,3.95103335694329E-15));
#1230=CARTESIAN_POINT('',(36.,0.,3.95103335694329E-15));
#1231=CARTESIAN_POINT('',(36.,6.,0.));
#1232=CARTESIAN_POINT('',(36.,6.,3.95103335694329E-15));
#1233=CARTESIAN_POINT('',(36.,0.,3.95103335694329E-15));
#1234=CARTESIAN_POINT('Origin',(36.,0.,-6.));
#1235=CARTESIAN_POINT('',(36.,0.,-6.));
#1236=CARTESIAN_POINT('',(36.,0.,-6.));
#1237=CARTESIAN_POINT('',(36.,6.,-6.));
#1238=CARTESIAN_POINT('',(36.,6.,-6.));
#1239=CARTESIAN_POINT('',(36.,0.,-6.));
#1240=CARTESIAN_POINT('Origin',(46.,0.,-6.));
#1241=CARTESIAN_POINT('',(46.,0.,-6.));
#1242=CARTESIAN_POINT('',(46.,0.,-6.));
#1243=CARTESIAN_POINT('',(46.,6.,-6.));
#1244=CARTESIAN_POINT('',(46.,6.,-6.));
#1245=CARTESIAN_POINT('',(46.,0.,-6.));
#1246=CARTESIAN_POINT('Origin',(46.,0.,3.45864367071868E-15));
#1247=CARTESIAN_POINT('',(46.,0.,3.45864367071868E-15));
#1248=CARTESIAN_POINT('',(46.,0.,3.45864367071868E-15));
#1249=CARTESIAN_POINT('',(46.,6.,0.));
#1250=CARTESIAN_POINT('',(46.,6.,3.45864367071868E-15));
#1251=CARTESIAN_POINT('',(46.,0.,3.45864367071868E-15));
#1252=CARTESIAN_POINT('Origin',(56.,0.,2.84632027114501E-15));
#1253=CARTESIAN_POINT('',(56.,0.,2.84632027114501E-15));
#1254=CARTESIAN_POINT('',(56.,0.,2.84632027114501E-15));
#1255=CARTESIAN_POINT('',(56.,6.,0.));
#1256=CARTESIAN_POINT('',(56.,6.,2.84632027114501E-15));
#1257=CARTESIAN_POINT('',(56.,0.,2.84632027114501E-15));
#1258=CARTESIAN_POINT('Origin',(56.,0.,-6.));
#1259=CARTESIAN_POINT('',(56.,0.,-6.));
#1260=CARTESIAN_POINT('',(56.,0.,-6.));
#1261=CARTESIAN_POINT('',(56.,6.,-6.));
#1262=CARTESIAN_POINT('',(56.,6.,-6.));
#1263=CARTESIAN_POINT('',(56.,0.,-6.));
#1264=CARTESIAN_POINT('Origin',(66.,0.,-6.));
#1265=CARTESIAN_POINT('',(66.,0.,-6.));
#1266=CARTESIAN_POINT('',(66.,0.,-6.));
#1267=CARTESIAN_POINT('',(66.,6.,-6.));
#1268=CARTESIAN_POINT('',(66.,6.,-6.));
#1269=CARTESIAN_POINT('',(66.,0.,-6.));
#1270=CARTESIAN_POINT('Origin',(66.,0.,4.44089209850063E-15));
#1271=CARTESIAN_POINT('',(66.,0.,4.44089209850063E-15));
#1272=CARTESIAN_POINT('',(66.,0.,4.44089209850063E-15));
#1273=CARTESIAN_POINT('',(66.,6.,0.));
#1274=CARTESIAN_POINT('',(66.,6.,4.44089209850063E-15));
#1275=CARTESIAN_POINT('',(66.,0.,4.44089209850063E-15));
#1276=CARTESIAN_POINT('Origin',(76.,0.,4.44089209850063E-15));
#1277=CARTESIAN_POINT('',(76.,0.,4.44089209850063E-15));
#1278=CARTESIAN_POINT('',(76.,0.,4.44089209850063E-15));
#1279=CARTESIAN_POINT('',(76.,6.,0.));
#1280=CARTESIAN_POINT('',(76.,6.,4.44089209850063E-15));
#1281=CARTESIAN_POINT('',(76.,0.,4.44089209850063E-15));
#1282=CARTESIAN_POINT('Origin',(76.,0.,-6.));
#1283=CARTESIAN_POINT('',(76.,0.,-6.));
#1284=CARTESIAN_POINT('',(76.,0.,-6.));
#1285=CARTESIAN_POINT('',(76.,6.,-6.));
#1286=CARTESIAN_POINT('',(76.,6.,-6.));
#1287=CARTESIAN_POINT('',(76.,0.,-6.));
#1288=CARTESIAN_POINT('Origin',(86.,0.,-6.));
#1289=CARTESIAN_POINT('',(86.,0.,-6.));
#1290=CARTESIAN_POINT('',(86.,0.,-6.));
#1291=CARTESIAN_POINT('',(86.,6.,-6.));
#1292=CARTESIAN_POINT('',(86.,6.,-6.));
#1293=CARTESIAN_POINT('',(86.,0.,-6.));
#1294=CARTESIAN_POINT('Origin',(86.,0.,98.));
#1295=CARTESIAN_POINT('',(86.,0.,46.));
#1296=CARTESIAN_POINT('',(86.,6.,46.));
#1297=CARTESIAN_POINT('Origin',(53.,6.,46.));
#1298=CARTESIAN_POINT('Origin',(53.,0.,46.));
#1299=UNCERTAINTY_MEASURE_WITH_UNIT(LENGTH_MEASURE(0.01),#1303,
'DISTANCE_ACCURACY_VALUE',
'Maximum model space distance between geometric entities at asserted c
onnectivities');
#1300=UNCERTAINTY_MEASURE_WITH_UNIT(LENGTH_MEASURE(0.01),#1303,
'DISTANCE_ACCURACY_VALUE',
'Maximum model space distance between geometric entities at asserted c
onnectivities');
#1301=(
GEOMETRIC_REPRESENTATION_CONTEXT(3)
GLOBAL_UNCERTAINTY_ASSIGNED_CONTEXT((#1299))
GLOBAL_UNIT_ASSIGNED_CONTEXT((#1303,#1305,#1306))
REPRESENTATION_CONTEXT('','3D')
);
#1302=(
GEOMETRIC_REPRESENTATION_CONTEXT(3)
GLOBAL_UNCERTAINTY_ASSIGNED_CONTEXT((#1300))
GLOBAL_UNIT_ASSIGNED_CONTEXT((#1303,#1305,#1306))
REPRESENTATION_CONTEXT('','3D')
);
#1303=(
LENGTH_UNIT()
NAMED_UNIT(*)
SI_UNIT(.MILLI.,.METRE.)
);
#1304=(
LENGTH_UNIT()
NAMED_UNIT(*)
SI_UNIT($,.METRE.)
);
#1305=(
NAMED_UNIT(*)
PLANE_ANGLE_UNIT()
SI_UNIT($,.RADIAN.)
);
#1306=(
NAMED_UNIT(*)
SI_UNIT($,.STERADIAN.)
SOLID_ANGLE_UNIT()
);
#1307=SHAPE_DEFINITION_REPRESENTATION(#1308,#1309);
#1308=PRODUCT_DEFINITION_SHAPE('',$,#1311);
#1309=SHAPE_REPRESENTATION('',(#823),#1301);
#1310=PRODUCT_DEFINITION_CONTEXT('part definition',#1315,'design');
#1311=PRODUCT_DEFINITION('Lateral esquerda','Lateral esquerda v9',#1312,
#1310);
#1312=PRODUCT_DEFINITION_FORMATION('',$,#1317);
#1313=PRODUCT_RELATED_PRODUCT_CATEGORY('Lateral esquerda v9',
'Lateral esquerda v9',(#1317));
#1314=APPLICATION_PROTOCOL_DEFINITION('international standard',
'automotive_design',2009,#1315);
#1315=APPLICATION_CONTEXT(
'Core Data for Automotive Mechanical Design Process');
#1316=PRODUCT_CONTEXT('part definition',#1315,'mechanical');
#1317=PRODUCT('Lateral esquerda','Lateral esquerda v9',$,(#1316));
#1318=PRESENTATION_STYLE_ASSIGNMENT((#1319));
#1319=SURFACE_STYLE_USAGE(.BOTH.,#1320);
#1320=SURFACE_SIDE_STYLE('',(#1321));
#1321=SURFACE_STYLE_FILL_AREA(#1322);
#1322=FILL_AREA_STYLE('A\X\E7o - Acetinado',(#1323));
#1323=FILL_AREA_STYLE_COLOUR('A\X\E7o - Acetinado',#1324);
#1324=COLOUR_RGB('A\X\E7o - Acetinado',0.627450980392157,0.627450980392157,
0.627450980392157);
ENDSEC;
END-ISO-10303-21;
