ISO-10303-21;
HEADER;
/* Generated by software containing ST-Developer
 * from STEP Tools, Inc. (www.steptools.com) 
 */

FILE_DESCRIPTION(
/* description */ (''),
/* implementation_level */ '2;1');

FILE_NAME(
/* name */ 'Posterior.step',
/* time_stamp */ '2026-04-01T21:05:10-03:00',
/* author */ (''),
/* organization */ (''),
/* preprocessor_version */ 'ST-DEVELOPER v20.1',
/* originating_system */ 'Autodesk Translation Framework v14.24.0.0',
/* authorisation */ '');

FILE_SCHEMA (('AUTOMOTIVE_DESIGN { 1 0 10303 214 3 1 1 }'));
ENDSEC;

DATA;
#10=MECHANICAL_DESIGN_GEOMETRIC_PRESENTATION_REPRESENTATION('',(#13),#1107);
#11=SHAPE_REPRESENTATION_RELATIONSHIP('SRR','None',#1114,#12);
#12=ADVANCED_BREP_SHAPE_REPRESENTATION('',(#14),#1106);
#13=STYLED_ITEM('',(#1123),#14);
#14=MANIFOLD_SOLID_BREP('Corpo1',#695);
#15=FACE_OUTER_BOUND('',#49,.T.);
#16=FACE_OUTER_BOUND('',#50,.T.);
#17=FACE_OUTER_BOUND('',#51,.T.);
#18=FACE_OUTER_BOUND('',#52,.T.);
#19=FACE_OUTER_BOUND('',#53,.T.);
#20=FACE_OUTER_BOUND('',#54,.T.);
#21=FACE_OUTER_BOUND('',#55,.T.);
#22=FACE_OUTER_BOUND('',#56,.T.);
#23=FACE_OUTER_BOUND('',#57,.T.);
#24=FACE_OUTER_BOUND('',#58,.T.);
#25=FACE_OUTER_BOUND('',#59,.T.);
#26=FACE_OUTER_BOUND('',#60,.T.);
#27=FACE_OUTER_BOUND('',#61,.T.);
#28=FACE_OUTER_BOUND('',#62,.T.);
#29=FACE_OUTER_BOUND('',#63,.T.);
#30=FACE_OUTER_BOUND('',#64,.T.);
#31=FACE_OUTER_BOUND('',#65,.T.);
#32=FACE_OUTER_BOUND('',#66,.T.);
#33=FACE_OUTER_BOUND('',#67,.T.);
#34=FACE_OUTER_BOUND('',#68,.T.);
#35=FACE_OUTER_BOUND('',#69,.T.);
#36=FACE_OUTER_BOUND('',#70,.T.);
#37=FACE_OUTER_BOUND('',#71,.T.);
#38=FACE_OUTER_BOUND('',#72,.T.);
#39=FACE_OUTER_BOUND('',#73,.T.);
#40=FACE_OUTER_BOUND('',#74,.T.);
#41=FACE_OUTER_BOUND('',#75,.T.);
#42=FACE_OUTER_BOUND('',#76,.T.);
#43=FACE_OUTER_BOUND('',#77,.T.);
#44=FACE_OUTER_BOUND('',#78,.T.);
#45=FACE_OUTER_BOUND('',#79,.T.);
#46=FACE_OUTER_BOUND('',#80,.T.);
#47=FACE_OUTER_BOUND('',#81,.T.);
#48=FACE_OUTER_BOUND('',#82,.T.);
#49=EDGE_LOOP('',(#435,#436,#437,#438));
#50=EDGE_LOOP('',(#439,#440,#441,#442));
#51=EDGE_LOOP('',(#443,#444,#445,#446));
#52=EDGE_LOOP('',(#447,#448,#449,#450));
#53=EDGE_LOOP('',(#451,#452,#453,#454));
#54=EDGE_LOOP('',(#455,#456,#457,#458));
#55=EDGE_LOOP('',(#459,#460,#461,#462));
#56=EDGE_LOOP('',(#463,#464,#465,#466));
#57=EDGE_LOOP('',(#467,#468,#469,#470));
#58=EDGE_LOOP('',(#471,#472,#473,#474));
#59=EDGE_LOOP('',(#475,#476,#477,#478));
#60=EDGE_LOOP('',(#479,#480,#481,#482));
#61=EDGE_LOOP('',(#483,#484,#485,#486));
#62=EDGE_LOOP('',(#487,#488,#489,#490));
#63=EDGE_LOOP('',(#491,#492,#493,#494));
#64=EDGE_LOOP('',(#495,#496,#497,#498));
#65=EDGE_LOOP('',(#499,#500,#501,#502));
#66=EDGE_LOOP('',(#503,#504,#505,#506));
#67=EDGE_LOOP('',(#507,#508,#509,#510));
#68=EDGE_LOOP('',(#511,#512,#513,#514));
#69=EDGE_LOOP('',(#515,#516,#517,#518));
#70=EDGE_LOOP('',(#519,#520,#521,#522));
#71=EDGE_LOOP('',(#523,#524,#525,#526));
#72=EDGE_LOOP('',(#527,#528,#529,#530));
#73=EDGE_LOOP('',(#531,#532,#533,#534));
#74=EDGE_LOOP('',(#535,#536,#537,#538));
#75=EDGE_LOOP('',(#539,#540,#541,#542));
#76=EDGE_LOOP('',(#543,#544,#545,#546));
#77=EDGE_LOOP('',(#547,#548,#549,#550));
#78=EDGE_LOOP('',(#551,#552,#553,#554));
#79=EDGE_LOOP('',(#555,#556,#557,#558));
#80=EDGE_LOOP('',(#559,#560,#561,#562));
#81=EDGE_LOOP('',(#563,#564,#565,#566,#567,#568,#569,#570,#571,#572,#573,
#574,#575,#576,#577,#578,#579,#580,#581,#582,#583,#584,#585,#586,#587,#588,
#589,#590,#591,#592,#593,#594));
#82=EDGE_LOOP('',(#595,#596,#597,#598,#599,#600,#601,#602,#603,#604,#605,
#606,#607,#608,#609,#610,#611,#612,#613,#614,#615,#616,#617,#618,#619,#620,
#621,#622,#623,#624,#625,#626));
#83=LINE('',#913,#179);
#84=LINE('',#915,#180);
#85=LINE('',#917,#181);
#86=LINE('',#918,#182);
#87=LINE('',#921,#183);
#88=LINE('',#923,#184);
#89=LINE('',#924,#185);
#90=LINE('',#927,#186);
#91=LINE('',#929,#187);
#92=LINE('',#930,#188);
#93=LINE('',#933,#189);
#94=LINE('',#935,#190);
#95=LINE('',#936,#191);
#96=LINE('',#939,#192);
#97=LINE('',#941,#193);
#98=LINE('',#942,#194);
#99=LINE('',#945,#195);
#100=LINE('',#947,#196);
#101=LINE('',#948,#197);
#102=LINE('',#951,#198);
#103=LINE('',#953,#199);
#104=LINE('',#954,#200);
#105=LINE('',#957,#201);
#106=LINE('',#959,#202);
#107=LINE('',#960,#203);
#108=LINE('',#963,#204);
#109=LINE('',#965,#205);
#110=LINE('',#966,#206);
#111=LINE('',#969,#207);
#112=LINE('',#971,#208);
#113=LINE('',#972,#209);
#114=LINE('',#975,#210);
#115=LINE('',#977,#211);
#116=LINE('',#978,#212);
#117=LINE('',#981,#213);
#118=LINE('',#983,#214);
#119=LINE('',#984,#215);
#120=LINE('',#987,#216);
#121=LINE('',#989,#217);
#122=LINE('',#990,#218);
#123=LINE('',#993,#219);
#124=LINE('',#995,#220);
#125=LINE('',#996,#221);
#126=LINE('',#999,#222);
#127=LINE('',#1001,#223);
#128=LINE('',#1002,#224);
#129=LINE('',#1005,#225);
#130=LINE('',#1007,#226);
#131=LINE('',#1008,#227);
#132=LINE('',#1011,#228);
#133=LINE('',#1013,#229);
#134=LINE('',#1014,#230);
#135=LINE('',#1017,#231);
#136=LINE('',#1019,#232);
#137=LINE('',#1020,#233);
#138=LINE('',#1023,#234);
#139=LINE('',#1025,#235);
#140=LINE('',#1026,#236);
#141=LINE('',#1029,#237);
#142=LINE('',#1031,#238);
#143=LINE('',#1032,#239);
#144=LINE('',#1035,#240);
#145=LINE('',#1037,#241);
#146=LINE('',#1038,#242);
#147=LINE('',#1041,#243);
#148=LINE('',#1043,#244);
#149=LINE('',#1044,#245);
#150=LINE('',#1047,#246);
#151=LINE('',#1049,#247);
#152=LINE('',#1050,#248);
#153=LINE('',#1053,#249);
#154=LINE('',#1055,#250);
#155=LINE('',#1056,#251);
#156=LINE('',#1059,#252);
#157=LINE('',#1061,#253);
#158=LINE('',#1062,#254);
#159=LINE('',#1065,#255);
#160=LINE('',#1067,#256);
#161=LINE('',#1068,#257);
#162=LINE('',#1071,#258);
#163=LINE('',#1073,#259);
#164=LINE('',#1074,#260);
#165=LINE('',#1077,#261);
#166=LINE('',#1079,#262);
#167=LINE('',#1080,#263);
#168=LINE('',#1083,#264);
#169=LINE('',#1085,#265);
#170=LINE('',#1086,#266);
#171=LINE('',#1089,#267);
#172=LINE('',#1091,#268);
#173=LINE('',#1092,#269);
#174=LINE('',#1095,#270);
#175=LINE('',#1097,#271);
#176=LINE('',#1098,#272);
#177=LINE('',#1100,#273);
#178=LINE('',#1101,#274);
#179=VECTOR('',#747,10.);
#180=VECTOR('',#748,10.);
#181=VECTOR('',#749,10.);
#182=VECTOR('',#750,10.);
#183=VECTOR('',#753,10.);
#184=VECTOR('',#754,10.);
#185=VECTOR('',#755,10.);
#186=VECTOR('',#758,10.);
#187=VECTOR('',#759,10.);
#188=VECTOR('',#760,10.);
#189=VECTOR('',#763,10.);
#190=VECTOR('',#764,10.);
#191=VECTOR('',#765,10.);
#192=VECTOR('',#768,10.);
#193=VECTOR('',#769,10.);
#194=VECTOR('',#770,10.);
#195=VECTOR('',#773,10.);
#196=VECTOR('',#774,10.);
#197=VECTOR('',#775,10.);
#198=VECTOR('',#778,10.);
#199=VECTOR('',#779,10.);
#200=VECTOR('',#780,10.);
#201=VECTOR('',#783,10.);
#202=VECTOR('',#784,10.);
#203=VECTOR('',#785,10.);
#204=VECTOR('',#788,10.);
#205=VECTOR('',#789,10.);
#206=VECTOR('',#790,10.);
#207=VECTOR('',#793,10.);
#208=VECTOR('',#794,10.);
#209=VECTOR('',#795,10.);
#210=VECTOR('',#798,10.);
#211=VECTOR('',#799,10.);
#212=VECTOR('',#800,10.);
#213=VECTOR('',#803,10.);
#214=VECTOR('',#804,10.);
#215=VECTOR('',#805,10.);
#216=VECTOR('',#808,10.);
#217=VECTOR('',#809,10.);
#218=VECTOR('',#810,10.);
#219=VECTOR('',#813,10.);
#220=VECTOR('',#814,10.);
#221=VECTOR('',#815,10.);
#222=VECTOR('',#818,10.);
#223=VECTOR('',#819,10.);
#224=VECTOR('',#820,10.);
#225=VECTOR('',#823,10.);
#226=VECTOR('',#824,10.);
#227=VECTOR('',#825,10.);
#228=VECTOR('',#828,10.);
#229=VECTOR('',#829,10.);
#230=VECTOR('',#830,10.);
#231=VECTOR('',#833,10.);
#232=VECTOR('',#834,10.);
#233=VECTOR('',#835,10.);
#234=VECTOR('',#838,10.);
#235=VECTOR('',#839,10.);
#236=VECTOR('',#840,10.);
#237=VECTOR('',#843,10.);
#238=VECTOR('',#844,10.);
#239=VECTOR('',#845,10.);
#240=VECTOR('',#848,10.);
#241=VECTOR('',#849,10.);
#242=VECTOR('',#850,10.);
#243=VECTOR('',#853,10.);
#244=VECTOR('',#854,10.);
#245=VECTOR('',#855,10.);
#246=VECTOR('',#858,10.);
#247=VECTOR('',#859,10.);
#248=VECTOR('',#860,10.);
#249=VECTOR('',#863,10.);
#250=VECTOR('',#864,10.);
#251=VECTOR('',#865,10.);
#252=VECTOR('',#868,10.);
#253=VECTOR('',#869,10.);
#254=VECTOR('',#870,10.);
#255=VECTOR('',#873,10.);
#256=VECTOR('',#874,10.);
#257=VECTOR('',#875,10.);
#258=VECTOR('',#878,10.);
#259=VECTOR('',#879,10.);
#260=VECTOR('',#880,10.);
#261=VECTOR('',#883,10.);
#262=VECTOR('',#884,10.);
#263=VECTOR('',#885,10.);
#264=VECTOR('',#888,10.);
#265=VECTOR('',#889,10.);
#266=VECTOR('',#890,10.);
#267=VECTOR('',#893,10.);
#268=VECTOR('',#894,10.);
#269=VECTOR('',#895,10.);
#270=VECTOR('',#898,10.);
#271=VECTOR('',#899,10.);
#272=VECTOR('',#900,10.);
#273=VECTOR('',#903,10.);
#274=VECTOR('',#904,10.);
#275=VERTEX_POINT('',#911);
#276=VERTEX_POINT('',#912);
#277=VERTEX_POINT('',#914);
#278=VERTEX_POINT('',#916);
#279=VERTEX_POINT('',#920);
#280=VERTEX_POINT('',#922);
#281=VERTEX_POINT('',#926);
#282=VERTEX_POINT('',#928);
#283=VERTEX_POINT('',#932);
#284=VERTEX_POINT('',#934);
#285=VERTEX_POINT('',#938);
#286=VERTEX_POINT('',#940);
#287=VERTEX_POINT('',#944);
#288=VERTEX_POINT('',#946);
#289=VERTEX_POINT('',#950);
#290=VERTEX_POINT('',#952);
#291=VERTEX_POINT('',#956);
#292=VERTEX_POINT('',#958);
#293=VERTEX_POINT('',#962);
#294=VERTEX_POINT('',#964);
#295=VERTEX_POINT('',#968);
#296=VERTEX_POINT('',#970);
#297=VERTEX_POINT('',#974);
#298=VERTEX_POINT('',#976);
#299=VERTEX_POINT('',#980);
#300=VERTEX_POINT('',#982);
#301=VERTEX_POINT('',#986);
#302=VERTEX_POINT('',#988);
#303=VERTEX_POINT('',#992);
#304=VERTEX_POINT('',#994);
#305=VERTEX_POINT('',#998);
#306=VERTEX_POINT('',#1000);
#307=VERTEX_POINT('',#1004);
#308=VERTEX_POINT('',#1006);
#309=VERTEX_POINT('',#1010);
#310=VERTEX_POINT('',#1012);
#311=VERTEX_POINT('',#1016);
#312=VERTEX_POINT('',#1018);
#313=VERTEX_POINT('',#1022);
#314=VERTEX_POINT('',#1024);
#315=VERTEX_POINT('',#1028);
#316=VERTEX_POINT('',#1030);
#317=VERTEX_POINT('',#1034);
#318=VERTEX_POINT('',#1036);
#319=VERTEX_POINT('',#1040);
#320=VERTEX_POINT('',#1042);
#321=VERTEX_POINT('',#1046);
#322=VERTEX_POINT('',#1048);
#323=VERTEX_POINT('',#1052);
#324=VERTEX_POINT('',#1054);
#325=VERTEX_POINT('',#1058);
#326=VERTEX_POINT('',#1060);
#327=VERTEX_POINT('',#1064);
#328=VERTEX_POINT('',#1066);
#329=VERTEX_POINT('',#1070);
#330=VERTEX_POINT('',#1072);
#331=VERTEX_POINT('',#1076);
#332=VERTEX_POINT('',#1078);
#333=VERTEX_POINT('',#1082);
#334=VERTEX_POINT('',#1084);
#335=VERTEX_POINT('',#1088);
#336=VERTEX_POINT('',#1090);
#337=VERTEX_POINT('',#1094);
#338=VERTEX_POINT('',#1096);
#339=EDGE_CURVE('',#275,#276,#83,.T.);
#340=EDGE_CURVE('',#275,#277,#84,.T.);
#341=EDGE_CURVE('',#278,#277,#85,.T.);
#342=EDGE_CURVE('',#276,#278,#86,.T.);
#343=EDGE_CURVE('',#279,#276,#87,.T.);
#344=EDGE_CURVE('',#280,#278,#88,.T.);
#345=EDGE_CURVE('',#279,#280,#89,.T.);
#346=EDGE_CURVE('',#281,#279,#90,.T.);
#347=EDGE_CURVE('',#282,#280,#91,.T.);
#348=EDGE_CURVE('',#281,#282,#92,.T.);
#349=EDGE_CURVE('',#281,#283,#93,.T.);
#350=EDGE_CURVE('',#284,#282,#94,.T.);
#351=EDGE_CURVE('',#283,#284,#95,.T.);
#352=EDGE_CURVE('',#283,#285,#96,.T.);
#353=EDGE_CURVE('',#286,#284,#97,.T.);
#354=EDGE_CURVE('',#285,#286,#98,.T.);
#355=EDGE_CURVE('',#285,#287,#99,.T.);
#356=EDGE_CURVE('',#288,#286,#100,.T.);
#357=EDGE_CURVE('',#287,#288,#101,.T.);
#358=EDGE_CURVE('',#287,#289,#102,.T.);
#359=EDGE_CURVE('',#290,#288,#103,.T.);
#360=EDGE_CURVE('',#289,#290,#104,.T.);
#361=EDGE_CURVE('',#289,#291,#105,.T.);
#362=EDGE_CURVE('',#292,#290,#106,.T.);
#363=EDGE_CURVE('',#291,#292,#107,.T.);
#364=EDGE_CURVE('',#291,#293,#108,.T.);
#365=EDGE_CURVE('',#294,#292,#109,.T.);
#366=EDGE_CURVE('',#293,#294,#110,.T.);
#367=EDGE_CURVE('',#293,#295,#111,.T.);
#368=EDGE_CURVE('',#296,#294,#112,.T.);
#369=EDGE_CURVE('',#295,#296,#113,.T.);
#370=EDGE_CURVE('',#295,#297,#114,.T.);
#371=EDGE_CURVE('',#298,#296,#115,.T.);
#372=EDGE_CURVE('',#297,#298,#116,.T.);
#373=EDGE_CURVE('',#297,#299,#117,.T.);
#374=EDGE_CURVE('',#300,#298,#118,.T.);
#375=EDGE_CURVE('',#299,#300,#119,.T.);
#376=EDGE_CURVE('',#299,#301,#120,.T.);
#377=EDGE_CURVE('',#302,#300,#121,.T.);
#378=EDGE_CURVE('',#301,#302,#122,.T.);
#379=EDGE_CURVE('',#301,#303,#123,.T.);
#380=EDGE_CURVE('',#304,#302,#124,.T.);
#381=EDGE_CURVE('',#303,#304,#125,.T.);
#382=EDGE_CURVE('',#303,#305,#126,.T.);
#383=EDGE_CURVE('',#306,#304,#127,.T.);
#384=EDGE_CURVE('',#305,#306,#128,.T.);
#385=EDGE_CURVE('',#305,#307,#129,.T.);
#386=EDGE_CURVE('',#308,#306,#130,.T.);
#387=EDGE_CURVE('',#307,#308,#131,.T.);
#388=EDGE_CURVE('',#307,#309,#132,.T.);
#389=EDGE_CURVE('',#310,#308,#133,.T.);
#390=EDGE_CURVE('',#309,#310,#134,.T.);
#391=EDGE_CURVE('',#309,#311,#135,.T.);
#392=EDGE_CURVE('',#312,#310,#136,.T.);
#393=EDGE_CURVE('',#311,#312,#137,.T.);
#394=EDGE_CURVE('',#311,#313,#138,.T.);
#395=EDGE_CURVE('',#314,#312,#139,.T.);
#396=EDGE_CURVE('',#313,#314,#140,.T.);
#397=EDGE_CURVE('',#313,#315,#141,.T.);
#398=EDGE_CURVE('',#316,#314,#142,.T.);
#399=EDGE_CURVE('',#315,#316,#143,.T.);
#400=EDGE_CURVE('',#315,#317,#144,.T.);
#401=EDGE_CURVE('',#318,#316,#145,.T.);
#402=EDGE_CURVE('',#317,#318,#146,.T.);
#403=EDGE_CURVE('',#319,#317,#147,.T.);
#404=EDGE_CURVE('',#320,#318,#148,.T.);
#405=EDGE_CURVE('',#319,#320,#149,.T.);
#406=EDGE_CURVE('',#321,#319,#150,.T.);
#407=EDGE_CURVE('',#322,#320,#151,.T.);
#408=EDGE_CURVE('',#321,#322,#152,.T.);
#409=EDGE_CURVE('',#323,#321,#153,.T.);
#410=EDGE_CURVE('',#324,#322,#154,.T.);
#411=EDGE_CURVE('',#323,#324,#155,.T.);
#412=EDGE_CURVE('',#325,#323,#156,.T.);
#413=EDGE_CURVE('',#326,#324,#157,.T.);
#414=EDGE_CURVE('',#325,#326,#158,.T.);
#415=EDGE_CURVE('',#327,#325,#159,.T.);
#416=EDGE_CURVE('',#328,#326,#160,.T.);
#417=EDGE_CURVE('',#327,#328,#161,.T.);
#418=EDGE_CURVE('',#329,#327,#162,.T.);
#419=EDGE_CURVE('',#330,#328,#163,.T.);
#420=EDGE_CURVE('',#329,#330,#164,.T.);
#421=EDGE_CURVE('',#331,#329,#165,.T.);
#422=EDGE_CURVE('',#332,#330,#166,.T.);
#423=EDGE_CURVE('',#331,#332,#167,.T.);
#424=EDGE_CURVE('',#333,#331,#168,.T.);
#425=EDGE_CURVE('',#334,#332,#169,.T.);
#426=EDGE_CURVE('',#333,#334,#170,.T.);
#427=EDGE_CURVE('',#335,#333,#171,.T.);
#428=EDGE_CURVE('',#336,#334,#172,.T.);
#429=EDGE_CURVE('',#335,#336,#173,.T.);
#430=EDGE_CURVE('',#337,#335,#174,.T.);
#431=EDGE_CURVE('',#338,#336,#175,.T.);
#432=EDGE_CURVE('',#337,#338,#176,.T.);
#433=EDGE_CURVE('',#275,#337,#177,.T.);
#434=EDGE_CURVE('',#277,#338,#178,.T.);
#435=ORIENTED_EDGE('',*,*,#339,.F.);
#436=ORIENTED_EDGE('',*,*,#340,.T.);
#437=ORIENTED_EDGE('',*,*,#341,.F.);
#438=ORIENTED_EDGE('',*,*,#342,.F.);
#439=ORIENTED_EDGE('',*,*,#343,.T.);
#440=ORIENTED_EDGE('',*,*,#342,.T.);
#441=ORIENTED_EDGE('',*,*,#344,.F.);
#442=ORIENTED_EDGE('',*,*,#345,.F.);
#443=ORIENTED_EDGE('',*,*,#346,.T.);
#444=ORIENTED_EDGE('',*,*,#345,.T.);
#445=ORIENTED_EDGE('',*,*,#347,.F.);
#446=ORIENTED_EDGE('',*,*,#348,.F.);
#447=ORIENTED_EDGE('',*,*,#349,.F.);
#448=ORIENTED_EDGE('',*,*,#348,.T.);
#449=ORIENTED_EDGE('',*,*,#350,.F.);
#450=ORIENTED_EDGE('',*,*,#351,.F.);
#451=ORIENTED_EDGE('',*,*,#352,.F.);
#452=ORIENTED_EDGE('',*,*,#351,.T.);
#453=ORIENTED_EDGE('',*,*,#353,.F.);
#454=ORIENTED_EDGE('',*,*,#354,.F.);
#455=ORIENTED_EDGE('',*,*,#355,.F.);
#456=ORIENTED_EDGE('',*,*,#354,.T.);
#457=ORIENTED_EDGE('',*,*,#356,.F.);
#458=ORIENTED_EDGE('',*,*,#357,.F.);
#459=ORIENTED_EDGE('',*,*,#358,.F.);
#460=ORIENTED_EDGE('',*,*,#357,.T.);
#461=ORIENTED_EDGE('',*,*,#359,.F.);
#462=ORIENTED_EDGE('',*,*,#360,.F.);
#463=ORIENTED_EDGE('',*,*,#361,.F.);
#464=ORIENTED_EDGE('',*,*,#360,.T.);
#465=ORIENTED_EDGE('',*,*,#362,.F.);
#466=ORIENTED_EDGE('',*,*,#363,.F.);
#467=ORIENTED_EDGE('',*,*,#364,.F.);
#468=ORIENTED_EDGE('',*,*,#363,.T.);
#469=ORIENTED_EDGE('',*,*,#365,.F.);
#470=ORIENTED_EDGE('',*,*,#366,.F.);
#471=ORIENTED_EDGE('',*,*,#367,.F.);
#472=ORIENTED_EDGE('',*,*,#366,.T.);
#473=ORIENTED_EDGE('',*,*,#368,.F.);
#474=ORIENTED_EDGE('',*,*,#369,.F.);
#475=ORIENTED_EDGE('',*,*,#370,.F.);
#476=ORIENTED_EDGE('',*,*,#369,.T.);
#477=ORIENTED_EDGE('',*,*,#371,.F.);
#478=ORIENTED_EDGE('',*,*,#372,.F.);
#479=ORIENTED_EDGE('',*,*,#373,.F.);
#480=ORIENTED_EDGE('',*,*,#372,.T.);
#481=ORIENTED_EDGE('',*,*,#374,.F.);
#482=ORIENTED_EDGE('',*,*,#375,.F.);
#483=ORIENTED_EDGE('',*,*,#376,.F.);
#484=ORIENTED_EDGE('',*,*,#375,.T.);
#485=ORIENTED_EDGE('',*,*,#377,.F.);
#486=ORIENTED_EDGE('',*,*,#378,.F.);
#487=ORIENTED_EDGE('',*,*,#379,.F.);
#488=ORIENTED_EDGE('',*,*,#378,.T.);
#489=ORIENTED_EDGE('',*,*,#380,.F.);
#490=ORIENTED_EDGE('',*,*,#381,.F.);
#491=ORIENTED_EDGE('',*,*,#382,.F.);
#492=ORIENTED_EDGE('',*,*,#381,.T.);
#493=ORIENTED_EDGE('',*,*,#383,.F.);
#494=ORIENTED_EDGE('',*,*,#384,.F.);
#495=ORIENTED_EDGE('',*,*,#385,.F.);
#496=ORIENTED_EDGE('',*,*,#384,.T.);
#497=ORIENTED_EDGE('',*,*,#386,.F.);
#498=ORIENTED_EDGE('',*,*,#387,.F.);
#499=ORIENTED_EDGE('',*,*,#388,.F.);
#500=ORIENTED_EDGE('',*,*,#387,.T.);
#501=ORIENTED_EDGE('',*,*,#389,.F.);
#502=ORIENTED_EDGE('',*,*,#390,.F.);
#503=ORIENTED_EDGE('',*,*,#391,.F.);
#504=ORIENTED_EDGE('',*,*,#390,.T.);
#505=ORIENTED_EDGE('',*,*,#392,.F.);
#506=ORIENTED_EDGE('',*,*,#393,.F.);
#507=ORIENTED_EDGE('',*,*,#394,.F.);
#508=ORIENTED_EDGE('',*,*,#393,.T.);
#509=ORIENTED_EDGE('',*,*,#395,.F.);
#510=ORIENTED_EDGE('',*,*,#396,.F.);
#511=ORIENTED_EDGE('',*,*,#397,.F.);
#512=ORIENTED_EDGE('',*,*,#396,.T.);
#513=ORIENTED_EDGE('',*,*,#398,.F.);
#514=ORIENTED_EDGE('',*,*,#399,.F.);
#515=ORIENTED_EDGE('',*,*,#400,.F.);
#516=ORIENTED_EDGE('',*,*,#399,.T.);
#517=ORIENTED_EDGE('',*,*,#401,.F.);
#518=ORIENTED_EDGE('',*,*,#402,.F.);
#519=ORIENTED_EDGE('',*,*,#403,.T.);
#520=ORIENTED_EDGE('',*,*,#402,.T.);
#521=ORIENTED_EDGE('',*,*,#404,.F.);
#522=ORIENTED_EDGE('',*,*,#405,.F.);
#523=ORIENTED_EDGE('',*,*,#406,.T.);
#524=ORIENTED_EDGE('',*,*,#405,.T.);
#525=ORIENTED_EDGE('',*,*,#407,.F.);
#526=ORIENTED_EDGE('',*,*,#408,.F.);
#527=ORIENTED_EDGE('',*,*,#409,.T.);
#528=ORIENTED_EDGE('',*,*,#408,.T.);
#529=ORIENTED_EDGE('',*,*,#410,.F.);
#530=ORIENTED_EDGE('',*,*,#411,.F.);
#531=ORIENTED_EDGE('',*,*,#412,.T.);
#532=ORIENTED_EDGE('',*,*,#411,.T.);
#533=ORIENTED_EDGE('',*,*,#413,.F.);
#534=ORIENTED_EDGE('',*,*,#414,.F.);
#535=ORIENTED_EDGE('',*,*,#415,.T.);
#536=ORIENTED_EDGE('',*,*,#414,.T.);
#537=ORIENTED_EDGE('',*,*,#416,.F.);
#538=ORIENTED_EDGE('',*,*,#417,.F.);
#539=ORIENTED_EDGE('',*,*,#418,.T.);
#540=ORIENTED_EDGE('',*,*,#417,.T.);
#541=ORIENTED_EDGE('',*,*,#419,.F.);
#542=ORIENTED_EDGE('',*,*,#420,.F.);
#543=ORIENTED_EDGE('',*,*,#421,.T.);
#544=ORIENTED_EDGE('',*,*,#420,.T.);
#545=ORIENTED_EDGE('',*,*,#422,.F.);
#546=ORIENTED_EDGE('',*,*,#423,.F.);
#547=ORIENTED_EDGE('',*,*,#424,.T.);
#548=ORIENTED_EDGE('',*,*,#423,.T.);
#549=ORIENTED_EDGE('',*,*,#425,.F.);
#550=ORIENTED_EDGE('',*,*,#426,.F.);
#551=ORIENTED_EDGE('',*,*,#427,.T.);
#552=ORIENTED_EDGE('',*,*,#426,.T.);
#553=ORIENTED_EDGE('',*,*,#428,.F.);
#554=ORIENTED_EDGE('',*,*,#429,.F.);
#555=ORIENTED_EDGE('',*,*,#430,.T.);
#556=ORIENTED_EDGE('',*,*,#429,.T.);
#557=ORIENTED_EDGE('',*,*,#431,.F.);
#558=ORIENTED_EDGE('',*,*,#432,.F.);
#559=ORIENTED_EDGE('',*,*,#433,.T.);
#560=ORIENTED_EDGE('',*,*,#432,.T.);
#561=ORIENTED_EDGE('',*,*,#434,.F.);
#562=ORIENTED_EDGE('',*,*,#340,.F.);
#563=ORIENTED_EDGE('',*,*,#434,.T.);
#564=ORIENTED_EDGE('',*,*,#431,.T.);
#565=ORIENTED_EDGE('',*,*,#428,.T.);
#566=ORIENTED_EDGE('',*,*,#425,.T.);
#567=ORIENTED_EDGE('',*,*,#422,.T.);
#568=ORIENTED_EDGE('',*,*,#419,.T.);
#569=ORIENTED_EDGE('',*,*,#416,.T.);
#570=ORIENTED_EDGE('',*,*,#413,.T.);
#571=ORIENTED_EDGE('',*,*,#410,.T.);
#572=ORIENTED_EDGE('',*,*,#407,.T.);
#573=ORIENTED_EDGE('',*,*,#404,.T.);
#574=ORIENTED_EDGE('',*,*,#401,.T.);
#575=ORIENTED_EDGE('',*,*,#398,.T.);
#576=ORIENTED_EDGE('',*,*,#395,.T.);
#577=ORIENTED_EDGE('',*,*,#392,.T.);
#578=ORIENTED_EDGE('',*,*,#389,.T.);
#579=ORIENTED_EDGE('',*,*,#386,.T.);
#580=ORIENTED_EDGE('',*,*,#383,.T.);
#581=ORIENTED_EDGE('',*,*,#380,.T.);
#582=ORIENTED_EDGE('',*,*,#377,.T.);
#583=ORIENTED_EDGE('',*,*,#374,.T.);
#584=ORIENTED_EDGE('',*,*,#371,.T.);
#585=ORIENTED_EDGE('',*,*,#368,.T.);
#586=ORIENTED_EDGE('',*,*,#365,.T.);
#587=ORIENTED_EDGE('',*,*,#362,.T.);
#588=ORIENTED_EDGE('',*,*,#359,.T.);
#589=ORIENTED_EDGE('',*,*,#356,.T.);
#590=ORIENTED_EDGE('',*,*,#353,.T.);
#591=ORIENTED_EDGE('',*,*,#350,.T.);
#592=ORIENTED_EDGE('',*,*,#347,.T.);
#593=ORIENTED_EDGE('',*,*,#344,.T.);
#594=ORIENTED_EDGE('',*,*,#341,.T.);
#595=ORIENTED_EDGE('',*,*,#433,.F.);
#596=ORIENTED_EDGE('',*,*,#339,.T.);
#597=ORIENTED_EDGE('',*,*,#343,.F.);
#598=ORIENTED_EDGE('',*,*,#346,.F.);
#599=ORIENTED_EDGE('',*,*,#349,.T.);
#600=ORIENTED_EDGE('',*,*,#352,.T.);
#601=ORIENTED_EDGE('',*,*,#355,.T.);
#602=ORIENTED_EDGE('',*,*,#358,.T.);
#603=ORIENTED_EDGE('',*,*,#361,.T.);
#604=ORIENTED_EDGE('',*,*,#364,.T.);
#605=ORIENTED_EDGE('',*,*,#367,.T.);
#606=ORIENTED_EDGE('',*,*,#370,.T.);
#607=ORIENTED_EDGE('',*,*,#373,.T.);
#608=ORIENTED_EDGE('',*,*,#376,.T.);
#609=ORIENTED_EDGE('',*,*,#379,.T.);
#610=ORIENTED_EDGE('',*,*,#382,.T.);
#611=ORIENTED_EDGE('',*,*,#385,.T.);
#612=ORIENTED_EDGE('',*,*,#388,.T.);
#613=ORIENTED_EDGE('',*,*,#391,.T.);
#614=ORIENTED_EDGE('',*,*,#394,.T.);
#615=ORIENTED_EDGE('',*,*,#397,.T.);
#616=ORIENTED_EDGE('',*,*,#400,.T.);
#617=ORIENTED_EDGE('',*,*,#403,.F.);
#618=ORIENTED_EDGE('',*,*,#406,.F.);
#619=ORIENTED_EDGE('',*,*,#409,.F.);
#620=ORIENTED_EDGE('',*,*,#412,.F.);
#621=ORIENTED_EDGE('',*,*,#415,.F.);
#622=ORIENTED_EDGE('',*,*,#418,.F.);
#623=ORIENTED_EDGE('',*,*,#421,.F.);
#624=ORIENTED_EDGE('',*,*,#424,.F.);
#625=ORIENTED_EDGE('',*,*,#427,.F.);
#626=ORIENTED_EDGE('',*,*,#430,.F.);
#627=PLANE('',#709);
#628=PLANE('',#710);
#629=PLANE('',#711);
#630=PLANE('',#712);
#631=PLANE('',#713);
#632=PLANE('',#714);
#633=PLANE('',#715);
#634=PLANE('',#716);
#635=PLANE('',#717);
#636=PLANE('',#718);
#637=PLANE('',#719);
#638=PLANE('',#720);
#639=PLANE('',#721);
#640=PLANE('',#722);
#641=PLANE('',#723);
#642=PLANE('',#724);
#643=PLANE('',#725);
#644=PLANE('',#726);
#645=PLANE('',#727);
#646=PLANE('',#728);
#647=PLANE('',#729);
#648=PLANE('',#730);
#649=PLANE('',#731);
#650=PLANE('',#732);
#651=PLANE('',#733);
#652=PLANE('',#734);
#653=PLANE('',#735);
#654=PLANE('',#736);
#655=PLANE('',#737);
#656=PLANE('',#738);
#657=PLANE('',#739);
#658=PLANE('',#740);
#659=PLANE('',#741);
#660=PLANE('',#742);
#661=ADVANCED_FACE('',(#15),#627,.T.);
#662=ADVANCED_FACE('',(#16),#628,.T.);
#663=ADVANCED_FACE('',(#17),#629,.T.);
#664=ADVANCED_FACE('',(#18),#630,.T.);
#665=ADVANCED_FACE('',(#19),#631,.T.);
#666=ADVANCED_FACE('',(#20),#632,.T.);
#667=ADVANCED_FACE('',(#21),#633,.T.);
#668=ADVANCED_FACE('',(#22),#634,.T.);
#669=ADVANCED_FACE('',(#23),#635,.T.);
#670=ADVANCED_FACE('',(#24),#636,.T.);
#671=ADVANCED_FACE('',(#25),#637,.T.);
#672=ADVANCED_FACE('',(#26),#638,.T.);
#673=ADVANCED_FACE('',(#27),#639,.T.);
#674=ADVANCED_FACE('',(#28),#640,.T.);
#675=ADVANCED_FACE('',(#29),#641,.T.);
#676=ADVANCED_FACE('',(#30),#642,.T.);
#677=ADVANCED_FACE('',(#31),#643,.T.);
#678=ADVANCED_FACE('',(#32),#644,.T.);
#679=ADVANCED_FACE('',(#33),#645,.T.);
#680=ADVANCED_FACE('',(#34),#646,.T.);
#681=ADVANCED_FACE('',(#35),#647,.T.);
#682=ADVANCED_FACE('',(#36),#648,.T.);
#683=ADVANCED_FACE('',(#37),#649,.T.);
#684=ADVANCED_FACE('',(#38),#650,.T.);
#685=ADVANCED_FACE('',(#39),#651,.T.);
#686=ADVANCED_FACE('',(#40),#652,.T.);
#687=ADVANCED_FACE('',(#41),#653,.T.);
#688=ADVANCED_FACE('',(#42),#654,.T.);
#689=ADVANCED_FACE('',(#43),#655,.T.);
#690=ADVANCED_FACE('',(#44),#656,.T.);
#691=ADVANCED_FACE('',(#45),#657,.T.);
#692=ADVANCED_FACE('',(#46),#658,.T.);
#693=ADVANCED_FACE('',(#47),#659,.T.);
#694=ADVANCED_FACE('',(#48),#660,.F.);
#695=CLOSED_SHELL('',(#661,#662,#663,#664,#665,#666,#667,#668,#669,#670,
#671,#672,#673,#674,#675,#676,#677,#678,#679,#680,#681,#682,#683,#684,#685,
#686,#687,#688,#689,#690,#691,#692,#693,#694));
#696=DERIVED_UNIT_ELEMENT(#698,1.);
#697=DERIVED_UNIT_ELEMENT(#1109,-3.);
#698=(
MASS_UNIT()
NAMED_UNIT(*)
SI_UNIT(.KILO.,.GRAM.)
);
#699=DERIVED_UNIT((#696,#697));
#700=MEASURE_REPRESENTATION_ITEM('density measure',
POSITIVE_RATIO_MEASURE(7850.),#699);
#701=PROPERTY_DEFINITION_REPRESENTATION(#706,#703);
#702=PROPERTY_DEFINITION_REPRESENTATION(#707,#704);
#703=REPRESENTATION('material name',(#705),#1106);
#704=REPRESENTATION('density',(#700),#1106);
#705=DESCRIPTIVE_REPRESENTATION_ITEM('A\X\E7o','A\X\E7o');
#706=PROPERTY_DEFINITION('material property','material name',#1116);
#707=PROPERTY_DEFINITION('material property','density of part',#1116);
#708=AXIS2_PLACEMENT_3D('',#909,#743,#744);
#709=AXIS2_PLACEMENT_3D('',#910,#745,#746);
#710=AXIS2_PLACEMENT_3D('',#919,#751,#752);
#711=AXIS2_PLACEMENT_3D('',#925,#756,#757);
#712=AXIS2_PLACEMENT_3D('',#931,#761,#762);
#713=AXIS2_PLACEMENT_3D('',#937,#766,#767);
#714=AXIS2_PLACEMENT_3D('',#943,#771,#772);
#715=AXIS2_PLACEMENT_3D('',#949,#776,#777);
#716=AXIS2_PLACEMENT_3D('',#955,#781,#782);
#717=AXIS2_PLACEMENT_3D('',#961,#786,#787);
#718=AXIS2_PLACEMENT_3D('',#967,#791,#792);
#719=AXIS2_PLACEMENT_3D('',#973,#796,#797);
#720=AXIS2_PLACEMENT_3D('',#979,#801,#802);
#721=AXIS2_PLACEMENT_3D('',#985,#806,#807);
#722=AXIS2_PLACEMENT_3D('',#991,#811,#812);
#723=AXIS2_PLACEMENT_3D('',#997,#816,#817);
#724=AXIS2_PLACEMENT_3D('',#1003,#821,#822);
#725=AXIS2_PLACEMENT_3D('',#1009,#826,#827);
#726=AXIS2_PLACEMENT_3D('',#1015,#831,#832);
#727=AXIS2_PLACEMENT_3D('',#1021,#836,#837);
#728=AXIS2_PLACEMENT_3D('',#1027,#841,#842);
#729=AXIS2_PLACEMENT_3D('',#1033,#846,#847);
#730=AXIS2_PLACEMENT_3D('',#1039,#851,#852);
#731=AXIS2_PLACEMENT_3D('',#1045,#856,#857);
#732=AXIS2_PLACEMENT_3D('',#1051,#861,#862);
#733=AXIS2_PLACEMENT_3D('',#1057,#866,#867);
#734=AXIS2_PLACEMENT_3D('',#1063,#871,#872);
#735=AXIS2_PLACEMENT_3D('',#1069,#876,#877);
#736=AXIS2_PLACEMENT_3D('',#1075,#881,#882);
#737=AXIS2_PLACEMENT_3D('',#1081,#886,#887);
#738=AXIS2_PLACEMENT_3D('',#1087,#891,#892);
#739=AXIS2_PLACEMENT_3D('',#1093,#896,#897);
#740=AXIS2_PLACEMENT_3D('',#1099,#901,#902);
#741=AXIS2_PLACEMENT_3D('',#1102,#905,#906);
#742=AXIS2_PLACEMENT_3D('',#1103,#907,#908);
#743=DIRECTION('axis',(0.,0.,1.));
#744=DIRECTION('refdir',(1.,0.,0.));
#745=DIRECTION('center_axis',(-1.,0.,0.));
#746=DIRECTION('ref_axis',(0.,0.,1.));
#747=DIRECTION('',(0.,0.,-1.));
#748=DIRECTION('',(0.,1.,0.));
#749=DIRECTION('',(0.,0.,1.));
#750=DIRECTION('',(0.,1.,0.));
#751=DIRECTION('center_axis',(0.,0.,-1.));
#752=DIRECTION('ref_axis',(-1.,0.,0.));
#753=DIRECTION('',(-1.,0.,0.));
#754=DIRECTION('',(-1.,0.,0.));
#755=DIRECTION('',(0.,1.,0.));
#756=DIRECTION('center_axis',(1.,0.,0.));
#757=DIRECTION('ref_axis',(0.,0.,-1.));
#758=DIRECTION('',(0.,0.,-1.));
#759=DIRECTION('',(0.,0.,-1.));
#760=DIRECTION('',(0.,1.,0.));
#761=DIRECTION('center_axis',(0.,0.,-1.));
#762=DIRECTION('ref_axis',(-1.,0.,0.));
#763=DIRECTION('',(1.,0.,0.));
#764=DIRECTION('',(-1.,0.,0.));
#765=DIRECTION('',(0.,1.,0.));
#766=DIRECTION('center_axis',(-1.,0.,0.));
#767=DIRECTION('ref_axis',(0.,0.,1.));
#768=DIRECTION('',(0.,0.,-1.));
#769=DIRECTION('',(0.,0.,1.));
#770=DIRECTION('',(0.,1.,0.));
#771=DIRECTION('center_axis',(0.,0.,-1.));
#772=DIRECTION('ref_axis',(-1.,0.,0.));
#773=DIRECTION('',(1.,0.,0.));
#774=DIRECTION('',(-1.,0.,0.));
#775=DIRECTION('',(0.,1.,0.));
#776=DIRECTION('center_axis',(1.,0.,0.));
#777=DIRECTION('ref_axis',(0.,0.,-1.));
#778=DIRECTION('',(0.,0.,1.));
#779=DIRECTION('',(0.,0.,-1.));
#780=DIRECTION('',(0.,1.,0.));
#781=DIRECTION('center_axis',(0.,0.,-1.));
#782=DIRECTION('ref_axis',(-1.,0.,0.));
#783=DIRECTION('',(1.,0.,0.));
#784=DIRECTION('',(-1.,0.,0.));
#785=DIRECTION('',(0.,1.,0.));
#786=DIRECTION('center_axis',(-1.,0.,0.));
#787=DIRECTION('ref_axis',(0.,0.,1.));
#788=DIRECTION('',(0.,0.,-1.));
#789=DIRECTION('',(0.,0.,1.));
#790=DIRECTION('',(0.,1.,0.));
#791=DIRECTION('center_axis',(0.,0.,-1.));
#792=DIRECTION('ref_axis',(-1.,0.,0.));
#793=DIRECTION('',(1.,0.,0.));
#794=DIRECTION('',(-1.,0.,0.));
#795=DIRECTION('',(0.,1.,0.));
#796=DIRECTION('center_axis',(1.,0.,0.));
#797=DIRECTION('ref_axis',(0.,0.,-1.));
#798=DIRECTION('',(0.,0.,1.));
#799=DIRECTION('',(0.,0.,-1.));
#800=DIRECTION('',(0.,1.,0.));
#801=DIRECTION('center_axis',(0.,0.,1.));
#802=DIRECTION('ref_axis',(1.,0.,0.));
#803=DIRECTION('',(-1.,0.,0.));
#804=DIRECTION('',(1.,0.,0.));
#805=DIRECTION('',(0.,1.,0.));
#806=DIRECTION('center_axis',(1.,0.,0.));
#807=DIRECTION('ref_axis',(0.,0.,-1.));
#808=DIRECTION('',(0.,0.,1.));
#809=DIRECTION('',(0.,0.,-1.));
#810=DIRECTION('',(0.,1.,0.));
#811=DIRECTION('center_axis',(7.40148683083436E-16,0.,-1.));
#812=DIRECTION('ref_axis',(-1.,0.,-7.40148683083436E-16));
#813=DIRECTION('',(1.,0.,7.40148683083436E-16));
#814=DIRECTION('',(-1.,0.,-7.40148683083436E-16));
#815=DIRECTION('',(0.,1.,0.));
#816=DIRECTION('center_axis',(1.,0.,0.));
#817=DIRECTION('ref_axis',(0.,0.,-1.));
#818=DIRECTION('',(0.,0.,1.));
#819=DIRECTION('',(0.,0.,-1.));
#820=DIRECTION('',(0.,1.,0.));
#821=DIRECTION('center_axis',(0.,0.,1.));
#822=DIRECTION('ref_axis',(1.,0.,0.));
#823=DIRECTION('',(-1.,0.,0.));
#824=DIRECTION('',(1.,0.,0.));
#825=DIRECTION('',(0.,1.,0.));
#826=DIRECTION('center_axis',(1.,0.,0.));
#827=DIRECTION('ref_axis',(0.,0.,-1.));
#828=DIRECTION('',(0.,0.,1.));
#829=DIRECTION('',(0.,0.,-1.));
#830=DIRECTION('',(0.,1.,0.));
#831=DIRECTION('center_axis',(0.,0.,-1.));
#832=DIRECTION('ref_axis',(-1.,0.,0.));
#833=DIRECTION('',(1.,0.,0.));
#834=DIRECTION('',(-1.,0.,0.));
#835=DIRECTION('',(0.,1.,0.));
#836=DIRECTION('center_axis',(1.,0.,0.));
#837=DIRECTION('ref_axis',(0.,0.,-1.));
#838=DIRECTION('',(0.,0.,1.));
#839=DIRECTION('',(0.,0.,-1.));
#840=DIRECTION('',(0.,1.,0.));
#841=DIRECTION('center_axis',(0.,0.,1.));
#842=DIRECTION('ref_axis',(1.,0.,0.));
#843=DIRECTION('',(-1.,0.,0.));
#844=DIRECTION('',(1.,0.,0.));
#845=DIRECTION('',(0.,1.,0.));
#846=DIRECTION('center_axis',(1.,0.,0.));
#847=DIRECTION('ref_axis',(0.,0.,-1.));
#848=DIRECTION('',(0.,0.,1.));
#849=DIRECTION('',(0.,0.,-1.));
#850=DIRECTION('',(0.,1.,0.));
#851=DIRECTION('center_axis',(-1.24220755411159E-16,0.,1.));
#852=DIRECTION('ref_axis',(1.,0.,1.24220755411159E-16));
#853=DIRECTION('',(1.,0.,1.24220755411159E-16));
#854=DIRECTION('',(1.,0.,1.24220755411159E-16));
#855=DIRECTION('',(0.,1.,0.));
#856=DIRECTION('center_axis',(-1.,0.,0.));
#857=DIRECTION('ref_axis',(0.,0.,1.));
#858=DIRECTION('',(0.,0.,1.));
#859=DIRECTION('',(0.,0.,1.));
#860=DIRECTION('',(0.,1.,0.));
#861=DIRECTION('center_axis',(0.,0.,1.));
#862=DIRECTION('ref_axis',(1.,0.,0.));
#863=DIRECTION('',(1.,0.,0.));
#864=DIRECTION('',(1.,0.,0.));
#865=DIRECTION('',(0.,1.,0.));
#866=DIRECTION('center_axis',(-1.,0.,0.));
#867=DIRECTION('ref_axis',(0.,0.,1.));
#868=DIRECTION('',(0.,0.,1.));
#869=DIRECTION('',(0.,0.,1.));
#870=DIRECTION('',(0.,1.,0.));
#871=DIRECTION('center_axis',(0.,0.,-1.));
#872=DIRECTION('ref_axis',(-1.,0.,0.));
#873=DIRECTION('',(-1.,0.,0.));
#874=DIRECTION('',(-1.,0.,0.));
#875=DIRECTION('',(0.,1.,0.));
#876=DIRECTION('center_axis',(-1.,0.,0.));
#877=DIRECTION('ref_axis',(0.,0.,1.));
#878=DIRECTION('',(0.,0.,1.));
#879=DIRECTION('',(0.,0.,1.));
#880=DIRECTION('',(0.,1.,0.));
#881=DIRECTION('center_axis',(0.,0.,1.));
#882=DIRECTION('ref_axis',(1.,0.,0.));
#883=DIRECTION('',(1.,0.,0.));
#884=DIRECTION('',(1.,0.,0.));
#885=DIRECTION('',(0.,1.,0.));
#886=DIRECTION('center_axis',(-1.,0.,0.));
#887=DIRECTION('ref_axis',(0.,0.,1.));
#888=DIRECTION('',(0.,0.,1.));
#889=DIRECTION('',(0.,0.,1.));
#890=DIRECTION('',(0.,1.,0.));
#891=DIRECTION('center_axis',(0.,0.,-1.));
#892=DIRECTION('ref_axis',(-1.,0.,0.));
#893=DIRECTION('',(-1.,0.,0.));
#894=DIRECTION('',(-1.,0.,0.));
#895=DIRECTION('',(0.,1.,0.));
#896=DIRECTION('center_axis',(-1.,0.,0.));
#897=DIRECTION('ref_axis',(0.,0.,1.));
#898=DIRECTION('',(0.,0.,1.));
#899=DIRECTION('',(0.,0.,1.));
#900=DIRECTION('',(0.,1.,0.));
#901=DIRECTION('center_axis',(0.,0.,1.));
#902=DIRECTION('ref_axis',(1.,0.,0.));
#903=DIRECTION('',(1.,0.,0.));
#904=DIRECTION('',(1.,0.,0.));
#905=DIRECTION('center_axis',(0.,1.,0.));
#906=DIRECTION('ref_axis',(0.,0.,1.));
#907=DIRECTION('center_axis',(0.,1.,0.));
#908=DIRECTION('ref_axis',(1.,0.,0.));
#909=CARTESIAN_POINT('',(0.,0.,0.));
#910=CARTESIAN_POINT('Origin',(45.,0.,0.));
#911=CARTESIAN_POINT('',(45.,0.,16.));
#912=CARTESIAN_POINT('',(45.,0.,0.));
#913=CARTESIAN_POINT('',(45.,0.,16.));
#914=CARTESIAN_POINT('',(45.,6.,16.));
#915=CARTESIAN_POINT('',(45.,0.,16.));
#916=CARTESIAN_POINT('',(45.,6.,0.));
#917=CARTESIAN_POINT('',(45.,6.,16.));
#918=CARTESIAN_POINT('',(45.,0.,0.));
#919=CARTESIAN_POINT('Origin',(81.2,0.,-1.11022302462516E-15));
#920=CARTESIAN_POINT('',(81.2,0.,-1.11022302462516E-15));
#921=CARTESIAN_POINT('',(81.2,0.,-1.11022302462516E-15));
#922=CARTESIAN_POINT('',(81.2,6.,0.));
#923=CARTESIAN_POINT('',(81.2,6.,-1.11022302462516E-15));
#924=CARTESIAN_POINT('',(81.2,0.,-1.11022302462516E-15));
#925=CARTESIAN_POINT('Origin',(81.2,0.,6.));
#926=CARTESIAN_POINT('',(81.2,0.,6.));
#927=CARTESIAN_POINT('',(81.2,0.,6.));
#928=CARTESIAN_POINT('',(81.2,6.,6.));
#929=CARTESIAN_POINT('',(81.2,6.,6.));
#930=CARTESIAN_POINT('',(81.2,0.,6.));
#931=CARTESIAN_POINT('Origin',(118.8,0.,6.));
#932=CARTESIAN_POINT('',(118.8,0.,6.));
#933=CARTESIAN_POINT('',(81.2,0.,6.));
#934=CARTESIAN_POINT('',(118.8,6.,6.));
#935=CARTESIAN_POINT('',(81.2,6.,6.));
#936=CARTESIAN_POINT('',(118.8,0.,6.));
#937=CARTESIAN_POINT('Origin',(118.8,0.,-1.11022302462516E-15));
#938=CARTESIAN_POINT('',(118.8,0.,-1.11022302462516E-15));
#939=CARTESIAN_POINT('',(118.8,0.,6.));
#940=CARTESIAN_POINT('',(118.8,6.,0.));
#941=CARTESIAN_POINT('',(118.8,6.,6.));
#942=CARTESIAN_POINT('',(118.8,0.,-1.11022302462516E-15));
#943=CARTESIAN_POINT('Origin',(156.4,0.,-1.11022302462516E-15));
#944=CARTESIAN_POINT('',(156.4,0.,-1.11022302462516E-15));
#945=CARTESIAN_POINT('',(118.8,0.,-1.11022302462516E-15));
#946=CARTESIAN_POINT('',(156.4,6.,0.));
#947=CARTESIAN_POINT('',(118.8,6.,-1.11022302462516E-15));
#948=CARTESIAN_POINT('',(156.4,0.,-1.11022302462516E-15));
#949=CARTESIAN_POINT('Origin',(156.4,0.,6.));
#950=CARTESIAN_POINT('',(156.4,0.,6.));
#951=CARTESIAN_POINT('',(156.4,0.,-1.11022302462516E-15));
#952=CARTESIAN_POINT('',(156.4,6.,6.));
#953=CARTESIAN_POINT('',(156.4,6.,-1.11022302462516E-15));
#954=CARTESIAN_POINT('',(156.4,0.,6.));
#955=CARTESIAN_POINT('Origin',(194.,0.,6.));
#956=CARTESIAN_POINT('',(194.,0.,6.));
#957=CARTESIAN_POINT('',(156.4,0.,6.));
#958=CARTESIAN_POINT('',(194.,6.,6.));
#959=CARTESIAN_POINT('',(156.4,6.,6.));
#960=CARTESIAN_POINT('',(194.,0.,6.));
#961=CARTESIAN_POINT('Origin',(194.,0.,-1.11022302462516E-15));
#962=CARTESIAN_POINT('',(194.,0.,-1.11022302462516E-15));
#963=CARTESIAN_POINT('',(194.,0.,6.));
#964=CARTESIAN_POINT('',(194.,6.,0.));
#965=CARTESIAN_POINT('',(194.,6.,6.));
#966=CARTESIAN_POINT('',(194.,0.,-1.11022302462516E-15));
#967=CARTESIAN_POINT('Origin',(200.,0.,-1.11022302462516E-15));
#968=CARTESIAN_POINT('',(200.,0.,-1.11022302462516E-15));
#969=CARTESIAN_POINT('',(194.,0.,-1.11022302462516E-15));
#970=CARTESIAN_POINT('',(200.,6.,0.));
#971=CARTESIAN_POINT('',(194.,6.,-1.11022302462516E-15));
#972=CARTESIAN_POINT('',(200.,0.,-1.11022302462516E-15));
#973=CARTESIAN_POINT('Origin',(200.,0.,16.));
#974=CARTESIAN_POINT('',(200.,0.,16.));
#975=CARTESIAN_POINT('',(200.,0.,-1.11022302462516E-15));
#976=CARTESIAN_POINT('',(200.,6.,16.));
#977=CARTESIAN_POINT('',(200.,6.,-1.11022302462516E-15));
#978=CARTESIAN_POINT('',(200.,0.,16.));
#979=CARTESIAN_POINT('Origin',(194.000002980232,0.,16.));
#980=CARTESIAN_POINT('',(194.000002980232,0.,16.));
#981=CARTESIAN_POINT('',(200.,0.,16.));
#982=CARTESIAN_POINT('',(194.000002980232,6.,16.));
#983=CARTESIAN_POINT('',(200.,6.,16.));
#984=CARTESIAN_POINT('',(194.000002980232,0.,16.));
#985=CARTESIAN_POINT('Origin',(194.000002980232,0.,26.));
#986=CARTESIAN_POINT('',(194.000002980232,0.,26.));
#987=CARTESIAN_POINT('',(194.000002980232,0.,16.));
#988=CARTESIAN_POINT('',(194.000002980232,6.,26.));
#989=CARTESIAN_POINT('',(194.000002980232,6.,16.));
#990=CARTESIAN_POINT('',(194.000002980232,0.,26.));
#991=CARTESIAN_POINT('Origin',(200.000002980232,0.,26.));
#992=CARTESIAN_POINT('',(200.000002980232,0.,26.));
#993=CARTESIAN_POINT('',(194.000002980232,0.,26.));
#994=CARTESIAN_POINT('',(200.000002980232,6.,26.));
#995=CARTESIAN_POINT('',(194.000002980232,6.,26.));
#996=CARTESIAN_POINT('',(200.000002980232,0.,26.));
#997=CARTESIAN_POINT('Origin',(200.000002980232,0.,36.));
#998=CARTESIAN_POINT('',(200.000002980232,0.,36.));
#999=CARTESIAN_POINT('',(200.000002980232,0.,26.));
#1000=CARTESIAN_POINT('',(200.000002980232,6.,36.));
#1001=CARTESIAN_POINT('',(200.000002980232,6.,26.));
#1002=CARTESIAN_POINT('',(200.000002980232,0.,36.));
#1003=CARTESIAN_POINT('Origin',(194.000002980232,0.,36.));
#1004=CARTESIAN_POINT('',(194.000002980232,0.,36.));
#1005=CARTESIAN_POINT('',(200.000002980232,0.,36.));
#1006=CARTESIAN_POINT('',(194.000002980232,6.,36.));
#1007=CARTESIAN_POINT('',(200.000002980232,6.,36.));
#1008=CARTESIAN_POINT('',(194.000002980232,0.,36.));
#1009=CARTESIAN_POINT('Origin',(194.000002980232,0.,46.));
#1010=CARTESIAN_POINT('',(194.000002980232,0.,46.));
#1011=CARTESIAN_POINT('',(194.000002980232,0.,36.));
#1012=CARTESIAN_POINT('',(194.000002980232,6.,46.));
#1013=CARTESIAN_POINT('',(194.000002980232,6.,36.));
#1014=CARTESIAN_POINT('',(194.000002980232,0.,46.));
#1015=CARTESIAN_POINT('Origin',(200.000002980232,0.,46.));
#1016=CARTESIAN_POINT('',(200.000002980232,0.,46.));
#1017=CARTESIAN_POINT('',(194.000002980232,0.,46.));
#1018=CARTESIAN_POINT('',(200.000002980232,6.,46.));
#1019=CARTESIAN_POINT('',(194.000002980232,6.,46.));
#1020=CARTESIAN_POINT('',(200.000002980232,0.,46.));
#1021=CARTESIAN_POINT('Origin',(200.000002980232,0.,56.));
#1022=CARTESIAN_POINT('',(200.000002980232,0.,56.));
#1023=CARTESIAN_POINT('',(200.000002980232,0.,46.));
#1024=CARTESIAN_POINT('',(200.000002980232,6.,56.));
#1025=CARTESIAN_POINT('',(200.000002980232,6.,46.));
#1026=CARTESIAN_POINT('',(200.000002980232,0.,56.));
#1027=CARTESIAN_POINT('Origin',(194.000002980232,0.,56.));
#1028=CARTESIAN_POINT('',(194.000002980232,0.,56.));
#1029=CARTESIAN_POINT('',(200.000002980232,0.,56.));
#1030=CARTESIAN_POINT('',(194.000002980232,6.,56.));
#1031=CARTESIAN_POINT('',(200.000002980232,6.,56.));
#1032=CARTESIAN_POINT('',(194.000002980232,0.,56.));
#1033=CARTESIAN_POINT('Origin',(194.000002980232,0.,66.));
#1034=CARTESIAN_POINT('',(194.000002980232,0.,66.));
#1035=CARTESIAN_POINT('',(194.000002980232,0.,56.));
#1036=CARTESIAN_POINT('',(194.000002980232,6.,66.));
#1037=CARTESIAN_POINT('',(194.000002980232,6.,56.));
#1038=CARTESIAN_POINT('',(194.000002980232,0.,66.));
#1039=CARTESIAN_POINT('Origin',(51.,0.,66.));
#1040=CARTESIAN_POINT('',(51.,0.,66.));
#1041=CARTESIAN_POINT('',(51.,0.,66.));
#1042=CARTESIAN_POINT('',(51.,6.,66.));
#1043=CARTESIAN_POINT('',(51.,6.,66.));
#1044=CARTESIAN_POINT('',(51.,0.,66.));
#1045=CARTESIAN_POINT('Origin',(51.,0.,56.));
#1046=CARTESIAN_POINT('',(51.,0.,56.));
#1047=CARTESIAN_POINT('',(51.,0.,56.));
#1048=CARTESIAN_POINT('',(51.,6.,56.));
#1049=CARTESIAN_POINT('',(51.,6.,56.));
#1050=CARTESIAN_POINT('',(51.,0.,56.));
#1051=CARTESIAN_POINT('Origin',(45.,0.,56.));
#1052=CARTESIAN_POINT('',(45.,0.,56.));
#1053=CARTESIAN_POINT('',(45.,0.,56.));
#1054=CARTESIAN_POINT('',(45.,6.,56.));
#1055=CARTESIAN_POINT('',(45.,6.,56.));
#1056=CARTESIAN_POINT('',(45.,0.,56.));
#1057=CARTESIAN_POINT('Origin',(45.,0.,46.));
#1058=CARTESIAN_POINT('',(45.,0.,46.));
#1059=CARTESIAN_POINT('',(45.,0.,46.));
#1060=CARTESIAN_POINT('',(45.,6.,46.));
#1061=CARTESIAN_POINT('',(45.,6.,46.));
#1062=CARTESIAN_POINT('',(45.,0.,46.));
#1063=CARTESIAN_POINT('Origin',(51.,0.,46.));
#1064=CARTESIAN_POINT('',(51.,0.,46.));
#1065=CARTESIAN_POINT('',(51.,0.,46.));
#1066=CARTESIAN_POINT('',(51.,6.,46.));
#1067=CARTESIAN_POINT('',(51.,6.,46.));
#1068=CARTESIAN_POINT('',(51.,0.,46.));
#1069=CARTESIAN_POINT('Origin',(51.,0.,36.));
#1070=CARTESIAN_POINT('',(51.,0.,36.));
#1071=CARTESIAN_POINT('',(51.,0.,36.));
#1072=CARTESIAN_POINT('',(51.,6.,36.));
#1073=CARTESIAN_POINT('',(51.,6.,36.));
#1074=CARTESIAN_POINT('',(51.,0.,36.));
#1075=CARTESIAN_POINT('Origin',(45.,0.,36.));
#1076=CARTESIAN_POINT('',(45.,0.,36.));
#1077=CARTESIAN_POINT('',(45.,0.,36.));
#1078=CARTESIAN_POINT('',(45.,6.,36.));
#1079=CARTESIAN_POINT('',(45.,6.,36.));
#1080=CARTESIAN_POINT('',(45.,0.,36.));
#1081=CARTESIAN_POINT('Origin',(45.,0.,26.));
#1082=CARTESIAN_POINT('',(45.,0.,26.));
#1083=CARTESIAN_POINT('',(45.,0.,26.));
#1084=CARTESIAN_POINT('',(45.,6.,26.));
#1085=CARTESIAN_POINT('',(45.,6.,26.));
#1086=CARTESIAN_POINT('',(45.,0.,26.));
#1087=CARTESIAN_POINT('Origin',(51.,0.,26.));
#1088=CARTESIAN_POINT('',(51.,0.,26.));
#1089=CARTESIAN_POINT('',(51.,0.,26.));
#1090=CARTESIAN_POINT('',(51.,6.,26.));
#1091=CARTESIAN_POINT('',(51.,6.,26.));
#1092=CARTESIAN_POINT('',(51.,0.,26.));
#1093=CARTESIAN_POINT('Origin',(51.,0.,16.));
#1094=CARTESIAN_POINT('',(51.,0.,16.));
#1095=CARTESIAN_POINT('',(51.,0.,16.));
#1096=CARTESIAN_POINT('',(51.,6.,16.));
#1097=CARTESIAN_POINT('',(51.,6.,16.));
#1098=CARTESIAN_POINT('',(51.,0.,16.));
#1099=CARTESIAN_POINT('Origin',(45.,0.,16.));
#1100=CARTESIAN_POINT('',(45.,0.,16.));
#1101=CARTESIAN_POINT('',(45.,6.,16.));
#1102=CARTESIAN_POINT('Origin',(122.500001490116,6.,33.));
#1103=CARTESIAN_POINT('Origin',(122.500001490116,0.,33.));
#1104=UNCERTAINTY_MEASURE_WITH_UNIT(LENGTH_MEASURE(0.01),#1108,
'DISTANCE_ACCURACY_VALUE',
'Maximum model space distance between geometric entities at asserted c
onnectivities');
#1105=UNCERTAINTY_MEASURE_WITH_UNIT(LENGTH_MEASURE(0.01),#1108,
'DISTANCE_ACCURACY_VALUE',
'Maximum model space distance between geometric entities at asserted c
onnectivities');
#1106=(
GEOMETRIC_REPRESENTATION_CONTEXT(3)
GLOBAL_UNCERTAINTY_ASSIGNED_CONTEXT((#1104))
GLOBAL_UNIT_ASSIGNED_CONTEXT((#1108,#1110,#1111))
REPRESENTATION_CONTEXT('','3D')
);
#1107=(
GEOMETRIC_REPRESENTATION_CONTEXT(3)
GLOBAL_UNCERTAINTY_ASSIGNED_CONTEXT((#1105))
GLOBAL_UNIT_ASSIGNED_CONTEXT((#1108,#1110,#1111))
REPRESENTATION_CONTEXT('','3D')
);
#1108=(
LENGTH_UNIT()
NAMED_UNIT(*)
SI_UNIT(.MILLI.,.METRE.)
);
#1109=(
LENGTH_UNIT()
NAMED_UNIT(*)
SI_UNIT($,.METRE.)
);
#1110=(
NAMED_UNIT(*)
PLANE_ANGLE_UNIT()
SI_UNIT($,.RADIAN.)
);
#1111=(
NAMED_UNIT(*)
SI_UNIT($,.STERADIAN.)
SOLID_ANGLE_UNIT()
);
#1112=SHAPE_DEFINITION_REPRESENTATION(#1113,#1114);
#1113=PRODUCT_DEFINITION_SHAPE('',$,#1116);
#1114=SHAPE_REPRESENTATION('',(#708),#1106);
#1115=PRODUCT_DEFINITION_CONTEXT('part definition',#1120,'design');
#1116=PRODUCT_DEFINITION('Posterior_1','Posterior_1 v4',#1117,#1115);
#1117=PRODUCT_DEFINITION_FORMATION('',$,#1122);
#1118=PRODUCT_RELATED_PRODUCT_CATEGORY('Posterior_1 v4',
'Posterior_1 v4',(#1122));
#1119=APPLICATION_PROTOCOL_DEFINITION('international standard',
'automotive_design',2009,#1120);
#1120=APPLICATION_CONTEXT(
'Core Data for Automotive Mechanical Design Process');
#1121=PRODUCT_CONTEXT('part definition',#1120,'mechanical');
#1122=PRODUCT('Posterior_1','Posterior_1 v4',$,(#1121));
#1123=PRESENTATION_STYLE_ASSIGNMENT((#1124));
#1124=SURFACE_STYLE_USAGE(.BOTH.,#1125);
#1125=SURFACE_SIDE_STYLE('',(#1126));
#1126=SURFACE_STYLE_FILL_AREA(#1127);
#1127=FILL_AREA_STYLE('A\X\E7o - Acetinado',(#1128));
#1128=FILL_AREA_STYLE_COLOUR('A\X\E7o - Acetinado',#1129);
#1129=COLOUR_RGB('A\X\E7o - Acetinado',0.627450980392157,0.627450980392157,
0.627450980392157);
ENDSEC;
END-ISO-10303-21;
