ISO-10303-21;
HEADER;
/* Generated by software containing ST-Developer
 * from STEP Tools, Inc. (www.steptools.com) 
 */

FILE_DESCRIPTION(
/* description */ (''),
/* implementation_level */ '2;1');

FILE_NAME(
/* name */ 'P .step',
/* time_stamp */ '2026-04-01T20:32:33-03:00',
/* author */ (''),
/* organization */ (''),
/* preprocessor_version */ 'ST-DEVELOPER v20.1',
/* originating_system */ 'Autodesk Translation Framework v14.24.0.0',
/* authorisation */ '');

FILE_SCHEMA (('AUTOMOTIVE_DESIGN { 1 0 10303 214 3 1 1 }'));
ENDSEC;

DATA;
#10=MECHANICAL_DESIGN_GEOMETRIC_PRESENTATION_REPRESENTATION('',(#13),#831);
#11=SHAPE_REPRESENTATION_RELATIONSHIP('SRR','None',#838,#12);
#12=ADVANCED_BREP_SHAPE_REPRESENTATION('',(#14),#830);
#13=STYLED_ITEM('',(#847),#14);
#14=MANIFOLD_SOLID_BREP('Corpo1',#511);
#15=FACE_BOUND('',#76,.T.);
#16=FACE_BOUND('',#80,.T.);
#17=FACE_BOUND('',#87,.T.);
#18=FACE_BOUND('',#90,.T.);
#19=FACE_BOUND('',#95,.T.);
#20=FACE_BOUND('',#96,.T.);
#21=FACE_BOUND('',#100,.T.);
#22=FACE_BOUND('',#101,.T.);
#23=PLANE('',#531);
#24=PLANE('',#532);
#25=PLANE('',#533);
#26=PLANE('',#534);
#27=PLANE('',#535);
#28=PLANE('',#536);
#29=PLANE('',#537);
#30=PLANE('',#538);
#31=PLANE('',#539);
#32=PLANE('',#546);
#33=PLANE('',#547);
#34=PLANE('',#548);
#35=PLANE('',#549);
#36=PLANE('',#550);
#37=PLANE('',#551);
#38=PLANE('',#552);
#39=PLANE('',#553);
#40=PLANE('',#554);
#41=PLANE('',#555);
#42=PLANE('',#556);
#43=PLANE('',#557);
#44=PLANE('',#558);
#45=FACE_OUTER_BOUND('',#71,.T.);
#46=FACE_OUTER_BOUND('',#72,.T.);
#47=FACE_OUTER_BOUND('',#73,.T.);
#48=FACE_OUTER_BOUND('',#74,.T.);
#49=FACE_OUTER_BOUND('',#75,.T.);
#50=FACE_OUTER_BOUND('',#77,.T.);
#51=FACE_OUTER_BOUND('',#78,.T.);
#52=FACE_OUTER_BOUND('',#79,.T.);
#53=FACE_OUTER_BOUND('',#81,.T.);
#54=FACE_OUTER_BOUND('',#82,.T.);
#55=FACE_OUTER_BOUND('',#83,.T.);
#56=FACE_OUTER_BOUND('',#84,.T.);
#57=FACE_OUTER_BOUND('',#85,.T.);
#58=FACE_OUTER_BOUND('',#86,.T.);
#59=FACE_OUTER_BOUND('',#88,.T.);
#60=FACE_OUTER_BOUND('',#89,.T.);
#61=FACE_OUTER_BOUND('',#91,.T.);
#62=FACE_OUTER_BOUND('',#92,.T.);
#63=FACE_OUTER_BOUND('',#93,.T.);
#64=FACE_OUTER_BOUND('',#94,.T.);
#65=FACE_OUTER_BOUND('',#97,.T.);
#66=FACE_OUTER_BOUND('',#98,.T.);
#67=FACE_OUTER_BOUND('',#99,.T.);
#68=FACE_OUTER_BOUND('',#102,.T.);
#69=FACE_OUTER_BOUND('',#103,.T.);
#70=FACE_OUTER_BOUND('',#104,.T.);
#71=EDGE_LOOP('',(#345,#346,#347,#348));
#72=EDGE_LOOP('',(#349,#350,#351,#352));
#73=EDGE_LOOP('',(#353,#354,#355,#356));
#74=EDGE_LOOP('',(#357,#358,#359,#360));
#75=EDGE_LOOP('',(#361,#362,#363,#364));
#76=EDGE_LOOP('',(#365));
#77=EDGE_LOOP('',(#366,#367,#368,#369));
#78=EDGE_LOOP('',(#370,#371,#372,#373,#374,#375,#376,#377,#378,#379,#380,
#381,#382,#383));
#79=EDGE_LOOP('',(#384,#385,#386,#387));
#80=EDGE_LOOP('',(#388));
#81=EDGE_LOOP('',(#389,#390,#391,#392));
#82=EDGE_LOOP('',(#393,#394,#395,#396));
#83=EDGE_LOOP('',(#397,#398,#399,#400));
#84=EDGE_LOOP('',(#401,#402,#403,#404));
#85=EDGE_LOOP('',(#405,#406,#407,#408));
#86=EDGE_LOOP('',(#409,#410,#411,#412));
#87=EDGE_LOOP('',(#413));
#88=EDGE_LOOP('',(#414,#415,#416,#417));
#89=EDGE_LOOP('',(#418,#419,#420,#421));
#90=EDGE_LOOP('',(#422));
#91=EDGE_LOOP('',(#423,#424,#425,#426));
#92=EDGE_LOOP('',(#427,#428,#429,#430));
#93=EDGE_LOOP('',(#431,#432,#433,#434));
#94=EDGE_LOOP('',(#435,#436,#437,#438,#439,#440,#441,#442));
#95=EDGE_LOOP('',(#443));
#96=EDGE_LOOP('',(#444));
#97=EDGE_LOOP('',(#445,#446,#447,#448));
#98=EDGE_LOOP('',(#449,#450,#451,#452));
#99=EDGE_LOOP('',(#453,#454,#455,#456));
#100=EDGE_LOOP('',(#457));
#101=EDGE_LOOP('',(#458));
#102=EDGE_LOOP('',(#459,#460,#461,#462));
#103=EDGE_LOOP('',(#463,#464,#465,#466));
#104=EDGE_LOOP('',(#467,#468,#469,#470,#471,#472,#473,#474,#475,#476,#477,
#478,#479,#480));
#105=LINE('',#694,#165);
#106=LINE('',#700,#166);
#107=LINE('',#705,#167);
#108=LINE('',#707,#168);
#109=LINE('',#709,#169);
#110=LINE('',#710,#170);
#111=LINE('',#714,#171);
#112=LINE('',#716,#172);
#113=LINE('',#718,#173);
#114=LINE('',#719,#174);
#115=LINE('',#721,#175);
#116=LINE('',#722,#176);
#117=LINE('',#724,#177);
#118=LINE('',#727,#178);
#119=LINE('',#729,#179);
#120=LINE('',#731,#180);
#121=LINE('',#733,#181);
#122=LINE('',#735,#182);
#123=LINE('',#737,#183);
#124=LINE('',#739,#184);
#125=LINE('',#741,#185);
#126=LINE('',#743,#186);
#127=LINE('',#745,#187);
#128=LINE('',#746,#188);
#129=LINE('',#750,#189);
#130=LINE('',#752,#190);
#131=LINE('',#754,#191);
#132=LINE('',#755,#192);
#133=LINE('',#758,#193);
#134=LINE('',#760,#194);
#135=LINE('',#761,#195);
#136=LINE('',#764,#196);
#137=LINE('',#766,#197);
#138=LINE('',#767,#198);
#139=LINE('',#769,#199);
#140=LINE('',#774,#200);
#141=LINE('',#780,#201);
#142=LINE('',#784,#202);
#143=LINE('',#786,#203);
#144=LINE('',#787,#204);
#145=LINE('',#791,#205);
#146=LINE('',#792,#206);
#147=LINE('',#793,#207);
#148=LINE('',#796,#208);
#149=LINE('',#797,#209);
#150=LINE('',#800,#210);
#151=LINE('',#801,#211);
#152=LINE('',#804,#212);
#153=LINE('',#805,#213);
#154=LINE('',#808,#214);
#155=LINE('',#809,#215);
#156=LINE('',#811,#216);
#157=LINE('',#812,#217);
#158=LINE('',#815,#218);
#159=LINE('',#816,#219);
#160=LINE('',#818,#220);
#161=LINE('',#820,#221);
#162=LINE('',#823,#222);
#163=LINE('',#824,#223);
#164=LINE('',#826,#224);
#165=VECTOR('',#565,2.1);
#166=VECTOR('',#572,2.1);
#167=VECTOR('',#577,10.);
#168=VECTOR('',#578,10.);
#169=VECTOR('',#579,10.);
#170=VECTOR('',#580,10.);
#171=VECTOR('',#583,10.);
#172=VECTOR('',#584,10.);
#173=VECTOR('',#585,10.);
#174=VECTOR('',#586,10.);
#175=VECTOR('',#589,10.);
#176=VECTOR('',#590,10.);
#177=VECTOR('',#593,10.);
#178=VECTOR('',#596,10.);
#179=VECTOR('',#597,10.);
#180=VECTOR('',#598,10.);
#181=VECTOR('',#599,10.);
#182=VECTOR('',#600,10.);
#183=VECTOR('',#601,10.);
#184=VECTOR('',#602,10.);
#185=VECTOR('',#603,10.);
#186=VECTOR('',#604,10.);
#187=VECTOR('',#605,10.);
#188=VECTOR('',#606,10.);
#189=VECTOR('',#609,10.);
#190=VECTOR('',#610,10.);
#191=VECTOR('',#611,10.);
#192=VECTOR('',#612,10.);
#193=VECTOR('',#615,10.);
#194=VECTOR('',#616,10.);
#195=VECTOR('',#617,10.);
#196=VECTOR('',#620,10.);
#197=VECTOR('',#621,10.);
#198=VECTOR('',#622,10.);
#199=VECTOR('',#625,10.);
#200=VECTOR('',#630,2.5);
#201=VECTOR('',#637,2.5);
#202=VECTOR('',#642,10.);
#203=VECTOR('',#643,10.);
#204=VECTOR('',#644,10.);
#205=VECTOR('',#647,10.);
#206=VECTOR('',#648,10.);
#207=VECTOR('',#649,10.);
#208=VECTOR('',#652,10.);
#209=VECTOR('',#653,10.);
#210=VECTOR('',#656,10.);
#211=VECTOR('',#657,10.);
#212=VECTOR('',#660,10.);
#213=VECTOR('',#661,10.);
#214=VECTOR('',#664,10.);
#215=VECTOR('',#665,10.);
#216=VECTOR('',#668,10.);
#217=VECTOR('',#669,10.);
#218=VECTOR('',#672,10.);
#219=VECTOR('',#673,10.);
#220=VECTOR('',#676,10.);
#221=VECTOR('',#679,10.);
#222=VECTOR('',#682,10.);
#223=VECTOR('',#683,10.);
#224=VECTOR('',#686,10.);
#225=CIRCLE('',#526,2.1);
#226=CIRCLE('',#527,2.1);
#227=CIRCLE('',#529,2.1);
#228=CIRCLE('',#530,2.1);
#229=CIRCLE('',#541,2.5);
#230=CIRCLE('',#542,2.5);
#231=CIRCLE('',#544,2.5);
#232=CIRCLE('',#545,2.5);
#233=VERTEX_POINT('',#691);
#234=VERTEX_POINT('',#693);
#235=VERTEX_POINT('',#697);
#236=VERTEX_POINT('',#699);
#237=VERTEX_POINT('',#703);
#238=VERTEX_POINT('',#704);
#239=VERTEX_POINT('',#706);
#240=VERTEX_POINT('',#708);
#241=VERTEX_POINT('',#712);
#242=VERTEX_POINT('',#713);
#243=VERTEX_POINT('',#715);
#244=VERTEX_POINT('',#717);
#245=VERTEX_POINT('',#726);
#246=VERTEX_POINT('',#728);
#247=VERTEX_POINT('',#730);
#248=VERTEX_POINT('',#732);
#249=VERTEX_POINT('',#734);
#250=VERTEX_POINT('',#736);
#251=VERTEX_POINT('',#738);
#252=VERTEX_POINT('',#740);
#253=VERTEX_POINT('',#742);
#254=VERTEX_POINT('',#744);
#255=VERTEX_POINT('',#748);
#256=VERTEX_POINT('',#749);
#257=VERTEX_POINT('',#751);
#258=VERTEX_POINT('',#753);
#259=VERTEX_POINT('',#757);
#260=VERTEX_POINT('',#759);
#261=VERTEX_POINT('',#763);
#262=VERTEX_POINT('',#765);
#263=VERTEX_POINT('',#771);
#264=VERTEX_POINT('',#773);
#265=VERTEX_POINT('',#777);
#266=VERTEX_POINT('',#779);
#267=VERTEX_POINT('',#783);
#268=VERTEX_POINT('',#785);
#269=VERTEX_POINT('',#789);
#270=VERTEX_POINT('',#790);
#271=VERTEX_POINT('',#795);
#272=VERTEX_POINT('',#799);
#273=VERTEX_POINT('',#803);
#274=VERTEX_POINT('',#807);
#275=VERTEX_POINT('',#814);
#276=VERTEX_POINT('',#822);
#277=EDGE_CURVE('',#233,#233,#225,.T.);
#278=EDGE_CURVE('',#233,#234,#105,.T.);
#279=EDGE_CURVE('',#234,#234,#226,.T.);
#280=EDGE_CURVE('',#235,#235,#227,.T.);
#281=EDGE_CURVE('',#235,#236,#106,.T.);
#282=EDGE_CURVE('',#236,#236,#228,.T.);
#283=EDGE_CURVE('',#237,#238,#107,.T.);
#284=EDGE_CURVE('',#237,#239,#108,.T.);
#285=EDGE_CURVE('',#240,#239,#109,.T.);
#286=EDGE_CURVE('',#238,#240,#110,.T.);
#287=EDGE_CURVE('',#241,#242,#111,.T.);
#288=EDGE_CURVE('',#241,#243,#112,.T.);
#289=EDGE_CURVE('',#244,#243,#113,.T.);
#290=EDGE_CURVE('',#242,#244,#114,.T.);
#291=EDGE_CURVE('',#242,#237,#115,.T.);
#292=EDGE_CURVE('',#239,#244,#116,.T.);
#293=EDGE_CURVE('',#243,#240,#117,.T.);
#294=EDGE_CURVE('',#245,#238,#118,.T.);
#295=EDGE_CURVE('',#246,#245,#119,.T.);
#296=EDGE_CURVE('',#247,#246,#120,.T.);
#297=EDGE_CURVE('',#248,#247,#121,.T.);
#298=EDGE_CURVE('',#249,#248,#122,.T.);
#299=EDGE_CURVE('',#249,#250,#123,.T.);
#300=EDGE_CURVE('',#251,#250,#124,.T.);
#301=EDGE_CURVE('',#252,#251,#125,.T.);
#302=EDGE_CURVE('',#253,#252,#126,.T.);
#303=EDGE_CURVE('',#253,#254,#127,.T.);
#304=EDGE_CURVE('',#241,#254,#128,.T.);
#305=EDGE_CURVE('',#255,#256,#129,.T.);
#306=EDGE_CURVE('',#255,#257,#130,.T.);
#307=EDGE_CURVE('',#258,#257,#131,.T.);
#308=EDGE_CURVE('',#256,#258,#132,.T.);
#309=EDGE_CURVE('',#256,#259,#133,.T.);
#310=EDGE_CURVE('',#260,#258,#134,.T.);
#311=EDGE_CURVE('',#259,#260,#135,.T.);
#312=EDGE_CURVE('',#261,#255,#136,.T.);
#313=EDGE_CURVE('',#261,#262,#137,.T.);
#314=EDGE_CURVE('',#257,#262,#138,.T.);
#315=EDGE_CURVE('',#262,#260,#139,.T.);
#316=EDGE_CURVE('',#263,#263,#229,.T.);
#317=EDGE_CURVE('',#263,#264,#140,.T.);
#318=EDGE_CURVE('',#264,#264,#230,.T.);
#319=EDGE_CURVE('',#265,#265,#231,.T.);
#320=EDGE_CURVE('',#265,#266,#141,.T.);
#321=EDGE_CURVE('',#266,#266,#232,.T.);
#322=EDGE_CURVE('',#252,#267,#142,.T.);
#323=EDGE_CURVE('',#268,#251,#143,.T.);
#324=EDGE_CURVE('',#267,#268,#144,.T.);
#325=EDGE_CURVE('',#269,#270,#145,.T.);
#326=EDGE_CURVE('',#270,#249,#146,.T.);
#327=EDGE_CURVE('',#248,#269,#147,.T.);
#328=EDGE_CURVE('',#271,#247,#148,.T.);
#329=EDGE_CURVE('',#269,#271,#149,.T.);
#330=EDGE_CURVE('',#272,#268,#150,.T.);
#331=EDGE_CURVE('',#250,#272,#151,.T.);
#332=EDGE_CURVE('',#246,#273,#152,.T.);
#333=EDGE_CURVE('',#271,#273,#153,.T.);
#334=EDGE_CURVE('',#274,#267,#154,.T.);
#335=EDGE_CURVE('',#253,#274,#155,.T.);
#336=EDGE_CURVE('',#241,#259,#156,.T.);
#337=EDGE_CURVE('',#238,#261,#157,.T.);
#338=EDGE_CURVE('',#275,#261,#158,.T.);
#339=EDGE_CURVE('',#245,#275,#159,.T.);
#340=EDGE_CURVE('',#273,#275,#160,.T.);
#341=EDGE_CURVE('',#272,#270,#161,.T.);
#342=EDGE_CURVE('',#276,#274,#162,.T.);
#343=EDGE_CURVE('',#254,#276,#163,.T.);
#344=EDGE_CURVE('',#259,#276,#164,.T.);
#345=ORIENTED_EDGE('',*,*,#277,.F.);
#346=ORIENTED_EDGE('',*,*,#278,.T.);
#347=ORIENTED_EDGE('',*,*,#279,.F.);
#348=ORIENTED_EDGE('',*,*,#278,.F.);
#349=ORIENTED_EDGE('',*,*,#280,.F.);
#350=ORIENTED_EDGE('',*,*,#281,.T.);
#351=ORIENTED_EDGE('',*,*,#282,.F.);
#352=ORIENTED_EDGE('',*,*,#281,.F.);
#353=ORIENTED_EDGE('',*,*,#283,.F.);
#354=ORIENTED_EDGE('',*,*,#284,.T.);
#355=ORIENTED_EDGE('',*,*,#285,.F.);
#356=ORIENTED_EDGE('',*,*,#286,.F.);
#357=ORIENTED_EDGE('',*,*,#287,.F.);
#358=ORIENTED_EDGE('',*,*,#288,.T.);
#359=ORIENTED_EDGE('',*,*,#289,.F.);
#360=ORIENTED_EDGE('',*,*,#290,.F.);
#361=ORIENTED_EDGE('',*,*,#291,.F.);
#362=ORIENTED_EDGE('',*,*,#290,.T.);
#363=ORIENTED_EDGE('',*,*,#292,.F.);
#364=ORIENTED_EDGE('',*,*,#284,.F.);
#365=ORIENTED_EDGE('',*,*,#282,.T.);
#366=ORIENTED_EDGE('',*,*,#292,.T.);
#367=ORIENTED_EDGE('',*,*,#289,.T.);
#368=ORIENTED_EDGE('',*,*,#293,.T.);
#369=ORIENTED_EDGE('',*,*,#285,.T.);
#370=ORIENTED_EDGE('',*,*,#287,.T.);
#371=ORIENTED_EDGE('',*,*,#291,.T.);
#372=ORIENTED_EDGE('',*,*,#283,.T.);
#373=ORIENTED_EDGE('',*,*,#294,.F.);
#374=ORIENTED_EDGE('',*,*,#295,.F.);
#375=ORIENTED_EDGE('',*,*,#296,.F.);
#376=ORIENTED_EDGE('',*,*,#297,.F.);
#377=ORIENTED_EDGE('',*,*,#298,.F.);
#378=ORIENTED_EDGE('',*,*,#299,.T.);
#379=ORIENTED_EDGE('',*,*,#300,.F.);
#380=ORIENTED_EDGE('',*,*,#301,.F.);
#381=ORIENTED_EDGE('',*,*,#302,.F.);
#382=ORIENTED_EDGE('',*,*,#303,.T.);
#383=ORIENTED_EDGE('',*,*,#304,.F.);
#384=ORIENTED_EDGE('',*,*,#305,.F.);
#385=ORIENTED_EDGE('',*,*,#306,.T.);
#386=ORIENTED_EDGE('',*,*,#307,.F.);
#387=ORIENTED_EDGE('',*,*,#308,.F.);
#388=ORIENTED_EDGE('',*,*,#279,.T.);
#389=ORIENTED_EDGE('',*,*,#309,.F.);
#390=ORIENTED_EDGE('',*,*,#308,.T.);
#391=ORIENTED_EDGE('',*,*,#310,.F.);
#392=ORIENTED_EDGE('',*,*,#311,.F.);
#393=ORIENTED_EDGE('',*,*,#312,.F.);
#394=ORIENTED_EDGE('',*,*,#313,.T.);
#395=ORIENTED_EDGE('',*,*,#314,.F.);
#396=ORIENTED_EDGE('',*,*,#306,.F.);
#397=ORIENTED_EDGE('',*,*,#314,.T.);
#398=ORIENTED_EDGE('',*,*,#315,.T.);
#399=ORIENTED_EDGE('',*,*,#310,.T.);
#400=ORIENTED_EDGE('',*,*,#307,.T.);
#401=ORIENTED_EDGE('',*,*,#316,.F.);
#402=ORIENTED_EDGE('',*,*,#317,.T.);
#403=ORIENTED_EDGE('',*,*,#318,.F.);
#404=ORIENTED_EDGE('',*,*,#317,.F.);
#405=ORIENTED_EDGE('',*,*,#319,.F.);
#406=ORIENTED_EDGE('',*,*,#320,.T.);
#407=ORIENTED_EDGE('',*,*,#321,.F.);
#408=ORIENTED_EDGE('',*,*,#320,.F.);
#409=ORIENTED_EDGE('',*,*,#322,.F.);
#410=ORIENTED_EDGE('',*,*,#301,.T.);
#411=ORIENTED_EDGE('',*,*,#323,.F.);
#412=ORIENTED_EDGE('',*,*,#324,.F.);
#413=ORIENTED_EDGE('',*,*,#316,.T.);
#414=ORIENTED_EDGE('',*,*,#325,.T.);
#415=ORIENTED_EDGE('',*,*,#326,.T.);
#416=ORIENTED_EDGE('',*,*,#298,.T.);
#417=ORIENTED_EDGE('',*,*,#327,.T.);
#418=ORIENTED_EDGE('',*,*,#328,.F.);
#419=ORIENTED_EDGE('',*,*,#329,.F.);
#420=ORIENTED_EDGE('',*,*,#327,.F.);
#421=ORIENTED_EDGE('',*,*,#297,.T.);
#422=ORIENTED_EDGE('',*,*,#319,.T.);
#423=ORIENTED_EDGE('',*,*,#330,.T.);
#424=ORIENTED_EDGE('',*,*,#323,.T.);
#425=ORIENTED_EDGE('',*,*,#300,.T.);
#426=ORIENTED_EDGE('',*,*,#331,.T.);
#427=ORIENTED_EDGE('',*,*,#328,.T.);
#428=ORIENTED_EDGE('',*,*,#296,.T.);
#429=ORIENTED_EDGE('',*,*,#332,.T.);
#430=ORIENTED_EDGE('',*,*,#333,.F.);
#431=ORIENTED_EDGE('',*,*,#322,.T.);
#432=ORIENTED_EDGE('',*,*,#334,.F.);
#433=ORIENTED_EDGE('',*,*,#335,.F.);
#434=ORIENTED_EDGE('',*,*,#302,.T.);
#435=ORIENTED_EDGE('',*,*,#336,.T.);
#436=ORIENTED_EDGE('',*,*,#311,.T.);
#437=ORIENTED_EDGE('',*,*,#315,.F.);
#438=ORIENTED_EDGE('',*,*,#313,.F.);
#439=ORIENTED_EDGE('',*,*,#337,.F.);
#440=ORIENTED_EDGE('',*,*,#286,.T.);
#441=ORIENTED_EDGE('',*,*,#293,.F.);
#442=ORIENTED_EDGE('',*,*,#288,.F.);
#443=ORIENTED_EDGE('',*,*,#277,.T.);
#444=ORIENTED_EDGE('',*,*,#280,.T.);
#445=ORIENTED_EDGE('',*,*,#294,.T.);
#446=ORIENTED_EDGE('',*,*,#337,.T.);
#447=ORIENTED_EDGE('',*,*,#338,.F.);
#448=ORIENTED_EDGE('',*,*,#339,.F.);
#449=ORIENTED_EDGE('',*,*,#295,.T.);
#450=ORIENTED_EDGE('',*,*,#339,.T.);
#451=ORIENTED_EDGE('',*,*,#340,.F.);
#452=ORIENTED_EDGE('',*,*,#332,.F.);
#453=ORIENTED_EDGE('',*,*,#299,.F.);
#454=ORIENTED_EDGE('',*,*,#326,.F.);
#455=ORIENTED_EDGE('',*,*,#341,.F.);
#456=ORIENTED_EDGE('',*,*,#331,.F.);
#457=ORIENTED_EDGE('',*,*,#318,.T.);
#458=ORIENTED_EDGE('',*,*,#321,.T.);
#459=ORIENTED_EDGE('',*,*,#303,.F.);
#460=ORIENTED_EDGE('',*,*,#335,.T.);
#461=ORIENTED_EDGE('',*,*,#342,.F.);
#462=ORIENTED_EDGE('',*,*,#343,.F.);
#463=ORIENTED_EDGE('',*,*,#304,.T.);
#464=ORIENTED_EDGE('',*,*,#343,.T.);
#465=ORIENTED_EDGE('',*,*,#344,.F.);
#466=ORIENTED_EDGE('',*,*,#336,.F.);
#467=ORIENTED_EDGE('',*,*,#309,.T.);
#468=ORIENTED_EDGE('',*,*,#344,.T.);
#469=ORIENTED_EDGE('',*,*,#342,.T.);
#470=ORIENTED_EDGE('',*,*,#334,.T.);
#471=ORIENTED_EDGE('',*,*,#324,.T.);
#472=ORIENTED_EDGE('',*,*,#330,.F.);
#473=ORIENTED_EDGE('',*,*,#341,.T.);
#474=ORIENTED_EDGE('',*,*,#325,.F.);
#475=ORIENTED_EDGE('',*,*,#329,.T.);
#476=ORIENTED_EDGE('',*,*,#333,.T.);
#477=ORIENTED_EDGE('',*,*,#340,.T.);
#478=ORIENTED_EDGE('',*,*,#338,.T.);
#479=ORIENTED_EDGE('',*,*,#312,.T.);
#480=ORIENTED_EDGE('',*,*,#305,.T.);
#481=CYLINDRICAL_SURFACE('',#525,2.1);
#482=CYLINDRICAL_SURFACE('',#528,2.1);
#483=CYLINDRICAL_SURFACE('',#540,2.5);
#484=CYLINDRICAL_SURFACE('',#543,2.5);
#485=ADVANCED_FACE('',(#45),#481,.F.);
#486=ADVANCED_FACE('',(#46),#482,.F.);
#487=ADVANCED_FACE('',(#47),#23,.T.);
#488=ADVANCED_FACE('',(#48),#24,.T.);
#489=ADVANCED_FACE('',(#49,#15),#25,.T.);
#490=ADVANCED_FACE('',(#50),#26,.T.);
#491=ADVANCED_FACE('',(#51),#27,.F.);
#492=ADVANCED_FACE('',(#52,#16),#28,.T.);
#493=ADVANCED_FACE('',(#53),#29,.T.);
#494=ADVANCED_FACE('',(#54),#30,.T.);
#495=ADVANCED_FACE('',(#55),#31,.T.);
#496=ADVANCED_FACE('',(#56),#483,.F.);
#497=ADVANCED_FACE('',(#57),#484,.F.);
#498=ADVANCED_FACE('',(#58,#17),#32,.T.);
#499=ADVANCED_FACE('',(#59),#33,.T.);
#500=ADVANCED_FACE('',(#60,#18),#34,.T.);
#501=ADVANCED_FACE('',(#61),#35,.T.);
#502=ADVANCED_FACE('',(#62),#36,.T.);
#503=ADVANCED_FACE('',(#63),#37,.T.);
#504=ADVANCED_FACE('',(#64,#19,#20),#38,.T.);
#505=ADVANCED_FACE('',(#65),#39,.T.);
#506=ADVANCED_FACE('',(#66),#40,.T.);
#507=ADVANCED_FACE('',(#67,#21,#22),#41,.T.);
#508=ADVANCED_FACE('',(#68),#42,.T.);
#509=ADVANCED_FACE('',(#69),#43,.T.);
#510=ADVANCED_FACE('',(#70),#44,.T.);
#511=CLOSED_SHELL('',(#485,#486,#487,#488,#489,#490,#491,#492,#493,#494,
#495,#496,#497,#498,#499,#500,#501,#502,#503,#504,#505,#506,#507,#508,#509,
#510));
#512=DERIVED_UNIT_ELEMENT(#514,1.);
#513=DERIVED_UNIT_ELEMENT(#833,-3.);
#514=(
MASS_UNIT()
NAMED_UNIT(*)
SI_UNIT(.KILO.,.GRAM.)
);
#515=DERIVED_UNIT((#512,#513));
#516=MEASURE_REPRESENTATION_ITEM('density measure',
POSITIVE_RATIO_MEASURE(7850.),#515);
#517=PROPERTY_DEFINITION_REPRESENTATION(#522,#519);
#518=PROPERTY_DEFINITION_REPRESENTATION(#523,#520);
#519=REPRESENTATION('material name',(#521),#830);
#520=REPRESENTATION('density',(#516),#830);
#521=DESCRIPTIVE_REPRESENTATION_ITEM('A\X\E7o','A\X\E7o');
#522=PROPERTY_DEFINITION('material property','material name',#840);
#523=PROPERTY_DEFINITION('material property','density of part',#840);
#524=AXIS2_PLACEMENT_3D('',#689,#559,#560);
#525=AXIS2_PLACEMENT_3D('',#690,#561,#562);
#526=AXIS2_PLACEMENT_3D('',#692,#563,#564);
#527=AXIS2_PLACEMENT_3D('',#695,#566,#567);
#528=AXIS2_PLACEMENT_3D('',#696,#568,#569);
#529=AXIS2_PLACEMENT_3D('',#698,#570,#571);
#530=AXIS2_PLACEMENT_3D('',#701,#573,#574);
#531=AXIS2_PLACEMENT_3D('',#702,#575,#576);
#532=AXIS2_PLACEMENT_3D('',#711,#581,#582);
#533=AXIS2_PLACEMENT_3D('',#720,#587,#588);
#534=AXIS2_PLACEMENT_3D('',#723,#591,#592);
#535=AXIS2_PLACEMENT_3D('',#725,#594,#595);
#536=AXIS2_PLACEMENT_3D('',#747,#607,#608);
#537=AXIS2_PLACEMENT_3D('',#756,#613,#614);
#538=AXIS2_PLACEMENT_3D('',#762,#618,#619);
#539=AXIS2_PLACEMENT_3D('',#768,#623,#624);
#540=AXIS2_PLACEMENT_3D('',#770,#626,#627);
#541=AXIS2_PLACEMENT_3D('',#772,#628,#629);
#542=AXIS2_PLACEMENT_3D('',#775,#631,#632);
#543=AXIS2_PLACEMENT_3D('',#776,#633,#634);
#544=AXIS2_PLACEMENT_3D('',#778,#635,#636);
#545=AXIS2_PLACEMENT_3D('',#781,#638,#639);
#546=AXIS2_PLACEMENT_3D('',#782,#640,#641);
#547=AXIS2_PLACEMENT_3D('',#788,#645,#646);
#548=AXIS2_PLACEMENT_3D('',#794,#650,#651);
#549=AXIS2_PLACEMENT_3D('',#798,#654,#655);
#550=AXIS2_PLACEMENT_3D('',#802,#658,#659);
#551=AXIS2_PLACEMENT_3D('',#806,#662,#663);
#552=AXIS2_PLACEMENT_3D('',#810,#666,#667);
#553=AXIS2_PLACEMENT_3D('',#813,#670,#671);
#554=AXIS2_PLACEMENT_3D('',#817,#674,#675);
#555=AXIS2_PLACEMENT_3D('',#819,#677,#678);
#556=AXIS2_PLACEMENT_3D('',#821,#680,#681);
#557=AXIS2_PLACEMENT_3D('',#825,#684,#685);
#558=AXIS2_PLACEMENT_3D('',#827,#687,#688);
#559=DIRECTION('axis',(0.,0.,1.));
#560=DIRECTION('refdir',(1.,0.,0.));
#561=DIRECTION('center_axis',(0.,-1.,0.));
#562=DIRECTION('ref_axis',(-1.,0.,0.));
#563=DIRECTION('center_axis',(1.09923071745065E-16,-1.,0.));
#564=DIRECTION('ref_axis',(-1.,0.,0.));
#565=DIRECTION('',(0.,-1.,0.));
#566=DIRECTION('center_axis',(0.,1.,0.));
#567=DIRECTION('ref_axis',(-1.,0.,0.));
#568=DIRECTION('center_axis',(0.,-1.,0.));
#569=DIRECTION('ref_axis',(-1.,0.,0.));
#570=DIRECTION('center_axis',(1.09923071745065E-16,-1.,0.));
#571=DIRECTION('ref_axis',(-1.,0.,0.));
#572=DIRECTION('',(0.,-1.,0.));
#573=DIRECTION('center_axis',(0.,1.,0.));
#574=DIRECTION('ref_axis',(-1.,0.,0.));
#575=DIRECTION('center_axis',(1.,0.,0.));
#576=DIRECTION('ref_axis',(0.,-1.,0.));
#577=DIRECTION('',(0.,1.,0.));
#578=DIRECTION('',(0.,0.,-1.));
#579=DIRECTION('',(0.,-1.,0.));
#580=DIRECTION('',(0.,0.,-1.));
#581=DIRECTION('center_axis',(-1.,0.,0.));
#582=DIRECTION('ref_axis',(0.,1.,0.));
#583=DIRECTION('',(0.,-1.,0.));
#584=DIRECTION('',(0.,0.,-1.));
#585=DIRECTION('',(0.,1.,0.));
#586=DIRECTION('',(0.,0.,-1.));
#587=DIRECTION('center_axis',(0.,-1.,0.));
#588=DIRECTION('ref_axis',(-1.,0.,0.));
#589=DIRECTION('',(1.,0.,0.));
#590=DIRECTION('',(-1.,0.,0.));
#591=DIRECTION('center_axis',(0.,0.,-1.));
#592=DIRECTION('ref_axis',(-1.,0.,0.));
#593=DIRECTION('',(1.,0.,0.));
#594=DIRECTION('center_axis',(0.,0.,1.));
#595=DIRECTION('ref_axis',(1.,0.,0.));
#596=DIRECTION('',(0.,-1.,0.));
#597=DIRECTION('',(-1.,0.,0.));
#598=DIRECTION('',(0.,1.,0.));
#599=DIRECTION('',(-1.,0.,0.));
#600=DIRECTION('',(0.,1.,0.));
#601=DIRECTION('',(-1.,0.,0.));
#602=DIRECTION('',(0.,-1.,0.));
#603=DIRECTION('',(-1.,0.,0.));
#604=DIRECTION('',(0.,-1.,0.));
#605=DIRECTION('',(1.,0.,0.));
#606=DIRECTION('',(0.,1.,0.));
#607=DIRECTION('center_axis',(0.,-1.,0.));
#608=DIRECTION('ref_axis',(1.,0.,0.));
#609=DIRECTION('',(-1.,0.,0.));
#610=DIRECTION('',(0.,0.,1.));
#611=DIRECTION('',(1.,0.,0.));
#612=DIRECTION('',(0.,0.,1.));
#613=DIRECTION('center_axis',(-1.,0.,0.));
#614=DIRECTION('ref_axis',(0.,-1.,0.));
#615=DIRECTION('',(0.,1.,0.));
#616=DIRECTION('',(0.,-1.,0.));
#617=DIRECTION('',(0.,0.,1.));
#618=DIRECTION('center_axis',(1.,0.,0.));
#619=DIRECTION('ref_axis',(0.,1.,0.));
#620=DIRECTION('',(0.,-1.,0.));
#621=DIRECTION('',(0.,0.,1.));
#622=DIRECTION('',(0.,1.,0.));
#623=DIRECTION('center_axis',(0.,0.,1.));
#624=DIRECTION('ref_axis',(1.,0.,0.));
#625=DIRECTION('',(-1.,0.,0.));
#626=DIRECTION('center_axis',(0.,-1.,0.));
#627=DIRECTION('ref_axis',(-1.,0.,0.));
#628=DIRECTION('center_axis',(0.,-1.,0.));
#629=DIRECTION('ref_axis',(-1.,0.,0.));
#630=DIRECTION('',(0.,-1.,0.));
#631=DIRECTION('center_axis',(0.,1.,0.));
#632=DIRECTION('ref_axis',(-1.,0.,0.));
#633=DIRECTION('center_axis',(0.,-1.,0.));
#634=DIRECTION('ref_axis',(-1.,0.,0.));
#635=DIRECTION('center_axis',(0.,-1.,0.));
#636=DIRECTION('ref_axis',(-1.,0.,0.));
#637=DIRECTION('',(0.,-1.,0.));
#638=DIRECTION('center_axis',(0.,1.,0.));
#639=DIRECTION('ref_axis',(-1.,0.,0.));
#640=DIRECTION('center_axis',(0.,1.,0.));
#641=DIRECTION('ref_axis',(0.,0.,-1.));
#642=DIRECTION('',(0.,0.,1.));
#643=DIRECTION('',(0.,0.,-1.));
#644=DIRECTION('',(-1.,0.,0.));
#645=DIRECTION('center_axis',(1.,0.,0.));
#646=DIRECTION('ref_axis',(0.,0.,-1.));
#647=DIRECTION('',(0.,-1.,0.));
#648=DIRECTION('',(0.,0.,-1.));
#649=DIRECTION('',(0.,0.,1.));
#650=DIRECTION('center_axis',(0.,1.,0.));
#651=DIRECTION('ref_axis',(0.,0.,-1.));
#652=DIRECTION('',(0.,0.,-1.));
#653=DIRECTION('',(-1.,0.,0.));
#654=DIRECTION('center_axis',(-1.,0.,0.));
#655=DIRECTION('ref_axis',(0.,0.,1.));
#656=DIRECTION('',(0.,1.,0.));
#657=DIRECTION('',(0.,0.,1.));
#658=DIRECTION('center_axis',(1.,0.,0.));
#659=DIRECTION('ref_axis',(0.,1.,0.));
#660=DIRECTION('',(0.,0.,1.));
#661=DIRECTION('',(0.,1.,0.));
#662=DIRECTION('center_axis',(-1.,0.,0.));
#663=DIRECTION('ref_axis',(0.,-1.,0.));
#664=DIRECTION('',(0.,-1.,0.));
#665=DIRECTION('',(0.,0.,1.));
#666=DIRECTION('center_axis',(-1.09923071745065E-16,1.,0.));
#667=DIRECTION('ref_axis',(-1.,-1.09923071745065E-16,0.));
#668=DIRECTION('',(0.,0.,1.));
#669=DIRECTION('',(0.,0.,1.));
#670=DIRECTION('center_axis',(-1.,0.,0.));
#671=DIRECTION('ref_axis',(0.,-1.,0.));
#672=DIRECTION('',(0.,-1.,0.));
#673=DIRECTION('',(0.,0.,1.));
#674=DIRECTION('center_axis',(0.,1.,0.));
#675=DIRECTION('ref_axis',(-1.,0.,0.));
#676=DIRECTION('',(-1.,0.,0.));
#677=DIRECTION('center_axis',(0.,-1.,0.));
#678=DIRECTION('ref_axis',(1.,0.,0.));
#679=DIRECTION('',(1.,0.,0.));
#680=DIRECTION('center_axis',(0.,1.,0.));
#681=DIRECTION('ref_axis',(-1.,0.,0.));
#682=DIRECTION('',(-1.,0.,0.));
#683=DIRECTION('',(0.,0.,1.));
#684=DIRECTION('center_axis',(1.,0.,0.));
#685=DIRECTION('ref_axis',(0.,1.,0.));
#686=DIRECTION('',(0.,1.,0.));
#687=DIRECTION('center_axis',(0.,0.,1.));
#688=DIRECTION('ref_axis',(1.,0.,0.));
#689=CARTESIAN_POINT('',(0.,0.,0.));
#690=CARTESIAN_POINT('Origin',(0.,6.5,33.5));
#691=CARTESIAN_POINT('',(2.1,6.5,33.5));
#692=CARTESIAN_POINT('Origin',(0.,6.5,33.5));
#693=CARTESIAN_POINT('',(2.1,1.5,33.5));
#694=CARTESIAN_POINT('',(2.1,6.5,33.5));
#695=CARTESIAN_POINT('Origin',(0.,1.5,33.5));
#696=CARTESIAN_POINT('Origin',(0.,6.5,-3.5));
#697=CARTESIAN_POINT('',(2.1,6.5,-3.5));
#698=CARTESIAN_POINT('Origin',(0.,6.5,-3.5));
#699=CARTESIAN_POINT('',(2.1,1.5,-3.5));
#700=CARTESIAN_POINT('',(2.1,6.5,-3.5));
#701=CARTESIAN_POINT('Origin',(0.,1.5,-3.5));
#702=CARTESIAN_POINT('Origin',(10.1,6.5,0.));
#703=CARTESIAN_POINT('',(10.1,1.5,0.));
#704=CARTESIAN_POINT('',(10.1,6.5,0.));
#705=CARTESIAN_POINT('',(10.1,3.25,0.));
#706=CARTESIAN_POINT('',(10.1,1.5,-7.));
#707=CARTESIAN_POINT('',(10.1,1.5,0.));
#708=CARTESIAN_POINT('',(10.1,6.5,-7.));
#709=CARTESIAN_POINT('',(10.1,1.5,-7.));
#710=CARTESIAN_POINT('',(10.1,6.5,0.));
#711=CARTESIAN_POINT('Origin',(-10.1,1.5,0.));
#712=CARTESIAN_POINT('',(-10.1,6.5,0.));
#713=CARTESIAN_POINT('',(-10.1,1.5,0.));
#714=CARTESIAN_POINT('',(-10.1,0.749999999999999,0.));
#715=CARTESIAN_POINT('',(-10.1,6.5,-7.));
#716=CARTESIAN_POINT('',(-10.1,6.5,0.));
#717=CARTESIAN_POINT('',(-10.1,1.5,-7.));
#718=CARTESIAN_POINT('',(-10.1,6.5,-7.));
#719=CARTESIAN_POINT('',(-10.1,1.5,0.));
#720=CARTESIAN_POINT('Origin',(10.1,1.5,0.));
#721=CARTESIAN_POINT('',(5.05,1.5,0.));
#722=CARTESIAN_POINT('',(-10.1,1.5,-7.));
#723=CARTESIAN_POINT('Origin',(0.,4.,-7.));
#724=CARTESIAN_POINT('',(10.1,6.5,-7.));
#725=CARTESIAN_POINT('Origin',(0.,0.,0.));
#726=CARTESIAN_POINT('',(10.1,15.5,0.));
#727=CARTESIAN_POINT('',(10.1,15.5,0.));
#728=CARTESIAN_POINT('',(15.,15.5,0.));
#729=CARTESIAN_POINT('',(15.,15.5,0.));
#730=CARTESIAN_POINT('',(15.,-10.5,0.));
#731=CARTESIAN_POINT('',(15.,-15.5,0.));
#732=CARTESIAN_POINT('',(25.,-10.5,0.));
#733=CARTESIAN_POINT('',(-15.,-10.5,0.));
#734=CARTESIAN_POINT('',(25.,-15.5,0.));
#735=CARTESIAN_POINT('',(25.,-15.5,0.));
#736=CARTESIAN_POINT('',(-25.,-15.5,0.));
#737=CARTESIAN_POINT('',(-15.,-15.5,0.));
#738=CARTESIAN_POINT('',(-25.,-10.5,0.));
#739=CARTESIAN_POINT('',(-25.,-15.5,0.));
#740=CARTESIAN_POINT('',(-15.,-10.5,0.));
#741=CARTESIAN_POINT('',(-15.,-10.5,0.));
#742=CARTESIAN_POINT('',(-15.,15.5,0.));
#743=CARTESIAN_POINT('',(-15.,15.5,0.));
#744=CARTESIAN_POINT('',(-10.1,15.5,0.));
#745=CARTESIAN_POINT('',(-15.,15.5,0.));
#746=CARTESIAN_POINT('',(-10.1,6.5,0.));
#747=CARTESIAN_POINT('Origin',(-10.1,1.5,30.));
#748=CARTESIAN_POINT('',(10.1,1.5,30.));
#749=CARTESIAN_POINT('',(-10.1,1.5,30.));
#750=CARTESIAN_POINT('',(-5.05,1.5,30.));
#751=CARTESIAN_POINT('',(10.1,1.5,37.));
#752=CARTESIAN_POINT('',(10.1,1.5,30.));
#753=CARTESIAN_POINT('',(-10.1,1.5,37.));
#754=CARTESIAN_POINT('',(-10.1,1.5,37.));
#755=CARTESIAN_POINT('',(-10.1,1.5,30.));
#756=CARTESIAN_POINT('Origin',(-10.1,6.5,30.));
#757=CARTESIAN_POINT('',(-10.1,6.5,30.));
#758=CARTESIAN_POINT('',(-10.1,3.25,30.));
#759=CARTESIAN_POINT('',(-10.1,6.5,37.));
#760=CARTESIAN_POINT('',(-10.1,6.5,37.));
#761=CARTESIAN_POINT('',(-10.1,6.5,30.));
#762=CARTESIAN_POINT('Origin',(10.1,1.5,30.));
#763=CARTESIAN_POINT('',(10.1,6.5,30.));
#764=CARTESIAN_POINT('',(10.1,0.749999999999999,30.));
#765=CARTESIAN_POINT('',(10.1,6.5,37.));
#766=CARTESIAN_POINT('',(10.1,6.5,30.));
#767=CARTESIAN_POINT('',(10.1,1.5,37.));
#768=CARTESIAN_POINT('Origin',(0.,4.,37.));
#769=CARTESIAN_POINT('',(10.1,6.5,37.));
#770=CARTESIAN_POINT('Origin',(-20.,-10.5,15.0000002235174));
#771=CARTESIAN_POINT('',(-17.5,-10.5,15.0000002235174));
#772=CARTESIAN_POINT('Origin',(-20.,-10.5,15.0000002235174));
#773=CARTESIAN_POINT('',(-17.5,-15.5,15.0000002235174));
#774=CARTESIAN_POINT('',(-17.5,-10.5,15.0000002235174));
#775=CARTESIAN_POINT('Origin',(-20.,-15.5,15.0000002235174));
#776=CARTESIAN_POINT('Origin',(20.,-10.5,15.0000002235174));
#777=CARTESIAN_POINT('',(22.5,-10.5,15.0000002235174));
#778=CARTESIAN_POINT('Origin',(20.,-10.5,15.0000002235174));
#779=CARTESIAN_POINT('',(22.5,-15.5,15.0000002235174));
#780=CARTESIAN_POINT('',(22.5,-10.5,15.0000002235174));
#781=CARTESIAN_POINT('Origin',(20.,-15.5,15.0000002235174));
#782=CARTESIAN_POINT('Origin',(-15.,-10.5,30.0000004470348));
#783=CARTESIAN_POINT('',(-15.,-10.5,30.0000004470348));
#784=CARTESIAN_POINT('',(-15.,-10.5,15.0000002235174));
#785=CARTESIAN_POINT('',(-25.,-10.5,30.0000004470348));
#786=CARTESIAN_POINT('',(-25.,-10.5,0.));
#787=CARTESIAN_POINT('',(-15.,-10.5,30.0000004470348));
#788=CARTESIAN_POINT('Origin',(25.,-13.,15.0000002235174));
#789=CARTESIAN_POINT('',(25.,-10.5,30.0000004470348));
#790=CARTESIAN_POINT('',(25.,-15.5,30.0000004470348));
#791=CARTESIAN_POINT('',(25.,-10.5,30.0000004470348));
#792=CARTESIAN_POINT('',(25.,-15.5,30.0000004470348));
#793=CARTESIAN_POINT('',(25.,-10.5,0.));
#794=CARTESIAN_POINT('Origin',(-15.,-10.5,30.0000004470348));
#795=CARTESIAN_POINT('',(15.,-10.5,30.0000004470348));
#796=CARTESIAN_POINT('',(15.,-10.5,15.0000002235174));
#797=CARTESIAN_POINT('',(-15.,-10.5,30.0000004470348));
#798=CARTESIAN_POINT('Origin',(-25.,-13.,15.0000002235174));
#799=CARTESIAN_POINT('',(-25.,-15.5,30.0000004470348));
#800=CARTESIAN_POINT('',(-25.,-10.5,30.0000004470348));
#801=CARTESIAN_POINT('',(-25.,-15.5,30.0000004470348));
#802=CARTESIAN_POINT('Origin',(15.,-15.5,0.));
#803=CARTESIAN_POINT('',(15.,15.5,30.));
#804=CARTESIAN_POINT('',(15.,15.5,0.));
#805=CARTESIAN_POINT('',(15.,-15.5,30.));
#806=CARTESIAN_POINT('Origin',(-15.,15.5,0.));
#807=CARTESIAN_POINT('',(-15.,15.5,30.));
#808=CARTESIAN_POINT('',(-15.,15.5,30.));
#809=CARTESIAN_POINT('',(-15.,15.5,0.));
#810=CARTESIAN_POINT('Origin',(10.1,6.5,0.));
#811=CARTESIAN_POINT('',(-10.1,6.5,0.));
#812=CARTESIAN_POINT('',(10.1,6.5,0.));
#813=CARTESIAN_POINT('Origin',(10.1,15.5,0.));
#814=CARTESIAN_POINT('',(10.1,15.5,30.));
#815=CARTESIAN_POINT('',(10.1,15.5,30.));
#816=CARTESIAN_POINT('',(10.1,15.5,0.));
#817=CARTESIAN_POINT('Origin',(15.,15.5,0.));
#818=CARTESIAN_POINT('',(15.,15.5,30.));
#819=CARTESIAN_POINT('Origin',(-15.,-15.5,0.));
#820=CARTESIAN_POINT('',(-15.,-15.5,30.0000004470348));
#821=CARTESIAN_POINT('Origin',(-10.1,15.5,0.));
#822=CARTESIAN_POINT('',(-10.1,15.5,30.));
#823=CARTESIAN_POINT('',(-15.,15.5,30.));
#824=CARTESIAN_POINT('',(-10.1,15.5,0.));
#825=CARTESIAN_POINT('Origin',(-10.1,6.5,0.));
#826=CARTESIAN_POINT('',(-10.1,6.5,30.));
#827=CARTESIAN_POINT('Origin',(0.,0.,30.));
#828=UNCERTAINTY_MEASURE_WITH_UNIT(LENGTH_MEASURE(0.01),#832,
'DISTANCE_ACCURACY_VALUE',
'Maximum model space distance between geometric entities at asserted c
onnectivities');
#829=UNCERTAINTY_MEASURE_WITH_UNIT(LENGTH_MEASURE(0.01),#832,
'DISTANCE_ACCURACY_VALUE',
'Maximum model space distance between geometric entities at asserted c
onnectivities');
#830=(
GEOMETRIC_REPRESENTATION_CONTEXT(3)
GLOBAL_UNCERTAINTY_ASSIGNED_CONTEXT((#828))
GLOBAL_UNIT_ASSIGNED_CONTEXT((#832,#834,#835))
REPRESENTATION_CONTEXT('','3D')
);
#831=(
GEOMETRIC_REPRESENTATION_CONTEXT(3)
GLOBAL_UNCERTAINTY_ASSIGNED_CONTEXT((#829))
GLOBAL_UNIT_ASSIGNED_CONTEXT((#832,#834,#835))
REPRESENTATION_CONTEXT('','3D')
);
#832=(
LENGTH_UNIT()
NAMED_UNIT(*)
SI_UNIT(.MILLI.,.METRE.)
);
#833=(
LENGTH_UNIT()
NAMED_UNIT(*)
SI_UNIT($,.METRE.)
);
#834=(
NAMED_UNIT(*)
PLANE_ANGLE_UNIT()
SI_UNIT($,.RADIAN.)
);
#835=(
NAMED_UNIT(*)
SI_UNIT($,.STERADIAN.)
SOLID_ANGLE_UNIT()
);
#836=SHAPE_DEFINITION_REPRESENTATION(#837,#838);
#837=PRODUCT_DEFINITION_SHAPE('',$,#840);
#838=SHAPE_REPRESENTATION('',(#524),#830);
#839=PRODUCT_DEFINITION_CONTEXT('part definition',#844,'design');
#840=PRODUCT_DEFINITION('P\X\E9','P\X\E9 v21',#841,#839);
#841=PRODUCT_DEFINITION_FORMATION('',$,#846);
#842=PRODUCT_RELATED_PRODUCT_CATEGORY('P\X\E9 v21','P\X\E9 v21',(#846));
#843=APPLICATION_PROTOCOL_DEFINITION('international standard',
'automotive_design',2009,#844);
#844=APPLICATION_CONTEXT(
'Core Data for Automotive Mechanical Design Process');
#845=PRODUCT_CONTEXT('part definition',#844,'mechanical');
#846=PRODUCT('P\X\E9','P\X\E9 v21',$,(#845));
#847=PRESENTATION_STYLE_ASSIGNMENT((#848));
#848=SURFACE_STYLE_USAGE(.BOTH.,#849);
#849=SURFACE_SIDE_STYLE('',(#850));
#850=SURFACE_STYLE_FILL_AREA(#851);
#851=FILL_AREA_STYLE('Pintura - Esmalte com brilho (Amarelo)',(#852));
#852=FILL_AREA_STYLE_COLOUR('Pintura - Esmalte com brilho (Amarelo)',#853);
#853=COLOUR_RGB('Pintura - Esmalte com brilho (Amarelo)',0.909803921568627,
0.67843137254902,0.137254901960784);
ENDSEC;
END-ISO-10303-21;
