ISO-10303-21;
HEADER;
/* Generated by software containing ST-Developer
 * from STEP Tools, Inc. (www.steptools.com) 
 */

FILE_DESCRIPTION(
/* description */ (''),
/* implementation_level */ '2;1');

FILE_NAME(
/* name */ 'SuporteCaixa.step',
/* time_stamp */ '2026-04-01T20:36:33-03:00',
/* author */ (''),
/* organization */ (''),
/* preprocessor_version */ 'ST-DEVELOPER v20.1',
/* originating_system */ 'Autodesk Translation Framework v14.24.0.0',
/* authorisation */ '');

FILE_SCHEMA (('AUTOMOTIVE_DESIGN { 1 0 10303 214 3 1 1 }'));
ENDSEC;

DATA;
#10=MECHANICAL_DESIGN_GEOMETRIC_PRESENTATION_REPRESENTATION('',(#13),#463);
#11=SHAPE_REPRESENTATION_RELATIONSHIP('SRR','None',#470,#12);
#12=ADVANCED_BREP_SHAPE_REPRESENTATION('',(#14),#462);
#13=STYLED_ITEM('',(#479),#14);
#14=MANIFOLD_SOLID_BREP('Corpo1',#275);
#15=FACE_BOUND('',#45,.T.);
#16=FACE_BOUND('',#52,.T.);
#17=FACE_BOUND('',#55,.T.);
#18=FACE_BOUND('',#58,.T.);
#19=PLANE('',#292);
#20=PLANE('',#297);
#21=PLANE('',#303);
#22=PLANE('',#304);
#23=PLANE('',#305);
#24=PLANE('',#306);
#25=PLANE('',#307);
#26=PLANE('',#308);
#27=PLANE('',#309);
#28=PLANE('',#310);
#29=FACE_OUTER_BOUND('',#43,.T.);
#30=FACE_OUTER_BOUND('',#44,.T.);
#31=FACE_OUTER_BOUND('',#46,.T.);
#32=FACE_OUTER_BOUND('',#47,.T.);
#33=FACE_OUTER_BOUND('',#48,.T.);
#34=FACE_OUTER_BOUND('',#49,.T.);
#35=FACE_OUTER_BOUND('',#50,.T.);
#36=FACE_OUTER_BOUND('',#51,.T.);
#37=FACE_OUTER_BOUND('',#53,.T.);
#38=FACE_OUTER_BOUND('',#54,.T.);
#39=FACE_OUTER_BOUND('',#56,.T.);
#40=FACE_OUTER_BOUND('',#57,.T.);
#41=FACE_OUTER_BOUND('',#59,.T.);
#42=FACE_OUTER_BOUND('',#60,.T.);
#43=EDGE_LOOP('',(#185,#186,#187,#188));
#44=EDGE_LOOP('',(#189,#190,#191,#192));
#45=EDGE_LOOP('',(#193));
#46=EDGE_LOOP('',(#194,#195,#196,#197));
#47=EDGE_LOOP('',(#198,#199,#200,#201));
#48=EDGE_LOOP('',(#202,#203,#204,#205));
#49=EDGE_LOOP('',(#206,#207,#208,#209));
#50=EDGE_LOOP('',(#210,#211,#212,#213));
#51=EDGE_LOOP('',(#214,#215,#216,#217));
#52=EDGE_LOOP('',(#218));
#53=EDGE_LOOP('',(#219,#220,#221,#222));
#54=EDGE_LOOP('',(#223,#224,#225,#226));
#55=EDGE_LOOP('',(#227));
#56=EDGE_LOOP('',(#228,#229,#230,#231));
#57=EDGE_LOOP('',(#232,#233,#234,#235));
#58=EDGE_LOOP('',(#236));
#59=EDGE_LOOP('',(#237,#238,#239,#240,#241,#242,#243,#244,#245,#246));
#60=EDGE_LOOP('',(#247,#248,#249,#250,#251,#252,#253,#254,#255,#256));
#61=LINE('',#391,#89);
#62=LINE('',#394,#90);
#63=LINE('',#397,#91);
#64=LINE('',#399,#92);
#65=LINE('',#400,#93);
#66=LINE('',#408,#94);
#67=LINE('',#411,#95);
#68=LINE('',#413,#96);
#69=LINE('',#414,#97);
#70=LINE('',#418,#98);
#71=LINE('',#423,#99);
#72=LINE('',#428,#100);
#73=LINE('',#430,#101);
#74=LINE('',#432,#102);
#75=LINE('',#433,#103);
#76=LINE('',#436,#104);
#77=LINE('',#438,#105);
#78=LINE('',#439,#106);
#79=LINE('',#441,#107);
#80=LINE('',#442,#108);
#81=LINE('',#445,#109);
#82=LINE('',#447,#110);
#83=LINE('',#448,#111);
#84=LINE('',#451,#112);
#85=LINE('',#453,#113);
#86=LINE('',#454,#114);
#87=LINE('',#456,#115);
#88=LINE('',#457,#116);
#89=VECTOR('',#317,10.);
#90=VECTOR('',#320,10.);
#91=VECTOR('',#323,10.);
#92=VECTOR('',#324,10.);
#93=VECTOR('',#325,10.);
#94=VECTOR('',#332,10.);
#95=VECTOR('',#335,10.);
#96=VECTOR('',#338,10.);
#97=VECTOR('',#339,10.);
#98=VECTOR('',#344,2.5);
#99=VECTOR('',#349,2.5);
#100=VECTOR('',#354,10.);
#101=VECTOR('',#355,10.);
#102=VECTOR('',#356,10.);
#103=VECTOR('',#357,10.);
#104=VECTOR('',#360,10.);
#105=VECTOR('',#361,10.);
#106=VECTOR('',#362,10.);
#107=VECTOR('',#365,10.);
#108=VECTOR('',#366,10.);
#109=VECTOR('',#369,10.);
#110=VECTOR('',#370,10.);
#111=VECTOR('',#371,10.);
#112=VECTOR('',#374,10.);
#113=VECTOR('',#375,10.);
#114=VECTOR('',#376,10.);
#115=VECTOR('',#379,10.);
#116=VECTOR('',#380,10.);
#117=CIRCLE('',#290,3.);
#118=CIRCLE('',#291,3.);
#119=CIRCLE('',#293,2.5);
#120=CIRCLE('',#295,3.);
#121=CIRCLE('',#296,3.);
#122=CIRCLE('',#299,2.5);
#123=CIRCLE('',#301,2.5);
#124=CIRCLE('',#302,2.5);
#125=VERTEX_POINT('',#387);
#126=VERTEX_POINT('',#388);
#127=VERTEX_POINT('',#390);
#128=VERTEX_POINT('',#392);
#129=VERTEX_POINT('',#396);
#130=VERTEX_POINT('',#398);
#131=VERTEX_POINT('',#401);
#132=VERTEX_POINT('',#404);
#133=VERTEX_POINT('',#405);
#134=VERTEX_POINT('',#407);
#135=VERTEX_POINT('',#409);
#136=VERTEX_POINT('',#416);
#137=VERTEX_POINT('',#420);
#138=VERTEX_POINT('',#422);
#139=VERTEX_POINT('',#426);
#140=VERTEX_POINT('',#427);
#141=VERTEX_POINT('',#429);
#142=VERTEX_POINT('',#431);
#143=VERTEX_POINT('',#435);
#144=VERTEX_POINT('',#437);
#145=VERTEX_POINT('',#444);
#146=VERTEX_POINT('',#446);
#147=VERTEX_POINT('',#450);
#148=VERTEX_POINT('',#452);
#149=EDGE_CURVE('',#125,#126,#117,.T.);
#150=EDGE_CURVE('',#126,#127,#61,.T.);
#151=EDGE_CURVE('',#127,#128,#118,.T.);
#152=EDGE_CURVE('',#128,#125,#62,.T.);
#153=EDGE_CURVE('',#126,#129,#63,.T.);
#154=EDGE_CURVE('',#129,#130,#64,.T.);
#155=EDGE_CURVE('',#127,#130,#65,.T.);
#156=EDGE_CURVE('',#131,#131,#119,.T.);
#157=EDGE_CURVE('',#132,#133,#120,.T.);
#158=EDGE_CURVE('',#133,#134,#66,.T.);
#159=EDGE_CURVE('',#134,#135,#121,.T.);
#160=EDGE_CURVE('',#135,#132,#67,.T.);
#161=EDGE_CURVE('',#134,#128,#68,.T.);
#162=EDGE_CURVE('',#133,#125,#69,.T.);
#163=EDGE_CURVE('',#136,#136,#122,.T.);
#164=EDGE_CURVE('',#136,#131,#70,.T.);
#165=EDGE_CURVE('',#137,#137,#123,.T.);
#166=EDGE_CURVE('',#137,#138,#71,.T.);
#167=EDGE_CURVE('',#138,#138,#124,.T.);
#168=EDGE_CURVE('',#139,#140,#72,.T.);
#169=EDGE_CURVE('',#139,#141,#73,.T.);
#170=EDGE_CURVE('',#142,#141,#74,.T.);
#171=EDGE_CURVE('',#140,#142,#75,.T.);
#172=EDGE_CURVE('',#140,#143,#76,.T.);
#173=EDGE_CURVE('',#144,#142,#77,.T.);
#174=EDGE_CURVE('',#143,#144,#78,.T.);
#175=EDGE_CURVE('',#129,#143,#79,.T.);
#176=EDGE_CURVE('',#130,#144,#80,.T.);
#177=EDGE_CURVE('',#145,#135,#81,.T.);
#178=EDGE_CURVE('',#146,#145,#82,.T.);
#179=EDGE_CURVE('',#146,#132,#83,.T.);
#180=EDGE_CURVE('',#147,#146,#84,.T.);
#181=EDGE_CURVE('',#148,#145,#85,.T.);
#182=EDGE_CURVE('',#147,#148,#86,.T.);
#183=EDGE_CURVE('',#139,#147,#87,.T.);
#184=EDGE_CURVE('',#141,#148,#88,.T.);
#185=ORIENTED_EDGE('',*,*,#149,.T.);
#186=ORIENTED_EDGE('',*,*,#150,.T.);
#187=ORIENTED_EDGE('',*,*,#151,.T.);
#188=ORIENTED_EDGE('',*,*,#152,.T.);
#189=ORIENTED_EDGE('',*,*,#150,.F.);
#190=ORIENTED_EDGE('',*,*,#153,.T.);
#191=ORIENTED_EDGE('',*,*,#154,.T.);
#192=ORIENTED_EDGE('',*,*,#155,.F.);
#193=ORIENTED_EDGE('',*,*,#156,.T.);
#194=ORIENTED_EDGE('',*,*,#157,.T.);
#195=ORIENTED_EDGE('',*,*,#158,.T.);
#196=ORIENTED_EDGE('',*,*,#159,.T.);
#197=ORIENTED_EDGE('',*,*,#160,.T.);
#198=ORIENTED_EDGE('',*,*,#152,.F.);
#199=ORIENTED_EDGE('',*,*,#161,.F.);
#200=ORIENTED_EDGE('',*,*,#158,.F.);
#201=ORIENTED_EDGE('',*,*,#162,.T.);
#202=ORIENTED_EDGE('',*,*,#163,.F.);
#203=ORIENTED_EDGE('',*,*,#164,.T.);
#204=ORIENTED_EDGE('',*,*,#156,.F.);
#205=ORIENTED_EDGE('',*,*,#164,.F.);
#206=ORIENTED_EDGE('',*,*,#165,.F.);
#207=ORIENTED_EDGE('',*,*,#166,.T.);
#208=ORIENTED_EDGE('',*,*,#167,.F.);
#209=ORIENTED_EDGE('',*,*,#166,.F.);
#210=ORIENTED_EDGE('',*,*,#168,.F.);
#211=ORIENTED_EDGE('',*,*,#169,.T.);
#212=ORIENTED_EDGE('',*,*,#170,.F.);
#213=ORIENTED_EDGE('',*,*,#171,.F.);
#214=ORIENTED_EDGE('',*,*,#172,.F.);
#215=ORIENTED_EDGE('',*,*,#171,.T.);
#216=ORIENTED_EDGE('',*,*,#173,.F.);
#217=ORIENTED_EDGE('',*,*,#174,.F.);
#218=ORIENTED_EDGE('',*,*,#163,.T.);
#219=ORIENTED_EDGE('',*,*,#175,.T.);
#220=ORIENTED_EDGE('',*,*,#174,.T.);
#221=ORIENTED_EDGE('',*,*,#176,.F.);
#222=ORIENTED_EDGE('',*,*,#154,.F.);
#223=ORIENTED_EDGE('',*,*,#160,.F.);
#224=ORIENTED_EDGE('',*,*,#177,.F.);
#225=ORIENTED_EDGE('',*,*,#178,.F.);
#226=ORIENTED_EDGE('',*,*,#179,.T.);
#227=ORIENTED_EDGE('',*,*,#165,.T.);
#228=ORIENTED_EDGE('',*,*,#180,.T.);
#229=ORIENTED_EDGE('',*,*,#178,.T.);
#230=ORIENTED_EDGE('',*,*,#181,.F.);
#231=ORIENTED_EDGE('',*,*,#182,.F.);
#232=ORIENTED_EDGE('',*,*,#183,.T.);
#233=ORIENTED_EDGE('',*,*,#182,.T.);
#234=ORIENTED_EDGE('',*,*,#184,.F.);
#235=ORIENTED_EDGE('',*,*,#169,.F.);
#236=ORIENTED_EDGE('',*,*,#167,.T.);
#237=ORIENTED_EDGE('',*,*,#184,.T.);
#238=ORIENTED_EDGE('',*,*,#181,.T.);
#239=ORIENTED_EDGE('',*,*,#177,.T.);
#240=ORIENTED_EDGE('',*,*,#159,.F.);
#241=ORIENTED_EDGE('',*,*,#161,.T.);
#242=ORIENTED_EDGE('',*,*,#151,.F.);
#243=ORIENTED_EDGE('',*,*,#155,.T.);
#244=ORIENTED_EDGE('',*,*,#176,.T.);
#245=ORIENTED_EDGE('',*,*,#173,.T.);
#246=ORIENTED_EDGE('',*,*,#170,.T.);
#247=ORIENTED_EDGE('',*,*,#183,.F.);
#248=ORIENTED_EDGE('',*,*,#168,.T.);
#249=ORIENTED_EDGE('',*,*,#172,.T.);
#250=ORIENTED_EDGE('',*,*,#175,.F.);
#251=ORIENTED_EDGE('',*,*,#153,.F.);
#252=ORIENTED_EDGE('',*,*,#149,.F.);
#253=ORIENTED_EDGE('',*,*,#162,.F.);
#254=ORIENTED_EDGE('',*,*,#157,.F.);
#255=ORIENTED_EDGE('',*,*,#179,.F.);
#256=ORIENTED_EDGE('',*,*,#180,.F.);
#257=CYLINDRICAL_SURFACE('',#289,3.);
#258=CYLINDRICAL_SURFACE('',#294,3.);
#259=CYLINDRICAL_SURFACE('',#298,2.5);
#260=CYLINDRICAL_SURFACE('',#300,2.5);
#261=ADVANCED_FACE('',(#29),#257,.F.);
#262=ADVANCED_FACE('',(#30,#15),#19,.T.);
#263=ADVANCED_FACE('',(#31),#258,.F.);
#264=ADVANCED_FACE('',(#32),#20,.T.);
#265=ADVANCED_FACE('',(#33),#259,.F.);
#266=ADVANCED_FACE('',(#34),#260,.F.);
#267=ADVANCED_FACE('',(#35),#21,.T.);
#268=ADVANCED_FACE('',(#36,#16),#22,.T.);
#269=ADVANCED_FACE('',(#37),#23,.T.);
#270=ADVANCED_FACE('',(#38,#17),#24,.T.);
#271=ADVANCED_FACE('',(#39),#25,.T.);
#272=ADVANCED_FACE('',(#40,#18),#26,.T.);
#273=ADVANCED_FACE('',(#41),#27,.T.);
#274=ADVANCED_FACE('',(#42),#28,.F.);
#275=CLOSED_SHELL('',(#261,#262,#263,#264,#265,#266,#267,#268,#269,#270,
#271,#272,#273,#274));
#276=DERIVED_UNIT_ELEMENT(#278,1.);
#277=DERIVED_UNIT_ELEMENT(#465,-3.);
#278=(
MASS_UNIT()
NAMED_UNIT(*)
SI_UNIT(.KILO.,.GRAM.)
);
#279=DERIVED_UNIT((#276,#277));
#280=MEASURE_REPRESENTATION_ITEM('density measure',
POSITIVE_RATIO_MEASURE(7850.),#279);
#281=PROPERTY_DEFINITION_REPRESENTATION(#286,#283);
#282=PROPERTY_DEFINITION_REPRESENTATION(#287,#284);
#283=REPRESENTATION('material name',(#285),#462);
#284=REPRESENTATION('density',(#280),#462);
#285=DESCRIPTIVE_REPRESENTATION_ITEM('A\X\E7o','A\X\E7o');
#286=PROPERTY_DEFINITION('material property','material name',#472);
#287=PROPERTY_DEFINITION('material property','density of part',#472);
#288=AXIS2_PLACEMENT_3D('',#385,#311,#312);
#289=AXIS2_PLACEMENT_3D('',#386,#313,#314);
#290=AXIS2_PLACEMENT_3D('',#389,#315,#316);
#291=AXIS2_PLACEMENT_3D('',#393,#318,#319);
#292=AXIS2_PLACEMENT_3D('',#395,#321,#322);
#293=AXIS2_PLACEMENT_3D('',#402,#326,#327);
#294=AXIS2_PLACEMENT_3D('',#403,#328,#329);
#295=AXIS2_PLACEMENT_3D('',#406,#330,#331);
#296=AXIS2_PLACEMENT_3D('',#410,#333,#334);
#297=AXIS2_PLACEMENT_3D('',#412,#336,#337);
#298=AXIS2_PLACEMENT_3D('',#415,#340,#341);
#299=AXIS2_PLACEMENT_3D('',#417,#342,#343);
#300=AXIS2_PLACEMENT_3D('',#419,#345,#346);
#301=AXIS2_PLACEMENT_3D('',#421,#347,#348);
#302=AXIS2_PLACEMENT_3D('',#424,#350,#351);
#303=AXIS2_PLACEMENT_3D('',#425,#352,#353);
#304=AXIS2_PLACEMENT_3D('',#434,#358,#359);
#305=AXIS2_PLACEMENT_3D('',#440,#363,#364);
#306=AXIS2_PLACEMENT_3D('',#443,#367,#368);
#307=AXIS2_PLACEMENT_3D('',#449,#372,#373);
#308=AXIS2_PLACEMENT_3D('',#455,#377,#378);
#309=AXIS2_PLACEMENT_3D('',#458,#381,#382);
#310=AXIS2_PLACEMENT_3D('',#459,#383,#384);
#311=DIRECTION('axis',(0.,0.,1.));
#312=DIRECTION('refdir',(1.,0.,0.));
#313=DIRECTION('center_axis',(0.,1.,0.));
#314=DIRECTION('ref_axis',(0.707106781186549,0.,-0.707106781186546));
#315=DIRECTION('center_axis',(0.,-1.,0.));
#316=DIRECTION('ref_axis',(0.707106781186549,0.,-0.707106781186546));
#317=DIRECTION('',(0.,1.,0.));
#318=DIRECTION('center_axis',(0.,1.,0.));
#319=DIRECTION('ref_axis',(0.707106781186549,0.,-0.707106781186546));
#320=DIRECTION('',(0.,-1.,0.));
#321=DIRECTION('center_axis',(-1.,0.,0.));
#322=DIRECTION('ref_axis',(0.,0.,1.));
#323=DIRECTION('',(0.,0.,1.));
#324=DIRECTION('',(0.,1.,0.));
#325=DIRECTION('',(0.,0.,1.));
#326=DIRECTION('center_axis',(1.,0.,0.));
#327=DIRECTION('ref_axis',(0.,1.,0.));
#328=DIRECTION('center_axis',(0.,1.,0.));
#329=DIRECTION('ref_axis',(-0.707106781186547,0.,-0.707106781186547));
#330=DIRECTION('center_axis',(0.,-1.,0.));
#331=DIRECTION('ref_axis',(-0.707106781186547,0.,-0.707106781186547));
#332=DIRECTION('',(0.,1.,0.));
#333=DIRECTION('center_axis',(0.,1.,0.));
#334=DIRECTION('ref_axis',(-0.707106781186547,0.,-0.707106781186547));
#335=DIRECTION('',(0.,-1.,0.));
#336=DIRECTION('center_axis',(0.,0.,1.));
#337=DIRECTION('ref_axis',(1.,0.,0.));
#338=DIRECTION('',(1.,0.,0.));
#339=DIRECTION('',(1.,0.,0.));
#340=DIRECTION('center_axis',(-1.,0.,0.));
#341=DIRECTION('ref_axis',(0.,1.,0.));
#342=DIRECTION('center_axis',(-1.,0.,-2.96059473233375E-16));
#343=DIRECTION('ref_axis',(0.,1.,0.));
#344=DIRECTION('',(-1.,0.,0.));
#345=DIRECTION('center_axis',(-1.,0.,0.));
#346=DIRECTION('ref_axis',(0.,1.,0.));
#347=DIRECTION('center_axis',(-1.,0.,0.));
#348=DIRECTION('ref_axis',(0.,1.,0.));
#349=DIRECTION('',(-1.,0.,0.));
#350=DIRECTION('center_axis',(1.,0.,0.));
#351=DIRECTION('ref_axis',(0.,1.,0.));
#352=DIRECTION('center_axis',(2.69144975666705E-16,0.,-1.));
#353=DIRECTION('ref_axis',(-1.,0.,-2.69144975666705E-16));
#354=DIRECTION('',(1.,0.,2.69144975666705E-16));
#355=DIRECTION('',(0.,1.,0.));
#356=DIRECTION('',(-1.,0.,-2.69144975666705E-16));
#357=DIRECTION('',(0.,1.,0.));
#358=DIRECTION('center_axis',(1.,0.,2.96059473233375E-16));
#359=DIRECTION('ref_axis',(2.96059473233375E-16,0.,-1.));
#360=DIRECTION('',(-2.96059473233375E-16,0.,1.));
#361=DIRECTION('',(2.96059473233375E-16,0.,-1.));
#362=DIRECTION('',(0.,1.,0.));
#363=DIRECTION('center_axis',(-3.33066907387547E-15,0.,1.));
#364=DIRECTION('ref_axis',(1.,0.,3.33066907387547E-15));
#365=DIRECTION('',(1.,0.,3.33066907387547E-15));
#366=DIRECTION('',(1.,0.,3.33066907387547E-15));
#367=DIRECTION('center_axis',(1.,0.,0.));
#368=DIRECTION('ref_axis',(0.,0.,-1.));
#369=DIRECTION('',(0.,0.,-1.));
#370=DIRECTION('',(0.,1.,0.));
#371=DIRECTION('',(0.,0.,-1.));
#372=DIRECTION('center_axis',(0.,0.,1.));
#373=DIRECTION('ref_axis',(1.,0.,0.));
#374=DIRECTION('',(1.,0.,0.));
#375=DIRECTION('',(1.,0.,0.));
#376=DIRECTION('',(0.,1.,0.));
#377=DIRECTION('center_axis',(-1.,0.,0.));
#378=DIRECTION('ref_axis',(0.,0.,1.));
#379=DIRECTION('',(0.,0.,1.));
#380=DIRECTION('',(0.,0.,1.));
#381=DIRECTION('center_axis',(0.,1.,0.));
#382=DIRECTION('ref_axis',(0.,0.,1.));
#383=DIRECTION('center_axis',(0.,1.,0.));
#384=DIRECTION('ref_axis',(1.,0.,0.));
#385=CARTESIAN_POINT('',(0.,0.,0.));
#386=CARTESIAN_POINT('Origin',(49.,0.,-19.));
#387=CARTESIAN_POINT('',(49.,0.,-22.));
#388=CARTESIAN_POINT('',(52.,0.,-19.));
#389=CARTESIAN_POINT('Origin',(49.,0.,-19.));
#390=CARTESIAN_POINT('',(52.,20.,-19.));
#391=CARTESIAN_POINT('',(52.,0.,-19.));
#392=CARTESIAN_POINT('',(49.,20.,-22.));
#393=CARTESIAN_POINT('Origin',(49.,20.,-19.));
#394=CARTESIAN_POINT('',(49.,0.,-22.));
#395=CARTESIAN_POINT('Origin',(52.,0.,-22.));
#396=CARTESIAN_POINT('',(52.,0.,5.));
#397=CARTESIAN_POINT('',(52.,0.,-22.));
#398=CARTESIAN_POINT('',(52.,20.,5.));
#399=CARTESIAN_POINT('',(52.,0.,5.));
#400=CARTESIAN_POINT('',(52.,20.,-22.));
#401=CARTESIAN_POINT('',(52.,7.5,-7.));
#402=CARTESIAN_POINT('Origin',(52.,10.,-7.));
#403=CARTESIAN_POINT('Origin',(30.,0.,-19.));
#404=CARTESIAN_POINT('',(27.,0.,-19.));
#405=CARTESIAN_POINT('',(30.,0.,-22.));
#406=CARTESIAN_POINT('Origin',(30.,0.,-19.));
#407=CARTESIAN_POINT('',(30.,20.,-22.));
#408=CARTESIAN_POINT('',(30.,0.,-22.));
#409=CARTESIAN_POINT('',(27.,20.,-19.));
#410=CARTESIAN_POINT('Origin',(30.,20.,-19.));
#411=CARTESIAN_POINT('',(27.,0.,-19.));
#412=CARTESIAN_POINT('Origin',(27.,0.,-22.));
#413=CARTESIAN_POINT('',(27.,20.,-22.));
#414=CARTESIAN_POINT('',(27.,0.,-22.));
#415=CARTESIAN_POINT('Origin',(56.,10.,-7.));
#416=CARTESIAN_POINT('',(56.,7.5,-7.));
#417=CARTESIAN_POINT('Origin',(56.,10.,-7.));
#418=CARTESIAN_POINT('',(56.,7.5,-7.));
#419=CARTESIAN_POINT('Origin',(27.,10.0000001862645,-6.99999999999999));
#420=CARTESIAN_POINT('',(27.,7.50000018626451,-6.99999999999999));
#421=CARTESIAN_POINT('Origin',(27.,10.0000001862645,-6.99999999999999));
#422=CARTESIAN_POINT('',(23.,7.50000018626451,-6.99999999999999));
#423=CARTESIAN_POINT('',(27.,7.50000018626451,-6.99999999999999));
#424=CARTESIAN_POINT('Origin',(23.,10.0000001862645,-6.99999999999999));
#425=CARTESIAN_POINT('Origin',(56.,0.,-25.));
#426=CARTESIAN_POINT('',(23.,0.,-25.));
#427=CARTESIAN_POINT('',(56.,0.,-25.));
#428=CARTESIAN_POINT('',(23.,0.,-25.));
#429=CARTESIAN_POINT('',(23.,20.,-25.));
#430=CARTESIAN_POINT('',(23.,0.,-25.));
#431=CARTESIAN_POINT('',(56.,20.,-25.));
#432=CARTESIAN_POINT('',(23.,20.,-25.));
#433=CARTESIAN_POINT('',(56.,0.,-25.));
#434=CARTESIAN_POINT('Origin',(56.,0.,5.00000000000001));
#435=CARTESIAN_POINT('',(56.,0.,5.00000000000001));
#436=CARTESIAN_POINT('',(56.,0.,-25.));
#437=CARTESIAN_POINT('',(56.,20.,5.00000000000001));
#438=CARTESIAN_POINT('',(56.,20.,-25.));
#439=CARTESIAN_POINT('',(56.,0.,5.00000000000001));
#440=CARTESIAN_POINT('Origin',(52.,0.,5.));
#441=CARTESIAN_POINT('',(52.,0.,5.));
#442=CARTESIAN_POINT('',(52.,20.,5.));
#443=CARTESIAN_POINT('Origin',(27.,0.,5.));
#444=CARTESIAN_POINT('',(27.,20.,5.));
#445=CARTESIAN_POINT('',(27.,20.,5.));
#446=CARTESIAN_POINT('',(27.,0.,5.00000000000001));
#447=CARTESIAN_POINT('',(27.,0.,5.00000000000001));
#448=CARTESIAN_POINT('',(27.,0.,5.));
#449=CARTESIAN_POINT('Origin',(23.,0.,5.00000000000001));
#450=CARTESIAN_POINT('',(23.,0.,5.00000000000001));
#451=CARTESIAN_POINT('',(23.,0.,5.00000000000001));
#452=CARTESIAN_POINT('',(23.,20.,5.));
#453=CARTESIAN_POINT('',(23.,20.,5.00000000000001));
#454=CARTESIAN_POINT('',(23.,0.,5.00000000000001));
#455=CARTESIAN_POINT('Origin',(23.,0.,-25.));
#456=CARTESIAN_POINT('',(23.,0.,3.00000000000001));
#457=CARTESIAN_POINT('',(23.,20.,3.00000000000001));
#458=CARTESIAN_POINT('Origin',(39.5,20.,-9.99999999999999));
#459=CARTESIAN_POINT('Origin',(39.5,0.,-9.99999999999999));
#460=UNCERTAINTY_MEASURE_WITH_UNIT(LENGTH_MEASURE(0.01),#464,
'DISTANCE_ACCURACY_VALUE',
'Maximum model space distance between geometric entities at asserted c
onnectivities');
#461=UNCERTAINTY_MEASURE_WITH_UNIT(LENGTH_MEASURE(0.01),#464,
'DISTANCE_ACCURACY_VALUE',
'Maximum model space distance between geometric entities at asserted c
onnectivities');
#462=(
GEOMETRIC_REPRESENTATION_CONTEXT(3)
GLOBAL_UNCERTAINTY_ASSIGNED_CONTEXT((#460))
GLOBAL_UNIT_ASSIGNED_CONTEXT((#464,#466,#467))
REPRESENTATION_CONTEXT('','3D')
);
#463=(
GEOMETRIC_REPRESENTATION_CONTEXT(3)
GLOBAL_UNCERTAINTY_ASSIGNED_CONTEXT((#461))
GLOBAL_UNIT_ASSIGNED_CONTEXT((#464,#466,#467))
REPRESENTATION_CONTEXT('','3D')
);
#464=(
LENGTH_UNIT()
NAMED_UNIT(*)
SI_UNIT(.MILLI.,.METRE.)
);
#465=(
LENGTH_UNIT()
NAMED_UNIT(*)
SI_UNIT($,.METRE.)
);
#466=(
NAMED_UNIT(*)
PLANE_ANGLE_UNIT()
SI_UNIT($,.RADIAN.)
);
#467=(
NAMED_UNIT(*)
SI_UNIT($,.STERADIAN.)
SOLID_ANGLE_UNIT()
);
#468=SHAPE_DEFINITION_REPRESENTATION(#469,#470);
#469=PRODUCT_DEFINITION_SHAPE('',$,#472);
#470=SHAPE_REPRESENTATION('',(#288),#462);
#471=PRODUCT_DEFINITION_CONTEXT('part definition',#476,'design');
#472=PRODUCT_DEFINITION('Suporte_caixa','Suporte_caixa v10',#473,#471);
#473=PRODUCT_DEFINITION_FORMATION('',$,#478);
#474=PRODUCT_RELATED_PRODUCT_CATEGORY('Suporte_caixa v10',
'Suporte_caixa v10',(#478));
#475=APPLICATION_PROTOCOL_DEFINITION('international standard',
'automotive_design',2009,#476);
#476=APPLICATION_CONTEXT(
'Core Data for Automotive Mechanical Design Process');
#477=PRODUCT_CONTEXT('part definition',#476,'mechanical');
#478=PRODUCT('Suporte_caixa','Suporte_caixa v10',$,(#477));
#479=PRESENTATION_STYLE_ASSIGNMENT((#480));
#480=SURFACE_STYLE_USAGE(.BOTH.,#481);
#481=SURFACE_SIDE_STYLE('',(#482));
#482=SURFACE_STYLE_FILL_AREA(#483);
#483=FILL_AREA_STYLE('Pintura - Esmalte com brilho (Amarelo)',(#484));
#484=FILL_AREA_STYLE_COLOUR('Pintura - Esmalte com brilho (Amarelo)',#485);
#485=COLOUR_RGB('Pintura - Esmalte com brilho (Amarelo)',0.909803921568627,
0.67843137254902,0.137254901960784);
ENDSEC;
END-ISO-10303-21;
