ISO-10303-21;
HEADER;
/* Generated by software containing ST-Developer
 * from STEP Tools, Inc. (www.steptools.com) 
 */

FILE_DESCRIPTION(
/* description */ (''),
/* implementation_level */ '2;1');

FILE_NAME(
/* name */ 'SuporteNema17X.step',
/* time_stamp */ '2026-04-01T20:40:48-03:00',
/* author */ (''),
/* organization */ (''),
/* preprocessor_version */ 'ST-DEVELOPER v20.1',
/* originating_system */ 'Autodesk Translation Framework v14.24.0.0',
/* authorisation */ '');

FILE_SCHEMA (('AUTOMOTIVE_DESIGN { 1 0 10303 214 3 1 1 }'));
ENDSEC;

DATA;
#10=MECHANICAL_DESIGN_GEOMETRIC_PRESENTATION_REPRESENTATION('',(#13),#1562);
#11=SHAPE_REPRESENTATION_RELATIONSHIP('SRR','None',#1569,#12);
#12=ADVANCED_BREP_SHAPE_REPRESENTATION('',(#14),#1561);
#13=STYLED_ITEM('',(#1578),#14);
#14=MANIFOLD_SOLID_BREP('Corpo1',#816);
#15=FACE_BOUND('',#147,.T.);
#16=FACE_BOUND('',#148,.T.);
#17=FACE_BOUND('',#149,.T.);
#18=FACE_BOUND('',#150,.T.);
#19=FACE_BOUND('',#151,.T.);
#20=FACE_BOUND('',#154,.T.);
#21=FACE_BOUND('',#155,.T.);
#22=FACE_BOUND('',#168,.T.);
#23=FACE_BOUND('',#169,.T.);
#24=FACE_BOUND('',#170,.T.);
#25=FACE_BOUND('',#171,.T.);
#26=FACE_BOUND('',#174,.T.);
#27=FACE_BOUND('',#175,.T.);
#28=FACE_BOUND('',#176,.T.);
#29=FACE_BOUND('',#177,.T.);
#30=FACE_BOUND('',#178,.T.);
#31=PLANE('',#842);
#32=PLANE('',#849);
#33=PLANE('',#850);
#34=PLANE('',#851);
#35=PLANE('',#852);
#36=PLANE('',#853);
#37=PLANE('',#857);
#38=PLANE('',#861);
#39=PLANE('',#865);
#40=PLANE('',#869);
#41=PLANE('',#871);
#42=PLANE('',#873);
#43=PLANE('',#874);
#44=PLANE('',#875);
#45=PLANE('',#876);
#46=PLANE('',#882);
#47=PLANE('',#883);
#48=PLANE('',#884);
#49=PLANE('',#885);
#50=PLANE('',#886);
#51=PLANE('',#887);
#52=PLANE('',#888);
#53=PLANE('',#899);
#54=PLANE('',#900);
#55=PLANE('',#901);
#56=B_SPLINE_CURVE_WITH_KNOTS('',3,(#1213,#1214,#1215,#1216,#1217,#1218,
#1219,#1220,#1221,#1222,#1223,#1224,#1225),.UNSPECIFIED.,.F.,.F.,(4,1,1,
1,1,1,1,1,1,1,4),(-0.756396154431959,-0.729382006059389,-0.702367857686819,
-0.648339560941679,-0.540282967451399,-0.324169780470839,-0.21611318698056,
-0.10805659349028,-0.0540282967451399,-0.02701414837257,0.),
 .UNSPECIFIED.);
#57=B_SPLINE_CURVE_WITH_KNOTS('',3,(#1226,#1227,#1228,#1229,#1230,#1231,
#1232,#1233,#1234,#1235,#1236,#1237,#1238),.UNSPECIFIED.,.F.,.F.,(4,1,1,
1,1,1,1,1,1,1,4),(0.,0.02701414837257,0.0540282967451399,0.10805659349028,
0.21611318698056,0.324169780470839,0.540282967451399,0.648339560941679,
0.702367857686819,0.729382006059389,0.756396154431959),.UNSPECIFIED.);
#58=B_SPLINE_CURVE_WITH_KNOTS('',3,(#1324,#1325,#1326,#1327,#1328,#1329,
#1330,#1331,#1332,#1333,#1334,#1335,#1336),.UNSPECIFIED.,.F.,.F.,(4,1,1,
1,1,1,1,1,1,1,4),(-0.756396154431959,-0.729382006059389,-0.702367857686819,
-0.648339560941679,-0.540282967451399,-0.32416978047084,-0.21611318698056,
-0.10805659349028,-0.0540282967451399,-0.02701414837257,0.),
 .UNSPECIFIED.);
#59=B_SPLINE_CURVE_WITH_KNOTS('',3,(#1337,#1338,#1339,#1340,#1341,#1342,
#1343,#1344,#1345,#1346,#1347,#1348,#1349),.UNSPECIFIED.,.F.,.F.,(4,1,1,
1,1,1,1,1,1,1,4),(0.,0.02701414837257,0.0540282967451399,0.10805659349028,
0.21611318698056,0.32416978047084,0.540282967451399,0.648339560941679,0.702367857686819,
0.729382006059389,0.756396154431959),.UNSPECIFIED.);
#60=B_SPLINE_CURVE_WITH_KNOTS('',3,(#1473,#1474,#1475,#1476),
 .UNSPECIFIED.,.F.,.F.,(4,4),(-0.65,3.15),.UNSPECIFIED.);
#61=B_SPLINE_CURVE_WITH_KNOTS('',3,(#1492,#1493,#1494,#1495),
 .UNSPECIFIED.,.F.,.F.,(4,4),(-3.15,0.65),.UNSPECIFIED.);
#62=B_SPLINE_SURFACE_WITH_KNOTS('',3,3,((#1145,#1146,#1147,#1148,#1149,
#1150,#1151,#1152,#1153,#1154,#1155,#1156,#1157),(#1158,#1159,#1160,#1161,
#1162,#1163,#1164,#1165,#1166,#1167,#1168,#1169,#1170),(#1171,#1172,#1173,
#1174,#1175,#1176,#1177,#1178,#1179,#1180,#1181,#1182,#1183),(#1184,#1185,
#1186,#1187,#1188,#1189,#1190,#1191,#1192,#1193,#1194,#1195,#1196),(#1197,
#1198,#1199,#1200,#1201,#1202,#1203,#1204,#1205,#1206,#1207,#1208,#1209)),
 .UNSPECIFIED.,.F.,.F.,.F.,(4,1,4),(4,1,1,1,1,1,1,1,1,1,4),(0.,0.571428571428571,
1.),(0.,0.02701414837257,0.0540282967451399,0.10805659349028,0.21611318698056,
0.324169780470839,0.540282967451399,0.648339560941679,0.702367857686819,
0.729382006059389,0.756396154431959),.UNSPECIFIED.);
#63=B_SPLINE_SURFACE_WITH_KNOTS('',3,3,((#1256,#1257,#1258,#1259,#1260,
#1261,#1262,#1263,#1264,#1265,#1266,#1267,#1268),(#1269,#1270,#1271,#1272,
#1273,#1274,#1275,#1276,#1277,#1278,#1279,#1280,#1281),(#1282,#1283,#1284,
#1285,#1286,#1287,#1288,#1289,#1290,#1291,#1292,#1293,#1294),(#1295,#1296,
#1297,#1298,#1299,#1300,#1301,#1302,#1303,#1304,#1305,#1306,#1307),(#1308,
#1309,#1310,#1311,#1312,#1313,#1314,#1315,#1316,#1317,#1318,#1319,#1320)),
 .UNSPECIFIED.,.F.,.F.,.F.,(4,1,4),(4,1,1,1,1,1,1,1,1,1,4),(0.,0.571428571428571,
1.),(0.,0.02701414837257,0.0540282967451399,0.10805659349028,0.21611318698056,
0.32416978047084,0.540282967451399,0.648339560941679,0.702367857686819,
0.729382006059389,0.756396154431959),.UNSPECIFIED.);
#64=B_SPLINE_SURFACE_WITH_KNOTS('',3,3,((#1496,#1497,#1498,#1499),(#1500,
#1501,#1502,#1503),(#1504,#1505,#1506,#1507),(#1508,#1509,#1510,#1511),
(#1512,#1513,#1514,#1515),(#1516,#1517,#1518,#1519),(#1520,#1521,#1522,
#1523)),.UNSPECIFIED.,.F.,.F.,.F.,(4,1,1,1,4),(4,4),(0.,0.285714285714286,
0.571428571428571,0.857142857142857,1.),(-3.15,0.65),.UNSPECIFIED.);
#65=ELLIPSE('',#837,4.41215689271939,3.);
#66=ELLIPSE('',#841,4.09127267331893,3.);
#67=ELLIPSE('',#844,4.09127271111255,3.);
#68=ELLIPSE('',#848,4.41215684531745,3.);
#69=ELLIPSE('',#855,1.41421356237309,1.);
#70=ELLIPSE('',#860,1.41421356237309,1.);
#71=ELLIPSE('',#863,1.41421356237309,1.);
#72=ELLIPSE('',#868,1.41421356237309,1.);
#73=FACE_OUTER_BOUND('',#118,.T.);
#74=FACE_OUTER_BOUND('',#119,.T.);
#75=FACE_OUTER_BOUND('',#120,.T.);
#76=FACE_OUTER_BOUND('',#121,.T.);
#77=FACE_OUTER_BOUND('',#122,.T.);
#78=FACE_OUTER_BOUND('',#123,.T.);
#79=FACE_OUTER_BOUND('',#124,.T.);
#80=FACE_OUTER_BOUND('',#125,.T.);
#81=FACE_OUTER_BOUND('',#126,.T.);
#82=FACE_OUTER_BOUND('',#127,.T.);
#83=FACE_OUTER_BOUND('',#128,.T.);
#84=FACE_OUTER_BOUND('',#129,.T.);
#85=FACE_OUTER_BOUND('',#130,.T.);
#86=FACE_OUTER_BOUND('',#131,.T.);
#87=FACE_OUTER_BOUND('',#132,.T.);
#88=FACE_OUTER_BOUND('',#133,.T.);
#89=FACE_OUTER_BOUND('',#134,.T.);
#90=FACE_OUTER_BOUND('',#135,.T.);
#91=FACE_OUTER_BOUND('',#136,.T.);
#92=FACE_OUTER_BOUND('',#137,.T.);
#93=FACE_OUTER_BOUND('',#138,.T.);
#94=FACE_OUTER_BOUND('',#139,.T.);
#95=FACE_OUTER_BOUND('',#140,.T.);
#96=FACE_OUTER_BOUND('',#141,.T.);
#97=FACE_OUTER_BOUND('',#142,.T.);
#98=FACE_OUTER_BOUND('',#143,.T.);
#99=FACE_OUTER_BOUND('',#144,.T.);
#100=FACE_OUTER_BOUND('',#145,.T.);
#101=FACE_OUTER_BOUND('',#146,.T.);
#102=FACE_OUTER_BOUND('',#152,.T.);
#103=FACE_OUTER_BOUND('',#153,.T.);
#104=FACE_OUTER_BOUND('',#156,.T.);
#105=FACE_OUTER_BOUND('',#157,.T.);
#106=FACE_OUTER_BOUND('',#158,.T.);
#107=FACE_OUTER_BOUND('',#159,.T.);
#108=FACE_OUTER_BOUND('',#160,.T.);
#109=FACE_OUTER_BOUND('',#161,.T.);
#110=FACE_OUTER_BOUND('',#162,.T.);
#111=FACE_OUTER_BOUND('',#163,.T.);
#112=FACE_OUTER_BOUND('',#164,.T.);
#113=FACE_OUTER_BOUND('',#165,.T.);
#114=FACE_OUTER_BOUND('',#166,.T.);
#115=FACE_OUTER_BOUND('',#167,.T.);
#116=FACE_OUTER_BOUND('',#172,.T.);
#117=FACE_OUTER_BOUND('',#173,.T.);
#118=EDGE_LOOP('',(#532,#533,#534,#535));
#119=EDGE_LOOP('',(#536,#537,#538,#539));
#120=EDGE_LOOP('',(#540,#541,#542,#543));
#121=EDGE_LOOP('',(#544,#545,#546,#547));
#122=EDGE_LOOP('',(#548,#549,#550,#551));
#123=EDGE_LOOP('',(#552,#553,#554,#555));
#124=EDGE_LOOP('',(#556,#557,#558,#559));
#125=EDGE_LOOP('',(#560,#561,#562,#563));
#126=EDGE_LOOP('',(#564,#565,#566,#567));
#127=EDGE_LOOP('',(#568,#569,#570,#571,#572,#573,#574));
#128=EDGE_LOOP('',(#575,#576,#577,#578));
#129=EDGE_LOOP('',(#579,#580,#581,#582));
#130=EDGE_LOOP('',(#583,#584,#585,#586,#587));
#131=EDGE_LOOP('',(#588,#589,#590,#591,#592,#593,#594,#595));
#132=EDGE_LOOP('',(#596,#597,#598,#599));
#133=EDGE_LOOP('',(#600,#601,#602,#603));
#134=EDGE_LOOP('',(#604,#605,#606,#607));
#135=EDGE_LOOP('',(#608,#609,#610,#611));
#136=EDGE_LOOP('',(#612,#613,#614,#615));
#137=EDGE_LOOP('',(#616,#617,#618,#619));
#138=EDGE_LOOP('',(#620,#621,#622,#623));
#139=EDGE_LOOP('',(#624,#625,#626,#627));
#140=EDGE_LOOP('',(#628,#629,#630,#631));
#141=EDGE_LOOP('',(#632,#633,#634,#635));
#142=EDGE_LOOP('',(#636,#637,#638,#639));
#143=EDGE_LOOP('',(#640,#641,#642,#643));
#144=EDGE_LOOP('',(#644,#645,#646,#647,#648,#649));
#145=EDGE_LOOP('',(#650,#651,#652,#653,#654));
#146=EDGE_LOOP('',(#655,#656,#657,#658));
#147=EDGE_LOOP('',(#659));
#148=EDGE_LOOP('',(#660));
#149=EDGE_LOOP('',(#661));
#150=EDGE_LOOP('',(#662));
#151=EDGE_LOOP('',(#663));
#152=EDGE_LOOP('',(#664,#665,#666,#667,#668));
#153=EDGE_LOOP('',(#669,#670,#671,#672));
#154=EDGE_LOOP('',(#673));
#155=EDGE_LOOP('',(#674));
#156=EDGE_LOOP('',(#675,#676,#677,#678));
#157=EDGE_LOOP('',(#679,#680,#681,#682,#683,#684));
#158=EDGE_LOOP('',(#685,#686,#687,#688));
#159=EDGE_LOOP('',(#689,#690,#691,#692,#693,#694));
#160=EDGE_LOOP('',(#695,#696,#697,#698));
#161=EDGE_LOOP('',(#699,#700,#701,#702,#703,#704));
#162=EDGE_LOOP('',(#705,#706,#707,#708));
#163=EDGE_LOOP('',(#709,#710,#711,#712));
#164=EDGE_LOOP('',(#713,#714,#715,#716));
#165=EDGE_LOOP('',(#717,#718,#719,#720));
#166=EDGE_LOOP('',(#721,#722,#723,#724));
#167=EDGE_LOOP('',(#725,#726,#727,#728));
#168=EDGE_LOOP('',(#729));
#169=EDGE_LOOP('',(#730));
#170=EDGE_LOOP('',(#731,#732,#733,#734));
#171=EDGE_LOOP('',(#735,#736,#737,#738));
#172=EDGE_LOOP('',(#739,#740,#741,#742,#743,#744));
#173=EDGE_LOOP('',(#745,#746,#747,#748));
#174=EDGE_LOOP('',(#749));
#175=EDGE_LOOP('',(#750));
#176=EDGE_LOOP('',(#751));
#177=EDGE_LOOP('',(#752));
#178=EDGE_LOOP('',(#753));
#179=LINE('',#1128,#254);
#180=LINE('',#1134,#255);
#181=LINE('',#1141,#256);
#182=LINE('',#1144,#257);
#183=LINE('',#1243,#258);
#184=LINE('',#1244,#259);
#185=LINE('',#1246,#260);
#186=LINE('',#1252,#261);
#187=LINE('',#1255,#262);
#188=LINE('',#1354,#263);
#189=LINE('',#1355,#264);
#190=LINE('',#1358,#265);
#191=LINE('',#1360,#266);
#192=LINE('',#1362,#267);
#193=LINE('',#1363,#268);
#194=LINE('',#1367,#269);
#195=LINE('',#1368,#270);
#196=LINE('',#1369,#271);
#197=LINE('',#1372,#272);
#198=LINE('',#1373,#273);
#199=LINE('',#1376,#274);
#200=LINE('',#1377,#275);
#201=LINE('',#1380,#276);
#202=LINE('',#1382,#277);
#203=LINE('',#1384,#278);
#204=LINE('',#1386,#279);
#205=LINE('',#1387,#280);
#206=LINE('',#1393,#281);
#207=LINE('',#1396,#282);
#208=LINE('',#1399,#283);
#209=LINE('',#1401,#284);
#210=LINE('',#1402,#285);
#211=LINE('',#1408,#286);
#212=LINE('',#1411,#287);
#213=LINE('',#1414,#288);
#214=LINE('',#1416,#289);
#215=LINE('',#1417,#290);
#216=LINE('',#1423,#291);
#217=LINE('',#1426,#292);
#218=LINE('',#1429,#293);
#219=LINE('',#1431,#294);
#220=LINE('',#1432,#295);
#221=LINE('',#1438,#296);
#222=LINE('',#1441,#297);
#223=LINE('',#1444,#298);
#224=LINE('',#1446,#299);
#225=LINE('',#1447,#300);
#226=LINE('',#1449,#301);
#227=LINE('',#1450,#302);
#228=LINE('',#1452,#303);
#229=LINE('',#1454,#304);
#230=LINE('',#1455,#305);
#231=LINE('',#1457,#306);
#232=LINE('',#1461,#307);
#233=LINE('',#1462,#308);
#234=LINE('',#1463,#309);
#235=LINE('',#1466,#310);
#236=LINE('',#1468,#311);
#237=LINE('',#1470,#312);
#238=LINE('',#1471,#313);
#239=LINE('',#1477,#314);
#240=LINE('',#1489,#315);
#241=LINE('',#1491,#316);
#242=LINE('',#1525,#317);
#243=LINE('',#1526,#318);
#244=LINE('',#1529,#319);
#245=LINE('',#1530,#320);
#246=LINE('',#1533,#321);
#247=LINE('',#1537,#322);
#248=LINE('',#1541,#323);
#249=LINE('',#1545,#324);
#250=LINE('',#1549,#325);
#251=LINE('',#1553,#326);
#252=LINE('',#1555,#327);
#253=LINE('',#1557,#328);
#254=VECTOR('',#908,2.5);
#255=VECTOR('',#915,2.5);
#256=VECTOR('',#922,10.);
#257=VECTOR('',#925,10.);
#258=VECTOR('',#932,10.);
#259=VECTOR('',#933,10.);
#260=VECTOR('',#936,10.);
#261=VECTOR('',#941,10.);
#262=VECTOR('',#944,10.);
#263=VECTOR('',#951,10.);
#264=VECTOR('',#952,10.);
#265=VECTOR('',#955,10.);
#266=VECTOR('',#956,10.);
#267=VECTOR('',#957,10.);
#268=VECTOR('',#958,10.);
#269=VECTOR('',#961,10.);
#270=VECTOR('',#962,10.);
#271=VECTOR('',#963,10.);
#272=VECTOR('',#966,10.);
#273=VECTOR('',#967,10.);
#274=VECTOR('',#970,10.);
#275=VECTOR('',#971,10.);
#276=VECTOR('',#974,10.);
#277=VECTOR('',#975,10.);
#278=VECTOR('',#976,10.);
#279=VECTOR('',#977,10.);
#280=VECTOR('',#978,10.);
#281=VECTOR('',#983,10.);
#282=VECTOR('',#986,10.);
#283=VECTOR('',#989,10.);
#284=VECTOR('',#990,10.);
#285=VECTOR('',#991,10.);
#286=VECTOR('',#996,10.);
#287=VECTOR('',#999,10.);
#288=VECTOR('',#1002,10.);
#289=VECTOR('',#1003,10.);
#290=VECTOR('',#1004,10.);
#291=VECTOR('',#1009,10.);
#292=VECTOR('',#1012,10.);
#293=VECTOR('',#1015,10.);
#294=VECTOR('',#1016,10.);
#295=VECTOR('',#1017,10.);
#296=VECTOR('',#1022,10.);
#297=VECTOR('',#1025,10.);
#298=VECTOR('',#1028,10.);
#299=VECTOR('',#1029,10.);
#300=VECTOR('',#1030,10.);
#301=VECTOR('',#1033,10.);
#302=VECTOR('',#1034,10.);
#303=VECTOR('',#1037,10.);
#304=VECTOR('',#1040,10.);
#305=VECTOR('',#1041,10.);
#306=VECTOR('',#1044,10.);
#307=VECTOR('',#1047,10.);
#308=VECTOR('',#1048,10.);
#309=VECTOR('',#1049,10.);
#310=VECTOR('',#1052,10.);
#311=VECTOR('',#1053,10.);
#312=VECTOR('',#1054,10.);
#313=VECTOR('',#1055,10.);
#314=VECTOR('',#1058,10.);
#315=VECTOR('',#1071,10.);
#316=VECTOR('',#1074,10.);
#317=VECTOR('',#1077,10.);
#318=VECTOR('',#1078,10.);
#319=VECTOR('',#1083,10.);
#320=VECTOR('',#1084,10.);
#321=VECTOR('',#1089,10.);
#322=VECTOR('',#1094,1.7);
#323=VECTOR('',#1099,1.7);
#324=VECTOR('',#1104,1.7);
#325=VECTOR('',#1109,1.7);
#326=VECTOR('',#1114,11.5);
#327=VECTOR('',#1117,10.);
#328=VECTOR('',#1120,10.);
#329=CIRCLE('',#831,2.5);
#330=CIRCLE('',#832,2.5);
#331=CIRCLE('',#834,2.5);
#332=CIRCLE('',#835,2.5);
#333=CIRCLE('',#838,3.);
#334=CIRCLE('',#839,3.);
#335=CIRCLE('',#845,3.);
#336=CIRCLE('',#846,3.);
#337=CIRCLE('',#856,1.);
#338=CIRCLE('',#859,1.);
#339=CIRCLE('',#864,1.);
#340=CIRCLE('',#867,1.);
#341=CIRCLE('',#877,11.5);
#342=CIRCLE('',#878,1.7);
#343=CIRCLE('',#879,1.7);
#344=CIRCLE('',#880,1.7);
#345=CIRCLE('',#881,1.7);
#346=CIRCLE('',#890,1.7);
#347=CIRCLE('',#892,1.7);
#348=CIRCLE('',#894,1.7);
#349=CIRCLE('',#896,1.7);
#350=CIRCLE('',#898,11.5);
#351=VERTEX_POINT('',#1125);
#352=VERTEX_POINT('',#1127);
#353=VERTEX_POINT('',#1131);
#354=VERTEX_POINT('',#1133);
#355=VERTEX_POINT('',#1137);
#356=VERTEX_POINT('',#1138);
#357=VERTEX_POINT('',#1140);
#358=VERTEX_POINT('',#1142);
#359=VERTEX_POINT('',#1210);
#360=VERTEX_POINT('',#1211);
#361=VERTEX_POINT('',#1240);
#362=VERTEX_POINT('',#1241);
#363=VERTEX_POINT('',#1248);
#364=VERTEX_POINT('',#1249);
#365=VERTEX_POINT('',#1251);
#366=VERTEX_POINT('',#1253);
#367=VERTEX_POINT('',#1321);
#368=VERTEX_POINT('',#1322);
#369=VERTEX_POINT('',#1351);
#370=VERTEX_POINT('',#1352);
#371=VERTEX_POINT('',#1357);
#372=VERTEX_POINT('',#1359);
#373=VERTEX_POINT('',#1361);
#374=VERTEX_POINT('',#1365);
#375=VERTEX_POINT('',#1366);
#376=VERTEX_POINT('',#1371);
#377=VERTEX_POINT('',#1375);
#378=VERTEX_POINT('',#1379);
#379=VERTEX_POINT('',#1381);
#380=VERTEX_POINT('',#1383);
#381=VERTEX_POINT('',#1385);
#382=VERTEX_POINT('',#1389);
#383=VERTEX_POINT('',#1390);
#384=VERTEX_POINT('',#1392);
#385=VERTEX_POINT('',#1394);
#386=VERTEX_POINT('',#1398);
#387=VERTEX_POINT('',#1400);
#388=VERTEX_POINT('',#1404);
#389=VERTEX_POINT('',#1405);
#390=VERTEX_POINT('',#1407);
#391=VERTEX_POINT('',#1409);
#392=VERTEX_POINT('',#1413);
#393=VERTEX_POINT('',#1415);
#394=VERTEX_POINT('',#1419);
#395=VERTEX_POINT('',#1420);
#396=VERTEX_POINT('',#1422);
#397=VERTEX_POINT('',#1424);
#398=VERTEX_POINT('',#1428);
#399=VERTEX_POINT('',#1430);
#400=VERTEX_POINT('',#1434);
#401=VERTEX_POINT('',#1435);
#402=VERTEX_POINT('',#1437);
#403=VERTEX_POINT('',#1439);
#404=VERTEX_POINT('',#1443);
#405=VERTEX_POINT('',#1445);
#406=VERTEX_POINT('',#1459);
#407=VERTEX_POINT('',#1460);
#408=VERTEX_POINT('',#1465);
#409=VERTEX_POINT('',#1467);
#410=VERTEX_POINT('',#1469);
#411=VERTEX_POINT('',#1478);
#412=VERTEX_POINT('',#1480);
#413=VERTEX_POINT('',#1482);
#414=VERTEX_POINT('',#1484);
#415=VERTEX_POINT('',#1486);
#416=VERTEX_POINT('',#1535);
#417=VERTEX_POINT('',#1539);
#418=VERTEX_POINT('',#1543);
#419=VERTEX_POINT('',#1547);
#420=VERTEX_POINT('',#1551);
#421=EDGE_CURVE('',#351,#351,#329,.T.);
#422=EDGE_CURVE('',#351,#352,#179,.T.);
#423=EDGE_CURVE('',#352,#352,#330,.T.);
#424=EDGE_CURVE('',#353,#353,#331,.T.);
#425=EDGE_CURVE('',#353,#354,#180,.T.);
#426=EDGE_CURVE('',#354,#354,#332,.T.);
#427=EDGE_CURVE('',#355,#356,#65,.T.);
#428=EDGE_CURVE('',#356,#357,#181,.T.);
#429=EDGE_CURVE('',#357,#358,#333,.T.);
#430=EDGE_CURVE('',#358,#355,#182,.T.);
#431=EDGE_CURVE('',#359,#360,#334,.T.);
#432=EDGE_CURVE('',#360,#358,#56,.T.);
#433=EDGE_CURVE('',#357,#359,#57,.T.);
#434=EDGE_CURVE('',#361,#362,#66,.F.);
#435=EDGE_CURVE('',#361,#360,#183,.T.);
#436=EDGE_CURVE('',#359,#362,#184,.T.);
#437=EDGE_CURVE('',#356,#362,#185,.T.);
#438=EDGE_CURVE('',#363,#364,#67,.T.);
#439=EDGE_CURVE('',#364,#365,#186,.T.);
#440=EDGE_CURVE('',#365,#366,#335,.T.);
#441=EDGE_CURVE('',#366,#363,#187,.T.);
#442=EDGE_CURVE('',#367,#368,#336,.T.);
#443=EDGE_CURVE('',#368,#366,#58,.T.);
#444=EDGE_CURVE('',#365,#367,#59,.T.);
#445=EDGE_CURVE('',#369,#370,#68,.F.);
#446=EDGE_CURVE('',#369,#368,#188,.T.);
#447=EDGE_CURVE('',#367,#370,#189,.T.);
#448=EDGE_CURVE('',#364,#371,#190,.T.);
#449=EDGE_CURVE('',#371,#372,#191,.T.);
#450=EDGE_CURVE('',#372,#373,#192,.T.);
#451=EDGE_CURVE('',#373,#370,#193,.T.);
#452=EDGE_CURVE('',#374,#375,#194,.T.);
#453=EDGE_CURVE('',#374,#372,#195,.T.);
#454=EDGE_CURVE('',#375,#371,#196,.T.);
#455=EDGE_CURVE('',#376,#374,#197,.T.);
#456=EDGE_CURVE('',#373,#376,#198,.T.);
#457=EDGE_CURVE('',#376,#377,#199,.T.);
#458=EDGE_CURVE('',#369,#377,#200,.T.);
#459=EDGE_CURVE('',#378,#375,#201,.T.);
#460=EDGE_CURVE('',#379,#378,#202,.T.);
#461=EDGE_CURVE('',#379,#380,#203,.T.);
#462=EDGE_CURVE('',#381,#380,#204,.T.);
#463=EDGE_CURVE('',#377,#381,#205,.T.);
#464=EDGE_CURVE('',#382,#383,#69,.T.);
#465=EDGE_CURVE('',#383,#384,#206,.T.);
#466=EDGE_CURVE('',#384,#385,#337,.T.);
#467=EDGE_CURVE('',#385,#382,#207,.T.);
#468=EDGE_CURVE('',#383,#386,#208,.T.);
#469=EDGE_CURVE('',#387,#386,#209,.T.);
#470=EDGE_CURVE('',#384,#387,#210,.T.);
#471=EDGE_CURVE('',#388,#389,#338,.T.);
#472=EDGE_CURVE('',#389,#390,#211,.T.);
#473=EDGE_CURVE('',#390,#391,#70,.T.);
#474=EDGE_CURVE('',#391,#388,#212,.T.);
#475=EDGE_CURVE('',#389,#392,#213,.T.);
#476=EDGE_CURVE('',#393,#392,#214,.T.);
#477=EDGE_CURVE('',#390,#393,#215,.T.);
#478=EDGE_CURVE('',#394,#395,#71,.T.);
#479=EDGE_CURVE('',#395,#396,#216,.T.);
#480=EDGE_CURVE('',#396,#397,#339,.T.);
#481=EDGE_CURVE('',#397,#394,#217,.T.);
#482=EDGE_CURVE('',#395,#398,#218,.T.);
#483=EDGE_CURVE('',#399,#398,#219,.T.);
#484=EDGE_CURVE('',#396,#399,#220,.T.);
#485=EDGE_CURVE('',#400,#401,#340,.T.);
#486=EDGE_CURVE('',#401,#402,#221,.T.);
#487=EDGE_CURVE('',#402,#403,#72,.T.);
#488=EDGE_CURVE('',#403,#400,#222,.T.);
#489=EDGE_CURVE('',#401,#404,#223,.T.);
#490=EDGE_CURVE('',#405,#404,#224,.T.);
#491=EDGE_CURVE('',#402,#405,#225,.T.);
#492=EDGE_CURVE('',#390,#395,#226,.T.);
#493=EDGE_CURVE('',#394,#391,#227,.T.);
#494=EDGE_CURVE('',#398,#393,#228,.T.);
#495=EDGE_CURVE('',#402,#383,#229,.T.);
#496=EDGE_CURVE('',#382,#403,#230,.T.);
#497=EDGE_CURVE('',#386,#405,#231,.T.);
#498=EDGE_CURVE('',#406,#407,#232,.T.);
#499=EDGE_CURVE('',#361,#406,#233,.T.);
#500=EDGE_CURVE('',#407,#355,#234,.T.);
#501=EDGE_CURVE('',#407,#408,#235,.T.);
#502=EDGE_CURVE('',#409,#408,#236,.T.);
#503=EDGE_CURVE('',#409,#410,#237,.T.);
#504=EDGE_CURVE('',#406,#410,#238,.T.);
#505=EDGE_CURVE('',#368,#358,#60,.T.);
#506=EDGE_CURVE('',#355,#369,#239,.T.);
#507=EDGE_CURVE('',#411,#411,#341,.T.);
#508=EDGE_CURVE('',#412,#412,#342,.T.);
#509=EDGE_CURVE('',#413,#413,#343,.T.);
#510=EDGE_CURVE('',#414,#414,#344,.T.);
#511=EDGE_CURVE('',#415,#415,#345,.T.);
#512=EDGE_CURVE('',#378,#363,#240,.T.);
#513=EDGE_CURVE('',#363,#361,#241,.T.);
#514=EDGE_CURVE('',#360,#366,#61,.T.);
#515=EDGE_CURVE('',#397,#388,#242,.T.);
#516=EDGE_CURVE('',#392,#399,#243,.T.);
#517=EDGE_CURVE('',#385,#400,#244,.T.);
#518=EDGE_CURVE('',#404,#387,#245,.T.);
#519=EDGE_CURVE('',#410,#379,#246,.T.);
#520=EDGE_CURVE('',#416,#416,#346,.T.);
#521=EDGE_CURVE('',#416,#415,#247,.T.);
#522=EDGE_CURVE('',#417,#417,#347,.T.);
#523=EDGE_CURVE('',#417,#414,#248,.T.);
#524=EDGE_CURVE('',#418,#418,#348,.T.);
#525=EDGE_CURVE('',#418,#413,#249,.T.);
#526=EDGE_CURVE('',#419,#419,#349,.T.);
#527=EDGE_CURVE('',#419,#412,#250,.T.);
#528=EDGE_CURVE('',#420,#420,#350,.T.);
#529=EDGE_CURVE('',#420,#411,#251,.T.);
#530=EDGE_CURVE('',#380,#409,#252,.T.);
#531=EDGE_CURVE('',#408,#381,#253,.T.);
#532=ORIENTED_EDGE('',*,*,#421,.F.);
#533=ORIENTED_EDGE('',*,*,#422,.T.);
#534=ORIENTED_EDGE('',*,*,#423,.F.);
#535=ORIENTED_EDGE('',*,*,#422,.F.);
#536=ORIENTED_EDGE('',*,*,#424,.F.);
#537=ORIENTED_EDGE('',*,*,#425,.T.);
#538=ORIENTED_EDGE('',*,*,#426,.F.);
#539=ORIENTED_EDGE('',*,*,#425,.F.);
#540=ORIENTED_EDGE('',*,*,#427,.T.);
#541=ORIENTED_EDGE('',*,*,#428,.T.);
#542=ORIENTED_EDGE('',*,*,#429,.T.);
#543=ORIENTED_EDGE('',*,*,#430,.T.);
#544=ORIENTED_EDGE('',*,*,#431,.T.);
#545=ORIENTED_EDGE('',*,*,#432,.T.);
#546=ORIENTED_EDGE('',*,*,#429,.F.);
#547=ORIENTED_EDGE('',*,*,#433,.T.);
#548=ORIENTED_EDGE('',*,*,#434,.F.);
#549=ORIENTED_EDGE('',*,*,#435,.T.);
#550=ORIENTED_EDGE('',*,*,#431,.F.);
#551=ORIENTED_EDGE('',*,*,#436,.T.);
#552=ORIENTED_EDGE('',*,*,#436,.F.);
#553=ORIENTED_EDGE('',*,*,#433,.F.);
#554=ORIENTED_EDGE('',*,*,#428,.F.);
#555=ORIENTED_EDGE('',*,*,#437,.T.);
#556=ORIENTED_EDGE('',*,*,#438,.T.);
#557=ORIENTED_EDGE('',*,*,#439,.T.);
#558=ORIENTED_EDGE('',*,*,#440,.T.);
#559=ORIENTED_EDGE('',*,*,#441,.T.);
#560=ORIENTED_EDGE('',*,*,#442,.T.);
#561=ORIENTED_EDGE('',*,*,#443,.T.);
#562=ORIENTED_EDGE('',*,*,#440,.F.);
#563=ORIENTED_EDGE('',*,*,#444,.T.);
#564=ORIENTED_EDGE('',*,*,#445,.F.);
#565=ORIENTED_EDGE('',*,*,#446,.T.);
#566=ORIENTED_EDGE('',*,*,#442,.F.);
#567=ORIENTED_EDGE('',*,*,#447,.T.);
#568=ORIENTED_EDGE('',*,*,#447,.F.);
#569=ORIENTED_EDGE('',*,*,#444,.F.);
#570=ORIENTED_EDGE('',*,*,#439,.F.);
#571=ORIENTED_EDGE('',*,*,#448,.T.);
#572=ORIENTED_EDGE('',*,*,#449,.T.);
#573=ORIENTED_EDGE('',*,*,#450,.T.);
#574=ORIENTED_EDGE('',*,*,#451,.T.);
#575=ORIENTED_EDGE('',*,*,#452,.F.);
#576=ORIENTED_EDGE('',*,*,#453,.T.);
#577=ORIENTED_EDGE('',*,*,#449,.F.);
#578=ORIENTED_EDGE('',*,*,#454,.F.);
#579=ORIENTED_EDGE('',*,*,#455,.F.);
#580=ORIENTED_EDGE('',*,*,#456,.F.);
#581=ORIENTED_EDGE('',*,*,#450,.F.);
#582=ORIENTED_EDGE('',*,*,#453,.F.);
#583=ORIENTED_EDGE('',*,*,#456,.T.);
#584=ORIENTED_EDGE('',*,*,#457,.T.);
#585=ORIENTED_EDGE('',*,*,#458,.F.);
#586=ORIENTED_EDGE('',*,*,#445,.T.);
#587=ORIENTED_EDGE('',*,*,#451,.F.);
#588=ORIENTED_EDGE('',*,*,#455,.T.);
#589=ORIENTED_EDGE('',*,*,#452,.T.);
#590=ORIENTED_EDGE('',*,*,#459,.F.);
#591=ORIENTED_EDGE('',*,*,#460,.F.);
#592=ORIENTED_EDGE('',*,*,#461,.T.);
#593=ORIENTED_EDGE('',*,*,#462,.F.);
#594=ORIENTED_EDGE('',*,*,#463,.F.);
#595=ORIENTED_EDGE('',*,*,#457,.F.);
#596=ORIENTED_EDGE('',*,*,#464,.T.);
#597=ORIENTED_EDGE('',*,*,#465,.T.);
#598=ORIENTED_EDGE('',*,*,#466,.T.);
#599=ORIENTED_EDGE('',*,*,#467,.T.);
#600=ORIENTED_EDGE('',*,*,#465,.F.);
#601=ORIENTED_EDGE('',*,*,#468,.T.);
#602=ORIENTED_EDGE('',*,*,#469,.F.);
#603=ORIENTED_EDGE('',*,*,#470,.F.);
#604=ORIENTED_EDGE('',*,*,#471,.T.);
#605=ORIENTED_EDGE('',*,*,#472,.T.);
#606=ORIENTED_EDGE('',*,*,#473,.T.);
#607=ORIENTED_EDGE('',*,*,#474,.T.);
#608=ORIENTED_EDGE('',*,*,#472,.F.);
#609=ORIENTED_EDGE('',*,*,#475,.T.);
#610=ORIENTED_EDGE('',*,*,#476,.F.);
#611=ORIENTED_EDGE('',*,*,#477,.F.);
#612=ORIENTED_EDGE('',*,*,#478,.T.);
#613=ORIENTED_EDGE('',*,*,#479,.T.);
#614=ORIENTED_EDGE('',*,*,#480,.T.);
#615=ORIENTED_EDGE('',*,*,#481,.T.);
#616=ORIENTED_EDGE('',*,*,#479,.F.);
#617=ORIENTED_EDGE('',*,*,#482,.T.);
#618=ORIENTED_EDGE('',*,*,#483,.F.);
#619=ORIENTED_EDGE('',*,*,#484,.F.);
#620=ORIENTED_EDGE('',*,*,#485,.T.);
#621=ORIENTED_EDGE('',*,*,#486,.T.);
#622=ORIENTED_EDGE('',*,*,#487,.T.);
#623=ORIENTED_EDGE('',*,*,#488,.T.);
#624=ORIENTED_EDGE('',*,*,#486,.F.);
#625=ORIENTED_EDGE('',*,*,#489,.T.);
#626=ORIENTED_EDGE('',*,*,#490,.F.);
#627=ORIENTED_EDGE('',*,*,#491,.F.);
#628=ORIENTED_EDGE('',*,*,#492,.T.);
#629=ORIENTED_EDGE('',*,*,#478,.F.);
#630=ORIENTED_EDGE('',*,*,#493,.T.);
#631=ORIENTED_EDGE('',*,*,#473,.F.);
#632=ORIENTED_EDGE('',*,*,#492,.F.);
#633=ORIENTED_EDGE('',*,*,#477,.T.);
#634=ORIENTED_EDGE('',*,*,#494,.F.);
#635=ORIENTED_EDGE('',*,*,#482,.F.);
#636=ORIENTED_EDGE('',*,*,#495,.T.);
#637=ORIENTED_EDGE('',*,*,#464,.F.);
#638=ORIENTED_EDGE('',*,*,#496,.T.);
#639=ORIENTED_EDGE('',*,*,#487,.F.);
#640=ORIENTED_EDGE('',*,*,#495,.F.);
#641=ORIENTED_EDGE('',*,*,#491,.T.);
#642=ORIENTED_EDGE('',*,*,#497,.F.);
#643=ORIENTED_EDGE('',*,*,#468,.F.);
#644=ORIENTED_EDGE('',*,*,#498,.F.);
#645=ORIENTED_EDGE('',*,*,#499,.F.);
#646=ORIENTED_EDGE('',*,*,#434,.T.);
#647=ORIENTED_EDGE('',*,*,#437,.F.);
#648=ORIENTED_EDGE('',*,*,#427,.F.);
#649=ORIENTED_EDGE('',*,*,#500,.F.);
#650=ORIENTED_EDGE('',*,*,#498,.T.);
#651=ORIENTED_EDGE('',*,*,#501,.T.);
#652=ORIENTED_EDGE('',*,*,#502,.F.);
#653=ORIENTED_EDGE('',*,*,#503,.T.);
#654=ORIENTED_EDGE('',*,*,#504,.F.);
#655=ORIENTED_EDGE('',*,*,#430,.F.);
#656=ORIENTED_EDGE('',*,*,#505,.F.);
#657=ORIENTED_EDGE('',*,*,#446,.F.);
#658=ORIENTED_EDGE('',*,*,#506,.F.);
#659=ORIENTED_EDGE('',*,*,#507,.T.);
#660=ORIENTED_EDGE('',*,*,#508,.T.);
#661=ORIENTED_EDGE('',*,*,#509,.T.);
#662=ORIENTED_EDGE('',*,*,#510,.T.);
#663=ORIENTED_EDGE('',*,*,#511,.T.);
#664=ORIENTED_EDGE('',*,*,#454,.T.);
#665=ORIENTED_EDGE('',*,*,#448,.F.);
#666=ORIENTED_EDGE('',*,*,#438,.F.);
#667=ORIENTED_EDGE('',*,*,#512,.F.);
#668=ORIENTED_EDGE('',*,*,#459,.T.);
#669=ORIENTED_EDGE('',*,*,#435,.F.);
#670=ORIENTED_EDGE('',*,*,#513,.F.);
#671=ORIENTED_EDGE('',*,*,#441,.F.);
#672=ORIENTED_EDGE('',*,*,#514,.F.);
#673=ORIENTED_EDGE('',*,*,#423,.T.);
#674=ORIENTED_EDGE('',*,*,#426,.T.);
#675=ORIENTED_EDGE('',*,*,#432,.F.);
#676=ORIENTED_EDGE('',*,*,#514,.T.);
#677=ORIENTED_EDGE('',*,*,#443,.F.);
#678=ORIENTED_EDGE('',*,*,#505,.T.);
#679=ORIENTED_EDGE('',*,*,#515,.F.);
#680=ORIENTED_EDGE('',*,*,#480,.F.);
#681=ORIENTED_EDGE('',*,*,#484,.T.);
#682=ORIENTED_EDGE('',*,*,#516,.F.);
#683=ORIENTED_EDGE('',*,*,#475,.F.);
#684=ORIENTED_EDGE('',*,*,#471,.F.);
#685=ORIENTED_EDGE('',*,*,#476,.T.);
#686=ORIENTED_EDGE('',*,*,#516,.T.);
#687=ORIENTED_EDGE('',*,*,#483,.T.);
#688=ORIENTED_EDGE('',*,*,#494,.T.);
#689=ORIENTED_EDGE('',*,*,#517,.F.);
#690=ORIENTED_EDGE('',*,*,#466,.F.);
#691=ORIENTED_EDGE('',*,*,#470,.T.);
#692=ORIENTED_EDGE('',*,*,#518,.F.);
#693=ORIENTED_EDGE('',*,*,#489,.F.);
#694=ORIENTED_EDGE('',*,*,#485,.F.);
#695=ORIENTED_EDGE('',*,*,#497,.T.);
#696=ORIENTED_EDGE('',*,*,#490,.T.);
#697=ORIENTED_EDGE('',*,*,#518,.T.);
#698=ORIENTED_EDGE('',*,*,#469,.T.);
#699=ORIENTED_EDGE('',*,*,#504,.T.);
#700=ORIENTED_EDGE('',*,*,#519,.T.);
#701=ORIENTED_EDGE('',*,*,#460,.T.);
#702=ORIENTED_EDGE('',*,*,#512,.T.);
#703=ORIENTED_EDGE('',*,*,#513,.T.);
#704=ORIENTED_EDGE('',*,*,#499,.T.);
#705=ORIENTED_EDGE('',*,*,#520,.F.);
#706=ORIENTED_EDGE('',*,*,#521,.T.);
#707=ORIENTED_EDGE('',*,*,#511,.F.);
#708=ORIENTED_EDGE('',*,*,#521,.F.);
#709=ORIENTED_EDGE('',*,*,#522,.F.);
#710=ORIENTED_EDGE('',*,*,#523,.T.);
#711=ORIENTED_EDGE('',*,*,#510,.F.);
#712=ORIENTED_EDGE('',*,*,#523,.F.);
#713=ORIENTED_EDGE('',*,*,#524,.F.);
#714=ORIENTED_EDGE('',*,*,#525,.T.);
#715=ORIENTED_EDGE('',*,*,#509,.F.);
#716=ORIENTED_EDGE('',*,*,#525,.F.);
#717=ORIENTED_EDGE('',*,*,#526,.F.);
#718=ORIENTED_EDGE('',*,*,#527,.T.);
#719=ORIENTED_EDGE('',*,*,#508,.F.);
#720=ORIENTED_EDGE('',*,*,#527,.F.);
#721=ORIENTED_EDGE('',*,*,#528,.F.);
#722=ORIENTED_EDGE('',*,*,#529,.T.);
#723=ORIENTED_EDGE('',*,*,#507,.F.);
#724=ORIENTED_EDGE('',*,*,#529,.F.);
#725=ORIENTED_EDGE('',*,*,#503,.F.);
#726=ORIENTED_EDGE('',*,*,#530,.F.);
#727=ORIENTED_EDGE('',*,*,#461,.F.);
#728=ORIENTED_EDGE('',*,*,#519,.F.);
#729=ORIENTED_EDGE('',*,*,#421,.T.);
#730=ORIENTED_EDGE('',*,*,#424,.T.);
#731=ORIENTED_EDGE('',*,*,#517,.T.);
#732=ORIENTED_EDGE('',*,*,#488,.F.);
#733=ORIENTED_EDGE('',*,*,#496,.F.);
#734=ORIENTED_EDGE('',*,*,#467,.F.);
#735=ORIENTED_EDGE('',*,*,#493,.F.);
#736=ORIENTED_EDGE('',*,*,#481,.F.);
#737=ORIENTED_EDGE('',*,*,#515,.T.);
#738=ORIENTED_EDGE('',*,*,#474,.F.);
#739=ORIENTED_EDGE('',*,*,#500,.T.);
#740=ORIENTED_EDGE('',*,*,#506,.T.);
#741=ORIENTED_EDGE('',*,*,#458,.T.);
#742=ORIENTED_EDGE('',*,*,#463,.T.);
#743=ORIENTED_EDGE('',*,*,#531,.F.);
#744=ORIENTED_EDGE('',*,*,#501,.F.);
#745=ORIENTED_EDGE('',*,*,#502,.T.);
#746=ORIENTED_EDGE('',*,*,#531,.T.);
#747=ORIENTED_EDGE('',*,*,#462,.T.);
#748=ORIENTED_EDGE('',*,*,#530,.T.);
#749=ORIENTED_EDGE('',*,*,#520,.T.);
#750=ORIENTED_EDGE('',*,*,#522,.T.);
#751=ORIENTED_EDGE('',*,*,#524,.T.);
#752=ORIENTED_EDGE('',*,*,#526,.T.);
#753=ORIENTED_EDGE('',*,*,#528,.T.);
#754=CYLINDRICAL_SURFACE('',#830,2.5);
#755=CYLINDRICAL_SURFACE('',#833,2.5);
#756=CYLINDRICAL_SURFACE('',#836,3.);
#757=CYLINDRICAL_SURFACE('',#840,3.);
#758=CYLINDRICAL_SURFACE('',#843,3.);
#759=CYLINDRICAL_SURFACE('',#847,3.);
#760=CYLINDRICAL_SURFACE('',#854,1.);
#761=CYLINDRICAL_SURFACE('',#858,1.);
#762=CYLINDRICAL_SURFACE('',#862,1.);
#763=CYLINDRICAL_SURFACE('',#866,1.);
#764=CYLINDRICAL_SURFACE('',#870,1.);
#765=CYLINDRICAL_SURFACE('',#872,1.);
#766=CYLINDRICAL_SURFACE('',#889,1.7);
#767=CYLINDRICAL_SURFACE('',#891,1.7);
#768=CYLINDRICAL_SURFACE('',#893,1.7);
#769=CYLINDRICAL_SURFACE('',#895,1.7);
#770=CYLINDRICAL_SURFACE('',#897,11.5);
#771=ADVANCED_FACE('',(#73),#754,.F.);
#772=ADVANCED_FACE('',(#74),#755,.F.);
#773=ADVANCED_FACE('',(#75),#756,.F.);
#774=ADVANCED_FACE('',(#76),#62,.T.);
#775=ADVANCED_FACE('',(#77),#757,.F.);
#776=ADVANCED_FACE('',(#78),#31,.T.);
#777=ADVANCED_FACE('',(#79),#758,.F.);
#778=ADVANCED_FACE('',(#80),#63,.T.);
#779=ADVANCED_FACE('',(#81),#759,.F.);
#780=ADVANCED_FACE('',(#82),#32,.T.);
#781=ADVANCED_FACE('',(#83),#33,.F.);
#782=ADVANCED_FACE('',(#84),#34,.F.);
#783=ADVANCED_FACE('',(#85),#35,.T.);
#784=ADVANCED_FACE('',(#86),#36,.T.);
#785=ADVANCED_FACE('',(#87),#760,.F.);
#786=ADVANCED_FACE('',(#88),#37,.T.);
#787=ADVANCED_FACE('',(#89),#761,.F.);
#788=ADVANCED_FACE('',(#90),#38,.T.);
#789=ADVANCED_FACE('',(#91),#762,.F.);
#790=ADVANCED_FACE('',(#92),#39,.T.);
#791=ADVANCED_FACE('',(#93),#763,.F.);
#792=ADVANCED_FACE('',(#94),#40,.T.);
#793=ADVANCED_FACE('',(#95),#764,.F.);
#794=ADVANCED_FACE('',(#96),#41,.T.);
#795=ADVANCED_FACE('',(#97),#765,.F.);
#796=ADVANCED_FACE('',(#98),#42,.T.);
#797=ADVANCED_FACE('',(#99),#43,.T.);
#798=ADVANCED_FACE('',(#100),#44,.T.);
#799=ADVANCED_FACE('',(#101,#15,#16,#17,#18,#19),#45,.F.);
#800=ADVANCED_FACE('',(#102),#46,.T.);
#801=ADVANCED_FACE('',(#103,#20,#21),#47,.T.);
#802=ADVANCED_FACE('',(#104),#64,.T.);
#803=ADVANCED_FACE('',(#105),#48,.T.);
#804=ADVANCED_FACE('',(#106),#49,.T.);
#805=ADVANCED_FACE('',(#107),#50,.T.);
#806=ADVANCED_FACE('',(#108),#51,.T.);
#807=ADVANCED_FACE('',(#109),#52,.T.);
#808=ADVANCED_FACE('',(#110),#766,.F.);
#809=ADVANCED_FACE('',(#111),#767,.F.);
#810=ADVANCED_FACE('',(#112),#768,.F.);
#811=ADVANCED_FACE('',(#113),#769,.F.);
#812=ADVANCED_FACE('',(#114),#770,.F.);
#813=ADVANCED_FACE('',(#115,#22,#23,#24,#25),#53,.T.);
#814=ADVANCED_FACE('',(#116),#54,.T.);
#815=ADVANCED_FACE('',(#117,#26,#27,#28,#29,#30),#55,.T.);
#816=CLOSED_SHELL('',(#771,#772,#773,#774,#775,#776,#777,#778,#779,#780,
#781,#782,#783,#784,#785,#786,#787,#788,#789,#790,#791,#792,#793,#794,#795,
#796,#797,#798,#799,#800,#801,#802,#803,#804,#805,#806,#807,#808,#809,#810,
#811,#812,#813,#814,#815));
#817=DERIVED_UNIT_ELEMENT(#819,1.);
#818=DERIVED_UNIT_ELEMENT(#1564,-3.);
#819=(
MASS_UNIT()
NAMED_UNIT(*)
SI_UNIT(.KILO.,.GRAM.)
);
#820=DERIVED_UNIT((#817,#818));
#821=MEASURE_REPRESENTATION_ITEM('density measure',
POSITIVE_RATIO_MEASURE(7850.),#820);
#822=PROPERTY_DEFINITION_REPRESENTATION(#827,#824);
#823=PROPERTY_DEFINITION_REPRESENTATION(#828,#825);
#824=REPRESENTATION('material name',(#826),#1561);
#825=REPRESENTATION('density',(#821),#1561);
#826=DESCRIPTIVE_REPRESENTATION_ITEM('A\X\E7o','A\X\E7o');
#827=PROPERTY_DEFINITION('material property','material name',#1571);
#828=PROPERTY_DEFINITION('material property','density of part',#1571);
#829=AXIS2_PLACEMENT_3D('',#1123,#902,#903);
#830=AXIS2_PLACEMENT_3D('',#1124,#904,#905);
#831=AXIS2_PLACEMENT_3D('',#1126,#906,#907);
#832=AXIS2_PLACEMENT_3D('',#1129,#909,#910);
#833=AXIS2_PLACEMENT_3D('',#1130,#911,#912);
#834=AXIS2_PLACEMENT_3D('',#1132,#913,#914);
#835=AXIS2_PLACEMENT_3D('',#1135,#916,#917);
#836=AXIS2_PLACEMENT_3D('',#1136,#918,#919);
#837=AXIS2_PLACEMENT_3D('',#1139,#920,#921);
#838=AXIS2_PLACEMENT_3D('',#1143,#923,#924);
#839=AXIS2_PLACEMENT_3D('',#1212,#926,#927);
#840=AXIS2_PLACEMENT_3D('',#1239,#928,#929);
#841=AXIS2_PLACEMENT_3D('',#1242,#930,#931);
#842=AXIS2_PLACEMENT_3D('',#1245,#934,#935);
#843=AXIS2_PLACEMENT_3D('',#1247,#937,#938);
#844=AXIS2_PLACEMENT_3D('',#1250,#939,#940);
#845=AXIS2_PLACEMENT_3D('',#1254,#942,#943);
#846=AXIS2_PLACEMENT_3D('',#1323,#945,#946);
#847=AXIS2_PLACEMENT_3D('',#1350,#947,#948);
#848=AXIS2_PLACEMENT_3D('',#1353,#949,#950);
#849=AXIS2_PLACEMENT_3D('',#1356,#953,#954);
#850=AXIS2_PLACEMENT_3D('',#1364,#959,#960);
#851=AXIS2_PLACEMENT_3D('',#1370,#964,#965);
#852=AXIS2_PLACEMENT_3D('',#1374,#968,#969);
#853=AXIS2_PLACEMENT_3D('',#1378,#972,#973);
#854=AXIS2_PLACEMENT_3D('',#1388,#979,#980);
#855=AXIS2_PLACEMENT_3D('',#1391,#981,#982);
#856=AXIS2_PLACEMENT_3D('',#1395,#984,#985);
#857=AXIS2_PLACEMENT_3D('',#1397,#987,#988);
#858=AXIS2_PLACEMENT_3D('',#1403,#992,#993);
#859=AXIS2_PLACEMENT_3D('',#1406,#994,#995);
#860=AXIS2_PLACEMENT_3D('',#1410,#997,#998);
#861=AXIS2_PLACEMENT_3D('',#1412,#1000,#1001);
#862=AXIS2_PLACEMENT_3D('',#1418,#1005,#1006);
#863=AXIS2_PLACEMENT_3D('',#1421,#1007,#1008);
#864=AXIS2_PLACEMENT_3D('',#1425,#1010,#1011);
#865=AXIS2_PLACEMENT_3D('',#1427,#1013,#1014);
#866=AXIS2_PLACEMENT_3D('',#1433,#1018,#1019);
#867=AXIS2_PLACEMENT_3D('',#1436,#1020,#1021);
#868=AXIS2_PLACEMENT_3D('',#1440,#1023,#1024);
#869=AXIS2_PLACEMENT_3D('',#1442,#1026,#1027);
#870=AXIS2_PLACEMENT_3D('',#1448,#1031,#1032);
#871=AXIS2_PLACEMENT_3D('',#1451,#1035,#1036);
#872=AXIS2_PLACEMENT_3D('',#1453,#1038,#1039);
#873=AXIS2_PLACEMENT_3D('',#1456,#1042,#1043);
#874=AXIS2_PLACEMENT_3D('',#1458,#1045,#1046);
#875=AXIS2_PLACEMENT_3D('',#1464,#1050,#1051);
#876=AXIS2_PLACEMENT_3D('',#1472,#1056,#1057);
#877=AXIS2_PLACEMENT_3D('',#1479,#1059,#1060);
#878=AXIS2_PLACEMENT_3D('',#1481,#1061,#1062);
#879=AXIS2_PLACEMENT_3D('',#1483,#1063,#1064);
#880=AXIS2_PLACEMENT_3D('',#1485,#1065,#1066);
#881=AXIS2_PLACEMENT_3D('',#1487,#1067,#1068);
#882=AXIS2_PLACEMENT_3D('',#1488,#1069,#1070);
#883=AXIS2_PLACEMENT_3D('',#1490,#1072,#1073);
#884=AXIS2_PLACEMENT_3D('',#1524,#1075,#1076);
#885=AXIS2_PLACEMENT_3D('',#1527,#1079,#1080);
#886=AXIS2_PLACEMENT_3D('',#1528,#1081,#1082);
#887=AXIS2_PLACEMENT_3D('',#1531,#1085,#1086);
#888=AXIS2_PLACEMENT_3D('',#1532,#1087,#1088);
#889=AXIS2_PLACEMENT_3D('',#1534,#1090,#1091);
#890=AXIS2_PLACEMENT_3D('',#1536,#1092,#1093);
#891=AXIS2_PLACEMENT_3D('',#1538,#1095,#1096);
#892=AXIS2_PLACEMENT_3D('',#1540,#1097,#1098);
#893=AXIS2_PLACEMENT_3D('',#1542,#1100,#1101);
#894=AXIS2_PLACEMENT_3D('',#1544,#1102,#1103);
#895=AXIS2_PLACEMENT_3D('',#1546,#1105,#1106);
#896=AXIS2_PLACEMENT_3D('',#1548,#1107,#1108);
#897=AXIS2_PLACEMENT_3D('',#1550,#1110,#1111);
#898=AXIS2_PLACEMENT_3D('',#1552,#1112,#1113);
#899=AXIS2_PLACEMENT_3D('',#1554,#1115,#1116);
#900=AXIS2_PLACEMENT_3D('',#1556,#1118,#1119);
#901=AXIS2_PLACEMENT_3D('',#1558,#1121,#1122);
#902=DIRECTION('axis',(0.,0.,1.));
#903=DIRECTION('refdir',(1.,0.,0.));
#904=DIRECTION('center_axis',(0.,1.,0.));
#905=DIRECTION('ref_axis',(1.,0.,0.));
#906=DIRECTION('center_axis',(0.,1.,0.));
#907=DIRECTION('ref_axis',(1.,0.,0.));
#908=DIRECTION('',(0.,1.,0.));
#909=DIRECTION('center_axis',(0.,-1.,0.));
#910=DIRECTION('ref_axis',(1.,0.,0.));
#911=DIRECTION('center_axis',(0.,1.,0.));
#912=DIRECTION('ref_axis',(1.,0.,0.));
#913=DIRECTION('center_axis',(0.,1.,0.));
#914=DIRECTION('ref_axis',(1.,0.,0.));
#915=DIRECTION('',(0.,1.,0.));
#916=DIRECTION('center_axis',(0.,-1.,0.));
#917=DIRECTION('ref_axis',(1.,0.,0.));
#918=DIRECTION('center_axis',(0.,-1.,0.));
#919=DIRECTION('ref_axis',(0.707106781186548,0.,0.707106781186547));
#920=DIRECTION('center_axis',(0.,0.679939556308702,-0.733268163611871));
#921=DIRECTION('ref_axis',(6.29070458972778E-17,0.733268163611871,0.679939556308702));
#922=DIRECTION('',(0.,-1.,0.));
#923=DIRECTION('center_axis',(0.,-1.,0.));
#924=DIRECTION('ref_axis',(1.,0.,0.));
#925=DIRECTION('',(0.,1.,0.));
#926=DIRECTION('center_axis',(3.70074341541719E-16,3.70074341541719E-16,
-1.));
#927=DIRECTION('ref_axis',(1.,0.,3.70074341541719E-16));
#928=DIRECTION('center_axis',(0.,0.,-1.));
#929=DIRECTION('ref_axis',(0.707106781186547,-0.707106781186547,0.));
#930=DIRECTION('center_axis',(0.,0.679939556308702,-0.733268163611871));
#931=DIRECTION('ref_axis',(0.,-0.733268163611871,-0.679939556308702));
#932=DIRECTION('',(0.,0.,1.));
#933=DIRECTION('',(0.,0.,-1.));
#934=DIRECTION('center_axis',(-1.,0.,0.));
#935=DIRECTION('ref_axis',(0.,0.,1.));
#936=DIRECTION('',(0.,-0.733268163611871,-0.679939556308702));
#937=DIRECTION('center_axis',(0.,0.,1.));
#938=DIRECTION('ref_axis',(-0.707106781186548,-0.707106781186547,0.));
#939=DIRECTION('center_axis',(0.,0.679939563613621,-0.733268156838219));
#940=DIRECTION('ref_axis',(6.78409325788534E-17,-0.733268156838219,-0.679939563613621));
#941=DIRECTION('',(0.,0.,1.));
#942=DIRECTION('center_axis',(0.,0.,1.));
#943=DIRECTION('ref_axis',(-1.,0.,0.));
#944=DIRECTION('',(0.,0.,-1.));
#945=DIRECTION('center_axis',(5.47820073070147E-31,1.,7.40148683083438E-16));
#946=DIRECTION('ref_axis',(-1.,0.,7.40148683083438E-16));
#947=DIRECTION('center_axis',(0.,1.,0.));
#948=DIRECTION('ref_axis',(-0.707106781186548,0.,0.707106781186547));
#949=DIRECTION('center_axis',(0.,0.679939563613621,-0.733268156838219));
#950=DIRECTION('ref_axis',(6.29070465731186E-17,0.733268156838219,0.679939563613621));
#951=DIRECTION('',(0.,-1.,0.));
#952=DIRECTION('',(0.,1.,0.));
#953=DIRECTION('center_axis',(1.,0.,0.));
#954=DIRECTION('ref_axis',(0.,0.,-1.));
#955=DIRECTION('',(0.,0.733268156838219,0.679939563613621));
#956=DIRECTION('',(0.,0.,1.));
#957=DIRECTION('',(0.,1.,0.));
#958=DIRECTION('',(0.,0.733268156838219,0.679939563613621));
#959=DIRECTION('center_axis',(0.,-1.,0.));
#960=DIRECTION('ref_axis',(0.,0.,-1.));
#961=DIRECTION('',(0.,0.,-1.));
#962=DIRECTION('',(1.,0.,0.));
#963=DIRECTION('',(1.,0.,0.));
#964=DIRECTION('center_axis',(0.,0.,1.));
#965=DIRECTION('ref_axis',(0.,-1.,0.));
#966=DIRECTION('',(0.,-1.,0.));
#967=DIRECTION('',(-1.,0.,0.));
#968=DIRECTION('center_axis',(0.,0.679939563613621,-0.733268156838219));
#969=DIRECTION('ref_axis',(0.,0.733268156838219,0.679939563613621));
#970=DIRECTION('',(0.,0.733268156838219,0.679939563613621));
#971=DIRECTION('',(-1.,0.,0.));
#972=DIRECTION('center_axis',(-1.,0.,0.));
#973=DIRECTION('ref_axis',(0.,-1.,0.));
#974=DIRECTION('',(0.,0.733268156838219,0.679939563613621));
#975=DIRECTION('',(0.,1.,0.));
#976=DIRECTION('',(0.,0.,1.));
#977=DIRECTION('',(0.,-1.,0.));
#978=DIRECTION('',(0.,0.,1.));
#979=DIRECTION('center_axis',(0.,0.,1.));
#980=DIRECTION('ref_axis',(0.707106781186549,0.707106781186546,0.));
#981=DIRECTION('center_axis',(0.707106781186546,0.,-0.707106781186549));
#982=DIRECTION('ref_axis',(0.707106781186549,4.90653893338681E-17,0.707106781186546));
#983=DIRECTION('',(0.,0.,1.));
#984=DIRECTION('center_axis',(0.,0.,1.));
#985=DIRECTION('ref_axis',(0.707106781186549,0.707106781186546,0.));
#986=DIRECTION('',(0.,0.,-1.));
#987=DIRECTION('center_axis',(-1.,0.,0.));
#988=DIRECTION('ref_axis',(0.,0.,-1.));
#989=DIRECTION('',(0.,-1.,0.));
#990=DIRECTION('',(0.,0.,-1.));
#991=DIRECTION('',(0.,-1.,0.));
#992=DIRECTION('center_axis',(0.,0.,1.));
#993=DIRECTION('ref_axis',(0.707106781186549,0.707106781186546,0.));
#994=DIRECTION('center_axis',(0.,0.,-1.));
#995=DIRECTION('ref_axis',(0.707106781186549,0.707106781186546,0.));
#996=DIRECTION('',(0.,0.,1.));
#997=DIRECTION('center_axis',(0.707106781186547,0.,0.707106781186548));
#998=DIRECTION('ref_axis',(0.707106781186548,0.,-0.707106781186547));
#999=DIRECTION('',(0.,0.,-1.));
#1000=DIRECTION('center_axis',(-1.,0.,0.));
#1001=DIRECTION('ref_axis',(0.,0.,-1.));
#1002=DIRECTION('',(0.,-1.,0.));
#1003=DIRECTION('',(0.,0.,-1.));
#1004=DIRECTION('',(0.,-1.,0.));
#1005=DIRECTION('center_axis',(0.,0.,-1.));
#1006=DIRECTION('ref_axis',(-0.707106781186549,0.707106781186546,0.));
#1007=DIRECTION('center_axis',(-0.707106781186546,0.,0.707106781186549));
#1008=DIRECTION('ref_axis',(-0.707106781186549,4.9065389333868E-17,-0.707106781186546));
#1009=DIRECTION('',(0.,0.,-1.));
#1010=DIRECTION('center_axis',(0.,0.,-1.));
#1011=DIRECTION('ref_axis',(-0.707106781186549,0.707106781186546,0.));
#1012=DIRECTION('',(0.,0.,1.));
#1013=DIRECTION('center_axis',(1.,0.,0.));
#1014=DIRECTION('ref_axis',(0.,0.,1.));
#1015=DIRECTION('',(0.,-1.,0.));
#1016=DIRECTION('',(0.,0.,1.));
#1017=DIRECTION('',(0.,-1.,0.));
#1018=DIRECTION('center_axis',(0.,0.,-1.));
#1019=DIRECTION('ref_axis',(-0.707106781186549,0.707106781186546,0.));
#1020=DIRECTION('center_axis',(0.,0.,1.));
#1021=DIRECTION('ref_axis',(-0.707106781186549,0.707106781186546,0.));
#1022=DIRECTION('',(0.,0.,-1.));
#1023=DIRECTION('center_axis',(-0.707106781186546,0.,-0.707106781186549));
#1024=DIRECTION('ref_axis',(-0.707106781186549,4.90653893338681E-17,0.707106781186546));
#1025=DIRECTION('',(0.,0.,1.));
#1026=DIRECTION('center_axis',(1.,0.,0.));
#1027=DIRECTION('ref_axis',(0.,0.,1.));
#1028=DIRECTION('',(0.,-1.,0.));
#1029=DIRECTION('',(0.,0.,1.));
#1030=DIRECTION('',(0.,-1.,0.));
#1031=DIRECTION('center_axis',(1.,0.,0.));
#1032=DIRECTION('ref_axis',(0.,0.707106781186547,-0.707106781186548));
#1033=DIRECTION('',(1.,0.,0.));
#1034=DIRECTION('',(-1.,0.,0.));
#1035=DIRECTION('center_axis',(0.,0.,1.));
#1036=DIRECTION('ref_axis',(-1.,0.,0.));
#1037=DIRECTION('',(-1.,0.,0.));
#1038=DIRECTION('center_axis',(-1.,0.,0.));
#1039=DIRECTION('ref_axis',(0.,0.707106781186548,0.707106781186548));
#1040=DIRECTION('',(-1.,0.,0.));
#1041=DIRECTION('',(1.,0.,0.));
#1042=DIRECTION('center_axis',(0.,0.,-1.));
#1043=DIRECTION('ref_axis',(1.,0.,0.));
#1044=DIRECTION('',(1.,0.,0.));
#1045=DIRECTION('center_axis',(0.,0.679939556308702,-0.733268163611871));
#1046=DIRECTION('ref_axis',(0.,-0.733268163611871,-0.679939556308702));
#1047=DIRECTION('',(0.,0.733268163611871,0.679939556308702));
#1048=DIRECTION('',(1.,0.,0.));
#1049=DIRECTION('',(-1.,0.,0.));
#1050=DIRECTION('center_axis',(1.,0.,0.));
#1051=DIRECTION('ref_axis',(0.,1.,0.));
#1052=DIRECTION('',(0.,0.,1.));
#1053=DIRECTION('',(0.,1.,0.));
#1054=DIRECTION('',(0.,0.,-1.));
#1055=DIRECTION('',(0.,-1.,0.));
#1056=DIRECTION('center_axis',(0.,0.,1.));
#1057=DIRECTION('ref_axis',(1.,0.,0.));
#1058=DIRECTION('',(-1.,0.,0.));
#1059=DIRECTION('center_axis',(0.,0.,1.));
#1060=DIRECTION('ref_axis',(-1.,0.,0.));
#1061=DIRECTION('center_axis',(0.,0.,1.));
#1062=DIRECTION('ref_axis',(-1.,0.,0.));
#1063=DIRECTION('center_axis',(0.,0.,1.));
#1064=DIRECTION('ref_axis',(-1.,0.,0.));
#1065=DIRECTION('center_axis',(0.,0.,1.));
#1066=DIRECTION('ref_axis',(-1.,0.,0.));
#1067=DIRECTION('center_axis',(0.,0.,1.));
#1068=DIRECTION('ref_axis',(-1.,0.,0.));
#1069=DIRECTION('center_axis',(0.,0.679939563613621,-0.733268156838219));
#1070=DIRECTION('ref_axis',(0.,0.733268156838219,0.679939563613621));
#1071=DIRECTION('',(1.,0.,0.));
#1072=DIRECTION('center_axis',(0.,1.,0.));
#1073=DIRECTION('ref_axis',(1.,0.,0.));
#1074=DIRECTION('',(1.,0.,0.));
#1075=DIRECTION('center_axis',(0.,0.,-1.));
#1076=DIRECTION('ref_axis',(1.,0.,0.));
#1077=DIRECTION('',(-1.,0.,0.));
#1078=DIRECTION('',(1.,0.,0.));
#1079=DIRECTION('center_axis',(0.,-1.,0.));
#1080=DIRECTION('ref_axis',(0.,0.,-1.));
#1081=DIRECTION('center_axis',(0.,0.,1.));
#1082=DIRECTION('ref_axis',(-1.,0.,0.));
#1083=DIRECTION('',(1.,0.,0.));
#1084=DIRECTION('',(-1.,0.,0.));
#1085=DIRECTION('center_axis',(0.,-1.,0.));
#1086=DIRECTION('ref_axis',(0.,0.,-1.));
#1087=DIRECTION('center_axis',(0.,0.,-1.));
#1088=DIRECTION('ref_axis',(-1.,0.,0.));
#1089=DIRECTION('',(-1.,0.,0.));
#1090=DIRECTION('center_axis',(0.,0.,-1.));
#1091=DIRECTION('ref_axis',(-1.,0.,0.));
#1092=DIRECTION('center_axis',(0.,0.,-1.));
#1093=DIRECTION('ref_axis',(-1.,0.,0.));
#1094=DIRECTION('',(0.,0.,-1.));
#1095=DIRECTION('center_axis',(0.,0.,-1.));
#1096=DIRECTION('ref_axis',(-1.,0.,0.));
#1097=DIRECTION('center_axis',(0.,0.,-1.));
#1098=DIRECTION('ref_axis',(-1.,0.,0.));
#1099=DIRECTION('',(0.,0.,-1.));
#1100=DIRECTION('center_axis',(0.,0.,-1.));
#1101=DIRECTION('ref_axis',(-1.,0.,0.));
#1102=DIRECTION('center_axis',(0.,0.,-1.));
#1103=DIRECTION('ref_axis',(-1.,0.,0.));
#1104=DIRECTION('',(0.,0.,-1.));
#1105=DIRECTION('center_axis',(0.,0.,-1.));
#1106=DIRECTION('ref_axis',(-1.,0.,0.));
#1107=DIRECTION('center_axis',(0.,0.,-1.));
#1108=DIRECTION('ref_axis',(-1.,0.,0.));
#1109=DIRECTION('',(0.,0.,-1.));
#1110=DIRECTION('center_axis',(0.,0.,-1.));
#1111=DIRECTION('ref_axis',(-1.,0.,0.));
#1112=DIRECTION('center_axis',(0.,0.,-1.));
#1113=DIRECTION('ref_axis',(-1.,0.,0.));
#1114=DIRECTION('',(0.,0.,-1.));
#1115=DIRECTION('center_axis',(0.,-1.,0.));
#1116=DIRECTION('ref_axis',(1.,0.,0.));
#1117=DIRECTION('',(1.,0.,0.));
#1118=DIRECTION('center_axis',(0.,1.,0.));
#1119=DIRECTION('ref_axis',(-1.,0.,0.));
#1120=DIRECTION('',(-1.,0.,0.));
#1121=DIRECTION('center_axis',(0.,0.,1.));
#1122=DIRECTION('ref_axis',(1.,0.,0.));
#1123=CARTESIAN_POINT('',(0.,0.,0.));
#1124=CARTESIAN_POINT('Origin',(-6.5,-29.5,-23.5));
#1125=CARTESIAN_POINT('',(-9.,-29.5,-23.5));
#1126=CARTESIAN_POINT('Origin',(-6.5,-29.5,-23.5));
#1127=CARTESIAN_POINT('',(-9.,-25.5,-23.5));
#1128=CARTESIAN_POINT('',(-9.,-29.5,-23.5));
#1129=CARTESIAN_POINT('Origin',(-6.5,-25.5,-23.5));
#1130=CARTESIAN_POINT('Origin',(8.5,-29.5,-23.5));
#1131=CARTESIAN_POINT('',(6.,-29.5,-23.5));
#1132=CARTESIAN_POINT('Origin',(8.5,-29.5,-23.5));
#1133=CARTESIAN_POINT('',(6.,-25.5,-23.5));
#1134=CARTESIAN_POINT('',(6.,-29.5,-23.5));
#1135=CARTESIAN_POINT('Origin',(8.5,-25.5,-23.5));
#1136=CARTESIAN_POINT('Origin',(19.,0.998746479288433,-3.));
#1137=CARTESIAN_POINT('',(19.,29.5,0.));
#1138=CARTESIAN_POINT('',(22.,26.2647062572925,-3.));
#1139=CARTESIAN_POINT('Origin',(19.,26.2647062572925,-3.));
#1140=CARTESIAN_POINT('',(22.,-17.5,-3.));
#1141=CARTESIAN_POINT('',(22.,0.998746479288433,-3.));
#1142=CARTESIAN_POINT('',(19.,-17.5,0.));
#1143=CARTESIAN_POINT('Origin',(19.,-17.5,-3.));
#1144=CARTESIAN_POINT('',(19.,0.998746479288433,0.));
#1145=CARTESIAN_POINT('Ctrl Pts',(19.,-17.5,0.));
#1146=CARTESIAN_POINT('Ctrl Pts',(19.,-17.7583361221479,-4.90517872324032E-33));
#1147=CARTESIAN_POINT('Ctrl Pts',(19.,-18.1849115404297,-0.0378813704237867));
#1148=CARTESIAN_POINT('Ctrl Pts',(19.,-18.89858284375,-0.17393649341832));
#1149=CARTESIAN_POINT('Ctrl Pts',(19.,-19.9350034868534,-0.511074996072823));
#1150=CARTESIAN_POINT('Ctrl Pts',(19.,-21.1446398180232,-1.14351585015975));
#1151=CARTESIAN_POINT('Ctrl Pts',(19.,-22.777604623497,-2.37204072326661));
#1152=CARTESIAN_POINT('Ctrl Pts',(19.,-24.0993726544185,-3.87896911904312));
#1153=CARTESIAN_POINT('Ctrl Pts',(19.,-24.9896515241695,-5.56247380876287));
#1154=CARTESIAN_POINT('Ctrl Pts',(19.,-25.3259690637355,-6.6015828228456));
#1155=CARTESIAN_POINT('Ctrl Pts',(19.,-25.4621567016967,-7.314657547648));
#1156=CARTESIAN_POINT('Ctrl Pts',(19.,-25.5,-7.74166387785215));
#1157=CARTESIAN_POINT('Ctrl Pts',(19.,-25.5,-8.));
#1158=CARTESIAN_POINT('Ctrl Pts',(19.8975979010256,-17.5,0.));
#1159=CARTESIAN_POINT('Ctrl Pts',(19.8975979010256,-17.7588291025429,-4.91453922971812E-33));
#1160=CARTESIAN_POINT('Ctrl Pts',(19.8975979010256,-18.1859096837526,-0.0378474993398598));
#1161=CARTESIAN_POINT('Ctrl Pts',(19.8975979010256,-18.9004787382099,-0.174036661217184));
#1162=CARTESIAN_POINT('Ctrl Pts',(19.8975979010257,-19.9370153285246,-0.510971437490584));
#1163=CARTESIAN_POINT('Ctrl Pts',(19.8975979010256,-21.1465299605542,-1.14330057157804));
#1164=CARTESIAN_POINT('Ctrl Pts',(19.8975979010257,-22.7794347241549,-2.37166565363152));
#1165=CARTESIAN_POINT('Ctrl Pts',(19.8975979010256,-24.0994831625987,-3.87674792312978));
#1166=CARTESIAN_POINT('Ctrl Pts',(19.8975979010256,-24.9895699263548,-5.56012070288449));
#1167=CARTESIAN_POINT('Ctrl Pts',(19.8975979010256,-25.325894037955,-6.59972430512983));
#1168=CARTESIAN_POINT('Ctrl Pts',(19.8975979010256,-25.4621756028141,-7.31363024671107));
#1169=CARTESIAN_POINT('Ctrl Pts',(19.8975979010256,-25.5,-7.74117089745709));
#1170=CARTESIAN_POINT('Ctrl Pts',(19.8975979010256,-25.5,-8.));
#1171=CARTESIAN_POINT('Ctrl Pts',(21.4519896879301,-17.5,-0.752784992931979));
#1172=CARTESIAN_POINT('Ctrl Pts',(21.4519896879301,-17.716006951374,-0.752784992931979));
#1173=CARTESIAN_POINT('Ctrl Pts',(21.4519896879301,-18.0805820383555,-0.784810896592709));
#1174=CARTESIAN_POINT('Ctrl Pts',(21.4519896879301,-18.7038558130209,-0.90341751641109));
#1175=CARTESIAN_POINT('Ctrl Pts',(21.4519896879301,-19.631158189873,-1.20407677460796));
#1176=CARTESIAN_POINT('Ctrl Pts',(21.4519896879301,-20.739058486357,-1.78225357189119));
#1177=CARTESIAN_POINT('Ctrl Pts',(21.4519896879301,-22.2520325748552,-2.91945658830374));
#1178=CARTESIAN_POINT('Ctrl Pts',(21.4519896879301,-23.4829091325527,-4.32387649509431));
#1179=CARTESIAN_POINT('Ctrl Pts',(21.4519896879301,-24.2965588808537,-5.86677647270824));
#1180=CARTESIAN_POINT('Ctrl Pts',(21.4519896879301,-24.5964950652383,-6.79627670831445));
#1181=CARTESIAN_POINT('Ctrl Pts',(21.4519896879301,-24.7152235836572,-7.41905719981696));
#1182=CARTESIAN_POINT('Ctrl Pts',(21.4519896879301,-24.747215007068,-7.78399304862601));
#1183=CARTESIAN_POINT('Ctrl Pts',(21.4519896879301,-24.747215007068,-8.));
#1184=CARTESIAN_POINT('Ctrl Pts',(22.,-17.5,-2.32680157423076));
#1185=CARTESIAN_POINT('Ctrl Pts',(22.,-17.6276851787006,-2.32680157423076));
#1186=CARTESIAN_POINT('Ctrl Pts',(22.,-17.8628121614259,-2.34657140576454));
#1187=CARTESIAN_POINT('Ctrl Pts',(22.,-18.2974090229638,-2.42874491246181));
#1188=CARTESIAN_POINT('Ctrl Pts',(22.,-18.9965969323694,-2.65305223748824));
#1189=CARTESIAN_POINT('Ctrl Pts',(22.,-19.8917291112271,-3.11772499001497));
#1190=CARTESIAN_POINT('Ctrl Pts',(22.,-21.1537890987189,-4.06392082867171));
#1191=CARTESIAN_POINT('Ctrl Pts',(22.,-22.1939719979377,-5.2533092059975));
#1192=CARTESIAN_POINT('Ctrl Pts',(22.,-22.847323820269,-6.50216575769252));
#1193=CARTESIAN_POINT('Ctrl Pts',(22.,-23.0711918085795,-7.2026682452682));
#1194=CARTESIAN_POINT('Ctrl Pts',(22.,-23.1534499364582,-7.63696279400287));
#1195=CARTESIAN_POINT('Ctrl Pts',(22.,-23.1731984257693,-7.87231482129942));
#1196=CARTESIAN_POINT('Ctrl Pts',(22.,-23.1731984257693,-8.));
#1197=CARTESIAN_POINT('Ctrl Pts',(22.,-17.5,-3.));
#1198=CARTESIAN_POINT('Ctrl Pts',(22.,-17.5900471612419,-3.));
#1199=CARTESIAN_POINT('Ctrl Pts',(22.,-17.7699499945577,-3.01451858115426));
#1200=CARTESIAN_POINT('Ctrl Pts',(22.,-18.1240997492766,-3.08114701743573));
#1201=CARTESIAN_POINT('Ctrl Pts',(22.,-18.7257564862225,-3.27274252716114));
#1202=CARTESIAN_POINT('Ctrl Pts',(22.,-19.5298551319328,-3.68883922434839));
#1203=CARTESIAN_POINT('Ctrl Pts',(22.,-20.6845838551958,-4.55329800188443));
#1204=CARTESIAN_POINT('Ctrl Pts',(22.,-21.6427311679698,-5.65020652170138));
#1205=CARTESIAN_POINT('Ctrl Pts',(22.,-22.2274711483449,-6.77326569603773));
#1206=CARTESIAN_POINT('Ctrl Pts',(22.,-22.4188070011116,-7.37596425405785));
#1207=CARTESIAN_POINT('Ctrl Pts',(22.,-22.4854929900376,-7.72987491945565));
#1208=CARTESIAN_POINT('Ctrl Pts',(22.,-22.5,-7.9099528387581));
#1209=CARTESIAN_POINT('Ctrl Pts',(22.,-22.5,-8.));
#1210=CARTESIAN_POINT('',(22.,-22.5,-8.));
#1211=CARTESIAN_POINT('',(19.,-25.5,-8.));
#1212=CARTESIAN_POINT('Origin',(19.,-22.5,-8.));
#1213=CARTESIAN_POINT('Ctrl Pts',(19.,-25.5,-8.));
#1214=CARTESIAN_POINT('Ctrl Pts',(19.,-25.5,-7.74166387785215));
#1215=CARTESIAN_POINT('Ctrl Pts',(19.,-25.4621567016967,-7.314657547648));
#1216=CARTESIAN_POINT('Ctrl Pts',(19.,-25.3259690637355,-6.6015828228456));
#1217=CARTESIAN_POINT('Ctrl Pts',(19.,-24.9896515241695,-5.56247380876287));
#1218=CARTESIAN_POINT('Ctrl Pts',(19.,-24.0993726544185,-3.87896911904312));
#1219=CARTESIAN_POINT('Ctrl Pts',(19.,-22.777604623497,-2.37204072326661));
#1220=CARTESIAN_POINT('Ctrl Pts',(19.,-21.1446398180232,-1.14351585015975));
#1221=CARTESIAN_POINT('Ctrl Pts',(19.,-19.9350034868534,-0.511074996072823));
#1222=CARTESIAN_POINT('Ctrl Pts',(19.,-18.89858284375,-0.17393649341832));
#1223=CARTESIAN_POINT('Ctrl Pts',(19.,-18.1849115404297,-0.0378813704237867));
#1224=CARTESIAN_POINT('Ctrl Pts',(19.,-17.7583361221479,-4.90517872324032E-33));
#1225=CARTESIAN_POINT('Ctrl Pts',(19.,-17.5,0.));
#1226=CARTESIAN_POINT('Ctrl Pts',(22.,-17.5,-3.));
#1227=CARTESIAN_POINT('Ctrl Pts',(22.,-17.5900471612419,-3.));
#1228=CARTESIAN_POINT('Ctrl Pts',(22.,-17.7699499945577,-3.01451858115426));
#1229=CARTESIAN_POINT('Ctrl Pts',(22.,-18.1240997492766,-3.08114701743573));
#1230=CARTESIAN_POINT('Ctrl Pts',(22.,-18.7257564862225,-3.27274252716114));
#1231=CARTESIAN_POINT('Ctrl Pts',(22.,-19.5298551319328,-3.68883922434839));
#1232=CARTESIAN_POINT('Ctrl Pts',(22.,-20.6845838551958,-4.55329800188443));
#1233=CARTESIAN_POINT('Ctrl Pts',(22.,-21.6427311679698,-5.65020652170138));
#1234=CARTESIAN_POINT('Ctrl Pts',(22.,-22.2274711483449,-6.77326569603773));
#1235=CARTESIAN_POINT('Ctrl Pts',(22.,-22.4188070011116,-7.37596425405785));
#1236=CARTESIAN_POINT('Ctrl Pts',(22.,-22.4854929900376,-7.72987491945565));
#1237=CARTESIAN_POINT('Ctrl Pts',(22.,-22.5,-7.9099528387581));
#1238=CARTESIAN_POINT('Ctrl Pts',(22.,-22.5,-8.));
#1239=CARTESIAN_POINT('Origin',(19.,-22.5,-12.7499997150153));
#1240=CARTESIAN_POINT('',(19.,-25.5,-51.));
#1241=CARTESIAN_POINT('',(22.,-22.5,-48.2181812623439));
#1242=CARTESIAN_POINT('Origin',(19.,-22.5,-48.2181812623439));
#1243=CARTESIAN_POINT('',(19.,-25.5,-12.7499997150153));
#1244=CARTESIAN_POINT('',(22.,-22.5,-12.7499997150153));
#1245=CARTESIAN_POINT('Origin',(22.,1.99749295857687,-25.4999994300306));
#1246=CARTESIAN_POINT('',(22.,-25.4999994300306,-50.9999988600612));
#1247=CARTESIAN_POINT('Origin',(-19.,-22.5,-12.7499997150153));
#1248=CARTESIAN_POINT('',(-19.,-25.5,-51.));
#1249=CARTESIAN_POINT('',(-22.,-22.5,-48.2181812067601));
#1250=CARTESIAN_POINT('Origin',(-19.,-22.5,-48.2181812067601));
#1251=CARTESIAN_POINT('',(-22.,-22.5,-8.));
#1252=CARTESIAN_POINT('',(-22.,-22.5,-12.7499997150153));
#1253=CARTESIAN_POINT('',(-19.,-25.5,-8.));
#1254=CARTESIAN_POINT('Origin',(-19.,-22.5,-8.));
#1255=CARTESIAN_POINT('',(-19.,-25.5,-12.7499997150153));
#1256=CARTESIAN_POINT('Ctrl Pts',(-19.,-25.5,-8.));
#1257=CARTESIAN_POINT('Ctrl Pts',(-19.,-25.5,-7.74166387785215));
#1258=CARTESIAN_POINT('Ctrl Pts',(-19.,-25.462141498019,-7.31504896979006));
#1259=CARTESIAN_POINT('Ctrl Pts',(-19.,-25.3261190151137,-6.60135039087198));
#1260=CARTESIAN_POINT('Ctrl Pts',(-19.,-24.9891197662874,-5.56462841693019));
#1261=CARTESIAN_POINT('Ctrl Pts',(-19.,-24.3555330334062,-4.35680175383362));
#1262=CARTESIAN_POINT('Ctrl Pts',(-19.,-23.1278880492436,-2.72253596704444));
#1263=CARTESIAN_POINT('Ctrl Pts',(-19.,-21.6208085309616,-1.40096097994203));
#1264=CARTESIAN_POINT('Ctrl Pts',(-19.,-19.9375169869802,-0.510366098063877));
#1265=CARTESIAN_POINT('Ctrl Pts',(-19.,-18.8983998553683,-0.174057306643623));
#1266=CARTESIAN_POINT('Ctrl Pts',(-19.,-18.1853391041344,-0.0378487322719929));
#1267=CARTESIAN_POINT('Ctrl Pts',(-19.,-17.7583361221479,0.));
#1268=CARTESIAN_POINT('Ctrl Pts',(-19.,-17.5,0.));
#1269=CARTESIAN_POINT('Ctrl Pts',(-19.8975979010256,-25.5,-8.));
#1270=CARTESIAN_POINT('Ctrl Pts',(-19.8975979010256,-25.5,-7.74117089745709));
#1271=CARTESIAN_POINT('Ctrl Pts',(-19.8975979010256,-25.4621628412257,-7.31403351830577));
#1272=CARTESIAN_POINT('Ctrl Pts',(-19.8975979010256,-25.3260547241964,-6.59951449870395));
#1273=CARTESIAN_POINT('Ctrl Pts',(-19.8975979010256,-24.9890465585119,-5.56236219064208));
#1274=CARTESIAN_POINT('Ctrl Pts',(-19.8975979010256,-24.3557197351715,-4.35475170358118));
#1275=CARTESIAN_POINT('Ctrl Pts',(-19.8975979010257,-23.1283241996146,-2.72079579142054));
#1276=CARTESIAN_POINT('Ctrl Pts',(-19.8975979010256,-21.623016024747,-1.4008018563546));
#1277=CARTESIAN_POINT('Ctrl Pts',(-19.8975979010256,-19.9398769509254,-0.510457644327986));
#1278=CARTESIAN_POINT('Ctrl Pts',(-19.8975979010256,-18.9002580438635,-0.174129734365049));
#1279=CARTESIAN_POINT('Ctrl Pts',(-19.8975979010256,-18.1863669974386,-0.037830385671463));
#1280=CARTESIAN_POINT('Ctrl Pts',(-19.8975979010256,-17.7588291025429,0.));
#1281=CARTESIAN_POINT('Ctrl Pts',(-19.8975979010256,-17.5,0.));
#1282=CARTESIAN_POINT('Ctrl Pts',(-21.4519896879301,-24.747215007068,-8.));
#1283=CARTESIAN_POINT('Ctrl Pts',(-21.4519896879301,-24.747215007068,-7.78399304862601));
#1284=CARTESIAN_POINT('Ctrl Pts',(-21.4519896879301,-24.715212786055,-7.41939375277114));
#1285=CARTESIAN_POINT('Ctrl Pts',(-21.4519896879301,-24.5966238145028,-6.79608380084173));
#1286=CARTESIAN_POINT('Ctrl Pts',(-21.4519896879301,-24.296142102612,-5.86863650720697));
#1287=CARTESIAN_POINT('Ctrl Pts',(-21.4519896879301,-23.7168912970326,-4.76199490806586));
#1288=CARTESIAN_POINT('Ctrl Pts',(-21.4519896879302,-22.5804636938299,-3.24804714422762));
#1289=CARTESIAN_POINT('Ctrl Pts',(-21.4519896879301,-21.1759253176216,-2.01733718590339));
#1290=CARTESIAN_POINT('Ctrl Pts',(-21.4519896879301,-19.6332134833438,-1.20345140043572));
#1291=CARTESIAN_POINT('Ctrl Pts',(-21.4519896879302,-18.7037076693105,-0.903524132359558));
#1292=CARTESIAN_POINT('Ctrl Pts',(-21.4519896879301,-18.0809396179028,-0.784780134630696));
#1293=CARTESIAN_POINT('Ctrl Pts',(-21.4519896879301,-17.716006951374,-0.75278499293198));
#1294=CARTESIAN_POINT('Ctrl Pts',(-21.4519896879301,-17.5,-0.75278499293198));
#1295=CARTESIAN_POINT('Ctrl Pts',(-22.,-23.1731984257693,-8.));
#1296=CARTESIAN_POINT('Ctrl Pts',(-22.,-23.1731984257693,-7.87231482129942));
#1297=CARTESIAN_POINT('Ctrl Pts',(-22.,-23.1534492696879,-7.63718907422253));
#1298=CARTESIAN_POINT('Ctrl Pts',(-22.,-23.071280261409,-7.20256648622147));
#1299=CARTESIAN_POINT('Ctrl Pts',(-22.,-22.8471506098622,-6.5034425217543));
#1300=CARTESIAN_POINT('Ctrl Pts',(-22.,-22.3816098340903,-5.60845251897991));
#1301=CARTESIAN_POINT('Ctrl Pts',(-22.,-21.43600466296,-4.34619714848375));
#1302=CARTESIAN_POINT('Ctrl Pts',(-22.,-20.2465379780476,-3.30607347344283));
#1303=CARTESIAN_POINT('Ctrl Pts',(-22.,-18.9978250207992,-2.65267485160649));
#1304=CARTESIAN_POINT('Ctrl Pts',(-22.,-18.2973195619322,-2.42881141457947));
#1305=CARTESIAN_POINT('Ctrl Pts',(-22.,-17.8630345933697,-2.34655040293169));
#1306=CARTESIAN_POINT('Ctrl Pts',(-22.,-17.6276851787006,-2.32680157423076));
#1307=CARTESIAN_POINT('Ctrl Pts',(-22.,-17.5,-2.32680157423076));
#1308=CARTESIAN_POINT('Ctrl Pts',(-22.,-22.5,-8.));
#1309=CARTESIAN_POINT('Ctrl Pts',(-22.,-22.5,-7.9099528387581));
#1310=CARTESIAN_POINT('Ctrl Pts',(-22.,-22.4854973334907,-7.73005732310285));
#1311=CARTESIAN_POINT('Ctrl Pts',(-22.,-22.4188811967206,-7.37590775396951));
#1312=CARTESIAN_POINT('Ctrl Pts',(-22.,-22.2274044375948,-6.77431709479854));
#1313=CARTESIAN_POINT('Ctrl Pts',(-22.,-21.8105689166964,-5.9699092984983));
#1314=CARTESIAN_POINT('Ctrl Pts',(-22.,-20.9466466587558,-4.81538735557756));
#1315=CARTESIAN_POINT('Ctrl Pts',(-22.,-19.8496562670889,-3.85721491856063));
#1316=CARTESIAN_POINT('Ctrl Pts',(-22.,-18.7267273363134,-3.2725253174804));
#1317=CARTESIAN_POINT('Ctrl Pts',(-22.,-18.1240249286432,-3.08118866928595));
#1318=CARTESIAN_POINT('Ctrl Pts',(-22.,-17.7701228758492,-3.01450605801278));
#1319=CARTESIAN_POINT('Ctrl Pts',(-22.,-17.5900471612419,-3.));
#1320=CARTESIAN_POINT('Ctrl Pts',(-22.,-17.5,-3.));
#1321=CARTESIAN_POINT('',(-22.,-17.5,-3.));
#1322=CARTESIAN_POINT('',(-19.,-17.5,-2.20292604547777E-30));
#1323=CARTESIAN_POINT('Origin',(-19.,-17.5,-3.));
#1324=CARTESIAN_POINT('Ctrl Pts',(-19.,-17.5,0.));
#1325=CARTESIAN_POINT('Ctrl Pts',(-19.,-17.7583361221479,0.));
#1326=CARTESIAN_POINT('Ctrl Pts',(-19.,-18.1853391041344,-0.0378487322719929));
#1327=CARTESIAN_POINT('Ctrl Pts',(-19.,-18.8983998553683,-0.174057306643623));
#1328=CARTESIAN_POINT('Ctrl Pts',(-19.,-19.9375169869802,-0.510366098063877));
#1329=CARTESIAN_POINT('Ctrl Pts',(-19.,-21.6208085309616,-1.40096097994203));
#1330=CARTESIAN_POINT('Ctrl Pts',(-19.,-23.1278880492436,-2.72253596704444));
#1331=CARTESIAN_POINT('Ctrl Pts',(-19.,-24.3555330334062,-4.35680175383362));
#1332=CARTESIAN_POINT('Ctrl Pts',(-19.,-24.9891197662874,-5.56462841693019));
#1333=CARTESIAN_POINT('Ctrl Pts',(-19.,-25.3261190151137,-6.60135039087198));
#1334=CARTESIAN_POINT('Ctrl Pts',(-19.,-25.462141498019,-7.31504896979006));
#1335=CARTESIAN_POINT('Ctrl Pts',(-19.,-25.5,-7.74166387785215));
#1336=CARTESIAN_POINT('Ctrl Pts',(-19.,-25.5,-8.));
#1337=CARTESIAN_POINT('Ctrl Pts',(-22.,-22.5,-8.));
#1338=CARTESIAN_POINT('Ctrl Pts',(-22.,-22.5,-7.9099528387581));
#1339=CARTESIAN_POINT('Ctrl Pts',(-22.,-22.4854973334907,-7.73005732310285));
#1340=CARTESIAN_POINT('Ctrl Pts',(-22.,-22.4188811967206,-7.37590775396951));
#1341=CARTESIAN_POINT('Ctrl Pts',(-22.,-22.2274044375948,-6.77431709479854));
#1342=CARTESIAN_POINT('Ctrl Pts',(-22.,-21.8105689166964,-5.9699092984983));
#1343=CARTESIAN_POINT('Ctrl Pts',(-22.,-20.9466466587558,-4.81538735557756));
#1344=CARTESIAN_POINT('Ctrl Pts',(-22.,-19.8496562670889,-3.85721491856063));
#1345=CARTESIAN_POINT('Ctrl Pts',(-22.,-18.7267273363134,-3.2725253174804));
#1346=CARTESIAN_POINT('Ctrl Pts',(-22.,-18.1240249286432,-3.08118866928595));
#1347=CARTESIAN_POINT('Ctrl Pts',(-22.,-17.7701228758492,-3.01450605801278));
#1348=CARTESIAN_POINT('Ctrl Pts',(-22.,-17.5900471612419,-3.));
#1349=CARTESIAN_POINT('Ctrl Pts',(-22.,-17.5,-3.));
#1350=CARTESIAN_POINT('Origin',(-19.,0.999999532359652,-3.));
#1351=CARTESIAN_POINT('',(-19.,29.5,0.));
#1352=CARTESIAN_POINT('',(-22.,26.2647052229766,-3.));
#1353=CARTESIAN_POINT('Origin',(-19.,26.2647052229766,-3.));
#1354=CARTESIAN_POINT('',(-19.,0.999999532359652,0.));
#1355=CARTESIAN_POINT('',(-22.,0.999999532359652,-3.));
#1356=CARTESIAN_POINT('Origin',(-22.,1.9999990647193,-25.4999994300306));
#1357=CARTESIAN_POINT('',(-22.,-6.43502792220631,-33.3215713460459));
#1358=CARTESIAN_POINT('',(-22.,-25.4999994300306,-50.9999988600612));
#1359=CARTESIAN_POINT('',(-22.,-6.43502792220631,-22.3215713460459));
#1360=CARTESIAN_POINT('',(-22.,-6.43502792220631,-23.9107853880382));
#1361=CARTESIAN_POINT('',(-22.,5.4277171758329,-22.3215713460459));
#1362=CARTESIAN_POINT('',(-22.,3.7138581202761,-22.3215713460459));
#1363=CARTESIAN_POINT('',(-22.,-25.4999994300306,-50.9999988600612));
#1364=CARTESIAN_POINT('Origin',(-25.,-6.43502792220631,-22.3215713460459));
#1365=CARTESIAN_POINT('',(-25.,-6.43502792220631,-22.3215713460459));
#1366=CARTESIAN_POINT('',(-25.,-6.43502792220631,-33.3215713460459));
#1367=CARTESIAN_POINT('',(-25.,-6.43502792220631,-11.1607856730229));
#1368=CARTESIAN_POINT('',(-25.,-6.43502792220631,-22.3215713460459));
#1369=CARTESIAN_POINT('',(-25.,-6.43502792220631,-33.3215707346241));
#1370=CARTESIAN_POINT('Origin',(-25.,5.4277171758329,-22.3215713460459));
#1371=CARTESIAN_POINT('',(-25.,5.4277171758329,-22.3215713460459));
#1372=CARTESIAN_POINT('',(-25.,17.4638585879165,-22.3215713460459));
#1373=CARTESIAN_POINT('',(-25.,5.42771651645651,-22.3215713460459));
#1374=CARTESIAN_POINT('Origin',(-25.,-25.4999994300306,-50.9999988600612));
#1375=CARTESIAN_POINT('',(-25.,29.5,0.));
#1376=CARTESIAN_POINT('',(-25.,-25.4999994300306,-50.9999988600612));
#1377=CARTESIAN_POINT('',(25.,29.5,0.));
#1378=CARTESIAN_POINT('Origin',(-25.,29.5,0.));
#1379=CARTESIAN_POINT('',(-25.,-25.5,-51.));
#1380=CARTESIAN_POINT('',(-25.,-25.4999994300306,-50.9999988600612));
#1381=CARTESIAN_POINT('',(-25.,-29.5,-51.));
#1382=CARTESIAN_POINT('',(-25.,-29.5,-51.));
#1383=CARTESIAN_POINT('',(-25.,-29.5,4.));
#1384=CARTESIAN_POINT('',(-25.,-29.5,0.));
#1385=CARTESIAN_POINT('',(-25.,29.5,4.));
#1386=CARTESIAN_POINT('',(-25.,29.5,4.));
#1387=CARTESIAN_POINT('',(-25.,29.5,0.));
#1388=CARTESIAN_POINT('Origin',(-15.,-30.5,-16.875));
#1389=CARTESIAN_POINT('',(-15.,-29.5,-41.75));
#1390=CARTESIAN_POINT('',(-14.,-30.5,-40.75));
#1391=CARTESIAN_POINT('Origin',(-15.,-30.5,-41.75));
#1392=CARTESIAN_POINT('',(-14.,-30.5,-33.75));
#1393=CARTESIAN_POINT('',(-14.,-30.5,-16.875));
#1394=CARTESIAN_POINT('',(-15.,-29.5,-33.75));
#1395=CARTESIAN_POINT('Origin',(-15.,-30.5,-33.75));
#1396=CARTESIAN_POINT('',(-15.,-29.5,-16.875));
#1397=CARTESIAN_POINT('Origin',(-14.,-29.5,-33.75));
#1398=CARTESIAN_POINT('',(-14.,-33.5,-40.75));
#1399=CARTESIAN_POINT('',(-14.,-29.5,-40.75));
#1400=CARTESIAN_POINT('',(-14.,-33.5,-33.75));
#1401=CARTESIAN_POINT('',(-14.,-33.5,-40.75));
#1402=CARTESIAN_POINT('',(-14.,-29.5,-33.75));
#1403=CARTESIAN_POINT('Origin',(-15.,-30.5,-3.12500000000001));
#1404=CARTESIAN_POINT('',(-15.,-29.5,-13.25));
#1405=CARTESIAN_POINT('',(-14.,-30.5,-13.25));
#1406=CARTESIAN_POINT('Origin',(-15.,-30.5,-13.25));
#1407=CARTESIAN_POINT('',(-14.,-30.5,-6.25000000000001));
#1408=CARTESIAN_POINT('',(-14.,-30.5,-3.12500000000001));
#1409=CARTESIAN_POINT('',(-15.,-29.5,-5.25000000000001));
#1410=CARTESIAN_POINT('Origin',(-15.,-30.5,-5.25000000000001));
#1411=CARTESIAN_POINT('',(-15.,-29.5,-3.12500000000001));
#1412=CARTESIAN_POINT('Origin',(-14.,-29.5,-6.25000000000001));
#1413=CARTESIAN_POINT('',(-14.,-33.5,-13.25));
#1414=CARTESIAN_POINT('',(-14.,-29.5,-13.25));
#1415=CARTESIAN_POINT('',(-14.,-33.5,-6.25000000000001));
#1416=CARTESIAN_POINT('',(-14.,-33.5,-6.25000000000001));
#1417=CARTESIAN_POINT('',(-14.,-29.5,-6.25000000000001));
#1418=CARTESIAN_POINT('Origin',(17.,-30.5,-6.62500000000001));
#1419=CARTESIAN_POINT('',(17.,-29.5,-5.25000000000001));
#1420=CARTESIAN_POINT('',(16.,-30.5,-6.25000000000001));
#1421=CARTESIAN_POINT('Origin',(17.,-30.5,-5.25000000000001));
#1422=CARTESIAN_POINT('',(16.,-30.5,-13.25));
#1423=CARTESIAN_POINT('',(16.,-30.5,-6.62500000000001));
#1424=CARTESIAN_POINT('',(17.,-29.5,-13.25));
#1425=CARTESIAN_POINT('Origin',(17.,-30.5,-13.25));
#1426=CARTESIAN_POINT('',(17.,-29.5,-6.62500000000001));
#1427=CARTESIAN_POINT('Origin',(16.,-29.5,-13.25));
#1428=CARTESIAN_POINT('',(16.,-33.5,-6.25000000000001));
#1429=CARTESIAN_POINT('',(16.,-29.5,-6.25000000000001));
#1430=CARTESIAN_POINT('',(16.,-33.5,-13.25));
#1431=CARTESIAN_POINT('',(16.,-33.5,-13.25));
#1432=CARTESIAN_POINT('',(16.,-29.5,-13.25));
#1433=CARTESIAN_POINT('Origin',(17.,-30.5,-20.375));
#1434=CARTESIAN_POINT('',(17.,-29.5,-33.75));
#1435=CARTESIAN_POINT('',(16.,-30.5,-33.75));
#1436=CARTESIAN_POINT('Origin',(17.,-30.5,-33.75));
#1437=CARTESIAN_POINT('',(16.,-30.5,-40.75));
#1438=CARTESIAN_POINT('',(16.,-30.5,-20.375));
#1439=CARTESIAN_POINT('',(17.,-29.5,-41.75));
#1440=CARTESIAN_POINT('Origin',(17.,-30.5,-41.75));
#1441=CARTESIAN_POINT('',(17.,-29.5,-20.375));
#1442=CARTESIAN_POINT('Origin',(16.,-29.5,-40.75));
#1443=CARTESIAN_POINT('',(16.,-33.5,-33.75));
#1444=CARTESIAN_POINT('',(16.,-29.5,-33.75));
#1445=CARTESIAN_POINT('',(16.,-33.5,-40.75));
#1446=CARTESIAN_POINT('',(16.,-33.5,-33.75));
#1447=CARTESIAN_POINT('',(16.,-29.5,-40.75));
#1448=CARTESIAN_POINT('Origin',(-4.5,-30.5,-5.25000000000001));
#1449=CARTESIAN_POINT('',(-4.5,-30.5,-6.25000000000001));
#1450=CARTESIAN_POINT('',(-4.5,-29.5,-5.25000000000001));
#1451=CARTESIAN_POINT('Origin',(16.,-29.5,-6.25000000000001));
#1452=CARTESIAN_POINT('',(16.,-33.5,-6.25000000000001));
#1453=CARTESIAN_POINT('Origin',(-19.5,-30.5,-41.75));
#1454=CARTESIAN_POINT('',(-19.5,-30.5,-40.75));
#1455=CARTESIAN_POINT('',(-19.5,-29.5,-41.75));
#1456=CARTESIAN_POINT('Origin',(-14.,-29.5,-40.75));
#1457=CARTESIAN_POINT('',(16.,-33.5,-40.75));
#1458=CARTESIAN_POINT('Origin',(25.,29.5000004395843,0.));
#1459=CARTESIAN_POINT('',(25.,-25.5,-51.));
#1460=CARTESIAN_POINT('',(25.,29.5,0.));
#1461=CARTESIAN_POINT('',(25.,-25.4999994300306,-50.9999988600612));
#1462=CARTESIAN_POINT('',(-25.,-25.5,-51.));
#1463=CARTESIAN_POINT('',(25.,29.5,0.));
#1464=CARTESIAN_POINT('Origin',(25.,-29.5,0.));
#1465=CARTESIAN_POINT('',(25.,29.5,4.));
#1466=CARTESIAN_POINT('',(25.,29.5,0.));
#1467=CARTESIAN_POINT('',(25.,-29.5,4.));
#1468=CARTESIAN_POINT('',(25.,-29.5,4.));
#1469=CARTESIAN_POINT('',(25.,-29.5,-51.));
#1470=CARTESIAN_POINT('',(25.,-29.5,0.));
#1471=CARTESIAN_POINT('',(25.,-25.5,-51.));
#1472=CARTESIAN_POINT('Origin',(0.,0.,0.));
#1473=CARTESIAN_POINT('Ctrl Pts',(-19.,-17.5,0.));
#1474=CARTESIAN_POINT('Ctrl Pts',(-6.33333333333334,-17.5,0.));
#1475=CARTESIAN_POINT('Ctrl Pts',(6.33333333333333,-17.5,0.));
#1476=CARTESIAN_POINT('Ctrl Pts',(19.,-17.5,0.));
#1477=CARTESIAN_POINT('',(25.,29.5,0.));
#1478=CARTESIAN_POINT('',(11.5,2.50000000000001,0.));
#1479=CARTESIAN_POINT('Origin',(0.,2.5,0.));
#1480=CARTESIAN_POINT('',(-13.8,18.,0.));
#1481=CARTESIAN_POINT('Origin',(-15.5,18.,0.));
#1482=CARTESIAN_POINT('',(17.2,18.,0.));
#1483=CARTESIAN_POINT('Origin',(15.5,18.,0.));
#1484=CARTESIAN_POINT('',(-13.8,-13.,0.));
#1485=CARTESIAN_POINT('Origin',(-15.5,-13.,0.));
#1486=CARTESIAN_POINT('',(17.2,-13.,0.));
#1487=CARTESIAN_POINT('Origin',(15.5,-13.,0.));
#1488=CARTESIAN_POINT('Origin',(-25.,-25.4999994300306,-50.9999988600612));
#1489=CARTESIAN_POINT('',(-25.,-25.5,-51.));
#1490=CARTESIAN_POINT('Origin',(-25.,-25.5,0.));
#1491=CARTESIAN_POINT('',(-25.,-25.5,-51.));
#1492=CARTESIAN_POINT('Ctrl Pts',(19.,-25.5,-8.));
#1493=CARTESIAN_POINT('Ctrl Pts',(6.33333333333334,-25.5,-8.));
#1494=CARTESIAN_POINT('Ctrl Pts',(-6.33333333333333,-25.5,-8.));
#1495=CARTESIAN_POINT('Ctrl Pts',(-19.,-25.5,-8.));
#1496=CARTESIAN_POINT('Ctrl Pts',(19.,-17.5,0.));
#1497=CARTESIAN_POINT('Ctrl Pts',(6.33333333333333,-17.5,0.));
#1498=CARTESIAN_POINT('Ctrl Pts',(-6.33333333333334,-17.5,0.));
#1499=CARTESIAN_POINT('Ctrl Pts',(-19.,-17.5,0.));
#1500=CARTESIAN_POINT('Ctrl Pts',(19.,-18.3175156461841,0.));
#1501=CARTESIAN_POINT('Ctrl Pts',(6.33333333333333,-18.3175156461841,0.));
#1502=CARTESIAN_POINT('Ctrl Pts',(-6.33333333333334,-18.3175156461841,0.));
#1503=CARTESIAN_POINT('Ctrl Pts',(-19.,-18.3175156461841,0.));
#1504=CARTESIAN_POINT('Ctrl Pts',(19.,-20.4103681431306,-0.443587920861808));
#1505=CARTESIAN_POINT('Ctrl Pts',(6.33333333333333,-20.4103681431306,-0.443587920861808));
#1506=CARTESIAN_POINT('Ctrl Pts',(-6.33333333333334,-20.4103681431306,-0.443587920861808));
#1507=CARTESIAN_POINT('Ctrl Pts',(-19.,-20.4103681431306,-0.443587920861808));
#1508=CARTESIAN_POINT('Ctrl Pts',(19.,-23.8916246378351,-3.25090247588152));
#1509=CARTESIAN_POINT('Ctrl Pts',(6.33333333333333,-23.8916246378351,-3.25090247588152));
#1510=CARTESIAN_POINT('Ctrl Pts',(-6.33333333333333,-23.8916246378351,-3.25090247588152));
#1511=CARTESIAN_POINT('Ctrl Pts',(-19.,-23.8916246378351,-3.25090247588152));
#1512=CARTESIAN_POINT('Ctrl Pts',(19.,-25.3521230898099,-6.22803087667904));
#1513=CARTESIAN_POINT('Ctrl Pts',(6.33333333333334,-25.3521230898099,-6.22803087667904));
#1514=CARTESIAN_POINT('Ctrl Pts',(-6.33333333333334,-25.3521230898099,-6.22803087667904));
#1515=CARTESIAN_POINT('Ctrl Pts',(-19.,-25.3521230898099,-6.22803087667904));
#1516=CARTESIAN_POINT('Ctrl Pts',(19.,-25.5,-7.59124217690797));
#1517=CARTESIAN_POINT('Ctrl Pts',(6.33333333333334,-25.5,-7.59124217690797));
#1518=CARTESIAN_POINT('Ctrl Pts',(-6.33333333333333,-25.5,-7.59124217690797));
#1519=CARTESIAN_POINT('Ctrl Pts',(-19.,-25.5,-7.59124217690797));
#1520=CARTESIAN_POINT('Ctrl Pts',(19.,-25.5,-8.));
#1521=CARTESIAN_POINT('Ctrl Pts',(6.33333333333334,-25.5,-8.));
#1522=CARTESIAN_POINT('Ctrl Pts',(-6.33333333333333,-25.5,-8.));
#1523=CARTESIAN_POINT('Ctrl Pts',(-19.,-25.5,-8.));
#1524=CARTESIAN_POINT('Origin',(-14.,-29.5,-13.25));
#1525=CARTESIAN_POINT('',(-19.5,-29.5,-13.25));
#1526=CARTESIAN_POINT('',(-14.,-33.5,-13.25));
#1527=CARTESIAN_POINT('Origin',(1.,-33.5,-9.75000000000001));
#1528=CARTESIAN_POINT('Origin',(16.,-29.5,-33.75));
#1529=CARTESIAN_POINT('',(-4.5,-29.5,-33.75));
#1530=CARTESIAN_POINT('',(-14.,-33.5,-33.75));
#1531=CARTESIAN_POINT('Origin',(0.999999999999996,-33.5,-37.25));
#1532=CARTESIAN_POINT('Origin',(-4.44089209850063E-15,-27.5,-51.));
#1533=CARTESIAN_POINT('',(25.,-29.5,-51.));
#1534=CARTESIAN_POINT('Origin',(15.5,-13.,4.));
#1535=CARTESIAN_POINT('',(17.2,-13.,4.));
#1536=CARTESIAN_POINT('Origin',(15.5,-13.,4.));
#1537=CARTESIAN_POINT('',(17.2,-13.,4.));
#1538=CARTESIAN_POINT('Origin',(-15.5,-13.,4.));
#1539=CARTESIAN_POINT('',(-13.8,-13.,4.));
#1540=CARTESIAN_POINT('Origin',(-15.5,-13.,4.));
#1541=CARTESIAN_POINT('',(-13.8,-13.,4.));
#1542=CARTESIAN_POINT('Origin',(15.5,18.,4.));
#1543=CARTESIAN_POINT('',(17.2,18.,4.));
#1544=CARTESIAN_POINT('Origin',(15.5,18.,4.));
#1545=CARTESIAN_POINT('',(17.2,18.,4.));
#1546=CARTESIAN_POINT('Origin',(-15.5,18.,4.));
#1547=CARTESIAN_POINT('',(-13.8,18.,4.));
#1548=CARTESIAN_POINT('Origin',(-15.5,18.,4.));
#1549=CARTESIAN_POINT('',(-13.8,18.,4.));
#1550=CARTESIAN_POINT('Origin',(0.,2.5,4.));
#1551=CARTESIAN_POINT('',(11.5,2.50000000000001,4.));
#1552=CARTESIAN_POINT('Origin',(0.,2.5,4.));
#1553=CARTESIAN_POINT('',(11.5,2.5,4.));
#1554=CARTESIAN_POINT('Origin',(-25.,-29.5,0.));
#1555=CARTESIAN_POINT('',(-25.,-29.5,4.));
#1556=CARTESIAN_POINT('Origin',(25.,29.5,0.));
#1557=CARTESIAN_POINT('',(25.,29.5,4.));
#1558=CARTESIAN_POINT('Origin',(0.,0.,4.));
#1559=UNCERTAINTY_MEASURE_WITH_UNIT(LENGTH_MEASURE(0.01),#1563,
'DISTANCE_ACCURACY_VALUE',
'Maximum model space distance between geometric entities at asserted c
onnectivities');
#1560=UNCERTAINTY_MEASURE_WITH_UNIT(LENGTH_MEASURE(0.01),#1563,
'DISTANCE_ACCURACY_VALUE',
'Maximum model space distance between geometric entities at asserted c
onnectivities');
#1561=(
GEOMETRIC_REPRESENTATION_CONTEXT(3)
GLOBAL_UNCERTAINTY_ASSIGNED_CONTEXT((#1559))
GLOBAL_UNIT_ASSIGNED_CONTEXT((#1563,#1565,#1566))
REPRESENTATION_CONTEXT('','3D')
);
#1562=(
GEOMETRIC_REPRESENTATION_CONTEXT(3)
GLOBAL_UNCERTAINTY_ASSIGNED_CONTEXT((#1560))
GLOBAL_UNIT_ASSIGNED_CONTEXT((#1563,#1565,#1566))
REPRESENTATION_CONTEXT('','3D')
);
#1563=(
LENGTH_UNIT()
NAMED_UNIT(*)
SI_UNIT(.MILLI.,.METRE.)
);
#1564=(
LENGTH_UNIT()
NAMED_UNIT(*)
SI_UNIT($,.METRE.)
);
#1565=(
NAMED_UNIT(*)
PLANE_ANGLE_UNIT()
SI_UNIT($,.RADIAN.)
);
#1566=(
NAMED_UNIT(*)
SI_UNIT($,.STERADIAN.)
SOLID_ANGLE_UNIT()
);
#1567=SHAPE_DEFINITION_REPRESENTATION(#1568,#1569);
#1568=PRODUCT_DEFINITION_SHAPE('',$,#1571);
#1569=SHAPE_REPRESENTATION('',(#829),#1561);
#1570=PRODUCT_DEFINITION_CONTEXT('part definition',#1575,'design');
#1571=PRODUCT_DEFINITION('Suporte_nema17_x','Suporte_nema17_x v22',#1572,
#1570);
#1572=PRODUCT_DEFINITION_FORMATION('',$,#1577);
#1573=PRODUCT_RELATED_PRODUCT_CATEGORY('Suporte_nema17_x v22',
'Suporte_nema17_x v22',(#1577));
#1574=APPLICATION_PROTOCOL_DEFINITION('international standard',
'automotive_design',2009,#1575);
#1575=APPLICATION_CONTEXT(
'Core Data for Automotive Mechanical Design Process');
#1576=PRODUCT_CONTEXT('part definition',#1575,'mechanical');
#1577=PRODUCT('Suporte_nema17_x','Suporte_nema17_x v22',$,(#1576));
#1578=PRESENTATION_STYLE_ASSIGNMENT((#1579));
#1579=SURFACE_STYLE_USAGE(.BOTH.,#1580);
#1580=SURFACE_SIDE_STYLE('',(#1581));
#1581=SURFACE_STYLE_FILL_AREA(#1582);
#1582=FILL_AREA_STYLE('Pintura - Esmalte com brilho (Amarelo)',(#1583));
#1583=FILL_AREA_STYLE_COLOUR('Pintura - Esmalte com brilho (Amarelo)',#1584);
#1584=COLOUR_RGB('Pintura - Esmalte com brilho (Amarelo)',0.909803921568627,
0.67843137254902,0.137254901960784);
ENDSEC;
END-ISO-10303-21;
