ISO-10303-21;
HEADER;
/* Generated by software containing ST-Developer
 * from STEP Tools, Inc. (www.steptools.com) 
 */

FILE_DESCRIPTION(
/* description */ (''),
/* implementation_level */ '2;1');

FILE_NAME(
/* name */ 'SuportePoliaGT2EixoX.step',
/* time_stamp */ '2026-04-01T20:44:27-03:00',
/* author */ (''),
/* organization */ (''),
/* preprocessor_version */ 'ST-DEVELOPER v20.1',
/* originating_system */ 'Autodesk Translation Framework v14.24.0.0',
/* authorisation */ '');

FILE_SCHEMA (('AUTOMOTIVE_DESIGN { 1 0 10303 214 3 1 1 }'));
ENDSEC;

DATA;
#10=MECHANICAL_DESIGN_GEOMETRIC_PRESENTATION_REPRESENTATION('',(#13),#799);
#11=SHAPE_REPRESENTATION_RELATIONSHIP('SRR','None',#806,#12);
#12=ADVANCED_BREP_SHAPE_REPRESENTATION('',(#14),#798);
#13=STYLED_ITEM('',(#815),#14);
#14=MANIFOLD_SOLID_BREP('Corpo1',#487);
#15=FACE_BOUND('',#70,.T.);
#16=FACE_BOUND('',#71,.T.);
#17=FACE_BOUND('',#84,.T.);
#18=FACE_BOUND('',#85,.T.);
#19=FACE_BOUND('',#91,.T.);
#20=FACE_BOUND('',#93,.T.);
#21=PLANE('',#507);
#22=PLANE('',#513);
#23=PLANE('',#514);
#24=PLANE('',#515);
#25=PLANE('',#516);
#26=PLANE('',#517);
#27=PLANE('',#518);
#28=PLANE('',#519);
#29=PLANE('',#520);
#30=PLANE('',#521);
#31=PLANE('',#522);
#32=PLANE('',#523);
#33=PLANE('',#524);
#34=PLANE('',#525);
#35=PLANE('',#526);
#36=PLANE('',#527);
#37=PLANE('',#528);
#38=PLANE('',#532);
#39=PLANE('',#533);
#40=PLANE('',#534);
#41=FACE_OUTER_BOUND('',#65,.T.);
#42=FACE_OUTER_BOUND('',#66,.T.);
#43=FACE_OUTER_BOUND('',#67,.T.);
#44=FACE_OUTER_BOUND('',#68,.T.);
#45=FACE_OUTER_BOUND('',#69,.T.);
#46=FACE_OUTER_BOUND('',#72,.T.);
#47=FACE_OUTER_BOUND('',#73,.T.);
#48=FACE_OUTER_BOUND('',#74,.T.);
#49=FACE_OUTER_BOUND('',#75,.T.);
#50=FACE_OUTER_BOUND('',#76,.T.);
#51=FACE_OUTER_BOUND('',#77,.T.);
#52=FACE_OUTER_BOUND('',#78,.T.);
#53=FACE_OUTER_BOUND('',#79,.T.);
#54=FACE_OUTER_BOUND('',#80,.T.);
#55=FACE_OUTER_BOUND('',#81,.T.);
#56=FACE_OUTER_BOUND('',#82,.T.);
#57=FACE_OUTER_BOUND('',#83,.T.);
#58=FACE_OUTER_BOUND('',#86,.T.);
#59=FACE_OUTER_BOUND('',#87,.T.);
#60=FACE_OUTER_BOUND('',#88,.T.);
#61=FACE_OUTER_BOUND('',#89,.T.);
#62=FACE_OUTER_BOUND('',#90,.T.);
#63=FACE_OUTER_BOUND('',#92,.T.);
#64=FACE_OUTER_BOUND('',#94,.T.);
#65=EDGE_LOOP('',(#327,#328,#329,#330));
#66=EDGE_LOOP('',(#331,#332,#333,#334));
#67=EDGE_LOOP('',(#335,#336));
#68=EDGE_LOOP('',(#337,#338,#339,#340,#341,#342,#343,#344));
#69=EDGE_LOOP('',(#345,#346,#347,#348,#349,#350,#351,#352));
#70=EDGE_LOOP('',(#353));
#71=EDGE_LOOP('',(#354));
#72=EDGE_LOOP('',(#355,#356,#357,#358,#359,#360,#361,#362,#363,#364,#365));
#73=EDGE_LOOP('',(#366,#367,#368,#369));
#74=EDGE_LOOP('',(#370,#371,#372,#373));
#75=EDGE_LOOP('',(#374,#375,#376,#377,#378,#379,#380,#381));
#76=EDGE_LOOP('',(#382,#383,#384,#385,#386,#387,#388,#389));
#77=EDGE_LOOP('',(#390,#391,#392,#393));
#78=EDGE_LOOP('',(#394,#395,#396,#397));
#79=EDGE_LOOP('',(#398,#399,#400,#401));
#80=EDGE_LOOP('',(#402,#403,#404,#405));
#81=EDGE_LOOP('',(#406,#407,#408,#409));
#82=EDGE_LOOP('',(#410,#411,#412,#413,#414,#415,#416,#417));
#83=EDGE_LOOP('',(#418,#419,#420,#421,#422,#423,#424,#425));
#84=EDGE_LOOP('',(#426));
#85=EDGE_LOOP('',(#427));
#86=EDGE_LOOP('',(#428,#429,#430,#431));
#87=EDGE_LOOP('',(#432,#433,#434,#435,#436,#437,#438,#439));
#88=EDGE_LOOP('',(#440,#441,#442,#443));
#89=EDGE_LOOP('',(#444,#445,#446,#447));
#90=EDGE_LOOP('',(#448));
#91=EDGE_LOOP('',(#449));
#92=EDGE_LOOP('',(#450,#451,#452,#453));
#93=EDGE_LOOP('',(#454));
#94=EDGE_LOOP('',(#455,#456,#457,#458));
#95=LINE('',#666,#151);
#96=LINE('',#672,#152);
#97=LINE('',#677,#153);
#98=LINE('',#681,#154);
#99=LINE('',#685,#155);
#100=LINE('',#689,#156);
#101=LINE('',#692,#157);
#102=LINE('',#694,#158);
#103=LINE('',#696,#159);
#104=LINE('',#698,#160);
#105=LINE('',#699,#161);
#106=LINE('',#702,#162);
#107=LINE('',#704,#163);
#108=LINE('',#706,#164);
#109=LINE('',#708,#165);
#110=LINE('',#710,#166);
#111=LINE('',#712,#167);
#112=LINE('',#713,#168);
#113=LINE('',#716,#169);
#114=LINE('',#718,#170);
#115=LINE('',#719,#171);
#116=LINE('',#722,#172);
#117=LINE('',#724,#173);
#118=LINE('',#725,#174);
#119=LINE('',#728,#175);
#120=LINE('',#730,#176);
#121=LINE('',#732,#177);
#122=LINE('',#734,#178);
#123=LINE('',#736,#179);
#124=LINE('',#737,#180);
#125=LINE('',#740,#181);
#126=LINE('',#742,#182);
#127=LINE('',#744,#183);
#128=LINE('',#746,#184);
#129=LINE('',#747,#185);
#130=LINE('',#749,#186);
#131=LINE('',#752,#187);
#132=LINE('',#753,#188);
#133=LINE('',#756,#189);
#134=LINE('',#758,#190);
#135=LINE('',#759,#191);
#136=LINE('',#762,#192);
#137=LINE('',#764,#193);
#138=LINE('',#765,#194);
#139=LINE('',#767,#195);
#140=LINE('',#770,#196);
#141=LINE('',#771,#197);
#142=LINE('',#773,#198);
#143=LINE('',#775,#199);
#144=LINE('',#776,#200);
#145=LINE('',#780,#201);
#146=LINE('',#782,#202);
#147=LINE('',#783,#203);
#148=LINE('',#785,#204);
#149=LINE('',#790,#205);
#150=LINE('',#794,#206);
#151=VECTOR('',#541,2.25000000000001);
#152=VECTOR('',#548,2.24999999999998);
#153=VECTOR('',#553,1.);
#154=VECTOR('',#558,1.);
#155=VECTOR('',#561,2.5085);
#156=VECTOR('',#566,1.);
#157=VECTOR('',#569,2.00085);
#158=VECTOR('',#570,1.);
#159=VECTOR('',#571,2.00085);
#160=VECTOR('',#572,1.);
#161=VECTOR('',#573,2.00085);
#162=VECTOR('',#576,1.);
#163=VECTOR('',#577,1.);
#164=VECTOR('',#578,1.);
#165=VECTOR('',#579,1.);
#166=VECTOR('',#580,1.);
#167=VECTOR('',#581,1.);
#168=VECTOR('',#582,1.);
#169=VECTOR('',#585,1.);
#170=VECTOR('',#586,1.);
#171=VECTOR('',#587,1.);
#172=VECTOR('',#590,1.28484848484849);
#173=VECTOR('',#591,1.);
#174=VECTOR('',#592,1.28484848484849);
#175=VECTOR('',#595,1.);
#176=VECTOR('',#596,1.);
#177=VECTOR('',#597,1.);
#178=VECTOR('',#598,1.1);
#179=VECTOR('',#599,1.28484848484849);
#180=VECTOR('',#600,1.1);
#181=VECTOR('',#603,1.85);
#182=VECTOR('',#604,0.35);
#183=VECTOR('',#605,1.85);
#184=VECTOR('',#606,0.35);
#185=VECTOR('',#607,1.85);
#186=VECTOR('',#610,2.);
#187=VECTOR('',#613,1.85);
#188=VECTOR('',#614,2.);
#189=VECTOR('',#617,1.);
#190=VECTOR('',#618,2.);
#191=VECTOR('',#619,1.85);
#192=VECTOR('',#622,1.);
#193=VECTOR('',#623,2.);
#194=VECTOR('',#624,0.35);
#195=VECTOR('',#627,2.);
#196=VECTOR('',#630,1.85);
#197=VECTOR('',#631,0.35);
#198=VECTOR('',#634,2.);
#199=VECTOR('',#635,1.);
#200=VECTOR('',#636,1.);
#201=VECTOR('',#641,1.1);
#202=VECTOR('',#642,1.28484848484849);
#203=VECTOR('',#643,1.1);
#204=VECTOR('',#646,1.);
#205=VECTOR('',#651,4.);
#206=VECTOR('',#658,1.);
#207=CIRCLE('',#502,2.25000000000001);
#208=CIRCLE('',#503,2.25000000000001);
#209=CIRCLE('',#505,2.24999999999998);
#210=CIRCLE('',#506,2.24999999999998);
#211=CIRCLE('',#508,2.5085);
#212=CIRCLE('',#510,2.5085);
#213=CIRCLE('',#511,2.5085);
#214=CIRCLE('',#512,2.5085);
#215=CIRCLE('',#530,4.);
#216=CIRCLE('',#531,4.);
#217=VERTEX_POINT('',#663);
#218=VERTEX_POINT('',#665);
#219=VERTEX_POINT('',#669);
#220=VERTEX_POINT('',#671);
#221=VERTEX_POINT('',#675);
#222=VERTEX_POINT('',#676);
#223=VERTEX_POINT('',#680);
#224=VERTEX_POINT('',#682);
#225=VERTEX_POINT('',#684);
#226=VERTEX_POINT('',#687);
#227=VERTEX_POINT('',#691);
#228=VERTEX_POINT('',#693);
#229=VERTEX_POINT('',#695);
#230=VERTEX_POINT('',#697);
#231=VERTEX_POINT('',#701);
#232=VERTEX_POINT('',#703);
#233=VERTEX_POINT('',#705);
#234=VERTEX_POINT('',#707);
#235=VERTEX_POINT('',#709);
#236=VERTEX_POINT('',#711);
#237=VERTEX_POINT('',#715);
#238=VERTEX_POINT('',#717);
#239=VERTEX_POINT('',#721);
#240=VERTEX_POINT('',#723);
#241=VERTEX_POINT('',#727);
#242=VERTEX_POINT('',#729);
#243=VERTEX_POINT('',#731);
#244=VERTEX_POINT('',#733);
#245=VERTEX_POINT('',#735);
#246=VERTEX_POINT('',#739);
#247=VERTEX_POINT('',#741);
#248=VERTEX_POINT('',#743);
#249=VERTEX_POINT('',#745);
#250=VERTEX_POINT('',#751);
#251=VERTEX_POINT('',#755);
#252=VERTEX_POINT('',#757);
#253=VERTEX_POINT('',#761);
#254=VERTEX_POINT('',#763);
#255=VERTEX_POINT('',#769);
#256=VERTEX_POINT('',#774);
#257=VERTEX_POINT('',#779);
#258=VERTEX_POINT('',#781);
#259=VERTEX_POINT('',#787);
#260=VERTEX_POINT('',#789);
#261=EDGE_CURVE('',#217,#217,#207,.T.);
#262=EDGE_CURVE('',#217,#218,#95,.T.);
#263=EDGE_CURVE('',#218,#218,#208,.T.);
#264=EDGE_CURVE('',#219,#219,#209,.T.);
#265=EDGE_CURVE('',#219,#220,#96,.T.);
#266=EDGE_CURVE('',#220,#220,#210,.T.);
#267=EDGE_CURVE('',#221,#222,#97,.T.);
#268=EDGE_CURVE('',#221,#222,#211,.T.);
#269=EDGE_CURVE('',#223,#221,#98,.T.);
#270=EDGE_CURVE('',#224,#223,#212,.T.);
#271=EDGE_CURVE('',#224,#225,#99,.T.);
#272=EDGE_CURVE('',#225,#225,#213,.T.);
#273=EDGE_CURVE('',#226,#224,#214,.T.);
#274=EDGE_CURVE('',#222,#226,#100,.T.);
#275=EDGE_CURVE('',#226,#227,#101,.T.);
#276=EDGE_CURVE('',#228,#227,#102,.T.);
#277=EDGE_CURVE('',#229,#228,#103,.T.);
#278=EDGE_CURVE('',#230,#229,#104,.T.);
#279=EDGE_CURVE('',#230,#223,#105,.T.);
#280=EDGE_CURVE('',#231,#230,#106,.T.);
#281=EDGE_CURVE('',#232,#231,#107,.T.);
#282=EDGE_CURVE('',#233,#232,#108,.T.);
#283=EDGE_CURVE('',#234,#233,#109,.T.);
#284=EDGE_CURVE('',#235,#234,#110,.T.);
#285=EDGE_CURVE('',#236,#235,#111,.T.);
#286=EDGE_CURVE('',#227,#236,#112,.T.);
#287=EDGE_CURVE('',#237,#228,#113,.T.);
#288=EDGE_CURVE('',#238,#237,#114,.T.);
#289=EDGE_CURVE('',#229,#238,#115,.T.);
#290=EDGE_CURVE('',#239,#233,#116,.T.);
#291=EDGE_CURVE('',#239,#240,#117,.T.);
#292=EDGE_CURVE('',#234,#240,#118,.T.);
#293=EDGE_CURVE('',#232,#241,#119,.T.);
#294=EDGE_CURVE('',#241,#242,#120,.T.);
#295=EDGE_CURVE('',#242,#243,#121,.T.);
#296=EDGE_CURVE('',#243,#244,#122,.T.);
#297=EDGE_CURVE('',#244,#245,#123,.T.);
#298=EDGE_CURVE('',#245,#239,#124,.T.);
#299=EDGE_CURVE('',#238,#246,#125,.T.);
#300=EDGE_CURVE('',#246,#247,#126,.T.);
#301=EDGE_CURVE('',#247,#248,#127,.T.);
#302=EDGE_CURVE('',#248,#249,#128,.T.);
#303=EDGE_CURVE('',#249,#231,#129,.T.);
#304=EDGE_CURVE('',#249,#241,#130,.T.);
#305=EDGE_CURVE('',#250,#237,#131,.T.);
#306=EDGE_CURVE('',#246,#250,#132,.T.);
#307=EDGE_CURVE('',#251,#235,#133,.T.);
#308=EDGE_CURVE('',#251,#252,#134,.T.);
#309=EDGE_CURVE('',#236,#252,#135,.T.);
#310=EDGE_CURVE('',#253,#251,#136,.T.);
#311=EDGE_CURVE('',#253,#254,#137,.T.);
#312=EDGE_CURVE('',#252,#254,#138,.T.);
#313=EDGE_CURVE('',#248,#242,#139,.T.);
#314=EDGE_CURVE('',#254,#255,#140,.T.);
#315=EDGE_CURVE('',#255,#250,#141,.T.);
#316=EDGE_CURVE('',#247,#255,#142,.T.);
#317=EDGE_CURVE('',#256,#253,#143,.T.);
#318=EDGE_CURVE('',#243,#256,#144,.T.);
#319=EDGE_CURVE('',#240,#257,#145,.T.);
#320=EDGE_CURVE('',#257,#258,#146,.T.);
#321=EDGE_CURVE('',#258,#256,#147,.T.);
#322=EDGE_CURVE('',#244,#258,#148,.T.);
#323=EDGE_CURVE('',#259,#259,#215,.T.);
#324=EDGE_CURVE('',#259,#260,#149,.T.);
#325=EDGE_CURVE('',#260,#260,#216,.T.);
#326=EDGE_CURVE('',#245,#257,#150,.T.);
#327=ORIENTED_EDGE('',*,*,#261,.F.);
#328=ORIENTED_EDGE('',*,*,#262,.T.);
#329=ORIENTED_EDGE('',*,*,#263,.F.);
#330=ORIENTED_EDGE('',*,*,#262,.F.);
#331=ORIENTED_EDGE('',*,*,#264,.F.);
#332=ORIENTED_EDGE('',*,*,#265,.T.);
#333=ORIENTED_EDGE('',*,*,#266,.F.);
#334=ORIENTED_EDGE('',*,*,#265,.F.);
#335=ORIENTED_EDGE('',*,*,#267,.F.);
#336=ORIENTED_EDGE('',*,*,#268,.T.);
#337=ORIENTED_EDGE('',*,*,#269,.F.);
#338=ORIENTED_EDGE('',*,*,#270,.F.);
#339=ORIENTED_EDGE('',*,*,#271,.T.);
#340=ORIENTED_EDGE('',*,*,#272,.F.);
#341=ORIENTED_EDGE('',*,*,#271,.F.);
#342=ORIENTED_EDGE('',*,*,#273,.F.);
#343=ORIENTED_EDGE('',*,*,#274,.F.);
#344=ORIENTED_EDGE('',*,*,#268,.F.);
#345=ORIENTED_EDGE('',*,*,#269,.T.);
#346=ORIENTED_EDGE('',*,*,#267,.T.);
#347=ORIENTED_EDGE('',*,*,#274,.T.);
#348=ORIENTED_EDGE('',*,*,#275,.T.);
#349=ORIENTED_EDGE('',*,*,#276,.F.);
#350=ORIENTED_EDGE('',*,*,#277,.F.);
#351=ORIENTED_EDGE('',*,*,#278,.F.);
#352=ORIENTED_EDGE('',*,*,#279,.T.);
#353=ORIENTED_EDGE('',*,*,#263,.T.);
#354=ORIENTED_EDGE('',*,*,#266,.T.);
#355=ORIENTED_EDGE('',*,*,#273,.T.);
#356=ORIENTED_EDGE('',*,*,#270,.T.);
#357=ORIENTED_EDGE('',*,*,#279,.F.);
#358=ORIENTED_EDGE('',*,*,#280,.F.);
#359=ORIENTED_EDGE('',*,*,#281,.F.);
#360=ORIENTED_EDGE('',*,*,#282,.F.);
#361=ORIENTED_EDGE('',*,*,#283,.F.);
#362=ORIENTED_EDGE('',*,*,#284,.F.);
#363=ORIENTED_EDGE('',*,*,#285,.F.);
#364=ORIENTED_EDGE('',*,*,#286,.F.);
#365=ORIENTED_EDGE('',*,*,#275,.F.);
#366=ORIENTED_EDGE('',*,*,#287,.F.);
#367=ORIENTED_EDGE('',*,*,#288,.F.);
#368=ORIENTED_EDGE('',*,*,#289,.F.);
#369=ORIENTED_EDGE('',*,*,#277,.T.);
#370=ORIENTED_EDGE('',*,*,#283,.T.);
#371=ORIENTED_EDGE('',*,*,#290,.F.);
#372=ORIENTED_EDGE('',*,*,#291,.T.);
#373=ORIENTED_EDGE('',*,*,#292,.F.);
#374=ORIENTED_EDGE('',*,*,#282,.T.);
#375=ORIENTED_EDGE('',*,*,#293,.T.);
#376=ORIENTED_EDGE('',*,*,#294,.T.);
#377=ORIENTED_EDGE('',*,*,#295,.T.);
#378=ORIENTED_EDGE('',*,*,#296,.T.);
#379=ORIENTED_EDGE('',*,*,#297,.T.);
#380=ORIENTED_EDGE('',*,*,#298,.T.);
#381=ORIENTED_EDGE('',*,*,#290,.T.);
#382=ORIENTED_EDGE('',*,*,#280,.T.);
#383=ORIENTED_EDGE('',*,*,#278,.T.);
#384=ORIENTED_EDGE('',*,*,#289,.T.);
#385=ORIENTED_EDGE('',*,*,#299,.T.);
#386=ORIENTED_EDGE('',*,*,#300,.T.);
#387=ORIENTED_EDGE('',*,*,#301,.T.);
#388=ORIENTED_EDGE('',*,*,#302,.T.);
#389=ORIENTED_EDGE('',*,*,#303,.T.);
#390=ORIENTED_EDGE('',*,*,#281,.T.);
#391=ORIENTED_EDGE('',*,*,#303,.F.);
#392=ORIENTED_EDGE('',*,*,#304,.T.);
#393=ORIENTED_EDGE('',*,*,#293,.F.);
#394=ORIENTED_EDGE('',*,*,#288,.T.);
#395=ORIENTED_EDGE('',*,*,#305,.F.);
#396=ORIENTED_EDGE('',*,*,#306,.F.);
#397=ORIENTED_EDGE('',*,*,#299,.F.);
#398=ORIENTED_EDGE('',*,*,#285,.T.);
#399=ORIENTED_EDGE('',*,*,#307,.F.);
#400=ORIENTED_EDGE('',*,*,#308,.T.);
#401=ORIENTED_EDGE('',*,*,#309,.F.);
#402=ORIENTED_EDGE('',*,*,#310,.F.);
#403=ORIENTED_EDGE('',*,*,#311,.T.);
#404=ORIENTED_EDGE('',*,*,#312,.F.);
#405=ORIENTED_EDGE('',*,*,#308,.F.);
#406=ORIENTED_EDGE('',*,*,#294,.F.);
#407=ORIENTED_EDGE('',*,*,#304,.F.);
#408=ORIENTED_EDGE('',*,*,#302,.F.);
#409=ORIENTED_EDGE('',*,*,#313,.T.);
#410=ORIENTED_EDGE('',*,*,#286,.T.);
#411=ORIENTED_EDGE('',*,*,#309,.T.);
#412=ORIENTED_EDGE('',*,*,#312,.T.);
#413=ORIENTED_EDGE('',*,*,#314,.T.);
#414=ORIENTED_EDGE('',*,*,#315,.T.);
#415=ORIENTED_EDGE('',*,*,#305,.T.);
#416=ORIENTED_EDGE('',*,*,#287,.T.);
#417=ORIENTED_EDGE('',*,*,#276,.T.);
#418=ORIENTED_EDGE('',*,*,#295,.F.);
#419=ORIENTED_EDGE('',*,*,#313,.F.);
#420=ORIENTED_EDGE('',*,*,#301,.F.);
#421=ORIENTED_EDGE('',*,*,#316,.T.);
#422=ORIENTED_EDGE('',*,*,#314,.F.);
#423=ORIENTED_EDGE('',*,*,#311,.F.);
#424=ORIENTED_EDGE('',*,*,#317,.F.);
#425=ORIENTED_EDGE('',*,*,#318,.F.);
#426=ORIENTED_EDGE('',*,*,#261,.T.);
#427=ORIENTED_EDGE('',*,*,#264,.T.);
#428=ORIENTED_EDGE('',*,*,#306,.T.);
#429=ORIENTED_EDGE('',*,*,#315,.F.);
#430=ORIENTED_EDGE('',*,*,#316,.F.);
#431=ORIENTED_EDGE('',*,*,#300,.F.);
#432=ORIENTED_EDGE('',*,*,#284,.T.);
#433=ORIENTED_EDGE('',*,*,#292,.T.);
#434=ORIENTED_EDGE('',*,*,#319,.T.);
#435=ORIENTED_EDGE('',*,*,#320,.T.);
#436=ORIENTED_EDGE('',*,*,#321,.T.);
#437=ORIENTED_EDGE('',*,*,#317,.T.);
#438=ORIENTED_EDGE('',*,*,#310,.T.);
#439=ORIENTED_EDGE('',*,*,#307,.T.);
#440=ORIENTED_EDGE('',*,*,#318,.T.);
#441=ORIENTED_EDGE('',*,*,#321,.F.);
#442=ORIENTED_EDGE('',*,*,#322,.F.);
#443=ORIENTED_EDGE('',*,*,#296,.F.);
#444=ORIENTED_EDGE('',*,*,#323,.F.);
#445=ORIENTED_EDGE('',*,*,#324,.T.);
#446=ORIENTED_EDGE('',*,*,#325,.F.);
#447=ORIENTED_EDGE('',*,*,#324,.F.);
#448=ORIENTED_EDGE('',*,*,#323,.T.);
#449=ORIENTED_EDGE('',*,*,#272,.T.);
#450=ORIENTED_EDGE('',*,*,#326,.T.);
#451=ORIENTED_EDGE('',*,*,#319,.F.);
#452=ORIENTED_EDGE('',*,*,#291,.F.);
#453=ORIENTED_EDGE('',*,*,#298,.F.);
#454=ORIENTED_EDGE('',*,*,#325,.T.);
#455=ORIENTED_EDGE('',*,*,#322,.T.);
#456=ORIENTED_EDGE('',*,*,#320,.F.);
#457=ORIENTED_EDGE('',*,*,#326,.F.);
#458=ORIENTED_EDGE('',*,*,#297,.F.);
#459=CYLINDRICAL_SURFACE('',#501,2.25000000000001);
#460=CYLINDRICAL_SURFACE('',#504,2.24999999999998);
#461=CYLINDRICAL_SURFACE('',#509,2.5085);
#462=CYLINDRICAL_SURFACE('',#529,4.);
#463=ADVANCED_FACE('',(#41),#459,.F.);
#464=ADVANCED_FACE('',(#42),#460,.F.);
#465=ADVANCED_FACE('',(#43),#21,.T.);
#466=ADVANCED_FACE('',(#44),#461,.F.);
#467=ADVANCED_FACE('',(#45,#15,#16),#22,.T.);
#468=ADVANCED_FACE('',(#46),#23,.T.);
#469=ADVANCED_FACE('',(#47),#24,.T.);
#470=ADVANCED_FACE('',(#48),#25,.F.);
#471=ADVANCED_FACE('',(#49),#26,.T.);
#472=ADVANCED_FACE('',(#50),#27,.T.);
#473=ADVANCED_FACE('',(#51),#28,.F.);
#474=ADVANCED_FACE('',(#52),#29,.F.);
#475=ADVANCED_FACE('',(#53),#30,.F.);
#476=ADVANCED_FACE('',(#54),#31,.F.);
#477=ADVANCED_FACE('',(#55),#32,.F.);
#478=ADVANCED_FACE('',(#56),#33,.F.);
#479=ADVANCED_FACE('',(#57,#17,#18),#34,.F.);
#480=ADVANCED_FACE('',(#58),#35,.F.);
#481=ADVANCED_FACE('',(#59),#36,.F.);
#482=ADVANCED_FACE('',(#60),#37,.F.);
#483=ADVANCED_FACE('',(#61),#462,.T.);
#484=ADVANCED_FACE('',(#62,#19),#38,.T.);
#485=ADVANCED_FACE('',(#63,#20),#39,.F.);
#486=ADVANCED_FACE('',(#64),#40,.F.);
#487=CLOSED_SHELL('',(#463,#464,#465,#466,#467,#468,#469,#470,#471,#472,
#473,#474,#475,#476,#477,#478,#479,#480,#481,#482,#483,#484,#485,#486));
#488=DERIVED_UNIT_ELEMENT(#490,1.);
#489=DERIVED_UNIT_ELEMENT(#801,-3.);
#490=(
MASS_UNIT()
NAMED_UNIT(*)
SI_UNIT(.KILO.,.GRAM.)
);
#491=DERIVED_UNIT((#488,#489));
#492=MEASURE_REPRESENTATION_ITEM('density measure',
POSITIVE_RATIO_MEASURE(7850.),#491);
#493=PROPERTY_DEFINITION_REPRESENTATION(#498,#495);
#494=PROPERTY_DEFINITION_REPRESENTATION(#499,#496);
#495=REPRESENTATION('material name',(#497),#798);
#496=REPRESENTATION('density',(#492),#798);
#497=DESCRIPTIVE_REPRESENTATION_ITEM('A\X\E7o','A\X\E7o');
#498=PROPERTY_DEFINITION('material property','material name',#808);
#499=PROPERTY_DEFINITION('material property','density of part',#808);
#500=AXIS2_PLACEMENT_3D('',#661,#535,#536);
#501=AXIS2_PLACEMENT_3D('',#662,#537,#538);
#502=AXIS2_PLACEMENT_3D('',#664,#539,#540);
#503=AXIS2_PLACEMENT_3D('',#667,#542,#543);
#504=AXIS2_PLACEMENT_3D('',#668,#544,#545);
#505=AXIS2_PLACEMENT_3D('',#670,#546,#547);
#506=AXIS2_PLACEMENT_3D('',#673,#549,#550);
#507=AXIS2_PLACEMENT_3D('',#674,#551,#552);
#508=AXIS2_PLACEMENT_3D('',#678,#554,#555);
#509=AXIS2_PLACEMENT_3D('',#679,#556,#557);
#510=AXIS2_PLACEMENT_3D('',#683,#559,#560);
#511=AXIS2_PLACEMENT_3D('',#686,#562,#563);
#512=AXIS2_PLACEMENT_3D('',#688,#564,#565);
#513=AXIS2_PLACEMENT_3D('',#690,#567,#568);
#514=AXIS2_PLACEMENT_3D('',#700,#574,#575);
#515=AXIS2_PLACEMENT_3D('',#714,#583,#584);
#516=AXIS2_PLACEMENT_3D('',#720,#588,#589);
#517=AXIS2_PLACEMENT_3D('',#726,#593,#594);
#518=AXIS2_PLACEMENT_3D('',#738,#601,#602);
#519=AXIS2_PLACEMENT_3D('',#748,#608,#609);
#520=AXIS2_PLACEMENT_3D('',#750,#611,#612);
#521=AXIS2_PLACEMENT_3D('',#754,#615,#616);
#522=AXIS2_PLACEMENT_3D('',#760,#620,#621);
#523=AXIS2_PLACEMENT_3D('',#766,#625,#626);
#524=AXIS2_PLACEMENT_3D('',#768,#628,#629);
#525=AXIS2_PLACEMENT_3D('',#772,#632,#633);
#526=AXIS2_PLACEMENT_3D('',#777,#637,#638);
#527=AXIS2_PLACEMENT_3D('',#778,#639,#640);
#528=AXIS2_PLACEMENT_3D('',#784,#644,#645);
#529=AXIS2_PLACEMENT_3D('',#786,#647,#648);
#530=AXIS2_PLACEMENT_3D('',#788,#649,#650);
#531=AXIS2_PLACEMENT_3D('',#791,#652,#653);
#532=AXIS2_PLACEMENT_3D('',#792,#654,#655);
#533=AXIS2_PLACEMENT_3D('',#793,#656,#657);
#534=AXIS2_PLACEMENT_3D('',#795,#659,#660);
#535=DIRECTION('axis',(0.,0.,1.));
#536=DIRECTION('refdir',(1.,0.,0.));
#537=DIRECTION('center_axis',(-1.,0.,0.));
#538=DIRECTION('ref_axis',(0.,1.,0.));
#539=DIRECTION('center_axis',(-1.,-1.07156594925393E-17,-3.47534902460735E-17));
#540=DIRECTION('ref_axis',(0.,1.,0.));
#541=DIRECTION('',(-1.,0.,0.));
#542=DIRECTION('center_axis',(1.,4.5930758140298E-17,3.56810462286779E-16));
#543=DIRECTION('ref_axis',(0.,1.,0.));
#544=DIRECTION('center_axis',(-1.,0.,0.));
#545=DIRECTION('ref_axis',(0.,1.,0.));
#546=DIRECTION('center_axis',(-1.,-1.07156594925393E-17,-3.47534902460735E-17));
#547=DIRECTION('ref_axis',(0.,1.,0.));
#548=DIRECTION('',(-1.,0.,0.));
#549=DIRECTION('center_axis',(1.,4.5930758140298E-17,3.56810462286779E-16));
#550=DIRECTION('ref_axis',(0.,1.,0.));
#551=DIRECTION('center_axis',(2.10687961797281E-15,3.12918129602977E-16,
1.));
#552=DIRECTION('ref_axis',(1.,0.,-2.10687961797281E-15));
#553=DIRECTION('',(-4.59307581402979E-17,1.,-3.12918129602977E-16));
#554=DIRECTION('center_axis',(2.10687961797281E-15,3.12918129602977E-16,
1.));
#555=DIRECTION('ref_axis',(6.12323399573677E-17,1.,-3.12918129602977E-16));
#556=DIRECTION('center_axis',(3.39171523336259E-17,2.6368519905086E-16,
1.));
#557=DIRECTION('ref_axis',(6.12323399573677E-17,1.,-3.12918129602977E-16));
#558=DIRECTION('',(-3.39171523336259E-17,-2.6368519905086E-16,-1.));
#559=DIRECTION('center_axis',(-1.05080984246508E-17,2.22129950090706E-16,
1.));
#560=DIRECTION('ref_axis',(6.12323399573677E-17,1.,-3.12918129602977E-16));
#561=DIRECTION('',(3.39171523336259E-17,2.6368519905086E-16,1.));
#562=DIRECTION('center_axis',(-4.65017786476438E-16,-2.83508885564056E-16,
-1.));
#563=DIRECTION('ref_axis',(6.12323399573677E-17,1.,-3.12918129602977E-16));
#564=DIRECTION('center_axis',(-1.05080984246508E-17,2.22129950090706E-16,
1.));
#565=DIRECTION('ref_axis',(6.12323399573677E-17,1.,-3.12918129602977E-16));
#566=DIRECTION('',(3.39171523336259E-17,2.6368519905086E-16,1.));
#567=DIRECTION('center_axis',(-1.,-4.5930758140298E-17,-3.56810462286779E-16));
#568=DIRECTION('ref_axis',(-3.5681046228678E-16,0.,1.));
#569=DIRECTION('',(-4.59307581402979E-17,1.,-2.22129950090706E-16));
#570=DIRECTION('',(-3.5681046228678E-16,2.22044604925031E-16,1.));
#571=DIRECTION('',(-4.59307581402979E-17,1.,-2.22129950090706E-16));
#572=DIRECTION('',(3.5681046228678E-16,-2.22044604925031E-16,-1.));
#573=DIRECTION('',(-4.59307581402979E-17,1.,-2.22129950090706E-16));
#574=DIRECTION('center_axis',(1.05080984246508E-17,-2.22129950090706E-16,
-1.));
#575=DIRECTION('ref_axis',(-1.,0.,-1.05080984246508E-17));
#576=DIRECTION('',(1.,3.49899085470672E-16,1.05080984246508E-17));
#577=DIRECTION('',(1.07156594925393E-17,-1.,2.22129950090706E-16));
#578=DIRECTION('',(1.,5.5665763597607E-17,1.05080984246508E-17));
#579=DIRECTION('',(6.73555739531044E-17,-1.,2.22129950090706E-16));
#580=DIRECTION('',(-1.,-5.5665763597607E-17,-1.05080984246508E-17));
#581=DIRECTION('',(1.07156594925393E-17,-1.,2.22129950090706E-16));
#582=DIRECTION('',(-1.,-3.49899085470672E-16,-1.05080984246508E-17));
#583=DIRECTION('center_axis',(-1.05080984246508E-17,2.22129950090706E-16,
1.));
#584=DIRECTION('ref_axis',(1.,0.,1.05080984246508E-17));
#585=DIRECTION('',(1.,3.49899085470672E-16,1.05080984246508E-17));
#586=DIRECTION('',(-1.07156594925393E-17,1.,-2.22129950090706E-16));
#587=DIRECTION('',(-1.,-3.49899085470672E-16,-1.05080984246508E-17));
#588=DIRECTION('center_axis',(1.,6.73555739531044E-17,2.62114851468449E-17));
#589=DIRECTION('ref_axis',(2.62114851468449E-17,0.,-1.));
#590=DIRECTION('',(2.62114851468449E-17,-2.22044604925031E-16,-1.));
#591=DIRECTION('',(-6.73555739531044E-17,1.,-2.22044604925031E-16));
#592=DIRECTION('',(-2.62114851468449E-17,2.22044604925031E-16,1.));
#593=DIRECTION('center_axis',(5.5665763597607E-17,-1.,2.22044604925031E-16));
#594=DIRECTION('ref_axis',(0.,-2.22044604925031E-16,-1.));
#595=DIRECTION('',(-3.47534902460735E-17,2.22044604925031E-16,1.));
#596=DIRECTION('',(1.,5.5665763597607E-17,1.07885551353457E-16));
#597=DIRECTION('',(3.47534902460735E-17,-2.22044604925031E-16,-1.));
#598=DIRECTION('',(1.,5.5665763597607E-17,1.43044144032639E-16));
#599=DIRECTION('',(-2.62114851468449E-17,2.22044604925031E-16,1.));
#600=DIRECTION('',(-1.,-5.5665763597607E-17,-1.43044144032639E-16));
#601=DIRECTION('center_axis',(3.49899085470672E-16,-1.,2.22044604925031E-16));
#602=DIRECTION('ref_axis',(0.,-2.22044604925031E-16,-1.));
#603=DIRECTION('',(3.47534902460735E-17,-2.22044604925031E-16,-1.));
#604=DIRECTION('',(1.,3.49899085470672E-16,1.07885551353457E-16));
#605=DIRECTION('',(-3.47534902460735E-17,2.22044604925031E-16,1.));
#606=DIRECTION('',(-1.,-3.49899085470672E-16,-1.07885551353457E-16));
#607=DIRECTION('',(3.47534902460735E-17,-2.22044604925031E-16,-1.));
#608=DIRECTION('center_axis',(1.,1.07156594925393E-17,3.47534902460735E-17));
#609=DIRECTION('ref_axis',(3.47534902460735E-17,0.,-1.));
#610=DIRECTION('',(-1.07156594925393E-17,1.,-2.22044604925031E-16));
#611=DIRECTION('center_axis',(1.,1.07156594925393E-17,3.47534902460735E-17));
#612=DIRECTION('ref_axis',(3.47534902460735E-17,0.,-1.));
#613=DIRECTION('',(-3.47534902460735E-17,2.22044604925031E-16,1.));
#614=DIRECTION('',(-1.07156594925393E-17,1.,-2.22044604925031E-16));
#615=DIRECTION('center_axis',(1.,1.07156594925393E-17,3.47534902460735E-17));
#616=DIRECTION('ref_axis',(3.47534902460735E-17,0.,-1.));
#617=DIRECTION('',(3.47534902460735E-17,-2.22044604925031E-16,-1.));
#618=DIRECTION('',(-1.07156594925393E-17,1.,-2.22044604925031E-16));
#619=DIRECTION('',(-3.47534902460735E-17,2.22044604925031E-16,1.));
#620=DIRECTION('center_axis',(1.07885551353457E-16,-2.22044604925031E-16,
-1.));
#621=DIRECTION('ref_axis',(-1.,0.,-1.07885551353457E-16));
#622=DIRECTION('',(-1.,-5.5665763597607E-17,-1.07885551353457E-16));
#623=DIRECTION('',(-1.07156594925393E-17,1.,-2.22044604925031E-16));
#624=DIRECTION('',(1.,3.49899085470672E-16,1.07885551353457E-16));
#625=DIRECTION('center_axis',(1.07885551353457E-16,-2.22044604925031E-16,
-1.));
#626=DIRECTION('ref_axis',(-1.,0.,-1.07885551353457E-16));
#627=DIRECTION('',(-1.07156594925393E-17,1.,-2.22044604925031E-16));
#628=DIRECTION('center_axis',(3.49899085470672E-16,-1.,2.22044604925031E-16));
#629=DIRECTION('ref_axis',(0.,-2.22044604925031E-16,-1.));
#630=DIRECTION('',(3.47534902460735E-17,-2.22044604925031E-16,-1.));
#631=DIRECTION('',(-1.,-3.49899085470672E-16,-1.07885551353457E-16));
#632=DIRECTION('center_axis',(-1.,-1.07156594925393E-17,-3.47534902460735E-17));
#633=DIRECTION('ref_axis',(-3.47534902460735E-17,0.,1.));
#634=DIRECTION('',(-1.07156594925393E-17,1.,-2.22044604925031E-16));
#635=DIRECTION('',(-3.47534902460735E-17,2.22044604925031E-16,1.));
#636=DIRECTION('',(-1.07156594925393E-17,1.,-2.22044604925031E-16));
#637=DIRECTION('center_axis',(-1.07885551353457E-16,2.22044604925031E-16,
1.));
#638=DIRECTION('ref_axis',(1.,0.,1.07885551353457E-16));
#639=DIRECTION('center_axis',(5.5665763597607E-17,-1.,2.22044604925031E-16));
#640=DIRECTION('ref_axis',(0.,-2.22044604925031E-16,-1.));
#641=DIRECTION('',(1.,5.5665763597607E-17,1.43044144032639E-16));
#642=DIRECTION('',(2.62114851468449E-17,-2.22044604925031E-16,-1.));
#643=DIRECTION('',(-1.,-5.5665763597607E-17,-1.43044144032639E-16));
#644=DIRECTION('center_axis',(-1.43044144032638E-16,2.22044604925031E-16,
1.));
#645=DIRECTION('ref_axis',(1.,0.,1.43044144032638E-16));
#646=DIRECTION('',(-6.73555739531044E-17,1.,-2.22044604925031E-16));
#647=DIRECTION('center_axis',(1.25083445016341E-16,2.83045879448598E-16,
1.));
#648=DIRECTION('ref_axis',(6.12323399573677E-17,1.,-2.83508885564056E-16));
#649=DIRECTION('center_axis',(4.65017786476438E-16,2.83508885564056E-16,
1.));
#650=DIRECTION('ref_axis',(6.12323399573677E-17,1.,-2.83508885564056E-16));
#651=DIRECTION('',(-1.25083445016341E-16,-2.83045879448598E-16,-1.));
#652=DIRECTION('center_axis',(1.43044144032638E-16,-2.22044604925031E-16,
-1.));
#653=DIRECTION('ref_axis',(6.12323399573677E-17,1.,-2.83508885564056E-16));
#654=DIRECTION('center_axis',(4.65017786476438E-16,2.83508885564056E-16,
1.));
#655=DIRECTION('ref_axis',(1.,0.,-4.65017786476438E-16));
#656=DIRECTION('center_axis',(1.43044144032638E-16,-2.22044604925031E-16,
-1.));
#657=DIRECTION('ref_axis',(-1.,0.,-1.43044144032638E-16));
#658=DIRECTION('',(-6.73555739531044E-17,1.,-2.22044604925031E-16));
#659=DIRECTION('center_axis',(-1.,-6.73555739531044E-17,-2.62114851468449E-17));
#660=DIRECTION('ref_axis',(-2.62114851468449E-17,0.,1.));
#661=CARTESIAN_POINT('',(0.,0.,0.));
#662=CARTESIAN_POINT('Origin',(-116.000003051758,268.999996948242,14.9999999999999));
#663=CARTESIAN_POINT('',(-116.000003051758,266.749996948242,14.9999999999999));
#664=CARTESIAN_POINT('Origin',(-116.000003051758,268.999996948242,14.9999999999999));
#665=CARTESIAN_POINT('',(-120.991503051758,266.749996948242,14.9999999999999));
#666=CARTESIAN_POINT('',(-116.000003051758,266.749996948242,14.9999999999999));
#667=CARTESIAN_POINT('Origin',(-120.991503051758,268.999996948242,14.9999999999999));
#668=CARTESIAN_POINT('Origin',(-116.000003051758,298.999996948242,14.9999999999999));
#669=CARTESIAN_POINT('',(-116.000003051758,296.749996948242,14.9999999999999));
#670=CARTESIAN_POINT('Origin',(-116.000003051758,298.999996948242,14.9999999999999));
#671=CARTESIAN_POINT('',(-120.991503051758,296.749996948242,14.9999999999999));
#672=CARTESIAN_POINT('',(-116.000003051758,296.749996948242,14.9999999999999));
#673=CARTESIAN_POINT('Origin',(-120.991503051758,298.999996948242,14.9999999999999));
#674=CARTESIAN_POINT('Origin',(-123.,284.,19.9914999999999));
#675=CARTESIAN_POINT('',(-120.991503051758,282.497165258952,19.9914999999999));
#676=CARTESIAN_POINT('',(-120.991503051758,285.502834741048,19.9914999999999));
#677=CARTESIAN_POINT('',(-120.991503051758,283.999998474121,19.9914999999999));
#678=CARTESIAN_POINT('Origin',(-123.,284.,19.9914999999999));
#679=CARTESIAN_POINT('Origin',(-123.,284.,19.9914999999999));
#680=CARTESIAN_POINT('',(-120.991503051758,282.497165258952,25.8084999999999));
#681=CARTESIAN_POINT('',(-120.991503051758,282.497165258952,19.9914999999999));
#682=CARTESIAN_POINT('',(-123.,281.4915,25.8084999999999));
#683=CARTESIAN_POINT('Origin',(-123.,284.,25.8084999999999));
#684=CARTESIAN_POINT('',(-123.,281.4915,47.4999999999999));
#685=CARTESIAN_POINT('',(-123.,281.4915,19.9914999999999));
#686=CARTESIAN_POINT('Origin',(-123.,284.,47.4999999999999));
#687=CARTESIAN_POINT('',(-120.991503051758,285.502834741048,25.8084999999999));
#688=CARTESIAN_POINT('Origin',(-123.,284.,25.8084999999999));
#689=CARTESIAN_POINT('',(-120.991503051758,285.502834741048,19.9914999999999));
#690=CARTESIAN_POINT('Origin',(-120.991503051758,283.999996948242,15.2999999999999));
#691=CARTESIAN_POINT('',(-120.991503051758,303.999996948242,25.8084999999999));
#692=CARTESIAN_POINT('',(-120.991503051758,283.999996948242,25.8084999999999));
#693=CARTESIAN_POINT('',(-120.991503051758,303.999996948242,4.79149999999994));
#694=CARTESIAN_POINT('',(-120.991503051758,303.999996948242,16.8999999999999));
#695=CARTESIAN_POINT('',(-120.991503051758,263.999996948242,4.79149999999995));
#696=CARTESIAN_POINT('',(-120.991503051758,283.999996948242,4.79149999999994));
#697=CARTESIAN_POINT('',(-120.991503051758,263.999996948242,25.8084999999999));
#698=CARTESIAN_POINT('',(-120.991503051758,263.999996948242,16.8999999999999));
#699=CARTESIAN_POINT('',(-120.991503051758,283.999996948242,25.8084999999999));
#700=CARTESIAN_POINT('Origin',(-136.000003051758,283.999996948242,25.8084999999999));
#701=CARTESIAN_POINT('',(-123.000003051758,263.999996948242,25.8084999999999));
#702=CARTESIAN_POINT('',(-127.750003051758,263.999996948242,25.8085));
#703=CARTESIAN_POINT('',(-123.000003051758,273.999996948242,25.8084999999999));
#704=CARTESIAN_POINT('',(-123.000003051758,283.999996948242,25.8084999999999));
#705=CARTESIAN_POINT('',(-138.,273.999996948242,25.8084999999999));
#706=CARTESIAN_POINT('',(-131.500001525879,273.999996948242,25.8084999999999));
#707=CARTESIAN_POINT('',(-138.,293.999996948242,25.8084999999999));
#708=CARTESIAN_POINT('',(-138.,283.999996948242,25.8084999999999));
#709=CARTESIAN_POINT('',(-123.000003051758,293.999996948242,25.8084999999999));
#710=CARTESIAN_POINT('',(-131.500001525879,293.999996948242,25.8084999999999));
#711=CARTESIAN_POINT('',(-123.000003051758,303.999996948242,25.8084999999999));
#712=CARTESIAN_POINT('',(-123.000003051758,283.999996948242,25.8084999999999));
#713=CARTESIAN_POINT('',(-127.750003051758,303.999996948242,25.8084999999999));
#714=CARTESIAN_POINT('Origin',(-136.000003051758,283.999996948242,4.79149999999994));
#715=CARTESIAN_POINT('',(-123.000003051758,303.999996948242,4.79149999999994));
#716=CARTESIAN_POINT('',(-127.750003051758,303.999996948242,4.79149999999994));
#717=CARTESIAN_POINT('',(-123.000003051758,263.999996948242,4.79149999999995));
#718=CARTESIAN_POINT('',(-123.000003051758,283.999996948242,4.79149999999994));
#719=CARTESIAN_POINT('',(-127.750003051758,263.999996948242,4.79149999999995));
#720=CARTESIAN_POINT('Origin',(-138.,283.999996948242,33.8484848484847));
#721=CARTESIAN_POINT('',(-138.,273.999996948242,46.6969696969696));
#722=CARTESIAN_POINT('',(-138.,273.999996948242,33.8484848484847));
#723=CARTESIAN_POINT('',(-138.,293.999996948242,46.6969696969696));
#724=CARTESIAN_POINT('',(-138.,283.999996948242,46.6969696969696));
#725=CARTESIAN_POINT('',(-138.,293.999996948242,33.8484848484847));
#726=CARTESIAN_POINT('Origin',(-127.,273.999996948242,33.8484848484848));
#727=CARTESIAN_POINT('',(-123.000003051758,273.999996948242,36.9999999999999));
#728=CARTESIAN_POINT('',(-123.000003051758,273.999996948242,26.1742424242424));
#729=CARTESIAN_POINT('',(-116.000003051758,273.999996948242,36.9999999999999));
#730=CARTESIAN_POINT('',(-123.250001525879,273.999996948242,37.));
#731=CARTESIAN_POINT('',(-116.000003051758,273.999996948242,20.9999999999999));
#732=CARTESIAN_POINT('',(-116.000003051758,273.999996948242,26.1742424242424));
#733=CARTESIAN_POINT('',(-116.,273.999996948242,20.9999999999999));
#734=CARTESIAN_POINT('',(-127.,273.999996948242,20.9999999999999));
#735=CARTESIAN_POINT('',(-116.,273.999996948242,46.6969696969696));
#736=CARTESIAN_POINT('',(-116.,273.999996948242,33.8484848484848));
#737=CARTESIAN_POINT('',(-127.,273.999996948242,46.6969696969696));
#738=CARTESIAN_POINT('Origin',(-119.500003051758,263.999996948242,18.4999999999999));
#739=CARTESIAN_POINT('',(-123.000003051758,263.999996948242,-5.6843418860808E-14));
#740=CARTESIAN_POINT('',(-123.000003051758,263.999996948242,18.4999999999999));
#741=CARTESIAN_POINT('',(-116.000003051758,263.999996948242,-5.6843418860808E-14));
#742=CARTESIAN_POINT('',(-119.500003051758,263.999996948242,-5.6843418860808E-14));
#743=CARTESIAN_POINT('',(-116.000003051758,263.999996948242,37.));
#744=CARTESIAN_POINT('',(-116.000003051758,263.999996948242,18.4999999999999));
#745=CARTESIAN_POINT('',(-123.000003051758,263.999996948242,37.));
#746=CARTESIAN_POINT('',(-119.500003051758,263.999996948242,37.));
#747=CARTESIAN_POINT('',(-123.000003051758,263.999996948242,18.4999999999999));
#748=CARTESIAN_POINT('Origin',(-123.000003051758,283.999996948242,18.4999999999999));
#749=CARTESIAN_POINT('',(-123.000003051758,283.999996948242,36.9999999999999));
#750=CARTESIAN_POINT('Origin',(-123.000003051758,283.999996948242,18.4999999999999));
#751=CARTESIAN_POINT('',(-123.000003051758,303.999996948242,-6.3948846218409E-14));
#752=CARTESIAN_POINT('',(-123.000003051758,303.999996948242,18.4999999999999));
#753=CARTESIAN_POINT('',(-123.000003051758,283.999996948242,-6.03961325396085E-14));
#754=CARTESIAN_POINT('Origin',(-123.000003051758,283.999996948242,18.4999999999999));
#755=CARTESIAN_POINT('',(-123.000003051758,293.999996948242,36.9999999999999));
#756=CARTESIAN_POINT('',(-123.000003051758,293.999996948242,26.1742424242423));
#757=CARTESIAN_POINT('',(-123.000003051758,303.999996948242,36.9999999999999));
#758=CARTESIAN_POINT('',(-123.000003051758,283.999996948242,36.9999999999999));
#759=CARTESIAN_POINT('',(-123.000003051758,303.999996948242,18.4999999999999));
#760=CARTESIAN_POINT('Origin',(-119.500003051758,283.999996948242,36.9999999999999));
#761=CARTESIAN_POINT('',(-116.000003051758,293.999996948242,36.9999999999999));
#762=CARTESIAN_POINT('',(-123.250001525879,293.999996948242,36.9999999999999));
#763=CARTESIAN_POINT('',(-116.000003051758,303.999996948242,36.9999999999999));
#764=CARTESIAN_POINT('',(-116.000003051758,283.999996948242,36.9999999999999));
#765=CARTESIAN_POINT('',(-119.500003051758,303.999996948242,36.9999999999999));
#766=CARTESIAN_POINT('Origin',(-119.500003051758,283.999996948242,36.9999999999999));
#767=CARTESIAN_POINT('',(-116.000003051758,283.999996948242,36.9999999999999));
#768=CARTESIAN_POINT('Origin',(-119.500003051758,303.999996948242,18.4999999999999));
#769=CARTESIAN_POINT('',(-116.000003051758,303.999996948242,-6.3948846218409E-14));
#770=CARTESIAN_POINT('',(-116.000003051758,303.999996948242,18.4999999999999));
#771=CARTESIAN_POINT('',(-119.500003051758,303.999996948242,-6.3948846218409E-14));
#772=CARTESIAN_POINT('Origin',(-116.000003051758,283.999996948242,18.4999999999999));
#773=CARTESIAN_POINT('',(-116.000003051758,283.999996948242,-6.03961325396085E-14));
#774=CARTESIAN_POINT('',(-116.000003051758,293.999996948242,20.9999999999999));
#775=CARTESIAN_POINT('',(-116.000003051758,293.999996948242,26.1742424242423));
#776=CARTESIAN_POINT('',(-116.000003051758,283.999996948242,20.9999999999999));
#777=CARTESIAN_POINT('Origin',(-119.500003051758,283.999996948242,-6.03961325396085E-14));
#778=CARTESIAN_POINT('Origin',(-127.,293.999996948242,33.8484848484847));
#779=CARTESIAN_POINT('',(-116.,293.999996948242,46.6969696969696));
#780=CARTESIAN_POINT('',(-127.,293.999996948242,46.6969696969696));
#781=CARTESIAN_POINT('',(-116.,293.999996948242,20.9999999999999));
#782=CARTESIAN_POINT('',(-116.,293.999996948242,33.8484848484847));
#783=CARTESIAN_POINT('',(-127.,293.999996948242,20.9999999999999));
#784=CARTESIAN_POINT('Origin',(-127.,283.999996948242,20.9999999999999));
#785=CARTESIAN_POINT('',(-116.,283.999996948242,20.9999999999999));
#786=CARTESIAN_POINT('Origin',(-123.,284.,27.4242424242423));
#787=CARTESIAN_POINT('',(-123.,280.,47.4999999999999));
#788=CARTESIAN_POINT('Origin',(-123.,284.,47.4999999999999));
#789=CARTESIAN_POINT('',(-123.,280.,46.6969696969696));
#790=CARTESIAN_POINT('',(-123.,280.,27.4242424242423));
#791=CARTESIAN_POINT('Origin',(-123.,284.,46.6969696969696));
#792=CARTESIAN_POINT('Origin',(-123.,284.,47.4999999999999));
#793=CARTESIAN_POINT('Origin',(-127.,283.999996948242,46.6969696969696));
#794=CARTESIAN_POINT('',(-116.,283.999996948242,46.6969696969696));
#795=CARTESIAN_POINT('Origin',(-116.,283.999996948242,33.8484848484847));
#796=UNCERTAINTY_MEASURE_WITH_UNIT(LENGTH_MEASURE(0.01),#800,
'DISTANCE_ACCURACY_VALUE',
'Maximum model space distance between geometric entities at asserted c
onnectivities');
#797=UNCERTAINTY_MEASURE_WITH_UNIT(LENGTH_MEASURE(0.01),#800,
'DISTANCE_ACCURACY_VALUE',
'Maximum model space distance between geometric entities at asserted c
onnectivities');
#798=(
GEOMETRIC_REPRESENTATION_CONTEXT(3)
GLOBAL_UNCERTAINTY_ASSIGNED_CONTEXT((#796))
GLOBAL_UNIT_ASSIGNED_CONTEXT((#800,#802,#803))
REPRESENTATION_CONTEXT('','3D')
);
#799=(
GEOMETRIC_REPRESENTATION_CONTEXT(3)
GLOBAL_UNCERTAINTY_ASSIGNED_CONTEXT((#797))
GLOBAL_UNIT_ASSIGNED_CONTEXT((#800,#802,#803))
REPRESENTATION_CONTEXT('','3D')
);
#800=(
LENGTH_UNIT()
NAMED_UNIT(*)
SI_UNIT(.MILLI.,.METRE.)
);
#801=(
LENGTH_UNIT()
NAMED_UNIT(*)
SI_UNIT($,.METRE.)
);
#802=(
NAMED_UNIT(*)
PLANE_ANGLE_UNIT()
SI_UNIT($,.RADIAN.)
);
#803=(
NAMED_UNIT(*)
SI_UNIT($,.STERADIAN.)
SOLID_ANGLE_UNIT()
);
#804=SHAPE_DEFINITION_REPRESENTATION(#805,#806);
#805=PRODUCT_DEFINITION_SHAPE('',$,#808);
#806=SHAPE_REPRESENTATION('',(#500),#798);
#807=PRODUCT_DEFINITION_CONTEXT('part definition',#812,'design');
#808=PRODUCT_DEFINITION('Suporte_poliaGT2_x.f3d',
'Suporte_poliaGT2_x.f3d v6',#809,#807);
#809=PRODUCT_DEFINITION_FORMATION('',$,#814);
#810=PRODUCT_RELATED_PRODUCT_CATEGORY('Suporte_poliaGT2_x.f3d v6',
'Suporte_poliaGT2_x.f3d v6',(#814));
#811=APPLICATION_PROTOCOL_DEFINITION('international standard',
'automotive_design',2009,#812);
#812=APPLICATION_CONTEXT(
'Core Data for Automotive Mechanical Design Process');
#813=PRODUCT_CONTEXT('part definition',#812,'mechanical');
#814=PRODUCT('Suporte_poliaGT2_x.f3d','Suporte_poliaGT2_x.f3d v6',$,(#813));
#815=PRESENTATION_STYLE_ASSIGNMENT((#816));
#816=SURFACE_STYLE_USAGE(.BOTH.,#817);
#817=SURFACE_SIDE_STYLE('',(#818));
#818=SURFACE_STYLE_FILL_AREA(#819);
#819=FILL_AREA_STYLE('Pintura - Esmalte com brilho (Amarelo)',(#820));
#820=FILL_AREA_STYLE_COLOUR('Pintura - Esmalte com brilho (Amarelo)',#821);
#821=COLOUR_RGB('Pintura - Esmalte com brilho (Amarelo)',0.909803921568627,
0.67843137254902,0.137254901960784);
ENDSEC;
END-ISO-10303-21;
