ISO-10303-21;
HEADER;
/* Generated by software containing ST-Developer
 * from STEP Tools, Inc. (www.steptools.com) 
 */

FILE_DESCRIPTION(
/* description */ (''),
/* implementation_level */ '2;1');

FILE_NAME(
/* name */ 'SuporteNema17Y.step',
/* time_stamp */ '2026-04-01T20:42:51-03:00',
/* author */ (''),
/* organization */ (''),
/* preprocessor_version */ 'ST-DEVELOPER v20.1',
/* originating_system */ 'Autodesk Translation Framework v14.24.0.0',
/* authorisation */ '');

FILE_SCHEMA (('AUTOMOTIVE_DESIGN { 1 0 10303 214 3 1 1 }'));
ENDSEC;

DATA;
#10=MECHANICAL_DESIGN_GEOMETRIC_PRESENTATION_REPRESENTATION('',(#13),#1463);
#11=SHAPE_REPRESENTATION_RELATIONSHIP('SRR','None',#1470,#12);
#12=ADVANCED_BREP_SHAPE_REPRESENTATION('',(#14),#1462);
#13=STYLED_ITEM('',(#1479),#14);
#14=MANIFOLD_SOLID_BREP('Corpo1',#753);
#15=FACE_BOUND('',#133,.T.);
#16=FACE_BOUND('',#134,.T.);
#17=FACE_BOUND('',#135,.T.);
#18=FACE_BOUND('',#136,.T.);
#19=FACE_BOUND('',#137,.T.);
#20=FACE_BOUND('',#140,.T.);
#21=FACE_BOUND('',#141,.T.);
#22=FACE_BOUND('',#150,.T.);
#23=FACE_BOUND('',#151,.T.);
#24=FACE_BOUND('',#152,.T.);
#25=FACE_BOUND('',#153,.T.);
#26=FACE_BOUND('',#157,.T.);
#27=FACE_BOUND('',#158,.T.);
#28=FACE_BOUND('',#159,.T.);
#29=FACE_BOUND('',#160,.T.);
#30=FACE_BOUND('',#161,.T.);
#31=B_SPLINE_CURVE_WITH_KNOTS('',3,(#1210,#1211,#1212,#1213,#1214,#1215,
#1216,#1217,#1218,#1219,#1220,#1221,#1222),.UNSPECIFIED.,.F.,.F.,(4,1,1,
1,1,1,1,1,1,1,4),(-0.756396154431959,-0.729382006059389,-0.702367857686819,
-0.648339560941679,-0.540282967451399,-0.324169780470839,-0.21611318698056,
-0.10805659349028,-0.0540282967451399,-0.02701414837257,0.),
 .UNSPECIFIED.);
#32=B_SPLINE_CURVE_WITH_KNOTS('',3,(#1223,#1224,#1225,#1226,#1227,#1228,
#1229,#1230,#1231,#1232,#1233,#1234,#1235),.UNSPECIFIED.,.F.,.F.,(4,1,1,
1,1,1,1,1,1,1,4),(0.,0.02701414837257,0.0540282967451399,0.10805659349028,
0.21611318698056,0.324169780470839,0.540282967451399,0.648339560941679,
0.702367857686819,0.729382006059389,0.756396154431959),.UNSPECIFIED.);
#33=B_SPLINE_CURVE_WITH_KNOTS('',3,(#1321,#1322,#1323,#1324,#1325,#1326,
#1327,#1328,#1329,#1330,#1331,#1332,#1333),.UNSPECIFIED.,.F.,.F.,(4,1,1,
1,1,1,1,1,1,1,4),(-0.756396154431959,-0.729382006059389,-0.702367857686819,
-0.648339560941679,-0.540282967451399,-0.32416978047084,-0.21611318698056,
-0.10805659349028,-0.0540282967451399,-0.02701414837257,0.),
 .UNSPECIFIED.);
#34=B_SPLINE_CURVE_WITH_KNOTS('',3,(#1334,#1335,#1336,#1337,#1338,#1339,
#1340,#1341,#1342,#1343,#1344,#1345,#1346),.UNSPECIFIED.,.F.,.F.,(4,1,1,
1,1,1,1,1,1,1,4),(0.,0.02701414837257,0.0540282967451399,0.10805659349028,
0.21611318698056,0.32416978047084,0.540282967451399,0.648339560941679,0.702367857686819,
0.729382006059389,0.756396154431959),.UNSPECIFIED.);
#35=B_SPLINE_CURVE_WITH_KNOTS('',3,(#1370,#1371,#1372,#1373),
 .UNSPECIFIED.,.F.,.F.,(4,4),(-0.65,3.15),.UNSPECIFIED.);
#36=B_SPLINE_CURVE_WITH_KNOTS('',3,(#1393,#1394,#1395,#1396),
 .UNSPECIFIED.,.F.,.F.,(4,4),(-3.15,0.65),.UNSPECIFIED.);
#37=B_SPLINE_SURFACE_WITH_KNOTS('',3,3,((#1142,#1143,#1144,#1145,#1146,
#1147,#1148,#1149,#1150,#1151,#1152,#1153,#1154),(#1155,#1156,#1157,#1158,
#1159,#1160,#1161,#1162,#1163,#1164,#1165,#1166,#1167),(#1168,#1169,#1170,
#1171,#1172,#1173,#1174,#1175,#1176,#1177,#1178,#1179,#1180),(#1181,#1182,
#1183,#1184,#1185,#1186,#1187,#1188,#1189,#1190,#1191,#1192,#1193),(#1194,
#1195,#1196,#1197,#1198,#1199,#1200,#1201,#1202,#1203,#1204,#1205,#1206)),
 .UNSPECIFIED.,.F.,.F.,.F.,(4,1,4),(4,1,1,1,1,1,1,1,1,1,4),(0.,0.571428571428571,
1.),(0.,0.02701414837257,0.0540282967451399,0.10805659349028,0.21611318698056,
0.324169780470839,0.540282967451399,0.648339560941679,0.702367857686819,
0.729382006059389,0.756396154431959),.UNSPECIFIED.);
#38=B_SPLINE_SURFACE_WITH_KNOTS('',3,3,((#1253,#1254,#1255,#1256,#1257,
#1258,#1259,#1260,#1261,#1262,#1263,#1264,#1265),(#1266,#1267,#1268,#1269,
#1270,#1271,#1272,#1273,#1274,#1275,#1276,#1277,#1278),(#1279,#1280,#1281,
#1282,#1283,#1284,#1285,#1286,#1287,#1288,#1289,#1290,#1291),(#1292,#1293,
#1294,#1295,#1296,#1297,#1298,#1299,#1300,#1301,#1302,#1303,#1304),(#1305,
#1306,#1307,#1308,#1309,#1310,#1311,#1312,#1313,#1314,#1315,#1316,#1317)),
 .UNSPECIFIED.,.F.,.F.,.F.,(4,1,4),(4,1,1,1,1,1,1,1,1,1,4),(0.,0.571428571428571,
1.),(0.,0.02701414837257,0.0540282967451399,0.10805659349028,0.21611318698056,
0.32416978047084,0.540282967451399,0.648339560941679,0.702367857686819,
0.729382006059389,0.756396154431959),.UNSPECIFIED.);
#39=B_SPLINE_SURFACE_WITH_KNOTS('',3,3,((#1397,#1398,#1399,#1400),(#1401,
#1402,#1403,#1404),(#1405,#1406,#1407,#1408),(#1409,#1410,#1411,#1412),
(#1413,#1414,#1415,#1416),(#1417,#1418,#1419,#1420),(#1421,#1422,#1423,
#1424)),.UNSPECIFIED.,.F.,.F.,.F.,(4,1,1,1,4),(4,4),(0.,0.285714285714286,
0.571428571428571,0.857142857142857,1.),(-3.15,0.65),.UNSPECIFIED.);
#40=PLANE('',#770);
#41=PLANE('',#774);
#42=PLANE('',#777);
#43=PLANE('',#780);
#44=PLANE('',#783);
#45=PLANE('',#786);
#46=PLANE('',#787);
#47=PLANE('',#788);
#48=PLANE('',#789);
#49=PLANE('',#790);
#50=PLANE('',#803);
#51=PLANE('',#810);
#52=PLANE('',#811);
#53=PLANE('',#812);
#54=PLANE('',#813);
#55=PLANE('',#819);
#56=PLANE('',#820);
#57=PLANE('',#821);
#58=PLANE('',#832);
#59=PLANE('',#833);
#60=PLANE('',#834);
#61=PLANE('',#835);
#62=FACE_OUTER_BOUND('',#104,.T.);
#63=FACE_OUTER_BOUND('',#105,.T.);
#64=FACE_OUTER_BOUND('',#106,.T.);
#65=FACE_OUTER_BOUND('',#107,.T.);
#66=FACE_OUTER_BOUND('',#108,.T.);
#67=FACE_OUTER_BOUND('',#109,.T.);
#68=FACE_OUTER_BOUND('',#110,.T.);
#69=FACE_OUTER_BOUND('',#111,.T.);
#70=FACE_OUTER_BOUND('',#112,.T.);
#71=FACE_OUTER_BOUND('',#113,.T.);
#72=FACE_OUTER_BOUND('',#114,.T.);
#73=FACE_OUTER_BOUND('',#115,.T.);
#74=FACE_OUTER_BOUND('',#116,.T.);
#75=FACE_OUTER_BOUND('',#117,.T.);
#76=FACE_OUTER_BOUND('',#118,.T.);
#77=FACE_OUTER_BOUND('',#119,.T.);
#78=FACE_OUTER_BOUND('',#120,.T.);
#79=FACE_OUTER_BOUND('',#121,.T.);
#80=FACE_OUTER_BOUND('',#122,.T.);
#81=FACE_OUTER_BOUND('',#123,.T.);
#82=FACE_OUTER_BOUND('',#124,.T.);
#83=FACE_OUTER_BOUND('',#125,.T.);
#84=FACE_OUTER_BOUND('',#126,.T.);
#85=FACE_OUTER_BOUND('',#127,.T.);
#86=FACE_OUTER_BOUND('',#128,.T.);
#87=FACE_OUTER_BOUND('',#129,.T.);
#88=FACE_OUTER_BOUND('',#130,.T.);
#89=FACE_OUTER_BOUND('',#131,.T.);
#90=FACE_OUTER_BOUND('',#132,.T.);
#91=FACE_OUTER_BOUND('',#138,.T.);
#92=FACE_OUTER_BOUND('',#139,.T.);
#93=FACE_OUTER_BOUND('',#142,.T.);
#94=FACE_OUTER_BOUND('',#143,.T.);
#95=FACE_OUTER_BOUND('',#144,.T.);
#96=FACE_OUTER_BOUND('',#145,.T.);
#97=FACE_OUTER_BOUND('',#146,.T.);
#98=FACE_OUTER_BOUND('',#147,.T.);
#99=FACE_OUTER_BOUND('',#148,.T.);
#100=FACE_OUTER_BOUND('',#149,.T.);
#101=FACE_OUTER_BOUND('',#154,.T.);
#102=FACE_OUTER_BOUND('',#155,.T.);
#103=FACE_OUTER_BOUND('',#156,.T.);
#104=EDGE_LOOP('',(#490,#491,#492,#493));
#105=EDGE_LOOP('',(#494,#495,#496,#497));
#106=EDGE_LOOP('',(#498,#499,#500,#501));
#107=EDGE_LOOP('',(#502,#503,#504,#505));
#108=EDGE_LOOP('',(#506,#507,#508,#509));
#109=EDGE_LOOP('',(#510,#511,#512,#513));
#110=EDGE_LOOP('',(#514,#515,#516,#517));
#111=EDGE_LOOP('',(#518,#519,#520,#521));
#112=EDGE_LOOP('',(#522,#523,#524,#525));
#113=EDGE_LOOP('',(#526,#527,#528,#529));
#114=EDGE_LOOP('',(#530,#531,#532,#533));
#115=EDGE_LOOP('',(#534,#535,#536,#537));
#116=EDGE_LOOP('',(#538,#539,#540,#541,#542,#543));
#117=EDGE_LOOP('',(#544,#545,#546,#547));
#118=EDGE_LOOP('',(#548,#549,#550,#551,#552,#553));
#119=EDGE_LOOP('',(#554,#555,#556,#557));
#120=EDGE_LOOP('',(#558,#559,#560,#561));
#121=EDGE_LOOP('',(#562,#563,#564,#565));
#122=EDGE_LOOP('',(#566,#567,#568,#569));
#123=EDGE_LOOP('',(#570,#571,#572,#573));
#124=EDGE_LOOP('',(#574,#575,#576,#577));
#125=EDGE_LOOP('',(#578,#579,#580,#581));
#126=EDGE_LOOP('',(#582,#583,#584,#585));
#127=EDGE_LOOP('',(#586,#587,#588,#589));
#128=EDGE_LOOP('',(#590,#591,#592,#593));
#129=EDGE_LOOP('',(#594,#595,#596,#597));
#130=EDGE_LOOP('',(#598,#599,#600,#601,#602,#603));
#131=EDGE_LOOP('',(#604,#605,#606,#607,#608));
#132=EDGE_LOOP('',(#609,#610,#611,#612));
#133=EDGE_LOOP('',(#613));
#134=EDGE_LOOP('',(#614));
#135=EDGE_LOOP('',(#615));
#136=EDGE_LOOP('',(#616));
#137=EDGE_LOOP('',(#617));
#138=EDGE_LOOP('',(#618,#619,#620,#621,#622,#623));
#139=EDGE_LOOP('',(#624,#625,#626,#627));
#140=EDGE_LOOP('',(#628));
#141=EDGE_LOOP('',(#629));
#142=EDGE_LOOP('',(#630,#631,#632,#633));
#143=EDGE_LOOP('',(#634,#635,#636,#637,#638,#639));
#144=EDGE_LOOP('',(#640,#641,#642,#643));
#145=EDGE_LOOP('',(#644,#645,#646,#647));
#146=EDGE_LOOP('',(#648,#649,#650,#651));
#147=EDGE_LOOP('',(#652,#653,#654,#655));
#148=EDGE_LOOP('',(#656,#657,#658,#659));
#149=EDGE_LOOP('',(#660,#661,#662,#663));
#150=EDGE_LOOP('',(#664,#665,#666,#667));
#151=EDGE_LOOP('',(#668,#669,#670,#671));
#152=EDGE_LOOP('',(#672));
#153=EDGE_LOOP('',(#673));
#154=EDGE_LOOP('',(#674,#675,#676,#677,#678));
#155=EDGE_LOOP('',(#679,#680,#681,#682,#683,#684));
#156=EDGE_LOOP('',(#685,#686,#687,#688));
#157=EDGE_LOOP('',(#689));
#158=EDGE_LOOP('',(#690));
#159=EDGE_LOOP('',(#691));
#160=EDGE_LOOP('',(#692));
#161=EDGE_LOOP('',(#693));
#162=CIRCLE('',#769,1.);
#163=CIRCLE('',#772,1.);
#164=CIRCLE('',#779,1.);
#165=CIRCLE('',#785,1.);
#166=CIRCLE('',#792,2.5);
#167=CIRCLE('',#793,2.5);
#168=CIRCLE('',#795,2.5);
#169=CIRCLE('',#796,2.5);
#170=CIRCLE('',#799,3.);
#171=CIRCLE('',#800,3.);
#172=CIRCLE('',#806,3.);
#173=CIRCLE('',#807,3.);
#174=CIRCLE('',#814,11.5);
#175=CIRCLE('',#815,1.7);
#176=CIRCLE('',#816,1.7);
#177=CIRCLE('',#817,1.7);
#178=CIRCLE('',#818,1.7);
#179=CIRCLE('',#823,1.7);
#180=CIRCLE('',#825,1.7);
#181=CIRCLE('',#827,1.7);
#182=CIRCLE('',#829,1.7);
#183=CIRCLE('',#831,11.5);
#184=LINE('',#1048,#250);
#185=LINE('',#1051,#251);
#186=LINE('',#1054,#252);
#187=LINE('',#1056,#253);
#188=LINE('',#1057,#254);
#189=LINE('',#1063,#255);
#190=LINE('',#1066,#256);
#191=LINE('',#1069,#257);
#192=LINE('',#1071,#258);
#193=LINE('',#1072,#259);
#194=LINE('',#1075,#260);
#195=LINE('',#1078,#261);
#196=LINE('',#1081,#262);
#197=LINE('',#1082,#263);
#198=LINE('',#1085,#264);
#199=LINE('',#1088,#265);
#200=LINE('',#1091,#266);
#201=LINE('',#1092,#267);
#202=LINE('',#1097,#268);
#203=LINE('',#1098,#269);
#204=LINE('',#1101,#270);
#205=LINE('',#1102,#271);
#206=LINE('',#1107,#272);
#207=LINE('',#1108,#273);
#208=LINE('',#1111,#274);
#209=LINE('',#1112,#275);
#210=LINE('',#1114,#276);
#211=LINE('',#1115,#277);
#212=LINE('',#1118,#278);
#213=LINE('',#1119,#279);
#214=LINE('',#1125,#280);
#215=LINE('',#1131,#281);
#216=LINE('',#1138,#282);
#217=LINE('',#1141,#283);
#218=LINE('',#1240,#284);
#219=LINE('',#1241,#285);
#220=LINE('',#1243,#286);
#221=LINE('',#1249,#287);
#222=LINE('',#1252,#288);
#223=LINE('',#1351,#289);
#224=LINE('',#1352,#290);
#225=LINE('',#1354,#291);
#226=LINE('',#1358,#292);
#227=LINE('',#1359,#293);
#228=LINE('',#1360,#294);
#229=LINE('',#1363,#295);
#230=LINE('',#1365,#296);
#231=LINE('',#1367,#297);
#232=LINE('',#1368,#298);
#233=LINE('',#1374,#299);
#234=LINE('',#1388,#300);
#235=LINE('',#1389,#301);
#236=LINE('',#1390,#302);
#237=LINE('',#1392,#303);
#238=LINE('',#1427,#304);
#239=LINE('',#1428,#305);
#240=LINE('',#1432,#306);
#241=LINE('',#1436,#307);
#242=LINE('',#1440,#308);
#243=LINE('',#1444,#309);
#244=LINE('',#1448,#310);
#245=LINE('',#1451,#311);
#246=LINE('',#1452,#312);
#247=LINE('',#1455,#313);
#248=LINE('',#1456,#314);
#249=LINE('',#1458,#315);
#250=VECTOR('',#842,10.);
#251=VECTOR('',#845,10.);
#252=VECTOR('',#848,10.);
#253=VECTOR('',#849,10.);
#254=VECTOR('',#850,10.);
#255=VECTOR('',#855,10.);
#256=VECTOR('',#858,10.);
#257=VECTOR('',#861,10.);
#258=VECTOR('',#862,10.);
#259=VECTOR('',#863,10.);
#260=VECTOR('',#866,10.);
#261=VECTOR('',#869,10.);
#262=VECTOR('',#872,10.);
#263=VECTOR('',#873,10.);
#264=VECTOR('',#876,10.);
#265=VECTOR('',#879,10.);
#266=VECTOR('',#882,10.);
#267=VECTOR('',#883,10.);
#268=VECTOR('',#888,10.);
#269=VECTOR('',#889,10.);
#270=VECTOR('',#892,10.);
#271=VECTOR('',#893,10.);
#272=VECTOR('',#898,10.);
#273=VECTOR('',#899,10.);
#274=VECTOR('',#902,10.);
#275=VECTOR('',#903,10.);
#276=VECTOR('',#906,10.);
#277=VECTOR('',#907,10.);
#278=VECTOR('',#912,10.);
#279=VECTOR('',#913,10.);
#280=VECTOR('',#920,2.5);
#281=VECTOR('',#927,2.5);
#282=VECTOR('',#934,10.);
#283=VECTOR('',#937,10.);
#284=VECTOR('',#944,10.);
#285=VECTOR('',#945,10.);
#286=VECTOR('',#948,10.);
#287=VECTOR('',#953,10.);
#288=VECTOR('',#956,10.);
#289=VECTOR('',#963,10.);
#290=VECTOR('',#964,10.);
#291=VECTOR('',#967,10.);
#292=VECTOR('',#970,10.);
#293=VECTOR('',#971,10.);
#294=VECTOR('',#972,10.);
#295=VECTOR('',#975,10.);
#296=VECTOR('',#976,10.);
#297=VECTOR('',#977,10.);
#298=VECTOR('',#978,10.);
#299=VECTOR('',#981,10.);
#300=VECTOR('',#994,10.);
#301=VECTOR('',#995,10.);
#302=VECTOR('',#996,10.);
#303=VECTOR('',#999,10.);
#304=VECTOR('',#1002,10.);
#305=VECTOR('',#1003,10.);
#306=VECTOR('',#1008,1.7);
#307=VECTOR('',#1013,1.7);
#308=VECTOR('',#1018,1.7);
#309=VECTOR('',#1023,1.7);
#310=VECTOR('',#1028,11.5);
#311=VECTOR('',#1031,10.);
#312=VECTOR('',#1032,10.);
#313=VECTOR('',#1035,10.);
#314=VECTOR('',#1036,10.);
#315=VECTOR('',#1039,10.);
#316=ELLIPSE('',#768,1.4142135623731,1.);
#317=ELLIPSE('',#773,1.41421356237309,1.);
#318=ELLIPSE('',#776,1.4142135623731,1.);
#319=ELLIPSE('',#782,1.4142135623731,1.);
#320=ELLIPSE('',#798,4.41215689271939,3.);
#321=ELLIPSE('',#802,4.09127267331893,3.);
#322=ELLIPSE('',#805,4.09127271111255,3.);
#323=ELLIPSE('',#809,4.41215684531745,3.);
#324=VERTEX_POINT('',#1044);
#325=VERTEX_POINT('',#1045);
#326=VERTEX_POINT('',#1047);
#327=VERTEX_POINT('',#1049);
#328=VERTEX_POINT('',#1053);
#329=VERTEX_POINT('',#1055);
#330=VERTEX_POINT('',#1059);
#331=VERTEX_POINT('',#1060);
#332=VERTEX_POINT('',#1062);
#333=VERTEX_POINT('',#1064);
#334=VERTEX_POINT('',#1068);
#335=VERTEX_POINT('',#1070);
#336=VERTEX_POINT('',#1074);
#337=VERTEX_POINT('',#1076);
#338=VERTEX_POINT('',#1080);
#339=VERTEX_POINT('',#1084);
#340=VERTEX_POINT('',#1086);
#341=VERTEX_POINT('',#1090);
#342=VERTEX_POINT('',#1094);
#343=VERTEX_POINT('',#1095);
#344=VERTEX_POINT('',#1100);
#345=VERTEX_POINT('',#1104);
#346=VERTEX_POINT('',#1105);
#347=VERTEX_POINT('',#1110);
#348=VERTEX_POINT('',#1122);
#349=VERTEX_POINT('',#1124);
#350=VERTEX_POINT('',#1128);
#351=VERTEX_POINT('',#1130);
#352=VERTEX_POINT('',#1134);
#353=VERTEX_POINT('',#1135);
#354=VERTEX_POINT('',#1137);
#355=VERTEX_POINT('',#1139);
#356=VERTEX_POINT('',#1207);
#357=VERTEX_POINT('',#1208);
#358=VERTEX_POINT('',#1237);
#359=VERTEX_POINT('',#1238);
#360=VERTEX_POINT('',#1245);
#361=VERTEX_POINT('',#1246);
#362=VERTEX_POINT('',#1248);
#363=VERTEX_POINT('',#1250);
#364=VERTEX_POINT('',#1318);
#365=VERTEX_POINT('',#1319);
#366=VERTEX_POINT('',#1348);
#367=VERTEX_POINT('',#1349);
#368=VERTEX_POINT('',#1356);
#369=VERTEX_POINT('',#1357);
#370=VERTEX_POINT('',#1362);
#371=VERTEX_POINT('',#1364);
#372=VERTEX_POINT('',#1366);
#373=VERTEX_POINT('',#1375);
#374=VERTEX_POINT('',#1377);
#375=VERTEX_POINT('',#1379);
#376=VERTEX_POINT('',#1381);
#377=VERTEX_POINT('',#1383);
#378=VERTEX_POINT('',#1386);
#379=VERTEX_POINT('',#1387);
#380=VERTEX_POINT('',#1426);
#381=VERTEX_POINT('',#1430);
#382=VERTEX_POINT('',#1434);
#383=VERTEX_POINT('',#1438);
#384=VERTEX_POINT('',#1442);
#385=VERTEX_POINT('',#1446);
#386=VERTEX_POINT('',#1450);
#387=VERTEX_POINT('',#1454);
#388=EDGE_CURVE('',#324,#325,#316,.T.);
#389=EDGE_CURVE('',#325,#326,#184,.T.);
#390=EDGE_CURVE('',#326,#327,#162,.T.);
#391=EDGE_CURVE('',#327,#324,#185,.T.);
#392=EDGE_CURVE('',#325,#328,#186,.T.);
#393=EDGE_CURVE('',#329,#328,#187,.T.);
#394=EDGE_CURVE('',#326,#329,#188,.T.);
#395=EDGE_CURVE('',#330,#331,#163,.T.);
#396=EDGE_CURVE('',#331,#332,#189,.T.);
#397=EDGE_CURVE('',#332,#333,#317,.T.);
#398=EDGE_CURVE('',#333,#330,#190,.T.);
#399=EDGE_CURVE('',#331,#334,#191,.T.);
#400=EDGE_CURVE('',#335,#334,#192,.T.);
#401=EDGE_CURVE('',#332,#335,#193,.T.);
#402=EDGE_CURVE('',#332,#336,#194,.T.);
#403=EDGE_CURVE('',#336,#337,#318,.T.);
#404=EDGE_CURVE('',#337,#333,#195,.T.);
#405=EDGE_CURVE('',#338,#335,#196,.T.);
#406=EDGE_CURVE('',#336,#338,#197,.T.);
#407=EDGE_CURVE('',#336,#339,#198,.T.);
#408=EDGE_CURVE('',#339,#340,#164,.T.);
#409=EDGE_CURVE('',#340,#337,#199,.T.);
#410=EDGE_CURVE('',#341,#338,#200,.T.);
#411=EDGE_CURVE('',#339,#341,#201,.T.);
#412=EDGE_CURVE('',#342,#343,#319,.T.);
#413=EDGE_CURVE('',#343,#325,#202,.T.);
#414=EDGE_CURVE('',#324,#342,#203,.T.);
#415=EDGE_CURVE('',#343,#344,#204,.T.);
#416=EDGE_CURVE('',#328,#344,#205,.T.);
#417=EDGE_CURVE('',#345,#346,#165,.T.);
#418=EDGE_CURVE('',#346,#343,#206,.T.);
#419=EDGE_CURVE('',#342,#345,#207,.T.);
#420=EDGE_CURVE('',#346,#347,#208,.T.);
#421=EDGE_CURVE('',#344,#347,#209,.T.);
#422=EDGE_CURVE('',#340,#330,#210,.T.);
#423=EDGE_CURVE('',#334,#341,#211,.T.);
#424=EDGE_CURVE('',#327,#345,#212,.T.);
#425=EDGE_CURVE('',#347,#329,#213,.T.);
#426=EDGE_CURVE('',#348,#348,#166,.T.);
#427=EDGE_CURVE('',#348,#349,#214,.T.);
#428=EDGE_CURVE('',#349,#349,#167,.T.);
#429=EDGE_CURVE('',#350,#350,#168,.T.);
#430=EDGE_CURVE('',#350,#351,#215,.T.);
#431=EDGE_CURVE('',#351,#351,#169,.T.);
#432=EDGE_CURVE('',#352,#353,#320,.T.);
#433=EDGE_CURVE('',#353,#354,#216,.T.);
#434=EDGE_CURVE('',#354,#355,#170,.T.);
#435=EDGE_CURVE('',#355,#352,#217,.T.);
#436=EDGE_CURVE('',#356,#357,#171,.T.);
#437=EDGE_CURVE('',#357,#355,#31,.T.);
#438=EDGE_CURVE('',#354,#356,#32,.T.);
#439=EDGE_CURVE('',#358,#359,#321,.F.);
#440=EDGE_CURVE('',#358,#357,#218,.T.);
#441=EDGE_CURVE('',#356,#359,#219,.T.);
#442=EDGE_CURVE('',#353,#359,#220,.T.);
#443=EDGE_CURVE('',#360,#361,#322,.T.);
#444=EDGE_CURVE('',#361,#362,#221,.T.);
#445=EDGE_CURVE('',#362,#363,#172,.T.);
#446=EDGE_CURVE('',#363,#360,#222,.T.);
#447=EDGE_CURVE('',#364,#365,#173,.T.);
#448=EDGE_CURVE('',#365,#363,#33,.T.);
#449=EDGE_CURVE('',#362,#364,#34,.T.);
#450=EDGE_CURVE('',#366,#367,#323,.F.);
#451=EDGE_CURVE('',#366,#365,#223,.T.);
#452=EDGE_CURVE('',#364,#367,#224,.T.);
#453=EDGE_CURVE('',#361,#367,#225,.T.);
#454=EDGE_CURVE('',#368,#369,#226,.T.);
#455=EDGE_CURVE('',#358,#368,#227,.T.);
#456=EDGE_CURVE('',#369,#352,#228,.T.);
#457=EDGE_CURVE('',#369,#370,#229,.T.);
#458=EDGE_CURVE('',#371,#370,#230,.T.);
#459=EDGE_CURVE('',#371,#372,#231,.T.);
#460=EDGE_CURVE('',#368,#372,#232,.T.);
#461=EDGE_CURVE('',#365,#355,#35,.T.);
#462=EDGE_CURVE('',#352,#366,#233,.T.);
#463=EDGE_CURVE('',#373,#373,#174,.T.);
#464=EDGE_CURVE('',#374,#374,#175,.T.);
#465=EDGE_CURVE('',#375,#375,#176,.T.);
#466=EDGE_CURVE('',#376,#376,#177,.T.);
#467=EDGE_CURVE('',#377,#377,#178,.T.);
#468=EDGE_CURVE('',#378,#379,#234,.T.);
#469=EDGE_CURVE('',#366,#379,#235,.T.);
#470=EDGE_CURVE('',#378,#360,#236,.T.);
#471=EDGE_CURVE('',#360,#358,#237,.T.);
#472=EDGE_CURVE('',#357,#363,#36,.T.);
#473=EDGE_CURVE('',#372,#380,#238,.T.);
#474=EDGE_CURVE('',#380,#378,#239,.T.);
#475=EDGE_CURVE('',#381,#381,#179,.T.);
#476=EDGE_CURVE('',#381,#377,#240,.T.);
#477=EDGE_CURVE('',#382,#382,#180,.T.);
#478=EDGE_CURVE('',#382,#376,#241,.T.);
#479=EDGE_CURVE('',#383,#383,#181,.T.);
#480=EDGE_CURVE('',#383,#375,#242,.T.);
#481=EDGE_CURVE('',#384,#384,#182,.T.);
#482=EDGE_CURVE('',#384,#374,#243,.T.);
#483=EDGE_CURVE('',#385,#385,#183,.T.);
#484=EDGE_CURVE('',#385,#373,#244,.T.);
#485=EDGE_CURVE('',#386,#371,#245,.T.);
#486=EDGE_CURVE('',#380,#386,#246,.T.);
#487=EDGE_CURVE('',#387,#386,#247,.T.);
#488=EDGE_CURVE('',#379,#387,#248,.T.);
#489=EDGE_CURVE('',#370,#387,#249,.T.);
#490=ORIENTED_EDGE('',*,*,#388,.T.);
#491=ORIENTED_EDGE('',*,*,#389,.T.);
#492=ORIENTED_EDGE('',*,*,#390,.T.);
#493=ORIENTED_EDGE('',*,*,#391,.T.);
#494=ORIENTED_EDGE('',*,*,#389,.F.);
#495=ORIENTED_EDGE('',*,*,#392,.T.);
#496=ORIENTED_EDGE('',*,*,#393,.F.);
#497=ORIENTED_EDGE('',*,*,#394,.F.);
#498=ORIENTED_EDGE('',*,*,#395,.T.);
#499=ORIENTED_EDGE('',*,*,#396,.T.);
#500=ORIENTED_EDGE('',*,*,#397,.T.);
#501=ORIENTED_EDGE('',*,*,#398,.T.);
#502=ORIENTED_EDGE('',*,*,#396,.F.);
#503=ORIENTED_EDGE('',*,*,#399,.T.);
#504=ORIENTED_EDGE('',*,*,#400,.F.);
#505=ORIENTED_EDGE('',*,*,#401,.F.);
#506=ORIENTED_EDGE('',*,*,#402,.T.);
#507=ORIENTED_EDGE('',*,*,#403,.T.);
#508=ORIENTED_EDGE('',*,*,#404,.T.);
#509=ORIENTED_EDGE('',*,*,#397,.F.);
#510=ORIENTED_EDGE('',*,*,#402,.F.);
#511=ORIENTED_EDGE('',*,*,#401,.T.);
#512=ORIENTED_EDGE('',*,*,#405,.F.);
#513=ORIENTED_EDGE('',*,*,#406,.F.);
#514=ORIENTED_EDGE('',*,*,#407,.T.);
#515=ORIENTED_EDGE('',*,*,#408,.T.);
#516=ORIENTED_EDGE('',*,*,#409,.T.);
#517=ORIENTED_EDGE('',*,*,#403,.F.);
#518=ORIENTED_EDGE('',*,*,#407,.F.);
#519=ORIENTED_EDGE('',*,*,#406,.T.);
#520=ORIENTED_EDGE('',*,*,#410,.F.);
#521=ORIENTED_EDGE('',*,*,#411,.F.);
#522=ORIENTED_EDGE('',*,*,#412,.T.);
#523=ORIENTED_EDGE('',*,*,#413,.T.);
#524=ORIENTED_EDGE('',*,*,#388,.F.);
#525=ORIENTED_EDGE('',*,*,#414,.T.);
#526=ORIENTED_EDGE('',*,*,#413,.F.);
#527=ORIENTED_EDGE('',*,*,#415,.T.);
#528=ORIENTED_EDGE('',*,*,#416,.F.);
#529=ORIENTED_EDGE('',*,*,#392,.F.);
#530=ORIENTED_EDGE('',*,*,#417,.T.);
#531=ORIENTED_EDGE('',*,*,#418,.T.);
#532=ORIENTED_EDGE('',*,*,#412,.F.);
#533=ORIENTED_EDGE('',*,*,#419,.T.);
#534=ORIENTED_EDGE('',*,*,#418,.F.);
#535=ORIENTED_EDGE('',*,*,#420,.T.);
#536=ORIENTED_EDGE('',*,*,#421,.F.);
#537=ORIENTED_EDGE('',*,*,#415,.F.);
#538=ORIENTED_EDGE('',*,*,#422,.F.);
#539=ORIENTED_EDGE('',*,*,#408,.F.);
#540=ORIENTED_EDGE('',*,*,#411,.T.);
#541=ORIENTED_EDGE('',*,*,#423,.F.);
#542=ORIENTED_EDGE('',*,*,#399,.F.);
#543=ORIENTED_EDGE('',*,*,#395,.F.);
#544=ORIENTED_EDGE('',*,*,#410,.T.);
#545=ORIENTED_EDGE('',*,*,#405,.T.);
#546=ORIENTED_EDGE('',*,*,#400,.T.);
#547=ORIENTED_EDGE('',*,*,#423,.T.);
#548=ORIENTED_EDGE('',*,*,#424,.F.);
#549=ORIENTED_EDGE('',*,*,#390,.F.);
#550=ORIENTED_EDGE('',*,*,#394,.T.);
#551=ORIENTED_EDGE('',*,*,#425,.F.);
#552=ORIENTED_EDGE('',*,*,#420,.F.);
#553=ORIENTED_EDGE('',*,*,#417,.F.);
#554=ORIENTED_EDGE('',*,*,#425,.T.);
#555=ORIENTED_EDGE('',*,*,#393,.T.);
#556=ORIENTED_EDGE('',*,*,#416,.T.);
#557=ORIENTED_EDGE('',*,*,#421,.T.);
#558=ORIENTED_EDGE('',*,*,#426,.F.);
#559=ORIENTED_EDGE('',*,*,#427,.T.);
#560=ORIENTED_EDGE('',*,*,#428,.F.);
#561=ORIENTED_EDGE('',*,*,#427,.F.);
#562=ORIENTED_EDGE('',*,*,#429,.F.);
#563=ORIENTED_EDGE('',*,*,#430,.T.);
#564=ORIENTED_EDGE('',*,*,#431,.F.);
#565=ORIENTED_EDGE('',*,*,#430,.F.);
#566=ORIENTED_EDGE('',*,*,#432,.T.);
#567=ORIENTED_EDGE('',*,*,#433,.T.);
#568=ORIENTED_EDGE('',*,*,#434,.T.);
#569=ORIENTED_EDGE('',*,*,#435,.T.);
#570=ORIENTED_EDGE('',*,*,#436,.T.);
#571=ORIENTED_EDGE('',*,*,#437,.T.);
#572=ORIENTED_EDGE('',*,*,#434,.F.);
#573=ORIENTED_EDGE('',*,*,#438,.T.);
#574=ORIENTED_EDGE('',*,*,#439,.F.);
#575=ORIENTED_EDGE('',*,*,#440,.T.);
#576=ORIENTED_EDGE('',*,*,#436,.F.);
#577=ORIENTED_EDGE('',*,*,#441,.T.);
#578=ORIENTED_EDGE('',*,*,#441,.F.);
#579=ORIENTED_EDGE('',*,*,#438,.F.);
#580=ORIENTED_EDGE('',*,*,#433,.F.);
#581=ORIENTED_EDGE('',*,*,#442,.T.);
#582=ORIENTED_EDGE('',*,*,#443,.T.);
#583=ORIENTED_EDGE('',*,*,#444,.T.);
#584=ORIENTED_EDGE('',*,*,#445,.T.);
#585=ORIENTED_EDGE('',*,*,#446,.T.);
#586=ORIENTED_EDGE('',*,*,#447,.T.);
#587=ORIENTED_EDGE('',*,*,#448,.T.);
#588=ORIENTED_EDGE('',*,*,#445,.F.);
#589=ORIENTED_EDGE('',*,*,#449,.T.);
#590=ORIENTED_EDGE('',*,*,#450,.F.);
#591=ORIENTED_EDGE('',*,*,#451,.T.);
#592=ORIENTED_EDGE('',*,*,#447,.F.);
#593=ORIENTED_EDGE('',*,*,#452,.T.);
#594=ORIENTED_EDGE('',*,*,#452,.F.);
#595=ORIENTED_EDGE('',*,*,#449,.F.);
#596=ORIENTED_EDGE('',*,*,#444,.F.);
#597=ORIENTED_EDGE('',*,*,#453,.T.);
#598=ORIENTED_EDGE('',*,*,#454,.F.);
#599=ORIENTED_EDGE('',*,*,#455,.F.);
#600=ORIENTED_EDGE('',*,*,#439,.T.);
#601=ORIENTED_EDGE('',*,*,#442,.F.);
#602=ORIENTED_EDGE('',*,*,#432,.F.);
#603=ORIENTED_EDGE('',*,*,#456,.F.);
#604=ORIENTED_EDGE('',*,*,#454,.T.);
#605=ORIENTED_EDGE('',*,*,#457,.T.);
#606=ORIENTED_EDGE('',*,*,#458,.F.);
#607=ORIENTED_EDGE('',*,*,#459,.T.);
#608=ORIENTED_EDGE('',*,*,#460,.F.);
#609=ORIENTED_EDGE('',*,*,#435,.F.);
#610=ORIENTED_EDGE('',*,*,#461,.F.);
#611=ORIENTED_EDGE('',*,*,#451,.F.);
#612=ORIENTED_EDGE('',*,*,#462,.F.);
#613=ORIENTED_EDGE('',*,*,#463,.T.);
#614=ORIENTED_EDGE('',*,*,#464,.T.);
#615=ORIENTED_EDGE('',*,*,#465,.T.);
#616=ORIENTED_EDGE('',*,*,#466,.T.);
#617=ORIENTED_EDGE('',*,*,#467,.T.);
#618=ORIENTED_EDGE('',*,*,#468,.T.);
#619=ORIENTED_EDGE('',*,*,#469,.F.);
#620=ORIENTED_EDGE('',*,*,#450,.T.);
#621=ORIENTED_EDGE('',*,*,#453,.F.);
#622=ORIENTED_EDGE('',*,*,#443,.F.);
#623=ORIENTED_EDGE('',*,*,#470,.F.);
#624=ORIENTED_EDGE('',*,*,#440,.F.);
#625=ORIENTED_EDGE('',*,*,#471,.F.);
#626=ORIENTED_EDGE('',*,*,#446,.F.);
#627=ORIENTED_EDGE('',*,*,#472,.F.);
#628=ORIENTED_EDGE('',*,*,#428,.T.);
#629=ORIENTED_EDGE('',*,*,#431,.T.);
#630=ORIENTED_EDGE('',*,*,#437,.F.);
#631=ORIENTED_EDGE('',*,*,#472,.T.);
#632=ORIENTED_EDGE('',*,*,#448,.F.);
#633=ORIENTED_EDGE('',*,*,#461,.T.);
#634=ORIENTED_EDGE('',*,*,#460,.T.);
#635=ORIENTED_EDGE('',*,*,#473,.T.);
#636=ORIENTED_EDGE('',*,*,#474,.T.);
#637=ORIENTED_EDGE('',*,*,#470,.T.);
#638=ORIENTED_EDGE('',*,*,#471,.T.);
#639=ORIENTED_EDGE('',*,*,#455,.T.);
#640=ORIENTED_EDGE('',*,*,#475,.F.);
#641=ORIENTED_EDGE('',*,*,#476,.T.);
#642=ORIENTED_EDGE('',*,*,#467,.F.);
#643=ORIENTED_EDGE('',*,*,#476,.F.);
#644=ORIENTED_EDGE('',*,*,#477,.F.);
#645=ORIENTED_EDGE('',*,*,#478,.T.);
#646=ORIENTED_EDGE('',*,*,#466,.F.);
#647=ORIENTED_EDGE('',*,*,#478,.F.);
#648=ORIENTED_EDGE('',*,*,#479,.F.);
#649=ORIENTED_EDGE('',*,*,#480,.T.);
#650=ORIENTED_EDGE('',*,*,#465,.F.);
#651=ORIENTED_EDGE('',*,*,#480,.F.);
#652=ORIENTED_EDGE('',*,*,#481,.F.);
#653=ORIENTED_EDGE('',*,*,#482,.T.);
#654=ORIENTED_EDGE('',*,*,#464,.F.);
#655=ORIENTED_EDGE('',*,*,#482,.F.);
#656=ORIENTED_EDGE('',*,*,#483,.F.);
#657=ORIENTED_EDGE('',*,*,#484,.T.);
#658=ORIENTED_EDGE('',*,*,#463,.F.);
#659=ORIENTED_EDGE('',*,*,#484,.F.);
#660=ORIENTED_EDGE('',*,*,#459,.F.);
#661=ORIENTED_EDGE('',*,*,#485,.F.);
#662=ORIENTED_EDGE('',*,*,#486,.F.);
#663=ORIENTED_EDGE('',*,*,#473,.F.);
#664=ORIENTED_EDGE('',*,*,#424,.T.);
#665=ORIENTED_EDGE('',*,*,#419,.F.);
#666=ORIENTED_EDGE('',*,*,#414,.F.);
#667=ORIENTED_EDGE('',*,*,#391,.F.);
#668=ORIENTED_EDGE('',*,*,#404,.F.);
#669=ORIENTED_EDGE('',*,*,#409,.F.);
#670=ORIENTED_EDGE('',*,*,#422,.T.);
#671=ORIENTED_EDGE('',*,*,#398,.F.);
#672=ORIENTED_EDGE('',*,*,#426,.T.);
#673=ORIENTED_EDGE('',*,*,#429,.T.);
#674=ORIENTED_EDGE('',*,*,#474,.F.);
#675=ORIENTED_EDGE('',*,*,#486,.T.);
#676=ORIENTED_EDGE('',*,*,#487,.F.);
#677=ORIENTED_EDGE('',*,*,#488,.F.);
#678=ORIENTED_EDGE('',*,*,#468,.F.);
#679=ORIENTED_EDGE('',*,*,#456,.T.);
#680=ORIENTED_EDGE('',*,*,#462,.T.);
#681=ORIENTED_EDGE('',*,*,#469,.T.);
#682=ORIENTED_EDGE('',*,*,#488,.T.);
#683=ORIENTED_EDGE('',*,*,#489,.F.);
#684=ORIENTED_EDGE('',*,*,#457,.F.);
#685=ORIENTED_EDGE('',*,*,#458,.T.);
#686=ORIENTED_EDGE('',*,*,#489,.T.);
#687=ORIENTED_EDGE('',*,*,#487,.T.);
#688=ORIENTED_EDGE('',*,*,#485,.T.);
#689=ORIENTED_EDGE('',*,*,#475,.T.);
#690=ORIENTED_EDGE('',*,*,#477,.T.);
#691=ORIENTED_EDGE('',*,*,#479,.T.);
#692=ORIENTED_EDGE('',*,*,#481,.T.);
#693=ORIENTED_EDGE('',*,*,#483,.T.);
#694=CYLINDRICAL_SURFACE('',#767,1.);
#695=CYLINDRICAL_SURFACE('',#771,1.);
#696=CYLINDRICAL_SURFACE('',#775,1.);
#697=CYLINDRICAL_SURFACE('',#778,1.);
#698=CYLINDRICAL_SURFACE('',#781,1.);
#699=CYLINDRICAL_SURFACE('',#784,1.);
#700=CYLINDRICAL_SURFACE('',#791,2.5);
#701=CYLINDRICAL_SURFACE('',#794,2.5);
#702=CYLINDRICAL_SURFACE('',#797,3.);
#703=CYLINDRICAL_SURFACE('',#801,3.);
#704=CYLINDRICAL_SURFACE('',#804,3.);
#705=CYLINDRICAL_SURFACE('',#808,3.);
#706=CYLINDRICAL_SURFACE('',#822,1.7);
#707=CYLINDRICAL_SURFACE('',#824,1.7);
#708=CYLINDRICAL_SURFACE('',#826,1.7);
#709=CYLINDRICAL_SURFACE('',#828,1.7);
#710=CYLINDRICAL_SURFACE('',#830,11.5);
#711=ADVANCED_FACE('',(#62),#694,.F.);
#712=ADVANCED_FACE('',(#63),#40,.T.);
#713=ADVANCED_FACE('',(#64),#695,.F.);
#714=ADVANCED_FACE('',(#65),#41,.T.);
#715=ADVANCED_FACE('',(#66),#696,.F.);
#716=ADVANCED_FACE('',(#67),#42,.T.);
#717=ADVANCED_FACE('',(#68),#697,.F.);
#718=ADVANCED_FACE('',(#69),#43,.T.);
#719=ADVANCED_FACE('',(#70),#698,.F.);
#720=ADVANCED_FACE('',(#71),#44,.T.);
#721=ADVANCED_FACE('',(#72),#699,.F.);
#722=ADVANCED_FACE('',(#73),#45,.T.);
#723=ADVANCED_FACE('',(#74),#46,.T.);
#724=ADVANCED_FACE('',(#75),#47,.T.);
#725=ADVANCED_FACE('',(#76),#48,.T.);
#726=ADVANCED_FACE('',(#77),#49,.T.);
#727=ADVANCED_FACE('',(#78),#700,.F.);
#728=ADVANCED_FACE('',(#79),#701,.F.);
#729=ADVANCED_FACE('',(#80),#702,.F.);
#730=ADVANCED_FACE('',(#81),#37,.T.);
#731=ADVANCED_FACE('',(#82),#703,.F.);
#732=ADVANCED_FACE('',(#83),#50,.T.);
#733=ADVANCED_FACE('',(#84),#704,.F.);
#734=ADVANCED_FACE('',(#85),#38,.T.);
#735=ADVANCED_FACE('',(#86),#705,.F.);
#736=ADVANCED_FACE('',(#87),#51,.T.);
#737=ADVANCED_FACE('',(#88),#52,.T.);
#738=ADVANCED_FACE('',(#89),#53,.T.);
#739=ADVANCED_FACE('',(#90,#15,#16,#17,#18,#19),#54,.F.);
#740=ADVANCED_FACE('',(#91),#55,.T.);
#741=ADVANCED_FACE('',(#92,#20,#21),#56,.T.);
#742=ADVANCED_FACE('',(#93),#39,.T.);
#743=ADVANCED_FACE('',(#94),#57,.T.);
#744=ADVANCED_FACE('',(#95),#706,.F.);
#745=ADVANCED_FACE('',(#96),#707,.F.);
#746=ADVANCED_FACE('',(#97),#708,.F.);
#747=ADVANCED_FACE('',(#98),#709,.F.);
#748=ADVANCED_FACE('',(#99),#710,.F.);
#749=ADVANCED_FACE('',(#100,#22,#23,#24,#25),#58,.T.);
#750=ADVANCED_FACE('',(#101),#59,.T.);
#751=ADVANCED_FACE('',(#102),#60,.T.);
#752=ADVANCED_FACE('',(#103,#26,#27,#28,#29,#30),#61,.T.);
#753=CLOSED_SHELL('',(#711,#712,#713,#714,#715,#716,#717,#718,#719,#720,
#721,#722,#723,#724,#725,#726,#727,#728,#729,#730,#731,#732,#733,#734,#735,
#736,#737,#738,#739,#740,#741,#742,#743,#744,#745,#746,#747,#748,#749,#750,
#751,#752));
#754=DERIVED_UNIT_ELEMENT(#756,1.);
#755=DERIVED_UNIT_ELEMENT(#1465,-3.);
#756=(
MASS_UNIT()
NAMED_UNIT(*)
SI_UNIT(.KILO.,.GRAM.)
);
#757=DERIVED_UNIT((#754,#755));
#758=MEASURE_REPRESENTATION_ITEM('density measure',
POSITIVE_RATIO_MEASURE(7850.),#757);
#759=PROPERTY_DEFINITION_REPRESENTATION(#764,#761);
#760=PROPERTY_DEFINITION_REPRESENTATION(#765,#762);
#761=REPRESENTATION('material name',(#763),#1462);
#762=REPRESENTATION('density',(#758),#1462);
#763=DESCRIPTIVE_REPRESENTATION_ITEM('A\X\E7o','A\X\E7o');
#764=PROPERTY_DEFINITION('material property','material name',#1472);
#765=PROPERTY_DEFINITION('material property','density of part',#1472);
#766=AXIS2_PLACEMENT_3D('',#1042,#836,#837);
#767=AXIS2_PLACEMENT_3D('',#1043,#838,#839);
#768=AXIS2_PLACEMENT_3D('',#1046,#840,#841);
#769=AXIS2_PLACEMENT_3D('',#1050,#843,#844);
#770=AXIS2_PLACEMENT_3D('',#1052,#846,#847);
#771=AXIS2_PLACEMENT_3D('',#1058,#851,#852);
#772=AXIS2_PLACEMENT_3D('',#1061,#853,#854);
#773=AXIS2_PLACEMENT_3D('',#1065,#856,#857);
#774=AXIS2_PLACEMENT_3D('',#1067,#859,#860);
#775=AXIS2_PLACEMENT_3D('',#1073,#864,#865);
#776=AXIS2_PLACEMENT_3D('',#1077,#867,#868);
#777=AXIS2_PLACEMENT_3D('',#1079,#870,#871);
#778=AXIS2_PLACEMENT_3D('',#1083,#874,#875);
#779=AXIS2_PLACEMENT_3D('',#1087,#877,#878);
#780=AXIS2_PLACEMENT_3D('',#1089,#880,#881);
#781=AXIS2_PLACEMENT_3D('',#1093,#884,#885);
#782=AXIS2_PLACEMENT_3D('',#1096,#886,#887);
#783=AXIS2_PLACEMENT_3D('',#1099,#890,#891);
#784=AXIS2_PLACEMENT_3D('',#1103,#894,#895);
#785=AXIS2_PLACEMENT_3D('',#1106,#896,#897);
#786=AXIS2_PLACEMENT_3D('',#1109,#900,#901);
#787=AXIS2_PLACEMENT_3D('',#1113,#904,#905);
#788=AXIS2_PLACEMENT_3D('',#1116,#908,#909);
#789=AXIS2_PLACEMENT_3D('',#1117,#910,#911);
#790=AXIS2_PLACEMENT_3D('',#1120,#914,#915);
#791=AXIS2_PLACEMENT_3D('',#1121,#916,#917);
#792=AXIS2_PLACEMENT_3D('',#1123,#918,#919);
#793=AXIS2_PLACEMENT_3D('',#1126,#921,#922);
#794=AXIS2_PLACEMENT_3D('',#1127,#923,#924);
#795=AXIS2_PLACEMENT_3D('',#1129,#925,#926);
#796=AXIS2_PLACEMENT_3D('',#1132,#928,#929);
#797=AXIS2_PLACEMENT_3D('',#1133,#930,#931);
#798=AXIS2_PLACEMENT_3D('',#1136,#932,#933);
#799=AXIS2_PLACEMENT_3D('',#1140,#935,#936);
#800=AXIS2_PLACEMENT_3D('',#1209,#938,#939);
#801=AXIS2_PLACEMENT_3D('',#1236,#940,#941);
#802=AXIS2_PLACEMENT_3D('',#1239,#942,#943);
#803=AXIS2_PLACEMENT_3D('',#1242,#946,#947);
#804=AXIS2_PLACEMENT_3D('',#1244,#949,#950);
#805=AXIS2_PLACEMENT_3D('',#1247,#951,#952);
#806=AXIS2_PLACEMENT_3D('',#1251,#954,#955);
#807=AXIS2_PLACEMENT_3D('',#1320,#957,#958);
#808=AXIS2_PLACEMENT_3D('',#1347,#959,#960);
#809=AXIS2_PLACEMENT_3D('',#1350,#961,#962);
#810=AXIS2_PLACEMENT_3D('',#1353,#965,#966);
#811=AXIS2_PLACEMENT_3D('',#1355,#968,#969);
#812=AXIS2_PLACEMENT_3D('',#1361,#973,#974);
#813=AXIS2_PLACEMENT_3D('',#1369,#979,#980);
#814=AXIS2_PLACEMENT_3D('',#1376,#982,#983);
#815=AXIS2_PLACEMENT_3D('',#1378,#984,#985);
#816=AXIS2_PLACEMENT_3D('',#1380,#986,#987);
#817=AXIS2_PLACEMENT_3D('',#1382,#988,#989);
#818=AXIS2_PLACEMENT_3D('',#1384,#990,#991);
#819=AXIS2_PLACEMENT_3D('',#1385,#992,#993);
#820=AXIS2_PLACEMENT_3D('',#1391,#997,#998);
#821=AXIS2_PLACEMENT_3D('',#1425,#1000,#1001);
#822=AXIS2_PLACEMENT_3D('',#1429,#1004,#1005);
#823=AXIS2_PLACEMENT_3D('',#1431,#1006,#1007);
#824=AXIS2_PLACEMENT_3D('',#1433,#1009,#1010);
#825=AXIS2_PLACEMENT_3D('',#1435,#1011,#1012);
#826=AXIS2_PLACEMENT_3D('',#1437,#1014,#1015);
#827=AXIS2_PLACEMENT_3D('',#1439,#1016,#1017);
#828=AXIS2_PLACEMENT_3D('',#1441,#1019,#1020);
#829=AXIS2_PLACEMENT_3D('',#1443,#1021,#1022);
#830=AXIS2_PLACEMENT_3D('',#1445,#1024,#1025);
#831=AXIS2_PLACEMENT_3D('',#1447,#1026,#1027);
#832=AXIS2_PLACEMENT_3D('',#1449,#1029,#1030);
#833=AXIS2_PLACEMENT_3D('',#1453,#1033,#1034);
#834=AXIS2_PLACEMENT_3D('',#1457,#1037,#1038);
#835=AXIS2_PLACEMENT_3D('',#1459,#1040,#1041);
#836=DIRECTION('axis',(0.,0.,1.));
#837=DIRECTION('refdir',(1.,0.,0.));
#838=DIRECTION('center_axis',(1.,0.,0.));
#839=DIRECTION('ref_axis',(0.,0.707106781186547,-0.707106781186548));
#840=DIRECTION('center_axis',(-0.707106781186547,0.,-0.707106781186548));
#841=DIRECTION('ref_axis',(0.707106781186548,-4.9065389333868E-17,-0.707106781186547));
#842=DIRECTION('',(1.,0.,0.));
#843=DIRECTION('center_axis',(1.,0.,0.));
#844=DIRECTION('ref_axis',(0.,0.707106781186547,-0.707106781186548));
#845=DIRECTION('',(-1.,0.,0.));
#846=DIRECTION('center_axis',(0.,0.,1.));
#847=DIRECTION('ref_axis',(-1.,0.,0.));
#848=DIRECTION('',(0.,-1.,0.));
#849=DIRECTION('',(-1.,0.,0.));
#850=DIRECTION('',(0.,-1.,0.));
#851=DIRECTION('center_axis',(1.,0.,0.));
#852=DIRECTION('ref_axis',(0.,0.707106781186546,-0.707106781186549));
#853=DIRECTION('center_axis',(-1.,0.,0.));
#854=DIRECTION('ref_axis',(0.,0.707106781186546,-0.707106781186549));
#855=DIRECTION('',(1.,0.,0.));
#856=DIRECTION('center_axis',(0.707106781186548,0.,-0.707106781186547));
#857=DIRECTION('ref_axis',(-0.707106781186547,0.,-0.707106781186548));
#858=DIRECTION('',(-1.,0.,0.));
#859=DIRECTION('center_axis',(0.,0.,1.));
#860=DIRECTION('ref_axis',(-1.,0.,0.));
#861=DIRECTION('',(0.,-1.,0.));
#862=DIRECTION('',(-1.,0.,0.));
#863=DIRECTION('',(0.,-1.,0.));
#864=DIRECTION('center_axis',(0.,0.,-1.));
#865=DIRECTION('ref_axis',(-0.707106781186549,0.707106781186546,0.));
#866=DIRECTION('',(0.,0.,-1.));
#867=DIRECTION('center_axis',(-0.707106781186548,0.,-0.707106781186548));
#868=DIRECTION('ref_axis',(-0.707106781186547,0.,0.707106781186547));
#869=DIRECTION('',(0.,0.,1.));
#870=DIRECTION('center_axis',(1.,0.,0.));
#871=DIRECTION('ref_axis',(0.,0.,1.));
#872=DIRECTION('',(0.,0.,1.));
#873=DIRECTION('',(0.,-1.,0.));
#874=DIRECTION('center_axis',(-1.,0.,0.));
#875=DIRECTION('ref_axis',(0.,0.707106781186548,0.707106781186548));
#876=DIRECTION('',(-1.,0.,0.));
#877=DIRECTION('center_axis',(-1.,0.,0.));
#878=DIRECTION('ref_axis',(0.,0.707106781186548,0.707106781186548));
#879=DIRECTION('',(1.,0.,0.));
#880=DIRECTION('center_axis',(0.,0.,-1.));
#881=DIRECTION('ref_axis',(1.,0.,0.));
#882=DIRECTION('',(1.,0.,0.));
#883=DIRECTION('',(0.,-1.,0.));
#884=DIRECTION('center_axis',(0.,0.,1.));
#885=DIRECTION('ref_axis',(0.707106781186549,0.707106781186546,0.));
#886=DIRECTION('center_axis',(0.707106781186548,0.,-0.707106781186548));
#887=DIRECTION('ref_axis',(0.707106781186547,0.,0.707106781186547));
#888=DIRECTION('',(0.,0.,1.));
#889=DIRECTION('',(0.,0.,-1.));
#890=DIRECTION('center_axis',(-1.,0.,0.));
#891=DIRECTION('ref_axis',(0.,0.,-1.));
#892=DIRECTION('',(0.,-1.,0.));
#893=DIRECTION('',(0.,0.,-1.));
#894=DIRECTION('center_axis',(-1.,0.,0.));
#895=DIRECTION('ref_axis',(0.,0.707106781186544,0.707106781186551));
#896=DIRECTION('center_axis',(1.,0.,0.));
#897=DIRECTION('ref_axis',(0.,0.707106781186544,0.707106781186551));
#898=DIRECTION('',(-1.,0.,0.));
#899=DIRECTION('',(1.,0.,0.));
#900=DIRECTION('center_axis',(0.,0.,-1.));
#901=DIRECTION('ref_axis',(1.,0.,0.));
#902=DIRECTION('',(0.,-1.,0.));
#903=DIRECTION('',(1.,0.,0.));
#904=DIRECTION('center_axis',(-1.,0.,0.));
#905=DIRECTION('ref_axis',(0.,0.,-1.));
#906=DIRECTION('',(0.,0.,1.));
#907=DIRECTION('',(0.,0.,-1.));
#908=DIRECTION('center_axis',(0.,-1.,0.));
#909=DIRECTION('ref_axis',(0.,0.,-1.));
#910=DIRECTION('center_axis',(1.,0.,0.));
#911=DIRECTION('ref_axis',(0.,0.,1.));
#912=DIRECTION('',(0.,0.,-1.));
#913=DIRECTION('',(0.,0.,1.));
#914=DIRECTION('center_axis',(0.,-1.,0.));
#915=DIRECTION('ref_axis',(0.,0.,-1.));
#916=DIRECTION('center_axis',(0.,1.,0.));
#917=DIRECTION('ref_axis',(1.,0.,0.));
#918=DIRECTION('center_axis',(0.,1.,0.));
#919=DIRECTION('ref_axis',(1.,0.,0.));
#920=DIRECTION('',(0.,1.,0.));
#921=DIRECTION('center_axis',(0.,-1.,0.));
#922=DIRECTION('ref_axis',(1.,0.,0.));
#923=DIRECTION('center_axis',(0.,1.,0.));
#924=DIRECTION('ref_axis',(1.,0.,0.));
#925=DIRECTION('center_axis',(0.,1.,0.));
#926=DIRECTION('ref_axis',(1.,0.,0.));
#927=DIRECTION('',(0.,1.,0.));
#928=DIRECTION('center_axis',(0.,-1.,0.));
#929=DIRECTION('ref_axis',(1.,0.,0.));
#930=DIRECTION('center_axis',(0.,-1.,0.));
#931=DIRECTION('ref_axis',(0.707106781186548,0.,0.707106781186547));
#932=DIRECTION('center_axis',(0.,0.679939556308702,-0.733268163611871));
#933=DIRECTION('ref_axis',(6.29070458972778E-17,0.733268163611871,0.679939556308702));
#934=DIRECTION('',(0.,-1.,0.));
#935=DIRECTION('center_axis',(0.,-1.,0.));
#936=DIRECTION('ref_axis',(1.,0.,0.));
#937=DIRECTION('',(0.,1.,0.));
#938=DIRECTION('center_axis',(3.70074341541719E-16,3.70074341541719E-16,
-1.));
#939=DIRECTION('ref_axis',(1.,0.,3.70074341541719E-16));
#940=DIRECTION('center_axis',(0.,0.,-1.));
#941=DIRECTION('ref_axis',(0.707106781186547,-0.707106781186547,0.));
#942=DIRECTION('center_axis',(0.,0.679939556308702,-0.733268163611871));
#943=DIRECTION('ref_axis',(0.,-0.733268163611871,-0.679939556308702));
#944=DIRECTION('',(0.,0.,1.));
#945=DIRECTION('',(0.,0.,-1.));
#946=DIRECTION('center_axis',(-1.,0.,0.));
#947=DIRECTION('ref_axis',(0.,0.,1.));
#948=DIRECTION('',(0.,-0.733268163611871,-0.679939556308702));
#949=DIRECTION('center_axis',(0.,0.,1.));
#950=DIRECTION('ref_axis',(-0.707106781186548,-0.707106781186547,0.));
#951=DIRECTION('center_axis',(0.,0.679939563613621,-0.733268156838219));
#952=DIRECTION('ref_axis',(6.78409325788534E-17,-0.733268156838219,-0.679939563613621));
#953=DIRECTION('',(0.,0.,1.));
#954=DIRECTION('center_axis',(0.,0.,1.));
#955=DIRECTION('ref_axis',(-1.,0.,0.));
#956=DIRECTION('',(0.,0.,-1.));
#957=DIRECTION('center_axis',(5.47820073070147E-31,1.,7.40148683083438E-16));
#958=DIRECTION('ref_axis',(-1.,0.,7.40148683083438E-16));
#959=DIRECTION('center_axis',(0.,1.,0.));
#960=DIRECTION('ref_axis',(-0.707106781186548,0.,0.707106781186547));
#961=DIRECTION('center_axis',(0.,0.679939563613621,-0.733268156838219));
#962=DIRECTION('ref_axis',(6.29070465731186E-17,0.733268156838219,0.679939563613621));
#963=DIRECTION('',(0.,-1.,0.));
#964=DIRECTION('',(0.,1.,0.));
#965=DIRECTION('center_axis',(1.,0.,0.));
#966=DIRECTION('ref_axis',(0.,0.,-1.));
#967=DIRECTION('',(0.,0.733268156838219,0.679939563613621));
#968=DIRECTION('center_axis',(0.,0.679939556308702,-0.733268163611871));
#969=DIRECTION('ref_axis',(0.,-0.733268163611871,-0.679939556308702));
#970=DIRECTION('',(0.,0.733268163611871,0.679939556308702));
#971=DIRECTION('',(1.,0.,0.));
#972=DIRECTION('',(-1.,0.,0.));
#973=DIRECTION('center_axis',(1.,0.,0.));
#974=DIRECTION('ref_axis',(0.,1.,0.));
#975=DIRECTION('',(0.,0.,1.));
#976=DIRECTION('',(0.,1.,0.));
#977=DIRECTION('',(0.,0.,-1.));
#978=DIRECTION('',(0.,-1.,0.));
#979=DIRECTION('center_axis',(0.,0.,1.));
#980=DIRECTION('ref_axis',(1.,0.,0.));
#981=DIRECTION('',(-1.,0.,0.));
#982=DIRECTION('center_axis',(0.,0.,1.));
#983=DIRECTION('ref_axis',(-1.,0.,0.));
#984=DIRECTION('center_axis',(0.,0.,1.));
#985=DIRECTION('ref_axis',(-1.,0.,0.));
#986=DIRECTION('center_axis',(0.,0.,1.));
#987=DIRECTION('ref_axis',(-1.,0.,0.));
#988=DIRECTION('center_axis',(0.,0.,1.));
#989=DIRECTION('ref_axis',(-1.,0.,0.));
#990=DIRECTION('center_axis',(0.,0.,1.));
#991=DIRECTION('ref_axis',(-1.,0.,0.));
#992=DIRECTION('center_axis',(0.,0.679939563613621,-0.733268156838219));
#993=DIRECTION('ref_axis',(0.,0.733268156838219,0.679939563613621));
#994=DIRECTION('',(0.,0.733268156838219,0.679939563613621));
#995=DIRECTION('',(-1.,0.,0.));
#996=DIRECTION('',(1.,0.,0.));
#997=DIRECTION('center_axis',(0.,1.,0.));
#998=DIRECTION('ref_axis',(1.,0.,0.));
#999=DIRECTION('',(1.,0.,0.));
#1000=DIRECTION('center_axis',(0.,0.,-1.));
#1001=DIRECTION('ref_axis',(-1.,0.,0.));
#1002=DIRECTION('',(-1.,0.,0.));
#1003=DIRECTION('',(0.,1.,0.));
#1004=DIRECTION('center_axis',(0.,0.,-1.));
#1005=DIRECTION('ref_axis',(-1.,0.,0.));
#1006=DIRECTION('center_axis',(0.,0.,-1.));
#1007=DIRECTION('ref_axis',(-1.,0.,0.));
#1008=DIRECTION('',(0.,0.,-1.));
#1009=DIRECTION('center_axis',(0.,0.,-1.));
#1010=DIRECTION('ref_axis',(-1.,0.,0.));
#1011=DIRECTION('center_axis',(0.,0.,-1.));
#1012=DIRECTION('ref_axis',(-1.,0.,0.));
#1013=DIRECTION('',(0.,0.,-1.));
#1014=DIRECTION('center_axis',(0.,0.,-1.));
#1015=DIRECTION('ref_axis',(-1.,0.,0.));
#1016=DIRECTION('center_axis',(0.,0.,-1.));
#1017=DIRECTION('ref_axis',(-1.,0.,0.));
#1018=DIRECTION('',(0.,0.,-1.));
#1019=DIRECTION('center_axis',(0.,0.,-1.));
#1020=DIRECTION('ref_axis',(-1.,0.,0.));
#1021=DIRECTION('center_axis',(0.,0.,-1.));
#1022=DIRECTION('ref_axis',(-1.,0.,0.));
#1023=DIRECTION('',(0.,0.,-1.));
#1024=DIRECTION('center_axis',(0.,0.,-1.));
#1025=DIRECTION('ref_axis',(-1.,0.,0.));
#1026=DIRECTION('center_axis',(0.,0.,-1.));
#1027=DIRECTION('ref_axis',(-1.,0.,0.));
#1028=DIRECTION('',(0.,0.,-1.));
#1029=DIRECTION('center_axis',(0.,-1.,0.));
#1030=DIRECTION('ref_axis',(1.,0.,0.));
#1031=DIRECTION('',(1.,0.,0.));
#1032=DIRECTION('',(0.,0.,1.));
#1033=DIRECTION('center_axis',(-1.,0.,0.));
#1034=DIRECTION('ref_axis',(0.,-1.,0.));
#1035=DIRECTION('',(0.,-1.,0.));
#1036=DIRECTION('',(0.,0.,1.));
#1037=DIRECTION('center_axis',(0.,1.,0.));
#1038=DIRECTION('ref_axis',(-1.,0.,0.));
#1039=DIRECTION('',(-1.,0.,0.));
#1040=DIRECTION('center_axis',(0.,0.,1.));
#1041=DIRECTION('ref_axis',(1.,0.,0.));
#1042=CARTESIAN_POINT('',(0.,0.,0.));
#1043=CARTESIAN_POINT('Origin',(-17.625,-30.5,-6.));
#1044=CARTESIAN_POINT('',(-18.25,-29.5,-6.));
#1045=CARTESIAN_POINT('',(-17.25,-30.5,-7.));
#1046=CARTESIAN_POINT('Origin',(-18.25,-30.5,-6.));
#1047=CARTESIAN_POINT('',(-10.25,-30.5,-7.));
#1048=CARTESIAN_POINT('',(-17.625,-30.5,-7.));
#1049=CARTESIAN_POINT('',(-10.25,-29.5,-6.));
#1050=CARTESIAN_POINT('Origin',(-10.25,-30.5,-6.));
#1051=CARTESIAN_POINT('',(-17.625,-29.5,-6.));
#1052=CARTESIAN_POINT('Origin',(-10.25,-29.5,-7.));
#1053=CARTESIAN_POINT('',(-17.25,-33.5,-7.));
#1054=CARTESIAN_POINT('',(-17.25,-29.5,-7.));
#1055=CARTESIAN_POINT('',(-10.25,-33.5,-7.));
#1056=CARTESIAN_POINT('',(-10.25,-33.5,-7.));
#1057=CARTESIAN_POINT('',(-10.25,-29.5,-7.));
#1058=CARTESIAN_POINT('Origin',(-3.875,-30.5,-6.));
#1059=CARTESIAN_POINT('',(10.25,-29.5,-6.));
#1060=CARTESIAN_POINT('',(10.25,-30.5,-7.));
#1061=CARTESIAN_POINT('Origin',(10.25,-30.5,-6.));
#1062=CARTESIAN_POINT('',(17.25,-30.5,-7.));
#1063=CARTESIAN_POINT('',(-3.875,-30.5,-7.));
#1064=CARTESIAN_POINT('',(18.25,-29.5,-6.));
#1065=CARTESIAN_POINT('Origin',(18.25,-30.5,-6.));
#1066=CARTESIAN_POINT('',(-3.875,-29.5,-6.));
#1067=CARTESIAN_POINT('Origin',(17.25,-29.5,-7.));
#1068=CARTESIAN_POINT('',(10.25,-33.5,-7.));
#1069=CARTESIAN_POINT('',(10.25,-29.5,-7.));
#1070=CARTESIAN_POINT('',(17.25,-33.5,-7.));
#1071=CARTESIAN_POINT('',(10.25,-33.5,-7.));
#1072=CARTESIAN_POINT('',(17.25,-29.5,-7.));
#1073=CARTESIAN_POINT('Origin',(18.25,-30.5,-18.5));
#1074=CARTESIAN_POINT('',(17.25,-30.5,-37.));
#1075=CARTESIAN_POINT('',(17.25,-30.5,-18.5));
#1076=CARTESIAN_POINT('',(18.25,-29.5,-38.));
#1077=CARTESIAN_POINT('Origin',(18.25,-30.5,-38.));
#1078=CARTESIAN_POINT('',(18.25,-29.5,-18.5));
#1079=CARTESIAN_POINT('Origin',(17.25,-29.5,-37.));
#1080=CARTESIAN_POINT('',(17.25,-33.5,-37.));
#1081=CARTESIAN_POINT('',(17.25,-33.5,-7.));
#1082=CARTESIAN_POINT('',(17.25,-29.5,-37.));
#1083=CARTESIAN_POINT('Origin',(-7.375,-30.5,-38.));
#1084=CARTESIAN_POINT('',(10.25,-30.5,-37.));
#1085=CARTESIAN_POINT('',(-7.375,-30.5,-37.));
#1086=CARTESIAN_POINT('',(10.25,-29.5,-38.));
#1087=CARTESIAN_POINT('Origin',(10.25,-30.5,-38.));
#1088=CARTESIAN_POINT('',(-7.375,-29.5,-38.));
#1089=CARTESIAN_POINT('Origin',(10.25,-29.5,-37.));
#1090=CARTESIAN_POINT('',(10.25,-33.5,-37.));
#1091=CARTESIAN_POINT('',(17.25,-33.5,-37.));
#1092=CARTESIAN_POINT('',(10.25,-29.5,-37.));
#1093=CARTESIAN_POINT('Origin',(-18.25,-30.5,-3.5));
#1094=CARTESIAN_POINT('',(-18.25,-29.5,-38.));
#1095=CARTESIAN_POINT('',(-17.25,-30.5,-37.));
#1096=CARTESIAN_POINT('Origin',(-18.25,-30.5,-38.));
#1097=CARTESIAN_POINT('',(-17.25,-30.5,-3.5));
#1098=CARTESIAN_POINT('',(-18.25,-29.5,-3.5));
#1099=CARTESIAN_POINT('Origin',(-17.25,-29.5,-7.));
#1100=CARTESIAN_POINT('',(-17.25,-33.5,-37.));
#1101=CARTESIAN_POINT('',(-17.25,-29.5,-37.));
#1102=CARTESIAN_POINT('',(-17.25,-33.5,-7.));
#1103=CARTESIAN_POINT('Origin',(-21.125,-30.5,-38.));
#1104=CARTESIAN_POINT('',(-10.25,-29.5,-38.));
#1105=CARTESIAN_POINT('',(-10.25,-30.5,-37.));
#1106=CARTESIAN_POINT('Origin',(-10.25,-30.5,-38.));
#1107=CARTESIAN_POINT('',(-21.125,-30.5,-37.));
#1108=CARTESIAN_POINT('',(-21.125,-29.5,-38.));
#1109=CARTESIAN_POINT('Origin',(-17.25,-29.5,-37.));
#1110=CARTESIAN_POINT('',(-10.25,-33.5,-37.));
#1111=CARTESIAN_POINT('',(-10.25,-29.5,-37.));
#1112=CARTESIAN_POINT('',(-17.25,-33.5,-37.));
#1113=CARTESIAN_POINT('Origin',(10.25,-29.5,-7.));
#1114=CARTESIAN_POINT('',(10.25,-29.5,-3.5));
#1115=CARTESIAN_POINT('',(10.25,-33.5,-37.));
#1116=CARTESIAN_POINT('Origin',(13.75,-33.5,-22.));
#1117=CARTESIAN_POINT('Origin',(-10.25,-29.5,-37.));
#1118=CARTESIAN_POINT('',(-10.25,-29.5,-18.5));
#1119=CARTESIAN_POINT('',(-10.25,-33.5,-37.));
#1120=CARTESIAN_POINT('Origin',(-13.75,-33.5,-22.));
#1121=CARTESIAN_POINT('Origin',(4.60297256708549E-31,-29.5,-31.5000003576279));
#1122=CARTESIAN_POINT('',(-2.5,-29.5,-31.5000003576279));
#1123=CARTESIAN_POINT('Origin',(4.60297256708549E-31,-29.5,-31.5000003576279));
#1124=CARTESIAN_POINT('',(-2.5,-25.5,-31.5000003576279));
#1125=CARTESIAN_POINT('',(-2.5,-29.5,-31.5000003576279));
#1126=CARTESIAN_POINT('Origin',(4.60297256708549E-31,-25.5,-31.5000003576279));
#1127=CARTESIAN_POINT('Origin',(1.61778115328528E-31,-29.5,-16.5000003576279));
#1128=CARTESIAN_POINT('',(-2.5,-29.5,-16.5000003576279));
#1129=CARTESIAN_POINT('Origin',(1.61778115328528E-31,-29.5,-16.5000003576279));
#1130=CARTESIAN_POINT('',(-2.5,-25.5,-16.5000003576279));
#1131=CARTESIAN_POINT('',(-2.5,-29.5,-16.5000003576279));
#1132=CARTESIAN_POINT('Origin',(1.61778115328528E-31,-25.5,-16.5000003576279));
#1133=CARTESIAN_POINT('Origin',(19.,0.998746479288433,-3.));
#1134=CARTESIAN_POINT('',(19.,29.5,0.));
#1135=CARTESIAN_POINT('',(22.,26.2647062572925,-3.));
#1136=CARTESIAN_POINT('Origin',(19.,26.2647062572925,-3.));
#1137=CARTESIAN_POINT('',(22.,-17.5,-3.));
#1138=CARTESIAN_POINT('',(22.,0.998746479288433,-3.));
#1139=CARTESIAN_POINT('',(19.,-17.5,0.));
#1140=CARTESIAN_POINT('Origin',(19.,-17.5,-3.));
#1141=CARTESIAN_POINT('',(19.,0.998746479288433,0.));
#1142=CARTESIAN_POINT('Ctrl Pts',(19.,-17.5,0.));
#1143=CARTESIAN_POINT('Ctrl Pts',(19.,-17.7583361221479,-4.90517872324032E-33));
#1144=CARTESIAN_POINT('Ctrl Pts',(19.,-18.1849115404297,-0.0378813704237867));
#1145=CARTESIAN_POINT('Ctrl Pts',(19.,-18.89858284375,-0.17393649341832));
#1146=CARTESIAN_POINT('Ctrl Pts',(19.,-19.9350034868534,-0.511074996072823));
#1147=CARTESIAN_POINT('Ctrl Pts',(19.,-21.1446398180232,-1.14351585015975));
#1148=CARTESIAN_POINT('Ctrl Pts',(19.,-22.777604623497,-2.37204072326661));
#1149=CARTESIAN_POINT('Ctrl Pts',(19.,-24.0993726544185,-3.87896911904312));
#1150=CARTESIAN_POINT('Ctrl Pts',(19.,-24.9896515241695,-5.56247380876287));
#1151=CARTESIAN_POINT('Ctrl Pts',(19.,-25.3259690637355,-6.6015828228456));
#1152=CARTESIAN_POINT('Ctrl Pts',(19.,-25.4621567016967,-7.314657547648));
#1153=CARTESIAN_POINT('Ctrl Pts',(19.,-25.5,-7.74166387785215));
#1154=CARTESIAN_POINT('Ctrl Pts',(19.,-25.5,-8.));
#1155=CARTESIAN_POINT('Ctrl Pts',(19.8975979010256,-17.5,0.));
#1156=CARTESIAN_POINT('Ctrl Pts',(19.8975979010256,-17.7588291025429,-4.91453922971812E-33));
#1157=CARTESIAN_POINT('Ctrl Pts',(19.8975979010256,-18.1859096837526,-0.0378474993398598));
#1158=CARTESIAN_POINT('Ctrl Pts',(19.8975979010256,-18.9004787382099,-0.174036661217184));
#1159=CARTESIAN_POINT('Ctrl Pts',(19.8975979010257,-19.9370153285246,-0.510971437490584));
#1160=CARTESIAN_POINT('Ctrl Pts',(19.8975979010256,-21.1465299605542,-1.14330057157804));
#1161=CARTESIAN_POINT('Ctrl Pts',(19.8975979010257,-22.7794347241549,-2.37166565363152));
#1162=CARTESIAN_POINT('Ctrl Pts',(19.8975979010256,-24.0994831625987,-3.87674792312978));
#1163=CARTESIAN_POINT('Ctrl Pts',(19.8975979010256,-24.9895699263548,-5.56012070288449));
#1164=CARTESIAN_POINT('Ctrl Pts',(19.8975979010256,-25.325894037955,-6.59972430512983));
#1165=CARTESIAN_POINT('Ctrl Pts',(19.8975979010256,-25.4621756028141,-7.31363024671107));
#1166=CARTESIAN_POINT('Ctrl Pts',(19.8975979010256,-25.5,-7.74117089745709));
#1167=CARTESIAN_POINT('Ctrl Pts',(19.8975979010256,-25.5,-8.));
#1168=CARTESIAN_POINT('Ctrl Pts',(21.4519896879301,-17.5,-0.752784992931979));
#1169=CARTESIAN_POINT('Ctrl Pts',(21.4519896879301,-17.716006951374,-0.752784992931979));
#1170=CARTESIAN_POINT('Ctrl Pts',(21.4519896879301,-18.0805820383555,-0.784810896592709));
#1171=CARTESIAN_POINT('Ctrl Pts',(21.4519896879301,-18.7038558130209,-0.90341751641109));
#1172=CARTESIAN_POINT('Ctrl Pts',(21.4519896879301,-19.631158189873,-1.20407677460796));
#1173=CARTESIAN_POINT('Ctrl Pts',(21.4519896879301,-20.739058486357,-1.78225357189119));
#1174=CARTESIAN_POINT('Ctrl Pts',(21.4519896879301,-22.2520325748552,-2.91945658830374));
#1175=CARTESIAN_POINT('Ctrl Pts',(21.4519896879301,-23.4829091325527,-4.32387649509431));
#1176=CARTESIAN_POINT('Ctrl Pts',(21.4519896879301,-24.2965588808537,-5.86677647270824));
#1177=CARTESIAN_POINT('Ctrl Pts',(21.4519896879301,-24.5964950652383,-6.79627670831445));
#1178=CARTESIAN_POINT('Ctrl Pts',(21.4519896879301,-24.7152235836572,-7.41905719981696));
#1179=CARTESIAN_POINT('Ctrl Pts',(21.4519896879301,-24.747215007068,-7.78399304862601));
#1180=CARTESIAN_POINT('Ctrl Pts',(21.4519896879301,-24.747215007068,-8.));
#1181=CARTESIAN_POINT('Ctrl Pts',(22.,-17.5,-2.32680157423076));
#1182=CARTESIAN_POINT('Ctrl Pts',(22.,-17.6276851787006,-2.32680157423076));
#1183=CARTESIAN_POINT('Ctrl Pts',(22.,-17.8628121614259,-2.34657140576454));
#1184=CARTESIAN_POINT('Ctrl Pts',(22.,-18.2974090229638,-2.42874491246181));
#1185=CARTESIAN_POINT('Ctrl Pts',(22.,-18.9965969323694,-2.65305223748824));
#1186=CARTESIAN_POINT('Ctrl Pts',(22.,-19.8917291112271,-3.11772499001497));
#1187=CARTESIAN_POINT('Ctrl Pts',(22.,-21.1537890987189,-4.06392082867171));
#1188=CARTESIAN_POINT('Ctrl Pts',(22.,-22.1939719979377,-5.2533092059975));
#1189=CARTESIAN_POINT('Ctrl Pts',(22.,-22.847323820269,-6.50216575769252));
#1190=CARTESIAN_POINT('Ctrl Pts',(22.,-23.0711918085795,-7.2026682452682));
#1191=CARTESIAN_POINT('Ctrl Pts',(22.,-23.1534499364582,-7.63696279400287));
#1192=CARTESIAN_POINT('Ctrl Pts',(22.,-23.1731984257693,-7.87231482129942));
#1193=CARTESIAN_POINT('Ctrl Pts',(22.,-23.1731984257693,-8.));
#1194=CARTESIAN_POINT('Ctrl Pts',(22.,-17.5,-3.));
#1195=CARTESIAN_POINT('Ctrl Pts',(22.,-17.5900471612419,-3.));
#1196=CARTESIAN_POINT('Ctrl Pts',(22.,-17.7699499945577,-3.01451858115426));
#1197=CARTESIAN_POINT('Ctrl Pts',(22.,-18.1240997492766,-3.08114701743573));
#1198=CARTESIAN_POINT('Ctrl Pts',(22.,-18.7257564862225,-3.27274252716114));
#1199=CARTESIAN_POINT('Ctrl Pts',(22.,-19.5298551319328,-3.68883922434839));
#1200=CARTESIAN_POINT('Ctrl Pts',(22.,-20.6845838551958,-4.55329800188443));
#1201=CARTESIAN_POINT('Ctrl Pts',(22.,-21.6427311679698,-5.65020652170138));
#1202=CARTESIAN_POINT('Ctrl Pts',(22.,-22.2274711483449,-6.77326569603773));
#1203=CARTESIAN_POINT('Ctrl Pts',(22.,-22.4188070011116,-7.37596425405785));
#1204=CARTESIAN_POINT('Ctrl Pts',(22.,-22.4854929900376,-7.72987491945565));
#1205=CARTESIAN_POINT('Ctrl Pts',(22.,-22.5,-7.9099528387581));
#1206=CARTESIAN_POINT('Ctrl Pts',(22.,-22.5,-8.));
#1207=CARTESIAN_POINT('',(22.,-22.5,-8.));
#1208=CARTESIAN_POINT('',(19.,-25.5,-8.));
#1209=CARTESIAN_POINT('Origin',(19.,-22.5,-8.));
#1210=CARTESIAN_POINT('Ctrl Pts',(19.,-25.5,-8.));
#1211=CARTESIAN_POINT('Ctrl Pts',(19.,-25.5,-7.74166387785215));
#1212=CARTESIAN_POINT('Ctrl Pts',(19.,-25.4621567016967,-7.314657547648));
#1213=CARTESIAN_POINT('Ctrl Pts',(19.,-25.3259690637355,-6.6015828228456));
#1214=CARTESIAN_POINT('Ctrl Pts',(19.,-24.9896515241695,-5.56247380876287));
#1215=CARTESIAN_POINT('Ctrl Pts',(19.,-24.0993726544185,-3.87896911904312));
#1216=CARTESIAN_POINT('Ctrl Pts',(19.,-22.777604623497,-2.37204072326661));
#1217=CARTESIAN_POINT('Ctrl Pts',(19.,-21.1446398180232,-1.14351585015975));
#1218=CARTESIAN_POINT('Ctrl Pts',(19.,-19.9350034868534,-0.511074996072823));
#1219=CARTESIAN_POINT('Ctrl Pts',(19.,-18.89858284375,-0.17393649341832));
#1220=CARTESIAN_POINT('Ctrl Pts',(19.,-18.1849115404297,-0.0378813704237867));
#1221=CARTESIAN_POINT('Ctrl Pts',(19.,-17.7583361221479,-4.90517872324032E-33));
#1222=CARTESIAN_POINT('Ctrl Pts',(19.,-17.5,0.));
#1223=CARTESIAN_POINT('Ctrl Pts',(22.,-17.5,-3.));
#1224=CARTESIAN_POINT('Ctrl Pts',(22.,-17.5900471612419,-3.));
#1225=CARTESIAN_POINT('Ctrl Pts',(22.,-17.7699499945577,-3.01451858115426));
#1226=CARTESIAN_POINT('Ctrl Pts',(22.,-18.1240997492766,-3.08114701743573));
#1227=CARTESIAN_POINT('Ctrl Pts',(22.,-18.7257564862225,-3.27274252716114));
#1228=CARTESIAN_POINT('Ctrl Pts',(22.,-19.5298551319328,-3.68883922434839));
#1229=CARTESIAN_POINT('Ctrl Pts',(22.,-20.6845838551958,-4.55329800188443));
#1230=CARTESIAN_POINT('Ctrl Pts',(22.,-21.6427311679698,-5.65020652170138));
#1231=CARTESIAN_POINT('Ctrl Pts',(22.,-22.2274711483449,-6.77326569603773));
#1232=CARTESIAN_POINT('Ctrl Pts',(22.,-22.4188070011116,-7.37596425405785));
#1233=CARTESIAN_POINT('Ctrl Pts',(22.,-22.4854929900376,-7.72987491945565));
#1234=CARTESIAN_POINT('Ctrl Pts',(22.,-22.5,-7.9099528387581));
#1235=CARTESIAN_POINT('Ctrl Pts',(22.,-22.5,-8.));
#1236=CARTESIAN_POINT('Origin',(19.,-22.5,-12.7499997150153));
#1237=CARTESIAN_POINT('',(19.,-25.5,-51.));
#1238=CARTESIAN_POINT('',(22.,-22.5,-48.2181812623439));
#1239=CARTESIAN_POINT('Origin',(19.,-22.5,-48.2181812623439));
#1240=CARTESIAN_POINT('',(19.,-25.5,-12.7499997150153));
#1241=CARTESIAN_POINT('',(22.,-22.5,-12.7499997150153));
#1242=CARTESIAN_POINT('Origin',(22.,1.99749295857687,-25.4999994300306));
#1243=CARTESIAN_POINT('',(22.,-25.4999994300306,-50.9999988600612));
#1244=CARTESIAN_POINT('Origin',(-19.,-22.5,-12.7499997150153));
#1245=CARTESIAN_POINT('',(-19.,-25.5,-51.));
#1246=CARTESIAN_POINT('',(-22.,-22.5,-48.2181812067601));
#1247=CARTESIAN_POINT('Origin',(-19.,-22.5,-48.2181812067601));
#1248=CARTESIAN_POINT('',(-22.,-22.5,-8.));
#1249=CARTESIAN_POINT('',(-22.,-22.5,-12.7499997150153));
#1250=CARTESIAN_POINT('',(-19.,-25.5,-8.));
#1251=CARTESIAN_POINT('Origin',(-19.,-22.5,-8.));
#1252=CARTESIAN_POINT('',(-19.,-25.5,-12.7499997150153));
#1253=CARTESIAN_POINT('Ctrl Pts',(-19.,-25.5,-8.));
#1254=CARTESIAN_POINT('Ctrl Pts',(-19.,-25.5,-7.74166387785215));
#1255=CARTESIAN_POINT('Ctrl Pts',(-19.,-25.462141498019,-7.31504896979006));
#1256=CARTESIAN_POINT('Ctrl Pts',(-19.,-25.3261190151137,-6.60135039087198));
#1257=CARTESIAN_POINT('Ctrl Pts',(-19.,-24.9891197662874,-5.56462841693019));
#1258=CARTESIAN_POINT('Ctrl Pts',(-19.,-24.3555330334062,-4.35680175383362));
#1259=CARTESIAN_POINT('Ctrl Pts',(-19.,-23.1278880492436,-2.72253596704444));
#1260=CARTESIAN_POINT('Ctrl Pts',(-19.,-21.6208085309616,-1.40096097994203));
#1261=CARTESIAN_POINT('Ctrl Pts',(-19.,-19.9375169869802,-0.510366098063877));
#1262=CARTESIAN_POINT('Ctrl Pts',(-19.,-18.8983998553683,-0.174057306643623));
#1263=CARTESIAN_POINT('Ctrl Pts',(-19.,-18.1853391041344,-0.0378487322719929));
#1264=CARTESIAN_POINT('Ctrl Pts',(-19.,-17.7583361221479,0.));
#1265=CARTESIAN_POINT('Ctrl Pts',(-19.,-17.5,0.));
#1266=CARTESIAN_POINT('Ctrl Pts',(-19.8975979010256,-25.5,-8.));
#1267=CARTESIAN_POINT('Ctrl Pts',(-19.8975979010256,-25.5,-7.74117089745709));
#1268=CARTESIAN_POINT('Ctrl Pts',(-19.8975979010256,-25.4621628412257,-7.31403351830577));
#1269=CARTESIAN_POINT('Ctrl Pts',(-19.8975979010256,-25.3260547241964,-6.59951449870395));
#1270=CARTESIAN_POINT('Ctrl Pts',(-19.8975979010256,-24.9890465585119,-5.56236219064208));
#1271=CARTESIAN_POINT('Ctrl Pts',(-19.8975979010256,-24.3557197351715,-4.35475170358118));
#1272=CARTESIAN_POINT('Ctrl Pts',(-19.8975979010257,-23.1283241996146,-2.72079579142054));
#1273=CARTESIAN_POINT('Ctrl Pts',(-19.8975979010256,-21.623016024747,-1.4008018563546));
#1274=CARTESIAN_POINT('Ctrl Pts',(-19.8975979010256,-19.9398769509254,-0.510457644327986));
#1275=CARTESIAN_POINT('Ctrl Pts',(-19.8975979010256,-18.9002580438635,-0.174129734365049));
#1276=CARTESIAN_POINT('Ctrl Pts',(-19.8975979010256,-18.1863669974386,-0.037830385671463));
#1277=CARTESIAN_POINT('Ctrl Pts',(-19.8975979010256,-17.7588291025429,0.));
#1278=CARTESIAN_POINT('Ctrl Pts',(-19.8975979010256,-17.5,0.));
#1279=CARTESIAN_POINT('Ctrl Pts',(-21.4519896879301,-24.747215007068,-8.));
#1280=CARTESIAN_POINT('Ctrl Pts',(-21.4519896879301,-24.747215007068,-7.78399304862601));
#1281=CARTESIAN_POINT('Ctrl Pts',(-21.4519896879301,-24.715212786055,-7.41939375277114));
#1282=CARTESIAN_POINT('Ctrl Pts',(-21.4519896879301,-24.5966238145028,-6.79608380084173));
#1283=CARTESIAN_POINT('Ctrl Pts',(-21.4519896879301,-24.296142102612,-5.86863650720697));
#1284=CARTESIAN_POINT('Ctrl Pts',(-21.4519896879301,-23.7168912970326,-4.76199490806586));
#1285=CARTESIAN_POINT('Ctrl Pts',(-21.4519896879302,-22.5804636938299,-3.24804714422762));
#1286=CARTESIAN_POINT('Ctrl Pts',(-21.4519896879301,-21.1759253176216,-2.01733718590339));
#1287=CARTESIAN_POINT('Ctrl Pts',(-21.4519896879301,-19.6332134833438,-1.20345140043572));
#1288=CARTESIAN_POINT('Ctrl Pts',(-21.4519896879302,-18.7037076693105,-0.903524132359558));
#1289=CARTESIAN_POINT('Ctrl Pts',(-21.4519896879301,-18.0809396179028,-0.784780134630696));
#1290=CARTESIAN_POINT('Ctrl Pts',(-21.4519896879301,-17.716006951374,-0.75278499293198));
#1291=CARTESIAN_POINT('Ctrl Pts',(-21.4519896879301,-17.5,-0.75278499293198));
#1292=CARTESIAN_POINT('Ctrl Pts',(-22.,-23.1731984257693,-8.));
#1293=CARTESIAN_POINT('Ctrl Pts',(-22.,-23.1731984257693,-7.87231482129942));
#1294=CARTESIAN_POINT('Ctrl Pts',(-22.,-23.1534492696879,-7.63718907422253));
#1295=CARTESIAN_POINT('Ctrl Pts',(-22.,-23.071280261409,-7.20256648622147));
#1296=CARTESIAN_POINT('Ctrl Pts',(-22.,-22.8471506098622,-6.5034425217543));
#1297=CARTESIAN_POINT('Ctrl Pts',(-22.,-22.3816098340903,-5.60845251897991));
#1298=CARTESIAN_POINT('Ctrl Pts',(-22.,-21.43600466296,-4.34619714848375));
#1299=CARTESIAN_POINT('Ctrl Pts',(-22.,-20.2465379780476,-3.30607347344283));
#1300=CARTESIAN_POINT('Ctrl Pts',(-22.,-18.9978250207992,-2.65267485160649));
#1301=CARTESIAN_POINT('Ctrl Pts',(-22.,-18.2973195619322,-2.42881141457947));
#1302=CARTESIAN_POINT('Ctrl Pts',(-22.,-17.8630345933697,-2.34655040293169));
#1303=CARTESIAN_POINT('Ctrl Pts',(-22.,-17.6276851787006,-2.32680157423076));
#1304=CARTESIAN_POINT('Ctrl Pts',(-22.,-17.5,-2.32680157423076));
#1305=CARTESIAN_POINT('Ctrl Pts',(-22.,-22.5,-8.));
#1306=CARTESIAN_POINT('Ctrl Pts',(-22.,-22.5,-7.9099528387581));
#1307=CARTESIAN_POINT('Ctrl Pts',(-22.,-22.4854973334907,-7.73005732310285));
#1308=CARTESIAN_POINT('Ctrl Pts',(-22.,-22.4188811967206,-7.37590775396951));
#1309=CARTESIAN_POINT('Ctrl Pts',(-22.,-22.2274044375948,-6.77431709479854));
#1310=CARTESIAN_POINT('Ctrl Pts',(-22.,-21.8105689166964,-5.9699092984983));
#1311=CARTESIAN_POINT('Ctrl Pts',(-22.,-20.9466466587558,-4.81538735557756));
#1312=CARTESIAN_POINT('Ctrl Pts',(-22.,-19.8496562670889,-3.85721491856063));
#1313=CARTESIAN_POINT('Ctrl Pts',(-22.,-18.7267273363134,-3.2725253174804));
#1314=CARTESIAN_POINT('Ctrl Pts',(-22.,-18.1240249286432,-3.08118866928595));
#1315=CARTESIAN_POINT('Ctrl Pts',(-22.,-17.7701228758492,-3.01450605801278));
#1316=CARTESIAN_POINT('Ctrl Pts',(-22.,-17.5900471612419,-3.));
#1317=CARTESIAN_POINT('Ctrl Pts',(-22.,-17.5,-3.));
#1318=CARTESIAN_POINT('',(-22.,-17.5,-3.));
#1319=CARTESIAN_POINT('',(-19.,-17.5,-2.20292604547777E-30));
#1320=CARTESIAN_POINT('Origin',(-19.,-17.5,-3.));
#1321=CARTESIAN_POINT('Ctrl Pts',(-19.,-17.5,0.));
#1322=CARTESIAN_POINT('Ctrl Pts',(-19.,-17.7583361221479,0.));
#1323=CARTESIAN_POINT('Ctrl Pts',(-19.,-18.1853391041344,-0.0378487322719929));
#1324=CARTESIAN_POINT('Ctrl Pts',(-19.,-18.8983998553683,-0.174057306643623));
#1325=CARTESIAN_POINT('Ctrl Pts',(-19.,-19.9375169869802,-0.510366098063877));
#1326=CARTESIAN_POINT('Ctrl Pts',(-19.,-21.6208085309616,-1.40096097994203));
#1327=CARTESIAN_POINT('Ctrl Pts',(-19.,-23.1278880492436,-2.72253596704444));
#1328=CARTESIAN_POINT('Ctrl Pts',(-19.,-24.3555330334062,-4.35680175383362));
#1329=CARTESIAN_POINT('Ctrl Pts',(-19.,-24.9891197662874,-5.56462841693019));
#1330=CARTESIAN_POINT('Ctrl Pts',(-19.,-25.3261190151137,-6.60135039087198));
#1331=CARTESIAN_POINT('Ctrl Pts',(-19.,-25.462141498019,-7.31504896979006));
#1332=CARTESIAN_POINT('Ctrl Pts',(-19.,-25.5,-7.74166387785215));
#1333=CARTESIAN_POINT('Ctrl Pts',(-19.,-25.5,-8.));
#1334=CARTESIAN_POINT('Ctrl Pts',(-22.,-22.5,-8.));
#1335=CARTESIAN_POINT('Ctrl Pts',(-22.,-22.5,-7.9099528387581));
#1336=CARTESIAN_POINT('Ctrl Pts',(-22.,-22.4854973334907,-7.73005732310285));
#1337=CARTESIAN_POINT('Ctrl Pts',(-22.,-22.4188811967206,-7.37590775396951));
#1338=CARTESIAN_POINT('Ctrl Pts',(-22.,-22.2274044375948,-6.77431709479854));
#1339=CARTESIAN_POINT('Ctrl Pts',(-22.,-21.8105689166964,-5.9699092984983));
#1340=CARTESIAN_POINT('Ctrl Pts',(-22.,-20.9466466587558,-4.81538735557756));
#1341=CARTESIAN_POINT('Ctrl Pts',(-22.,-19.8496562670889,-3.85721491856063));
#1342=CARTESIAN_POINT('Ctrl Pts',(-22.,-18.7267273363134,-3.2725253174804));
#1343=CARTESIAN_POINT('Ctrl Pts',(-22.,-18.1240249286432,-3.08118866928595));
#1344=CARTESIAN_POINT('Ctrl Pts',(-22.,-17.7701228758492,-3.01450605801278));
#1345=CARTESIAN_POINT('Ctrl Pts',(-22.,-17.5900471612419,-3.));
#1346=CARTESIAN_POINT('Ctrl Pts',(-22.,-17.5,-3.));
#1347=CARTESIAN_POINT('Origin',(-19.,0.999999532359652,-3.));
#1348=CARTESIAN_POINT('',(-19.,29.5,0.));
#1349=CARTESIAN_POINT('',(-22.,26.2647052229766,-3.));
#1350=CARTESIAN_POINT('Origin',(-19.,26.2647052229766,-3.));
#1351=CARTESIAN_POINT('',(-19.,0.999999532359652,0.));
#1352=CARTESIAN_POINT('',(-22.,0.999999532359652,-3.));
#1353=CARTESIAN_POINT('Origin',(-22.,1.9999990647193,-25.4999994300306));
#1354=CARTESIAN_POINT('',(-22.,-25.4999994300306,-50.9999988600612));
#1355=CARTESIAN_POINT('Origin',(25.,29.5000004395843,0.));
#1356=CARTESIAN_POINT('',(25.,-25.5,-51.));
#1357=CARTESIAN_POINT('',(25.,29.5,0.));
#1358=CARTESIAN_POINT('',(25.,-25.4999994300306,-50.9999988600612));
#1359=CARTESIAN_POINT('',(-25.,-25.5,-51.));
#1360=CARTESIAN_POINT('',(25.,29.5,0.));
#1361=CARTESIAN_POINT('Origin',(25.,-29.5,0.));
#1362=CARTESIAN_POINT('',(25.,29.5,4.));
#1363=CARTESIAN_POINT('',(25.,29.5,0.));
#1364=CARTESIAN_POINT('',(25.,-29.5,4.));
#1365=CARTESIAN_POINT('',(25.,-29.5,4.));
#1366=CARTESIAN_POINT('',(25.,-29.5,-51.));
#1367=CARTESIAN_POINT('',(25.,-29.5,0.));
#1368=CARTESIAN_POINT('',(25.,-25.5,-51.));
#1369=CARTESIAN_POINT('Origin',(0.,0.,0.));
#1370=CARTESIAN_POINT('Ctrl Pts',(-19.,-17.5,0.));
#1371=CARTESIAN_POINT('Ctrl Pts',(-6.33333333333334,-17.5,0.));
#1372=CARTESIAN_POINT('Ctrl Pts',(6.33333333333333,-17.5,0.));
#1373=CARTESIAN_POINT('Ctrl Pts',(19.,-17.5,0.));
#1374=CARTESIAN_POINT('',(25.,29.5,0.));
#1375=CARTESIAN_POINT('',(11.5,2.50000000000001,0.));
#1376=CARTESIAN_POINT('Origin',(0.,2.5,0.));
#1377=CARTESIAN_POINT('',(-13.8,18.,0.));
#1378=CARTESIAN_POINT('Origin',(-15.5,18.,0.));
#1379=CARTESIAN_POINT('',(17.2,18.,0.));
#1380=CARTESIAN_POINT('Origin',(15.5,18.,0.));
#1381=CARTESIAN_POINT('',(-13.8,-13.,0.));
#1382=CARTESIAN_POINT('Origin',(-15.5,-13.,0.));
#1383=CARTESIAN_POINT('',(17.2,-13.,0.));
#1384=CARTESIAN_POINT('Origin',(15.5,-13.,0.));
#1385=CARTESIAN_POINT('Origin',(-25.,-25.4999994300306,-50.9999988600612));
#1386=CARTESIAN_POINT('',(-25.,-25.5,-51.));
#1387=CARTESIAN_POINT('',(-25.,29.5,0.));
#1388=CARTESIAN_POINT('',(-25.,-25.4999994300306,-50.9999988600612));
#1389=CARTESIAN_POINT('',(25.,29.5,0.));
#1390=CARTESIAN_POINT('',(-25.,-25.5,-51.));
#1391=CARTESIAN_POINT('Origin',(-25.,-25.5,0.));
#1392=CARTESIAN_POINT('',(-25.,-25.5,-51.));
#1393=CARTESIAN_POINT('Ctrl Pts',(19.,-25.5,-8.));
#1394=CARTESIAN_POINT('Ctrl Pts',(6.33333333333334,-25.5,-8.));
#1395=CARTESIAN_POINT('Ctrl Pts',(-6.33333333333333,-25.5,-8.));
#1396=CARTESIAN_POINT('Ctrl Pts',(-19.,-25.5,-8.));
#1397=CARTESIAN_POINT('Ctrl Pts',(19.,-17.5,0.));
#1398=CARTESIAN_POINT('Ctrl Pts',(6.33333333333333,-17.5,0.));
#1399=CARTESIAN_POINT('Ctrl Pts',(-6.33333333333334,-17.5,0.));
#1400=CARTESIAN_POINT('Ctrl Pts',(-19.,-17.5,0.));
#1401=CARTESIAN_POINT('Ctrl Pts',(19.,-18.3175156461841,0.));
#1402=CARTESIAN_POINT('Ctrl Pts',(6.33333333333333,-18.3175156461841,0.));
#1403=CARTESIAN_POINT('Ctrl Pts',(-6.33333333333334,-18.3175156461841,0.));
#1404=CARTESIAN_POINT('Ctrl Pts',(-19.,-18.3175156461841,0.));
#1405=CARTESIAN_POINT('Ctrl Pts',(19.,-20.4103681431306,-0.443587920861808));
#1406=CARTESIAN_POINT('Ctrl Pts',(6.33333333333333,-20.4103681431306,-0.443587920861808));
#1407=CARTESIAN_POINT('Ctrl Pts',(-6.33333333333334,-20.4103681431306,-0.443587920861808));
#1408=CARTESIAN_POINT('Ctrl Pts',(-19.,-20.4103681431306,-0.443587920861808));
#1409=CARTESIAN_POINT('Ctrl Pts',(19.,-23.8916246378351,-3.25090247588152));
#1410=CARTESIAN_POINT('Ctrl Pts',(6.33333333333333,-23.8916246378351,-3.25090247588152));
#1411=CARTESIAN_POINT('Ctrl Pts',(-6.33333333333333,-23.8916246378351,-3.25090247588152));
#1412=CARTESIAN_POINT('Ctrl Pts',(-19.,-23.8916246378351,-3.25090247588152));
#1413=CARTESIAN_POINT('Ctrl Pts',(19.,-25.3521230898099,-6.22803087667904));
#1414=CARTESIAN_POINT('Ctrl Pts',(6.33333333333334,-25.3521230898099,-6.22803087667904));
#1415=CARTESIAN_POINT('Ctrl Pts',(-6.33333333333334,-25.3521230898099,-6.22803087667904));
#1416=CARTESIAN_POINT('Ctrl Pts',(-19.,-25.3521230898099,-6.22803087667904));
#1417=CARTESIAN_POINT('Ctrl Pts',(19.,-25.5,-7.59124217690797));
#1418=CARTESIAN_POINT('Ctrl Pts',(6.33333333333334,-25.5,-7.59124217690797));
#1419=CARTESIAN_POINT('Ctrl Pts',(-6.33333333333333,-25.5,-7.59124217690797));
#1420=CARTESIAN_POINT('Ctrl Pts',(-19.,-25.5,-7.59124217690797));
#1421=CARTESIAN_POINT('Ctrl Pts',(19.,-25.5,-8.));
#1422=CARTESIAN_POINT('Ctrl Pts',(6.33333333333334,-25.5,-8.));
#1423=CARTESIAN_POINT('Ctrl Pts',(-6.33333333333333,-25.5,-8.));
#1424=CARTESIAN_POINT('Ctrl Pts',(-19.,-25.5,-8.));
#1425=CARTESIAN_POINT('Origin',(-4.44089209850063E-15,-27.5,-51.));
#1426=CARTESIAN_POINT('',(-25.,-29.5,-51.));
#1427=CARTESIAN_POINT('',(25.,-29.5,-51.));
#1428=CARTESIAN_POINT('',(-25.,-29.5,-51.));
#1429=CARTESIAN_POINT('Origin',(15.5,-13.,4.));
#1430=CARTESIAN_POINT('',(17.2,-13.,4.));
#1431=CARTESIAN_POINT('Origin',(15.5,-13.,4.));
#1432=CARTESIAN_POINT('',(17.2,-13.,4.));
#1433=CARTESIAN_POINT('Origin',(-15.5,-13.,4.));
#1434=CARTESIAN_POINT('',(-13.8,-13.,4.));
#1435=CARTESIAN_POINT('Origin',(-15.5,-13.,4.));
#1436=CARTESIAN_POINT('',(-13.8,-13.,4.));
#1437=CARTESIAN_POINT('Origin',(15.5,18.,4.));
#1438=CARTESIAN_POINT('',(17.2,18.,4.));
#1439=CARTESIAN_POINT('Origin',(15.5,18.,4.));
#1440=CARTESIAN_POINT('',(17.2,18.,4.));
#1441=CARTESIAN_POINT('Origin',(-15.5,18.,4.));
#1442=CARTESIAN_POINT('',(-13.8,18.,4.));
#1443=CARTESIAN_POINT('Origin',(-15.5,18.,4.));
#1444=CARTESIAN_POINT('',(-13.8,18.,4.));
#1445=CARTESIAN_POINT('Origin',(0.,2.5,4.));
#1446=CARTESIAN_POINT('',(11.5,2.50000000000001,4.));
#1447=CARTESIAN_POINT('Origin',(0.,2.5,4.));
#1448=CARTESIAN_POINT('',(11.5,2.5,4.));
#1449=CARTESIAN_POINT('Origin',(-25.,-29.5,0.));
#1450=CARTESIAN_POINT('',(-25.,-29.5,4.));
#1451=CARTESIAN_POINT('',(-25.,-29.5,4.));
#1452=CARTESIAN_POINT('',(-25.,-29.5,0.));
#1453=CARTESIAN_POINT('Origin',(-25.,29.5,0.));
#1454=CARTESIAN_POINT('',(-25.,29.5,4.));
#1455=CARTESIAN_POINT('',(-25.,29.5,4.));
#1456=CARTESIAN_POINT('',(-25.,29.5,0.));
#1457=CARTESIAN_POINT('Origin',(25.,29.5,0.));
#1458=CARTESIAN_POINT('',(25.,29.5,4.));
#1459=CARTESIAN_POINT('Origin',(0.,0.,4.));
#1460=UNCERTAINTY_MEASURE_WITH_UNIT(LENGTH_MEASURE(0.01),#1464,
'DISTANCE_ACCURACY_VALUE',
'Maximum model space distance between geometric entities at asserted c
onnectivities');
#1461=UNCERTAINTY_MEASURE_WITH_UNIT(LENGTH_MEASURE(0.01),#1464,
'DISTANCE_ACCURACY_VALUE',
'Maximum model space distance between geometric entities at asserted c
onnectivities');
#1462=(
GEOMETRIC_REPRESENTATION_CONTEXT(3)
GLOBAL_UNCERTAINTY_ASSIGNED_CONTEXT((#1460))
GLOBAL_UNIT_ASSIGNED_CONTEXT((#1464,#1466,#1467))
REPRESENTATION_CONTEXT('','3D')
);
#1463=(
GEOMETRIC_REPRESENTATION_CONTEXT(3)
GLOBAL_UNCERTAINTY_ASSIGNED_CONTEXT((#1461))
GLOBAL_UNIT_ASSIGNED_CONTEXT((#1464,#1466,#1467))
REPRESENTATION_CONTEXT('','3D')
);
#1464=(
LENGTH_UNIT()
NAMED_UNIT(*)
SI_UNIT(.MILLI.,.METRE.)
);
#1465=(
LENGTH_UNIT()
NAMED_UNIT(*)
SI_UNIT($,.METRE.)
);
#1466=(
NAMED_UNIT(*)
PLANE_ANGLE_UNIT()
SI_UNIT($,.RADIAN.)
);
#1467=(
NAMED_UNIT(*)
SI_UNIT($,.STERADIAN.)
SOLID_ANGLE_UNIT()
);
#1468=SHAPE_DEFINITION_REPRESENTATION(#1469,#1470);
#1469=PRODUCT_DEFINITION_SHAPE('',$,#1472);
#1470=SHAPE_REPRESENTATION('',(#766),#1462);
#1471=PRODUCT_DEFINITION_CONTEXT('part definition',#1476,'design');
#1472=PRODUCT_DEFINITION('Suporte_nema17_y','Suporte_nema17_y v9',#1473,
#1471);
#1473=PRODUCT_DEFINITION_FORMATION('',$,#1478);
#1474=PRODUCT_RELATED_PRODUCT_CATEGORY('Suporte_nema17_y v9',
'Suporte_nema17_y v9',(#1478));
#1475=APPLICATION_PROTOCOL_DEFINITION('international standard',
'automotive_design',2009,#1476);
#1476=APPLICATION_CONTEXT(
'Core Data for Automotive Mechanical Design Process');
#1477=PRODUCT_CONTEXT('part definition',#1476,'mechanical');
#1478=PRODUCT('Suporte_nema17_y','Suporte_nema17_y v9',$,(#1477));
#1479=PRESENTATION_STYLE_ASSIGNMENT((#1480));
#1480=SURFACE_STYLE_USAGE(.BOTH.,#1481);
#1481=SURFACE_SIDE_STYLE('',(#1482));
#1482=SURFACE_STYLE_FILL_AREA(#1483);
#1483=FILL_AREA_STYLE('Pintura - Esmalte com brilho (Amarelo)',(#1484));
#1484=FILL_AREA_STYLE_COLOUR('Pintura - Esmalte com brilho (Amarelo)',#1485);
#1485=COLOUR_RGB('Pintura - Esmalte com brilho (Amarelo)',0.909803921568627,
0.67843137254902,0.137254901960784);
ENDSEC;
END-ISO-10303-21;
