ISO-10303-21;
HEADER;
/* Generated by software containing ST-Developer
 * from STEP Tools, Inc. (www.steptools.com) 
 */

FILE_DESCRIPTION(
/* description */ (''),
/* implementation_level */ '2;1');

FILE_NAME(
/* name */ 'SuporteEixo Z.step',
/* time_stamp */ '2026-04-01T20:52:53-03:00',
/* author */ (''),
/* organization */ (''),
/* preprocessor_version */ 'ST-DEVELOPER v20.1',
/* originating_system */ 'Autodesk Translation Framework v14.24.0.0',
/* authorisation */ '');

FILE_SCHEMA (('AUTOMOTIVE_DESIGN { 1 0 10303 214 3 1 1 }'));
ENDSEC;

DATA;
#10=MECHANICAL_DESIGN_GEOMETRIC_PRESENTATION_REPRESENTATION('',(#13),#1573);
#11=SHAPE_REPRESENTATION_RELATIONSHIP('SRR','None',#1580,#12);
#12=ADVANCED_BREP_SHAPE_REPRESENTATION('',(#14),#1572);
#13=STYLED_ITEM('',(#1589),#14);
#14=MANIFOLD_SOLID_BREP('Corpo1',#933);
#15=FACE_BOUND('',#136,.T.);
#16=FACE_BOUND('',#139,.T.);
#17=FACE_BOUND('',#142,.T.);
#18=FACE_BOUND('',#145,.T.);
#19=FACE_BOUND('',#149,.T.);
#20=FACE_BOUND('',#150,.T.);
#21=FACE_BOUND('',#151,.T.);
#22=FACE_BOUND('',#152,.T.);
#23=FACE_BOUND('',#153,.T.);
#24=FACE_BOUND('',#154,.T.);
#25=FACE_BOUND('',#155,.T.);
#26=FACE_BOUND('',#156,.T.);
#27=FACE_BOUND('',#158,.T.);
#28=FACE_BOUND('',#159,.T.);
#29=FACE_BOUND('',#160,.T.);
#30=FACE_BOUND('',#161,.T.);
#31=FACE_BOUND('',#162,.T.);
#32=FACE_BOUND('',#163,.T.);
#33=FACE_BOUND('',#164,.T.);
#34=FACE_BOUND('',#165,.T.);
#35=FACE_BOUND('',#167,.T.);
#36=FACE_BOUND('',#168,.T.);
#37=FACE_BOUND('',#169,.T.);
#38=FACE_BOUND('',#170,.T.);
#39=FACE_BOUND('',#171,.T.);
#40=FACE_BOUND('',#172,.T.);
#41=FACE_BOUND('',#173,.T.);
#42=FACE_BOUND('',#174,.T.);
#43=FACE_BOUND('',#196,.T.);
#44=FACE_BOUND('',#197,.T.);
#45=FACE_BOUND('',#198,.T.);
#46=FACE_BOUND('',#199,.T.);
#47=FACE_BOUND('',#213,.T.);
#48=FACE_BOUND('',#214,.T.);
#49=FACE_BOUND('',#215,.T.);
#50=FACE_BOUND('',#216,.T.);
#51=FACE_BOUND('',#217,.T.);
#52=FACE_BOUND('',#218,.T.);
#53=FACE_BOUND('',#219,.T.);
#54=FACE_BOUND('',#220,.T.);
#55=FACE_BOUND('',#221,.T.);
#56=FACE_BOUND('',#222,.T.);
#57=FACE_BOUND('',#223,.T.);
#58=FACE_BOUND('',#224,.T.);
#59=FACE_BOUND('',#225,.T.);
#60=FACE_BOUND('',#226,.T.);
#61=FACE_BOUND('',#227,.T.);
#62=FACE_BOUND('',#228,.T.);
#63=FACE_BOUND('',#229,.T.);
#64=FACE_BOUND('',#230,.T.);
#65=FACE_BOUND('',#231,.T.);
#66=FACE_BOUND('',#232,.T.);
#67=FACE_BOUND('',#233,.T.);
#68=PLANE('',#950);
#69=PLANE('',#955);
#70=PLANE('',#960);
#71=PLANE('',#965);
#72=PLANE('',#967);
#73=PLANE('',#968);
#74=PLANE('',#969);
#75=PLANE('',#974);
#76=PLANE('',#983);
#77=PLANE('',#1024);
#78=PLANE('',#1025);
#79=PLANE('',#1026);
#80=PLANE('',#1027);
#81=PLANE('',#1028);
#82=PLANE('',#1045);
#83=PLANE('',#1046);
#84=PLANE('',#1047);
#85=PLANE('',#1048);
#86=PLANE('',#1049);
#87=FACE_OUTER_BOUND('',#134,.T.);
#88=FACE_OUTER_BOUND('',#135,.T.);
#89=FACE_OUTER_BOUND('',#137,.T.);
#90=FACE_OUTER_BOUND('',#138,.T.);
#91=FACE_OUTER_BOUND('',#140,.T.);
#92=FACE_OUTER_BOUND('',#141,.T.);
#93=FACE_OUTER_BOUND('',#143,.T.);
#94=FACE_OUTER_BOUND('',#144,.T.);
#95=FACE_OUTER_BOUND('',#146,.T.);
#96=FACE_OUTER_BOUND('',#147,.T.);
#97=FACE_OUTER_BOUND('',#148,.T.);
#98=FACE_OUTER_BOUND('',#157,.T.);
#99=FACE_OUTER_BOUND('',#166,.T.);
#100=FACE_OUTER_BOUND('',#175,.T.);
#101=FACE_OUTER_BOUND('',#176,.T.);
#102=FACE_OUTER_BOUND('',#177,.T.);
#103=FACE_OUTER_BOUND('',#178,.T.);
#104=FACE_OUTER_BOUND('',#179,.T.);
#105=FACE_OUTER_BOUND('',#180,.T.);
#106=FACE_OUTER_BOUND('',#181,.T.);
#107=FACE_OUTER_BOUND('',#182,.T.);
#108=FACE_OUTER_BOUND('',#183,.T.);
#109=FACE_OUTER_BOUND('',#184,.T.);
#110=FACE_OUTER_BOUND('',#185,.T.);
#111=FACE_OUTER_BOUND('',#186,.T.);
#112=FACE_OUTER_BOUND('',#187,.T.);
#113=FACE_OUTER_BOUND('',#188,.T.);
#114=FACE_OUTER_BOUND('',#189,.T.);
#115=FACE_OUTER_BOUND('',#190,.T.);
#116=FACE_OUTER_BOUND('',#191,.T.);
#117=FACE_OUTER_BOUND('',#192,.T.);
#118=FACE_OUTER_BOUND('',#193,.T.);
#119=FACE_OUTER_BOUND('',#194,.T.);
#120=FACE_OUTER_BOUND('',#195,.T.);
#121=FACE_OUTER_BOUND('',#200,.T.);
#122=FACE_OUTER_BOUND('',#201,.T.);
#123=FACE_OUTER_BOUND('',#202,.T.);
#124=FACE_OUTER_BOUND('',#203,.T.);
#125=FACE_OUTER_BOUND('',#204,.T.);
#126=FACE_OUTER_BOUND('',#205,.T.);
#127=FACE_OUTER_BOUND('',#206,.T.);
#128=FACE_OUTER_BOUND('',#207,.T.);
#129=FACE_OUTER_BOUND('',#208,.T.);
#130=FACE_OUTER_BOUND('',#209,.T.);
#131=FACE_OUTER_BOUND('',#210,.T.);
#132=FACE_OUTER_BOUND('',#211,.T.);
#133=FACE_OUTER_BOUND('',#212,.T.);
#134=EDGE_LOOP('',(#618,#619,#620,#621));
#135=EDGE_LOOP('',(#622));
#136=EDGE_LOOP('',(#623));
#137=EDGE_LOOP('',(#624,#625,#626,#627));
#138=EDGE_LOOP('',(#628));
#139=EDGE_LOOP('',(#629));
#140=EDGE_LOOP('',(#630,#631,#632,#633));
#141=EDGE_LOOP('',(#634));
#142=EDGE_LOOP('',(#635));
#143=EDGE_LOOP('',(#636,#637,#638,#639));
#144=EDGE_LOOP('',(#640));
#145=EDGE_LOOP('',(#641));
#146=EDGE_LOOP('',(#642,#643,#644,#645));
#147=EDGE_LOOP('',(#646,#647,#648,#649));
#148=EDGE_LOOP('',(#650,#651,#652,#653));
#149=EDGE_LOOP('',(#654));
#150=EDGE_LOOP('',(#655));
#151=EDGE_LOOP('',(#656));
#152=EDGE_LOOP('',(#657));
#153=EDGE_LOOP('',(#658));
#154=EDGE_LOOP('',(#659));
#155=EDGE_LOOP('',(#660));
#156=EDGE_LOOP('',(#661));
#157=EDGE_LOOP('',(#662,#663,#664,#665));
#158=EDGE_LOOP('',(#666));
#159=EDGE_LOOP('',(#667));
#160=EDGE_LOOP('',(#668));
#161=EDGE_LOOP('',(#669));
#162=EDGE_LOOP('',(#670));
#163=EDGE_LOOP('',(#671));
#164=EDGE_LOOP('',(#672));
#165=EDGE_LOOP('',(#673));
#166=EDGE_LOOP('',(#674,#675,#676,#677));
#167=EDGE_LOOP('',(#678));
#168=EDGE_LOOP('',(#679));
#169=EDGE_LOOP('',(#680));
#170=EDGE_LOOP('',(#681));
#171=EDGE_LOOP('',(#682));
#172=EDGE_LOOP('',(#683));
#173=EDGE_LOOP('',(#684));
#174=EDGE_LOOP('',(#685));
#175=EDGE_LOOP('',(#686,#687,#688,#689));
#176=EDGE_LOOP('',(#690,#691,#692,#693));
#177=EDGE_LOOP('',(#694,#695,#696,#697));
#178=EDGE_LOOP('',(#698,#699,#700,#701));
#179=EDGE_LOOP('',(#702,#703,#704,#705));
#180=EDGE_LOOP('',(#706,#707,#708,#709));
#181=EDGE_LOOP('',(#710,#711,#712,#713));
#182=EDGE_LOOP('',(#714,#715,#716,#717));
#183=EDGE_LOOP('',(#718,#719,#720,#721));
#184=EDGE_LOOP('',(#722,#723,#724,#725));
#185=EDGE_LOOP('',(#726,#727,#728,#729));
#186=EDGE_LOOP('',(#730,#731,#732,#733));
#187=EDGE_LOOP('',(#734,#735,#736,#737));
#188=EDGE_LOOP('',(#738,#739,#740,#741));
#189=EDGE_LOOP('',(#742,#743,#744,#745));
#190=EDGE_LOOP('',(#746,#747,#748,#749));
#191=EDGE_LOOP('',(#750,#751,#752,#753));
#192=EDGE_LOOP('',(#754,#755,#756,#757));
#193=EDGE_LOOP('',(#758,#759,#760,#761));
#194=EDGE_LOOP('',(#762,#763,#764,#765));
#195=EDGE_LOOP('',(#766,#767,#768,#769));
#196=EDGE_LOOP('',(#770));
#197=EDGE_LOOP('',(#771));
#198=EDGE_LOOP('',(#772));
#199=EDGE_LOOP('',(#773));
#200=EDGE_LOOP('',(#774,#775,#776,#777));
#201=EDGE_LOOP('',(#778,#779,#780,#781));
#202=EDGE_LOOP('',(#782,#783,#784,#785));
#203=EDGE_LOOP('',(#786,#787,#788,#789));
#204=EDGE_LOOP('',(#790,#791,#792,#793));
#205=EDGE_LOOP('',(#794,#795,#796,#797));
#206=EDGE_LOOP('',(#798,#799,#800,#801));
#207=EDGE_LOOP('',(#802,#803,#804,#805));
#208=EDGE_LOOP('',(#806,#807,#808,#809));
#209=EDGE_LOOP('',(#810,#811,#812,#813,#814,#815,#816,#817));
#210=EDGE_LOOP('',(#818,#819,#820,#821));
#211=EDGE_LOOP('',(#822,#823,#824,#825,#826,#827,#828,#829));
#212=EDGE_LOOP('',(#830,#831,#832,#833));
#213=EDGE_LOOP('',(#834));
#214=EDGE_LOOP('',(#835));
#215=EDGE_LOOP('',(#836));
#216=EDGE_LOOP('',(#837));
#217=EDGE_LOOP('',(#838));
#218=EDGE_LOOP('',(#839));
#219=EDGE_LOOP('',(#840));
#220=EDGE_LOOP('',(#841));
#221=EDGE_LOOP('',(#842));
#222=EDGE_LOOP('',(#843));
#223=EDGE_LOOP('',(#844));
#224=EDGE_LOOP('',(#845));
#225=EDGE_LOOP('',(#846));
#226=EDGE_LOOP('',(#847));
#227=EDGE_LOOP('',(#848));
#228=EDGE_LOOP('',(#849));
#229=EDGE_LOOP('',(#850,#851,#852,#853));
#230=EDGE_LOOP('',(#854));
#231=EDGE_LOOP('',(#855));
#232=EDGE_LOOP('',(#856));
#233=EDGE_LOOP('',(#857));
#234=LINE('',#1327,#298);
#235=LINE('',#1336,#299);
#236=LINE('',#1345,#300);
#237=LINE('',#1354,#301);
#238=LINE('',#1362,#302);
#239=LINE('',#1364,#303);
#240=LINE('',#1366,#304);
#241=LINE('',#1367,#305);
#242=LINE('',#1371,#306);
#243=LINE('',#1373,#307);
#244=LINE('',#1375,#308);
#245=LINE('',#1376,#309);
#246=LINE('',#1378,#310);
#247=LINE('',#1379,#311);
#248=LINE('',#1390,#312);
#249=LINE('',#1392,#313);
#250=LINE('',#1393,#314);
#251=LINE('',#1412,#315);
#252=LINE('',#1414,#316);
#253=LINE('',#1415,#317);
#254=LINE('',#1434,#318);
#255=LINE('',#1438,#319);
#256=LINE('',#1442,#320);
#257=LINE('',#1446,#321);
#258=LINE('',#1450,#322);
#259=LINE('',#1454,#323);
#260=LINE('',#1458,#324);
#261=LINE('',#1462,#325);
#262=LINE('',#1466,#326);
#263=LINE('',#1470,#327);
#264=LINE('',#1474,#328);
#265=LINE('',#1478,#329);
#266=LINE('',#1482,#330);
#267=LINE('',#1486,#331);
#268=LINE('',#1490,#332);
#269=LINE('',#1494,#333);
#270=LINE('',#1499,#334);
#271=LINE('',#1501,#335);
#272=LINE('',#1503,#336);
#273=LINE('',#1504,#337);
#274=LINE('',#1507,#338);
#275=LINE('',#1509,#339);
#276=LINE('',#1510,#340);
#277=LINE('',#1513,#341);
#278=LINE('',#1515,#342);
#279=LINE('',#1516,#343);
#280=LINE('',#1518,#344);
#281=LINE('',#1519,#345);
#282=LINE('',#1531,#346);
#283=LINE('',#1535,#347);
#284=LINE('',#1539,#348);
#285=LINE('',#1543,#349);
#286=LINE('',#1546,#350);
#287=LINE('',#1548,#351);
#288=LINE('',#1550,#352);
#289=LINE('',#1552,#353);
#290=LINE('',#1555,#354);
#291=LINE('',#1557,#355);
#292=LINE('',#1558,#356);
#293=LINE('',#1561,#357);
#294=LINE('',#1562,#358);
#295=LINE('',#1565,#359);
#296=LINE('',#1566,#360);
#297=LINE('',#1568,#361);
#298=VECTOR('',#1056,5.);
#299=VECTOR('',#1067,5.);
#300=VECTOR('',#1078,5.);
#301=VECTOR('',#1089,5.);
#302=VECTOR('',#1098,10.);
#303=VECTOR('',#1099,10.);
#304=VECTOR('',#1100,10.);
#305=VECTOR('',#1101,10.);
#306=VECTOR('',#1104,10.);
#307=VECTOR('',#1105,10.);
#308=VECTOR('',#1106,10.);
#309=VECTOR('',#1107,10.);
#310=VECTOR('',#1110,10.);
#311=VECTOR('',#1111,10.);
#312=VECTOR('',#1122,10.);
#313=VECTOR('',#1123,10.);
#314=VECTOR('',#1124,10.);
#315=VECTOR('',#1143,10.);
#316=VECTOR('',#1144,10.);
#317=VECTOR('',#1145,10.);
#318=VECTOR('',#1164,1.75);
#319=VECTOR('',#1169,1.75);
#320=VECTOR('',#1174,1.75);
#321=VECTOR('',#1179,1.75);
#322=VECTOR('',#1184,1.75);
#323=VECTOR('',#1189,1.75);
#324=VECTOR('',#1194,1.75);
#325=VECTOR('',#1199,1.75);
#326=VECTOR('',#1204,1.75);
#327=VECTOR('',#1209,1.75);
#328=VECTOR('',#1214,1.75);
#329=VECTOR('',#1219,1.75);
#330=VECTOR('',#1224,2.);
#331=VECTOR('',#1229,2.);
#332=VECTOR('',#1234,2.);
#333=VECTOR('',#1239,2.);
#334=VECTOR('',#1244,10.);
#335=VECTOR('',#1245,10.);
#336=VECTOR('',#1246,10.);
#337=VECTOR('',#1247,10.);
#338=VECTOR('',#1250,10.);
#339=VECTOR('',#1251,10.);
#340=VECTOR('',#1252,10.);
#341=VECTOR('',#1255,10.);
#342=VECTOR('',#1256,10.);
#343=VECTOR('',#1257,10.);
#344=VECTOR('',#1260,10.);
#345=VECTOR('',#1261,10.);
#346=VECTOR('',#1274,1.75);
#347=VECTOR('',#1279,1.75);
#348=VECTOR('',#1284,1.75);
#349=VECTOR('',#1289,1.75);
#350=VECTOR('',#1294,2.);
#351=VECTOR('',#1297,2.);
#352=VECTOR('',#1300,2.);
#353=VECTOR('',#1303,2.);
#354=VECTOR('',#1306,10.);
#355=VECTOR('',#1307,10.);
#356=VECTOR('',#1308,10.);
#357=VECTOR('',#1311,10.);
#358=VECTOR('',#1312,10.);
#359=VECTOR('',#1315,10.);
#360=VECTOR('',#1316,10.);
#361=VECTOR('',#1319,10.);
#362=CIRCLE('',#948,5.);
#363=CIRCLE('',#949,5.);
#364=CIRCLE('',#951,2.);
#365=CIRCLE('',#953,5.);
#366=CIRCLE('',#954,5.);
#367=CIRCLE('',#956,2.);
#368=CIRCLE('',#958,5.);
#369=CIRCLE('',#959,5.);
#370=CIRCLE('',#961,2.);
#371=CIRCLE('',#963,5.);
#372=CIRCLE('',#964,5.);
#373=CIRCLE('',#966,2.);
#374=CIRCLE('',#970,2.);
#375=CIRCLE('',#971,2.);
#376=CIRCLE('',#972,2.);
#377=CIRCLE('',#973,2.);
#378=CIRCLE('',#975,1.75);
#379=CIRCLE('',#976,1.75);
#380=CIRCLE('',#977,1.75);
#381=CIRCLE('',#978,1.75);
#382=CIRCLE('',#979,1.75);
#383=CIRCLE('',#980,1.75);
#384=CIRCLE('',#981,1.75);
#385=CIRCLE('',#982,1.75);
#386=CIRCLE('',#984,1.75);
#387=CIRCLE('',#985,1.75);
#388=CIRCLE('',#986,1.75);
#389=CIRCLE('',#987,1.75);
#390=CIRCLE('',#988,1.75);
#391=CIRCLE('',#989,1.75);
#392=CIRCLE('',#990,1.75);
#393=CIRCLE('',#991,1.75);
#394=CIRCLE('',#993,1.75);
#395=CIRCLE('',#995,1.75);
#396=CIRCLE('',#997,1.75);
#397=CIRCLE('',#999,1.75);
#398=CIRCLE('',#1001,1.75);
#399=CIRCLE('',#1003,1.75);
#400=CIRCLE('',#1005,1.75);
#401=CIRCLE('',#1007,1.75);
#402=CIRCLE('',#1009,1.75);
#403=CIRCLE('',#1011,1.75);
#404=CIRCLE('',#1013,1.75);
#405=CIRCLE('',#1015,1.75);
#406=CIRCLE('',#1017,2.);
#407=CIRCLE('',#1019,2.);
#408=CIRCLE('',#1021,2.);
#409=CIRCLE('',#1023,2.);
#410=CIRCLE('',#1029,2.);
#411=CIRCLE('',#1030,2.);
#412=CIRCLE('',#1031,2.);
#413=CIRCLE('',#1032,2.);
#414=CIRCLE('',#1034,1.75);
#415=CIRCLE('',#1036,1.75);
#416=CIRCLE('',#1038,1.75);
#417=CIRCLE('',#1040,1.75);
#418=VERTEX_POINT('',#1324);
#419=VERTEX_POINT('',#1326);
#420=VERTEX_POINT('',#1330);
#421=VERTEX_POINT('',#1333);
#422=VERTEX_POINT('',#1335);
#423=VERTEX_POINT('',#1339);
#424=VERTEX_POINT('',#1342);
#425=VERTEX_POINT('',#1344);
#426=VERTEX_POINT('',#1348);
#427=VERTEX_POINT('',#1351);
#428=VERTEX_POINT('',#1353);
#429=VERTEX_POINT('',#1357);
#430=VERTEX_POINT('',#1360);
#431=VERTEX_POINT('',#1361);
#432=VERTEX_POINT('',#1363);
#433=VERTEX_POINT('',#1365);
#434=VERTEX_POINT('',#1369);
#435=VERTEX_POINT('',#1370);
#436=VERTEX_POINT('',#1372);
#437=VERTEX_POINT('',#1374);
#438=VERTEX_POINT('',#1380);
#439=VERTEX_POINT('',#1382);
#440=VERTEX_POINT('',#1384);
#441=VERTEX_POINT('',#1386);
#442=VERTEX_POINT('',#1389);
#443=VERTEX_POINT('',#1391);
#444=VERTEX_POINT('',#1394);
#445=VERTEX_POINT('',#1396);
#446=VERTEX_POINT('',#1398);
#447=VERTEX_POINT('',#1400);
#448=VERTEX_POINT('',#1402);
#449=VERTEX_POINT('',#1404);
#450=VERTEX_POINT('',#1406);
#451=VERTEX_POINT('',#1408);
#452=VERTEX_POINT('',#1411);
#453=VERTEX_POINT('',#1413);
#454=VERTEX_POINT('',#1416);
#455=VERTEX_POINT('',#1418);
#456=VERTEX_POINT('',#1420);
#457=VERTEX_POINT('',#1422);
#458=VERTEX_POINT('',#1424);
#459=VERTEX_POINT('',#1426);
#460=VERTEX_POINT('',#1428);
#461=VERTEX_POINT('',#1430);
#462=VERTEX_POINT('',#1433);
#463=VERTEX_POINT('',#1437);
#464=VERTEX_POINT('',#1441);
#465=VERTEX_POINT('',#1445);
#466=VERTEX_POINT('',#1449);
#467=VERTEX_POINT('',#1453);
#468=VERTEX_POINT('',#1457);
#469=VERTEX_POINT('',#1461);
#470=VERTEX_POINT('',#1465);
#471=VERTEX_POINT('',#1469);
#472=VERTEX_POINT('',#1473);
#473=VERTEX_POINT('',#1477);
#474=VERTEX_POINT('',#1481);
#475=VERTEX_POINT('',#1485);
#476=VERTEX_POINT('',#1489);
#477=VERTEX_POINT('',#1493);
#478=VERTEX_POINT('',#1497);
#479=VERTEX_POINT('',#1498);
#480=VERTEX_POINT('',#1500);
#481=VERTEX_POINT('',#1502);
#482=VERTEX_POINT('',#1506);
#483=VERTEX_POINT('',#1508);
#484=VERTEX_POINT('',#1512);
#485=VERTEX_POINT('',#1514);
#486=VERTEX_POINT('',#1521);
#487=VERTEX_POINT('',#1523);
#488=VERTEX_POINT('',#1525);
#489=VERTEX_POINT('',#1527);
#490=VERTEX_POINT('',#1530);
#491=VERTEX_POINT('',#1534);
#492=VERTEX_POINT('',#1538);
#493=VERTEX_POINT('',#1542);
#494=VERTEX_POINT('',#1554);
#495=VERTEX_POINT('',#1556);
#496=VERTEX_POINT('',#1560);
#497=VERTEX_POINT('',#1564);
#498=EDGE_CURVE('',#418,#418,#362,.T.);
#499=EDGE_CURVE('',#418,#419,#234,.T.);
#500=EDGE_CURVE('',#419,#419,#363,.T.);
#501=EDGE_CURVE('',#420,#420,#364,.T.);
#502=EDGE_CURVE('',#421,#421,#365,.T.);
#503=EDGE_CURVE('',#421,#422,#235,.T.);
#504=EDGE_CURVE('',#422,#422,#366,.T.);
#505=EDGE_CURVE('',#423,#423,#367,.T.);
#506=EDGE_CURVE('',#424,#424,#368,.T.);
#507=EDGE_CURVE('',#424,#425,#236,.T.);
#508=EDGE_CURVE('',#425,#425,#369,.T.);
#509=EDGE_CURVE('',#426,#426,#370,.T.);
#510=EDGE_CURVE('',#427,#427,#371,.T.);
#511=EDGE_CURVE('',#427,#428,#237,.T.);
#512=EDGE_CURVE('',#428,#428,#372,.T.);
#513=EDGE_CURVE('',#429,#429,#373,.T.);
#514=EDGE_CURVE('',#430,#431,#238,.T.);
#515=EDGE_CURVE('',#430,#432,#239,.T.);
#516=EDGE_CURVE('',#433,#432,#240,.T.);
#517=EDGE_CURVE('',#431,#433,#241,.T.);
#518=EDGE_CURVE('',#434,#435,#242,.T.);
#519=EDGE_CURVE('',#434,#436,#243,.T.);
#520=EDGE_CURVE('',#437,#436,#244,.T.);
#521=EDGE_CURVE('',#435,#437,#245,.T.);
#522=EDGE_CURVE('',#432,#437,#246,.T.);
#523=EDGE_CURVE('',#436,#433,#247,.T.);
#524=EDGE_CURVE('',#438,#438,#374,.T.);
#525=EDGE_CURVE('',#439,#439,#375,.T.);
#526=EDGE_CURVE('',#440,#440,#376,.T.);
#527=EDGE_CURVE('',#441,#441,#377,.T.);
#528=EDGE_CURVE('',#442,#431,#248,.T.);
#529=EDGE_CURVE('',#443,#442,#249,.T.);
#530=EDGE_CURVE('',#430,#443,#250,.T.);
#531=EDGE_CURVE('',#444,#444,#378,.T.);
#532=EDGE_CURVE('',#445,#445,#379,.T.);
#533=EDGE_CURVE('',#446,#446,#380,.T.);
#534=EDGE_CURVE('',#447,#447,#381,.T.);
#535=EDGE_CURVE('',#448,#448,#382,.T.);
#536=EDGE_CURVE('',#449,#449,#383,.T.);
#537=EDGE_CURVE('',#450,#450,#384,.T.);
#538=EDGE_CURVE('',#451,#451,#385,.T.);
#539=EDGE_CURVE('',#452,#435,#251,.T.);
#540=EDGE_CURVE('',#453,#452,#252,.T.);
#541=EDGE_CURVE('',#434,#453,#253,.T.);
#542=EDGE_CURVE('',#454,#454,#386,.T.);
#543=EDGE_CURVE('',#455,#455,#387,.T.);
#544=EDGE_CURVE('',#456,#456,#388,.T.);
#545=EDGE_CURVE('',#457,#457,#389,.T.);
#546=EDGE_CURVE('',#458,#458,#390,.T.);
#547=EDGE_CURVE('',#459,#459,#391,.T.);
#548=EDGE_CURVE('',#460,#460,#392,.T.);
#549=EDGE_CURVE('',#461,#461,#393,.T.);
#550=EDGE_CURVE('',#444,#462,#254,.T.);
#551=EDGE_CURVE('',#462,#462,#394,.T.);
#552=EDGE_CURVE('',#445,#463,#255,.T.);
#553=EDGE_CURVE('',#463,#463,#395,.T.);
#554=EDGE_CURVE('',#461,#464,#256,.T.);
#555=EDGE_CURVE('',#464,#464,#396,.T.);
#556=EDGE_CURVE('',#460,#465,#257,.T.);
#557=EDGE_CURVE('',#465,#465,#397,.T.);
#558=EDGE_CURVE('',#446,#466,#258,.T.);
#559=EDGE_CURVE('',#466,#466,#398,.T.);
#560=EDGE_CURVE('',#447,#467,#259,.T.);
#561=EDGE_CURVE('',#467,#467,#399,.T.);
#562=EDGE_CURVE('',#448,#468,#260,.T.);
#563=EDGE_CURVE('',#468,#468,#400,.T.);
#564=EDGE_CURVE('',#449,#469,#261,.T.);
#565=EDGE_CURVE('',#469,#469,#401,.T.);
#566=EDGE_CURVE('',#459,#470,#262,.T.);
#567=EDGE_CURVE('',#470,#470,#402,.T.);
#568=EDGE_CURVE('',#458,#471,#263,.T.);
#569=EDGE_CURVE('',#471,#471,#403,.T.);
#570=EDGE_CURVE('',#450,#472,#264,.T.);
#571=EDGE_CURVE('',#472,#472,#404,.T.);
#572=EDGE_CURVE('',#451,#473,#265,.T.);
#573=EDGE_CURVE('',#473,#473,#405,.T.);
#574=EDGE_CURVE('',#439,#474,#266,.T.);
#575=EDGE_CURVE('',#474,#474,#406,.T.);
#576=EDGE_CURVE('',#440,#475,#267,.T.);
#577=EDGE_CURVE('',#475,#475,#407,.T.);
#578=EDGE_CURVE('',#438,#476,#268,.T.);
#579=EDGE_CURVE('',#476,#476,#408,.T.);
#580=EDGE_CURVE('',#441,#477,#269,.T.);
#581=EDGE_CURVE('',#477,#477,#409,.T.);
#582=EDGE_CURVE('',#478,#479,#270,.T.);
#583=EDGE_CURVE('',#478,#480,#271,.T.);
#584=EDGE_CURVE('',#481,#480,#272,.T.);
#585=EDGE_CURVE('',#479,#481,#273,.T.);
#586=EDGE_CURVE('',#482,#478,#274,.T.);
#587=EDGE_CURVE('',#482,#483,#275,.T.);
#588=EDGE_CURVE('',#480,#483,#276,.T.);
#589=EDGE_CURVE('',#479,#484,#277,.T.);
#590=EDGE_CURVE('',#485,#481,#278,.T.);
#591=EDGE_CURVE('',#484,#485,#279,.T.);
#592=EDGE_CURVE('',#484,#482,#280,.T.);
#593=EDGE_CURVE('',#483,#485,#281,.T.);
#594=EDGE_CURVE('',#486,#486,#410,.T.);
#595=EDGE_CURVE('',#487,#487,#411,.T.);
#596=EDGE_CURVE('',#488,#488,#412,.T.);
#597=EDGE_CURVE('',#489,#489,#413,.T.);
#598=EDGE_CURVE('',#457,#490,#282,.T.);
#599=EDGE_CURVE('',#490,#490,#414,.T.);
#600=EDGE_CURVE('',#456,#491,#283,.T.);
#601=EDGE_CURVE('',#491,#491,#415,.T.);
#602=EDGE_CURVE('',#455,#492,#284,.T.);
#603=EDGE_CURVE('',#492,#492,#416,.T.);
#604=EDGE_CURVE('',#454,#493,#285,.T.);
#605=EDGE_CURVE('',#493,#493,#417,.T.);
#606=EDGE_CURVE('',#423,#489,#286,.T.);
#607=EDGE_CURVE('',#429,#488,#287,.T.);
#608=EDGE_CURVE('',#426,#487,#288,.T.);
#609=EDGE_CURVE('',#420,#486,#289,.T.);
#610=EDGE_CURVE('',#452,#494,#290,.T.);
#611=EDGE_CURVE('',#495,#494,#291,.T.);
#612=EDGE_CURVE('',#453,#495,#292,.T.);
#613=EDGE_CURVE('',#496,#495,#293,.T.);
#614=EDGE_CURVE('',#442,#496,#294,.T.);
#615=EDGE_CURVE('',#497,#496,#295,.T.);
#616=EDGE_CURVE('',#443,#497,#296,.T.);
#617=EDGE_CURVE('',#494,#497,#297,.T.);
#618=ORIENTED_EDGE('',*,*,#498,.F.);
#619=ORIENTED_EDGE('',*,*,#499,.T.);
#620=ORIENTED_EDGE('',*,*,#500,.T.);
#621=ORIENTED_EDGE('',*,*,#499,.F.);
#622=ORIENTED_EDGE('',*,*,#500,.F.);
#623=ORIENTED_EDGE('',*,*,#501,.F.);
#624=ORIENTED_EDGE('',*,*,#502,.F.);
#625=ORIENTED_EDGE('',*,*,#503,.T.);
#626=ORIENTED_EDGE('',*,*,#504,.T.);
#627=ORIENTED_EDGE('',*,*,#503,.F.);
#628=ORIENTED_EDGE('',*,*,#504,.F.);
#629=ORIENTED_EDGE('',*,*,#505,.F.);
#630=ORIENTED_EDGE('',*,*,#506,.F.);
#631=ORIENTED_EDGE('',*,*,#507,.T.);
#632=ORIENTED_EDGE('',*,*,#508,.T.);
#633=ORIENTED_EDGE('',*,*,#507,.F.);
#634=ORIENTED_EDGE('',*,*,#508,.F.);
#635=ORIENTED_EDGE('',*,*,#509,.F.);
#636=ORIENTED_EDGE('',*,*,#510,.F.);
#637=ORIENTED_EDGE('',*,*,#511,.T.);
#638=ORIENTED_EDGE('',*,*,#512,.T.);
#639=ORIENTED_EDGE('',*,*,#511,.F.);
#640=ORIENTED_EDGE('',*,*,#512,.F.);
#641=ORIENTED_EDGE('',*,*,#513,.F.);
#642=ORIENTED_EDGE('',*,*,#514,.F.);
#643=ORIENTED_EDGE('',*,*,#515,.T.);
#644=ORIENTED_EDGE('',*,*,#516,.F.);
#645=ORIENTED_EDGE('',*,*,#517,.F.);
#646=ORIENTED_EDGE('',*,*,#518,.F.);
#647=ORIENTED_EDGE('',*,*,#519,.T.);
#648=ORIENTED_EDGE('',*,*,#520,.F.);
#649=ORIENTED_EDGE('',*,*,#521,.F.);
#650=ORIENTED_EDGE('',*,*,#522,.T.);
#651=ORIENTED_EDGE('',*,*,#520,.T.);
#652=ORIENTED_EDGE('',*,*,#523,.T.);
#653=ORIENTED_EDGE('',*,*,#516,.T.);
#654=ORIENTED_EDGE('',*,*,#498,.T.);
#655=ORIENTED_EDGE('',*,*,#502,.T.);
#656=ORIENTED_EDGE('',*,*,#506,.T.);
#657=ORIENTED_EDGE('',*,*,#510,.T.);
#658=ORIENTED_EDGE('',*,*,#524,.T.);
#659=ORIENTED_EDGE('',*,*,#525,.T.);
#660=ORIENTED_EDGE('',*,*,#526,.T.);
#661=ORIENTED_EDGE('',*,*,#527,.T.);
#662=ORIENTED_EDGE('',*,*,#514,.T.);
#663=ORIENTED_EDGE('',*,*,#528,.F.);
#664=ORIENTED_EDGE('',*,*,#529,.F.);
#665=ORIENTED_EDGE('',*,*,#530,.F.);
#666=ORIENTED_EDGE('',*,*,#531,.T.);
#667=ORIENTED_EDGE('',*,*,#532,.T.);
#668=ORIENTED_EDGE('',*,*,#533,.T.);
#669=ORIENTED_EDGE('',*,*,#534,.T.);
#670=ORIENTED_EDGE('',*,*,#535,.T.);
#671=ORIENTED_EDGE('',*,*,#536,.T.);
#672=ORIENTED_EDGE('',*,*,#537,.T.);
#673=ORIENTED_EDGE('',*,*,#538,.T.);
#674=ORIENTED_EDGE('',*,*,#518,.T.);
#675=ORIENTED_EDGE('',*,*,#539,.F.);
#676=ORIENTED_EDGE('',*,*,#540,.F.);
#677=ORIENTED_EDGE('',*,*,#541,.F.);
#678=ORIENTED_EDGE('',*,*,#542,.T.);
#679=ORIENTED_EDGE('',*,*,#543,.T.);
#680=ORIENTED_EDGE('',*,*,#544,.T.);
#681=ORIENTED_EDGE('',*,*,#545,.T.);
#682=ORIENTED_EDGE('',*,*,#546,.T.);
#683=ORIENTED_EDGE('',*,*,#547,.T.);
#684=ORIENTED_EDGE('',*,*,#548,.T.);
#685=ORIENTED_EDGE('',*,*,#549,.T.);
#686=ORIENTED_EDGE('',*,*,#531,.F.);
#687=ORIENTED_EDGE('',*,*,#550,.T.);
#688=ORIENTED_EDGE('',*,*,#551,.F.);
#689=ORIENTED_EDGE('',*,*,#550,.F.);
#690=ORIENTED_EDGE('',*,*,#532,.F.);
#691=ORIENTED_EDGE('',*,*,#552,.T.);
#692=ORIENTED_EDGE('',*,*,#553,.F.);
#693=ORIENTED_EDGE('',*,*,#552,.F.);
#694=ORIENTED_EDGE('',*,*,#549,.F.);
#695=ORIENTED_EDGE('',*,*,#554,.T.);
#696=ORIENTED_EDGE('',*,*,#555,.F.);
#697=ORIENTED_EDGE('',*,*,#554,.F.);
#698=ORIENTED_EDGE('',*,*,#548,.F.);
#699=ORIENTED_EDGE('',*,*,#556,.T.);
#700=ORIENTED_EDGE('',*,*,#557,.F.);
#701=ORIENTED_EDGE('',*,*,#556,.F.);
#702=ORIENTED_EDGE('',*,*,#533,.F.);
#703=ORIENTED_EDGE('',*,*,#558,.T.);
#704=ORIENTED_EDGE('',*,*,#559,.F.);
#705=ORIENTED_EDGE('',*,*,#558,.F.);
#706=ORIENTED_EDGE('',*,*,#534,.F.);
#707=ORIENTED_EDGE('',*,*,#560,.T.);
#708=ORIENTED_EDGE('',*,*,#561,.F.);
#709=ORIENTED_EDGE('',*,*,#560,.F.);
#710=ORIENTED_EDGE('',*,*,#535,.F.);
#711=ORIENTED_EDGE('',*,*,#562,.T.);
#712=ORIENTED_EDGE('',*,*,#563,.F.);
#713=ORIENTED_EDGE('',*,*,#562,.F.);
#714=ORIENTED_EDGE('',*,*,#536,.F.);
#715=ORIENTED_EDGE('',*,*,#564,.T.);
#716=ORIENTED_EDGE('',*,*,#565,.F.);
#717=ORIENTED_EDGE('',*,*,#564,.F.);
#718=ORIENTED_EDGE('',*,*,#547,.F.);
#719=ORIENTED_EDGE('',*,*,#566,.T.);
#720=ORIENTED_EDGE('',*,*,#567,.F.);
#721=ORIENTED_EDGE('',*,*,#566,.F.);
#722=ORIENTED_EDGE('',*,*,#546,.F.);
#723=ORIENTED_EDGE('',*,*,#568,.T.);
#724=ORIENTED_EDGE('',*,*,#569,.F.);
#725=ORIENTED_EDGE('',*,*,#568,.F.);
#726=ORIENTED_EDGE('',*,*,#537,.F.);
#727=ORIENTED_EDGE('',*,*,#570,.T.);
#728=ORIENTED_EDGE('',*,*,#571,.F.);
#729=ORIENTED_EDGE('',*,*,#570,.F.);
#730=ORIENTED_EDGE('',*,*,#538,.F.);
#731=ORIENTED_EDGE('',*,*,#572,.T.);
#732=ORIENTED_EDGE('',*,*,#573,.F.);
#733=ORIENTED_EDGE('',*,*,#572,.F.);
#734=ORIENTED_EDGE('',*,*,#525,.F.);
#735=ORIENTED_EDGE('',*,*,#574,.T.);
#736=ORIENTED_EDGE('',*,*,#575,.F.);
#737=ORIENTED_EDGE('',*,*,#574,.F.);
#738=ORIENTED_EDGE('',*,*,#526,.F.);
#739=ORIENTED_EDGE('',*,*,#576,.T.);
#740=ORIENTED_EDGE('',*,*,#577,.F.);
#741=ORIENTED_EDGE('',*,*,#576,.F.);
#742=ORIENTED_EDGE('',*,*,#524,.F.);
#743=ORIENTED_EDGE('',*,*,#578,.T.);
#744=ORIENTED_EDGE('',*,*,#579,.F.);
#745=ORIENTED_EDGE('',*,*,#578,.F.);
#746=ORIENTED_EDGE('',*,*,#527,.F.);
#747=ORIENTED_EDGE('',*,*,#580,.T.);
#748=ORIENTED_EDGE('',*,*,#581,.F.);
#749=ORIENTED_EDGE('',*,*,#580,.F.);
#750=ORIENTED_EDGE('',*,*,#582,.F.);
#751=ORIENTED_EDGE('',*,*,#583,.T.);
#752=ORIENTED_EDGE('',*,*,#584,.F.);
#753=ORIENTED_EDGE('',*,*,#585,.F.);
#754=ORIENTED_EDGE('',*,*,#586,.F.);
#755=ORIENTED_EDGE('',*,*,#587,.T.);
#756=ORIENTED_EDGE('',*,*,#588,.F.);
#757=ORIENTED_EDGE('',*,*,#583,.F.);
#758=ORIENTED_EDGE('',*,*,#589,.F.);
#759=ORIENTED_EDGE('',*,*,#585,.T.);
#760=ORIENTED_EDGE('',*,*,#590,.F.);
#761=ORIENTED_EDGE('',*,*,#591,.F.);
#762=ORIENTED_EDGE('',*,*,#592,.F.);
#763=ORIENTED_EDGE('',*,*,#591,.T.);
#764=ORIENTED_EDGE('',*,*,#593,.F.);
#765=ORIENTED_EDGE('',*,*,#587,.F.);
#766=ORIENTED_EDGE('',*,*,#593,.T.);
#767=ORIENTED_EDGE('',*,*,#590,.T.);
#768=ORIENTED_EDGE('',*,*,#584,.T.);
#769=ORIENTED_EDGE('',*,*,#588,.T.);
#770=ORIENTED_EDGE('',*,*,#594,.T.);
#771=ORIENTED_EDGE('',*,*,#595,.T.);
#772=ORIENTED_EDGE('',*,*,#596,.T.);
#773=ORIENTED_EDGE('',*,*,#597,.T.);
#774=ORIENTED_EDGE('',*,*,#545,.F.);
#775=ORIENTED_EDGE('',*,*,#598,.T.);
#776=ORIENTED_EDGE('',*,*,#599,.F.);
#777=ORIENTED_EDGE('',*,*,#598,.F.);
#778=ORIENTED_EDGE('',*,*,#544,.F.);
#779=ORIENTED_EDGE('',*,*,#600,.T.);
#780=ORIENTED_EDGE('',*,*,#601,.F.);
#781=ORIENTED_EDGE('',*,*,#600,.F.);
#782=ORIENTED_EDGE('',*,*,#543,.F.);
#783=ORIENTED_EDGE('',*,*,#602,.T.);
#784=ORIENTED_EDGE('',*,*,#603,.F.);
#785=ORIENTED_EDGE('',*,*,#602,.F.);
#786=ORIENTED_EDGE('',*,*,#542,.F.);
#787=ORIENTED_EDGE('',*,*,#604,.T.);
#788=ORIENTED_EDGE('',*,*,#605,.F.);
#789=ORIENTED_EDGE('',*,*,#604,.F.);
#790=ORIENTED_EDGE('',*,*,#505,.T.);
#791=ORIENTED_EDGE('',*,*,#606,.T.);
#792=ORIENTED_EDGE('',*,*,#597,.F.);
#793=ORIENTED_EDGE('',*,*,#606,.F.);
#794=ORIENTED_EDGE('',*,*,#513,.T.);
#795=ORIENTED_EDGE('',*,*,#607,.T.);
#796=ORIENTED_EDGE('',*,*,#596,.F.);
#797=ORIENTED_EDGE('',*,*,#607,.F.);
#798=ORIENTED_EDGE('',*,*,#509,.T.);
#799=ORIENTED_EDGE('',*,*,#608,.T.);
#800=ORIENTED_EDGE('',*,*,#595,.F.);
#801=ORIENTED_EDGE('',*,*,#608,.F.);
#802=ORIENTED_EDGE('',*,*,#501,.T.);
#803=ORIENTED_EDGE('',*,*,#609,.T.);
#804=ORIENTED_EDGE('',*,*,#594,.F.);
#805=ORIENTED_EDGE('',*,*,#609,.F.);
#806=ORIENTED_EDGE('',*,*,#540,.T.);
#807=ORIENTED_EDGE('',*,*,#610,.T.);
#808=ORIENTED_EDGE('',*,*,#611,.F.);
#809=ORIENTED_EDGE('',*,*,#612,.F.);
#810=ORIENTED_EDGE('',*,*,#528,.T.);
#811=ORIENTED_EDGE('',*,*,#517,.T.);
#812=ORIENTED_EDGE('',*,*,#523,.F.);
#813=ORIENTED_EDGE('',*,*,#519,.F.);
#814=ORIENTED_EDGE('',*,*,#541,.T.);
#815=ORIENTED_EDGE('',*,*,#612,.T.);
#816=ORIENTED_EDGE('',*,*,#613,.F.);
#817=ORIENTED_EDGE('',*,*,#614,.F.);
#818=ORIENTED_EDGE('',*,*,#529,.T.);
#819=ORIENTED_EDGE('',*,*,#614,.T.);
#820=ORIENTED_EDGE('',*,*,#615,.F.);
#821=ORIENTED_EDGE('',*,*,#616,.F.);
#822=ORIENTED_EDGE('',*,*,#539,.T.);
#823=ORIENTED_EDGE('',*,*,#521,.T.);
#824=ORIENTED_EDGE('',*,*,#522,.F.);
#825=ORIENTED_EDGE('',*,*,#515,.F.);
#826=ORIENTED_EDGE('',*,*,#530,.T.);
#827=ORIENTED_EDGE('',*,*,#616,.T.);
#828=ORIENTED_EDGE('',*,*,#617,.F.);
#829=ORIENTED_EDGE('',*,*,#610,.F.);
#830=ORIENTED_EDGE('',*,*,#617,.T.);
#831=ORIENTED_EDGE('',*,*,#615,.T.);
#832=ORIENTED_EDGE('',*,*,#613,.T.);
#833=ORIENTED_EDGE('',*,*,#611,.T.);
#834=ORIENTED_EDGE('',*,*,#551,.T.);
#835=ORIENTED_EDGE('',*,*,#553,.T.);
#836=ORIENTED_EDGE('',*,*,#555,.T.);
#837=ORIENTED_EDGE('',*,*,#557,.T.);
#838=ORIENTED_EDGE('',*,*,#559,.T.);
#839=ORIENTED_EDGE('',*,*,#561,.T.);
#840=ORIENTED_EDGE('',*,*,#563,.T.);
#841=ORIENTED_EDGE('',*,*,#565,.T.);
#842=ORIENTED_EDGE('',*,*,#567,.T.);
#843=ORIENTED_EDGE('',*,*,#569,.T.);
#844=ORIENTED_EDGE('',*,*,#571,.T.);
#845=ORIENTED_EDGE('',*,*,#573,.T.);
#846=ORIENTED_EDGE('',*,*,#575,.T.);
#847=ORIENTED_EDGE('',*,*,#577,.T.);
#848=ORIENTED_EDGE('',*,*,#579,.T.);
#849=ORIENTED_EDGE('',*,*,#581,.T.);
#850=ORIENTED_EDGE('',*,*,#586,.T.);
#851=ORIENTED_EDGE('',*,*,#582,.T.);
#852=ORIENTED_EDGE('',*,*,#589,.T.);
#853=ORIENTED_EDGE('',*,*,#592,.T.);
#854=ORIENTED_EDGE('',*,*,#599,.T.);
#855=ORIENTED_EDGE('',*,*,#601,.T.);
#856=ORIENTED_EDGE('',*,*,#603,.T.);
#857=ORIENTED_EDGE('',*,*,#605,.T.);
#858=CYLINDRICAL_SURFACE('',#947,5.);
#859=CYLINDRICAL_SURFACE('',#952,5.);
#860=CYLINDRICAL_SURFACE('',#957,5.);
#861=CYLINDRICAL_SURFACE('',#962,5.);
#862=CYLINDRICAL_SURFACE('',#992,1.75);
#863=CYLINDRICAL_SURFACE('',#994,1.75);
#864=CYLINDRICAL_SURFACE('',#996,1.75);
#865=CYLINDRICAL_SURFACE('',#998,1.75);
#866=CYLINDRICAL_SURFACE('',#1000,1.75);
#867=CYLINDRICAL_SURFACE('',#1002,1.75);
#868=CYLINDRICAL_SURFACE('',#1004,1.75);
#869=CYLINDRICAL_SURFACE('',#1006,1.75);
#870=CYLINDRICAL_SURFACE('',#1008,1.75);
#871=CYLINDRICAL_SURFACE('',#1010,1.75);
#872=CYLINDRICAL_SURFACE('',#1012,1.75);
#873=CYLINDRICAL_SURFACE('',#1014,1.75);
#874=CYLINDRICAL_SURFACE('',#1016,2.);
#875=CYLINDRICAL_SURFACE('',#1018,2.);
#876=CYLINDRICAL_SURFACE('',#1020,2.);
#877=CYLINDRICAL_SURFACE('',#1022,2.);
#878=CYLINDRICAL_SURFACE('',#1033,1.75);
#879=CYLINDRICAL_SURFACE('',#1035,1.75);
#880=CYLINDRICAL_SURFACE('',#1037,1.75);
#881=CYLINDRICAL_SURFACE('',#1039,1.75);
#882=CYLINDRICAL_SURFACE('',#1041,2.);
#883=CYLINDRICAL_SURFACE('',#1042,2.);
#884=CYLINDRICAL_SURFACE('',#1043,2.);
#885=CYLINDRICAL_SURFACE('',#1044,2.);
#886=ADVANCED_FACE('',(#87),#858,.F.);
#887=ADVANCED_FACE('',(#88,#15),#68,.T.);
#888=ADVANCED_FACE('',(#89),#859,.F.);
#889=ADVANCED_FACE('',(#90,#16),#69,.T.);
#890=ADVANCED_FACE('',(#91),#860,.F.);
#891=ADVANCED_FACE('',(#92,#17),#70,.T.);
#892=ADVANCED_FACE('',(#93),#861,.F.);
#893=ADVANCED_FACE('',(#94,#18),#71,.T.);
#894=ADVANCED_FACE('',(#95),#72,.T.);
#895=ADVANCED_FACE('',(#96),#73,.T.);
#896=ADVANCED_FACE('',(#97,#19,#20,#21,#22,#23,#24,#25,#26),#74,.T.);
#897=ADVANCED_FACE('',(#98,#27,#28,#29,#30,#31,#32,#33,#34),#75,.T.);
#898=ADVANCED_FACE('',(#99,#35,#36,#37,#38,#39,#40,#41,#42),#76,.T.);
#899=ADVANCED_FACE('',(#100),#862,.F.);
#900=ADVANCED_FACE('',(#101),#863,.F.);
#901=ADVANCED_FACE('',(#102),#864,.F.);
#902=ADVANCED_FACE('',(#103),#865,.F.);
#903=ADVANCED_FACE('',(#104),#866,.F.);
#904=ADVANCED_FACE('',(#105),#867,.F.);
#905=ADVANCED_FACE('',(#106),#868,.F.);
#906=ADVANCED_FACE('',(#107),#869,.F.);
#907=ADVANCED_FACE('',(#108),#870,.F.);
#908=ADVANCED_FACE('',(#109),#871,.F.);
#909=ADVANCED_FACE('',(#110),#872,.F.);
#910=ADVANCED_FACE('',(#111),#873,.F.);
#911=ADVANCED_FACE('',(#112),#874,.F.);
#912=ADVANCED_FACE('',(#113),#875,.F.);
#913=ADVANCED_FACE('',(#114),#876,.F.);
#914=ADVANCED_FACE('',(#115),#877,.F.);
#915=ADVANCED_FACE('',(#116),#77,.T.);
#916=ADVANCED_FACE('',(#117),#78,.T.);
#917=ADVANCED_FACE('',(#118),#79,.T.);
#918=ADVANCED_FACE('',(#119),#80,.T.);
#919=ADVANCED_FACE('',(#120,#43,#44,#45,#46),#81,.F.);
#920=ADVANCED_FACE('',(#121),#878,.F.);
#921=ADVANCED_FACE('',(#122),#879,.F.);
#922=ADVANCED_FACE('',(#123),#880,.F.);
#923=ADVANCED_FACE('',(#124),#881,.F.);
#924=ADVANCED_FACE('',(#125),#882,.F.);
#925=ADVANCED_FACE('',(#126),#883,.F.);
#926=ADVANCED_FACE('',(#127),#884,.F.);
#927=ADVANCED_FACE('',(#128),#885,.F.);
#928=ADVANCED_FACE('',(#129),#82,.T.);
#929=ADVANCED_FACE('',(#130),#83,.T.);
#930=ADVANCED_FACE('',(#131),#84,.T.);
#931=ADVANCED_FACE('',(#132),#85,.T.);
#932=ADVANCED_FACE('',(#133,#47,#48,#49,#50,#51,#52,#53,#54,#55,#56,#57,
#58,#59,#60,#61,#62,#63,#64,#65,#66,#67),#86,.T.);
#933=CLOSED_SHELL('',(#886,#887,#888,#889,#890,#891,#892,#893,#894,#895,
#896,#897,#898,#899,#900,#901,#902,#903,#904,#905,#906,#907,#908,#909,#910,
#911,#912,#913,#914,#915,#916,#917,#918,#919,#920,#921,#922,#923,#924,#925,
#926,#927,#928,#929,#930,#931,#932));
#934=DERIVED_UNIT_ELEMENT(#936,1.);
#935=DERIVED_UNIT_ELEMENT(#1575,-3.);
#936=(
MASS_UNIT()
NAMED_UNIT(*)
SI_UNIT(.KILO.,.GRAM.)
);
#937=DERIVED_UNIT((#934,#935));
#938=MEASURE_REPRESENTATION_ITEM('density measure',
POSITIVE_RATIO_MEASURE(7850.),#937);
#939=PROPERTY_DEFINITION_REPRESENTATION(#944,#941);
#940=PROPERTY_DEFINITION_REPRESENTATION(#945,#942);
#941=REPRESENTATION('material name',(#943),#1572);
#942=REPRESENTATION('density',(#938),#1572);
#943=DESCRIPTIVE_REPRESENTATION_ITEM('A\X\E7o','A\X\E7o');
#944=PROPERTY_DEFINITION('material property','material name',#1582);
#945=PROPERTY_DEFINITION('material property','density of part',#1582);
#946=AXIS2_PLACEMENT_3D('',#1322,#1050,#1051);
#947=AXIS2_PLACEMENT_3D('',#1323,#1052,#1053);
#948=AXIS2_PLACEMENT_3D('',#1325,#1054,#1055);
#949=AXIS2_PLACEMENT_3D('',#1328,#1057,#1058);
#950=AXIS2_PLACEMENT_3D('',#1329,#1059,#1060);
#951=AXIS2_PLACEMENT_3D('',#1331,#1061,#1062);
#952=AXIS2_PLACEMENT_3D('',#1332,#1063,#1064);
#953=AXIS2_PLACEMENT_3D('',#1334,#1065,#1066);
#954=AXIS2_PLACEMENT_3D('',#1337,#1068,#1069);
#955=AXIS2_PLACEMENT_3D('',#1338,#1070,#1071);
#956=AXIS2_PLACEMENT_3D('',#1340,#1072,#1073);
#957=AXIS2_PLACEMENT_3D('',#1341,#1074,#1075);
#958=AXIS2_PLACEMENT_3D('',#1343,#1076,#1077);
#959=AXIS2_PLACEMENT_3D('',#1346,#1079,#1080);
#960=AXIS2_PLACEMENT_3D('',#1347,#1081,#1082);
#961=AXIS2_PLACEMENT_3D('',#1349,#1083,#1084);
#962=AXIS2_PLACEMENT_3D('',#1350,#1085,#1086);
#963=AXIS2_PLACEMENT_3D('',#1352,#1087,#1088);
#964=AXIS2_PLACEMENT_3D('',#1355,#1090,#1091);
#965=AXIS2_PLACEMENT_3D('',#1356,#1092,#1093);
#966=AXIS2_PLACEMENT_3D('',#1358,#1094,#1095);
#967=AXIS2_PLACEMENT_3D('',#1359,#1096,#1097);
#968=AXIS2_PLACEMENT_3D('',#1368,#1102,#1103);
#969=AXIS2_PLACEMENT_3D('',#1377,#1108,#1109);
#970=AXIS2_PLACEMENT_3D('',#1381,#1112,#1113);
#971=AXIS2_PLACEMENT_3D('',#1383,#1114,#1115);
#972=AXIS2_PLACEMENT_3D('',#1385,#1116,#1117);
#973=AXIS2_PLACEMENT_3D('',#1387,#1118,#1119);
#974=AXIS2_PLACEMENT_3D('',#1388,#1120,#1121);
#975=AXIS2_PLACEMENT_3D('',#1395,#1125,#1126);
#976=AXIS2_PLACEMENT_3D('',#1397,#1127,#1128);
#977=AXIS2_PLACEMENT_3D('',#1399,#1129,#1130);
#978=AXIS2_PLACEMENT_3D('',#1401,#1131,#1132);
#979=AXIS2_PLACEMENT_3D('',#1403,#1133,#1134);
#980=AXIS2_PLACEMENT_3D('',#1405,#1135,#1136);
#981=AXIS2_PLACEMENT_3D('',#1407,#1137,#1138);
#982=AXIS2_PLACEMENT_3D('',#1409,#1139,#1140);
#983=AXIS2_PLACEMENT_3D('',#1410,#1141,#1142);
#984=AXIS2_PLACEMENT_3D('',#1417,#1146,#1147);
#985=AXIS2_PLACEMENT_3D('',#1419,#1148,#1149);
#986=AXIS2_PLACEMENT_3D('',#1421,#1150,#1151);
#987=AXIS2_PLACEMENT_3D('',#1423,#1152,#1153);
#988=AXIS2_PLACEMENT_3D('',#1425,#1154,#1155);
#989=AXIS2_PLACEMENT_3D('',#1427,#1156,#1157);
#990=AXIS2_PLACEMENT_3D('',#1429,#1158,#1159);
#991=AXIS2_PLACEMENT_3D('',#1431,#1160,#1161);
#992=AXIS2_PLACEMENT_3D('',#1432,#1162,#1163);
#993=AXIS2_PLACEMENT_3D('',#1435,#1165,#1166);
#994=AXIS2_PLACEMENT_3D('',#1436,#1167,#1168);
#995=AXIS2_PLACEMENT_3D('',#1439,#1170,#1171);
#996=AXIS2_PLACEMENT_3D('',#1440,#1172,#1173);
#997=AXIS2_PLACEMENT_3D('',#1443,#1175,#1176);
#998=AXIS2_PLACEMENT_3D('',#1444,#1177,#1178);
#999=AXIS2_PLACEMENT_3D('',#1447,#1180,#1181);
#1000=AXIS2_PLACEMENT_3D('',#1448,#1182,#1183);
#1001=AXIS2_PLACEMENT_3D('',#1451,#1185,#1186);
#1002=AXIS2_PLACEMENT_3D('',#1452,#1187,#1188);
#1003=AXIS2_PLACEMENT_3D('',#1455,#1190,#1191);
#1004=AXIS2_PLACEMENT_3D('',#1456,#1192,#1193);
#1005=AXIS2_PLACEMENT_3D('',#1459,#1195,#1196);
#1006=AXIS2_PLACEMENT_3D('',#1460,#1197,#1198);
#1007=AXIS2_PLACEMENT_3D('',#1463,#1200,#1201);
#1008=AXIS2_PLACEMENT_3D('',#1464,#1202,#1203);
#1009=AXIS2_PLACEMENT_3D('',#1467,#1205,#1206);
#1010=AXIS2_PLACEMENT_3D('',#1468,#1207,#1208);
#1011=AXIS2_PLACEMENT_3D('',#1471,#1210,#1211);
#1012=AXIS2_PLACEMENT_3D('',#1472,#1212,#1213);
#1013=AXIS2_PLACEMENT_3D('',#1475,#1215,#1216);
#1014=AXIS2_PLACEMENT_3D('',#1476,#1217,#1218);
#1015=AXIS2_PLACEMENT_3D('',#1479,#1220,#1221);
#1016=AXIS2_PLACEMENT_3D('',#1480,#1222,#1223);
#1017=AXIS2_PLACEMENT_3D('',#1483,#1225,#1226);
#1018=AXIS2_PLACEMENT_3D('',#1484,#1227,#1228);
#1019=AXIS2_PLACEMENT_3D('',#1487,#1230,#1231);
#1020=AXIS2_PLACEMENT_3D('',#1488,#1232,#1233);
#1021=AXIS2_PLACEMENT_3D('',#1491,#1235,#1236);
#1022=AXIS2_PLACEMENT_3D('',#1492,#1237,#1238);
#1023=AXIS2_PLACEMENT_3D('',#1495,#1240,#1241);
#1024=AXIS2_PLACEMENT_3D('',#1496,#1242,#1243);
#1025=AXIS2_PLACEMENT_3D('',#1505,#1248,#1249);
#1026=AXIS2_PLACEMENT_3D('',#1511,#1253,#1254);
#1027=AXIS2_PLACEMENT_3D('',#1517,#1258,#1259);
#1028=AXIS2_PLACEMENT_3D('',#1520,#1262,#1263);
#1029=AXIS2_PLACEMENT_3D('',#1522,#1264,#1265);
#1030=AXIS2_PLACEMENT_3D('',#1524,#1266,#1267);
#1031=AXIS2_PLACEMENT_3D('',#1526,#1268,#1269);
#1032=AXIS2_PLACEMENT_3D('',#1528,#1270,#1271);
#1033=AXIS2_PLACEMENT_3D('',#1529,#1272,#1273);
#1034=AXIS2_PLACEMENT_3D('',#1532,#1275,#1276);
#1035=AXIS2_PLACEMENT_3D('',#1533,#1277,#1278);
#1036=AXIS2_PLACEMENT_3D('',#1536,#1280,#1281);
#1037=AXIS2_PLACEMENT_3D('',#1537,#1282,#1283);
#1038=AXIS2_PLACEMENT_3D('',#1540,#1285,#1286);
#1039=AXIS2_PLACEMENT_3D('',#1541,#1287,#1288);
#1040=AXIS2_PLACEMENT_3D('',#1544,#1290,#1291);
#1041=AXIS2_PLACEMENT_3D('',#1545,#1292,#1293);
#1042=AXIS2_PLACEMENT_3D('',#1547,#1295,#1296);
#1043=AXIS2_PLACEMENT_3D('',#1549,#1298,#1299);
#1044=AXIS2_PLACEMENT_3D('',#1551,#1301,#1302);
#1045=AXIS2_PLACEMENT_3D('',#1553,#1304,#1305);
#1046=AXIS2_PLACEMENT_3D('',#1559,#1309,#1310);
#1047=AXIS2_PLACEMENT_3D('',#1563,#1313,#1314);
#1048=AXIS2_PLACEMENT_3D('',#1567,#1317,#1318);
#1049=AXIS2_PLACEMENT_3D('',#1569,#1320,#1321);
#1050=DIRECTION('axis',(0.,0.,1.));
#1051=DIRECTION('refdir',(1.,0.,0.));
#1052=DIRECTION('center_axis',(0.,0.,-1.));
#1053=DIRECTION('ref_axis',(-1.,0.,0.));
#1054=DIRECTION('center_axis',(0.,0.,-1.));
#1055=DIRECTION('ref_axis',(-1.,0.,0.));
#1056=DIRECTION('',(0.,0.,-1.));
#1057=DIRECTION('center_axis',(0.,0.,-1.));
#1058=DIRECTION('ref_axis',(-1.,0.,0.));
#1059=DIRECTION('center_axis',(0.,0.,1.));
#1060=DIRECTION('ref_axis',(-1.,0.,0.));
#1061=DIRECTION('center_axis',(0.,0.,1.));
#1062=DIRECTION('ref_axis',(-1.,0.,0.));
#1063=DIRECTION('center_axis',(0.,0.,-1.));
#1064=DIRECTION('ref_axis',(-1.,0.,0.));
#1065=DIRECTION('center_axis',(0.,0.,-1.));
#1066=DIRECTION('ref_axis',(-1.,0.,0.));
#1067=DIRECTION('',(0.,0.,-1.));
#1068=DIRECTION('center_axis',(0.,0.,-1.));
#1069=DIRECTION('ref_axis',(-1.,0.,0.));
#1070=DIRECTION('center_axis',(0.,0.,1.));
#1071=DIRECTION('ref_axis',(-1.,0.,0.));
#1072=DIRECTION('center_axis',(0.,0.,1.));
#1073=DIRECTION('ref_axis',(-1.,0.,0.));
#1074=DIRECTION('center_axis',(0.,0.,-1.));
#1075=DIRECTION('ref_axis',(-1.,0.,0.));
#1076=DIRECTION('center_axis',(0.,0.,-1.));
#1077=DIRECTION('ref_axis',(-1.,0.,0.));
#1078=DIRECTION('',(0.,0.,-1.));
#1079=DIRECTION('center_axis',(0.,0.,-1.));
#1080=DIRECTION('ref_axis',(-1.,0.,0.));
#1081=DIRECTION('center_axis',(0.,0.,1.));
#1082=DIRECTION('ref_axis',(-1.,0.,0.));
#1083=DIRECTION('center_axis',(0.,0.,1.));
#1084=DIRECTION('ref_axis',(-1.,0.,0.));
#1085=DIRECTION('center_axis',(0.,0.,-1.));
#1086=DIRECTION('ref_axis',(-1.,0.,0.));
#1087=DIRECTION('center_axis',(0.,0.,-1.));
#1088=DIRECTION('ref_axis',(-1.,0.,0.));
#1089=DIRECTION('',(0.,0.,-1.));
#1090=DIRECTION('center_axis',(0.,0.,-1.));
#1091=DIRECTION('ref_axis',(-1.,0.,0.));
#1092=DIRECTION('center_axis',(0.,0.,1.));
#1093=DIRECTION('ref_axis',(-1.,0.,0.));
#1094=DIRECTION('center_axis',(0.,0.,1.));
#1095=DIRECTION('ref_axis',(-1.,0.,0.));
#1096=DIRECTION('center_axis',(1.,0.,0.));
#1097=DIRECTION('ref_axis',(0.,1.,0.));
#1098=DIRECTION('',(0.,-1.,0.));
#1099=DIRECTION('',(0.,0.,1.));
#1100=DIRECTION('',(0.,1.,0.));
#1101=DIRECTION('',(0.,0.,1.));
#1102=DIRECTION('center_axis',(-1.,0.,0.));
#1103=DIRECTION('ref_axis',(0.,-1.,0.));
#1104=DIRECTION('',(0.,1.,0.));
#1105=DIRECTION('',(0.,0.,1.));
#1106=DIRECTION('',(0.,-1.,0.));
#1107=DIRECTION('',(0.,0.,1.));
#1108=DIRECTION('center_axis',(0.,0.,1.));
#1109=DIRECTION('ref_axis',(-1.,0.,0.));
#1110=DIRECTION('',(-1.,0.,0.));
#1111=DIRECTION('',(1.,0.,0.));
#1112=DIRECTION('center_axis',(0.,0.,-1.));
#1113=DIRECTION('ref_axis',(-1.,0.,0.));
#1114=DIRECTION('center_axis',(0.,0.,-1.));
#1115=DIRECTION('ref_axis',(-1.,0.,0.));
#1116=DIRECTION('center_axis',(0.,0.,-1.));
#1117=DIRECTION('ref_axis',(-1.,0.,0.));
#1118=DIRECTION('center_axis',(0.,0.,-1.));
#1119=DIRECTION('ref_axis',(-1.,0.,0.));
#1120=DIRECTION('center_axis',(0.,0.,1.));
#1121=DIRECTION('ref_axis',(1.,0.,0.));
#1122=DIRECTION('',(-1.,0.,0.));
#1123=DIRECTION('',(0.,-1.,0.));
#1124=DIRECTION('',(1.,2.96059473233375E-17,0.));
#1125=DIRECTION('center_axis',(0.,0.,-1.));
#1126=DIRECTION('ref_axis',(-1.,0.,0.));
#1127=DIRECTION('center_axis',(0.,0.,-1.));
#1128=DIRECTION('ref_axis',(-1.,0.,0.));
#1129=DIRECTION('center_axis',(0.,0.,-1.));
#1130=DIRECTION('ref_axis',(-1.,0.,0.));
#1131=DIRECTION('center_axis',(0.,0.,-1.));
#1132=DIRECTION('ref_axis',(-1.,0.,0.));
#1133=DIRECTION('center_axis',(0.,0.,-1.));
#1134=DIRECTION('ref_axis',(-1.,0.,0.));
#1135=DIRECTION('center_axis',(0.,0.,-1.));
#1136=DIRECTION('ref_axis',(-1.,0.,0.));
#1137=DIRECTION('center_axis',(0.,0.,-1.));
#1138=DIRECTION('ref_axis',(-1.,0.,0.));
#1139=DIRECTION('center_axis',(0.,0.,-1.));
#1140=DIRECTION('ref_axis',(-1.,0.,0.));
#1141=DIRECTION('center_axis',(0.,0.,1.));
#1142=DIRECTION('ref_axis',(1.,0.,0.));
#1143=DIRECTION('',(1.,2.96059473233375E-17,0.));
#1144=DIRECTION('',(0.,1.,0.));
#1145=DIRECTION('',(-1.,0.,0.));
#1146=DIRECTION('center_axis',(0.,0.,-1.));
#1147=DIRECTION('ref_axis',(-1.,0.,0.));
#1148=DIRECTION('center_axis',(0.,0.,-1.));
#1149=DIRECTION('ref_axis',(-1.,0.,0.));
#1150=DIRECTION('center_axis',(0.,0.,-1.));
#1151=DIRECTION('ref_axis',(-1.,0.,0.));
#1152=DIRECTION('center_axis',(0.,0.,-1.));
#1153=DIRECTION('ref_axis',(-1.,0.,0.));
#1154=DIRECTION('center_axis',(0.,0.,-1.));
#1155=DIRECTION('ref_axis',(-1.,0.,0.));
#1156=DIRECTION('center_axis',(0.,0.,-1.));
#1157=DIRECTION('ref_axis',(-1.,0.,0.));
#1158=DIRECTION('center_axis',(0.,0.,-1.));
#1159=DIRECTION('ref_axis',(-1.,0.,0.));
#1160=DIRECTION('center_axis',(0.,0.,-1.));
#1161=DIRECTION('ref_axis',(-1.,0.,0.));
#1162=DIRECTION('center_axis',(0.,0.,-1.));
#1163=DIRECTION('ref_axis',(-1.,0.,0.));
#1164=DIRECTION('',(0.,0.,-1.));
#1165=DIRECTION('center_axis',(0.,0.,1.));
#1166=DIRECTION('ref_axis',(-1.,0.,0.));
#1167=DIRECTION('center_axis',(0.,0.,-1.));
#1168=DIRECTION('ref_axis',(-1.,0.,0.));
#1169=DIRECTION('',(0.,0.,-1.));
#1170=DIRECTION('center_axis',(0.,0.,1.));
#1171=DIRECTION('ref_axis',(-1.,0.,0.));
#1172=DIRECTION('center_axis',(0.,0.,-1.));
#1173=DIRECTION('ref_axis',(-1.,0.,0.));
#1174=DIRECTION('',(0.,0.,-1.));
#1175=DIRECTION('center_axis',(0.,0.,1.));
#1176=DIRECTION('ref_axis',(-1.,0.,0.));
#1177=DIRECTION('center_axis',(0.,0.,-1.));
#1178=DIRECTION('ref_axis',(-1.,0.,0.));
#1179=DIRECTION('',(0.,0.,-1.));
#1180=DIRECTION('center_axis',(0.,0.,1.));
#1181=DIRECTION('ref_axis',(-1.,0.,0.));
#1182=DIRECTION('center_axis',(0.,0.,-1.));
#1183=DIRECTION('ref_axis',(-1.,0.,0.));
#1184=DIRECTION('',(0.,0.,-1.));
#1185=DIRECTION('center_axis',(0.,0.,1.));
#1186=DIRECTION('ref_axis',(-1.,0.,0.));
#1187=DIRECTION('center_axis',(0.,0.,-1.));
#1188=DIRECTION('ref_axis',(-1.,0.,0.));
#1189=DIRECTION('',(0.,0.,-1.));
#1190=DIRECTION('center_axis',(0.,0.,1.));
#1191=DIRECTION('ref_axis',(-1.,0.,0.));
#1192=DIRECTION('center_axis',(0.,0.,-1.));
#1193=DIRECTION('ref_axis',(-1.,0.,0.));
#1194=DIRECTION('',(0.,0.,-1.));
#1195=DIRECTION('center_axis',(0.,0.,1.));
#1196=DIRECTION('ref_axis',(-1.,0.,0.));
#1197=DIRECTION('center_axis',(0.,0.,-1.));
#1198=DIRECTION('ref_axis',(-1.,0.,0.));
#1199=DIRECTION('',(0.,0.,-1.));
#1200=DIRECTION('center_axis',(0.,0.,1.));
#1201=DIRECTION('ref_axis',(-1.,0.,0.));
#1202=DIRECTION('center_axis',(0.,0.,-1.));
#1203=DIRECTION('ref_axis',(-1.,0.,0.));
#1204=DIRECTION('',(0.,0.,-1.));
#1205=DIRECTION('center_axis',(0.,0.,1.));
#1206=DIRECTION('ref_axis',(-1.,0.,0.));
#1207=DIRECTION('center_axis',(0.,0.,-1.));
#1208=DIRECTION('ref_axis',(-1.,0.,0.));
#1209=DIRECTION('',(0.,0.,-1.));
#1210=DIRECTION('center_axis',(0.,0.,1.));
#1211=DIRECTION('ref_axis',(-1.,0.,0.));
#1212=DIRECTION('center_axis',(0.,0.,-1.));
#1213=DIRECTION('ref_axis',(-1.,0.,0.));
#1214=DIRECTION('',(0.,0.,-1.));
#1215=DIRECTION('center_axis',(0.,0.,1.));
#1216=DIRECTION('ref_axis',(-1.,0.,0.));
#1217=DIRECTION('center_axis',(0.,0.,-1.));
#1218=DIRECTION('ref_axis',(-1.,0.,0.));
#1219=DIRECTION('',(0.,0.,-1.));
#1220=DIRECTION('center_axis',(0.,0.,1.));
#1221=DIRECTION('ref_axis',(-1.,0.,0.));
#1222=DIRECTION('center_axis',(0.,0.,-1.));
#1223=DIRECTION('ref_axis',(1.,0.,0.));
#1224=DIRECTION('',(0.,0.,-1.));
#1225=DIRECTION('center_axis',(0.,0.,1.));
#1226=DIRECTION('ref_axis',(1.,0.,0.));
#1227=DIRECTION('center_axis',(0.,0.,-1.));
#1228=DIRECTION('ref_axis',(1.,0.,0.));
#1229=DIRECTION('',(0.,0.,-1.));
#1230=DIRECTION('center_axis',(0.,0.,1.));
#1231=DIRECTION('ref_axis',(1.,0.,0.));
#1232=DIRECTION('center_axis',(0.,0.,-1.));
#1233=DIRECTION('ref_axis',(1.,0.,0.));
#1234=DIRECTION('',(0.,0.,-1.));
#1235=DIRECTION('center_axis',(0.,0.,1.));
#1236=DIRECTION('ref_axis',(1.,0.,0.));
#1237=DIRECTION('center_axis',(0.,0.,-1.));
#1238=DIRECTION('ref_axis',(1.,0.,0.));
#1239=DIRECTION('',(0.,0.,-1.));
#1240=DIRECTION('center_axis',(0.,0.,1.));
#1241=DIRECTION('ref_axis',(1.,0.,0.));
#1242=DIRECTION('center_axis',(1.,0.,0.));
#1243=DIRECTION('ref_axis',(0.,-1.,0.));
#1244=DIRECTION('',(0.,1.,0.));
#1245=DIRECTION('',(0.,0.,-1.));
#1246=DIRECTION('',(0.,-1.,0.));
#1247=DIRECTION('',(0.,0.,-1.));
#1248=DIRECTION('center_axis',(0.,-1.,0.));
#1249=DIRECTION('ref_axis',(-1.,0.,0.));
#1250=DIRECTION('',(1.,0.,0.));
#1251=DIRECTION('',(0.,0.,-1.));
#1252=DIRECTION('',(-1.,0.,0.));
#1253=DIRECTION('center_axis',(0.,1.,0.));
#1254=DIRECTION('ref_axis',(1.,0.,0.));
#1255=DIRECTION('',(-1.,0.,0.));
#1256=DIRECTION('',(1.,0.,0.));
#1257=DIRECTION('',(0.,0.,-1.));
#1258=DIRECTION('center_axis',(-1.,0.,0.));
#1259=DIRECTION('ref_axis',(0.,1.,0.));
#1260=DIRECTION('',(0.,-1.,0.));
#1261=DIRECTION('',(0.,1.,0.));
#1262=DIRECTION('center_axis',(0.,0.,1.));
#1263=DIRECTION('ref_axis',(-1.,0.,0.));
#1264=DIRECTION('center_axis',(0.,0.,1.));
#1265=DIRECTION('ref_axis',(-1.,0.,0.));
#1266=DIRECTION('center_axis',(0.,0.,1.));
#1267=DIRECTION('ref_axis',(-1.,0.,0.));
#1268=DIRECTION('center_axis',(0.,0.,1.));
#1269=DIRECTION('ref_axis',(-1.,0.,0.));
#1270=DIRECTION('center_axis',(0.,0.,1.));
#1271=DIRECTION('ref_axis',(-1.,0.,0.));
#1272=DIRECTION('center_axis',(0.,0.,-1.));
#1273=DIRECTION('ref_axis',(-1.,0.,0.));
#1274=DIRECTION('',(0.,0.,-1.));
#1275=DIRECTION('center_axis',(0.,0.,1.));
#1276=DIRECTION('ref_axis',(-1.,0.,0.));
#1277=DIRECTION('center_axis',(0.,0.,-1.));
#1278=DIRECTION('ref_axis',(-1.,0.,0.));
#1279=DIRECTION('',(0.,0.,-1.));
#1280=DIRECTION('center_axis',(0.,0.,1.));
#1281=DIRECTION('ref_axis',(-1.,0.,0.));
#1282=DIRECTION('center_axis',(0.,0.,-1.));
#1283=DIRECTION('ref_axis',(-1.,0.,0.));
#1284=DIRECTION('',(0.,0.,-1.));
#1285=DIRECTION('center_axis',(0.,0.,1.));
#1286=DIRECTION('ref_axis',(-1.,0.,0.));
#1287=DIRECTION('center_axis',(0.,0.,-1.));
#1288=DIRECTION('ref_axis',(-1.,0.,0.));
#1289=DIRECTION('',(0.,0.,-1.));
#1290=DIRECTION('center_axis',(0.,0.,1.));
#1291=DIRECTION('ref_axis',(-1.,0.,0.));
#1292=DIRECTION('center_axis',(0.,0.,-1.));
#1293=DIRECTION('ref_axis',(-1.,0.,0.));
#1294=DIRECTION('',(0.,0.,-1.));
#1295=DIRECTION('center_axis',(0.,0.,-1.));
#1296=DIRECTION('ref_axis',(-1.,0.,0.));
#1297=DIRECTION('',(0.,0.,-1.));
#1298=DIRECTION('center_axis',(0.,0.,-1.));
#1299=DIRECTION('ref_axis',(-1.,0.,0.));
#1300=DIRECTION('',(0.,0.,-1.));
#1301=DIRECTION('center_axis',(0.,0.,-1.));
#1302=DIRECTION('ref_axis',(-1.,0.,0.));
#1303=DIRECTION('',(0.,0.,-1.));
#1304=DIRECTION('center_axis',(-1.,0.,0.));
#1305=DIRECTION('ref_axis',(0.,1.,0.));
#1306=DIRECTION('',(0.,0.,-1.));
#1307=DIRECTION('',(0.,1.,0.));
#1308=DIRECTION('',(0.,0.,-1.));
#1309=DIRECTION('center_axis',(0.,-1.,0.));
#1310=DIRECTION('ref_axis',(-1.,0.,0.));
#1311=DIRECTION('',(-1.,0.,0.));
#1312=DIRECTION('',(0.,0.,-1.));
#1313=DIRECTION('center_axis',(1.,0.,0.));
#1314=DIRECTION('ref_axis',(0.,-1.,0.));
#1315=DIRECTION('',(0.,-1.,0.));
#1316=DIRECTION('',(0.,0.,-1.));
#1317=DIRECTION('center_axis',(-2.96059473233375E-17,1.,0.));
#1318=DIRECTION('ref_axis',(1.,2.96059473233375E-17,0.));
#1319=DIRECTION('',(1.,2.96059473233375E-17,0.));
#1320=DIRECTION('center_axis',(0.,0.,-1.));
#1321=DIRECTION('ref_axis',(-1.,0.,0.));
#1322=CARTESIAN_POINT('',(0.,0.,0.));
#1323=CARTESIAN_POINT('Origin',(11.9999998211861,9.,4.));
#1324=CARTESIAN_POINT('',(16.9999998211861,9.,4.));
#1325=CARTESIAN_POINT('Origin',(11.9999998211861,9.,4.));
#1326=CARTESIAN_POINT('',(16.9999998211861,9.,0.));
#1327=CARTESIAN_POINT('',(16.9999998211861,9.,4.));
#1328=CARTESIAN_POINT('Origin',(11.9999998211861,9.,0.));
#1329=CARTESIAN_POINT('Origin',(11.9999998211861,9.,0.));
#1330=CARTESIAN_POINT('',(13.9999998211861,9.,0.));
#1331=CARTESIAN_POINT('Origin',(11.9999998211861,9.,0.));
#1332=CARTESIAN_POINT('Origin',(-12.0000001788139,-9.,4.));
#1333=CARTESIAN_POINT('',(-7.00000017881393,-9.,4.));
#1334=CARTESIAN_POINT('Origin',(-12.0000001788139,-9.,4.));
#1335=CARTESIAN_POINT('',(-7.00000017881393,-9.,0.));
#1336=CARTESIAN_POINT('',(-7.00000017881393,-9.,4.));
#1337=CARTESIAN_POINT('Origin',(-12.0000001788139,-9.,0.));
#1338=CARTESIAN_POINT('Origin',(-12.0000001788139,-9.,0.));
#1339=CARTESIAN_POINT('',(-10.0000001788139,-9.,0.));
#1340=CARTESIAN_POINT('Origin',(-12.0000001788139,-9.,0.));
#1341=CARTESIAN_POINT('Origin',(-12.0000001788139,9.,4.));
#1342=CARTESIAN_POINT('',(-7.00000017881393,9.,4.));
#1343=CARTESIAN_POINT('Origin',(-12.0000001788139,9.,4.));
#1344=CARTESIAN_POINT('',(-7.00000017881393,9.,0.));
#1345=CARTESIAN_POINT('',(-7.00000017881393,9.,4.));
#1346=CARTESIAN_POINT('Origin',(-12.0000001788139,9.,0.));
#1347=CARTESIAN_POINT('Origin',(-12.0000001788139,9.,0.));
#1348=CARTESIAN_POINT('',(-10.0000001788139,9.,0.));
#1349=CARTESIAN_POINT('Origin',(-12.0000001788139,9.,0.));
#1350=CARTESIAN_POINT('Origin',(11.9999998211861,-9.,4.));
#1351=CARTESIAN_POINT('',(16.9999998211861,-9.,4.));
#1352=CARTESIAN_POINT('Origin',(11.9999998211861,-9.,4.));
#1353=CARTESIAN_POINT('',(16.9999998211861,-9.,0.));
#1354=CARTESIAN_POINT('',(16.9999998211861,-9.,4.));
#1355=CARTESIAN_POINT('Origin',(11.9999998211861,-9.,0.));
#1356=CARTESIAN_POINT('Origin',(11.9999998211861,-9.,0.));
#1357=CARTESIAN_POINT('',(13.9999998211861,-9.,0.));
#1358=CARTESIAN_POINT('Origin',(11.9999998211861,-9.,0.));
#1359=CARTESIAN_POINT('Origin',(32.75,-29.,0.));
#1360=CARTESIAN_POINT('',(32.75,29.,0.));
#1361=CARTESIAN_POINT('',(32.75,-29.,0.));
#1362=CARTESIAN_POINT('',(32.75,-14.5,0.));
#1363=CARTESIAN_POINT('',(32.75,29.,4.));
#1364=CARTESIAN_POINT('',(32.75,29.,0.));
#1365=CARTESIAN_POINT('',(32.75,-29.,4.));
#1366=CARTESIAN_POINT('',(32.75,-29.,4.));
#1367=CARTESIAN_POINT('',(32.75,-29.,0.));
#1368=CARTESIAN_POINT('Origin',(-32.75,29.,0.));
#1369=CARTESIAN_POINT('',(-32.75,-29.,0.));
#1370=CARTESIAN_POINT('',(-32.75,29.,0.));
#1371=CARTESIAN_POINT('',(-32.75,14.5,0.));
#1372=CARTESIAN_POINT('',(-32.75,-29.,4.));
#1373=CARTESIAN_POINT('',(-32.75,-29.,0.));
#1374=CARTESIAN_POINT('',(-32.75,29.,4.));
#1375=CARTESIAN_POINT('',(-32.75,29.,4.));
#1376=CARTESIAN_POINT('',(-32.75,29.,0.));
#1377=CARTESIAN_POINT('Origin',(0.,-8.88178419700125E-15,4.));
#1378=CARTESIAN_POINT('',(0.,29.,4.));
#1379=CARTESIAN_POINT('',(-32.75,-29.,4.));
#1380=CARTESIAN_POINT('',(-30.5,9.008,4.));
#1381=CARTESIAN_POINT('Origin',(-28.5,9.008,4.));
#1382=CARTESIAN_POINT('',(-30.5,-8.992,4.));
#1383=CARTESIAN_POINT('Origin',(-28.5,-8.992,4.));
#1384=CARTESIAN_POINT('',(26.5,9.008,4.));
#1385=CARTESIAN_POINT('Origin',(28.5,9.008,4.));
#1386=CARTESIAN_POINT('',(26.5,-8.992,4.));
#1387=CARTESIAN_POINT('Origin',(28.5,-8.992,4.));
#1388=CARTESIAN_POINT('Origin',(0.,-4.44089209850063E-15,0.));
#1389=CARTESIAN_POINT('',(75.,-29.,0.));
#1390=CARTESIAN_POINT('',(75.,-29.,0.));
#1391=CARTESIAN_POINT('',(75.,29.,0.));
#1392=CARTESIAN_POINT('',(75.,29.,0.));
#1393=CARTESIAN_POINT('',(-75.,29.,0.));
#1394=CARTESIAN_POINT('',(69.094,7.99999999999999,0.));
#1395=CARTESIAN_POINT('Origin',(67.344,7.99999999999999,0.));
#1396=CARTESIAN_POINT('',(41.406,7.99999999999999,0.));
#1397=CARTESIAN_POINT('Origin',(39.656,7.99999999999999,0.));
#1398=CARTESIAN_POINT('',(41.406,-7.99999999999999,0.));
#1399=CARTESIAN_POINT('Origin',(39.656,-7.99999999999999,0.));
#1400=CARTESIAN_POINT('',(69.094,-8.,0.));
#1401=CARTESIAN_POINT('Origin',(67.344,-8.,0.));
#1402=CARTESIAN_POINT('',(69.094,22.,0.));
#1403=CARTESIAN_POINT('Origin',(67.344,22.,0.));
#1404=CARTESIAN_POINT('',(41.406,22.0000003278255,0.));
#1405=CARTESIAN_POINT('Origin',(39.656,22.0000003278255,0.));
#1406=CARTESIAN_POINT('',(41.406,-22.0000003278256,0.));
#1407=CARTESIAN_POINT('Origin',(39.656,-22.0000003278256,0.));
#1408=CARTESIAN_POINT('',(69.094,-22.,0.));
#1409=CARTESIAN_POINT('Origin',(67.344,-22.,0.));
#1410=CARTESIAN_POINT('Origin',(0.,-4.44089209850063E-15,0.));
#1411=CARTESIAN_POINT('',(-75.,29.,0.));
#1412=CARTESIAN_POINT('',(-75.,29.,0.));
#1413=CARTESIAN_POINT('',(-75.,-29.,0.));
#1414=CARTESIAN_POINT('',(-75.,-29.,0.));
#1415=CARTESIAN_POINT('',(75.,-29.,0.));
#1416=CARTESIAN_POINT('',(-65.594,7.99999999999999,0.));
#1417=CARTESIAN_POINT('Origin',(-67.344,7.99999999999999,0.));
#1418=CARTESIAN_POINT('',(-65.594,22.,0.));
#1419=CARTESIAN_POINT('Origin',(-67.344,22.,0.));
#1420=CARTESIAN_POINT('',(-37.906,7.99999999999999,0.));
#1421=CARTESIAN_POINT('Origin',(-39.656,7.99999999999999,0.));
#1422=CARTESIAN_POINT('',(-37.906,22.0000003278255,0.));
#1423=CARTESIAN_POINT('Origin',(-39.656,22.0000003278255,0.));
#1424=CARTESIAN_POINT('',(-37.906,-8.,0.));
#1425=CARTESIAN_POINT('Origin',(-39.656,-8.,0.));
#1426=CARTESIAN_POINT('',(-65.594,-8.00000000000001,0.));
#1427=CARTESIAN_POINT('Origin',(-67.344,-8.00000000000001,0.));
#1428=CARTESIAN_POINT('',(-37.906,-22.0000003278256,0.));
#1429=CARTESIAN_POINT('Origin',(-39.656,-22.0000003278256,0.));
#1430=CARTESIAN_POINT('',(-65.594,-22.,0.));
#1431=CARTESIAN_POINT('Origin',(-67.344,-22.,0.));
#1432=CARTESIAN_POINT('Origin',(67.344,7.99999999999999,0.));
#1433=CARTESIAN_POINT('',(69.094,7.99999999999999,-4.));
#1434=CARTESIAN_POINT('',(69.094,7.99999999999999,0.));
#1435=CARTESIAN_POINT('Origin',(67.344,7.99999999999999,-4.));
#1436=CARTESIAN_POINT('Origin',(39.656,7.99999999999999,0.));
#1437=CARTESIAN_POINT('',(41.406,7.99999999999999,-4.));
#1438=CARTESIAN_POINT('',(41.406,7.99999999999999,0.));
#1439=CARTESIAN_POINT('Origin',(39.656,7.99999999999999,-4.));
#1440=CARTESIAN_POINT('Origin',(-67.344,-22.,0.));
#1441=CARTESIAN_POINT('',(-65.594,-22.,-4.));
#1442=CARTESIAN_POINT('',(-65.594,-22.,0.));
#1443=CARTESIAN_POINT('Origin',(-67.344,-22.,-4.));
#1444=CARTESIAN_POINT('Origin',(-39.656,-22.0000003278256,0.));
#1445=CARTESIAN_POINT('',(-37.906,-22.0000003278256,-4.));
#1446=CARTESIAN_POINT('',(-37.906,-22.0000003278256,0.));
#1447=CARTESIAN_POINT('Origin',(-39.656,-22.0000003278256,-4.));
#1448=CARTESIAN_POINT('Origin',(39.656,-7.99999999999999,0.));
#1449=CARTESIAN_POINT('',(41.406,-7.99999999999999,-4.));
#1450=CARTESIAN_POINT('',(41.406,-7.99999999999999,0.));
#1451=CARTESIAN_POINT('Origin',(39.656,-7.99999999999999,-4.));
#1452=CARTESIAN_POINT('Origin',(67.344,-8.,0.));
#1453=CARTESIAN_POINT('',(69.094,-8.,-4.));
#1454=CARTESIAN_POINT('',(69.094,-8.,0.));
#1455=CARTESIAN_POINT('Origin',(67.344,-8.,-4.));
#1456=CARTESIAN_POINT('Origin',(67.344,22.,0.));
#1457=CARTESIAN_POINT('',(69.094,22.,-4.));
#1458=CARTESIAN_POINT('',(69.094,22.,0.));
#1459=CARTESIAN_POINT('Origin',(67.344,22.,-4.));
#1460=CARTESIAN_POINT('Origin',(39.656,22.0000003278255,0.));
#1461=CARTESIAN_POINT('',(41.406,22.0000003278255,-4.));
#1462=CARTESIAN_POINT('',(41.406,22.0000003278255,0.));
#1463=CARTESIAN_POINT('Origin',(39.656,22.0000003278255,-4.));
#1464=CARTESIAN_POINT('Origin',(-67.344,-8.00000000000001,0.));
#1465=CARTESIAN_POINT('',(-65.594,-8.00000000000001,-4.));
#1466=CARTESIAN_POINT('',(-65.594,-8.00000000000001,0.));
#1467=CARTESIAN_POINT('Origin',(-67.344,-8.00000000000001,-4.));
#1468=CARTESIAN_POINT('Origin',(-39.656,-8.,0.));
#1469=CARTESIAN_POINT('',(-37.906,-8.,-4.));
#1470=CARTESIAN_POINT('',(-37.906,-8.,0.));
#1471=CARTESIAN_POINT('Origin',(-39.656,-8.,-4.));
#1472=CARTESIAN_POINT('Origin',(39.656,-22.0000003278256,0.));
#1473=CARTESIAN_POINT('',(41.406,-22.0000003278256,-4.));
#1474=CARTESIAN_POINT('',(41.406,-22.0000003278256,0.));
#1475=CARTESIAN_POINT('Origin',(39.656,-22.0000003278256,-4.));
#1476=CARTESIAN_POINT('Origin',(67.344,-22.,0.));
#1477=CARTESIAN_POINT('',(69.094,-22.,-4.));
#1478=CARTESIAN_POINT('',(69.094,-22.,0.));
#1479=CARTESIAN_POINT('Origin',(67.344,-22.,-4.));
#1480=CARTESIAN_POINT('Origin',(-28.5,-8.992,0.));
#1481=CARTESIAN_POINT('',(-30.5,-8.992,-4.));
#1482=CARTESIAN_POINT('',(-30.5,-8.992,0.));
#1483=CARTESIAN_POINT('Origin',(-28.5,-8.992,-4.));
#1484=CARTESIAN_POINT('Origin',(28.5,9.008,0.));
#1485=CARTESIAN_POINT('',(26.5,9.008,-4.));
#1486=CARTESIAN_POINT('',(26.5,9.008,0.));
#1487=CARTESIAN_POINT('Origin',(28.5,9.008,-4.));
#1488=CARTESIAN_POINT('Origin',(-28.5,9.008,0.));
#1489=CARTESIAN_POINT('',(-30.5,9.008,-4.));
#1490=CARTESIAN_POINT('',(-30.5,9.008,0.));
#1491=CARTESIAN_POINT('Origin',(-28.5,9.008,-4.));
#1492=CARTESIAN_POINT('Origin',(28.5,-8.992,0.));
#1493=CARTESIAN_POINT('',(26.5,-8.992,-4.));
#1494=CARTESIAN_POINT('',(26.5,-8.992,0.));
#1495=CARTESIAN_POINT('Origin',(28.5,-8.992,-4.));
#1496=CARTESIAN_POINT('Origin',(17.5,15.,0.));
#1497=CARTESIAN_POINT('',(17.5,-15.,-4.));
#1498=CARTESIAN_POINT('',(17.5,15.,-4.));
#1499=CARTESIAN_POINT('',(17.5,7.5,-4.));
#1500=CARTESIAN_POINT('',(17.5,-15.,-6.62));
#1501=CARTESIAN_POINT('',(17.5,-15.,0.));
#1502=CARTESIAN_POINT('',(17.5,15.,-6.62));
#1503=CARTESIAN_POINT('',(17.5,-15.,-6.62));
#1504=CARTESIAN_POINT('',(17.5,15.,0.));
#1505=CARTESIAN_POINT('Origin',(17.5,-15.,0.));
#1506=CARTESIAN_POINT('',(-17.5,-15.,-4.));
#1507=CARTESIAN_POINT('',(8.74999999999999,-15.,-4.));
#1508=CARTESIAN_POINT('',(-17.5,-15.,-6.62));
#1509=CARTESIAN_POINT('',(-17.5,-15.,0.));
#1510=CARTESIAN_POINT('',(-17.5,-15.,-6.62));
#1511=CARTESIAN_POINT('Origin',(-17.5,15.,0.));
#1512=CARTESIAN_POINT('',(-17.5,15.,-4.));
#1513=CARTESIAN_POINT('',(-8.75000000000001,15.,-4.));
#1514=CARTESIAN_POINT('',(-17.5,15.,-6.62));
#1515=CARTESIAN_POINT('',(17.5,15.,-6.62));
#1516=CARTESIAN_POINT('',(-17.5,15.,0.));
#1517=CARTESIAN_POINT('Origin',(-17.5,-15.,0.));
#1518=CARTESIAN_POINT('',(-17.5,-7.5,-4.));
#1519=CARTESIAN_POINT('',(-17.5,15.,-6.62));
#1520=CARTESIAN_POINT('Origin',(-2.88657986402541E-14,4.44089209850063E-15,
-6.62));
#1521=CARTESIAN_POINT('',(13.9999998211861,9.,-6.62));
#1522=CARTESIAN_POINT('Origin',(11.9999998211861,9.,-6.62));
#1523=CARTESIAN_POINT('',(-10.0000001788139,9.,-6.62));
#1524=CARTESIAN_POINT('Origin',(-12.0000001788139,9.,-6.62));
#1525=CARTESIAN_POINT('',(13.9999998211861,-9.,-6.62));
#1526=CARTESIAN_POINT('Origin',(11.9999998211861,-9.,-6.62));
#1527=CARTESIAN_POINT('',(-10.0000001788139,-9.,-6.62));
#1528=CARTESIAN_POINT('Origin',(-12.0000001788139,-9.,-6.62));
#1529=CARTESIAN_POINT('Origin',(-39.656,22.0000003278255,0.));
#1530=CARTESIAN_POINT('',(-37.906,22.0000003278255,-4.));
#1531=CARTESIAN_POINT('',(-37.906,22.0000003278255,0.));
#1532=CARTESIAN_POINT('Origin',(-39.656,22.0000003278255,-4.));
#1533=CARTESIAN_POINT('Origin',(-39.656,7.99999999999999,0.));
#1534=CARTESIAN_POINT('',(-37.906,7.99999999999999,-4.));
#1535=CARTESIAN_POINT('',(-37.906,7.99999999999999,0.));
#1536=CARTESIAN_POINT('Origin',(-39.656,7.99999999999999,-4.));
#1537=CARTESIAN_POINT('Origin',(-67.344,22.,0.));
#1538=CARTESIAN_POINT('',(-65.594,22.,-4.));
#1539=CARTESIAN_POINT('',(-65.594,22.,0.));
#1540=CARTESIAN_POINT('Origin',(-67.344,22.,-4.));
#1541=CARTESIAN_POINT('Origin',(-67.344,7.99999999999999,0.));
#1542=CARTESIAN_POINT('',(-65.594,7.99999999999999,-4.));
#1543=CARTESIAN_POINT('',(-65.594,7.99999999999999,0.));
#1544=CARTESIAN_POINT('Origin',(-67.344,7.99999999999999,-4.));
#1545=CARTESIAN_POINT('Origin',(-12.0000001788139,-9.,0.));
#1546=CARTESIAN_POINT('',(-10.0000001788139,-9.,0.));
#1547=CARTESIAN_POINT('Origin',(11.9999998211861,-9.,0.));
#1548=CARTESIAN_POINT('',(13.9999998211861,-9.,0.));
#1549=CARTESIAN_POINT('Origin',(-12.0000001788139,9.,0.));
#1550=CARTESIAN_POINT('',(-10.0000001788139,9.,0.));
#1551=CARTESIAN_POINT('Origin',(11.9999998211861,9.,0.));
#1552=CARTESIAN_POINT('',(13.9999998211861,9.,0.));
#1553=CARTESIAN_POINT('Origin',(-75.,-29.,0.));
#1554=CARTESIAN_POINT('',(-75.,29.,-4.));
#1555=CARTESIAN_POINT('',(-75.,29.,0.));
#1556=CARTESIAN_POINT('',(-75.,-29.,-4.));
#1557=CARTESIAN_POINT('',(-75.,-29.,-4.));
#1558=CARTESIAN_POINT('',(-75.,-29.,0.));
#1559=CARTESIAN_POINT('Origin',(75.,-29.,0.));
#1560=CARTESIAN_POINT('',(75.,-29.,-4.));
#1561=CARTESIAN_POINT('',(75.,-29.,-4.));
#1562=CARTESIAN_POINT('',(75.,-29.,0.));
#1563=CARTESIAN_POINT('Origin',(75.,29.,0.));
#1564=CARTESIAN_POINT('',(75.,29.,-4.));
#1565=CARTESIAN_POINT('',(75.,29.,-4.));
#1566=CARTESIAN_POINT('',(75.,29.,0.));
#1567=CARTESIAN_POINT('Origin',(-75.,29.,0.));
#1568=CARTESIAN_POINT('',(-75.,29.,-4.));
#1569=CARTESIAN_POINT('Origin',(0.,-4.44089209850063E-15,-4.));
#1570=UNCERTAINTY_MEASURE_WITH_UNIT(LENGTH_MEASURE(0.01),#1574,
'DISTANCE_ACCURACY_VALUE',
'Maximum model space distance between geometric entities at asserted c
onnectivities');
#1571=UNCERTAINTY_MEASURE_WITH_UNIT(LENGTH_MEASURE(0.01),#1574,
'DISTANCE_ACCURACY_VALUE',
'Maximum model space distance between geometric entities at asserted c
onnectivities');
#1572=(
GEOMETRIC_REPRESENTATION_CONTEXT(3)
GLOBAL_UNCERTAINTY_ASSIGNED_CONTEXT((#1570))
GLOBAL_UNIT_ASSIGNED_CONTEXT((#1574,#1576,#1577))
REPRESENTATION_CONTEXT('','3D')
);
#1573=(
GEOMETRIC_REPRESENTATION_CONTEXT(3)
GLOBAL_UNCERTAINTY_ASSIGNED_CONTEXT((#1571))
GLOBAL_UNIT_ASSIGNED_CONTEXT((#1574,#1576,#1577))
REPRESENTATION_CONTEXT('','3D')
);
#1574=(
LENGTH_UNIT()
NAMED_UNIT(*)
SI_UNIT(.MILLI.,.METRE.)
);
#1575=(
LENGTH_UNIT()
NAMED_UNIT(*)
SI_UNIT($,.METRE.)
);
#1576=(
NAMED_UNIT(*)
PLANE_ANGLE_UNIT()
SI_UNIT($,.RADIAN.)
);
#1577=(
NAMED_UNIT(*)
SI_UNIT($,.STERADIAN.)
SOLID_ANGLE_UNIT()
);
#1578=SHAPE_DEFINITION_REPRESENTATION(#1579,#1580);
#1579=PRODUCT_DEFINITION_SHAPE('',$,#1582);
#1580=SHAPE_REPRESENTATION('',(#946),#1572);
#1581=PRODUCT_DEFINITION_CONTEXT('part definition',#1586,'design');
#1582=PRODUCT_DEFINITION('Suporte Eixo Z','Suporte Eixo Z v24',#1583,#1581);
#1583=PRODUCT_DEFINITION_FORMATION('',$,#1588);
#1584=PRODUCT_RELATED_PRODUCT_CATEGORY('Suporte Eixo Z v24',
'Suporte Eixo Z v24',(#1588));
#1585=APPLICATION_PROTOCOL_DEFINITION('international standard',
'automotive_design',2009,#1586);
#1586=APPLICATION_CONTEXT(
'Core Data for Automotive Mechanical Design Process');
#1587=PRODUCT_CONTEXT('part definition',#1586,'mechanical');
#1588=PRODUCT('Suporte Eixo Z','Suporte Eixo Z v24',$,(#1587));
#1589=PRESENTATION_STYLE_ASSIGNMENT((#1590));
#1590=SURFACE_STYLE_USAGE(.BOTH.,#1591);
#1591=SURFACE_SIDE_STYLE('',(#1592));
#1592=SURFACE_STYLE_FILL_AREA(#1593);
#1593=FILL_AREA_STYLE('Pintura - Esmalte com brilho (Amarelo)',(#1594));
#1594=FILL_AREA_STYLE_COLOUR('Pintura - Esmalte com brilho (Amarelo)',#1595);
#1595=COLOUR_RGB('Pintura - Esmalte com brilho (Amarelo)',0.909803921568627,
0.67843137254902,0.137254901960784);
ENDSEC;
END-ISO-10303-21;
