ISO-10303-21;
HEADER;
/* Generated by software containing ST-Developer
 * from STEP Tools, Inc. (www.steptools.com) 
 */

FILE_DESCRIPTION(
/* description */ (''),
/* implementation_level */ '2;1');

FILE_NAME(
/* name */ 'SuportePoliaGT2EixoY.step',
/* time_stamp */ '2026-04-01T20:46:30-03:00',
/* author */ (''),
/* organization */ (''),
/* preprocessor_version */ 'ST-DEVELOPER v20.1',
/* originating_system */ 'Autodesk Translation Framework v14.24.0.0',
/* authorisation */ '');

FILE_SCHEMA (('AUTOMOTIVE_DESIGN { 1 0 10303 214 3 1 1 }'));
ENDSEC;

DATA;
#10=MECHANICAL_DESIGN_GEOMETRIC_PRESENTATION_REPRESENTATION('',(#13),#825);
#11=SHAPE_REPRESENTATION_RELATIONSHIP('SRR','None',#832,#12);
#12=ADVANCED_BREP_SHAPE_REPRESENTATION('',(#14),#824);
#13=STYLED_ITEM('',(#841),#14);
#14=MANIFOLD_SOLID_BREP('Corpo1',#501);
#15=LINE('',#698,#69);
#16=LINE('',#703,#70);
#17=LINE('',#707,#71);
#18=LINE('',#711,#72);
#19=LINE('',#713,#73);
#20=LINE('',#715,#74);
#21=LINE('',#716,#75);
#22=LINE('',#720,#76);
#23=LINE('',#722,#77);
#24=LINE('',#724,#78);
#25=LINE('',#725,#79);
#26=LINE('',#727,#80);
#27=LINE('',#728,#81);
#28=LINE('',#735,#82);
#29=LINE('',#737,#83);
#30=LINE('',#739,#84);
#31=LINE('',#741,#85);
#32=LINE('',#742,#86);
#33=LINE('',#745,#87);
#34=LINE('',#746,#88);
#35=LINE('',#749,#89);
#36=LINE('',#750,#90);
#37=LINE('',#753,#91);
#38=LINE('',#757,#92);
#39=LINE('',#762,#93);
#40=LINE('',#764,#94);
#41=LINE('',#766,#95);
#42=LINE('',#767,#96);
#43=LINE('',#773,#97);
#44=LINE('',#775,#98);
#45=LINE('',#777,#99);
#46=LINE('',#778,#100);
#47=LINE('',#780,#101);
#48=LINE('',#781,#102);
#49=LINE('',#784,#103);
#50=LINE('',#786,#104);
#51=LINE('',#787,#105);
#52=LINE('',#789,#106);
#53=LINE('',#791,#107);
#54=LINE('',#793,#108);
#55=LINE('',#794,#109);
#56=LINE('',#797,#110);
#57=LINE('',#798,#111);
#58=LINE('',#801,#112);
#59=LINE('',#802,#113);
#60=LINE('',#805,#114);
#61=LINE('',#806,#115);
#62=LINE('',#809,#116);
#63=LINE('',#811,#117);
#64=LINE('',#812,#118);
#65=LINE('',#814,#119);
#66=LINE('',#816,#120);
#67=LINE('',#817,#121);
#68=LINE('',#819,#122);
#69=VECTOR('',#569,2.5085);
#70=VECTOR('',#576,4.);
#71=VECTOR('',#581,2.5085);
#72=VECTOR('',#584,1.);
#73=VECTOR('',#585,2.00085);
#74=VECTOR('',#586,1.);
#75=VECTOR('',#587,1.);
#76=VECTOR('',#590,1.);
#77=VECTOR('',#591,1.);
#78=VECTOR('',#592,1.);
#79=VECTOR('',#593,2.00085);
#80=VECTOR('',#596,1.);
#81=VECTOR('',#597,1.);
#82=VECTOR('',#604,1.5);
#83=VECTOR('',#605,0.35);
#84=VECTOR('',#606,1.5);
#85=VECTOR('',#607,0.35);
#86=VECTOR('',#608,1.5);
#87=VECTOR('',#611,1.5);
#88=VECTOR('',#612,2.);
#89=VECTOR('',#615,2.);
#90=VECTOR('',#616,1.5);
#91=VECTOR('',#619,2.0085);
#92=VECTOR('',#624,2.0085);
#93=VECTOR('',#629,1.);
#94=VECTOR('',#630,1.50085);
#95=VECTOR('',#631,1.);
#96=VECTOR('',#632,1.);
#97=VECTOR('',#637,1.);
#98=VECTOR('',#638,1.);
#99=VECTOR('',#639,1.);
#100=VECTOR('',#640,1.50085);
#101=VECTOR('',#643,1.);
#102=VECTOR('',#644,1.);
#103=VECTOR('',#647,1.);
#104=VECTOR('',#648,1.1);
#105=VECTOR('',#649,2.);
#106=VECTOR('',#650,0.35);
#107=VECTOR('',#651,2.);
#108=VECTOR('',#652,1.1);
#109=VECTOR('',#653,1.);
#110=VECTOR('',#656,1.);
#111=VECTOR('',#657,1.5);
#112=VECTOR('',#660,1.5);
#113=VECTOR('',#661,1.);
#114=VECTOR('',#664,1.);
#115=VECTOR('',#665,2.);
#116=VECTOR('',#668,1.);
#117=VECTOR('',#669,1.5);
#118=VECTOR('',#670,2.);
#119=VECTOR('',#673,0.35);
#120=VECTOR('',#676,1.1);
#121=VECTOR('',#677,1.1);
#122=VECTOR('',#680,4.);
#123=CYLINDRICAL_SURFACE('',#521,2.5085);
#124=CYLINDRICAL_SURFACE('',#523,4.);
#125=CYLINDRICAL_SURFACE('',#525,2.5085);
#126=CYLINDRICAL_SURFACE('',#535,2.0085);
#127=CYLINDRICAL_SURFACE('',#537,2.0085);
#128=CYLINDRICAL_SURFACE('',#550,4.);
#129=FACE_BOUND('',#166,.T.);
#130=FACE_BOUND('',#168,.T.);
#131=FACE_BOUND('',#175,.T.);
#132=FACE_BOUND('',#176,.T.);
#133=FACE_BOUND('',#183,.T.);
#134=FACE_BOUND('',#185,.T.);
#135=FACE_BOUND('',#191,.T.);
#136=FACE_BOUND('',#193,.T.);
#137=FACE_BOUND('',#198,.T.);
#138=FACE_BOUND('',#200,.T.);
#139=FACE_OUTER_BOUND('',#165,.T.);
#140=FACE_OUTER_BOUND('',#167,.T.);
#141=FACE_OUTER_BOUND('',#169,.T.);
#142=FACE_OUTER_BOUND('',#170,.T.);
#143=FACE_OUTER_BOUND('',#171,.T.);
#144=FACE_OUTER_BOUND('',#172,.T.);
#145=FACE_OUTER_BOUND('',#173,.T.);
#146=FACE_OUTER_BOUND('',#174,.T.);
#147=FACE_OUTER_BOUND('',#177,.T.);
#148=FACE_OUTER_BOUND('',#178,.T.);
#149=FACE_OUTER_BOUND('',#179,.T.);
#150=FACE_OUTER_BOUND('',#180,.T.);
#151=FACE_OUTER_BOUND('',#181,.T.);
#152=FACE_OUTER_BOUND('',#182,.T.);
#153=FACE_OUTER_BOUND('',#184,.T.);
#154=FACE_OUTER_BOUND('',#186,.T.);
#155=FACE_OUTER_BOUND('',#187,.T.);
#156=FACE_OUTER_BOUND('',#188,.T.);
#157=FACE_OUTER_BOUND('',#189,.T.);
#158=FACE_OUTER_BOUND('',#190,.T.);
#159=FACE_OUTER_BOUND('',#192,.T.);
#160=FACE_OUTER_BOUND('',#194,.T.);
#161=FACE_OUTER_BOUND('',#195,.T.);
#162=FACE_OUTER_BOUND('',#196,.T.);
#163=FACE_OUTER_BOUND('',#197,.T.);
#164=FACE_OUTER_BOUND('',#199,.T.);
#165=EDGE_LOOP('',(#323));
#166=EDGE_LOOP('',(#324));
#167=EDGE_LOOP('',(#325));
#168=EDGE_LOOP('',(#326));
#169=EDGE_LOOP('',(#327,#328,#329,#330));
#170=EDGE_LOOP('',(#331,#332,#333,#334));
#171=EDGE_LOOP('',(#335,#336,#337,#338));
#172=EDGE_LOOP('',(#339,#340,#341,#342));
#173=EDGE_LOOP('',(#343,#344,#345,#346));
#174=EDGE_LOOP('',(#347,#348,#349,#350));
#175=EDGE_LOOP('',(#351));
#176=EDGE_LOOP('',(#352));
#177=EDGE_LOOP('',(#353,#354,#355,#356,#357,#358,#359,#360));
#178=EDGE_LOOP('',(#361,#362,#363,#364));
#179=EDGE_LOOP('',(#365,#366,#367,#368));
#180=EDGE_LOOP('',(#369,#370,#371,#372));
#181=EDGE_LOOP('',(#373,#374,#375,#376));
#182=EDGE_LOOP('',(#377,#378,#379,#380));
#183=EDGE_LOOP('',(#381));
#184=EDGE_LOOP('',(#382,#383,#384,#385));
#185=EDGE_LOOP('',(#386));
#186=EDGE_LOOP('',(#387,#388,#389,#390));
#187=EDGE_LOOP('',(#391,#392,#393,#394,#395,#396,#397,#398,#399,#400,#401,
#402));
#188=EDGE_LOOP('',(#403,#404,#405,#406));
#189=EDGE_LOOP('',(#407,#408,#409,#410));
#190=EDGE_LOOP('',(#411,#412,#413,#414));
#191=EDGE_LOOP('',(#415));
#192=EDGE_LOOP('',(#416,#417,#418,#419));
#193=EDGE_LOOP('',(#420));
#194=EDGE_LOOP('',(#421,#422,#423,#424,#425,#426,#427,#428));
#195=EDGE_LOOP('',(#429,#430,#431,#432,#433,#434,#435,#436,#437,#438,#439,
#440));
#196=EDGE_LOOP('',(#441,#442,#443,#444));
#197=EDGE_LOOP('',(#445,#446,#447,#448));
#198=EDGE_LOOP('',(#449));
#199=EDGE_LOOP('',(#450,#451,#452,#453));
#200=EDGE_LOOP('',(#454));
#201=CIRCLE('',#516,4.);
#202=CIRCLE('',#517,2.5085);
#203=CIRCLE('',#519,4.);
#204=CIRCLE('',#520,2.5085);
#205=CIRCLE('',#522,2.5085);
#206=CIRCLE('',#524,4.);
#207=CIRCLE('',#526,2.5085);
#208=CIRCLE('',#530,2.0085);
#209=CIRCLE('',#531,2.0085);
#210=CIRCLE('',#536,2.0085);
#211=CIRCLE('',#538,2.0085);
#212=CIRCLE('',#540,4.);
#213=VERTEX_POINT('',#687);
#214=VERTEX_POINT('',#689);
#215=VERTEX_POINT('',#692);
#216=VERTEX_POINT('',#694);
#217=VERTEX_POINT('',#697);
#218=VERTEX_POINT('',#701);
#219=VERTEX_POINT('',#705);
#220=VERTEX_POINT('',#709);
#221=VERTEX_POINT('',#710);
#222=VERTEX_POINT('',#712);
#223=VERTEX_POINT('',#714);
#224=VERTEX_POINT('',#718);
#225=VERTEX_POINT('',#719);
#226=VERTEX_POINT('',#721);
#227=VERTEX_POINT('',#723);
#228=VERTEX_POINT('',#729);
#229=VERTEX_POINT('',#731);
#230=VERTEX_POINT('',#734);
#231=VERTEX_POINT('',#736);
#232=VERTEX_POINT('',#738);
#233=VERTEX_POINT('',#740);
#234=VERTEX_POINT('',#744);
#235=VERTEX_POINT('',#748);
#236=VERTEX_POINT('',#752);
#237=VERTEX_POINT('',#756);
#238=VERTEX_POINT('',#760);
#239=VERTEX_POINT('',#761);
#240=VERTEX_POINT('',#763);
#241=VERTEX_POINT('',#765);
#242=VERTEX_POINT('',#768);
#243=VERTEX_POINT('',#771);
#244=VERTEX_POINT('',#772);
#245=VERTEX_POINT('',#774);
#246=VERTEX_POINT('',#776);
#247=VERTEX_POINT('',#783);
#248=VERTEX_POINT('',#785);
#249=VERTEX_POINT('',#788);
#250=VERTEX_POINT('',#790);
#251=VERTEX_POINT('',#792);
#252=VERTEX_POINT('',#796);
#253=VERTEX_POINT('',#800);
#254=VERTEX_POINT('',#804);
#255=VERTEX_POINT('',#808);
#256=VERTEX_POINT('',#810);
#257=EDGE_CURVE('',#213,#213,#201,.T.);
#258=EDGE_CURVE('',#214,#214,#202,.T.);
#259=EDGE_CURVE('',#215,#215,#203,.T.);
#260=EDGE_CURVE('',#216,#216,#204,.T.);
#261=EDGE_CURVE('',#216,#217,#15,.T.);
#262=EDGE_CURVE('',#217,#217,#205,.T.);
#263=EDGE_CURVE('',#218,#218,#206,.T.);
#264=EDGE_CURVE('',#218,#215,#16,.T.);
#265=EDGE_CURVE('',#219,#219,#207,.T.);
#266=EDGE_CURVE('',#219,#214,#17,.T.);
#267=EDGE_CURVE('',#220,#221,#18,.T.);
#268=EDGE_CURVE('',#220,#222,#19,.T.);
#269=EDGE_CURVE('',#223,#222,#20,.T.);
#270=EDGE_CURVE('',#221,#223,#21,.T.);
#271=EDGE_CURVE('',#224,#225,#22,.T.);
#272=EDGE_CURVE('',#226,#224,#23,.T.);
#273=EDGE_CURVE('',#227,#226,#24,.T.);
#274=EDGE_CURVE('',#225,#227,#25,.T.);
#275=EDGE_CURVE('',#225,#220,#26,.T.);
#276=EDGE_CURVE('',#222,#227,#27,.T.);
#277=EDGE_CURVE('',#228,#228,#208,.T.);
#278=EDGE_CURVE('',#229,#229,#209,.T.);
#279=EDGE_CURVE('',#226,#230,#28,.T.);
#280=EDGE_CURVE('',#230,#231,#29,.T.);
#281=EDGE_CURVE('',#231,#232,#30,.T.);
#282=EDGE_CURVE('',#232,#233,#31,.T.);
#283=EDGE_CURVE('',#233,#223,#32,.T.);
#284=EDGE_CURVE('',#234,#224,#33,.T.);
#285=EDGE_CURVE('',#234,#230,#34,.T.);
#286=EDGE_CURVE('',#235,#233,#35,.T.);
#287=EDGE_CURVE('',#221,#235,#36,.T.);
#288=EDGE_CURVE('',#228,#236,#37,.T.);
#289=EDGE_CURVE('',#236,#236,#210,.T.);
#290=EDGE_CURVE('',#229,#237,#38,.T.);
#291=EDGE_CURVE('',#237,#237,#211,.T.);
#292=EDGE_CURVE('',#238,#239,#39,.T.);
#293=EDGE_CURVE('',#240,#238,#40,.T.);
#294=EDGE_CURVE('',#241,#240,#41,.T.);
#295=EDGE_CURVE('',#239,#241,#42,.T.);
#296=EDGE_CURVE('',#242,#242,#212,.T.);
#297=EDGE_CURVE('',#243,#244,#43,.T.);
#298=EDGE_CURVE('',#245,#243,#44,.T.);
#299=EDGE_CURVE('',#246,#245,#45,.T.);
#300=EDGE_CURVE('',#244,#246,#46,.T.);
#301=EDGE_CURVE('',#244,#238,#47,.T.);
#302=EDGE_CURVE('',#240,#246,#48,.T.);
#303=EDGE_CURVE('',#245,#247,#49,.T.);
#304=EDGE_CURVE('',#248,#247,#50,.T.);
#305=EDGE_CURVE('',#248,#231,#51,.T.);
#306=EDGE_CURVE('',#249,#234,#52,.T.);
#307=EDGE_CURVE('',#249,#250,#53,.T.);
#308=EDGE_CURVE('',#251,#250,#54,.T.);
#309=EDGE_CURVE('',#251,#241,#55,.T.);
#310=EDGE_CURVE('',#243,#252,#56,.T.);
#311=EDGE_CURVE('',#247,#252,#57,.T.);
#312=EDGE_CURVE('',#253,#251,#58,.T.);
#313=EDGE_CURVE('',#253,#239,#59,.T.);
#314=EDGE_CURVE('',#254,#248,#60,.T.);
#315=EDGE_CURVE('',#254,#232,#61,.T.);
#316=EDGE_CURVE('',#250,#255,#62,.T.);
#317=EDGE_CURVE('',#256,#249,#63,.T.);
#318=EDGE_CURVE('',#256,#255,#64,.T.);
#319=EDGE_CURVE('',#235,#256,#65,.T.);
#320=EDGE_CURVE('',#255,#253,#66,.T.);
#321=EDGE_CURVE('',#252,#254,#67,.T.);
#322=EDGE_CURVE('',#213,#242,#68,.T.);
#323=ORIENTED_EDGE('',*,*,#257,.F.);
#324=ORIENTED_EDGE('',*,*,#258,.F.);
#325=ORIENTED_EDGE('',*,*,#259,.F.);
#326=ORIENTED_EDGE('',*,*,#260,.F.);
#327=ORIENTED_EDGE('',*,*,#260,.T.);
#328=ORIENTED_EDGE('',*,*,#261,.T.);
#329=ORIENTED_EDGE('',*,*,#262,.F.);
#330=ORIENTED_EDGE('',*,*,#261,.F.);
#331=ORIENTED_EDGE('',*,*,#263,.T.);
#332=ORIENTED_EDGE('',*,*,#264,.T.);
#333=ORIENTED_EDGE('',*,*,#259,.T.);
#334=ORIENTED_EDGE('',*,*,#264,.F.);
#335=ORIENTED_EDGE('',*,*,#265,.F.);
#336=ORIENTED_EDGE('',*,*,#266,.T.);
#337=ORIENTED_EDGE('',*,*,#258,.T.);
#338=ORIENTED_EDGE('',*,*,#266,.F.);
#339=ORIENTED_EDGE('',*,*,#267,.F.);
#340=ORIENTED_EDGE('',*,*,#268,.T.);
#341=ORIENTED_EDGE('',*,*,#269,.F.);
#342=ORIENTED_EDGE('',*,*,#270,.F.);
#343=ORIENTED_EDGE('',*,*,#271,.F.);
#344=ORIENTED_EDGE('',*,*,#272,.F.);
#345=ORIENTED_EDGE('',*,*,#273,.F.);
#346=ORIENTED_EDGE('',*,*,#274,.F.);
#347=ORIENTED_EDGE('',*,*,#275,.F.);
#348=ORIENTED_EDGE('',*,*,#274,.T.);
#349=ORIENTED_EDGE('',*,*,#276,.F.);
#350=ORIENTED_EDGE('',*,*,#268,.F.);
#351=ORIENTED_EDGE('',*,*,#277,.F.);
#352=ORIENTED_EDGE('',*,*,#278,.F.);
#353=ORIENTED_EDGE('',*,*,#269,.T.);
#354=ORIENTED_EDGE('',*,*,#276,.T.);
#355=ORIENTED_EDGE('',*,*,#273,.T.);
#356=ORIENTED_EDGE('',*,*,#279,.T.);
#357=ORIENTED_EDGE('',*,*,#280,.T.);
#358=ORIENTED_EDGE('',*,*,#281,.T.);
#359=ORIENTED_EDGE('',*,*,#282,.T.);
#360=ORIENTED_EDGE('',*,*,#283,.T.);
#361=ORIENTED_EDGE('',*,*,#272,.T.);
#362=ORIENTED_EDGE('',*,*,#284,.F.);
#363=ORIENTED_EDGE('',*,*,#285,.T.);
#364=ORIENTED_EDGE('',*,*,#279,.F.);
#365=ORIENTED_EDGE('',*,*,#270,.T.);
#366=ORIENTED_EDGE('',*,*,#283,.F.);
#367=ORIENTED_EDGE('',*,*,#286,.F.);
#368=ORIENTED_EDGE('',*,*,#287,.F.);
#369=ORIENTED_EDGE('',*,*,#277,.T.);
#370=ORIENTED_EDGE('',*,*,#288,.T.);
#371=ORIENTED_EDGE('',*,*,#289,.F.);
#372=ORIENTED_EDGE('',*,*,#288,.F.);
#373=ORIENTED_EDGE('',*,*,#278,.T.);
#374=ORIENTED_EDGE('',*,*,#290,.T.);
#375=ORIENTED_EDGE('',*,*,#291,.F.);
#376=ORIENTED_EDGE('',*,*,#290,.F.);
#377=ORIENTED_EDGE('',*,*,#292,.F.);
#378=ORIENTED_EDGE('',*,*,#293,.F.);
#379=ORIENTED_EDGE('',*,*,#294,.F.);
#380=ORIENTED_EDGE('',*,*,#295,.F.);
#381=ORIENTED_EDGE('',*,*,#296,.F.);
#382=ORIENTED_EDGE('',*,*,#297,.F.);
#383=ORIENTED_EDGE('',*,*,#298,.F.);
#384=ORIENTED_EDGE('',*,*,#299,.F.);
#385=ORIENTED_EDGE('',*,*,#300,.F.);
#386=ORIENTED_EDGE('',*,*,#263,.F.);
#387=ORIENTED_EDGE('',*,*,#301,.F.);
#388=ORIENTED_EDGE('',*,*,#300,.T.);
#389=ORIENTED_EDGE('',*,*,#302,.F.);
#390=ORIENTED_EDGE('',*,*,#293,.T.);
#391=ORIENTED_EDGE('',*,*,#294,.T.);
#392=ORIENTED_EDGE('',*,*,#302,.T.);
#393=ORIENTED_EDGE('',*,*,#299,.T.);
#394=ORIENTED_EDGE('',*,*,#303,.T.);
#395=ORIENTED_EDGE('',*,*,#304,.F.);
#396=ORIENTED_EDGE('',*,*,#305,.T.);
#397=ORIENTED_EDGE('',*,*,#280,.F.);
#398=ORIENTED_EDGE('',*,*,#285,.F.);
#399=ORIENTED_EDGE('',*,*,#306,.F.);
#400=ORIENTED_EDGE('',*,*,#307,.T.);
#401=ORIENTED_EDGE('',*,*,#308,.F.);
#402=ORIENTED_EDGE('',*,*,#309,.T.);
#403=ORIENTED_EDGE('',*,*,#298,.T.);
#404=ORIENTED_EDGE('',*,*,#310,.T.);
#405=ORIENTED_EDGE('',*,*,#311,.F.);
#406=ORIENTED_EDGE('',*,*,#303,.F.);
#407=ORIENTED_EDGE('',*,*,#295,.T.);
#408=ORIENTED_EDGE('',*,*,#309,.F.);
#409=ORIENTED_EDGE('',*,*,#312,.F.);
#410=ORIENTED_EDGE('',*,*,#313,.T.);
#411=ORIENTED_EDGE('',*,*,#314,.F.);
#412=ORIENTED_EDGE('',*,*,#315,.T.);
#413=ORIENTED_EDGE('',*,*,#281,.F.);
#414=ORIENTED_EDGE('',*,*,#305,.F.);
#415=ORIENTED_EDGE('',*,*,#289,.T.);
#416=ORIENTED_EDGE('',*,*,#316,.F.);
#417=ORIENTED_EDGE('',*,*,#307,.F.);
#418=ORIENTED_EDGE('',*,*,#317,.F.);
#419=ORIENTED_EDGE('',*,*,#318,.T.);
#420=ORIENTED_EDGE('',*,*,#291,.T.);
#421=ORIENTED_EDGE('',*,*,#267,.T.);
#422=ORIENTED_EDGE('',*,*,#287,.T.);
#423=ORIENTED_EDGE('',*,*,#319,.T.);
#424=ORIENTED_EDGE('',*,*,#317,.T.);
#425=ORIENTED_EDGE('',*,*,#306,.T.);
#426=ORIENTED_EDGE('',*,*,#284,.T.);
#427=ORIENTED_EDGE('',*,*,#271,.T.);
#428=ORIENTED_EDGE('',*,*,#275,.T.);
#429=ORIENTED_EDGE('',*,*,#292,.T.);
#430=ORIENTED_EDGE('',*,*,#313,.F.);
#431=ORIENTED_EDGE('',*,*,#320,.F.);
#432=ORIENTED_EDGE('',*,*,#318,.F.);
#433=ORIENTED_EDGE('',*,*,#319,.F.);
#434=ORIENTED_EDGE('',*,*,#286,.T.);
#435=ORIENTED_EDGE('',*,*,#282,.F.);
#436=ORIENTED_EDGE('',*,*,#315,.F.);
#437=ORIENTED_EDGE('',*,*,#321,.F.);
#438=ORIENTED_EDGE('',*,*,#310,.F.);
#439=ORIENTED_EDGE('',*,*,#297,.T.);
#440=ORIENTED_EDGE('',*,*,#301,.T.);
#441=ORIENTED_EDGE('',*,*,#257,.T.);
#442=ORIENTED_EDGE('',*,*,#322,.T.);
#443=ORIENTED_EDGE('',*,*,#296,.T.);
#444=ORIENTED_EDGE('',*,*,#322,.F.);
#445=ORIENTED_EDGE('',*,*,#314,.T.);
#446=ORIENTED_EDGE('',*,*,#304,.T.);
#447=ORIENTED_EDGE('',*,*,#311,.T.);
#448=ORIENTED_EDGE('',*,*,#321,.T.);
#449=ORIENTED_EDGE('',*,*,#262,.T.);
#450=ORIENTED_EDGE('',*,*,#316,.T.);
#451=ORIENTED_EDGE('',*,*,#320,.T.);
#452=ORIENTED_EDGE('',*,*,#312,.T.);
#453=ORIENTED_EDGE('',*,*,#308,.T.);
#454=ORIENTED_EDGE('',*,*,#265,.T.);
#455=PLANE('',#515);
#456=PLANE('',#518);
#457=PLANE('',#527);
#458=PLANE('',#528);
#459=PLANE('',#529);
#460=PLANE('',#532);
#461=PLANE('',#533);
#462=PLANE('',#534);
#463=PLANE('',#539);
#464=PLANE('',#541);
#465=PLANE('',#542);
#466=PLANE('',#543);
#467=PLANE('',#544);
#468=PLANE('',#545);
#469=PLANE('',#546);
#470=PLANE('',#547);
#471=PLANE('',#548);
#472=PLANE('',#549);
#473=PLANE('',#551);
#474=PLANE('',#552);
#475=ADVANCED_FACE('',(#139,#129),#455,.F.);
#476=ADVANCED_FACE('',(#140,#130),#456,.T.);
#477=ADVANCED_FACE('',(#141),#123,.F.);
#478=ADVANCED_FACE('',(#142),#124,.T.);
#479=ADVANCED_FACE('',(#143),#125,.F.);
#480=ADVANCED_FACE('',(#144),#457,.T.);
#481=ADVANCED_FACE('',(#145),#458,.T.);
#482=ADVANCED_FACE('',(#146,#131,#132),#459,.T.);
#483=ADVANCED_FACE('',(#147),#460,.F.);
#484=ADVANCED_FACE('',(#148),#461,.F.);
#485=ADVANCED_FACE('',(#149),#462,.F.);
#486=ADVANCED_FACE('',(#150),#126,.F.);
#487=ADVANCED_FACE('',(#151),#127,.F.);
#488=ADVANCED_FACE('',(#152,#133),#463,.F.);
#489=ADVANCED_FACE('',(#153,#134),#464,.T.);
#490=ADVANCED_FACE('',(#154),#465,.T.);
#491=ADVANCED_FACE('',(#155),#466,.F.);
#492=ADVANCED_FACE('',(#156),#467,.F.);
#493=ADVANCED_FACE('',(#157),#468,.F.);
#494=ADVANCED_FACE('',(#158,#135),#469,.F.);
#495=ADVANCED_FACE('',(#159,#136),#470,.F.);
#496=ADVANCED_FACE('',(#160),#471,.T.);
#497=ADVANCED_FACE('',(#161),#472,.F.);
#498=ADVANCED_FACE('',(#162),#128,.T.);
#499=ADVANCED_FACE('',(#163,#137),#473,.T.);
#500=ADVANCED_FACE('',(#164,#138),#474,.F.);
#501=CLOSED_SHELL('',(#475,#476,#477,#478,#479,#480,#481,#482,#483,#484,
#485,#486,#487,#488,#489,#490,#491,#492,#493,#494,#495,#496,#497,#498,#499,
#500));
#502=DERIVED_UNIT_ELEMENT(#504,1.);
#503=DERIVED_UNIT_ELEMENT(#827,-3.);
#504=(
MASS_UNIT()
NAMED_UNIT(*)
SI_UNIT(.KILO.,.GRAM.)
);
#505=DERIVED_UNIT((#502,#503));
#506=MEASURE_REPRESENTATION_ITEM('density measure',
POSITIVE_RATIO_MEASURE(7850.),#505);
#507=PROPERTY_DEFINITION_REPRESENTATION(#512,#509);
#508=PROPERTY_DEFINITION_REPRESENTATION(#513,#510);
#509=REPRESENTATION('material name',(#511),#824);
#510=REPRESENTATION('density',(#506),#824);
#511=DESCRIPTIVE_REPRESENTATION_ITEM('A\X\E7o','A\X\E7o');
#512=PROPERTY_DEFINITION('material property','material name',#834);
#513=PROPERTY_DEFINITION('material property','density of part',#834);
#514=AXIS2_PLACEMENT_3D('',#685,#553,#554);
#515=AXIS2_PLACEMENT_3D('',#686,#555,#556);
#516=AXIS2_PLACEMENT_3D('',#688,#557,#558);
#517=AXIS2_PLACEMENT_3D('',#690,#559,#560);
#518=AXIS2_PLACEMENT_3D('',#691,#561,#562);
#519=AXIS2_PLACEMENT_3D('',#693,#563,#564);
#520=AXIS2_PLACEMENT_3D('',#695,#565,#566);
#521=AXIS2_PLACEMENT_3D('',#696,#567,#568);
#522=AXIS2_PLACEMENT_3D('',#699,#570,#571);
#523=AXIS2_PLACEMENT_3D('',#700,#572,#573);
#524=AXIS2_PLACEMENT_3D('',#702,#574,#575);
#525=AXIS2_PLACEMENT_3D('',#704,#577,#578);
#526=AXIS2_PLACEMENT_3D('',#706,#579,#580);
#527=AXIS2_PLACEMENT_3D('',#708,#582,#583);
#528=AXIS2_PLACEMENT_3D('',#717,#588,#589);
#529=AXIS2_PLACEMENT_3D('',#726,#594,#595);
#530=AXIS2_PLACEMENT_3D('',#730,#598,#599);
#531=AXIS2_PLACEMENT_3D('',#732,#600,#601);
#532=AXIS2_PLACEMENT_3D('',#733,#602,#603);
#533=AXIS2_PLACEMENT_3D('',#743,#609,#610);
#534=AXIS2_PLACEMENT_3D('',#747,#613,#614);
#535=AXIS2_PLACEMENT_3D('',#751,#617,#618);
#536=AXIS2_PLACEMENT_3D('',#754,#620,#621);
#537=AXIS2_PLACEMENT_3D('',#755,#622,#623);
#538=AXIS2_PLACEMENT_3D('',#758,#625,#626);
#539=AXIS2_PLACEMENT_3D('',#759,#627,#628);
#540=AXIS2_PLACEMENT_3D('',#769,#633,#634);
#541=AXIS2_PLACEMENT_3D('',#770,#635,#636);
#542=AXIS2_PLACEMENT_3D('',#779,#641,#642);
#543=AXIS2_PLACEMENT_3D('',#782,#645,#646);
#544=AXIS2_PLACEMENT_3D('',#795,#654,#655);
#545=AXIS2_PLACEMENT_3D('',#799,#658,#659);
#546=AXIS2_PLACEMENT_3D('',#803,#662,#663);
#547=AXIS2_PLACEMENT_3D('',#807,#666,#667);
#548=AXIS2_PLACEMENT_3D('',#813,#671,#672);
#549=AXIS2_PLACEMENT_3D('',#815,#674,#675);
#550=AXIS2_PLACEMENT_3D('',#818,#678,#679);
#551=AXIS2_PLACEMENT_3D('',#820,#681,#682);
#552=AXIS2_PLACEMENT_3D('',#821,#683,#684);
#553=DIRECTION('axis',(0.,0.,1.));
#554=DIRECTION('refdir',(1.,0.,0.));
#555=DIRECTION('center_axis',(3.67671312109998E-17,-1.,2.22338030961234E-16));
#556=DIRECTION('ref_axis',(0.,-2.22338030961234E-16,-1.));
#557=DIRECTION('center_axis',(3.67671312109998E-17,-1.,2.22338030961234E-16));
#558=DIRECTION('ref_axis',(6.12323399573677E-17,-2.22044604925031E-16,-1.));
#559=DIRECTION('center_axis',(-3.67671312109998E-17,1.,-2.22338030961234E-16));
#560=DIRECTION('ref_axis',(6.12323399573677E-17,-2.21386260596098E-16,-1.));
#561=DIRECTION('center_axis',(3.67671312109998E-17,-1.,2.22338030961234E-16));
#562=DIRECTION('ref_axis',(0.,-2.22338030961234E-16,-1.));
#563=DIRECTION('center_axis',(-3.67671312109998E-17,1.,-2.22338030961234E-16));
#564=DIRECTION('ref_axis',(6.12323399573677E-17,-2.22044604925031E-16,-1.));
#565=DIRECTION('center_axis',(3.67671312109998E-17,-1.,2.22338030961234E-16));
#566=DIRECTION('ref_axis',(6.12323399573677E-17,-2.21386260596098E-16,-1.));
#567=DIRECTION('center_axis',(5.08685241674095E-17,1.,-2.22704906996303E-16));
#568=DIRECTION('ref_axis',(6.12323399573677E-17,-2.21386260596098E-16,-1.));
#569=DIRECTION('',(5.08685241674095E-17,1.,-2.22704906996303E-16));
#570=DIRECTION('center_axis',(-4.63263002376527E-16,-1.,2.22044604925031E-16));
#571=DIRECTION('ref_axis',(6.12323399573677E-17,-2.21386260596098E-16,-1.));
#572=DIRECTION('center_axis',(1.25557245944433E-16,1.,-2.22044604925031E-16));
#573=DIRECTION('ref_axis',(6.12323399573677E-17,-2.22044604925031E-16,-1.));
#574=DIRECTION('center_axis',(3.67602052888888E-17,-1.,2.22233235948304E-16));
#575=DIRECTION('ref_axis',(6.12323399573677E-17,-2.22044604925031E-16,-1.));
#576=DIRECTION('',(-1.25557245944433E-16,-1.,2.22044604925031E-16));
#577=DIRECTION('center_axis',(5.08685241674095E-17,1.,-2.22704906996303E-16));
#578=DIRECTION('ref_axis',(6.12323399573677E-17,-2.21386260596098E-16,-1.));
#579=DIRECTION('center_axis',(4.63263002376527E-16,1.,-2.22044604925031E-16));
#580=DIRECTION('ref_axis',(6.12323399573677E-17,-2.21386260596098E-16,-1.));
#581=DIRECTION('',(5.08685241674095E-17,1.,-2.22704906996303E-16));
#582=DIRECTION('center_axis',(-6.28705581847208E-17,2.22129950090706E-16,
1.));
#583=DIRECTION('ref_axis',(1.,0.,6.28705581847208E-17));
#584=DIRECTION('',(-1.,-3.49899085470673E-16,-6.28705581847207E-17));
#585=DIRECTION('',(-7.67680359762384E-18,1.,-2.22129950090706E-16));
#586=DIRECTION('',(1.,3.49899085470673E-16,6.28705581847207E-17));
#587=DIRECTION('',(-1.07156594925393E-17,1.,-2.22129950090706E-16));
#588=DIRECTION('center_axis',(6.28705581847208E-17,-2.22129950090706E-16,
-1.));
#589=DIRECTION('ref_axis',(-1.,0.,-6.28705581847208E-17));
#590=DIRECTION('',(1.,3.49899085470673E-16,6.28705581847207E-17));
#591=DIRECTION('',(1.07156594925393E-17,-1.,2.22129950090706E-16));
#592=DIRECTION('',(-1.,-3.49899085470673E-16,-6.28705581847207E-17));
#593=DIRECTION('',(-7.67680359762384E-18,1.,-2.22129950090706E-16));
#594=DIRECTION('center_axis',(-1.,-7.67680359762385E-18,-5.9636808784781E-17));
#595=DIRECTION('ref_axis',(-5.9636808784781E-17,0.,1.));
#596=DIRECTION('',(5.9636808784781E-17,-2.22044604925031E-16,-1.));
#597=DIRECTION('',(-5.9636808784781E-17,2.22044604925031E-16,1.));
#598=DIRECTION('center_axis',(-1.,-7.67680359762385E-18,-5.9636808784781E-17));
#599=DIRECTION('ref_axis',(6.10250310643081E-17,-2.22044604925031E-16,-1.));
#600=DIRECTION('center_axis',(-1.,-7.67680359762385E-18,-5.9636808784781E-17));
#601=DIRECTION('ref_axis',(6.10250310643081E-17,-2.22044604925031E-16,-1.));
#602=DIRECTION('center_axis',(3.49899085470672E-16,-1.,2.22044604925031E-16));
#603=DIRECTION('ref_axis',(0.,-2.22044604925031E-16,-1.));
#604=DIRECTION('',(-4.28626379701574E-17,2.22044604925031E-16,1.));
#605=DIRECTION('',(1.,3.49899085470672E-16,8.7474771367668E-17));
#606=DIRECTION('',(4.28626379701574E-17,-2.22044604925031E-16,-1.));
#607=DIRECTION('',(-1.,-3.49899085470672E-16,-8.7474771367668E-17));
#608=DIRECTION('',(-4.28626379701574E-17,2.22044604925031E-16,1.));
#609=DIRECTION('center_axis',(1.,1.07156594925393E-17,4.28626379701574E-17));
#610=DIRECTION('ref_axis',(4.28626379701574E-17,0.,-1.));
#611=DIRECTION('',(4.28626379701574E-17,-2.22044604925031E-16,-1.));
#612=DIRECTION('',(-1.07156594925393E-17,1.,-2.22044604925031E-16));
#613=DIRECTION('center_axis',(1.,1.07156594925393E-17,4.28626379701574E-17));
#614=DIRECTION('ref_axis',(4.28626379701574E-17,0.,-1.));
#615=DIRECTION('',(-1.07156594925393E-17,1.,-2.22044604925031E-16));
#616=DIRECTION('',(4.28626379701574E-17,-2.22044604925031E-16,-1.));
#617=DIRECTION('center_axis',(1.,-3.22717124631615E-17,6.14403531020498E-17));
#618=DIRECTION('ref_axis',(6.10250310643081E-17,-2.22044604925031E-16,-1.));
#619=DIRECTION('',(1.,-3.22717124631615E-17,6.14403531020498E-17));
#620=DIRECTION('center_axis',(-1.,-1.07156594925393E-17,-4.28626379701574E-17));
#621=DIRECTION('ref_axis',(6.10250310643081E-17,-2.22044604925031E-16,-1.));
#622=DIRECTION('center_axis',(1.,-3.22717124631615E-17,6.14403531020498E-17));
#623=DIRECTION('ref_axis',(6.10250310643081E-17,-2.22044604925031E-16,-1.));
#624=DIRECTION('',(1.,-3.22717124631615E-17,6.14403531020498E-17));
#625=DIRECTION('center_axis',(-1.,-1.07156594925393E-17,-4.28626379701574E-17));
#626=DIRECTION('ref_axis',(6.10250310643081E-17,-2.22044604925031E-16,-1.));
#627=DIRECTION('center_axis',(3.67602052888888E-17,-1.,2.22233235948304E-16));
#628=DIRECTION('ref_axis',(0.,-2.22233235948304E-16,-1.));
#629=DIRECTION('',(1.,3.67602052888889E-17,1.66997290792821E-16));
#630=DIRECTION('',(4.08331195298207E-17,-2.22233235948304E-16,-1.));
#631=DIRECTION('',(-1.,-3.67602052888889E-17,-1.66997290792821E-16));
#632=DIRECTION('',(-2.24518579843681E-17,2.22233235948304E-16,1.));
#633=DIRECTION('center_axis',(-3.67602052888888E-17,1.,-2.22233235948304E-16));
#634=DIRECTION('ref_axis',(6.12323399573677E-17,-2.22044604925031E-16,-1.));
#635=DIRECTION('center_axis',(3.67602052888888E-17,-1.,2.22233235948304E-16));
#636=DIRECTION('ref_axis',(0.,-2.22233235948304E-16,-1.));
#637=DIRECTION('',(-1.,-3.67602052888889E-17,-1.66997290792821E-16));
#638=DIRECTION('',(2.24518579843681E-17,-2.22233235948304E-16,-1.));
#639=DIRECTION('',(1.,3.67602052888889E-17,1.66997290792821E-16));
#640=DIRECTION('',(-4.08331195298207E-17,2.22233235948304E-16,1.));
#641=DIRECTION('center_axis',(1.,1.01996151196358E-16,4.08331195298207E-17));
#642=DIRECTION('ref_axis',(4.08331195298207E-17,0.,-1.));
#643=DIRECTION('',(1.01996151196358E-16,-1.,2.22044604925031E-16));
#644=DIRECTION('',(-1.01996151196358E-16,1.,-2.22044604925031E-16));
#645=DIRECTION('center_axis',(1.66997290792821E-16,-2.22044604925031E-16,
-1.));
#646=DIRECTION('ref_axis',(-1.,0.,-1.66997290792821E-16));
#647=DIRECTION('',(-6.73555739531044E-17,1.,-2.22044604925031E-16));
#648=DIRECTION('',(1.,5.5665763597607E-17,1.66997290792821E-16));
#649=DIRECTION('',(-1.07156594925393E-17,1.,-2.22044604925031E-16));
#650=DIRECTION('',(-1.,-3.49899085470672E-16,-8.7474771367668E-17));
#651=DIRECTION('',(-1.07156594925393E-17,1.,-2.22044604925031E-16));
#652=DIRECTION('',(-1.,-5.5665763597607E-17,-1.66997290792821E-16));
#653=DIRECTION('',(-6.73555739531044E-17,1.,-2.22044604925031E-16));
#654=DIRECTION('center_axis',(-1.,-6.73555739531044E-17,-2.24518579843681E-17));
#655=DIRECTION('ref_axis',(-2.24518579843681E-17,0.,1.));
#656=DIRECTION('',(-6.73555739531044E-17,1.,-2.22044604925031E-16));
#657=DIRECTION('',(2.24518579843681E-17,-2.22044604925031E-16,-1.));
#658=DIRECTION('center_axis',(-1.,-6.73555739531044E-17,-2.24518579843681E-17));
#659=DIRECTION('ref_axis',(-2.24518579843681E-17,0.,1.));
#660=DIRECTION('',(-2.24518579843681E-17,2.22044604925031E-16,1.));
#661=DIRECTION('',(-6.73555739531044E-17,1.,-2.22044604925031E-16));
#662=DIRECTION('center_axis',(-1.,-1.07156594925393E-17,-4.28626379701574E-17));
#663=DIRECTION('ref_axis',(-4.28626379701574E-17,0.,1.));
#664=DIRECTION('',(-4.28626379701574E-17,2.22044604925031E-16,1.));
#665=DIRECTION('',(-1.07156594925393E-17,1.,-2.22044604925031E-16));
#666=DIRECTION('center_axis',(-1.,-1.07156594925393E-17,-4.28626379701574E-17));
#667=DIRECTION('ref_axis',(-4.28626379701574E-17,0.,1.));
#668=DIRECTION('',(4.28626379701574E-17,-2.22044604925031E-16,-1.));
#669=DIRECTION('',(-4.28626379701574E-17,2.22044604925031E-16,1.));
#670=DIRECTION('',(-1.07156594925393E-17,1.,-2.22044604925031E-16));
#671=DIRECTION('center_axis',(3.49899085470672E-16,-1.,2.22044604925031E-16));
#672=DIRECTION('ref_axis',(0.,-2.22044604925031E-16,-1.));
#673=DIRECTION('',(1.,3.49899085470672E-16,8.7474771367668E-17));
#674=DIRECTION('center_axis',(-1.66997290792821E-16,2.22044604925031E-16,
1.));
#675=DIRECTION('ref_axis',(1.,0.,1.66997290792821E-16));
#676=DIRECTION('',(1.,5.5665763597607E-17,1.66997290792821E-16));
#677=DIRECTION('',(-1.,-5.5665763597607E-17,-1.66997290792821E-16));
#678=DIRECTION('center_axis',(1.25557245944433E-16,1.,-2.22044604925031E-16));
#679=DIRECTION('ref_axis',(6.12323399573677E-17,-2.22044604925031E-16,-1.));
#680=DIRECTION('',(-1.25557245944433E-16,-1.,2.22044604925031E-16));
#681=DIRECTION('center_axis',(4.63263002376527E-16,1.,-2.22044604925031E-16));
#682=DIRECTION('ref_axis',(0.,2.22044604925031E-16,1.));
#683=DIRECTION('center_axis',(4.63263002376527E-16,1.,-2.22044604925031E-16));
#684=DIRECTION('ref_axis',(0.,2.22044604925031E-16,1.));
#685=CARTESIAN_POINT('',(0.,0.,0.));
#686=CARTESIAN_POINT('Origin',(76.3499969482422,279.291496948242,15.));
#687=CARTESIAN_POINT('',(76.3499969482422,279.291496948242,19.));
#688=CARTESIAN_POINT('Origin',(76.3499969482422,279.291496948242,15.));
#689=CARTESIAN_POINT('',(76.3499969482422,279.291496948242,17.5085));
#690=CARTESIAN_POINT('Origin',(76.3499969482422,279.291496948242,15.));
#691=CARTESIAN_POINT('Origin',(76.3499969482422,288.308496948242,14.9999999999999));
#692=CARTESIAN_POINT('',(76.3499969482422,288.308496948242,19.));
#693=CARTESIAN_POINT('Origin',(76.3499969482422,288.308496948242,14.9999999999999));
#694=CARTESIAN_POINT('',(76.3499969482422,288.308496948242,17.5085));
#695=CARTESIAN_POINT('Origin',(76.3499969482422,288.308496948242,15.));
#696=CARTESIAN_POINT('Origin',(76.3499969482422,261.041496948242,15.));
#697=CARTESIAN_POINT('',(76.3499969482422,293.799996948242,17.5084999999999));
#698=CARTESIAN_POINT('',(76.3499969482422,261.041496948242,17.5085));
#699=CARTESIAN_POINT('Origin',(76.3499969482422,293.799996948242,14.9999999999999));
#700=CARTESIAN_POINT('Origin',(76.3499969482422,273.799996948242,15.));
#701=CARTESIAN_POINT('',(76.3499969482422,289.808496948242,19.));
#702=CARTESIAN_POINT('Origin',(76.3499969482422,289.808496948242,14.9999999999999));
#703=CARTESIAN_POINT('',(76.3499969482422,273.799996948242,19.));
#704=CARTESIAN_POINT('Origin',(76.3499969482422,261.041496948242,15.));
#705=CARTESIAN_POINT('',(76.3499969482422,273.799996948242,17.5085));
#706=CARTESIAN_POINT('Origin',(76.3499969482422,273.799996948242,15.));
#707=CARTESIAN_POINT('',(76.3499969482422,261.041496948242,17.5085));
#708=CARTESIAN_POINT('Origin',(58.7999969482422,283.799996948242,4.79149999999994));
#709=CARTESIAN_POINT('',(61.3084969482422,263.799996948242,4.79149999999995));
#710=CARTESIAN_POINT('',(59.2999969482422,263.799996948242,4.79149999999995));
#711=CARTESIAN_POINT('',(60.7999969482422,263.799996948242,4.79149999999995));
#712=CARTESIAN_POINT('',(61.3084969482422,303.799996948242,4.79149999999994));
#713=CARTESIAN_POINT('',(61.3084969482422,283.799996948242,4.79149999999994));
#714=CARTESIAN_POINT('',(59.2999969482422,303.799996948242,4.79149999999994));
#715=CARTESIAN_POINT('',(60.7999969482422,303.799996948242,4.79149999999994));
#716=CARTESIAN_POINT('',(59.2999969482422,283.799996948242,4.79149999999995));
#717=CARTESIAN_POINT('Origin',(58.7999969482422,283.799996948242,25.8084999999999));
#718=CARTESIAN_POINT('',(59.2999969482422,263.799996948242,25.8085));
#719=CARTESIAN_POINT('',(61.3084969482422,263.799996948242,25.8084999999999));
#720=CARTESIAN_POINT('',(60.7999969482422,263.799996948242,25.8084999999999));
#721=CARTESIAN_POINT('',(59.2999969482422,303.799996948242,25.8084999999999));
#722=CARTESIAN_POINT('',(59.2999969482422,283.799996948242,25.8084999999999));
#723=CARTESIAN_POINT('',(61.3084969482422,303.799996948242,25.8084999999999));
#724=CARTESIAN_POINT('',(60.7999969482422,303.799996948242,25.8084999999999));
#725=CARTESIAN_POINT('',(61.3084969482422,283.799996948242,25.8084999999999));
#726=CARTESIAN_POINT('Origin',(61.3084969482422,283.799996948242,15.2999999999999));
#727=CARTESIAN_POINT('',(61.3084969482422,263.799996948242,15.1499999999999));
#728=CARTESIAN_POINT('',(61.3084969482422,303.799996948242,15.1499999999999));
#729=CARTESIAN_POINT('',(61.3084969482422,298.799996948242,17.0084999999999));
#730=CARTESIAN_POINT('Origin',(61.3084969482422,298.799996948242,14.9999999999999));
#731=CARTESIAN_POINT('',(61.3084969482422,268.799996948242,17.0084999999999));
#732=CARTESIAN_POINT('Origin',(61.3084969482422,268.799996948242,14.9999999999999));
#733=CARTESIAN_POINT('Origin',(62.7999969482422,303.799996948242,14.9999999999999));
#734=CARTESIAN_POINT('',(59.2999969482422,303.799996948242,29.9999999999999));
#735=CARTESIAN_POINT('',(59.2999969482422,303.799996948242,14.9999999999999));
#736=CARTESIAN_POINT('',(66.2999969482422,303.799996948242,29.9999999999999));
#737=CARTESIAN_POINT('',(62.7999969482422,303.799996948242,29.9999999999999));
#738=CARTESIAN_POINT('',(66.2999969482422,303.799996948242,-6.3948846218409E-14));
#739=CARTESIAN_POINT('',(66.2999969482422,303.799996948242,14.9999999999999));
#740=CARTESIAN_POINT('',(59.2999969482422,303.799996948242,-6.3948846218409E-14));
#741=CARTESIAN_POINT('',(62.7999969482422,303.799996948242,-6.3948846218409E-14));
#742=CARTESIAN_POINT('',(59.2999969482422,303.799996948242,14.9999999999999));
#743=CARTESIAN_POINT('Origin',(59.2999969482422,283.799996948242,14.9999999999999));
#744=CARTESIAN_POINT('',(59.2999969482422,263.799996948242,29.9999999999999));
#745=CARTESIAN_POINT('',(59.2999969482422,263.799996948242,14.9999999999999));
#746=CARTESIAN_POINT('',(59.2999969482422,283.799996948242,29.9999999999999));
#747=CARTESIAN_POINT('Origin',(59.2999969482422,283.799996948242,14.9999999999999));
#748=CARTESIAN_POINT('',(59.2999969482422,263.799996948242,-5.6843418860808E-14));
#749=CARTESIAN_POINT('',(59.2999969482422,283.799996948242,-6.03961325396085E-14));
#750=CARTESIAN_POINT('',(59.2999969482422,263.799996948242,14.9999999999999));
#751=CARTESIAN_POINT('Origin',(56.2914969482422,298.799996948242,14.9999999999999));
#752=CARTESIAN_POINT('',(66.2999969482422,298.799996948242,17.0084999999999));
#753=CARTESIAN_POINT('',(56.2914969482422,298.799996948242,17.0084999999999));
#754=CARTESIAN_POINT('Origin',(66.2999969482422,298.799996948242,14.9999999999999));
#755=CARTESIAN_POINT('Origin',(56.2914969482422,268.799996948242,14.9999999999999));
#756=CARTESIAN_POINT('',(66.2999969482422,268.799996948242,17.0084999999999));
#757=CARTESIAN_POINT('',(56.2914969482422,268.799996948242,17.0084999999999));
#758=CARTESIAN_POINT('Origin',(66.2999969482422,268.799996948242,14.9999999999999));
#759=CARTESIAN_POINT('Origin',(76.3499969482422,277.791496948242,14.9999999999999));
#760=CARTESIAN_POINT('',(66.3414969482422,277.791496948242,-7.28306304154103E-14));
#761=CARTESIAN_POINT('',(86.0999969482422,277.791496948242,-6.9720118567318E-14));
#762=CARTESIAN_POINT('',(75.7249969482422,277.791496948242,-7.105427357601E-14));
#763=CARTESIAN_POINT('',(66.3414969482422,277.791496948242,29.9999999999999));
#764=CARTESIAN_POINT('',(66.3414969482422,277.791496948242,14.9999999999999));
#765=CARTESIAN_POINT('',(86.0999969482422,277.791496948242,29.9999999999999));
#766=CARTESIAN_POINT('',(75.7249969482422,277.791496948242,29.9999999999999));
#767=CARTESIAN_POINT('',(86.0999969482422,277.791496948242,14.9999999999999));
#768=CARTESIAN_POINT('',(76.3499969482422,277.791496948242,19.));
#769=CARTESIAN_POINT('Origin',(76.3499969482422,277.791496948242,15.));
#770=CARTESIAN_POINT('Origin',(76.3499969482422,289.808496948242,14.9999999999999));
#771=CARTESIAN_POINT('',(86.0999969482422,289.808496948242,-7.23884285847021E-14));
#772=CARTESIAN_POINT('',(66.3414969482422,289.808496948242,-7.63833440942108E-14));
#773=CARTESIAN_POINT('',(75.7249969482422,289.808496948242,-7.37188088351104E-14));
#774=CARTESIAN_POINT('',(86.0999969482422,289.808496948242,29.9999999999999));
#775=CARTESIAN_POINT('',(86.0999969482422,289.808496948242,14.9999999999999));
#776=CARTESIAN_POINT('',(66.3414969482422,289.808496948242,29.9999999999999));
#777=CARTESIAN_POINT('',(75.7249969482422,289.808496948242,29.9999999999999));
#778=CARTESIAN_POINT('',(66.3414969482422,289.808496948242,14.9999999999999));
#779=CARTESIAN_POINT('Origin',(66.3414969482422,283.799996948242,14.9999999999999));
#780=CARTESIAN_POINT('',(66.3414969482422,283.799996948242,-7.46069872548105E-14));
#781=CARTESIAN_POINT('',(66.3414969482422,283.799996948242,29.9999999999999));
#782=CARTESIAN_POINT('Origin',(75.0999969482422,283.799996948242,29.9999999999999));
#783=CARTESIAN_POINT('',(86.0999969482422,293.799996948242,29.9999999999999));
#784=CARTESIAN_POINT('',(86.0999969482422,283.799996948242,29.9999999999999));
#785=CARTESIAN_POINT('',(66.2999969482422,293.799996948242,29.9999999999999));
#786=CARTESIAN_POINT('',(75.0999969482422,293.799996948242,29.9999999999999));
#787=CARTESIAN_POINT('',(66.2999969482422,283.799996948242,29.9999999999999));
#788=CARTESIAN_POINT('',(66.2999969482422,263.799996948242,29.9999999999999));
#789=CARTESIAN_POINT('',(62.7999969482422,263.799996948242,29.9999999999999));
#790=CARTESIAN_POINT('',(66.2999969482422,273.799996948242,29.9999999999999));
#791=CARTESIAN_POINT('',(66.2999969482422,283.799996948242,29.9999999999999));
#792=CARTESIAN_POINT('',(86.0999969482422,273.799996948242,29.9999999999999));
#793=CARTESIAN_POINT('',(75.0999969482422,273.799996948242,29.9999999999999));
#794=CARTESIAN_POINT('',(86.0999969482422,283.799996948242,29.9999999999999));
#795=CARTESIAN_POINT('Origin',(86.0999969482422,283.799996948242,14.9999999999999));
#796=CARTESIAN_POINT('',(86.0999969482422,293.799996948242,-7.28306304154103E-14));
#797=CARTESIAN_POINT('',(86.0999969482422,283.799996948242,-7.105427357601E-14));
#798=CARTESIAN_POINT('',(86.0999969482422,293.799996948242,14.9999999999999));
#799=CARTESIAN_POINT('Origin',(86.0999969482422,283.799996948242,14.9999999999999));
#800=CARTESIAN_POINT('',(86.0999969482422,273.799996948242,-6.92779167366098E-14));
#801=CARTESIAN_POINT('',(86.0999969482422,273.799996948242,14.9999999999999));
#802=CARTESIAN_POINT('',(86.0999969482422,283.799996948242,-7.105427357601E-14));
#803=CARTESIAN_POINT('Origin',(66.2999969482422,283.799996948242,14.9999999999999));
#804=CARTESIAN_POINT('',(66.2999969482422,293.799996948242,-6.26165785888588E-14));
#805=CARTESIAN_POINT('',(66.2999969482422,293.799996948242,14.9999999999999));
#806=CARTESIAN_POINT('',(66.2999969482422,283.799996948242,-6.03961325396085E-14));
#807=CARTESIAN_POINT('Origin',(66.2999969482422,283.799996948242,14.9999999999999));
#808=CARTESIAN_POINT('',(66.2999969482422,273.799996948242,-5.81756864903582E-14));
#809=CARTESIAN_POINT('',(66.2999969482422,273.799996948242,14.9999999999999));
#810=CARTESIAN_POINT('',(66.2999969482422,263.799996948242,-5.6843418860808E-14));
#811=CARTESIAN_POINT('',(66.2999969482422,263.799996948242,14.9999999999999));
#812=CARTESIAN_POINT('',(66.2999969482422,283.799996948242,-6.03961325396085E-14));
#813=CARTESIAN_POINT('Origin',(62.7999969482422,263.799996948242,14.9999999999999));
#814=CARTESIAN_POINT('',(62.7999969482422,263.799996948242,-5.6843418860808E-14));
#815=CARTESIAN_POINT('Origin',(75.0999969482422,283.799996948242,-7.28306304154103E-14));
#816=CARTESIAN_POINT('',(75.0999969482422,273.799996948242,-7.105427357601E-14));
#817=CARTESIAN_POINT('',(75.0999969482422,293.799996948242,-7.46069872548105E-14));
#818=CARTESIAN_POINT('Origin',(76.3499969482422,273.799996948242,15.));
#819=CARTESIAN_POINT('',(76.3499969482422,273.799996948242,19.));
#820=CARTESIAN_POINT('Origin',(76.3499969482422,293.799996948242,14.9999999999999));
#821=CARTESIAN_POINT('Origin',(76.3499969482422,273.799996948242,15.));
#822=UNCERTAINTY_MEASURE_WITH_UNIT(LENGTH_MEASURE(0.01),#826,
'DISTANCE_ACCURACY_VALUE',
'Maximum model space distance between geometric entities at asserted c
onnectivities');
#823=UNCERTAINTY_MEASURE_WITH_UNIT(LENGTH_MEASURE(0.01),#826,
'DISTANCE_ACCURACY_VALUE',
'Maximum model space distance between geometric entities at asserted c
onnectivities');
#824=(
GEOMETRIC_REPRESENTATION_CONTEXT(3)
GLOBAL_UNCERTAINTY_ASSIGNED_CONTEXT((#822))
GLOBAL_UNIT_ASSIGNED_CONTEXT((#826,#828,#829))
REPRESENTATION_CONTEXT('','3D')
);
#825=(
GEOMETRIC_REPRESENTATION_CONTEXT(3)
GLOBAL_UNCERTAINTY_ASSIGNED_CONTEXT((#823))
GLOBAL_UNIT_ASSIGNED_CONTEXT((#826,#828,#829))
REPRESENTATION_CONTEXT('','3D')
);
#826=(
LENGTH_UNIT()
NAMED_UNIT(*)
SI_UNIT(.MILLI.,.METRE.)
);
#827=(
LENGTH_UNIT()
NAMED_UNIT(*)
SI_UNIT($,.METRE.)
);
#828=(
NAMED_UNIT(*)
PLANE_ANGLE_UNIT()
SI_UNIT($,.RADIAN.)
);
#829=(
NAMED_UNIT(*)
SI_UNIT($,.STERADIAN.)
SOLID_ANGLE_UNIT()
);
#830=SHAPE_DEFINITION_REPRESENTATION(#831,#832);
#831=PRODUCT_DEFINITION_SHAPE('',$,#834);
#832=SHAPE_REPRESENTATION('',(#514),#824);
#833=PRODUCT_DEFINITION_CONTEXT('part definition',#838,'design');
#834=PRODUCT_DEFINITION('Suporte_poliaGT2_y.f3d',
'Suporte_poliaGT2_y.f3d v5',#835,#833);
#835=PRODUCT_DEFINITION_FORMATION('',$,#840);
#836=PRODUCT_RELATED_PRODUCT_CATEGORY('Suporte_poliaGT2_y.f3d v5',
'Suporte_poliaGT2_y.f3d v5',(#840));
#837=APPLICATION_PROTOCOL_DEFINITION('international standard',
'automotive_design',2009,#838);
#838=APPLICATION_CONTEXT(
'Core Data for Automotive Mechanical Design Process');
#839=PRODUCT_CONTEXT('part definition',#838,'mechanical');
#840=PRODUCT('Suporte_poliaGT2_y.f3d','Suporte_poliaGT2_y.f3d v5',$,(#839));
#841=PRESENTATION_STYLE_ASSIGNMENT((#842));
#842=SURFACE_STYLE_USAGE(.BOTH.,#843);
#843=SURFACE_SIDE_STYLE('',(#844));
#844=SURFACE_STYLE_FILL_AREA(#845);
#845=FILL_AREA_STYLE('Pintura - Esmalte com brilho (Amarelo)',(#846));
#846=FILL_AREA_STYLE_COLOUR('Pintura - Esmalte com brilho (Amarelo)',#847);
#847=COLOUR_RGB('Pintura - Esmalte com brilho (Amarelo)',0.909803921568627,
0.67843137254902,0.137254901960784);
ENDSEC;
END-ISO-10303-21;
