ISO-10303-21;
HEADER;
/* Generated by software containing ST-Developer
 * from STEP Tools, Inc. (www.steptools.com) 
 */

FILE_DESCRIPTION(
/* description */ (''),
/* implementation_level */ '2;1');

FILE_NAME(
/* name */ 'SuporteNema17EixoZ.step',
/* time_stamp */ '2026-04-01T20:55:00-03:00',
/* author */ (''),
/* organization */ (''),
/* preprocessor_version */ 'ST-DEVELOPER v20.1',
/* originating_system */ 'Autodesk Translation Framework v14.24.0.0',
/* authorisation */ '');

FILE_SCHEMA (('AUTOMOTIVE_DESIGN { 1 0 10303 214 3 1 1 }'));
ENDSEC;

DATA;
#10=MECHANICAL_DESIGN_GEOMETRIC_PRESENTATION_REPRESENTATION('',(#13),#870);
#11=SHAPE_REPRESENTATION_RELATIONSHIP('SRR','None',#877,#12);
#12=ADVANCED_BREP_SHAPE_REPRESENTATION('',(#14),#869);
#13=STYLED_ITEM('',(#886),#14);
#14=MANIFOLD_SOLID_BREP('Corpo1',#518);
#15=FACE_BOUND('',#81,.T.);
#16=FACE_BOUND('',#82,.T.);
#17=FACE_BOUND('',#83,.T.);
#18=FACE_BOUND('',#84,.T.);
#19=FACE_BOUND('',#85,.T.);
#20=FACE_BOUND('',#86,.T.);
#21=FACE_BOUND('',#87,.T.);
#22=FACE_BOUND('',#94,.T.);
#23=FACE_BOUND('',#95,.T.);
#24=FACE_BOUND('',#96,.T.);
#25=FACE_BOUND('',#97,.T.);
#26=FACE_BOUND('',#98,.T.);
#27=FACE_BOUND('',#99,.T.);
#28=FACE_BOUND('',#100,.T.);
#29=FACE_BOUND('',#109,.T.);
#30=FACE_BOUND('',#110,.T.);
#31=FACE_BOUND('',#112,.T.);
#32=FACE_BOUND('',#113,.T.);
#33=PLANE('',#538);
#34=PLANE('',#539);
#35=PLANE('',#541);
#36=PLANE('',#543);
#37=PLANE('',#544);
#38=PLANE('',#549);
#39=PLANE('',#565);
#40=PLANE('',#569);
#41=PLANE('',#576);
#42=PLANE('',#577);
#43=PLANE('',#578);
#44=PLANE('',#579);
#45=PLANE('',#580);
#46=FACE_OUTER_BOUND('',#71,.T.);
#47=FACE_OUTER_BOUND('',#72,.T.);
#48=FACE_OUTER_BOUND('',#73,.T.);
#49=FACE_OUTER_BOUND('',#74,.T.);
#50=FACE_OUTER_BOUND('',#75,.T.);
#51=FACE_OUTER_BOUND('',#76,.T.);
#52=FACE_OUTER_BOUND('',#77,.T.);
#53=FACE_OUTER_BOUND('',#78,.T.);
#54=FACE_OUTER_BOUND('',#79,.T.);
#55=FACE_OUTER_BOUND('',#80,.T.);
#56=FACE_OUTER_BOUND('',#88,.T.);
#57=FACE_OUTER_BOUND('',#89,.T.);
#58=FACE_OUTER_BOUND('',#90,.T.);
#59=FACE_OUTER_BOUND('',#91,.T.);
#60=FACE_OUTER_BOUND('',#92,.T.);
#61=FACE_OUTER_BOUND('',#93,.T.);
#62=FACE_OUTER_BOUND('',#101,.T.);
#63=FACE_OUTER_BOUND('',#102,.T.);
#64=FACE_OUTER_BOUND('',#103,.T.);
#65=FACE_OUTER_BOUND('',#104,.T.);
#66=FACE_OUTER_BOUND('',#105,.T.);
#67=FACE_OUTER_BOUND('',#106,.T.);
#68=FACE_OUTER_BOUND('',#107,.T.);
#69=FACE_OUTER_BOUND('',#108,.T.);
#70=FACE_OUTER_BOUND('',#111,.T.);
#71=EDGE_LOOP('',(#343,#344,#345,#346));
#72=EDGE_LOOP('',(#347,#348,#349,#350));
#73=EDGE_LOOP('',(#351,#352,#353,#354));
#74=EDGE_LOOP('',(#355,#356,#357,#358));
#75=EDGE_LOOP('',(#359,#360,#361,#362));
#76=EDGE_LOOP('',(#363,#364,#365,#366));
#77=EDGE_LOOP('',(#367,#368,#369,#370,#371,#372,#373,#374));
#78=EDGE_LOOP('',(#375,#376,#377,#378));
#79=EDGE_LOOP('',(#379,#380,#381,#382));
#80=EDGE_LOOP('',(#383,#384,#385,#386));
#81=EDGE_LOOP('',(#387));
#82=EDGE_LOOP('',(#388));
#83=EDGE_LOOP('',(#389));
#84=EDGE_LOOP('',(#390));
#85=EDGE_LOOP('',(#391));
#86=EDGE_LOOP('',(#392));
#87=EDGE_LOOP('',(#393));
#88=EDGE_LOOP('',(#394,#395,#396,#397));
#89=EDGE_LOOP('',(#398,#399,#400,#401));
#90=EDGE_LOOP('',(#402,#403,#404,#405));
#91=EDGE_LOOP('',(#406,#407,#408,#409));
#92=EDGE_LOOP('',(#410,#411,#412,#413));
#93=EDGE_LOOP('',(#414,#415,#416,#417,#418,#419,#420,#421));
#94=EDGE_LOOP('',(#422));
#95=EDGE_LOOP('',(#423));
#96=EDGE_LOOP('',(#424));
#97=EDGE_LOOP('',(#425));
#98=EDGE_LOOP('',(#426));
#99=EDGE_LOOP('',(#427));
#100=EDGE_LOOP('',(#428));
#101=EDGE_LOOP('',(#429,#430,#431,#432));
#102=EDGE_LOOP('',(#433,#434,#435,#436));
#103=EDGE_LOOP('',(#437,#438,#439,#440));
#104=EDGE_LOOP('',(#441,#442,#443,#444));
#105=EDGE_LOOP('',(#445,#446,#447,#448,#449,#450,#451,#452,#453,#454));
#106=EDGE_LOOP('',(#455,#456,#457,#458));
#107=EDGE_LOOP('',(#459,#460,#461,#462,#463,#464,#465,#466,#467,#468));
#108=EDGE_LOOP('',(#469,#470,#471,#472));
#109=EDGE_LOOP('',(#473));
#110=EDGE_LOOP('',(#474));
#111=EDGE_LOOP('',(#475,#476,#477,#478));
#112=EDGE_LOOP('',(#479));
#113=EDGE_LOOP('',(#480));
#114=LINE('',#731,#159);
#115=LINE('',#737,#160);
#116=LINE('',#742,#161);
#117=LINE('',#744,#162);
#118=LINE('',#746,#163);
#119=LINE('',#747,#164);
#120=LINE('',#750,#165);
#121=LINE('',#753,#166);
#122=LINE('',#756,#167);
#123=LINE('',#758,#168);
#124=LINE('',#763,#169);
#125=LINE('',#765,#170);
#126=LINE('',#767,#171);
#127=LINE('',#768,#172);
#128=LINE('',#771,#173);
#129=LINE('',#773,#174);
#130=LINE('',#775,#175);
#131=LINE('',#777,#176);
#132=LINE('',#778,#177);
#133=LINE('',#781,#178);
#134=LINE('',#786,#179);
#135=LINE('',#789,#180);
#136=LINE('',#791,#181);
#137=LINE('',#792,#182);
#138=LINE('',#806,#183);
#139=LINE('',#810,#184);
#140=LINE('',#814,#185);
#141=LINE('',#818,#186);
#142=LINE('',#822,#187);
#143=LINE('',#825,#188);
#144=LINE('',#827,#189);
#145=LINE('',#828,#190);
#146=LINE('',#834,#191);
#147=LINE('',#836,#192);
#148=LINE('',#837,#193);
#149=LINE('',#842,#194);
#150=LINE('',#848,#195);
#151=LINE('',#852,#196);
#152=LINE('',#854,#197);
#153=LINE('',#855,#198);
#154=LINE('',#858,#199);
#155=LINE('',#860,#200);
#156=LINE('',#861,#201);
#157=LINE('',#863,#202);
#158=LINE('',#864,#203);
#159=VECTOR('',#587,3.);
#160=VECTOR('',#594,3.);
#161=VECTOR('',#599,10.);
#162=VECTOR('',#600,10.);
#163=VECTOR('',#601,10.);
#164=VECTOR('',#602,10.);
#165=VECTOR('',#605,10.);
#166=VECTOR('',#608,10.);
#167=VECTOR('',#611,10.);
#168=VECTOR('',#612,10.);
#169=VECTOR('',#617,10.);
#170=VECTOR('',#618,10.);
#171=VECTOR('',#619,10.);
#172=VECTOR('',#620,10.);
#173=VECTOR('',#623,10.);
#174=VECTOR('',#624,10.);
#175=VECTOR('',#625,10.);
#176=VECTOR('',#626,10.);
#177=VECTOR('',#627,10.);
#178=VECTOR('',#630,10.);
#179=VECTOR('',#637,10.);
#180=VECTOR('',#640,10.);
#181=VECTOR('',#641,10.);
#182=VECTOR('',#642,10.);
#183=VECTOR('',#657,11.5);
#184=VECTOR('',#662,1.7);
#185=VECTOR('',#667,1.7);
#186=VECTOR('',#672,1.7);
#187=VECTOR('',#677,1.7);
#188=VECTOR('',#680,10.);
#189=VECTOR('',#681,10.);
#190=VECTOR('',#682,10.);
#191=VECTOR('',#689,10.);
#192=VECTOR('',#692,10.);
#193=VECTOR('',#693,10.);
#194=VECTOR('',#698,2.25);
#195=VECTOR('',#705,2.25);
#196=VECTOR('',#710,10.);
#197=VECTOR('',#711,10.);
#198=VECTOR('',#712,10.);
#199=VECTOR('',#715,10.);
#200=VECTOR('',#716,10.);
#201=VECTOR('',#717,10.);
#202=VECTOR('',#720,10.);
#203=VECTOR('',#721,10.);
#204=CIRCLE('',#533,3.);
#205=CIRCLE('',#534,3.);
#206=CIRCLE('',#536,3.);
#207=CIRCLE('',#537,3.);
#208=CIRCLE('',#540,2.);
#209=CIRCLE('',#542,2.);
#210=CIRCLE('',#546,2.);
#211=CIRCLE('',#548,2.);
#212=CIRCLE('',#550,1.7);
#213=CIRCLE('',#551,1.7);
#214=CIRCLE('',#552,1.7);
#215=CIRCLE('',#553,1.7);
#216=CIRCLE('',#554,11.5);
#217=CIRCLE('',#556,11.5);
#218=CIRCLE('',#558,1.7);
#219=CIRCLE('',#560,1.7);
#220=CIRCLE('',#562,1.7);
#221=CIRCLE('',#564,1.7);
#222=CIRCLE('',#567,2.);
#223=CIRCLE('',#568,2.);
#224=CIRCLE('',#571,2.25);
#225=CIRCLE('',#572,2.25);
#226=CIRCLE('',#574,2.25);
#227=CIRCLE('',#575,2.25);
#228=VERTEX_POINT('',#728);
#229=VERTEX_POINT('',#730);
#230=VERTEX_POINT('',#734);
#231=VERTEX_POINT('',#736);
#232=VERTEX_POINT('',#740);
#233=VERTEX_POINT('',#741);
#234=VERTEX_POINT('',#743);
#235=VERTEX_POINT('',#745);
#236=VERTEX_POINT('',#749);
#237=VERTEX_POINT('',#751);
#238=VERTEX_POINT('',#755);
#239=VERTEX_POINT('',#757);
#240=VERTEX_POINT('',#761);
#241=VERTEX_POINT('',#762);
#242=VERTEX_POINT('',#764);
#243=VERTEX_POINT('',#766);
#244=VERTEX_POINT('',#770);
#245=VERTEX_POINT('',#772);
#246=VERTEX_POINT('',#774);
#247=VERTEX_POINT('',#776);
#248=VERTEX_POINT('',#780);
#249=VERTEX_POINT('',#784);
#250=VERTEX_POINT('',#788);
#251=VERTEX_POINT('',#790);
#252=VERTEX_POINT('',#793);
#253=VERTEX_POINT('',#795);
#254=VERTEX_POINT('',#797);
#255=VERTEX_POINT('',#799);
#256=VERTEX_POINT('',#801);
#257=VERTEX_POINT('',#804);
#258=VERTEX_POINT('',#808);
#259=VERTEX_POINT('',#812);
#260=VERTEX_POINT('',#816);
#261=VERTEX_POINT('',#820);
#262=VERTEX_POINT('',#824);
#263=VERTEX_POINT('',#826);
#264=VERTEX_POINT('',#830);
#265=VERTEX_POINT('',#832);
#266=VERTEX_POINT('',#839);
#267=VERTEX_POINT('',#841);
#268=VERTEX_POINT('',#845);
#269=VERTEX_POINT('',#847);
#270=VERTEX_POINT('',#851);
#271=VERTEX_POINT('',#853);
#272=VERTEX_POINT('',#857);
#273=VERTEX_POINT('',#859);
#274=EDGE_CURVE('',#228,#228,#204,.T.);
#275=EDGE_CURVE('',#228,#229,#114,.T.);
#276=EDGE_CURVE('',#229,#229,#205,.T.);
#277=EDGE_CURVE('',#230,#230,#206,.T.);
#278=EDGE_CURVE('',#230,#231,#115,.T.);
#279=EDGE_CURVE('',#231,#231,#207,.T.);
#280=EDGE_CURVE('',#232,#233,#116,.T.);
#281=EDGE_CURVE('',#234,#232,#117,.T.);
#282=EDGE_CURVE('',#235,#234,#118,.T.);
#283=EDGE_CURVE('',#233,#235,#119,.T.);
#284=EDGE_CURVE('',#236,#232,#120,.T.);
#285=EDGE_CURVE('',#237,#236,#208,.T.);
#286=EDGE_CURVE('',#234,#237,#121,.T.);
#287=EDGE_CURVE('',#233,#238,#122,.T.);
#288=EDGE_CURVE('',#239,#235,#123,.T.);
#289=EDGE_CURVE('',#238,#239,#209,.T.);
#290=EDGE_CURVE('',#240,#241,#124,.T.);
#291=EDGE_CURVE('',#242,#240,#125,.T.);
#292=EDGE_CURVE('',#243,#242,#126,.T.);
#293=EDGE_CURVE('',#243,#241,#127,.T.);
#294=EDGE_CURVE('',#244,#237,#128,.T.);
#295=EDGE_CURVE('',#245,#244,#129,.T.);
#296=EDGE_CURVE('',#246,#245,#130,.T.);
#297=EDGE_CURVE('',#246,#247,#131,.T.);
#298=EDGE_CURVE('',#239,#247,#132,.T.);
#299=EDGE_CURVE('',#236,#248,#133,.T.);
#300=EDGE_CURVE('',#248,#244,#210,.T.);
#301=EDGE_CURVE('',#247,#249,#211,.T.);
#302=EDGE_CURVE('',#249,#238,#134,.T.);
#303=EDGE_CURVE('',#241,#250,#135,.T.);
#304=EDGE_CURVE('',#251,#250,#136,.T.);
#305=EDGE_CURVE('',#240,#251,#137,.T.);
#306=EDGE_CURVE('',#252,#252,#212,.T.);
#307=EDGE_CURVE('',#253,#253,#213,.T.);
#308=EDGE_CURVE('',#254,#254,#214,.T.);
#309=EDGE_CURVE('',#255,#255,#215,.T.);
#310=EDGE_CURVE('',#256,#256,#216,.T.);
#311=EDGE_CURVE('',#257,#257,#217,.T.);
#312=EDGE_CURVE('',#257,#256,#138,.T.);
#313=EDGE_CURVE('',#258,#258,#218,.T.);
#314=EDGE_CURVE('',#258,#255,#139,.T.);
#315=EDGE_CURVE('',#259,#259,#219,.T.);
#316=EDGE_CURVE('',#259,#254,#140,.T.);
#317=EDGE_CURVE('',#260,#260,#220,.T.);
#318=EDGE_CURVE('',#260,#253,#141,.T.);
#319=EDGE_CURVE('',#261,#261,#221,.T.);
#320=EDGE_CURVE('',#261,#252,#142,.T.);
#321=EDGE_CURVE('',#249,#262,#143,.T.);
#322=EDGE_CURVE('',#263,#262,#144,.T.);
#323=EDGE_CURVE('',#248,#263,#145,.T.);
#324=EDGE_CURVE('',#264,#246,#222,.T.);
#325=EDGE_CURVE('',#245,#265,#223,.T.);
#326=EDGE_CURVE('',#265,#264,#146,.T.);
#327=EDGE_CURVE('',#262,#251,#147,.T.);
#328=EDGE_CURVE('',#250,#263,#148,.T.);
#329=EDGE_CURVE('',#266,#266,#224,.T.);
#330=EDGE_CURVE('',#266,#267,#149,.T.);
#331=EDGE_CURVE('',#267,#267,#225,.T.);
#332=EDGE_CURVE('',#268,#268,#226,.T.);
#333=EDGE_CURVE('',#268,#269,#150,.T.);
#334=EDGE_CURVE('',#269,#269,#227,.T.);
#335=EDGE_CURVE('',#242,#270,#151,.T.);
#336=EDGE_CURVE('',#271,#264,#152,.T.);
#337=EDGE_CURVE('',#270,#271,#153,.T.);
#338=EDGE_CURVE('',#270,#272,#154,.T.);
#339=EDGE_CURVE('',#273,#271,#155,.T.);
#340=EDGE_CURVE('',#272,#273,#156,.T.);
#341=EDGE_CURVE('',#272,#243,#157,.T.);
#342=EDGE_CURVE('',#265,#273,#158,.T.);
#343=ORIENTED_EDGE('',*,*,#274,.F.);
#344=ORIENTED_EDGE('',*,*,#275,.T.);
#345=ORIENTED_EDGE('',*,*,#276,.F.);
#346=ORIENTED_EDGE('',*,*,#275,.F.);
#347=ORIENTED_EDGE('',*,*,#277,.F.);
#348=ORIENTED_EDGE('',*,*,#278,.T.);
#349=ORIENTED_EDGE('',*,*,#279,.F.);
#350=ORIENTED_EDGE('',*,*,#278,.F.);
#351=ORIENTED_EDGE('',*,*,#280,.F.);
#352=ORIENTED_EDGE('',*,*,#281,.F.);
#353=ORIENTED_EDGE('',*,*,#282,.F.);
#354=ORIENTED_EDGE('',*,*,#283,.F.);
#355=ORIENTED_EDGE('',*,*,#284,.F.);
#356=ORIENTED_EDGE('',*,*,#285,.F.);
#357=ORIENTED_EDGE('',*,*,#286,.F.);
#358=ORIENTED_EDGE('',*,*,#281,.T.);
#359=ORIENTED_EDGE('',*,*,#287,.F.);
#360=ORIENTED_EDGE('',*,*,#283,.T.);
#361=ORIENTED_EDGE('',*,*,#288,.F.);
#362=ORIENTED_EDGE('',*,*,#289,.F.);
#363=ORIENTED_EDGE('',*,*,#290,.F.);
#364=ORIENTED_EDGE('',*,*,#291,.F.);
#365=ORIENTED_EDGE('',*,*,#292,.F.);
#366=ORIENTED_EDGE('',*,*,#293,.T.);
#367=ORIENTED_EDGE('',*,*,#288,.T.);
#368=ORIENTED_EDGE('',*,*,#282,.T.);
#369=ORIENTED_EDGE('',*,*,#286,.T.);
#370=ORIENTED_EDGE('',*,*,#294,.F.);
#371=ORIENTED_EDGE('',*,*,#295,.F.);
#372=ORIENTED_EDGE('',*,*,#296,.F.);
#373=ORIENTED_EDGE('',*,*,#297,.T.);
#374=ORIENTED_EDGE('',*,*,#298,.F.);
#375=ORIENTED_EDGE('',*,*,#285,.T.);
#376=ORIENTED_EDGE('',*,*,#299,.T.);
#377=ORIENTED_EDGE('',*,*,#300,.T.);
#378=ORIENTED_EDGE('',*,*,#294,.T.);
#379=ORIENTED_EDGE('',*,*,#289,.T.);
#380=ORIENTED_EDGE('',*,*,#298,.T.);
#381=ORIENTED_EDGE('',*,*,#301,.T.);
#382=ORIENTED_EDGE('',*,*,#302,.T.);
#383=ORIENTED_EDGE('',*,*,#290,.T.);
#384=ORIENTED_EDGE('',*,*,#303,.T.);
#385=ORIENTED_EDGE('',*,*,#304,.F.);
#386=ORIENTED_EDGE('',*,*,#305,.F.);
#387=ORIENTED_EDGE('',*,*,#274,.T.);
#388=ORIENTED_EDGE('',*,*,#277,.T.);
#389=ORIENTED_EDGE('',*,*,#306,.T.);
#390=ORIENTED_EDGE('',*,*,#307,.T.);
#391=ORIENTED_EDGE('',*,*,#308,.T.);
#392=ORIENTED_EDGE('',*,*,#309,.T.);
#393=ORIENTED_EDGE('',*,*,#310,.T.);
#394=ORIENTED_EDGE('',*,*,#311,.F.);
#395=ORIENTED_EDGE('',*,*,#312,.T.);
#396=ORIENTED_EDGE('',*,*,#310,.F.);
#397=ORIENTED_EDGE('',*,*,#312,.F.);
#398=ORIENTED_EDGE('',*,*,#313,.F.);
#399=ORIENTED_EDGE('',*,*,#314,.T.);
#400=ORIENTED_EDGE('',*,*,#309,.F.);
#401=ORIENTED_EDGE('',*,*,#314,.F.);
#402=ORIENTED_EDGE('',*,*,#315,.F.);
#403=ORIENTED_EDGE('',*,*,#316,.T.);
#404=ORIENTED_EDGE('',*,*,#308,.F.);
#405=ORIENTED_EDGE('',*,*,#316,.F.);
#406=ORIENTED_EDGE('',*,*,#317,.F.);
#407=ORIENTED_EDGE('',*,*,#318,.T.);
#408=ORIENTED_EDGE('',*,*,#307,.F.);
#409=ORIENTED_EDGE('',*,*,#318,.F.);
#410=ORIENTED_EDGE('',*,*,#319,.F.);
#411=ORIENTED_EDGE('',*,*,#320,.T.);
#412=ORIENTED_EDGE('',*,*,#306,.F.);
#413=ORIENTED_EDGE('',*,*,#320,.F.);
#414=ORIENTED_EDGE('',*,*,#287,.T.);
#415=ORIENTED_EDGE('',*,*,#302,.F.);
#416=ORIENTED_EDGE('',*,*,#321,.T.);
#417=ORIENTED_EDGE('',*,*,#322,.F.);
#418=ORIENTED_EDGE('',*,*,#323,.F.);
#419=ORIENTED_EDGE('',*,*,#299,.F.);
#420=ORIENTED_EDGE('',*,*,#284,.T.);
#421=ORIENTED_EDGE('',*,*,#280,.T.);
#422=ORIENTED_EDGE('',*,*,#276,.T.);
#423=ORIENTED_EDGE('',*,*,#279,.T.);
#424=ORIENTED_EDGE('',*,*,#311,.T.);
#425=ORIENTED_EDGE('',*,*,#313,.T.);
#426=ORIENTED_EDGE('',*,*,#315,.T.);
#427=ORIENTED_EDGE('',*,*,#317,.T.);
#428=ORIENTED_EDGE('',*,*,#319,.T.);
#429=ORIENTED_EDGE('',*,*,#324,.T.);
#430=ORIENTED_EDGE('',*,*,#296,.T.);
#431=ORIENTED_EDGE('',*,*,#325,.T.);
#432=ORIENTED_EDGE('',*,*,#326,.T.);
#433=ORIENTED_EDGE('',*,*,#327,.T.);
#434=ORIENTED_EDGE('',*,*,#304,.T.);
#435=ORIENTED_EDGE('',*,*,#328,.T.);
#436=ORIENTED_EDGE('',*,*,#322,.T.);
#437=ORIENTED_EDGE('',*,*,#329,.F.);
#438=ORIENTED_EDGE('',*,*,#330,.T.);
#439=ORIENTED_EDGE('',*,*,#331,.F.);
#440=ORIENTED_EDGE('',*,*,#330,.F.);
#441=ORIENTED_EDGE('',*,*,#332,.F.);
#442=ORIENTED_EDGE('',*,*,#333,.T.);
#443=ORIENTED_EDGE('',*,*,#334,.F.);
#444=ORIENTED_EDGE('',*,*,#333,.F.);
#445=ORIENTED_EDGE('',*,*,#335,.F.);
#446=ORIENTED_EDGE('',*,*,#291,.T.);
#447=ORIENTED_EDGE('',*,*,#305,.T.);
#448=ORIENTED_EDGE('',*,*,#327,.F.);
#449=ORIENTED_EDGE('',*,*,#321,.F.);
#450=ORIENTED_EDGE('',*,*,#301,.F.);
#451=ORIENTED_EDGE('',*,*,#297,.F.);
#452=ORIENTED_EDGE('',*,*,#324,.F.);
#453=ORIENTED_EDGE('',*,*,#336,.F.);
#454=ORIENTED_EDGE('',*,*,#337,.F.);
#455=ORIENTED_EDGE('',*,*,#338,.F.);
#456=ORIENTED_EDGE('',*,*,#337,.T.);
#457=ORIENTED_EDGE('',*,*,#339,.F.);
#458=ORIENTED_EDGE('',*,*,#340,.F.);
#459=ORIENTED_EDGE('',*,*,#341,.F.);
#460=ORIENTED_EDGE('',*,*,#340,.T.);
#461=ORIENTED_EDGE('',*,*,#342,.F.);
#462=ORIENTED_EDGE('',*,*,#325,.F.);
#463=ORIENTED_EDGE('',*,*,#295,.T.);
#464=ORIENTED_EDGE('',*,*,#300,.F.);
#465=ORIENTED_EDGE('',*,*,#323,.T.);
#466=ORIENTED_EDGE('',*,*,#328,.F.);
#467=ORIENTED_EDGE('',*,*,#303,.F.);
#468=ORIENTED_EDGE('',*,*,#293,.F.);
#469=ORIENTED_EDGE('',*,*,#326,.F.);
#470=ORIENTED_EDGE('',*,*,#342,.T.);
#471=ORIENTED_EDGE('',*,*,#339,.T.);
#472=ORIENTED_EDGE('',*,*,#336,.T.);
#473=ORIENTED_EDGE('',*,*,#331,.T.);
#474=ORIENTED_EDGE('',*,*,#334,.T.);
#475=ORIENTED_EDGE('',*,*,#292,.T.);
#476=ORIENTED_EDGE('',*,*,#335,.T.);
#477=ORIENTED_EDGE('',*,*,#338,.T.);
#478=ORIENTED_EDGE('',*,*,#341,.T.);
#479=ORIENTED_EDGE('',*,*,#329,.T.);
#480=ORIENTED_EDGE('',*,*,#332,.T.);
#481=CYLINDRICAL_SURFACE('',#532,3.);
#482=CYLINDRICAL_SURFACE('',#535,3.);
#483=CYLINDRICAL_SURFACE('',#545,2.);
#484=CYLINDRICAL_SURFACE('',#547,2.);
#485=CYLINDRICAL_SURFACE('',#555,11.5);
#486=CYLINDRICAL_SURFACE('',#557,1.7);
#487=CYLINDRICAL_SURFACE('',#559,1.7);
#488=CYLINDRICAL_SURFACE('',#561,1.7);
#489=CYLINDRICAL_SURFACE('',#563,1.7);
#490=CYLINDRICAL_SURFACE('',#566,2.);
#491=CYLINDRICAL_SURFACE('',#570,2.25);
#492=CYLINDRICAL_SURFACE('',#573,2.25);
#493=ADVANCED_FACE('',(#46),#481,.F.);
#494=ADVANCED_FACE('',(#47),#482,.F.);
#495=ADVANCED_FACE('',(#48),#33,.T.);
#496=ADVANCED_FACE('',(#49),#34,.T.);
#497=ADVANCED_FACE('',(#50),#35,.T.);
#498=ADVANCED_FACE('',(#51),#36,.T.);
#499=ADVANCED_FACE('',(#52),#37,.T.);
#500=ADVANCED_FACE('',(#53),#483,.F.);
#501=ADVANCED_FACE('',(#54),#484,.F.);
#502=ADVANCED_FACE('',(#55,#15,#16,#17,#18,#19,#20,#21),#38,.T.);
#503=ADVANCED_FACE('',(#56),#485,.F.);
#504=ADVANCED_FACE('',(#57),#486,.F.);
#505=ADVANCED_FACE('',(#58),#487,.F.);
#506=ADVANCED_FACE('',(#59),#488,.F.);
#507=ADVANCED_FACE('',(#60),#489,.F.);
#508=ADVANCED_FACE('',(#61,#22,#23,#24,#25,#26,#27,#28),#39,.T.);
#509=ADVANCED_FACE('',(#62),#490,.F.);
#510=ADVANCED_FACE('',(#63),#40,.T.);
#511=ADVANCED_FACE('',(#64),#491,.F.);
#512=ADVANCED_FACE('',(#65),#492,.F.);
#513=ADVANCED_FACE('',(#66),#41,.T.);
#514=ADVANCED_FACE('',(#67),#42,.T.);
#515=ADVANCED_FACE('',(#68),#43,.T.);
#516=ADVANCED_FACE('',(#69,#29,#30),#44,.T.);
#517=ADVANCED_FACE('',(#70,#31,#32),#45,.F.);
#518=CLOSED_SHELL('',(#493,#494,#495,#496,#497,#498,#499,#500,#501,#502,
#503,#504,#505,#506,#507,#508,#509,#510,#511,#512,#513,#514,#515,#516,#517));
#519=DERIVED_UNIT_ELEMENT(#521,1.);
#520=DERIVED_UNIT_ELEMENT(#872,-3.);
#521=(
MASS_UNIT()
NAMED_UNIT(*)
SI_UNIT(.KILO.,.GRAM.)
);
#522=DERIVED_UNIT((#519,#520));
#523=MEASURE_REPRESENTATION_ITEM('density measure',
POSITIVE_RATIO_MEASURE(7850.),#522);
#524=PROPERTY_DEFINITION_REPRESENTATION(#529,#526);
#525=PROPERTY_DEFINITION_REPRESENTATION(#530,#527);
#526=REPRESENTATION('material name',(#528),#869);
#527=REPRESENTATION('density',(#523),#869);
#528=DESCRIPTIVE_REPRESENTATION_ITEM('A\X\E7o','A\X\E7o');
#529=PROPERTY_DEFINITION('material property','material name',#879);
#530=PROPERTY_DEFINITION('material property','density of part',#879);
#531=AXIS2_PLACEMENT_3D('',#726,#581,#582);
#532=AXIS2_PLACEMENT_3D('',#727,#583,#584);
#533=AXIS2_PLACEMENT_3D('',#729,#585,#586);
#534=AXIS2_PLACEMENT_3D('',#732,#588,#589);
#535=AXIS2_PLACEMENT_3D('',#733,#590,#591);
#536=AXIS2_PLACEMENT_3D('',#735,#592,#593);
#537=AXIS2_PLACEMENT_3D('',#738,#595,#596);
#538=AXIS2_PLACEMENT_3D('',#739,#597,#598);
#539=AXIS2_PLACEMENT_3D('',#748,#603,#604);
#540=AXIS2_PLACEMENT_3D('',#752,#606,#607);
#541=AXIS2_PLACEMENT_3D('',#754,#609,#610);
#542=AXIS2_PLACEMENT_3D('',#759,#613,#614);
#543=AXIS2_PLACEMENT_3D('',#760,#615,#616);
#544=AXIS2_PLACEMENT_3D('',#769,#621,#622);
#545=AXIS2_PLACEMENT_3D('',#779,#628,#629);
#546=AXIS2_PLACEMENT_3D('',#782,#631,#632);
#547=AXIS2_PLACEMENT_3D('',#783,#633,#634);
#548=AXIS2_PLACEMENT_3D('',#785,#635,#636);
#549=AXIS2_PLACEMENT_3D('',#787,#638,#639);
#550=AXIS2_PLACEMENT_3D('',#794,#643,#644);
#551=AXIS2_PLACEMENT_3D('',#796,#645,#646);
#552=AXIS2_PLACEMENT_3D('',#798,#647,#648);
#553=AXIS2_PLACEMENT_3D('',#800,#649,#650);
#554=AXIS2_PLACEMENT_3D('',#802,#651,#652);
#555=AXIS2_PLACEMENT_3D('',#803,#653,#654);
#556=AXIS2_PLACEMENT_3D('',#805,#655,#656);
#557=AXIS2_PLACEMENT_3D('',#807,#658,#659);
#558=AXIS2_PLACEMENT_3D('',#809,#660,#661);
#559=AXIS2_PLACEMENT_3D('',#811,#663,#664);
#560=AXIS2_PLACEMENT_3D('',#813,#665,#666);
#561=AXIS2_PLACEMENT_3D('',#815,#668,#669);
#562=AXIS2_PLACEMENT_3D('',#817,#670,#671);
#563=AXIS2_PLACEMENT_3D('',#819,#673,#674);
#564=AXIS2_PLACEMENT_3D('',#821,#675,#676);
#565=AXIS2_PLACEMENT_3D('',#823,#678,#679);
#566=AXIS2_PLACEMENT_3D('',#829,#683,#684);
#567=AXIS2_PLACEMENT_3D('',#831,#685,#686);
#568=AXIS2_PLACEMENT_3D('',#833,#687,#688);
#569=AXIS2_PLACEMENT_3D('',#835,#690,#691);
#570=AXIS2_PLACEMENT_3D('',#838,#694,#695);
#571=AXIS2_PLACEMENT_3D('',#840,#696,#697);
#572=AXIS2_PLACEMENT_3D('',#843,#699,#700);
#573=AXIS2_PLACEMENT_3D('',#844,#701,#702);
#574=AXIS2_PLACEMENT_3D('',#846,#703,#704);
#575=AXIS2_PLACEMENT_3D('',#849,#706,#707);
#576=AXIS2_PLACEMENT_3D('',#850,#708,#709);
#577=AXIS2_PLACEMENT_3D('',#856,#713,#714);
#578=AXIS2_PLACEMENT_3D('',#862,#718,#719);
#579=AXIS2_PLACEMENT_3D('',#865,#722,#723);
#580=AXIS2_PLACEMENT_3D('',#866,#724,#725);
#581=DIRECTION('axis',(0.,0.,1.));
#582=DIRECTION('refdir',(1.,0.,0.));
#583=DIRECTION('center_axis',(0.,0.,-1.));
#584=DIRECTION('ref_axis',(-1.,0.,0.));
#585=DIRECTION('center_axis',(0.,0.,-1.));
#586=DIRECTION('ref_axis',(-1.,0.,0.));
#587=DIRECTION('',(0.,0.,-1.));
#588=DIRECTION('center_axis',(0.,0.,1.));
#589=DIRECTION('ref_axis',(-1.,0.,0.));
#590=DIRECTION('center_axis',(0.,0.,-1.));
#591=DIRECTION('ref_axis',(-1.,0.,0.));
#592=DIRECTION('center_axis',(0.,0.,-1.));
#593=DIRECTION('ref_axis',(-1.,0.,0.));
#594=DIRECTION('',(0.,0.,-1.));
#595=DIRECTION('center_axis',(0.,0.,1.));
#596=DIRECTION('ref_axis',(-1.,0.,0.));
#597=DIRECTION('center_axis',(1.57009244698567E-16,-0.707106775918192,-0.707106786454903));
#598=DIRECTION('ref_axis',(1.57009247038187E-16,-0.707106786454903,0.707106775918192));
#599=DIRECTION('',(1.,2.22044604925031E-16,0.));
#600=DIRECTION('',(1.57009247038187E-16,-0.707106786454903,0.707106775918192));
#601=DIRECTION('',(-1.,0.,-2.22044601616309E-16));
#602=DIRECTION('',(-1.57009247038187E-16,0.707106786454903,-0.707106775918192));
#603=DIRECTION('center_axis',(-1.,-2.22044604925031E-16,0.));
#604=DIRECTION('ref_axis',(0.,0.,1.));
#605=DIRECTION('',(2.22044604925031E-16,-1.,0.));
#606=DIRECTION('center_axis',(1.,2.22044604925031E-16,0.));
#607=DIRECTION('ref_axis',(0.,0.707106781186547,0.707106781186548));
#608=DIRECTION('',(0.,0.,1.));
#609=DIRECTION('center_axis',(1.,2.22044604925031E-16,0.));
#610=DIRECTION('ref_axis',(0.,0.,-1.));
#611=DIRECTION('',(-2.22044604925031E-16,1.,0.));
#612=DIRECTION('',(0.,0.,-1.));
#613=DIRECTION('center_axis',(-1.,-2.22044604925031E-16,0.));
#614=DIRECTION('ref_axis',(0.,0.707106781186547,0.707106781186548));
#615=DIRECTION('center_axis',(5.04646829375071E-17,1.,0.));
#616=DIRECTION('ref_axis',(-1.,5.04646829375071E-17,0.));
#617=DIRECTION('',(-1.,0.,0.));
#618=DIRECTION('',(0.,0.,1.));
#619=DIRECTION('',(1.,-5.04646829375071E-17,0.));
#620=DIRECTION('',(0.,0.,1.));
#621=DIRECTION('center_axis',(0.,-1.,0.));
#622=DIRECTION('ref_axis',(1.,0.,0.));
#623=DIRECTION('',(1.,0.,0.));
#624=DIRECTION('',(0.,0.,1.));
#625=DIRECTION('',(-1.,0.,0.));
#626=DIRECTION('',(0.,0.,1.));
#627=DIRECTION('',(1.,0.,0.));
#628=DIRECTION('center_axis',(-1.,0.,0.));
#629=DIRECTION('ref_axis',(0.,0.707106781186547,0.707106781186548));
#630=DIRECTION('',(-1.,0.,0.));
#631=DIRECTION('center_axis',(-1.,-2.22044604925031E-16,0.));
#632=DIRECTION('ref_axis',(0.,0.707106781186547,0.707106781186548));
#633=DIRECTION('center_axis',(-1.,0.,0.));
#634=DIRECTION('ref_axis',(0.,0.707106781186547,0.707106781186548));
#635=DIRECTION('center_axis',(1.,0.,0.));
#636=DIRECTION('ref_axis',(0.,0.707106781186547,0.707106781186548));
#637=DIRECTION('',(-1.,0.,0.));
#638=DIRECTION('center_axis',(0.,0.,1.));
#639=DIRECTION('ref_axis',(1.,0.,0.));
#640=DIRECTION('',(-1.11022304944058E-15,-1.,0.));
#641=DIRECTION('',(-1.,0.,-1.95125147606906E-16));
#642=DIRECTION('',(0.,-1.,0.));
#643=DIRECTION('center_axis',(0.,0.,-1.));
#644=DIRECTION('ref_axis',(1.,0.,0.));
#645=DIRECTION('center_axis',(0.,0.,-1.));
#646=DIRECTION('ref_axis',(1.,0.,0.));
#647=DIRECTION('center_axis',(0.,0.,-1.));
#648=DIRECTION('ref_axis',(1.,0.,0.));
#649=DIRECTION('center_axis',(0.,0.,-1.));
#650=DIRECTION('ref_axis',(1.,0.,0.));
#651=DIRECTION('center_axis',(0.,0.,-1.));
#652=DIRECTION('ref_axis',(1.,0.,0.));
#653=DIRECTION('center_axis',(0.,0.,1.));
#654=DIRECTION('ref_axis',(1.,0.,0.));
#655=DIRECTION('center_axis',(0.,0.,1.));
#656=DIRECTION('ref_axis',(1.,0.,0.));
#657=DIRECTION('',(0.,0.,1.));
#658=DIRECTION('center_axis',(0.,0.,1.));
#659=DIRECTION('ref_axis',(1.,0.,0.));
#660=DIRECTION('center_axis',(0.,0.,1.));
#661=DIRECTION('ref_axis',(1.,0.,0.));
#662=DIRECTION('',(0.,0.,1.));
#663=DIRECTION('center_axis',(0.,0.,1.));
#664=DIRECTION('ref_axis',(1.,0.,0.));
#665=DIRECTION('center_axis',(0.,0.,1.));
#666=DIRECTION('ref_axis',(1.,0.,0.));
#667=DIRECTION('',(0.,0.,1.));
#668=DIRECTION('center_axis',(0.,0.,1.));
#669=DIRECTION('ref_axis',(1.,0.,0.));
#670=DIRECTION('center_axis',(0.,0.,1.));
#671=DIRECTION('ref_axis',(1.,0.,0.));
#672=DIRECTION('',(0.,0.,1.));
#673=DIRECTION('center_axis',(0.,0.,1.));
#674=DIRECTION('ref_axis',(1.,0.,0.));
#675=DIRECTION('center_axis',(0.,0.,1.));
#676=DIRECTION('ref_axis',(1.,0.,0.));
#677=DIRECTION('',(0.,0.,1.));
#678=DIRECTION('center_axis',(0.,0.,-1.));
#679=DIRECTION('ref_axis',(1.,0.,0.));
#680=DIRECTION('',(0.,-1.,0.));
#681=DIRECTION('',(1.,0.,0.));
#682=DIRECTION('',(0.,-1.,0.));
#683=DIRECTION('center_axis',(-1.,0.,0.));
#684=DIRECTION('ref_axis',(0.,0.707106781186547,-0.707106781186548));
#685=DIRECTION('center_axis',(1.,0.,0.));
#686=DIRECTION('ref_axis',(0.,0.707106781186547,-0.707106781186548));
#687=DIRECTION('center_axis',(-1.,-2.22044604925031E-16,0.));
#688=DIRECTION('ref_axis',(0.,0.707106781186547,-0.707106781186548));
#689=DIRECTION('',(1.,0.,0.));
#690=DIRECTION('center_axis',(0.,-1.,0.));
#691=DIRECTION('ref_axis',(0.,0.,-1.));
#692=DIRECTION('',(1.93082265152201E-16,0.,1.));
#693=DIRECTION('',(0.,0.,-1.));
#694=DIRECTION('center_axis',(0.,0.,1.));
#695=DIRECTION('ref_axis',(1.,0.,0.));
#696=DIRECTION('center_axis',(0.,0.,1.));
#697=DIRECTION('ref_axis',(1.,0.,0.));
#698=DIRECTION('',(0.,0.,1.));
#699=DIRECTION('center_axis',(0.,0.,-1.));
#700=DIRECTION('ref_axis',(1.,0.,0.));
#701=DIRECTION('center_axis',(0.,0.,1.));
#702=DIRECTION('ref_axis',(1.,0.,0.));
#703=DIRECTION('center_axis',(0.,0.,1.));
#704=DIRECTION('ref_axis',(1.,0.,0.));
#705=DIRECTION('',(0.,0.,1.));
#706=DIRECTION('center_axis',(0.,0.,-1.));
#707=DIRECTION('ref_axis',(1.,0.,0.));
#708=DIRECTION('center_axis',(1.,0.,0.));
#709=DIRECTION('ref_axis',(0.,1.,0.));
#710=DIRECTION('',(0.,-1.,0.));
#711=DIRECTION('',(0.,1.,0.));
#712=DIRECTION('',(0.,0.,1.));
#713=DIRECTION('center_axis',(0.,-1.,0.));
#714=DIRECTION('ref_axis',(1.,0.,0.));
#715=DIRECTION('',(-1.,0.,0.));
#716=DIRECTION('',(1.,0.,0.));
#717=DIRECTION('',(0.,0.,1.));
#718=DIRECTION('center_axis',(-1.,-2.22044604925031E-16,0.));
#719=DIRECTION('ref_axis',(2.22044604925031E-16,-1.,0.));
#720=DIRECTION('',(-2.22044604925031E-16,1.,0.));
#721=DIRECTION('',(2.22044604925031E-16,-1.,0.));
#722=DIRECTION('center_axis',(0.,0.,1.));
#723=DIRECTION('ref_axis',(1.,0.,0.));
#724=DIRECTION('center_axis',(0.,0.,1.));
#725=DIRECTION('ref_axis',(1.,0.,0.));
#726=CARTESIAN_POINT('',(0.,0.,0.));
#727=CARTESIAN_POINT('Origin',(-10.0000000613577,-0.999999865889549,40.0000006109476));
#728=CARTESIAN_POINT('',(-7.00000006135772,-0.999999865889549,40.0000006109476));
#729=CARTESIAN_POINT('Origin',(-10.0000000613577,-0.999999865889549,40.0000006109476));
#730=CARTESIAN_POINT('',(-7.00000006135772,-0.999999865889549,36.0000006109476));
#731=CARTESIAN_POINT('',(-7.00000006135772,-0.99999986588955,40.0000006109476));
#732=CARTESIAN_POINT('Origin',(-10.0000000613577,-0.999999865889549,36.0000006109476));
#733=CARTESIAN_POINT('Origin',(10.0000000613577,-0.999999865889549,40.0000006109476));
#734=CARTESIAN_POINT('',(13.0000000613577,-0.999999865889549,40.0000006109476));
#735=CARTESIAN_POINT('Origin',(10.0000000613577,-0.999999865889549,40.0000006109476));
#736=CARTESIAN_POINT('',(13.0000000613577,-0.999999865889549,36.0000006109476));
#737=CARTESIAN_POINT('',(13.0000000613577,-0.99999986588955,40.0000006109476));
#738=CARTESIAN_POINT('Origin',(10.0000000613577,-0.999999865889549,36.0000006109476));
#739=CARTESIAN_POINT('Origin',(-6.43929352959102E-15,9.00000013411045,26.0000005960464));
#740=CARTESIAN_POINT('',(-5.,-1.00000002980232,36.0000006109476));
#741=CARTESIAN_POINT('',(5.,-1.00000002980232,36.0000006109476));
#742=CARTESIAN_POINT('',(-11.0000001639128,-1.00000002980233,36.0000006109476));
#743=CARTESIAN_POINT('',(-5.00000000000001,5.00000023841858,30.0000004321337));
#744=CARTESIAN_POINT('',(-5.00000000000001,9.00000013411045,26.0000005960464));
#745=CARTESIAN_POINT('',(4.99999999999999,5.00000023841858,30.0000004321337));
#746=CARTESIAN_POINT('',(-11.0000001639128,5.00000023841858,30.0000004321337));
#747=CARTESIAN_POINT('',(4.99999999999999,9.00000013411045,26.0000005960464));
#748=CARTESIAN_POINT('Origin',(-5.00000000000001,2.00000002980232,33.0000005960464));
#749=CARTESIAN_POINT('',(-5.,3.00000023841858,36.0000006109476));
#750=CARTESIAN_POINT('',(-5.,3.50000013411045,36.0000006109476));
#751=CARTESIAN_POINT('',(-5.,5.00000023841858,34.0000006109476));
#752=CARTESIAN_POINT('Origin',(-5.,3.00000023841858,34.0000006109476));
#753=CARTESIAN_POINT('',(-5.,5.00000023841858,25.000000603497));
#754=CARTESIAN_POINT('Origin',(4.99999999999999,2.00000002980232,33.0000005960464));
#755=CARTESIAN_POINT('',(5.,3.00000023841858,36.0000006109476));
#756=CARTESIAN_POINT('',(5.,3.50000013411045,36.0000006109476));
#757=CARTESIAN_POINT('',(5.,5.00000023841858,34.0000006109476));
#758=CARTESIAN_POINT('',(4.99999999999999,5.00000023841858,25.000000603497));
#759=CARTESIAN_POINT('Origin',(5.,3.00000023841858,34.0000006109476));
#760=CARTESIAN_POINT('Origin',(22.,9.00000014901161,13.0000006109476));
#761=CARTESIAN_POINT('',(22.,9.00000014901161,40.0000006109476));
#762=CARTESIAN_POINT('',(-22.0000003278255,9.00000014901161,40.0000006109476));
#763=CARTESIAN_POINT('',(22.,9.00000014901161,40.0000006109476));
#764=CARTESIAN_POINT('',(22.,9.00000014901161,13.0000006109476));
#765=CARTESIAN_POINT('',(22.,9.00000014901161,13.0000006109476));
#766=CARTESIAN_POINT('',(-22.,9.00000014901161,13.0000006109476));
#767=CARTESIAN_POINT('',(-22.,9.00000014901161,13.0000006109476));
#768=CARTESIAN_POINT('',(-22.,9.00000014901161,13.0000006109476));
#769=CARTESIAN_POINT('Origin',(-22.0000003278255,5.00000023841858,17.0000006109476));
#770=CARTESIAN_POINT('',(-22.0000003278255,5.00000023841858,34.0000006109476));
#771=CARTESIAN_POINT('',(-22.0000003278255,5.00000023841858,34.0000006109476));
#772=CARTESIAN_POINT('',(-22.0000003278255,5.00000023841858,19.0000006109476));
#773=CARTESIAN_POINT('',(-22.0000003278255,5.00000023841858,17.0000006109476));
#774=CARTESIAN_POINT('',(22.,5.00000023841858,19.0000006109476));
#775=CARTESIAN_POINT('',(-11.0000001639128,5.00000023841858,19.0000006109476));
#776=CARTESIAN_POINT('',(22.,5.00000023841858,34.0000006109476));
#777=CARTESIAN_POINT('',(22.,5.00000023841858,17.0000006109476));
#778=CARTESIAN_POINT('',(-22.0000003278255,5.00000023841858,34.0000006109476));
#779=CARTESIAN_POINT('Origin',(-22.0000003278255,3.00000023841858,34.0000006109476));
#780=CARTESIAN_POINT('',(-22.0000003278255,3.00000023841858,36.0000006109476));
#781=CARTESIAN_POINT('',(-22.0000003278255,3.00000023841858,36.0000006109476));
#782=CARTESIAN_POINT('Origin',(-22.,3.00000023841858,34.0000006109476));
#783=CARTESIAN_POINT('Origin',(-22.0000003278255,3.00000023841858,34.0000006109476));
#784=CARTESIAN_POINT('',(22.,3.00000023841858,36.0000006109476));
#785=CARTESIAN_POINT('Origin',(22.,3.00000023841858,34.0000006109476));
#786=CARTESIAN_POINT('',(-22.0000003278255,3.00000023841858,36.0000006109476));
#787=CARTESIAN_POINT('Origin',(-1.63912772244146E-7,7.00000019371509,40.0000006109476));
#788=CARTESIAN_POINT('',(-22.0000003278255,-48.9999997615814,40.0000006109476));
#789=CARTESIAN_POINT('',(-22.0000003278255,9.00000014901161,40.0000006109476));
#790=CARTESIAN_POINT('',(22.,-48.9999997615814,40.0000006109476));
#791=CARTESIAN_POINT('',(-22.0000003278255,-48.9999997615814,40.0000006109476));
#792=CARTESIAN_POINT('',(22.,5.00000023841858,40.0000006109476));
#793=CARTESIAN_POINT('',(13.8949996721745,-9.74199976158142,40.0000006109476));
#794=CARTESIAN_POINT('Origin',(15.5949996721745,-9.74199976158142,40.0000006109476));
#795=CARTESIAN_POINT('',(-17.1050003278255,-40.7419997615814,40.0000006109476));
#796=CARTESIAN_POINT('Origin',(-15.4050003278255,-40.7419997615814,40.0000006109476));
#797=CARTESIAN_POINT('',(-17.1050003278255,-9.74199976158142,40.0000006109476));
#798=CARTESIAN_POINT('Origin',(-15.4050003278255,-9.74199976158142,40.0000006109476));
#799=CARTESIAN_POINT('',(13.8949996721745,-40.7419997615814,40.0000006109476));
#800=CARTESIAN_POINT('Origin',(15.5949996721745,-40.7419997615814,40.0000006109476));
#801=CARTESIAN_POINT('',(-11.4050003278255,-25.2419997615814,40.0000006109476));
#802=CARTESIAN_POINT('Origin',(0.0949996721744606,-25.2419997615814,40.0000006109476));
#803=CARTESIAN_POINT('Origin',(0.0949996721744606,-25.2419997615814,36.0000006109476));
#804=CARTESIAN_POINT('',(-11.4050003278255,-25.2419997615814,36.0000006109476));
#805=CARTESIAN_POINT('Origin',(0.0949996721744606,-25.2419997615814,36.0000006109476));
#806=CARTESIAN_POINT('',(-11.4050003278255,-25.2419997615814,36.0000006109476));
#807=CARTESIAN_POINT('Origin',(15.5949996721745,-40.7419997615814,36.0000006109476));
#808=CARTESIAN_POINT('',(13.8949996721745,-40.7419997615814,36.0000006109476));
#809=CARTESIAN_POINT('Origin',(15.5949996721745,-40.7419997615814,36.0000006109476));
#810=CARTESIAN_POINT('',(13.8949996721745,-40.7419997615814,36.0000006109476));
#811=CARTESIAN_POINT('Origin',(-15.4050003278255,-9.74199976158142,36.0000006109476));
#812=CARTESIAN_POINT('',(-17.1050003278255,-9.74199976158142,36.0000006109476));
#813=CARTESIAN_POINT('Origin',(-15.4050003278255,-9.74199976158142,36.0000006109476));
#814=CARTESIAN_POINT('',(-17.1050003278255,-9.74199976158142,36.0000006109476));
#815=CARTESIAN_POINT('Origin',(-15.4050003278255,-40.7419997615814,36.0000006109476));
#816=CARTESIAN_POINT('',(-17.1050003278255,-40.7419997615814,36.0000006109476));
#817=CARTESIAN_POINT('Origin',(-15.4050003278255,-40.7419997615814,36.0000006109476));
#818=CARTESIAN_POINT('',(-17.1050003278255,-40.7419997615814,36.0000006109476));
#819=CARTESIAN_POINT('Origin',(15.5949996721745,-9.74199976158142,36.0000006109476));
#820=CARTESIAN_POINT('',(13.8949996721745,-9.74199976158142,36.0000006109476));
#821=CARTESIAN_POINT('Origin',(15.5949996721745,-9.74199976158142,36.0000006109476));
#822=CARTESIAN_POINT('',(13.8949996721745,-9.74199976158142,36.0000006109476));
#823=CARTESIAN_POINT('Origin',(-22.0000003278255,5.00000023841858,36.0000006109476));
#824=CARTESIAN_POINT('',(22.,-48.9999997615814,36.0000006109476));
#825=CARTESIAN_POINT('',(22.,5.00000023841858,36.0000006109476));
#826=CARTESIAN_POINT('',(-22.0000003278255,-48.9999997615814,36.0000006109476));
#827=CARTESIAN_POINT('',(23.5183980228281,-48.9999997615814,36.0000006109476));
#828=CARTESIAN_POINT('',(-22.0000003278255,5.00000023841858,36.0000006109476));
#829=CARTESIAN_POINT('Origin',(-11.0000001639128,3.00000023841858,19.0000006109476));
#830=CARTESIAN_POINT('',(22.,3.00000023841858,17.0000006109476));
#831=CARTESIAN_POINT('Origin',(22.,3.00000023841858,19.0000006109476));
#832=CARTESIAN_POINT('',(-22.,3.00000023841858,17.0000006109476));
#833=CARTESIAN_POINT('Origin',(-22.,3.00000023841858,19.0000006109476));
#834=CARTESIAN_POINT('',(-11.0000001639128,3.00000023841858,17.0000006109476));
#835=CARTESIAN_POINT('Origin',(-1.63912772244146E-7,-48.9999997615814,38.0000006109476));
#836=CARTESIAN_POINT('',(22.,-48.9999997615814,17.0000006109476));
#837=CARTESIAN_POINT('',(-22.0000003278255,-48.9999997615814,36.0000006109476));
#838=CARTESIAN_POINT('Origin',(10.0196154834392,-0.999999850988385,13.0000006109476));
#839=CARTESIAN_POINT('',(7.76961548343922,-0.999999850988386,13.0000006109476));
#840=CARTESIAN_POINT('Origin',(10.0196154834392,-0.999999850988385,13.0000006109476));
#841=CARTESIAN_POINT('',(7.76961548343922,-0.999999850988385,17.0000006109476));
#842=CARTESIAN_POINT('',(7.76961548343922,-0.999999850988386,13.0000006109476));
#843=CARTESIAN_POINT('Origin',(10.0196154834392,-0.999999850988385,17.0000006109476));
#844=CARTESIAN_POINT('Origin',(-10.0196154834392,-0.999999850988388,13.0000006109476));
#845=CARTESIAN_POINT('',(-12.2696154834392,-0.999999850988388,13.0000006109476));
#846=CARTESIAN_POINT('Origin',(-10.0196154834392,-0.999999850988388,13.0000006109476));
#847=CARTESIAN_POINT('',(-12.2696154834392,-0.999999850988387,17.0000006109476));
#848=CARTESIAN_POINT('',(-12.2696154834392,-0.999999850988388,13.0000006109476));
#849=CARTESIAN_POINT('Origin',(-10.0196154834392,-0.999999850988388,17.0000006109476));
#850=CARTESIAN_POINT('Origin',(22.,-10.9999998509884,13.0000006109476));
#851=CARTESIAN_POINT('',(22.,-10.9999998509884,13.0000006109476));
#852=CARTESIAN_POINT('',(22.,9.00000014901161,13.0000006109476));
#853=CARTESIAN_POINT('',(22.,-10.9999998509884,17.0000006109476));
#854=CARTESIAN_POINT('',(22.,9.00000014901161,17.0000006109476));
#855=CARTESIAN_POINT('',(22.,-10.9999998509884,13.0000006109476));
#856=CARTESIAN_POINT('Origin',(-22.,-10.9999998509884,13.0000006109476));
#857=CARTESIAN_POINT('',(-22.,-10.9999998509884,13.0000006109476));
#858=CARTESIAN_POINT('',(22.,-10.9999998509884,13.0000006109476));
#859=CARTESIAN_POINT('',(-22.,-10.9999998509884,17.0000006109476));
#860=CARTESIAN_POINT('',(22.,-10.9999998509884,17.0000006109476));
#861=CARTESIAN_POINT('',(-22.,-10.9999998509884,13.0000006109476));
#862=CARTESIAN_POINT('Origin',(-22.,9.00000014901161,13.0000006109476));
#863=CARTESIAN_POINT('',(-22.,-10.9999998509884,13.0000006109476));
#864=CARTESIAN_POINT('',(-22.,-10.9999998509884,17.0000006109476));
#865=CARTESIAN_POINT('Origin',(0.,-0.999999850988389,17.0000006109476));
#866=CARTESIAN_POINT('Origin',(0.,-0.999999850988389,13.0000006109476));
#867=UNCERTAINTY_MEASURE_WITH_UNIT(LENGTH_MEASURE(0.01),#871,
'DISTANCE_ACCURACY_VALUE',
'Maximum model space distance between geometric entities at asserted c
onnectivities');
#868=UNCERTAINTY_MEASURE_WITH_UNIT(LENGTH_MEASURE(0.01),#871,
'DISTANCE_ACCURACY_VALUE',
'Maximum model space distance between geometric entities at asserted c
onnectivities');
#869=(
GEOMETRIC_REPRESENTATION_CONTEXT(3)
GLOBAL_UNCERTAINTY_ASSIGNED_CONTEXT((#867))
GLOBAL_UNIT_ASSIGNED_CONTEXT((#871,#873,#874))
REPRESENTATION_CONTEXT('','3D')
);
#870=(
GEOMETRIC_REPRESENTATION_CONTEXT(3)
GLOBAL_UNCERTAINTY_ASSIGNED_CONTEXT((#868))
GLOBAL_UNIT_ASSIGNED_CONTEXT((#871,#873,#874))
REPRESENTATION_CONTEXT('','3D')
);
#871=(
LENGTH_UNIT()
NAMED_UNIT(*)
SI_UNIT(.MILLI.,.METRE.)
);
#872=(
LENGTH_UNIT()
NAMED_UNIT(*)
SI_UNIT($,.METRE.)
);
#873=(
NAMED_UNIT(*)
PLANE_ANGLE_UNIT()
SI_UNIT($,.RADIAN.)
);
#874=(
NAMED_UNIT(*)
SI_UNIT($,.STERADIAN.)
SOLID_ANGLE_UNIT()
);
#875=SHAPE_DEFINITION_REPRESENTATION(#876,#877);
#876=PRODUCT_DEFINITION_SHAPE('',$,#879);
#877=SHAPE_REPRESENTATION('',(#531),#869);
#878=PRODUCT_DEFINITION_CONTEXT('part definition',#883,'design');
#879=PRODUCT_DEFINITION('Suporte nema 17 eixo z',
'Suporte nema 17 eixo z v36',#880,#878);
#880=PRODUCT_DEFINITION_FORMATION('',$,#885);
#881=PRODUCT_RELATED_PRODUCT_CATEGORY('Suporte nema 17 eixo z v36',
'Suporte nema 17 eixo z v36',(#885));
#882=APPLICATION_PROTOCOL_DEFINITION('international standard',
'automotive_design',2009,#883);
#883=APPLICATION_CONTEXT(
'Core Data for Automotive Mechanical Design Process');
#884=PRODUCT_CONTEXT('part definition',#883,'mechanical');
#885=PRODUCT('Suporte nema 17 eixo z','Suporte nema 17 eixo z v36',$,(#884));
#886=PRESENTATION_STYLE_ASSIGNMENT((#887));
#887=SURFACE_STYLE_USAGE(.BOTH.,#888);
#888=SURFACE_SIDE_STYLE('',(#889));
#889=SURFACE_STYLE_FILL_AREA(#890);
#890=FILL_AREA_STYLE('Pintura - Esmalte com brilho (Amarelo)',(#891));
#891=FILL_AREA_STYLE_COLOUR('Pintura - Esmalte com brilho (Amarelo)',#892);
#892=COLOUR_RGB('Pintura - Esmalte com brilho (Amarelo)',0.909803921568627,
0.67843137254902,0.137254901960784);
ENDSEC;
END-ISO-10303-21;
