ISO-10303-21;
HEADER;
/* Generated by software containing ST-Developer
 * from STEP Tools, Inc. (www.steptools.com) 
 */

FILE_DESCRIPTION(
/* description */ (''),
/* implementation_level */ '2;1');

FILE_NAME(
/* name */ 'SuporteMotorSpindle.step',
/* time_stamp */ '2026-04-01T20:40:07-03:00',
/* author */ (''),
/* organization */ (''),
/* preprocessor_version */ 'ST-DEVELOPER v20.1',
/* originating_system */ 'Autodesk Translation Framework v14.24.0.0',
/* authorisation */ '');

FILE_SCHEMA (('AUTOMOTIVE_DESIGN { 1 0 10303 214 3 1 1 }'));
ENDSEC;

DATA;
#10=MECHANICAL_DESIGN_GEOMETRIC_PRESENTATION_REPRESENTATION('',(#13),#1163);
#11=SHAPE_REPRESENTATION_RELATIONSHIP('SRR','None',#1170,#12);
#12=ADVANCED_BREP_SHAPE_REPRESENTATION('',(#14),#1162);
#13=STYLED_ITEM('',(#1179),#14);
#14=MANIFOLD_SOLID_BREP('Corpo1',#651);
#15=ELLIPSE('',#695,2.0085,2.00154545454545);
#16=ELLIPSE('',#696,2.0085,2.00154545454545);
#17=ELLIPSE('',#697,2.0085,2.00154545454545);
#18=ELLIPSE('',#698,2.0085,2.00154545454545);
#19=ELLIPSE('',#699,2.0085,2.00154545454545);
#20=ELLIPSE('',#700,2.0085,2.00154545454545);
#21=ELLIPSE('',#701,2.0085,2.00154545454545);
#22=ELLIPSE('',#702,2.0085,2.00154545454545);
#23=(
BOUNDED_SURFACE()
B_SPLINE_SURFACE(1,2,((#990,#991,#992,#993,#994,#995,#996,#997,#998),(#999,
#1000,#1001,#1002,#1003,#1004,#1005,#1006,#1007)),.UNSPECIFIED.,.F.,.T.,
 .F.)
B_SPLINE_SURFACE_WITH_KNOTS((2,2),(3,2,2,2,3),(-3.48518795120737,-1.49788399302963),
(-3.14159265358979,-1.5707963267949,0.,1.5707963267949,3.14159265358979),
 .UNSPECIFIED.)
GEOMETRIC_REPRESENTATION_ITEM()
RATIONAL_B_SPLINE_SURFACE(((1.,0.707106781186548,1.,0.707106781186548,1.,
0.707106781186548,1.,0.707106781186548,1.),(1.,0.707106781186548,1.,0.707106781186548,
1.,0.707106781186548,1.,0.707106781186548,1.)))
REPRESENTATION_ITEM('')
SURFACE()
);
#24=(
BOUNDED_SURFACE()
B_SPLINE_SURFACE(1,2,((#1013,#1014,#1015,#1016,#1017,#1018,#1019,#1020,
#1021),(#1022,#1023,#1024,#1025,#1026,#1027,#1028,#1029,#1030)),
 .UNSPECIFIED.,.F.,.T.,.F.)
B_SPLINE_SURFACE_WITH_KNOTS((2,2),(3,2,2,2,3),(-7.47249190938511,-5.48518795120737),
(-3.14159265358979,-1.5707963267949,0.,1.5707963267949,3.14159265358979),
 .UNSPECIFIED.)
GEOMETRIC_REPRESENTATION_ITEM()
RATIONAL_B_SPLINE_SURFACE(((1.,0.707106781186548,1.,0.707106781186548,1.,
0.707106781186548,1.,0.707106781186548,1.),(1.,0.707106781186548,1.,0.707106781186548,
1.,0.707106781186548,1.,0.707106781186548,1.)))
REPRESENTATION_ITEM('')
SURFACE()
);
#25=(
BOUNDED_SURFACE()
B_SPLINE_SURFACE(1,2,((#1036,#1037,#1038,#1039,#1040,#1041,#1042,#1043,
#1044),(#1045,#1046,#1047,#1048,#1049,#1050,#1051,#1052,#1053)),
 .UNSPECIFIED.,.F.,.T.,.F.)
B_SPLINE_SURFACE_WITH_KNOTS((2,2),(3,2,2,2,3),(-3.48518795120737,-1.49788399302963),
(-3.14159265358979,-1.5707963267949,0.,1.5707963267949,3.14159265358979),
 .UNSPECIFIED.)
GEOMETRIC_REPRESENTATION_ITEM()
RATIONAL_B_SPLINE_SURFACE(((1.,0.707106781186548,1.,0.707106781186548,1.,
0.707106781186548,1.,0.707106781186548,1.),(1.,0.707106781186548,1.,0.707106781186548,
1.,0.707106781186548,1.,0.707106781186548,1.)))
REPRESENTATION_ITEM('')
SURFACE()
);
#26=(
BOUNDED_SURFACE()
B_SPLINE_SURFACE(1,2,((#1059,#1060,#1061,#1062,#1063,#1064,#1065,#1066,
#1067),(#1068,#1069,#1070,#1071,#1072,#1073,#1074,#1075,#1076)),
 .UNSPECIFIED.,.F.,.T.,.F.)
B_SPLINE_SURFACE_WITH_KNOTS((2,2),(3,2,2,2,3),(-7.47249190938511,-5.48518795120737),
(-3.14159265358979,-1.5707963267949,0.,1.5707963267949,3.14159265358979),
 .UNSPECIFIED.)
GEOMETRIC_REPRESENTATION_ITEM()
RATIONAL_B_SPLINE_SURFACE(((1.,0.707106781186548,1.,0.707106781186548,1.,
0.707106781186548,1.,0.707106781186548,1.),(1.,0.707106781186548,1.,0.707106781186548,
1.,0.707106781186548,1.,0.707106781186548,1.)))
REPRESENTATION_ITEM('')
SURFACE()
);
#27=FACE_BOUND('',#98,.T.);
#28=FACE_BOUND('',#99,.T.);
#29=FACE_BOUND('',#102,.T.);
#30=FACE_BOUND('',#103,.T.);
#31=FACE_BOUND('',#109,.T.);
#32=FACE_BOUND('',#110,.T.);
#33=FACE_BOUND('',#112,.T.);
#34=FACE_BOUND('',#113,.T.);
#35=FACE_BOUND('',#125,.T.);
#36=FACE_BOUND('',#126,.T.);
#37=FACE_BOUND('',#127,.T.);
#38=FACE_BOUND('',#128,.T.);
#39=FACE_BOUND('',#131,.T.);
#40=FACE_BOUND('',#132,.T.);
#41=FACE_BOUND('',#136,.T.);
#42=FACE_BOUND('',#137,.T.);
#43=PLANE('',#686);
#44=PLANE('',#692);
#45=PLANE('',#703);
#46=PLANE('',#704);
#47=PLANE('',#705);
#48=PLANE('',#706);
#49=PLANE('',#718);
#50=PLANE('',#719);
#51=PLANE('',#720);
#52=PLANE('',#721);
#53=PLANE('',#722);
#54=PLANE('',#723);
#55=PLANE('',#724);
#56=PLANE('',#725);
#57=PLANE('',#726);
#58=FACE_OUTER_BOUND('',#90,.T.);
#59=FACE_OUTER_BOUND('',#91,.T.);
#60=FACE_OUTER_BOUND('',#92,.T.);
#61=FACE_OUTER_BOUND('',#93,.T.);
#62=FACE_OUTER_BOUND('',#94,.T.);
#63=FACE_OUTER_BOUND('',#95,.T.);
#64=FACE_OUTER_BOUND('',#96,.T.);
#65=FACE_OUTER_BOUND('',#97,.T.);
#66=FACE_OUTER_BOUND('',#100,.T.);
#67=FACE_OUTER_BOUND('',#101,.T.);
#68=FACE_OUTER_BOUND('',#104,.T.);
#69=FACE_OUTER_BOUND('',#105,.T.);
#70=FACE_OUTER_BOUND('',#106,.T.);
#71=FACE_OUTER_BOUND('',#107,.T.);
#72=FACE_OUTER_BOUND('',#108,.T.);
#73=FACE_OUTER_BOUND('',#111,.T.);
#74=FACE_OUTER_BOUND('',#114,.T.);
#75=FACE_OUTER_BOUND('',#115,.T.);
#76=FACE_OUTER_BOUND('',#116,.T.);
#77=FACE_OUTER_BOUND('',#117,.T.);
#78=FACE_OUTER_BOUND('',#118,.T.);
#79=FACE_OUTER_BOUND('',#119,.T.);
#80=FACE_OUTER_BOUND('',#120,.T.);
#81=FACE_OUTER_BOUND('',#121,.T.);
#82=FACE_OUTER_BOUND('',#122,.T.);
#83=FACE_OUTER_BOUND('',#123,.T.);
#84=FACE_OUTER_BOUND('',#124,.T.);
#85=FACE_OUTER_BOUND('',#129,.T.);
#86=FACE_OUTER_BOUND('',#130,.T.);
#87=FACE_OUTER_BOUND('',#133,.T.);
#88=FACE_OUTER_BOUND('',#134,.T.);
#89=FACE_OUTER_BOUND('',#135,.T.);
#90=EDGE_LOOP('',(#426,#427,#428,#429));
#91=EDGE_LOOP('',(#430,#431,#432,#433));
#92=EDGE_LOOP('',(#434,#435,#436,#437));
#93=EDGE_LOOP('',(#438,#439,#440,#441));
#94=EDGE_LOOP('',(#442,#443,#444,#445));
#95=EDGE_LOOP('',(#446,#447,#448,#449));
#96=EDGE_LOOP('',(#450,#451,#452,#453));
#97=EDGE_LOOP('',(#454,#455,#456,#457));
#98=EDGE_LOOP('',(#458));
#99=EDGE_LOOP('',(#459));
#100=EDGE_LOOP('',(#460,#461,#462,#463));
#101=EDGE_LOOP('',(#464,#465,#466,#467));
#102=EDGE_LOOP('',(#468));
#103=EDGE_LOOP('',(#469));
#104=EDGE_LOOP('',(#470,#471,#472,#473));
#105=EDGE_LOOP('',(#474,#475,#476,#477));
#106=EDGE_LOOP('',(#478,#479,#480,#481));
#107=EDGE_LOOP('',(#482,#483,#484,#485));
#108=EDGE_LOOP('',(#486,#487,#488,#489));
#109=EDGE_LOOP('',(#490));
#110=EDGE_LOOP('',(#491));
#111=EDGE_LOOP('',(#492,#493,#494,#495));
#112=EDGE_LOOP('',(#496));
#113=EDGE_LOOP('',(#497));
#114=EDGE_LOOP('',(#498,#499,#500,#501));
#115=EDGE_LOOP('',(#502,#503,#504,#505,#506,#507,#508,#509,#510,#511,#512,
#513,#514,#515,#516,#517,#518,#519,#520,#521,#522,#523));
#116=EDGE_LOOP('',(#524,#525,#526,#527));
#117=EDGE_LOOP('',(#528,#529,#530,#531));
#118=EDGE_LOOP('',(#532,#533,#534,#535));
#119=EDGE_LOOP('',(#536,#537,#538,#539));
#120=EDGE_LOOP('',(#540,#541,#542,#543));
#121=EDGE_LOOP('',(#544,#545,#546,#547));
#122=EDGE_LOOP('',(#548,#549,#550,#551));
#123=EDGE_LOOP('',(#552,#553,#554,#555));
#124=EDGE_LOOP('',(#556,#557,#558,#559));
#125=EDGE_LOOP('',(#560));
#126=EDGE_LOOP('',(#561));
#127=EDGE_LOOP('',(#562));
#128=EDGE_LOOP('',(#563));
#129=EDGE_LOOP('',(#564,#565,#566,#567));
#130=EDGE_LOOP('',(#568,#569,#570,#571));
#131=EDGE_LOOP('',(#572));
#132=EDGE_LOOP('',(#573));
#133=EDGE_LOOP('',(#574,#575,#576,#577));
#134=EDGE_LOOP('',(#578,#579,#580,#581,#582,#583,#584,#585,#586,#587,#588,
#589,#590,#591,#592,#593,#594,#595,#596,#597,#598,#599));
#135=EDGE_LOOP('',(#600,#601,#602,#603));
#136=EDGE_LOOP('',(#604));
#137=EDGE_LOOP('',(#605));
#138=LINE('',#915,#194);
#139=LINE('',#918,#195);
#140=LINE('',#923,#196);
#141=LINE('',#930,#197);
#142=LINE('',#933,#198);
#143=LINE('',#938,#199);
#144=LINE('',#945,#200);
#145=LINE('',#951,#201);
#146=LINE('',#957,#202);
#147=LINE('',#960,#203);
#148=LINE('',#963,#204);
#149=LINE('',#965,#205);
#150=LINE('',#966,#206);
#151=LINE('',#976,#207);
#152=LINE('',#979,#208);
#153=LINE('',#982,#209);
#154=LINE('',#984,#210);
#155=LINE('',#985,#211);
#156=LINE('',#1011,#212);
#157=LINE('',#1034,#213);
#158=LINE('',#1057,#214);
#159=LINE('',#1080,#215);
#160=LINE('',#1085,#216);
#161=LINE('',#1087,#217);
#162=LINE('',#1089,#218);
#163=LINE('',#1090,#219);
#164=LINE('',#1094,#220);
#165=LINE('',#1096,#221);
#166=LINE('',#1098,#222);
#167=LINE('',#1099,#223);
#168=LINE('',#1102,#224);
#169=LINE('',#1104,#225);
#170=LINE('',#1105,#226);
#171=LINE('',#1108,#227);
#172=LINE('',#1109,#228);
#173=LINE('',#1110,#229);
#174=LINE('',#1112,#230);
#175=LINE('',#1114,#231);
#176=LINE('',#1115,#232);
#177=LINE('',#1116,#233);
#178=LINE('',#1117,#234);
#179=LINE('',#1124,#235);
#180=LINE('',#1128,#236);
#181=LINE('',#1132,#237);
#182=LINE('',#1136,#238);
#183=LINE('',#1138,#239);
#184=LINE('',#1141,#240);
#185=LINE('',#1142,#241);
#186=LINE('',#1145,#242);
#187=LINE('',#1146,#243);
#188=LINE('',#1148,#244);
#189=LINE('',#1150,#245);
#190=LINE('',#1153,#246);
#191=LINE('',#1154,#247);
#192=LINE('',#1156,#248);
#193=LINE('',#1158,#249);
#194=VECTOR('',#733,10.);
#195=VECTOR('',#736,10.);
#196=VECTOR('',#741,10.);
#197=VECTOR('',#748,10.);
#198=VECTOR('',#751,10.);
#199=VECTOR('',#756,10.);
#200=VECTOR('',#765,10.);
#201=VECTOR('',#772,10.);
#202=VECTOR('',#777,10.);
#203=VECTOR('',#780,10.);
#204=VECTOR('',#783,3.275);
#205=VECTOR('',#784,1.5);
#206=VECTOR('',#785,3.275);
#207=VECTOR('',#794,10.);
#208=VECTOR('',#797,10.);
#209=VECTOR('',#800,3.275);
#210=VECTOR('',#801,1.5);
#211=VECTOR('',#802,3.275);
#212=VECTOR('',#809,2.0085);
#213=VECTOR('',#814,2.0085);
#214=VECTOR('',#819,2.0085);
#215=VECTOR('',#824,2.0085);
#216=VECTOR('',#829,1.);
#217=VECTOR('',#830,1.);
#218=VECTOR('',#831,1.);
#219=VECTOR('',#832,1.);
#220=VECTOR('',#835,1.);
#221=VECTOR('',#836,1.);
#222=VECTOR('',#837,1.);
#223=VECTOR('',#838,1.);
#224=VECTOR('',#841,0.2);
#225=VECTOR('',#842,1.5);
#226=VECTOR('',#843,0.2);
#227=VECTOR('',#846,0.2);
#228=VECTOR('',#847,0.5);
#229=VECTOR('',#848,55.3195263898743);
#230=VECTOR('',#849,0.25);
#231=VECTOR('',#850,3.275);
#232=VECTOR('',#851,0.25);
#233=VECTOR('',#852,55.3195263898743);
#234=VECTOR('',#853,0.5);
#235=VECTOR('',#864,2.0085);
#236=VECTOR('',#869,2.0085);
#237=VECTOR('',#874,2.0085);
#238=VECTOR('',#879,2.0085);
#239=VECTOR('',#882,55.3195263898743);
#240=VECTOR('',#885,0.25);
#241=VECTOR('',#886,1.5);
#242=VECTOR('',#889,1.5);
#243=VECTOR('',#890,0.25);
#244=VECTOR('',#893,55.);
#245=VECTOR('',#896,55.3195263898743);
#246=VECTOR('',#899,1.5);
#247=VECTOR('',#900,0.5);
#248=VECTOR('',#903,0.2);
#249=VECTOR('',#906,0.5);
#250=CIRCLE('',#666,2.);
#251=CIRCLE('',#667,2.);
#252=CIRCLE('',#669,22.75);
#253=CIRCLE('',#670,22.75);
#254=CIRCLE('',#672,2.);
#255=CIRCLE('',#673,2.);
#256=CIRCLE('',#675,22.75);
#257=CIRCLE('',#676,22.75);
#258=CIRCLE('',#678,2.);
#259=CIRCLE('',#679,2.);
#260=CIRCLE('',#681,2.);
#261=CIRCLE('',#682,2.);
#262=CIRCLE('',#684,2.);
#263=CIRCLE('',#685,2.);
#264=CIRCLE('',#687,2.0085);
#265=CIRCLE('',#688,2.0085);
#266=CIRCLE('',#690,2.);
#267=CIRCLE('',#691,2.);
#268=CIRCLE('',#693,2.0085);
#269=CIRCLE('',#694,2.0085);
#270=CIRCLE('',#707,19.2585);
#271=CIRCLE('',#709,19.2585);
#272=CIRCLE('',#711,2.0085);
#273=CIRCLE('',#713,2.0085);
#274=CIRCLE('',#715,2.0085);
#275=CIRCLE('',#717,2.0085);
#276=VERTEX_POINT('',#911);
#277=VERTEX_POINT('',#912);
#278=VERTEX_POINT('',#914);
#279=VERTEX_POINT('',#916);
#280=VERTEX_POINT('',#920);
#281=VERTEX_POINT('',#922);
#282=VERTEX_POINT('',#926);
#283=VERTEX_POINT('',#927);
#284=VERTEX_POINT('',#929);
#285=VERTEX_POINT('',#931);
#286=VERTEX_POINT('',#935);
#287=VERTEX_POINT('',#937);
#288=VERTEX_POINT('',#941);
#289=VERTEX_POINT('',#943);
#290=VERTEX_POINT('',#947);
#291=VERTEX_POINT('',#949);
#292=VERTEX_POINT('',#953);
#293=VERTEX_POINT('',#954);
#294=VERTEX_POINT('',#956);
#295=VERTEX_POINT('',#958);
#296=VERTEX_POINT('',#962);
#297=VERTEX_POINT('',#964);
#298=VERTEX_POINT('',#967);
#299=VERTEX_POINT('',#969);
#300=VERTEX_POINT('',#972);
#301=VERTEX_POINT('',#973);
#302=VERTEX_POINT('',#975);
#303=VERTEX_POINT('',#977);
#304=VERTEX_POINT('',#981);
#305=VERTEX_POINT('',#983);
#306=VERTEX_POINT('',#986);
#307=VERTEX_POINT('',#988);
#308=VERTEX_POINT('',#1008);
#309=VERTEX_POINT('',#1010);
#310=VERTEX_POINT('',#1031);
#311=VERTEX_POINT('',#1033);
#312=VERTEX_POINT('',#1054);
#313=VERTEX_POINT('',#1056);
#314=VERTEX_POINT('',#1077);
#315=VERTEX_POINT('',#1079);
#316=VERTEX_POINT('',#1083);
#317=VERTEX_POINT('',#1084);
#318=VERTEX_POINT('',#1086);
#319=VERTEX_POINT('',#1088);
#320=VERTEX_POINT('',#1092);
#321=VERTEX_POINT('',#1093);
#322=VERTEX_POINT('',#1095);
#323=VERTEX_POINT('',#1097);
#324=VERTEX_POINT('',#1101);
#325=VERTEX_POINT('',#1103);
#326=VERTEX_POINT('',#1107);
#327=VERTEX_POINT('',#1111);
#328=VERTEX_POINT('',#1113);
#329=VERTEX_POINT('',#1122);
#330=VERTEX_POINT('',#1126);
#331=VERTEX_POINT('',#1130);
#332=VERTEX_POINT('',#1134);
#333=VERTEX_POINT('',#1140);
#334=VERTEX_POINT('',#1144);
#335=VERTEX_POINT('',#1152);
#336=EDGE_CURVE('',#276,#277,#250,.T.);
#337=EDGE_CURVE('',#277,#278,#138,.T.);
#338=EDGE_CURVE('',#278,#279,#251,.T.);
#339=EDGE_CURVE('',#279,#276,#139,.T.);
#340=EDGE_CURVE('',#277,#280,#252,.T.);
#341=EDGE_CURVE('',#281,#280,#140,.T.);
#342=EDGE_CURVE('',#278,#281,#253,.T.);
#343=EDGE_CURVE('',#282,#283,#254,.T.);
#344=EDGE_CURVE('',#283,#284,#141,.T.);
#345=EDGE_CURVE('',#284,#285,#255,.T.);
#346=EDGE_CURVE('',#285,#282,#142,.T.);
#347=EDGE_CURVE('',#286,#283,#256,.T.);
#348=EDGE_CURVE('',#287,#286,#143,.T.);
#349=EDGE_CURVE('',#287,#284,#257,.T.);
#350=EDGE_CURVE('',#288,#281,#258,.T.);
#351=EDGE_CURVE('',#280,#289,#259,.T.);
#352=EDGE_CURVE('',#289,#288,#144,.T.);
#353=EDGE_CURVE('',#290,#287,#260,.T.);
#354=EDGE_CURVE('',#286,#291,#261,.T.);
#355=EDGE_CURVE('',#291,#290,#145,.T.);
#356=EDGE_CURVE('',#292,#293,#262,.T.);
#357=EDGE_CURVE('',#293,#294,#146,.T.);
#358=EDGE_CURVE('',#294,#295,#263,.T.);
#359=EDGE_CURVE('',#295,#292,#147,.T.);
#360=EDGE_CURVE('',#296,#293,#148,.T.);
#361=EDGE_CURVE('',#296,#297,#149,.T.);
#362=EDGE_CURVE('',#294,#297,#150,.T.);
#363=EDGE_CURVE('',#298,#298,#264,.T.);
#364=EDGE_CURVE('',#299,#299,#265,.T.);
#365=EDGE_CURVE('',#300,#301,#266,.T.);
#366=EDGE_CURVE('',#301,#302,#151,.T.);
#367=EDGE_CURVE('',#302,#303,#267,.T.);
#368=EDGE_CURVE('',#303,#300,#152,.T.);
#369=EDGE_CURVE('',#304,#301,#153,.T.);
#370=EDGE_CURVE('',#305,#304,#154,.T.);
#371=EDGE_CURVE('',#302,#305,#155,.T.);
#372=EDGE_CURVE('',#306,#306,#268,.T.);
#373=EDGE_CURVE('',#307,#307,#269,.T.);
#374=EDGE_CURVE('',#308,#308,#15,.T.);
#375=EDGE_CURVE('',#308,#309,#156,.T.);
#376=EDGE_CURVE('',#309,#309,#16,.T.);
#377=EDGE_CURVE('',#310,#310,#17,.T.);
#378=EDGE_CURVE('',#310,#311,#157,.T.);
#379=EDGE_CURVE('',#311,#311,#18,.T.);
#380=EDGE_CURVE('',#312,#312,#19,.T.);
#381=EDGE_CURVE('',#312,#313,#158,.T.);
#382=EDGE_CURVE('',#313,#313,#20,.T.);
#383=EDGE_CURVE('',#314,#314,#21,.T.);
#384=EDGE_CURVE('',#314,#315,#159,.T.);
#385=EDGE_CURVE('',#315,#315,#22,.T.);
#386=EDGE_CURVE('',#316,#317,#160,.T.);
#387=EDGE_CURVE('',#318,#316,#161,.T.);
#388=EDGE_CURVE('',#319,#318,#162,.T.);
#389=EDGE_CURVE('',#317,#319,#163,.T.);
#390=EDGE_CURVE('',#320,#321,#164,.T.);
#391=EDGE_CURVE('',#322,#320,#165,.T.);
#392=EDGE_CURVE('',#323,#322,#166,.T.);
#393=EDGE_CURVE('',#321,#323,#167,.T.);
#394=EDGE_CURVE('',#324,#322,#168,.T.);
#395=EDGE_CURVE('',#324,#325,#169,.T.);
#396=EDGE_CURVE('',#323,#325,#170,.T.);
#397=EDGE_CURVE('',#316,#326,#171,.T.);
#398=EDGE_CURVE('',#326,#285,#172,.T.);
#399=EDGE_CURVE('',#290,#303,#173,.T.);
#400=EDGE_CURVE('',#305,#327,#174,.T.);
#401=EDGE_CURVE('',#327,#328,#175,.T.);
#402=EDGE_CURVE('',#328,#296,#176,.T.);
#403=EDGE_CURVE('',#292,#289,#177,.T.);
#404=EDGE_CURVE('',#276,#324,#178,.T.);
#405=EDGE_CURVE('',#320,#318,#270,.T.);
#406=EDGE_CURVE('',#319,#321,#271,.T.);
#407=EDGE_CURVE('',#329,#329,#272,.T.);
#408=EDGE_CURVE('',#329,#307,#179,.T.);
#409=EDGE_CURVE('',#330,#330,#273,.T.);
#410=EDGE_CURVE('',#330,#299,#180,.T.);
#411=EDGE_CURVE('',#331,#331,#274,.T.);
#412=EDGE_CURVE('',#331,#298,#181,.T.);
#413=EDGE_CURVE('',#332,#332,#275,.T.);
#414=EDGE_CURVE('',#332,#306,#182,.T.);
#415=EDGE_CURVE('',#295,#288,#183,.T.);
#416=EDGE_CURVE('',#333,#304,#184,.T.);
#417=EDGE_CURVE('',#327,#333,#185,.T.);
#418=EDGE_CURVE('',#328,#334,#186,.T.);
#419=EDGE_CURVE('',#297,#334,#187,.T.);
#420=EDGE_CURVE('',#333,#334,#188,.T.);
#421=EDGE_CURVE('',#291,#300,#189,.T.);
#422=EDGE_CURVE('',#326,#335,#190,.T.);
#423=EDGE_CURVE('',#282,#335,#191,.T.);
#424=EDGE_CURVE('',#335,#317,#192,.T.);
#425=EDGE_CURVE('',#325,#279,#193,.T.);
#426=ORIENTED_EDGE('',*,*,#336,.T.);
#427=ORIENTED_EDGE('',*,*,#337,.T.);
#428=ORIENTED_EDGE('',*,*,#338,.T.);
#429=ORIENTED_EDGE('',*,*,#339,.T.);
#430=ORIENTED_EDGE('',*,*,#337,.F.);
#431=ORIENTED_EDGE('',*,*,#340,.T.);
#432=ORIENTED_EDGE('',*,*,#341,.F.);
#433=ORIENTED_EDGE('',*,*,#342,.F.);
#434=ORIENTED_EDGE('',*,*,#343,.T.);
#435=ORIENTED_EDGE('',*,*,#344,.T.);
#436=ORIENTED_EDGE('',*,*,#345,.T.);
#437=ORIENTED_EDGE('',*,*,#346,.T.);
#438=ORIENTED_EDGE('',*,*,#344,.F.);
#439=ORIENTED_EDGE('',*,*,#347,.F.);
#440=ORIENTED_EDGE('',*,*,#348,.F.);
#441=ORIENTED_EDGE('',*,*,#349,.T.);
#442=ORIENTED_EDGE('',*,*,#350,.T.);
#443=ORIENTED_EDGE('',*,*,#341,.T.);
#444=ORIENTED_EDGE('',*,*,#351,.T.);
#445=ORIENTED_EDGE('',*,*,#352,.T.);
#446=ORIENTED_EDGE('',*,*,#353,.T.);
#447=ORIENTED_EDGE('',*,*,#348,.T.);
#448=ORIENTED_EDGE('',*,*,#354,.T.);
#449=ORIENTED_EDGE('',*,*,#355,.T.);
#450=ORIENTED_EDGE('',*,*,#356,.T.);
#451=ORIENTED_EDGE('',*,*,#357,.T.);
#452=ORIENTED_EDGE('',*,*,#358,.T.);
#453=ORIENTED_EDGE('',*,*,#359,.T.);
#454=ORIENTED_EDGE('',*,*,#357,.F.);
#455=ORIENTED_EDGE('',*,*,#360,.F.);
#456=ORIENTED_EDGE('',*,*,#361,.T.);
#457=ORIENTED_EDGE('',*,*,#362,.F.);
#458=ORIENTED_EDGE('',*,*,#363,.T.);
#459=ORIENTED_EDGE('',*,*,#364,.T.);
#460=ORIENTED_EDGE('',*,*,#365,.T.);
#461=ORIENTED_EDGE('',*,*,#366,.T.);
#462=ORIENTED_EDGE('',*,*,#367,.T.);
#463=ORIENTED_EDGE('',*,*,#368,.T.);
#464=ORIENTED_EDGE('',*,*,#366,.F.);
#465=ORIENTED_EDGE('',*,*,#369,.F.);
#466=ORIENTED_EDGE('',*,*,#370,.F.);
#467=ORIENTED_EDGE('',*,*,#371,.F.);
#468=ORIENTED_EDGE('',*,*,#372,.T.);
#469=ORIENTED_EDGE('',*,*,#373,.T.);
#470=ORIENTED_EDGE('',*,*,#374,.F.);
#471=ORIENTED_EDGE('',*,*,#375,.T.);
#472=ORIENTED_EDGE('',*,*,#376,.F.);
#473=ORIENTED_EDGE('',*,*,#375,.F.);
#474=ORIENTED_EDGE('',*,*,#377,.F.);
#475=ORIENTED_EDGE('',*,*,#378,.T.);
#476=ORIENTED_EDGE('',*,*,#379,.F.);
#477=ORIENTED_EDGE('',*,*,#378,.F.);
#478=ORIENTED_EDGE('',*,*,#380,.F.);
#479=ORIENTED_EDGE('',*,*,#381,.T.);
#480=ORIENTED_EDGE('',*,*,#382,.F.);
#481=ORIENTED_EDGE('',*,*,#381,.F.);
#482=ORIENTED_EDGE('',*,*,#383,.F.);
#483=ORIENTED_EDGE('',*,*,#384,.T.);
#484=ORIENTED_EDGE('',*,*,#385,.F.);
#485=ORIENTED_EDGE('',*,*,#384,.F.);
#486=ORIENTED_EDGE('',*,*,#386,.F.);
#487=ORIENTED_EDGE('',*,*,#387,.F.);
#488=ORIENTED_EDGE('',*,*,#388,.F.);
#489=ORIENTED_EDGE('',*,*,#389,.F.);
#490=ORIENTED_EDGE('',*,*,#379,.T.);
#491=ORIENTED_EDGE('',*,*,#385,.T.);
#492=ORIENTED_EDGE('',*,*,#390,.F.);
#493=ORIENTED_EDGE('',*,*,#391,.F.);
#494=ORIENTED_EDGE('',*,*,#392,.F.);
#495=ORIENTED_EDGE('',*,*,#393,.F.);
#496=ORIENTED_EDGE('',*,*,#374,.T.);
#497=ORIENTED_EDGE('',*,*,#380,.T.);
#498=ORIENTED_EDGE('',*,*,#392,.T.);
#499=ORIENTED_EDGE('',*,*,#394,.F.);
#500=ORIENTED_EDGE('',*,*,#395,.T.);
#501=ORIENTED_EDGE('',*,*,#396,.F.);
#502=ORIENTED_EDGE('',*,*,#387,.T.);
#503=ORIENTED_EDGE('',*,*,#397,.T.);
#504=ORIENTED_EDGE('',*,*,#398,.T.);
#505=ORIENTED_EDGE('',*,*,#345,.F.);
#506=ORIENTED_EDGE('',*,*,#349,.F.);
#507=ORIENTED_EDGE('',*,*,#353,.F.);
#508=ORIENTED_EDGE('',*,*,#399,.T.);
#509=ORIENTED_EDGE('',*,*,#367,.F.);
#510=ORIENTED_EDGE('',*,*,#371,.T.);
#511=ORIENTED_EDGE('',*,*,#400,.T.);
#512=ORIENTED_EDGE('',*,*,#401,.T.);
#513=ORIENTED_EDGE('',*,*,#402,.T.);
#514=ORIENTED_EDGE('',*,*,#360,.T.);
#515=ORIENTED_EDGE('',*,*,#356,.F.);
#516=ORIENTED_EDGE('',*,*,#403,.T.);
#517=ORIENTED_EDGE('',*,*,#351,.F.);
#518=ORIENTED_EDGE('',*,*,#340,.F.);
#519=ORIENTED_EDGE('',*,*,#336,.F.);
#520=ORIENTED_EDGE('',*,*,#404,.T.);
#521=ORIENTED_EDGE('',*,*,#394,.T.);
#522=ORIENTED_EDGE('',*,*,#391,.T.);
#523=ORIENTED_EDGE('',*,*,#405,.T.);
#524=ORIENTED_EDGE('',*,*,#388,.T.);
#525=ORIENTED_EDGE('',*,*,#405,.F.);
#526=ORIENTED_EDGE('',*,*,#390,.T.);
#527=ORIENTED_EDGE('',*,*,#406,.F.);
#528=ORIENTED_EDGE('',*,*,#407,.F.);
#529=ORIENTED_EDGE('',*,*,#408,.T.);
#530=ORIENTED_EDGE('',*,*,#373,.F.);
#531=ORIENTED_EDGE('',*,*,#408,.F.);
#532=ORIENTED_EDGE('',*,*,#409,.F.);
#533=ORIENTED_EDGE('',*,*,#410,.T.);
#534=ORIENTED_EDGE('',*,*,#364,.F.);
#535=ORIENTED_EDGE('',*,*,#410,.F.);
#536=ORIENTED_EDGE('',*,*,#411,.F.);
#537=ORIENTED_EDGE('',*,*,#412,.T.);
#538=ORIENTED_EDGE('',*,*,#363,.F.);
#539=ORIENTED_EDGE('',*,*,#412,.F.);
#540=ORIENTED_EDGE('',*,*,#413,.F.);
#541=ORIENTED_EDGE('',*,*,#414,.T.);
#542=ORIENTED_EDGE('',*,*,#372,.F.);
#543=ORIENTED_EDGE('',*,*,#414,.F.);
#544=ORIENTED_EDGE('',*,*,#352,.F.);
#545=ORIENTED_EDGE('',*,*,#403,.F.);
#546=ORIENTED_EDGE('',*,*,#359,.F.);
#547=ORIENTED_EDGE('',*,*,#415,.T.);
#548=ORIENTED_EDGE('',*,*,#370,.T.);
#549=ORIENTED_EDGE('',*,*,#416,.F.);
#550=ORIENTED_EDGE('',*,*,#417,.F.);
#551=ORIENTED_EDGE('',*,*,#400,.F.);
#552=ORIENTED_EDGE('',*,*,#418,.T.);
#553=ORIENTED_EDGE('',*,*,#419,.F.);
#554=ORIENTED_EDGE('',*,*,#361,.F.);
#555=ORIENTED_EDGE('',*,*,#402,.F.);
#556=ORIENTED_EDGE('',*,*,#420,.T.);
#557=ORIENTED_EDGE('',*,*,#418,.F.);
#558=ORIENTED_EDGE('',*,*,#401,.F.);
#559=ORIENTED_EDGE('',*,*,#417,.T.);
#560=ORIENTED_EDGE('',*,*,#407,.T.);
#561=ORIENTED_EDGE('',*,*,#409,.T.);
#562=ORIENTED_EDGE('',*,*,#411,.T.);
#563=ORIENTED_EDGE('',*,*,#413,.T.);
#564=ORIENTED_EDGE('',*,*,#355,.F.);
#565=ORIENTED_EDGE('',*,*,#421,.T.);
#566=ORIENTED_EDGE('',*,*,#368,.F.);
#567=ORIENTED_EDGE('',*,*,#399,.F.);
#568=ORIENTED_EDGE('',*,*,#346,.F.);
#569=ORIENTED_EDGE('',*,*,#398,.F.);
#570=ORIENTED_EDGE('',*,*,#422,.T.);
#571=ORIENTED_EDGE('',*,*,#423,.F.);
#572=ORIENTED_EDGE('',*,*,#377,.T.);
#573=ORIENTED_EDGE('',*,*,#383,.T.);
#574=ORIENTED_EDGE('',*,*,#386,.T.);
#575=ORIENTED_EDGE('',*,*,#424,.F.);
#576=ORIENTED_EDGE('',*,*,#422,.F.);
#577=ORIENTED_EDGE('',*,*,#397,.F.);
#578=ORIENTED_EDGE('',*,*,#389,.T.);
#579=ORIENTED_EDGE('',*,*,#406,.T.);
#580=ORIENTED_EDGE('',*,*,#393,.T.);
#581=ORIENTED_EDGE('',*,*,#396,.T.);
#582=ORIENTED_EDGE('',*,*,#425,.T.);
#583=ORIENTED_EDGE('',*,*,#338,.F.);
#584=ORIENTED_EDGE('',*,*,#342,.T.);
#585=ORIENTED_EDGE('',*,*,#350,.F.);
#586=ORIENTED_EDGE('',*,*,#415,.F.);
#587=ORIENTED_EDGE('',*,*,#358,.F.);
#588=ORIENTED_EDGE('',*,*,#362,.T.);
#589=ORIENTED_EDGE('',*,*,#419,.T.);
#590=ORIENTED_EDGE('',*,*,#420,.F.);
#591=ORIENTED_EDGE('',*,*,#416,.T.);
#592=ORIENTED_EDGE('',*,*,#369,.T.);
#593=ORIENTED_EDGE('',*,*,#365,.F.);
#594=ORIENTED_EDGE('',*,*,#421,.F.);
#595=ORIENTED_EDGE('',*,*,#354,.F.);
#596=ORIENTED_EDGE('',*,*,#347,.T.);
#597=ORIENTED_EDGE('',*,*,#343,.F.);
#598=ORIENTED_EDGE('',*,*,#423,.T.);
#599=ORIENTED_EDGE('',*,*,#424,.T.);
#600=ORIENTED_EDGE('',*,*,#339,.F.);
#601=ORIENTED_EDGE('',*,*,#425,.F.);
#602=ORIENTED_EDGE('',*,*,#395,.F.);
#603=ORIENTED_EDGE('',*,*,#404,.F.);
#604=ORIENTED_EDGE('',*,*,#376,.T.);
#605=ORIENTED_EDGE('',*,*,#382,.T.);
#606=CYLINDRICAL_SURFACE('',#665,2.);
#607=CYLINDRICAL_SURFACE('',#668,22.75);
#608=CYLINDRICAL_SURFACE('',#671,2.);
#609=CYLINDRICAL_SURFACE('',#674,22.75);
#610=CYLINDRICAL_SURFACE('',#677,2.);
#611=CYLINDRICAL_SURFACE('',#680,2.);
#612=CYLINDRICAL_SURFACE('',#683,2.);
#613=CYLINDRICAL_SURFACE('',#689,2.);
#614=CYLINDRICAL_SURFACE('',#708,19.2585);
#615=CYLINDRICAL_SURFACE('',#710,2.0085);
#616=CYLINDRICAL_SURFACE('',#712,2.0085);
#617=CYLINDRICAL_SURFACE('',#714,2.0085);
#618=CYLINDRICAL_SURFACE('',#716,2.0085);
#619=ADVANCED_FACE('',(#58),#606,.F.);
#620=ADVANCED_FACE('',(#59),#607,.T.);
#621=ADVANCED_FACE('',(#60),#608,.F.);
#622=ADVANCED_FACE('',(#61),#609,.T.);
#623=ADVANCED_FACE('',(#62),#610,.F.);
#624=ADVANCED_FACE('',(#63),#611,.F.);
#625=ADVANCED_FACE('',(#64),#612,.F.);
#626=ADVANCED_FACE('',(#65,#27,#28),#43,.F.);
#627=ADVANCED_FACE('',(#66),#613,.F.);
#628=ADVANCED_FACE('',(#67,#29,#30),#44,.F.);
#629=ADVANCED_FACE('',(#68),#23,.T.);
#630=ADVANCED_FACE('',(#69),#24,.T.);
#631=ADVANCED_FACE('',(#70),#25,.T.);
#632=ADVANCED_FACE('',(#71),#26,.T.);
#633=ADVANCED_FACE('',(#72,#31,#32),#45,.T.);
#634=ADVANCED_FACE('',(#73,#33,#34),#46,.T.);
#635=ADVANCED_FACE('',(#74),#47,.F.);
#636=ADVANCED_FACE('',(#75),#48,.T.);
#637=ADVANCED_FACE('',(#76),#614,.F.);
#638=ADVANCED_FACE('',(#77),#615,.F.);
#639=ADVANCED_FACE('',(#78),#616,.F.);
#640=ADVANCED_FACE('',(#79),#617,.F.);
#641=ADVANCED_FACE('',(#80),#618,.F.);
#642=ADVANCED_FACE('',(#81),#49,.T.);
#643=ADVANCED_FACE('',(#82),#50,.F.);
#644=ADVANCED_FACE('',(#83),#51,.F.);
#645=ADVANCED_FACE('',(#84,#35,#36,#37,#38),#52,.T.);
#646=ADVANCED_FACE('',(#85),#53,.T.);
#647=ADVANCED_FACE('',(#86,#39,#40),#54,.F.);
#648=ADVANCED_FACE('',(#87),#55,.F.);
#649=ADVANCED_FACE('',(#88),#56,.F.);
#650=ADVANCED_FACE('',(#89,#41,#42),#57,.F.);
#651=CLOSED_SHELL('',(#619,#620,#621,#622,#623,#624,#625,#626,#627,#628,
#629,#630,#631,#632,#633,#634,#635,#636,#637,#638,#639,#640,#641,#642,#643,
#644,#645,#646,#647,#648,#649,#650));
#652=DERIVED_UNIT_ELEMENT(#654,1.);
#653=DERIVED_UNIT_ELEMENT(#1165,-3.);
#654=(
MASS_UNIT()
NAMED_UNIT(*)
SI_UNIT(.KILO.,.GRAM.)
);
#655=DERIVED_UNIT((#652,#653));
#656=MEASURE_REPRESENTATION_ITEM('density measure',
POSITIVE_RATIO_MEASURE(7850.),#655);
#657=PROPERTY_DEFINITION_REPRESENTATION(#662,#659);
#658=PROPERTY_DEFINITION_REPRESENTATION(#663,#660);
#659=REPRESENTATION('material name',(#661),#1162);
#660=REPRESENTATION('density',(#656),#1162);
#661=DESCRIPTIVE_REPRESENTATION_ITEM('A\X\E7o','A\X\E7o');
#662=PROPERTY_DEFINITION('material property','material name',#1172);
#663=PROPERTY_DEFINITION('material property','density of part',#1172);
#664=AXIS2_PLACEMENT_3D('',#909,#727,#728);
#665=AXIS2_PLACEMENT_3D('',#910,#729,#730);
#666=AXIS2_PLACEMENT_3D('',#913,#731,#732);
#667=AXIS2_PLACEMENT_3D('',#917,#734,#735);
#668=AXIS2_PLACEMENT_3D('',#919,#737,#738);
#669=AXIS2_PLACEMENT_3D('',#921,#739,#740);
#670=AXIS2_PLACEMENT_3D('',#924,#742,#743);
#671=AXIS2_PLACEMENT_3D('',#925,#744,#745);
#672=AXIS2_PLACEMENT_3D('',#928,#746,#747);
#673=AXIS2_PLACEMENT_3D('',#932,#749,#750);
#674=AXIS2_PLACEMENT_3D('',#934,#752,#753);
#675=AXIS2_PLACEMENT_3D('',#936,#754,#755);
#676=AXIS2_PLACEMENT_3D('',#939,#757,#758);
#677=AXIS2_PLACEMENT_3D('',#940,#759,#760);
#678=AXIS2_PLACEMENT_3D('',#942,#761,#762);
#679=AXIS2_PLACEMENT_3D('',#944,#763,#764);
#680=AXIS2_PLACEMENT_3D('',#946,#766,#767);
#681=AXIS2_PLACEMENT_3D('',#948,#768,#769);
#682=AXIS2_PLACEMENT_3D('',#950,#770,#771);
#683=AXIS2_PLACEMENT_3D('',#952,#773,#774);
#684=AXIS2_PLACEMENT_3D('',#955,#775,#776);
#685=AXIS2_PLACEMENT_3D('',#959,#778,#779);
#686=AXIS2_PLACEMENT_3D('',#961,#781,#782);
#687=AXIS2_PLACEMENT_3D('',#968,#786,#787);
#688=AXIS2_PLACEMENT_3D('',#970,#788,#789);
#689=AXIS2_PLACEMENT_3D('',#971,#790,#791);
#690=AXIS2_PLACEMENT_3D('',#974,#792,#793);
#691=AXIS2_PLACEMENT_3D('',#978,#795,#796);
#692=AXIS2_PLACEMENT_3D('',#980,#798,#799);
#693=AXIS2_PLACEMENT_3D('',#987,#803,#804);
#694=AXIS2_PLACEMENT_3D('',#989,#805,#806);
#695=AXIS2_PLACEMENT_3D('',#1009,#807,#808);
#696=AXIS2_PLACEMENT_3D('',#1012,#810,#811);
#697=AXIS2_PLACEMENT_3D('',#1032,#812,#813);
#698=AXIS2_PLACEMENT_3D('',#1035,#815,#816);
#699=AXIS2_PLACEMENT_3D('',#1055,#817,#818);
#700=AXIS2_PLACEMENT_3D('',#1058,#820,#821);
#701=AXIS2_PLACEMENT_3D('',#1078,#822,#823);
#702=AXIS2_PLACEMENT_3D('',#1081,#825,#826);
#703=AXIS2_PLACEMENT_3D('',#1082,#827,#828);
#704=AXIS2_PLACEMENT_3D('',#1091,#833,#834);
#705=AXIS2_PLACEMENT_3D('',#1100,#839,#840);
#706=AXIS2_PLACEMENT_3D('',#1106,#844,#845);
#707=AXIS2_PLACEMENT_3D('',#1118,#854,#855);
#708=AXIS2_PLACEMENT_3D('',#1119,#856,#857);
#709=AXIS2_PLACEMENT_3D('',#1120,#858,#859);
#710=AXIS2_PLACEMENT_3D('',#1121,#860,#861);
#711=AXIS2_PLACEMENT_3D('',#1123,#862,#863);
#712=AXIS2_PLACEMENT_3D('',#1125,#865,#866);
#713=AXIS2_PLACEMENT_3D('',#1127,#867,#868);
#714=AXIS2_PLACEMENT_3D('',#1129,#870,#871);
#715=AXIS2_PLACEMENT_3D('',#1131,#872,#873);
#716=AXIS2_PLACEMENT_3D('',#1133,#875,#876);
#717=AXIS2_PLACEMENT_3D('',#1135,#877,#878);
#718=AXIS2_PLACEMENT_3D('',#1137,#880,#881);
#719=AXIS2_PLACEMENT_3D('',#1139,#883,#884);
#720=AXIS2_PLACEMENT_3D('',#1143,#887,#888);
#721=AXIS2_PLACEMENT_3D('',#1147,#891,#892);
#722=AXIS2_PLACEMENT_3D('',#1149,#894,#895);
#723=AXIS2_PLACEMENT_3D('',#1151,#897,#898);
#724=AXIS2_PLACEMENT_3D('',#1155,#901,#902);
#725=AXIS2_PLACEMENT_3D('',#1157,#904,#905);
#726=AXIS2_PLACEMENT_3D('',#1159,#907,#908);
#727=DIRECTION('axis',(0.,0.,1.));
#728=DIRECTION('refdir',(1.,0.,0.));
#729=DIRECTION('center_axis',(0.,1.,8.30863368999595E-17));
#730=DIRECTION('ref_axis',(-0.821122660899343,0.,-0.570751763692048));
#731=DIRECTION('center_axis',(0.,-1.,4.05741624797134E-16));
#732=DIRECTION('ref_axis',(-0.821122660899343,0.,-0.570751763692048));
#733=DIRECTION('',(0.,1.,8.30863368999595E-17));
#734=DIRECTION('center_axis',(0.,1.,-4.05741624797134E-16));
#735=DIRECTION('ref_axis',(-0.821122660899343,0.,-0.570751763692048));
#736=DIRECTION('',(0.,-1.,-8.30863368999595E-17));
#737=DIRECTION('center_axis',(0.,1.,8.30863368999595E-17));
#738=DIRECTION('ref_axis',(1.,0.,0.));
#739=DIRECTION('center_axis',(0.,1.,-5.47822001538195E-17));
#740=DIRECTION('ref_axis',(1.,0.,0.));
#741=DIRECTION('',(0.,-1.,-8.30863368999595E-17));
#742=DIRECTION('center_axis',(0.,1.,-5.47822001538195E-17));
#743=DIRECTION('ref_axis',(1.,0.,0.));
#744=DIRECTION('center_axis',(0.,-1.,-8.30863368999595E-17));
#745=DIRECTION('ref_axis',(0.805599093215661,0.,-0.592461054424765));
#746=DIRECTION('center_axis',(0.,1.,-4.05741624797134E-16));
#747=DIRECTION('ref_axis',(0.805599093215661,0.,-0.592461054424765));
#748=DIRECTION('',(0.,-1.,-8.30863368999595E-17));
#749=DIRECTION('center_axis',(0.,-1.,4.05741624797134E-16));
#750=DIRECTION('ref_axis',(0.805599093215661,0.,-0.592461054424765));
#751=DIRECTION('',(0.,1.,8.30863368999595E-17));
#752=DIRECTION('center_axis',(0.,1.,8.30863368999595E-17));
#753=DIRECTION('ref_axis',(-0.926122792222825,-3.1342009204259E-17,0.377222180850222));
#754=DIRECTION('center_axis',(0.,1.,-5.47822001538195E-17));
#755=DIRECTION('ref_axis',(1.,0.,0.));
#756=DIRECTION('',(0.,1.,8.30863368999595E-17));
#757=DIRECTION('center_axis',(0.,1.,-5.47822001538195E-17));
#758=DIRECTION('ref_axis',(1.,0.,0.));
#759=DIRECTION('center_axis',(0.,-1.,-8.30863368999595E-17));
#760=DIRECTION('ref_axis',(-0.999917846881519,0.,-0.0128179361766224));
#761=DIRECTION('center_axis',(0.,1.,-4.05741624797134E-16));
#762=DIRECTION('ref_axis',(-0.999917846881519,0.,-0.0128179361766224));
#763=DIRECTION('center_axis',(0.,-1.,4.05741624797134E-16));
#764=DIRECTION('ref_axis',(-0.999917846881519,0.,-0.0128179361766224));
#765=DIRECTION('',(-2.16132096132312E-16,1.,-4.07393431758446E-17));
#766=DIRECTION('center_axis',(0.,1.,8.30863368999595E-17));
#767=DIRECTION('ref_axis',(0.999917846881519,0.,-0.0128179361766213));
#768=DIRECTION('center_axis',(0.,-1.,4.05741624797134E-16));
#769=DIRECTION('ref_axis',(0.999917846881519,0.,-0.0128179361766213));
#770=DIRECTION('center_axis',(0.,1.,-4.05741624797134E-16));
#771=DIRECTION('ref_axis',(0.999917846881519,0.,-0.0128179361766213));
#772=DIRECTION('',(-2.16132096132312E-16,-1.,4.07393431758446E-17));
#773=DIRECTION('center_axis',(-1.06412451905078E-16,1.,-2.32249994917926E-16));
#774=DIRECTION('ref_axis',(-0.501441924493724,0.,-0.865191306220786));
#775=DIRECTION('center_axis',(0.,-1.,4.05741624797134E-16));
#776=DIRECTION('ref_axis',(-0.501441924493724,0.,-0.865191306220786));
#777=DIRECTION('',(-1.06412451905078E-16,1.,-2.32249994917926E-16));
#778=DIRECTION('center_axis',(0.,1.,-4.05741624797134E-16));
#779=DIRECTION('ref_axis',(-0.501441924493724,0.,-0.865191306220786));
#780=DIRECTION('',(1.06412451905078E-16,-1.,2.32249994917926E-16));
#781=DIRECTION('center_axis',(0.,-2.32249994917926E-16,-1.));
#782=DIRECTION('ref_axis',(-1.,0.,0.));
#783=DIRECTION('',(-1.,0.,0.));
#784=DIRECTION('',(0.,1.,-2.32249994917926E-16));
#785=DIRECTION('',(1.,0.,0.));
#786=DIRECTION('center_axis',(0.,-2.32249994917926E-16,-1.));
#787=DIRECTION('ref_axis',(1.,0.,0.));
#788=DIRECTION('center_axis',(0.,-2.32249994917926E-16,-1.));
#789=DIRECTION('ref_axis',(1.,0.,0.));
#790=DIRECTION('center_axis',(-1.06412451905078E-16,-1.,2.32249994917926E-16));
#791=DIRECTION('ref_axis',(0.501441924493727,0.,-0.865191306220785));
#792=DIRECTION('center_axis',(0.,1.,-4.05741624797134E-16));
#793=DIRECTION('ref_axis',(0.501441924493727,0.,-0.865191306220785));
#794=DIRECTION('',(-1.06412451905078E-16,-1.,2.32249994917926E-16));
#795=DIRECTION('center_axis',(0.,-1.,4.05741624797134E-16));
#796=DIRECTION('ref_axis',(0.501441924493727,0.,-0.865191306220785));
#797=DIRECTION('',(1.06412451905078E-16,1.,-2.32249994917926E-16));
#798=DIRECTION('center_axis',(0.,-2.32249994917926E-16,-1.));
#799=DIRECTION('ref_axis',(-1.,0.,0.));
#800=DIRECTION('',(1.,0.,0.));
#801=DIRECTION('',(0.,1.,-2.32249994917926E-16));
#802=DIRECTION('',(-1.,0.,0.));
#803=DIRECTION('center_axis',(0.,-2.32249994917926E-16,-1.));
#804=DIRECTION('ref_axis',(1.,0.,0.));
#805=DIRECTION('center_axis',(0.,-2.32249994917926E-16,-1.));
#806=DIRECTION('ref_axis',(1.,0.,0.));
#807=DIRECTION('center_axis',(1.,0.,0.));
#808=DIRECTION('ref_axis',(6.10250310643081E-17,2.21275762854886E-16,1.));
#809=DIRECTION('',(1.,3.21599698237684E-17,-6.14403531020497E-17));
#810=DIRECTION('center_axis',(-1.,0.,0.));
#811=DIRECTION('ref_axis',(6.10250310643081E-17,2.21275762854886E-16,1.));
#812=DIRECTION('center_axis',(1.,0.,0.));
#813=DIRECTION('ref_axis',(6.10250310643081E-17,2.21275762854886E-16,1.));
#814=DIRECTION('',(1.,3.21599698237684E-17,-6.14403531020497E-17));
#815=DIRECTION('center_axis',(-1.,0.,0.));
#816=DIRECTION('ref_axis',(6.10250310643081E-17,2.21275762854886E-16,1.));
#817=DIRECTION('center_axis',(1.,0.,0.));
#818=DIRECTION('ref_axis',(6.10250310643081E-17,2.21275762854886E-16,1.));
#819=DIRECTION('',(1.,3.21599698237684E-17,-6.14403531020497E-17));
#820=DIRECTION('center_axis',(-1.,0.,0.));
#821=DIRECTION('ref_axis',(6.10250310643081E-17,2.21275762854886E-16,1.));
#822=DIRECTION('center_axis',(1.,0.,0.));
#823=DIRECTION('ref_axis',(6.10250310643081E-17,2.21275762854886E-16,1.));
#824=DIRECTION('',(1.,3.21599698237684E-17,-6.14403531020497E-17));
#825=DIRECTION('center_axis',(-1.,0.,0.));
#826=DIRECTION('ref_axis',(6.10250310643081E-17,2.21275762854886E-16,1.));
#827=DIRECTION('center_axis',(1.,0.,0.));
#828=DIRECTION('ref_axis',(0.,0.,-1.));
#829=DIRECTION('',(0.,1.,-2.42455384910821E-16));
#830=DIRECTION('',(0.,4.05741624797134E-16,1.));
#831=DIRECTION('',(0.,-1.,-4.7190436167095E-17));
#832=DIRECTION('',(0.,-4.05741624797134E-16,-1.));
#833=DIRECTION('center_axis',(-1.,0.,0.));
#834=DIRECTION('ref_axis',(0.,0.,1.));
#835=DIRECTION('',(0.,1.,4.7190436167095E-17));
#836=DIRECTION('',(0.,-4.05741624797134E-16,-1.));
#837=DIRECTION('',(0.,-1.,2.42455384910821E-16));
#838=DIRECTION('',(0.,4.05741624797134E-16,1.));
#839=DIRECTION('center_axis',(0.,-2.42455384910821E-16,-1.));
#840=DIRECTION('ref_axis',(-1.,0.,0.));
#841=DIRECTION('',(-1.,0.,0.));
#842=DIRECTION('',(0.,1.,-2.42455384910821E-16));
#843=DIRECTION('',(1.,0.,0.));
#844=DIRECTION('center_axis',(0.,-1.,4.05741624797134E-16));
#845=DIRECTION('ref_axis',(0.,-4.05741624797134E-16,-1.));
#846=DIRECTION('',(-1.,0.,0.));
#847=DIRECTION('',(0.,-4.05741624797134E-16,-1.));
#848=DIRECTION('',(-0.497111992720054,-2.09268352266317E-16,-0.867686387293184));
#849=DIRECTION('',(0.,-5.89438644669237E-16,-1.));
#850=DIRECTION('',(1.,0.,0.));
#851=DIRECTION('',(0.,5.89438644669237E-16,1.));
#852=DIRECTION('',(-0.497111992720054,2.09268352266317E-16,0.867686387293184));
#853=DIRECTION('',(0.,4.05741624797134E-16,1.));
#854=DIRECTION('center_axis',(0.,1.,-2.41179711161709E-16));
#855=DIRECTION('ref_axis',(1.,0.,0.));
#856=DIRECTION('center_axis',(0.,1.,4.7190436167095E-17));
#857=DIRECTION('ref_axis',(-0.032631339174895,4.71653051858304E-17,-0.999467456050297));
#858=DIRECTION('center_axis',(0.,-1.,2.41179711161709E-16));
#859=DIRECTION('ref_axis',(1.,0.,0.));
#860=DIRECTION('center_axis',(0.,1.90527202954696E-16,1.));
#861=DIRECTION('ref_axis',(1.,0.,0.));
#862=DIRECTION('center_axis',(0.,4.17988092788608E-16,1.));
#863=DIRECTION('ref_axis',(1.,0.,0.));
#864=DIRECTION('',(0.,1.90527202954696E-16,1.));
#865=DIRECTION('center_axis',(0.,1.90527202954696E-16,1.));
#866=DIRECTION('ref_axis',(1.,0.,0.));
#867=DIRECTION('center_axis',(0.,4.17988092788608E-16,1.));
#868=DIRECTION('ref_axis',(1.,0.,0.));
#869=DIRECTION('',(0.,1.90527202954696E-16,1.));
#870=DIRECTION('center_axis',(0.,1.90527202954696E-16,1.));
#871=DIRECTION('ref_axis',(1.,0.,0.));
#872=DIRECTION('center_axis',(0.,4.17988092788608E-16,1.));
#873=DIRECTION('ref_axis',(1.,0.,0.));
#874=DIRECTION('',(0.,1.90527202954696E-16,1.));
#875=DIRECTION('center_axis',(0.,1.90527202954696E-16,1.));
#876=DIRECTION('ref_axis',(1.,0.,0.));
#877=DIRECTION('center_axis',(0.,4.17988092788608E-16,1.));
#878=DIRECTION('ref_axis',(1.,0.,0.));
#879=DIRECTION('',(0.,1.90527202954696E-16,1.));
#880=DIRECTION('center_axis',(0.867686387293184,2.077868937394E-16,0.497111992720054));
#881=DIRECTION('ref_axis',(0.497111992720054,0.,-0.867686387293184));
#882=DIRECTION('',(-0.497111992720054,2.09268352266317E-16,0.867686387293184));
#883=DIRECTION('center_axis',(1.,0.,0.));
#884=DIRECTION('ref_axis',(0.,0.,-1.));
#885=DIRECTION('',(0.,5.89438644669237E-16,1.));
#886=DIRECTION('',(0.,1.,-2.32249994917926E-16));
#887=DIRECTION('center_axis',(-1.,0.,0.));
#888=DIRECTION('ref_axis',(0.,0.,1.));
#889=DIRECTION('',(0.,1.,-2.32249994917926E-16));
#890=DIRECTION('',(0.,-5.89438644669237E-16,-1.));
#891=DIRECTION('center_axis',(0.,-4.17988092788608E-16,-1.));
#892=DIRECTION('ref_axis',(-1.,0.,0.));
#893=DIRECTION('',(1.,0.,0.));
#894=DIRECTION('center_axis',(-0.867686387293184,2.077868937394E-16,0.497111992720054));
#895=DIRECTION('ref_axis',(0.497111992720054,0.,0.867686387293184));
#896=DIRECTION('',(-0.497111992720054,-2.09268352266317E-16,-0.867686387293184));
#897=DIRECTION('center_axis',(1.,0.,0.));
#898=DIRECTION('ref_axis',(0.,0.,-1.));
#899=DIRECTION('',(0.,1.,-2.42455384910821E-16));
#900=DIRECTION('',(0.,4.05741624797134E-16,1.));
#901=DIRECTION('center_axis',(0.,-2.42455384910821E-16,-1.));
#902=DIRECTION('ref_axis',(-1.,0.,0.));
#903=DIRECTION('',(1.,0.,0.));
#904=DIRECTION('center_axis',(0.,-1.,4.05741624797134E-16));
#905=DIRECTION('ref_axis',(0.,-4.05741624797134E-16,-1.));
#906=DIRECTION('',(0.,-4.05741624797134E-16,-1.));
#907=DIRECTION('center_axis',(-1.,0.,0.));
#908=DIRECTION('ref_axis',(0.,0.,1.));
#909=CARTESIAN_POINT('',(0.,0.,0.));
#910=CARTESIAN_POINT('Origin',(82.878153747927,328.056069615667,48.9485317423322));
#911=CARTESIAN_POINT('',(80.878153747927,328.056069615667,48.9485317423322));
#912=CARTESIAN_POINT('',(82.1811840509573,328.056069615667,47.073902914669));
#913=CARTESIAN_POINT('Origin',(82.878153747927,328.056069615667,48.9485317423322));
#914=CARTESIAN_POINT('',(82.1811840509573,358.056069615667,47.073902914669));
#915=CARTESIAN_POINT('',(82.1811840509573,328.056069615667,47.073902914669));
#916=CARTESIAN_POINT('',(80.878153747927,358.056069615667,48.9485317423322));
#917=CARTESIAN_POINT('Origin',(82.878153747927,358.056069615667,48.9485317423322));
#918=CARTESIAN_POINT('',(80.878153747927,328.056069615667,48.9485317423322));
#919=CARTESIAN_POINT('Origin',(74.253153747927,328.056069615667,25.7499999999999));
#920=CARTESIAN_POINT('',(94.2764324568758,328.056069615667,14.9504254832073));
#921=CARTESIAN_POINT('Origin',(74.253153747927,328.056069615667,25.7499999999999));
#922=CARTESIAN_POINT('',(94.2764324568758,358.056069615667,14.9504254832073));
#923=CARTESIAN_POINT('',(94.2764324568758,328.056069615667,14.9504254832073));
#924=CARTESIAN_POINT('Origin',(74.253153747927,358.056069615667,25.7499999999999));
#925=CARTESIAN_POINT('Origin',(66.878153747927,328.056069615667,49.375661366404));
#926=CARTESIAN_POINT('',(68.878153747927,358.056069615667,49.375661366404));
#927=CARTESIAN_POINT('',(67.4741133438866,358.056069615667,47.4665170135633));
#928=CARTESIAN_POINT('Origin',(66.878153747927,358.056069615667,49.375661366404));
#929=CARTESIAN_POINT('',(67.4741133438866,328.056069615667,47.4665170135633));
#930=CARTESIAN_POINT('',(67.4741133438866,328.056069615667,47.4665170135633));
#931=CARTESIAN_POINT('',(68.878153747927,328.056069615667,49.375661366404));
#932=CARTESIAN_POINT('Origin',(66.878153747927,328.056069615667,49.375661366404));
#933=CARTESIAN_POINT('',(68.878153747927,328.056069615667,49.375661366404));
#934=CARTESIAN_POINT('Origin',(74.253153747927,328.056069615667,25.7499999999999));
#935=CARTESIAN_POINT('',(54.2298750389782,358.056069615667,14.9504254832073));
#936=CARTESIAN_POINT('Origin',(74.253153747927,358.056069615667,25.7499999999999));
#937=CARTESIAN_POINT('',(54.2298750389782,328.056069615667,14.9504254832073));
#938=CARTESIAN_POINT('',(54.2298750389782,328.056069615667,14.9504254832073));
#939=CARTESIAN_POINT('Origin',(74.253153747927,328.056069615667,25.7499999999999));
#940=CARTESIAN_POINT('Origin',(96.0367206950252,328.056069615667,14.0010123388739));
#941=CARTESIAN_POINT('',(94.3013479204388,358.056069615667,13.0067883534338));
#942=CARTESIAN_POINT('Origin',(96.0367206950252,358.056069615667,14.0010123388739));
#943=CARTESIAN_POINT('',(94.3013479204388,328.056069615667,13.0067883534338));
#944=CARTESIAN_POINT('Origin',(96.0367206950252,328.056069615667,14.0010123388739));
#945=CARTESIAN_POINT('',(94.3013479204388,328.056069615667,13.0067883534338));
#946=CARTESIAN_POINT('Origin',(52.4695868008288,328.056069615667,14.0010123388739));
#947=CARTESIAN_POINT('',(54.2049595754152,328.056069615667,13.0067883534338));
#948=CARTESIAN_POINT('Origin',(52.4695868008288,328.056069615667,14.0010123388739));
#949=CARTESIAN_POINT('',(54.2049595754152,358.056069615667,13.0067883534338));
#950=CARTESIAN_POINT('Origin',(52.4695868008288,358.056069615667,14.0010123388739));
#951=CARTESIAN_POINT('',(54.2049595754152,328.056069615667,13.0067883534338));
#952=CARTESIAN_POINT('Origin',(100.047717347505,350.556069615667,6.99999999999992));
#953=CARTESIAN_POINT('',(98.3123445729187,328.056069615667,6.00577601455982));
#954=CARTESIAN_POINT('',(100.047717347505,328.056069615667,4.99999999999993));
#955=CARTESIAN_POINT('Origin',(100.047717347505,328.056069615667,6.99999999999993));
#956=CARTESIAN_POINT('',(100.047717347505,358.056069615667,4.99999999999992));
#957=CARTESIAN_POINT('',(100.047717347505,350.556069615667,4.99999999999992));
#958=CARTESIAN_POINT('',(98.3123445729187,358.056069615667,6.00577601455981));
#959=CARTESIAN_POINT('Origin',(100.047717347505,358.056069615667,6.99999999999992));
#960=CARTESIAN_POINT('',(98.3123445729187,350.556069615667,6.00577601455981));
#961=CARTESIAN_POINT('Origin',(74.253153747927,343.056069615667,4.99999999999992));
#962=CARTESIAN_POINT('',(107.003153747927,328.056069615667,4.99999999999993));
#963=CARTESIAN_POINT('',(74.253153747927,328.056069615667,4.99999999999993));
#964=CARTESIAN_POINT('',(107.003153747927,358.056069615667,4.99999999999992));
#965=CARTESIAN_POINT('',(107.003153747927,343.056069615667,4.99999999999992));
#966=CARTESIAN_POINT('',(74.253153747927,358.056069615667,4.99999999999992));
#967=CARTESIAN_POINT('',(100.869653747927,334.056069615667,4.99999999999993));
#968=CARTESIAN_POINT('Origin',(102.878153747927,334.056069615667,4.99999999999993));
#969=CARTESIAN_POINT('',(100.869653747927,352.056069615667,4.99999999999992));
#970=CARTESIAN_POINT('Origin',(102.878153747927,352.056069615667,4.99999999999992));
#971=CARTESIAN_POINT('Origin',(48.4585901483489,350.556069615667,6.99999999999993));
#972=CARTESIAN_POINT('',(50.1939629229353,358.056069615667,6.00577601455982));
#973=CARTESIAN_POINT('',(48.4585901483489,358.056069615667,4.99999999999992));
#974=CARTESIAN_POINT('Origin',(48.4585901483489,358.056069615667,6.99999999999993));
#975=CARTESIAN_POINT('',(48.4585901483489,328.056069615667,4.99999999999993));
#976=CARTESIAN_POINT('',(48.4585901483489,350.556069615667,4.99999999999992));
#977=CARTESIAN_POINT('',(50.1939629229353,328.056069615667,6.00577601455983));
#978=CARTESIAN_POINT('Origin',(48.4585901483489,328.056069615667,6.99999999999994));
#979=CARTESIAN_POINT('',(50.1939629229353,350.556069615667,6.00577601455982));
#980=CARTESIAN_POINT('Origin',(74.253153747927,343.056069615667,4.99999999999992));
#981=CARTESIAN_POINT('',(41.503153747927,358.056069615667,4.99999999999992));
#982=CARTESIAN_POINT('',(74.253153747927,358.056069615667,4.99999999999992));
#983=CARTESIAN_POINT('',(41.503153747927,328.056069615667,4.99999999999993));
#984=CARTESIAN_POINT('',(41.503153747927,343.056069615667,4.99999999999992));
#985=CARTESIAN_POINT('',(74.253153747927,328.056069615667,4.99999999999993));
#986=CARTESIAN_POINT('',(43.869653747927,334.056069615667,4.99999999999993));
#987=CARTESIAN_POINT('Origin',(45.878153747927,334.056069615667,4.99999999999993));
#988=CARTESIAN_POINT('',(43.869653747927,352.056069615667,4.99999999999992));
#989=CARTESIAN_POINT('Origin',(45.878153747927,352.056069615667,4.99999999999992));
#990=CARTESIAN_POINT('Ctrl Pts',(76.886653747927,352.063024161121,51.4914999999999));
#991=CARTESIAN_POINT('Ctrl Pts',(76.886653747927,354.064569615667,51.4914999999999));
#992=CARTESIAN_POINT('Ctrl Pts',(76.886653747927,354.064569615667,53.4999999999999));
#993=CARTESIAN_POINT('Ctrl Pts',(76.886653747927,354.064569615667,55.5084999999999));
#994=CARTESIAN_POINT('Ctrl Pts',(76.886653747927,352.063024161121,55.5084999999999));
#995=CARTESIAN_POINT('Ctrl Pts',(76.886653747927,350.061478706576,55.5084999999999));
#996=CARTESIAN_POINT('Ctrl Pts',(76.886653747927,350.061478706576,53.4999999999999));
#997=CARTESIAN_POINT('Ctrl Pts',(76.886653747927,350.061478706576,51.4914999999999));
#998=CARTESIAN_POINT('Ctrl Pts',(76.886653747927,352.063024161121,51.4914999999999));
#999=CARTESIAN_POINT('Ctrl Pts',(80.878153747927,352.063024161121,51.4914999999999));
#1000=CARTESIAN_POINT('Ctrl Pts',(80.878153747927,354.064569615667,51.4914999999999));
#1001=CARTESIAN_POINT('Ctrl Pts',(80.878153747927,354.064569615667,53.4999999999999));
#1002=CARTESIAN_POINT('Ctrl Pts',(80.878153747927,354.064569615667,55.5084999999999));
#1003=CARTESIAN_POINT('Ctrl Pts',(80.878153747927,352.063024161121,55.5084999999999));
#1004=CARTESIAN_POINT('Ctrl Pts',(80.878153747927,350.061478706576,55.5084999999999));
#1005=CARTESIAN_POINT('Ctrl Pts',(80.878153747927,350.061478706576,53.4999999999999));
#1006=CARTESIAN_POINT('Ctrl Pts',(80.878153747927,350.061478706576,51.4914999999999));
#1007=CARTESIAN_POINT('Ctrl Pts',(80.878153747927,352.063024161121,51.4914999999999));
#1008=CARTESIAN_POINT('',(76.886653747927,352.063024161121,51.4914999999999));
#1009=CARTESIAN_POINT('Origin',(76.886653747927,352.063024161121,53.4999999999999));
#1010=CARTESIAN_POINT('',(80.878153747927,352.063024161121,51.4914999999999));
#1011=CARTESIAN_POINT('',(83.886653747927,352.063024161121,51.4914999999999));
#1012=CARTESIAN_POINT('Origin',(80.878153747927,352.063024161121,53.4999999999999));
#1013=CARTESIAN_POINT('Ctrl Pts',(68.878153747927,352.063024161121,51.4914999999999));
#1014=CARTESIAN_POINT('Ctrl Pts',(68.878153747927,354.064569615667,51.4914999999999));
#1015=CARTESIAN_POINT('Ctrl Pts',(68.878153747927,354.064569615667,53.4999999999999));
#1016=CARTESIAN_POINT('Ctrl Pts',(68.878153747927,354.064569615667,55.5084999999999));
#1017=CARTESIAN_POINT('Ctrl Pts',(68.878153747927,352.063024161121,55.5084999999999));
#1018=CARTESIAN_POINT('Ctrl Pts',(68.878153747927,350.061478706576,55.5084999999999));
#1019=CARTESIAN_POINT('Ctrl Pts',(68.878153747927,350.061478706576,53.4999999999999));
#1020=CARTESIAN_POINT('Ctrl Pts',(68.878153747927,350.061478706576,51.4914999999999));
#1021=CARTESIAN_POINT('Ctrl Pts',(68.878153747927,352.063024161121,51.4914999999999));
#1022=CARTESIAN_POINT('Ctrl Pts',(72.869653747927,352.063024161121,51.4914999999999));
#1023=CARTESIAN_POINT('Ctrl Pts',(72.869653747927,354.064569615667,51.4914999999999));
#1024=CARTESIAN_POINT('Ctrl Pts',(72.869653747927,354.064569615667,53.4999999999999));
#1025=CARTESIAN_POINT('Ctrl Pts',(72.869653747927,354.064569615667,55.5084999999999));
#1026=CARTESIAN_POINT('Ctrl Pts',(72.869653747927,352.063024161121,55.5084999999999));
#1027=CARTESIAN_POINT('Ctrl Pts',(72.869653747927,350.061478706576,55.5084999999999));
#1028=CARTESIAN_POINT('Ctrl Pts',(72.869653747927,350.061478706576,53.4999999999999));
#1029=CARTESIAN_POINT('Ctrl Pts',(72.869653747927,350.061478706576,51.4914999999999));
#1030=CARTESIAN_POINT('Ctrl Pts',(72.869653747927,352.063024161121,51.4914999999999));
#1031=CARTESIAN_POINT('',(68.878153747927,352.063024161121,51.4914999999999));
#1032=CARTESIAN_POINT('Origin',(68.878153747927,352.063024161121,53.4999999999999));
#1033=CARTESIAN_POINT('',(72.869653747927,352.063024161121,51.4914999999999));
#1034=CARTESIAN_POINT('',(83.886653747927,352.063024161121,51.4914999999999));
#1035=CARTESIAN_POINT('Origin',(72.869653747927,352.063024161121,53.4999999999999));
#1036=CARTESIAN_POINT('Ctrl Pts',(76.886653747927,334.049115070212,51.4914999999999));
#1037=CARTESIAN_POINT('Ctrl Pts',(76.886653747927,336.050660524758,51.4914999999999));
#1038=CARTESIAN_POINT('Ctrl Pts',(76.886653747927,336.050660524758,53.4999999999999));
#1039=CARTESIAN_POINT('Ctrl Pts',(76.886653747927,336.050660524758,55.5084999999999));
#1040=CARTESIAN_POINT('Ctrl Pts',(76.886653747927,334.049115070212,55.5084999999999));
#1041=CARTESIAN_POINT('Ctrl Pts',(76.886653747927,332.047569615667,55.5084999999999));
#1042=CARTESIAN_POINT('Ctrl Pts',(76.886653747927,332.047569615667,53.4999999999999));
#1043=CARTESIAN_POINT('Ctrl Pts',(76.886653747927,332.047569615667,51.4914999999999));
#1044=CARTESIAN_POINT('Ctrl Pts',(76.886653747927,334.049115070212,51.4914999999999));
#1045=CARTESIAN_POINT('Ctrl Pts',(80.878153747927,334.049115070212,51.4914999999999));
#1046=CARTESIAN_POINT('Ctrl Pts',(80.878153747927,336.050660524758,51.4914999999999));
#1047=CARTESIAN_POINT('Ctrl Pts',(80.878153747927,336.050660524758,53.4999999999999));
#1048=CARTESIAN_POINT('Ctrl Pts',(80.878153747927,336.050660524758,55.5084999999999));
#1049=CARTESIAN_POINT('Ctrl Pts',(80.878153747927,334.049115070212,55.5084999999999));
#1050=CARTESIAN_POINT('Ctrl Pts',(80.878153747927,332.047569615667,55.5084999999999));
#1051=CARTESIAN_POINT('Ctrl Pts',(80.878153747927,332.047569615667,53.4999999999999));
#1052=CARTESIAN_POINT('Ctrl Pts',(80.878153747927,332.047569615667,51.4914999999999));
#1053=CARTESIAN_POINT('Ctrl Pts',(80.878153747927,334.049115070212,51.4914999999999));
#1054=CARTESIAN_POINT('',(76.886653747927,334.049115070212,51.4914999999999));
#1055=CARTESIAN_POINT('Origin',(76.886653747927,334.049115070212,53.4999999999999));
#1056=CARTESIAN_POINT('',(80.878153747927,334.049115070212,51.4914999999999));
#1057=CARTESIAN_POINT('',(83.886653747927,334.049115070212,51.4914999999999));
#1058=CARTESIAN_POINT('Origin',(80.878153747927,334.049115070212,53.4999999999999));
#1059=CARTESIAN_POINT('Ctrl Pts',(68.878153747927,334.049115070212,51.4914999999999));
#1060=CARTESIAN_POINT('Ctrl Pts',(68.878153747927,336.050660524758,51.4914999999999));
#1061=CARTESIAN_POINT('Ctrl Pts',(68.878153747927,336.050660524758,53.4999999999999));
#1062=CARTESIAN_POINT('Ctrl Pts',(68.878153747927,336.050660524758,55.5084999999999));
#1063=CARTESIAN_POINT('Ctrl Pts',(68.878153747927,334.049115070212,55.5084999999999));
#1064=CARTESIAN_POINT('Ctrl Pts',(68.878153747927,332.047569615667,55.5084999999999));
#1065=CARTESIAN_POINT('Ctrl Pts',(68.878153747927,332.047569615667,53.4999999999999));
#1066=CARTESIAN_POINT('Ctrl Pts',(68.878153747927,332.047569615667,51.4914999999999));
#1067=CARTESIAN_POINT('Ctrl Pts',(68.878153747927,334.049115070212,51.4914999999999));
#1068=CARTESIAN_POINT('Ctrl Pts',(72.869653747927,334.049115070212,51.4914999999999));
#1069=CARTESIAN_POINT('Ctrl Pts',(72.869653747927,336.050660524758,51.4914999999999));
#1070=CARTESIAN_POINT('Ctrl Pts',(72.869653747927,336.050660524758,53.4999999999999));
#1071=CARTESIAN_POINT('Ctrl Pts',(72.869653747927,336.050660524758,55.5084999999999));
#1072=CARTESIAN_POINT('Ctrl Pts',(72.869653747927,334.049115070212,55.5084999999999));
#1073=CARTESIAN_POINT('Ctrl Pts',(72.869653747927,332.047569615667,55.5084999999999));
#1074=CARTESIAN_POINT('Ctrl Pts',(72.869653747927,332.047569615667,53.4999999999999));
#1075=CARTESIAN_POINT('Ctrl Pts',(72.869653747927,332.047569615667,51.4914999999999));
#1076=CARTESIAN_POINT('Ctrl Pts',(72.869653747927,334.049115070212,51.4914999999999));
#1077=CARTESIAN_POINT('',(68.878153747927,334.049115070212,51.4914999999999));
#1078=CARTESIAN_POINT('Origin',(68.878153747927,334.049115070212,53.4999999999999));
#1079=CARTESIAN_POINT('',(72.869653747927,334.049115070212,51.4914999999999));
#1080=CARTESIAN_POINT('',(83.886653747927,334.049115070212,51.4914999999999));
#1081=CARTESIAN_POINT('Origin',(72.869653747927,334.049115070212,53.4999999999999));
#1082=CARTESIAN_POINT('Origin',(72.869653747927,343.056069615667,55.9999999999999));
#1083=CARTESIAN_POINT('',(72.869653747927,328.056069615667,57.4999999999999));
#1084=CARTESIAN_POINT('',(72.869653747927,358.056069615667,57.4999999999999));
#1085=CARTESIAN_POINT('',(72.869653747927,343.056069615667,57.4999999999999));
#1086=CARTESIAN_POINT('',(72.869653747927,328.056069615667,44.9587414996401));
#1087=CARTESIAN_POINT('',(72.869653747927,328.056069615667,54.2499999999999));
#1088=CARTESIAN_POINT('',(72.869653747927,358.056069615667,44.9587414996401));
#1089=CARTESIAN_POINT('',(72.869653747927,328.047569615667,44.9587414996401));
#1090=CARTESIAN_POINT('',(72.869653747927,358.056069615667,54.2499999999999));
#1091=CARTESIAN_POINT('Origin',(76.886653747927,343.056069615667,55.9999999999999));
#1092=CARTESIAN_POINT('',(76.886653747927,328.056069615667,44.8275915670715));
#1093=CARTESIAN_POINT('',(76.886653747927,358.056069615667,44.8275915670715));
#1094=CARTESIAN_POINT('',(76.886653747927,328.047569615667,44.8275915670715));
#1095=CARTESIAN_POINT('',(76.886653747927,328.056069615667,57.4999999999999));
#1096=CARTESIAN_POINT('',(76.886653747927,328.056069615667,54.2499999999999));
#1097=CARTESIAN_POINT('',(76.886653747927,358.056069615667,57.4999999999999));
#1098=CARTESIAN_POINT('',(76.886653747927,343.056069615667,57.4999999999999));
#1099=CARTESIAN_POINT('',(76.886653747927,358.056069615667,54.2499999999999));
#1100=CARTESIAN_POINT('Origin',(78.878153747927,343.056069615667,57.4999999999999));
#1101=CARTESIAN_POINT('',(80.878153747927,328.056069615667,57.4999999999999));
#1102=CARTESIAN_POINT('',(78.878153747927,328.056069615667,57.4999999999999));
#1103=CARTESIAN_POINT('',(80.878153747927,358.056069615667,57.4999999999999));
#1104=CARTESIAN_POINT('',(80.878153747927,343.056069615667,57.4999999999999));
#1105=CARTESIAN_POINT('',(78.878153747927,358.056069615667,57.4999999999999));
#1106=CARTESIAN_POINT('Origin',(78.878153747927,328.056069615667,52.4999999999999));
#1107=CARTESIAN_POINT('',(68.878153747927,328.056069615667,57.4999999999999));
#1108=CARTESIAN_POINT('',(70.878153747927,328.056069615667,57.4999999999999));
#1109=CARTESIAN_POINT('',(68.878153747927,328.056069615667,52.4999999999999));
#1110=CARTESIAN_POINT('',(74.253153747927,328.056069615667,47.9999999999999));
#1111=CARTESIAN_POINT('',(41.503153747927,328.056069615667,-7.31216502476817E-14));
#1112=CARTESIAN_POINT('',(41.503153747927,328.056069615667,2.49999999999993));
#1113=CARTESIAN_POINT('',(107.003153747927,328.056069615667,-7.31216502476817E-14));
#1114=CARTESIAN_POINT('',(74.253153747927,328.056069615667,-7.31216502476817E-14));
#1115=CARTESIAN_POINT('',(107.003153747927,328.056069615667,2.49999999999993));
#1116=CARTESIAN_POINT('',(101.753153747927,328.056069615667,-6.69371839119875E-14));
#1117=CARTESIAN_POINT('',(80.878153747927,328.056069615667,52.4999999999999));
#1118=CARTESIAN_POINT('Origin',(74.253153747927,328.056069615667,25.7499999999999));
#1119=CARTESIAN_POINT('Origin',(74.253153747927,328.047569615667,25.7499999999999));
#1120=CARTESIAN_POINT('Origin',(74.253153747927,358.056069615667,25.7499999999999));
#1121=CARTESIAN_POINT('Origin',(45.878153747927,352.056069615667,-0.00850000000007794));
#1122=CARTESIAN_POINT('',(43.869653747927,352.056069615667,-7.83331732812087E-14));
#1123=CARTESIAN_POINT('Origin',(45.878153747927,352.056069615667,-7.83331732812087E-14));
#1124=CARTESIAN_POINT('',(43.869653747927,352.056069615667,-0.00850000000007794));
#1125=CARTESIAN_POINT('Origin',(102.878153747927,352.056069615667,-0.00850000000008039));
#1126=CARTESIAN_POINT('',(100.869653747927,352.056069615667,-7.83331732812087E-14));
#1127=CARTESIAN_POINT('Origin',(102.878153747927,352.056069615667,-7.83331732812087E-14));
#1128=CARTESIAN_POINT('',(100.869653747927,352.056069615667,-0.00850000000008039));
#1129=CARTESIAN_POINT('Origin',(102.878153747927,334.056069615667,-0.00850000000007683));
#1130=CARTESIAN_POINT('',(100.869653747927,334.056069615667,-7.49036249692026E-14));
#1131=CARTESIAN_POINT('Origin',(102.878153747927,334.056069615667,-7.49036249692026E-14));
#1132=CARTESIAN_POINT('',(100.869653747927,334.056069615667,-0.00850000000007683));
#1133=CARTESIAN_POINT('Origin',(45.878153747927,334.056069615667,-0.00850000000007439));
#1134=CARTESIAN_POINT('',(43.869653747927,334.056069615667,-7.49036249692026E-14));
#1135=CARTESIAN_POINT('Origin',(45.878153747927,334.056069615667,-7.49036249692026E-14));
#1136=CARTESIAN_POINT('',(43.869653747927,334.056069615667,-0.00850000000007439));
#1137=CARTESIAN_POINT('Origin',(101.753153747927,358.056069615667,-7.94768266956458E-14));
#1138=CARTESIAN_POINT('',(101.753153747927,358.056069615667,-7.94768266956458E-14));
#1139=CARTESIAN_POINT('Origin',(41.503153747927,343.056069615667,2.49999999999992));
#1140=CARTESIAN_POINT('',(41.503153747927,358.056069615667,-8.00891500952194E-14));
#1141=CARTESIAN_POINT('',(41.503153747927,358.056069615667,2.49999999999992));
#1142=CARTESIAN_POINT('',(41.503153747927,343.056069615667,-7.66054001714505E-14));
#1143=CARTESIAN_POINT('Origin',(107.003153747927,343.056069615667,2.49999999999992));
#1144=CARTESIAN_POINT('',(107.003153747927,358.056069615667,-8.00891500952194E-14));
#1145=CARTESIAN_POINT('',(107.003153747927,343.056069615667,-7.66054001714505E-14));
#1146=CARTESIAN_POINT('',(107.003153747927,358.056069615667,2.49999999999992));
#1147=CARTESIAN_POINT('Origin',(46.753153747927,358.056069615667,-7.94768266956458E-14));
#1148=CARTESIAN_POINT('',(46.753153747927,358.056069615667,-7.94768266956458E-14));
#1149=CARTESIAN_POINT('Origin',(74.253153747927,358.056069615667,47.9999999999999));
#1150=CARTESIAN_POINT('',(74.253153747927,358.056069615667,47.9999999999999));
#1151=CARTESIAN_POINT('Origin',(68.878153747927,343.056069615667,52.4999999999999));
#1152=CARTESIAN_POINT('',(68.878153747927,358.056069615667,57.4999999999999));
#1153=CARTESIAN_POINT('',(68.878153747927,343.056069615667,57.4999999999999));
#1154=CARTESIAN_POINT('',(68.878153747927,358.056069615667,52.4999999999999));
#1155=CARTESIAN_POINT('Origin',(70.878153747927,343.056069615667,57.4999999999999));
#1156=CARTESIAN_POINT('',(70.878153747927,358.056069615667,57.4999999999999));
#1157=CARTESIAN_POINT('Origin',(78.878153747927,358.056069615667,52.4999999999999));
#1158=CARTESIAN_POINT('',(80.878153747927,358.056069615667,52.4999999999999));
#1159=CARTESIAN_POINT('Origin',(80.878153747927,343.056069615667,52.4999999999999));
#1160=UNCERTAINTY_MEASURE_WITH_UNIT(LENGTH_MEASURE(0.01),#1164,
'DISTANCE_ACCURACY_VALUE',
'Maximum model space distance between geometric entities at asserted c
onnectivities');
#1161=UNCERTAINTY_MEASURE_WITH_UNIT(LENGTH_MEASURE(0.01),#1164,
'DISTANCE_ACCURACY_VALUE',
'Maximum model space distance between geometric entities at asserted c
onnectivities');
#1162=(
GEOMETRIC_REPRESENTATION_CONTEXT(3)
GLOBAL_UNCERTAINTY_ASSIGNED_CONTEXT((#1160))
GLOBAL_UNIT_ASSIGNED_CONTEXT((#1164,#1166,#1167))
REPRESENTATION_CONTEXT('','3D')
);
#1163=(
GEOMETRIC_REPRESENTATION_CONTEXT(3)
GLOBAL_UNCERTAINTY_ASSIGNED_CONTEXT((#1161))
GLOBAL_UNIT_ASSIGNED_CONTEXT((#1164,#1166,#1167))
REPRESENTATION_CONTEXT('','3D')
);
#1164=(
LENGTH_UNIT()
NAMED_UNIT(*)
SI_UNIT(.MILLI.,.METRE.)
);
#1165=(
LENGTH_UNIT()
NAMED_UNIT(*)
SI_UNIT($,.METRE.)
);
#1166=(
NAMED_UNIT(*)
PLANE_ANGLE_UNIT()
SI_UNIT($,.RADIAN.)
);
#1167=(
NAMED_UNIT(*)
SI_UNIT($,.STERADIAN.)
SOLID_ANGLE_UNIT()
);
#1168=SHAPE_DEFINITION_REPRESENTATION(#1169,#1170);
#1169=PRODUCT_DEFINITION_SHAPE('',$,#1172);
#1170=SHAPE_REPRESENTATION('',(#664),#1162);
#1171=PRODUCT_DEFINITION_CONTEXT('part definition',#1176,'design');
#1172=PRODUCT_DEFINITION('Suporte_motor','Suporte_motor v7',#1173,#1171);
#1173=PRODUCT_DEFINITION_FORMATION('',$,#1178);
#1174=PRODUCT_RELATED_PRODUCT_CATEGORY('Suporte_motor v7',
'Suporte_motor v7',(#1178));
#1175=APPLICATION_PROTOCOL_DEFINITION('international standard',
'automotive_design',2009,#1176);
#1176=APPLICATION_CONTEXT(
'Core Data for Automotive Mechanical Design Process');
#1177=PRODUCT_CONTEXT('part definition',#1176,'mechanical');
#1178=PRODUCT('Suporte_motor','Suporte_motor v7',$,(#1177));
#1179=PRESENTATION_STYLE_ASSIGNMENT((#1180));
#1180=SURFACE_STYLE_USAGE(.BOTH.,#1181);
#1181=SURFACE_SIDE_STYLE('',(#1182));
#1182=SURFACE_STYLE_FILL_AREA(#1183);
#1183=FILL_AREA_STYLE('Pintura - Esmalte com brilho (Amarelo)',(#1184));
#1184=FILL_AREA_STYLE_COLOUR('Pintura - Esmalte com brilho (Amarelo)',#1185);
#1185=COLOUR_RGB('Pintura - Esmalte com brilho (Amarelo)',0.909803921568627,
0.67843137254902,0.137254901960784);
ENDSEC;
END-ISO-10303-21;
