ISO-10303-21;
HEADER;
/* Generated by software containing ST-Developer
 * from STEP Tools, Inc. (www.steptools.com) 
 */

FILE_DESCRIPTION(
/* description */ (''),
/* implementation_level */ '2;1');

FILE_NAME(
/* name */ 'SuporteFonte.step',
/* time_stamp */ '2026-04-01T20:35:00-03:00',
/* author */ (''),
/* organization */ (''),
/* preprocessor_version */ 'ST-DEVELOPER v20.1',
/* originating_system */ 'Autodesk Translation Framework v14.24.0.0',
/* authorisation */ '');

FILE_SCHEMA (('AUTOMOTIVE_DESIGN { 1 0 10303 214 3 1 1 }'));
ENDSEC;

DATA;
#10=MECHANICAL_DESIGN_GEOMETRIC_PRESENTATION_REPRESENTATION('',(#13),#630);
#11=SHAPE_REPRESENTATION_RELATIONSHIP('SRR','None',#637,#12);
#12=ADVANCED_BREP_SHAPE_REPRESENTATION('',(#14),#629);
#13=STYLED_ITEM('',(#646),#14);
#14=MANIFOLD_SOLID_BREP('Corpo1',#378);
#15=FACE_BOUND('',#61,.T.);
#16=FACE_BOUND('',#67,.T.);
#17=FACE_BOUND('',#70,.T.);
#18=FACE_BOUND('',#72,.T.);
#19=CIRCLE('',#394,1.);
#20=CIRCLE('',#395,1.);
#21=CIRCLE('',#398,1.);
#22=CIRCLE('',#399,1.);
#23=CIRCLE('',#402,3.);
#24=CIRCLE('',#403,3.);
#25=CIRCLE('',#406,2.5);
#26=CIRCLE('',#410,2.5);
#27=CIRCLE('',#411,2.5);
#28=CIRCLE('',#415,2.5);
#29=CYLINDRICAL_SURFACE('',#393,1.);
#30=CYLINDRICAL_SURFACE('',#397,1.);
#31=CYLINDRICAL_SURFACE('',#401,3.);
#32=CYLINDRICAL_SURFACE('',#409,2.5);
#33=CYLINDRICAL_SURFACE('',#414,2.5);
#34=FACE_OUTER_BOUND('',#53,.T.);
#35=FACE_OUTER_BOUND('',#54,.T.);
#36=FACE_OUTER_BOUND('',#55,.T.);
#37=FACE_OUTER_BOUND('',#56,.T.);
#38=FACE_OUTER_BOUND('',#57,.T.);
#39=FACE_OUTER_BOUND('',#58,.T.);
#40=FACE_OUTER_BOUND('',#59,.T.);
#41=FACE_OUTER_BOUND('',#60,.T.);
#42=FACE_OUTER_BOUND('',#62,.T.);
#43=FACE_OUTER_BOUND('',#63,.T.);
#44=FACE_OUTER_BOUND('',#64,.T.);
#45=FACE_OUTER_BOUND('',#65,.T.);
#46=FACE_OUTER_BOUND('',#66,.T.);
#47=FACE_OUTER_BOUND('',#68,.T.);
#48=FACE_OUTER_BOUND('',#69,.T.);
#49=FACE_OUTER_BOUND('',#71,.T.);
#50=FACE_OUTER_BOUND('',#73,.T.);
#51=FACE_OUTER_BOUND('',#74,.T.);
#52=FACE_OUTER_BOUND('',#75,.T.);
#53=EDGE_LOOP('',(#243,#244,#245,#246));
#54=EDGE_LOOP('',(#247,#248,#249,#250));
#55=EDGE_LOOP('',(#251,#252,#253,#254));
#56=EDGE_LOOP('',(#255,#256,#257,#258));
#57=EDGE_LOOP('',(#259,#260,#261,#262));
#58=EDGE_LOOP('',(#263,#264,#265,#266));
#59=EDGE_LOOP('',(#267,#268,#269,#270,#271,#272,#273,#274,#275,#276,#277,
#278,#279,#280,#281));
#60=EDGE_LOOP('',(#282,#283,#284,#285));
#61=EDGE_LOOP('',(#286));
#62=EDGE_LOOP('',(#287,#288,#289,#290));
#63=EDGE_LOOP('',(#291,#292,#293,#294));
#64=EDGE_LOOP('',(#295,#296,#297,#298));
#65=EDGE_LOOP('',(#299,#300,#301,#302,#303,#304,#305,#306,#307,#308,#309,
#310,#311,#312,#313));
#66=EDGE_LOOP('',(#314,#315,#316,#317));
#67=EDGE_LOOP('',(#318));
#68=EDGE_LOOP('',(#319,#320,#321,#322));
#69=EDGE_LOOP('',(#323,#324,#325,#326));
#70=EDGE_LOOP('',(#327));
#71=EDGE_LOOP('',(#328,#329,#330,#331));
#72=EDGE_LOOP('',(#332));
#73=EDGE_LOOP('',(#333,#334,#335,#336));
#74=EDGE_LOOP('',(#337,#338,#339,#340));
#75=EDGE_LOOP('',(#341,#342,#343,#344));
#76=LINE('',#526,#117);
#77=LINE('',#528,#118);
#78=LINE('',#530,#119);
#79=LINE('',#531,#120);
#80=LINE('',#537,#121);
#81=LINE('',#540,#122);
#82=LINE('',#543,#123);
#83=LINE('',#545,#124);
#84=LINE('',#546,#125);
#85=LINE('',#552,#126);
#86=LINE('',#555,#127);
#87=LINE('',#557,#128);
#88=LINE('',#558,#129);
#89=LINE('',#564,#130);
#90=LINE('',#567,#131);
#91=LINE('',#570,#132);
#92=LINE('',#572,#133);
#93=LINE('',#574,#134);
#94=LINE('',#576,#135);
#95=LINE('',#578,#136);
#96=LINE('',#579,#137);
#97=LINE('',#581,#138);
#98=LINE('',#582,#139);
#99=LINE('',#583,#140);
#100=LINE('',#586,#141);
#101=LINE('',#587,#142);
#102=LINE('',#592,#143);
#103=LINE('',#593,#144);
#104=LINE('',#595,#145);
#105=LINE('',#600,#146);
#106=LINE('',#603,#147);
#107=LINE('',#605,#148);
#108=LINE('',#607,#149);
#109=LINE('',#609,#150);
#110=LINE('',#611,#151);
#111=LINE('',#612,#152);
#112=LINE('',#617,#153);
#113=LINE('',#619,#154);
#114=LINE('',#620,#155);
#115=LINE('',#623,#156);
#116=LINE('',#625,#157);
#117=VECTOR('',#425,10.);
#118=VECTOR('',#426,10.);
#119=VECTOR('',#427,10.);
#120=VECTOR('',#428,10.);
#121=VECTOR('',#433,10.);
#122=VECTOR('',#436,10.);
#123=VECTOR('',#439,10.);
#124=VECTOR('',#440,10.);
#125=VECTOR('',#441,10.);
#126=VECTOR('',#446,10.);
#127=VECTOR('',#449,10.);
#128=VECTOR('',#452,10.);
#129=VECTOR('',#453,10.);
#130=VECTOR('',#458,10.);
#131=VECTOR('',#461,10.);
#132=VECTOR('',#464,10.);
#133=VECTOR('',#465,10.);
#134=VECTOR('',#466,10.);
#135=VECTOR('',#467,10.);
#136=VECTOR('',#468,10.);
#137=VECTOR('',#469,10.);
#138=VECTOR('',#470,10.);
#139=VECTOR('',#471,10.);
#140=VECTOR('',#472,10.);
#141=VECTOR('',#475,10.);
#142=VECTOR('',#476,10.);
#143=VECTOR('',#481,10.);
#144=VECTOR('',#482,10.);
#145=VECTOR('',#485,10.);
#146=VECTOR('',#490,2.5);
#147=VECTOR('',#495,10.);
#148=VECTOR('',#496,10.);
#149=VECTOR('',#497,10.);
#150=VECTOR('',#498,10.);
#151=VECTOR('',#499,10.);
#152=VECTOR('',#500,10.);
#153=VECTOR('',#507,2.5);
#154=VECTOR('',#510,10.);
#155=VECTOR('',#511,10.);
#156=VECTOR('',#516,10.);
#157=VECTOR('',#519,10.);
#158=VERTEX_POINT('',#524);
#159=VERTEX_POINT('',#525);
#160=VERTEX_POINT('',#527);
#161=VERTEX_POINT('',#529);
#162=VERTEX_POINT('',#533);
#163=VERTEX_POINT('',#534);
#164=VERTEX_POINT('',#536);
#165=VERTEX_POINT('',#538);
#166=VERTEX_POINT('',#542);
#167=VERTEX_POINT('',#544);
#168=VERTEX_POINT('',#548);
#169=VERTEX_POINT('',#549);
#170=VERTEX_POINT('',#551);
#171=VERTEX_POINT('',#553);
#172=VERTEX_POINT('',#560);
#173=VERTEX_POINT('',#561);
#174=VERTEX_POINT('',#563);
#175=VERTEX_POINT('',#565);
#176=VERTEX_POINT('',#569);
#177=VERTEX_POINT('',#571);
#178=VERTEX_POINT('',#573);
#179=VERTEX_POINT('',#575);
#180=VERTEX_POINT('',#577);
#181=VERTEX_POINT('',#580);
#182=VERTEX_POINT('',#585);
#183=VERTEX_POINT('',#588);
#184=VERTEX_POINT('',#591);
#185=VERTEX_POINT('',#597);
#186=VERTEX_POINT('',#599);
#187=VERTEX_POINT('',#604);
#188=VERTEX_POINT('',#606);
#189=VERTEX_POINT('',#608);
#190=VERTEX_POINT('',#610);
#191=VERTEX_POINT('',#615);
#192=EDGE_CURVE('',#158,#159,#76,.T.);
#193=EDGE_CURVE('',#159,#160,#77,.T.);
#194=EDGE_CURVE('',#160,#161,#78,.T.);
#195=EDGE_CURVE('',#161,#158,#79,.T.);
#196=EDGE_CURVE('',#162,#163,#19,.T.);
#197=EDGE_CURVE('',#163,#164,#80,.T.);
#198=EDGE_CURVE('',#164,#165,#20,.T.);
#199=EDGE_CURVE('',#165,#162,#81,.T.);
#200=EDGE_CURVE('',#163,#166,#82,.T.);
#201=EDGE_CURVE('',#167,#166,#83,.T.);
#202=EDGE_CURVE('',#164,#167,#84,.T.);
#203=EDGE_CURVE('',#168,#169,#21,.T.);
#204=EDGE_CURVE('',#169,#170,#85,.T.);
#205=EDGE_CURVE('',#170,#171,#22,.T.);
#206=EDGE_CURVE('',#171,#168,#86,.T.);
#207=EDGE_CURVE('',#170,#165,#87,.T.);
#208=EDGE_CURVE('',#169,#162,#88,.T.);
#209=EDGE_CURVE('',#172,#173,#23,.T.);
#210=EDGE_CURVE('',#173,#174,#89,.T.);
#211=EDGE_CURVE('',#174,#175,#24,.T.);
#212=EDGE_CURVE('',#175,#172,#90,.T.);
#213=EDGE_CURVE('',#176,#174,#91,.T.);
#214=EDGE_CURVE('',#176,#177,#92,.T.);
#215=EDGE_CURVE('',#178,#177,#93,.T.);
#216=EDGE_CURVE('',#179,#178,#94,.T.);
#217=EDGE_CURVE('',#180,#179,#95,.T.);
#218=EDGE_CURVE('',#180,#159,#96,.T.);
#219=EDGE_CURVE('',#158,#181,#97,.T.);
#220=EDGE_CURVE('',#166,#181,#98,.T.);
#221=EDGE_CURVE('',#175,#168,#99,.T.);
#222=EDGE_CURVE('',#173,#182,#100,.T.);
#223=EDGE_CURVE('',#182,#176,#101,.T.);
#224=EDGE_CURVE('',#183,#183,#25,.T.);
#225=EDGE_CURVE('',#181,#184,#102,.T.);
#226=EDGE_CURVE('',#184,#167,#103,.T.);
#227=EDGE_CURVE('',#184,#161,#104,.T.);
#228=EDGE_CURVE('',#185,#185,#26,.T.);
#229=EDGE_CURVE('',#185,#186,#105,.T.);
#230=EDGE_CURVE('',#186,#186,#27,.T.);
#231=EDGE_CURVE('',#172,#171,#106,.T.);
#232=EDGE_CURVE('',#187,#160,#107,.T.);
#233=EDGE_CURVE('',#188,#187,#108,.T.);
#234=EDGE_CURVE('',#188,#189,#109,.T.);
#235=EDGE_CURVE('',#190,#189,#110,.T.);
#236=EDGE_CURVE('',#182,#190,#111,.T.);
#237=EDGE_CURVE('',#191,#191,#28,.T.);
#238=EDGE_CURVE('',#191,#183,#112,.T.);
#239=EDGE_CURVE('',#188,#179,#113,.T.);
#240=EDGE_CURVE('',#180,#187,#114,.T.);
#241=EDGE_CURVE('',#189,#178,#115,.T.);
#242=EDGE_CURVE('',#177,#190,#116,.T.);
#243=ORIENTED_EDGE('',*,*,#192,.T.);
#244=ORIENTED_EDGE('',*,*,#193,.T.);
#245=ORIENTED_EDGE('',*,*,#194,.T.);
#246=ORIENTED_EDGE('',*,*,#195,.T.);
#247=ORIENTED_EDGE('',*,*,#196,.T.);
#248=ORIENTED_EDGE('',*,*,#197,.T.);
#249=ORIENTED_EDGE('',*,*,#198,.T.);
#250=ORIENTED_EDGE('',*,*,#199,.T.);
#251=ORIENTED_EDGE('',*,*,#197,.F.);
#252=ORIENTED_EDGE('',*,*,#200,.T.);
#253=ORIENTED_EDGE('',*,*,#201,.F.);
#254=ORIENTED_EDGE('',*,*,#202,.F.);
#255=ORIENTED_EDGE('',*,*,#203,.T.);
#256=ORIENTED_EDGE('',*,*,#204,.T.);
#257=ORIENTED_EDGE('',*,*,#205,.T.);
#258=ORIENTED_EDGE('',*,*,#206,.T.);
#259=ORIENTED_EDGE('',*,*,#199,.F.);
#260=ORIENTED_EDGE('',*,*,#207,.F.);
#261=ORIENTED_EDGE('',*,*,#204,.F.);
#262=ORIENTED_EDGE('',*,*,#208,.T.);
#263=ORIENTED_EDGE('',*,*,#209,.T.);
#264=ORIENTED_EDGE('',*,*,#210,.T.);
#265=ORIENTED_EDGE('',*,*,#211,.T.);
#266=ORIENTED_EDGE('',*,*,#212,.T.);
#267=ORIENTED_EDGE('',*,*,#211,.F.);
#268=ORIENTED_EDGE('',*,*,#213,.F.);
#269=ORIENTED_EDGE('',*,*,#214,.T.);
#270=ORIENTED_EDGE('',*,*,#215,.F.);
#271=ORIENTED_EDGE('',*,*,#216,.F.);
#272=ORIENTED_EDGE('',*,*,#217,.F.);
#273=ORIENTED_EDGE('',*,*,#218,.T.);
#274=ORIENTED_EDGE('',*,*,#192,.F.);
#275=ORIENTED_EDGE('',*,*,#219,.T.);
#276=ORIENTED_EDGE('',*,*,#220,.F.);
#277=ORIENTED_EDGE('',*,*,#200,.F.);
#278=ORIENTED_EDGE('',*,*,#196,.F.);
#279=ORIENTED_EDGE('',*,*,#208,.F.);
#280=ORIENTED_EDGE('',*,*,#203,.F.);
#281=ORIENTED_EDGE('',*,*,#221,.F.);
#282=ORIENTED_EDGE('',*,*,#210,.F.);
#283=ORIENTED_EDGE('',*,*,#222,.T.);
#284=ORIENTED_EDGE('',*,*,#223,.T.);
#285=ORIENTED_EDGE('',*,*,#213,.T.);
#286=ORIENTED_EDGE('',*,*,#224,.T.);
#287=ORIENTED_EDGE('',*,*,#225,.T.);
#288=ORIENTED_EDGE('',*,*,#226,.T.);
#289=ORIENTED_EDGE('',*,*,#201,.T.);
#290=ORIENTED_EDGE('',*,*,#220,.T.);
#291=ORIENTED_EDGE('',*,*,#219,.F.);
#292=ORIENTED_EDGE('',*,*,#195,.F.);
#293=ORIENTED_EDGE('',*,*,#227,.F.);
#294=ORIENTED_EDGE('',*,*,#225,.F.);
#295=ORIENTED_EDGE('',*,*,#228,.F.);
#296=ORIENTED_EDGE('',*,*,#229,.T.);
#297=ORIENTED_EDGE('',*,*,#230,.F.);
#298=ORIENTED_EDGE('',*,*,#229,.F.);
#299=ORIENTED_EDGE('',*,*,#209,.F.);
#300=ORIENTED_EDGE('',*,*,#231,.T.);
#301=ORIENTED_EDGE('',*,*,#205,.F.);
#302=ORIENTED_EDGE('',*,*,#207,.T.);
#303=ORIENTED_EDGE('',*,*,#198,.F.);
#304=ORIENTED_EDGE('',*,*,#202,.T.);
#305=ORIENTED_EDGE('',*,*,#226,.F.);
#306=ORIENTED_EDGE('',*,*,#227,.T.);
#307=ORIENTED_EDGE('',*,*,#194,.F.);
#308=ORIENTED_EDGE('',*,*,#232,.F.);
#309=ORIENTED_EDGE('',*,*,#233,.F.);
#310=ORIENTED_EDGE('',*,*,#234,.T.);
#311=ORIENTED_EDGE('',*,*,#235,.F.);
#312=ORIENTED_EDGE('',*,*,#236,.F.);
#313=ORIENTED_EDGE('',*,*,#222,.F.);
#314=ORIENTED_EDGE('',*,*,#206,.F.);
#315=ORIENTED_EDGE('',*,*,#231,.F.);
#316=ORIENTED_EDGE('',*,*,#212,.F.);
#317=ORIENTED_EDGE('',*,*,#221,.T.);
#318=ORIENTED_EDGE('',*,*,#230,.T.);
#319=ORIENTED_EDGE('',*,*,#237,.F.);
#320=ORIENTED_EDGE('',*,*,#238,.T.);
#321=ORIENTED_EDGE('',*,*,#224,.F.);
#322=ORIENTED_EDGE('',*,*,#238,.F.);
#323=ORIENTED_EDGE('',*,*,#217,.T.);
#324=ORIENTED_EDGE('',*,*,#239,.F.);
#325=ORIENTED_EDGE('',*,*,#233,.T.);
#326=ORIENTED_EDGE('',*,*,#240,.F.);
#327=ORIENTED_EDGE('',*,*,#237,.T.);
#328=ORIENTED_EDGE('',*,*,#240,.T.);
#329=ORIENTED_EDGE('',*,*,#232,.T.);
#330=ORIENTED_EDGE('',*,*,#193,.F.);
#331=ORIENTED_EDGE('',*,*,#218,.F.);
#332=ORIENTED_EDGE('',*,*,#228,.T.);
#333=ORIENTED_EDGE('',*,*,#239,.T.);
#334=ORIENTED_EDGE('',*,*,#216,.T.);
#335=ORIENTED_EDGE('',*,*,#241,.F.);
#336=ORIENTED_EDGE('',*,*,#234,.F.);
#337=ORIENTED_EDGE('',*,*,#236,.T.);
#338=ORIENTED_EDGE('',*,*,#242,.F.);
#339=ORIENTED_EDGE('',*,*,#214,.F.);
#340=ORIENTED_EDGE('',*,*,#223,.F.);
#341=ORIENTED_EDGE('',*,*,#241,.T.);
#342=ORIENTED_EDGE('',*,*,#215,.T.);
#343=ORIENTED_EDGE('',*,*,#242,.T.);
#344=ORIENTED_EDGE('',*,*,#235,.T.);
#345=PLANE('',#392);
#346=PLANE('',#396);
#347=PLANE('',#400);
#348=PLANE('',#404);
#349=PLANE('',#405);
#350=PLANE('',#407);
#351=PLANE('',#408);
#352=PLANE('',#412);
#353=PLANE('',#413);
#354=PLANE('',#416);
#355=PLANE('',#417);
#356=PLANE('',#418);
#357=PLANE('',#419);
#358=PLANE('',#420);
#359=ADVANCED_FACE('',(#34),#345,.T.);
#360=ADVANCED_FACE('',(#35),#29,.F.);
#361=ADVANCED_FACE('',(#36),#346,.T.);
#362=ADVANCED_FACE('',(#37),#30,.F.);
#363=ADVANCED_FACE('',(#38),#347,.T.);
#364=ADVANCED_FACE('',(#39),#31,.T.);
#365=ADVANCED_FACE('',(#40),#348,.T.);
#366=ADVANCED_FACE('',(#41,#15),#349,.F.);
#367=ADVANCED_FACE('',(#42),#350,.T.);
#368=ADVANCED_FACE('',(#43),#351,.T.);
#369=ADVANCED_FACE('',(#44),#32,.F.);
#370=ADVANCED_FACE('',(#45),#352,.T.);
#371=ADVANCED_FACE('',(#46,#16),#353,.T.);
#372=ADVANCED_FACE('',(#47),#33,.F.);
#373=ADVANCED_FACE('',(#48,#17),#354,.T.);
#374=ADVANCED_FACE('',(#49,#18),#355,.T.);
#375=ADVANCED_FACE('',(#50),#356,.T.);
#376=ADVANCED_FACE('',(#51),#357,.T.);
#377=ADVANCED_FACE('',(#52),#358,.T.);
#378=CLOSED_SHELL('',(#359,#360,#361,#362,#363,#364,#365,#366,#367,#368,
#369,#370,#371,#372,#373,#374,#375,#376,#377));
#379=DERIVED_UNIT_ELEMENT(#381,1.);
#380=DERIVED_UNIT_ELEMENT(#632,-3.);
#381=(
MASS_UNIT()
NAMED_UNIT(*)
SI_UNIT(.KILO.,.GRAM.)
);
#382=DERIVED_UNIT((#379,#380));
#383=MEASURE_REPRESENTATION_ITEM('density measure',
POSITIVE_RATIO_MEASURE(7850.),#382);
#384=PROPERTY_DEFINITION_REPRESENTATION(#389,#386);
#385=PROPERTY_DEFINITION_REPRESENTATION(#390,#387);
#386=REPRESENTATION('material name',(#388),#629);
#387=REPRESENTATION('density',(#383),#629);
#388=DESCRIPTIVE_REPRESENTATION_ITEM('A\X\E7o','A\X\E7o');
#389=PROPERTY_DEFINITION('material property','material name',#639);
#390=PROPERTY_DEFINITION('material property','density of part',#639);
#391=AXIS2_PLACEMENT_3D('',#522,#421,#422);
#392=AXIS2_PLACEMENT_3D('',#523,#423,#424);
#393=AXIS2_PLACEMENT_3D('',#532,#429,#430);
#394=AXIS2_PLACEMENT_3D('',#535,#431,#432);
#395=AXIS2_PLACEMENT_3D('',#539,#434,#435);
#396=AXIS2_PLACEMENT_3D('',#541,#437,#438);
#397=AXIS2_PLACEMENT_3D('',#547,#442,#443);
#398=AXIS2_PLACEMENT_3D('',#550,#444,#445);
#399=AXIS2_PLACEMENT_3D('',#554,#447,#448);
#400=AXIS2_PLACEMENT_3D('',#556,#450,#451);
#401=AXIS2_PLACEMENT_3D('',#559,#454,#455);
#402=AXIS2_PLACEMENT_3D('',#562,#456,#457);
#403=AXIS2_PLACEMENT_3D('',#566,#459,#460);
#404=AXIS2_PLACEMENT_3D('',#568,#462,#463);
#405=AXIS2_PLACEMENT_3D('',#584,#473,#474);
#406=AXIS2_PLACEMENT_3D('',#589,#477,#478);
#407=AXIS2_PLACEMENT_3D('',#590,#479,#480);
#408=AXIS2_PLACEMENT_3D('',#594,#483,#484);
#409=AXIS2_PLACEMENT_3D('',#596,#486,#487);
#410=AXIS2_PLACEMENT_3D('',#598,#488,#489);
#411=AXIS2_PLACEMENT_3D('',#601,#491,#492);
#412=AXIS2_PLACEMENT_3D('',#602,#493,#494);
#413=AXIS2_PLACEMENT_3D('',#613,#501,#502);
#414=AXIS2_PLACEMENT_3D('',#614,#503,#504);
#415=AXIS2_PLACEMENT_3D('',#616,#505,#506);
#416=AXIS2_PLACEMENT_3D('',#618,#508,#509);
#417=AXIS2_PLACEMENT_3D('',#621,#512,#513);
#418=AXIS2_PLACEMENT_3D('',#622,#514,#515);
#419=AXIS2_PLACEMENT_3D('',#624,#517,#518);
#420=AXIS2_PLACEMENT_3D('',#626,#520,#521);
#421=DIRECTION('axis',(0.,0.,1.));
#422=DIRECTION('refdir',(1.,0.,0.));
#423=DIRECTION('center_axis',(0.,1.,0.));
#424=DIRECTION('ref_axis',(0.,0.,1.));
#425=DIRECTION('',(0.,0.,1.));
#426=DIRECTION('',(1.,0.,0.));
#427=DIRECTION('',(0.,0.,-1.));
#428=DIRECTION('',(-1.,0.,0.));
#429=DIRECTION('center_axis',(1.,0.,0.));
#430=DIRECTION('ref_axis',(0.,0.707106781186548,-0.707106781186548));
#431=DIRECTION('center_axis',(-1.,0.,0.));
#432=DIRECTION('ref_axis',(0.,0.707106781186548,-0.707106781186548));
#433=DIRECTION('',(1.,0.,0.));
#434=DIRECTION('center_axis',(1.,0.,-1.15555796663234E-32));
#435=DIRECTION('ref_axis',(0.,0.707106781186548,-0.707106781186548));
#436=DIRECTION('',(-1.,0.,0.));
#437=DIRECTION('center_axis',(0.,0.,1.));
#438=DIRECTION('ref_axis',(-1.,0.,0.));
#439=DIRECTION('',(0.,-1.,0.));
#440=DIRECTION('',(-1.,0.,0.));
#441=DIRECTION('',(0.,-1.,0.));
#442=DIRECTION('center_axis',(1.,0.,0.));
#443=DIRECTION('ref_axis',(0.,0.707106781186549,0.707106781186546));
#444=DIRECTION('center_axis',(-1.,0.,0.));
#445=DIRECTION('ref_axis',(0.,0.707106781186549,0.707106781186546));
#446=DIRECTION('',(1.,0.,0.));
#447=DIRECTION('center_axis',(1.,0.,-1.15555796663234E-32));
#448=DIRECTION('ref_axis',(0.,0.707106781186549,0.707106781186546));
#449=DIRECTION('',(-1.,0.,0.));
#450=DIRECTION('center_axis',(0.,-1.,0.));
#451=DIRECTION('ref_axis',(-1.,0.,0.));
#452=DIRECTION('',(0.,0.,-1.));
#453=DIRECTION('',(0.,0.,-1.));
#454=DIRECTION('center_axis',(1.,0.,0.));
#455=DIRECTION('ref_axis',(0.,-0.707106781186548,-0.707106781186548));
#456=DIRECTION('center_axis',(-1.,0.,1.15555796663234E-32));
#457=DIRECTION('ref_axis',(0.,-0.707106781186548,-0.707106781186548));
#458=DIRECTION('',(-1.,0.,0.));
#459=DIRECTION('center_axis',(1.,0.,0.));
#460=DIRECTION('ref_axis',(0.,-0.707106781186548,-0.707106781186548));
#461=DIRECTION('',(1.,0.,0.));
#462=DIRECTION('center_axis',(-1.,0.,0.));
#463=DIRECTION('ref_axis',(0.,0.,1.));
#464=DIRECTION('',(0.,0.,-1.));
#465=DIRECTION('',(0.,1.,0.));
#466=DIRECTION('',(0.,0.,1.));
#467=DIRECTION('',(0.,1.,0.));
#468=DIRECTION('',(0.,0.,1.));
#469=DIRECTION('',(0.,1.,0.));
#470=DIRECTION('',(0.,-1.,0.));
#471=DIRECTION('',(0.,0.,-1.));
#472=DIRECTION('',(0.,1.,0.));
#473=DIRECTION('center_axis',(0.,1.,0.));
#474=DIRECTION('ref_axis',(1.,0.,0.));
#475=DIRECTION('',(1.15555796663234E-32,0.,1.));
#476=DIRECTION('',(-1.,0.,0.));
#477=DIRECTION('center_axis',(0.,1.,0.));
#478=DIRECTION('ref_axis',(1.,0.,0.));
#479=DIRECTION('center_axis',(0.,-1.,0.));
#480=DIRECTION('ref_axis',(0.,0.,-1.));
#481=DIRECTION('',(1.,0.,0.));
#482=DIRECTION('',(0.,0.,1.));
#483=DIRECTION('center_axis',(0.,0.,-1.));
#484=DIRECTION('ref_axis',(-1.,0.,0.));
#485=DIRECTION('',(0.,1.,0.));
#486=DIRECTION('center_axis',(0.,0.,-1.));
#487=DIRECTION('ref_axis',(-1.,0.,0.));
#488=DIRECTION('center_axis',(0.,0.,-1.));
#489=DIRECTION('ref_axis',(-1.,0.,0.));
#490=DIRECTION('',(0.,0.,-1.));
#491=DIRECTION('center_axis',(0.,0.,1.));
#492=DIRECTION('ref_axis',(-1.,0.,0.));
#493=DIRECTION('center_axis',(1.,0.,-1.15555796663234E-32));
#494=DIRECTION('ref_axis',(-1.15555796663234E-32,0.,-1.));
#495=DIRECTION('',(0.,1.,0.));
#496=DIRECTION('',(0.,1.,0.));
#497=DIRECTION('',(-2.34461036708011E-33,0.,-1.));
#498=DIRECTION('',(0.,1.,0.));
#499=DIRECTION('',(-1.15555796663234E-32,0.,-1.));
#500=DIRECTION('',(0.,1.,0.));
#501=DIRECTION('center_axis',(0.,0.,-1.));
#502=DIRECTION('ref_axis',(-1.,0.,0.));
#503=DIRECTION('center_axis',(0.,1.,0.));
#504=DIRECTION('ref_axis',(1.,0.,0.));
#505=DIRECTION('center_axis',(0.,-1.,0.));
#506=DIRECTION('ref_axis',(1.,0.,0.));
#507=DIRECTION('',(0.,-1.,0.));
#508=DIRECTION('center_axis',(0.,1.,0.));
#509=DIRECTION('ref_axis',(1.,0.,0.));
#510=DIRECTION('',(-1.,0.,0.));
#511=DIRECTION('',(1.,0.,0.));
#512=DIRECTION('center_axis',(0.,0.,1.));
#513=DIRECTION('ref_axis',(1.,0.,0.));
#514=DIRECTION('center_axis',(0.,0.,-1.));
#515=DIRECTION('ref_axis',(-1.,0.,0.));
#516=DIRECTION('',(-1.,0.,0.));
#517=DIRECTION('center_axis',(0.,0.,1.));
#518=DIRECTION('ref_axis',(1.,0.,0.));
#519=DIRECTION('',(1.,0.,0.));
#520=DIRECTION('center_axis',(0.,1.,0.));
#521=DIRECTION('ref_axis',(0.,0.,1.));
#522=CARTESIAN_POINT('',(0.,0.,0.));
#523=CARTESIAN_POINT('Origin',(-10.,31.,3.50000005215406));
#524=CARTESIAN_POINT('',(-20.0000002980232,31.,-49.3));
#525=CARTESIAN_POINT('',(-20.,31.,7.00000010430813));
#526=CARTESIAN_POINT('',(-20.0000002980232,31.,0.));
#527=CARTESIAN_POINT('',(0.,31.,7.00000010430813));
#528=CARTESIAN_POINT('',(-20.,31.,7.00000010430813));
#529=CARTESIAN_POINT('',(0.,31.,-49.3));
#530=CARTESIAN_POINT('',(0.,31.,7.00000010430813));
#531=CARTESIAN_POINT('',(0.,31.,-49.3));
#532=CARTESIAN_POINT('Origin',(0.,26.0000004023314,-41.3231274425803));
#533=CARTESIAN_POINT('',(-20.0000002980232,27.0000004023314,-41.3231274425803));
#534=CARTESIAN_POINT('',(-20.0000002980232,26.0000004023314,-42.3231274425803));
#535=CARTESIAN_POINT('Origin',(-20.,26.0000004023314,-41.3231274425803));
#536=CARTESIAN_POINT('',(0.,26.0000004023314,-42.3231274425803));
#537=CARTESIAN_POINT('',(0.,26.0000004023314,-42.3231274425803));
#538=CARTESIAN_POINT('',(0.,27.0000004023314,-41.3231274425803));
#539=CARTESIAN_POINT('Origin',(8.08890576642639E-32,26.0000004023314,-41.3231274425803));
#540=CARTESIAN_POINT('',(0.,27.0000004023314,-41.3231274425803));
#541=CARTESIAN_POINT('Origin',(0.,27.0000004023314,-42.3231274425803));
#542=CARTESIAN_POINT('',(-20.0000002980232,4.0233135045753E-7,-42.3231274425803));
#543=CARTESIAN_POINT('',(-20.0000002980232,27.0000004023314,-42.3231274425803));
#544=CARTESIAN_POINT('',(0.,4.0233135045753E-7,-42.3231274425803));
#545=CARTESIAN_POINT('',(-20.0000002980232,4.0233135045753E-7,-42.3231274425803));
#546=CARTESIAN_POINT('',(0.,27.0000004023314,-42.3231274425803));
#547=CARTESIAN_POINT('Origin',(0.,26.0000004023314,-1.));
#548=CARTESIAN_POINT('',(-20.,26.0000004023314,0.));
#549=CARTESIAN_POINT('',(-20.0000002980232,27.0000004023314,-1.));
#550=CARTESIAN_POINT('Origin',(-20.,26.0000004023314,-1.));
#551=CARTESIAN_POINT('',(0.,27.0000004023314,-1.));
#552=CARTESIAN_POINT('',(0.,27.0000004023314,-1.));
#553=CARTESIAN_POINT('',(0.,26.0000004023314,0.));
#554=CARTESIAN_POINT('Origin',(8.08890576642639E-32,26.0000004023314,-1.));
#555=CARTESIAN_POINT('',(0.,26.0000004023314,0.));
#556=CARTESIAN_POINT('Origin',(0.,27.0000004023314,0.));
#557=CARTESIAN_POINT('',(0.,27.0000004023314,0.));
#558=CARTESIAN_POINT('',(-20.0000002980232,27.0000004023314,0.));
#559=CARTESIAN_POINT('Origin',(-5.,1.,3.));
#560=CARTESIAN_POINT('',(0.,1.,0.));
#561=CARTESIAN_POINT('',(-2.83111701824924E-31,-2.,3.));
#562=CARTESIAN_POINT('Origin',(0.,1.,3.));
#563=CARTESIAN_POINT('',(-20.,-2.,3.));
#564=CARTESIAN_POINT('',(-5.,-2.,3.));
#565=CARTESIAN_POINT('',(-20.,1.,0.));
#566=CARTESIAN_POINT('Origin',(-20.,1.,3.));
#567=CARTESIAN_POINT('',(-5.,1.,0.));
#568=CARTESIAN_POINT('Origin',(-20.,0.,27.5));
#569=CARTESIAN_POINT('',(-20.,-2.,34.5));
#570=CARTESIAN_POINT('',(-20.,-2.,0.));
#571=CARTESIAN_POINT('',(-20.,5.,34.5));
#572=CARTESIAN_POINT('',(-20.,0.,34.5));
#573=CARTESIAN_POINT('',(-20.,5.,27.5));
#574=CARTESIAN_POINT('',(-20.,5.,34.5));
#575=CARTESIAN_POINT('',(-20.,2.,27.5));
#576=CARTESIAN_POINT('',(-20.,0.,27.5));
#577=CARTESIAN_POINT('',(-20.,2.,7.00000010430813));
#578=CARTESIAN_POINT('',(-20.,2.,0.));
#579=CARTESIAN_POINT('',(-20.,0.,7.00000010430813));
#580=CARTESIAN_POINT('',(-20.0000002980232,4.0233135045753E-7,-49.3));
#581=CARTESIAN_POINT('',(-20.0000002980232,27.0000004023314,-49.3));
#582=CARTESIAN_POINT('',(-20.0000002980232,4.0233135045753E-7,-49.3));
#583=CARTESIAN_POINT('',(-20.,0.,0.));
#584=CARTESIAN_POINT('Origin',(-10.,-2.,31.));
#585=CARTESIAN_POINT('',(0.,-2.,34.5));
#586=CARTESIAN_POINT('',(0.,-2.,27.5));
#587=CARTESIAN_POINT('',(8.08890576642639E-32,-2.,34.5));
#588=CARTESIAN_POINT('',(-12.5,-2.,17.));
#589=CARTESIAN_POINT('Origin',(-10.,-2.,17.));
#590=CARTESIAN_POINT('Origin',(-10.0000001490116,4.0233135045753E-7,-45.8115637212901));
#591=CARTESIAN_POINT('',(0.,4.0233135045753E-7,-49.3));
#592=CARTESIAN_POINT('',(0.,4.0233135045753E-7,-49.3));
#593=CARTESIAN_POINT('',(0.,4.0233135045753E-7,-42.3231274425803));
#594=CARTESIAN_POINT('Origin',(-10.0000001490116,28.5000002011657,-49.3));
#595=CARTESIAN_POINT('',(0.,30.,-49.3));
#596=CARTESIAN_POINT('Origin',(-10.,12.,7.00000010430813));
#597=CARTESIAN_POINT('',(-7.5,12.,7.00000010430813));
#598=CARTESIAN_POINT('Origin',(-10.,12.,7.00000010430813));
#599=CARTESIAN_POINT('',(-7.5,12.,0.));
#600=CARTESIAN_POINT('',(-7.5,12.,7.00000010430813));
#601=CARTESIAN_POINT('Origin',(-10.,12.,0.));
#602=CARTESIAN_POINT('Origin',(8.08890576642639E-32,0.,34.5));
#603=CARTESIAN_POINT('',(0.,0.,0.));
#604=CARTESIAN_POINT('',(0.,2.,7.00000010430813));
#605=CARTESIAN_POINT('',(0.,0.,7.00000010430813));
#606=CARTESIAN_POINT('',(0.,2.,27.5));
#607=CARTESIAN_POINT('',(8.08890576642639E-32,2.,34.5));
#608=CARTESIAN_POINT('',(0.,5.,27.5));
#609=CARTESIAN_POINT('',(0.,0.,27.5));
#610=CARTESIAN_POINT('',(0.,5.,34.5));
#611=CARTESIAN_POINT('',(0.,5.,27.5));
#612=CARTESIAN_POINT('',(8.08890576642639E-32,0.,34.5));
#613=CARTESIAN_POINT('Origin',(0.,0.,0.));
#614=CARTESIAN_POINT('Origin',(-10.,0.,17.));
#615=CARTESIAN_POINT('',(-12.5,2.,17.));
#616=CARTESIAN_POINT('Origin',(-10.,2.,17.));
#617=CARTESIAN_POINT('',(-12.5,0.,17.));
#618=CARTESIAN_POINT('Origin',(-10.,2.,17.2500000521541));
#619=CARTESIAN_POINT('',(-5.,2.,27.5));
#620=CARTESIAN_POINT('',(-15.,2.,7.00000010430813));
#621=CARTESIAN_POINT('Origin',(-20.,0.,7.00000010430813));
#622=CARTESIAN_POINT('Origin',(0.,0.,27.5));
#623=CARTESIAN_POINT('',(-20.,5.,27.5));
#624=CARTESIAN_POINT('Origin',(-20.,0.,34.5));
#625=CARTESIAN_POINT('',(8.08890576642639E-32,5.,34.5));
#626=CARTESIAN_POINT('Origin',(-10.,5.,31.));
#627=UNCERTAINTY_MEASURE_WITH_UNIT(LENGTH_MEASURE(0.01),#631,
'DISTANCE_ACCURACY_VALUE',
'Maximum model space distance between geometric entities at asserted c
onnectivities');
#628=UNCERTAINTY_MEASURE_WITH_UNIT(LENGTH_MEASURE(0.01),#631,
'DISTANCE_ACCURACY_VALUE',
'Maximum model space distance between geometric entities at asserted c
onnectivities');
#629=(
GEOMETRIC_REPRESENTATION_CONTEXT(3)
GLOBAL_UNCERTAINTY_ASSIGNED_CONTEXT((#627))
GLOBAL_UNIT_ASSIGNED_CONTEXT((#631,#633,#634))
REPRESENTATION_CONTEXT('','3D')
);
#630=(
GEOMETRIC_REPRESENTATION_CONTEXT(3)
GLOBAL_UNCERTAINTY_ASSIGNED_CONTEXT((#628))
GLOBAL_UNIT_ASSIGNED_CONTEXT((#631,#633,#634))
REPRESENTATION_CONTEXT('','3D')
);
#631=(
LENGTH_UNIT()
NAMED_UNIT(*)
SI_UNIT(.MILLI.,.METRE.)
);
#632=(
LENGTH_UNIT()
NAMED_UNIT(*)
SI_UNIT($,.METRE.)
);
#633=(
NAMED_UNIT(*)
PLANE_ANGLE_UNIT()
SI_UNIT($,.RADIAN.)
);
#634=(
NAMED_UNIT(*)
SI_UNIT($,.STERADIAN.)
SOLID_ANGLE_UNIT()
);
#635=SHAPE_DEFINITION_REPRESENTATION(#636,#637);
#636=PRODUCT_DEFINITION_SHAPE('',$,#639);
#637=SHAPE_REPRESENTATION('',(#391),#629);
#638=PRODUCT_DEFINITION_CONTEXT('part definition',#643,'design');
#639=PRODUCT_DEFINITION('Suporte','Suporte v17',#640,#638);
#640=PRODUCT_DEFINITION_FORMATION('',$,#645);
#641=PRODUCT_RELATED_PRODUCT_CATEGORY('Suporte v17','Suporte v17',(#645));
#642=APPLICATION_PROTOCOL_DEFINITION('international standard',
'automotive_design',2009,#643);
#643=APPLICATION_CONTEXT(
'Core Data for Automotive Mechanical Design Process');
#644=PRODUCT_CONTEXT('part definition',#643,'mechanical');
#645=PRODUCT('Suporte','Suporte v17',$,(#644));
#646=PRESENTATION_STYLE_ASSIGNMENT((#647));
#647=SURFACE_STYLE_USAGE(.BOTH.,#648);
#648=SURFACE_SIDE_STYLE('',(#649));
#649=SURFACE_STYLE_FILL_AREA(#650);
#650=FILL_AREA_STYLE('Pintura - Esmalte com brilho (Amarelo)',(#651));
#651=FILL_AREA_STYLE_COLOUR('Pintura - Esmalte com brilho (Amarelo)',#652);
#652=COLOUR_RGB('Pintura - Esmalte com brilho (Amarelo)',0.909803921568627,
0.67843137254902,0.137254901960784);
ENDSEC;
END-ISO-10303-21;
