ISO-10303-21;
HEADER;
/* Generated by software containing ST-Developer
 * from STEP Tools, Inc. (www.steptools.com) 
 */

FILE_DESCRIPTION(
/* description */ (''),
/* implementation_level */ '2;1');

FILE_NAME(
/* name */ 'BaseSuperiorTampa.step',
/* time_stamp */ '2026-04-01T21:00:36-03:00',
/* author */ (''),
/* organization */ (''),
/* preprocessor_version */ 'ST-DEVELOPER v20.1',
/* originating_system */ 'Autodesk Translation Framework v14.24.0.0',
/* authorisation */ '');

FILE_SCHEMA (('AUTOMOTIVE_DESIGN { 1 0 10303 214 3 1 1 }'));
ENDSEC;

DATA;
#10=MECHANICAL_DESIGN_GEOMETRIC_PRESENTATION_REPRESENTATION('',(#13),#1356);
#11=SHAPE_REPRESENTATION_RELATIONSHIP('SRR','None',#1363,#12);
#12=ADVANCED_BREP_SHAPE_REPRESENTATION('',(#14),#1355);
#13=STYLED_ITEM('',(#1372),#14);
#14=MANIFOLD_SOLID_BREP('Corpo2',#848);
#15=FACE_BOUND('',#140,.T.);
#16=FACE_BOUND('',#141,.T.);
#17=FACE_BOUND('',#142,.T.);
#18=FACE_BOUND('',#144,.T.);
#19=FACE_BOUND('',#145,.T.);
#20=FACE_BOUND('',#146,.T.);
#21=PLANE('',#871);
#22=PLANE('',#872);
#23=PLANE('',#873);
#24=PLANE('',#874);
#25=PLANE('',#875);
#26=PLANE('',#876);
#27=PLANE('',#877);
#28=PLANE('',#878);
#29=PLANE('',#879);
#30=PLANE('',#880);
#31=PLANE('',#881);
#32=PLANE('',#882);
#33=PLANE('',#883);
#34=PLANE('',#884);
#35=PLANE('',#885);
#36=PLANE('',#886);
#37=PLANE('',#887);
#38=PLANE('',#888);
#39=PLANE('',#889);
#40=PLANE('',#890);
#41=PLANE('',#891);
#42=PLANE('',#892);
#43=PLANE('',#893);
#44=PLANE('',#894);
#45=PLANE('',#895);
#46=PLANE('',#896);
#47=PLANE('',#897);
#48=PLANE('',#898);
#49=PLANE('',#899);
#50=PLANE('',#900);
#51=PLANE('',#901);
#52=PLANE('',#902);
#53=PLANE('',#903);
#54=PLANE('',#904);
#55=PLANE('',#905);
#56=PLANE('',#906);
#57=PLANE('',#907);
#58=PLANE('',#908);
#59=FACE_OUTER_BOUND('',#100,.T.);
#60=FACE_OUTER_BOUND('',#101,.T.);
#61=FACE_OUTER_BOUND('',#102,.T.);
#62=FACE_OUTER_BOUND('',#103,.T.);
#63=FACE_OUTER_BOUND('',#104,.T.);
#64=FACE_OUTER_BOUND('',#105,.T.);
#65=FACE_OUTER_BOUND('',#106,.T.);
#66=FACE_OUTER_BOUND('',#107,.T.);
#67=FACE_OUTER_BOUND('',#108,.T.);
#68=FACE_OUTER_BOUND('',#109,.T.);
#69=FACE_OUTER_BOUND('',#110,.T.);
#70=FACE_OUTER_BOUND('',#111,.T.);
#71=FACE_OUTER_BOUND('',#112,.T.);
#72=FACE_OUTER_BOUND('',#113,.T.);
#73=FACE_OUTER_BOUND('',#114,.T.);
#74=FACE_OUTER_BOUND('',#115,.T.);
#75=FACE_OUTER_BOUND('',#116,.T.);
#76=FACE_OUTER_BOUND('',#117,.T.);
#77=FACE_OUTER_BOUND('',#118,.T.);
#78=FACE_OUTER_BOUND('',#119,.T.);
#79=FACE_OUTER_BOUND('',#120,.T.);
#80=FACE_OUTER_BOUND('',#121,.T.);
#81=FACE_OUTER_BOUND('',#122,.T.);
#82=FACE_OUTER_BOUND('',#123,.T.);
#83=FACE_OUTER_BOUND('',#124,.T.);
#84=FACE_OUTER_BOUND('',#125,.T.);
#85=FACE_OUTER_BOUND('',#126,.T.);
#86=FACE_OUTER_BOUND('',#127,.T.);
#87=FACE_OUTER_BOUND('',#128,.T.);
#88=FACE_OUTER_BOUND('',#129,.T.);
#89=FACE_OUTER_BOUND('',#130,.T.);
#90=FACE_OUTER_BOUND('',#131,.T.);
#91=FACE_OUTER_BOUND('',#132,.T.);
#92=FACE_OUTER_BOUND('',#133,.T.);
#93=FACE_OUTER_BOUND('',#134,.T.);
#94=FACE_OUTER_BOUND('',#135,.T.);
#95=FACE_OUTER_BOUND('',#136,.T.);
#96=FACE_OUTER_BOUND('',#137,.T.);
#97=FACE_OUTER_BOUND('',#138,.T.);
#98=FACE_OUTER_BOUND('',#139,.T.);
#99=FACE_OUTER_BOUND('',#143,.T.);
#100=EDGE_LOOP('',(#570,#571,#572,#573));
#101=EDGE_LOOP('',(#574,#575,#576,#577));
#102=EDGE_LOOP('',(#578,#579,#580,#581));
#103=EDGE_LOOP('',(#582,#583,#584,#585));
#104=EDGE_LOOP('',(#586,#587,#588,#589));
#105=EDGE_LOOP('',(#590,#591,#592,#593));
#106=EDGE_LOOP('',(#594,#595,#596,#597));
#107=EDGE_LOOP('',(#598,#599,#600,#601));
#108=EDGE_LOOP('',(#602,#603,#604,#605));
#109=EDGE_LOOP('',(#606,#607,#608,#609));
#110=EDGE_LOOP('',(#610,#611,#612,#613));
#111=EDGE_LOOP('',(#614,#615,#616,#617));
#112=EDGE_LOOP('',(#618,#619,#620,#621));
#113=EDGE_LOOP('',(#622,#623,#624,#625));
#114=EDGE_LOOP('',(#626,#627,#628,#629));
#115=EDGE_LOOP('',(#630,#631,#632,#633));
#116=EDGE_LOOP('',(#634,#635,#636,#637));
#117=EDGE_LOOP('',(#638,#639,#640,#641));
#118=EDGE_LOOP('',(#642,#643,#644,#645));
#119=EDGE_LOOP('',(#646,#647,#648,#649));
#120=EDGE_LOOP('',(#650,#651,#652,#653));
#121=EDGE_LOOP('',(#654,#655,#656,#657));
#122=EDGE_LOOP('',(#658,#659,#660,#661));
#123=EDGE_LOOP('',(#662,#663,#664,#665));
#124=EDGE_LOOP('',(#666,#667,#668,#669));
#125=EDGE_LOOP('',(#670,#671,#672,#673));
#126=EDGE_LOOP('',(#674,#675,#676,#677));
#127=EDGE_LOOP('',(#678,#679,#680,#681));
#128=EDGE_LOOP('',(#682,#683,#684,#685));
#129=EDGE_LOOP('',(#686,#687,#688,#689));
#130=EDGE_LOOP('',(#690,#691,#692,#693));
#131=EDGE_LOOP('',(#694,#695,#696,#697));
#132=EDGE_LOOP('',(#698,#699,#700,#701));
#133=EDGE_LOOP('',(#702,#703,#704,#705));
#134=EDGE_LOOP('',(#706,#707,#708,#709));
#135=EDGE_LOOP('',(#710,#711,#712,#713));
#136=EDGE_LOOP('',(#714,#715,#716,#717));
#137=EDGE_LOOP('',(#718,#719,#720,#721));
#138=EDGE_LOOP('',(#722,#723,#724,#725));
#139=EDGE_LOOP('',(#726,#727,#728,#729,#730,#731,#732,#733,#734,#735,#736,
#737,#738,#739,#740,#741,#742,#743,#744,#745,#746,#747,#748,#749,#750,#751,
#752,#753,#754,#755,#756,#757,#758,#759,#760,#761));
#140=EDGE_LOOP('',(#762));
#141=EDGE_LOOP('',(#763));
#142=EDGE_LOOP('',(#764));
#143=EDGE_LOOP('',(#765,#766,#767,#768,#769,#770,#771,#772,#773,#774,#775,
#776,#777,#778,#779,#780,#781,#782,#783,#784,#785,#786,#787,#788,#789,#790,
#791,#792,#793,#794,#795,#796,#797,#798,#799,#800));
#144=EDGE_LOOP('',(#801));
#145=EDGE_LOOP('',(#802));
#146=EDGE_LOOP('',(#803));
#147=LINE('',#1121,#258);
#148=LINE('',#1127,#259);
#149=LINE('',#1133,#260);
#150=LINE('',#1138,#261);
#151=LINE('',#1140,#262);
#152=LINE('',#1142,#263);
#153=LINE('',#1143,#264);
#154=LINE('',#1146,#265);
#155=LINE('',#1148,#266);
#156=LINE('',#1149,#267);
#157=LINE('',#1152,#268);
#158=LINE('',#1154,#269);
#159=LINE('',#1155,#270);
#160=LINE('',#1158,#271);
#161=LINE('',#1160,#272);
#162=LINE('',#1161,#273);
#163=LINE('',#1164,#274);
#164=LINE('',#1166,#275);
#165=LINE('',#1167,#276);
#166=LINE('',#1170,#277);
#167=LINE('',#1172,#278);
#168=LINE('',#1173,#279);
#169=LINE('',#1176,#280);
#170=LINE('',#1178,#281);
#171=LINE('',#1179,#282);
#172=LINE('',#1182,#283);
#173=LINE('',#1184,#284);
#174=LINE('',#1185,#285);
#175=LINE('',#1188,#286);
#176=LINE('',#1190,#287);
#177=LINE('',#1191,#288);
#178=LINE('',#1194,#289);
#179=LINE('',#1196,#290);
#180=LINE('',#1197,#291);
#181=LINE('',#1200,#292);
#182=LINE('',#1202,#293);
#183=LINE('',#1203,#294);
#184=LINE('',#1206,#295);
#185=LINE('',#1208,#296);
#186=LINE('',#1209,#297);
#187=LINE('',#1212,#298);
#188=LINE('',#1214,#299);
#189=LINE('',#1215,#300);
#190=LINE('',#1218,#301);
#191=LINE('',#1220,#302);
#192=LINE('',#1221,#303);
#193=LINE('',#1224,#304);
#194=LINE('',#1226,#305);
#195=LINE('',#1227,#306);
#196=LINE('',#1230,#307);
#197=LINE('',#1232,#308);
#198=LINE('',#1233,#309);
#199=LINE('',#1236,#310);
#200=LINE('',#1238,#311);
#201=LINE('',#1239,#312);
#202=LINE('',#1242,#313);
#203=LINE('',#1244,#314);
#204=LINE('',#1245,#315);
#205=LINE('',#1248,#316);
#206=LINE('',#1250,#317);
#207=LINE('',#1251,#318);
#208=LINE('',#1254,#319);
#209=LINE('',#1256,#320);
#210=LINE('',#1257,#321);
#211=LINE('',#1260,#322);
#212=LINE('',#1262,#323);
#213=LINE('',#1263,#324);
#214=LINE('',#1266,#325);
#215=LINE('',#1268,#326);
#216=LINE('',#1269,#327);
#217=LINE('',#1272,#328);
#218=LINE('',#1274,#329);
#219=LINE('',#1275,#330);
#220=LINE('',#1278,#331);
#221=LINE('',#1280,#332);
#222=LINE('',#1281,#333);
#223=LINE('',#1284,#334);
#224=LINE('',#1286,#335);
#225=LINE('',#1287,#336);
#226=LINE('',#1290,#337);
#227=LINE('',#1292,#338);
#228=LINE('',#1293,#339);
#229=LINE('',#1296,#340);
#230=LINE('',#1298,#341);
#231=LINE('',#1299,#342);
#232=LINE('',#1302,#343);
#233=LINE('',#1304,#344);
#234=LINE('',#1305,#345);
#235=LINE('',#1308,#346);
#236=LINE('',#1310,#347);
#237=LINE('',#1311,#348);
#238=LINE('',#1314,#349);
#239=LINE('',#1316,#350);
#240=LINE('',#1317,#351);
#241=LINE('',#1320,#352);
#242=LINE('',#1322,#353);
#243=LINE('',#1323,#354);
#244=LINE('',#1326,#355);
#245=LINE('',#1328,#356);
#246=LINE('',#1329,#357);
#247=LINE('',#1332,#358);
#248=LINE('',#1334,#359);
#249=LINE('',#1335,#360);
#250=LINE('',#1338,#361);
#251=LINE('',#1340,#362);
#252=LINE('',#1341,#363);
#253=LINE('',#1344,#364);
#254=LINE('',#1346,#365);
#255=LINE('',#1347,#366);
#256=LINE('',#1349,#367);
#257=LINE('',#1350,#368);
#258=VECTOR('',#915,5.74999999999999);
#259=VECTOR('',#922,11.25);
#260=VECTOR('',#929,5.74999999999999);
#261=VECTOR('',#934,10.);
#262=VECTOR('',#935,10.);
#263=VECTOR('',#936,10.);
#264=VECTOR('',#937,10.);
#265=VECTOR('',#940,10.);
#266=VECTOR('',#941,10.);
#267=VECTOR('',#942,10.);
#268=VECTOR('',#945,10.);
#269=VECTOR('',#946,10.);
#270=VECTOR('',#947,10.);
#271=VECTOR('',#950,10.);
#272=VECTOR('',#951,10.);
#273=VECTOR('',#952,10.);
#274=VECTOR('',#955,10.);
#275=VECTOR('',#956,10.);
#276=VECTOR('',#957,10.);
#277=VECTOR('',#960,10.);
#278=VECTOR('',#961,10.);
#279=VECTOR('',#962,10.);
#280=VECTOR('',#965,10.);
#281=VECTOR('',#966,10.);
#282=VECTOR('',#967,10.);
#283=VECTOR('',#970,10.);
#284=VECTOR('',#971,10.);
#285=VECTOR('',#972,10.);
#286=VECTOR('',#975,10.);
#287=VECTOR('',#976,10.);
#288=VECTOR('',#977,10.);
#289=VECTOR('',#980,10.);
#290=VECTOR('',#981,10.);
#291=VECTOR('',#982,10.);
#292=VECTOR('',#985,10.);
#293=VECTOR('',#986,10.);
#294=VECTOR('',#987,10.);
#295=VECTOR('',#990,10.);
#296=VECTOR('',#991,10.);
#297=VECTOR('',#992,10.);
#298=VECTOR('',#995,10.);
#299=VECTOR('',#996,10.);
#300=VECTOR('',#997,10.);
#301=VECTOR('',#1000,10.);
#302=VECTOR('',#1001,10.);
#303=VECTOR('',#1002,10.);
#304=VECTOR('',#1005,10.);
#305=VECTOR('',#1006,10.);
#306=VECTOR('',#1007,10.);
#307=VECTOR('',#1010,10.);
#308=VECTOR('',#1011,10.);
#309=VECTOR('',#1012,10.);
#310=VECTOR('',#1015,10.);
#311=VECTOR('',#1016,10.);
#312=VECTOR('',#1017,10.);
#313=VECTOR('',#1020,10.);
#314=VECTOR('',#1021,10.);
#315=VECTOR('',#1022,10.);
#316=VECTOR('',#1025,10.);
#317=VECTOR('',#1026,10.);
#318=VECTOR('',#1027,10.);
#319=VECTOR('',#1030,10.);
#320=VECTOR('',#1031,10.);
#321=VECTOR('',#1032,10.);
#322=VECTOR('',#1035,10.);
#323=VECTOR('',#1036,10.);
#324=VECTOR('',#1037,10.);
#325=VECTOR('',#1040,10.);
#326=VECTOR('',#1041,10.);
#327=VECTOR('',#1042,10.);
#328=VECTOR('',#1045,10.);
#329=VECTOR('',#1046,10.);
#330=VECTOR('',#1047,10.);
#331=VECTOR('',#1050,10.);
#332=VECTOR('',#1051,10.);
#333=VECTOR('',#1052,10.);
#334=VECTOR('',#1055,10.);
#335=VECTOR('',#1056,10.);
#336=VECTOR('',#1057,10.);
#337=VECTOR('',#1060,10.);
#338=VECTOR('',#1061,10.);
#339=VECTOR('',#1062,10.);
#340=VECTOR('',#1065,10.);
#341=VECTOR('',#1066,10.);
#342=VECTOR('',#1067,10.);
#343=VECTOR('',#1070,10.);
#344=VECTOR('',#1071,10.);
#345=VECTOR('',#1072,10.);
#346=VECTOR('',#1075,10.);
#347=VECTOR('',#1076,10.);
#348=VECTOR('',#1077,10.);
#349=VECTOR('',#1080,10.);
#350=VECTOR('',#1081,10.);
#351=VECTOR('',#1082,10.);
#352=VECTOR('',#1085,10.);
#353=VECTOR('',#1086,10.);
#354=VECTOR('',#1087,10.);
#355=VECTOR('',#1090,10.);
#356=VECTOR('',#1091,10.);
#357=VECTOR('',#1092,10.);
#358=VECTOR('',#1095,10.);
#359=VECTOR('',#1096,10.);
#360=VECTOR('',#1097,10.);
#361=VECTOR('',#1100,10.);
#362=VECTOR('',#1101,10.);
#363=VECTOR('',#1102,10.);
#364=VECTOR('',#1105,10.);
#365=VECTOR('',#1106,10.);
#366=VECTOR('',#1107,10.);
#367=VECTOR('',#1110,10.);
#368=VECTOR('',#1111,10.);
#369=CIRCLE('',#863,5.74999999999999);
#370=CIRCLE('',#864,5.74999999999999);
#371=CIRCLE('',#866,11.25);
#372=CIRCLE('',#867,11.25);
#373=CIRCLE('',#869,5.74999999999999);
#374=CIRCLE('',#870,5.74999999999999);
#375=VERTEX_POINT('',#1118);
#376=VERTEX_POINT('',#1120);
#377=VERTEX_POINT('',#1124);
#378=VERTEX_POINT('',#1126);
#379=VERTEX_POINT('',#1130);
#380=VERTEX_POINT('',#1132);
#381=VERTEX_POINT('',#1136);
#382=VERTEX_POINT('',#1137);
#383=VERTEX_POINT('',#1139);
#384=VERTEX_POINT('',#1141);
#385=VERTEX_POINT('',#1145);
#386=VERTEX_POINT('',#1147);
#387=VERTEX_POINT('',#1151);
#388=VERTEX_POINT('',#1153);
#389=VERTEX_POINT('',#1157);
#390=VERTEX_POINT('',#1159);
#391=VERTEX_POINT('',#1163);
#392=VERTEX_POINT('',#1165);
#393=VERTEX_POINT('',#1169);
#394=VERTEX_POINT('',#1171);
#395=VERTEX_POINT('',#1175);
#396=VERTEX_POINT('',#1177);
#397=VERTEX_POINT('',#1181);
#398=VERTEX_POINT('',#1183);
#399=VERTEX_POINT('',#1187);
#400=VERTEX_POINT('',#1189);
#401=VERTEX_POINT('',#1193);
#402=VERTEX_POINT('',#1195);
#403=VERTEX_POINT('',#1199);
#404=VERTEX_POINT('',#1201);
#405=VERTEX_POINT('',#1205);
#406=VERTEX_POINT('',#1207);
#407=VERTEX_POINT('',#1211);
#408=VERTEX_POINT('',#1213);
#409=VERTEX_POINT('',#1217);
#410=VERTEX_POINT('',#1219);
#411=VERTEX_POINT('',#1223);
#412=VERTEX_POINT('',#1225);
#413=VERTEX_POINT('',#1229);
#414=VERTEX_POINT('',#1231);
#415=VERTEX_POINT('',#1235);
#416=VERTEX_POINT('',#1237);
#417=VERTEX_POINT('',#1241);
#418=VERTEX_POINT('',#1243);
#419=VERTEX_POINT('',#1247);
#420=VERTEX_POINT('',#1249);
#421=VERTEX_POINT('',#1253);
#422=VERTEX_POINT('',#1255);
#423=VERTEX_POINT('',#1259);
#424=VERTEX_POINT('',#1261);
#425=VERTEX_POINT('',#1265);
#426=VERTEX_POINT('',#1267);
#427=VERTEX_POINT('',#1271);
#428=VERTEX_POINT('',#1273);
#429=VERTEX_POINT('',#1277);
#430=VERTEX_POINT('',#1279);
#431=VERTEX_POINT('',#1283);
#432=VERTEX_POINT('',#1285);
#433=VERTEX_POINT('',#1289);
#434=VERTEX_POINT('',#1291);
#435=VERTEX_POINT('',#1295);
#436=VERTEX_POINT('',#1297);
#437=VERTEX_POINT('',#1301);
#438=VERTEX_POINT('',#1303);
#439=VERTEX_POINT('',#1307);
#440=VERTEX_POINT('',#1309);
#441=VERTEX_POINT('',#1313);
#442=VERTEX_POINT('',#1315);
#443=VERTEX_POINT('',#1319);
#444=VERTEX_POINT('',#1321);
#445=VERTEX_POINT('',#1325);
#446=VERTEX_POINT('',#1327);
#447=VERTEX_POINT('',#1331);
#448=VERTEX_POINT('',#1333);
#449=VERTEX_POINT('',#1337);
#450=VERTEX_POINT('',#1339);
#451=VERTEX_POINT('',#1343);
#452=VERTEX_POINT('',#1345);
#453=EDGE_CURVE('',#375,#375,#369,.T.);
#454=EDGE_CURVE('',#375,#376,#147,.T.);
#455=EDGE_CURVE('',#376,#376,#370,.T.);
#456=EDGE_CURVE('',#377,#377,#371,.T.);
#457=EDGE_CURVE('',#377,#378,#148,.T.);
#458=EDGE_CURVE('',#378,#378,#372,.T.);
#459=EDGE_CURVE('',#379,#379,#373,.T.);
#460=EDGE_CURVE('',#379,#380,#149,.T.);
#461=EDGE_CURVE('',#380,#380,#374,.T.);
#462=EDGE_CURVE('',#381,#382,#150,.T.);
#463=EDGE_CURVE('',#381,#383,#151,.T.);
#464=EDGE_CURVE('',#384,#383,#152,.T.);
#465=EDGE_CURVE('',#382,#384,#153,.T.);
#466=EDGE_CURVE('',#382,#385,#154,.T.);
#467=EDGE_CURVE('',#386,#384,#155,.T.);
#468=EDGE_CURVE('',#385,#386,#156,.T.);
#469=EDGE_CURVE('',#385,#387,#157,.T.);
#470=EDGE_CURVE('',#388,#386,#158,.T.);
#471=EDGE_CURVE('',#387,#388,#159,.T.);
#472=EDGE_CURVE('',#387,#389,#160,.T.);
#473=EDGE_CURVE('',#390,#388,#161,.T.);
#474=EDGE_CURVE('',#389,#390,#162,.T.);
#475=EDGE_CURVE('',#389,#391,#163,.T.);
#476=EDGE_CURVE('',#392,#390,#164,.T.);
#477=EDGE_CURVE('',#391,#392,#165,.T.);
#478=EDGE_CURVE('',#391,#393,#166,.T.);
#479=EDGE_CURVE('',#394,#392,#167,.T.);
#480=EDGE_CURVE('',#393,#394,#168,.T.);
#481=EDGE_CURVE('',#393,#395,#169,.T.);
#482=EDGE_CURVE('',#396,#394,#170,.T.);
#483=EDGE_CURVE('',#395,#396,#171,.T.);
#484=EDGE_CURVE('',#395,#397,#172,.T.);
#485=EDGE_CURVE('',#398,#396,#173,.T.);
#486=EDGE_CURVE('',#397,#398,#174,.T.);
#487=EDGE_CURVE('',#399,#397,#175,.T.);
#488=EDGE_CURVE('',#400,#398,#176,.T.);
#489=EDGE_CURVE('',#399,#400,#177,.T.);
#490=EDGE_CURVE('',#401,#399,#178,.T.);
#491=EDGE_CURVE('',#402,#400,#179,.T.);
#492=EDGE_CURVE('',#401,#402,#180,.T.);
#493=EDGE_CURVE('',#401,#403,#181,.T.);
#494=EDGE_CURVE('',#404,#402,#182,.T.);
#495=EDGE_CURVE('',#403,#404,#183,.T.);
#496=EDGE_CURVE('',#405,#403,#184,.T.);
#497=EDGE_CURVE('',#406,#404,#185,.T.);
#498=EDGE_CURVE('',#405,#406,#186,.T.);
#499=EDGE_CURVE('',#405,#407,#187,.T.);
#500=EDGE_CURVE('',#408,#406,#188,.T.);
#501=EDGE_CURVE('',#407,#408,#189,.T.);
#502=EDGE_CURVE('',#407,#409,#190,.T.);
#503=EDGE_CURVE('',#410,#408,#191,.T.);
#504=EDGE_CURVE('',#409,#410,#192,.T.);
#505=EDGE_CURVE('',#409,#411,#193,.T.);
#506=EDGE_CURVE('',#412,#410,#194,.T.);
#507=EDGE_CURVE('',#411,#412,#195,.T.);
#508=EDGE_CURVE('',#413,#411,#196,.T.);
#509=EDGE_CURVE('',#414,#412,#197,.T.);
#510=EDGE_CURVE('',#413,#414,#198,.T.);
#511=EDGE_CURVE('',#413,#415,#199,.T.);
#512=EDGE_CURVE('',#416,#414,#200,.T.);
#513=EDGE_CURVE('',#415,#416,#201,.T.);
#514=EDGE_CURVE('',#415,#417,#202,.T.);
#515=EDGE_CURVE('',#418,#416,#203,.T.);
#516=EDGE_CURVE('',#417,#418,#204,.T.);
#517=EDGE_CURVE('',#417,#419,#205,.T.);
#518=EDGE_CURVE('',#420,#418,#206,.T.);
#519=EDGE_CURVE('',#419,#420,#207,.T.);
#520=EDGE_CURVE('',#419,#421,#208,.T.);
#521=EDGE_CURVE('',#422,#420,#209,.T.);
#522=EDGE_CURVE('',#421,#422,#210,.T.);
#523=EDGE_CURVE('',#423,#421,#211,.T.);
#524=EDGE_CURVE('',#424,#422,#212,.T.);
#525=EDGE_CURVE('',#423,#424,#213,.T.);
#526=EDGE_CURVE('',#425,#423,#214,.T.);
#527=EDGE_CURVE('',#426,#424,#215,.T.);
#528=EDGE_CURVE('',#425,#426,#216,.T.);
#529=EDGE_CURVE('',#427,#425,#217,.T.);
#530=EDGE_CURVE('',#428,#426,#218,.T.);
#531=EDGE_CURVE('',#427,#428,#219,.T.);
#532=EDGE_CURVE('',#429,#427,#220,.T.);
#533=EDGE_CURVE('',#430,#428,#221,.T.);
#534=EDGE_CURVE('',#429,#430,#222,.T.);
#535=EDGE_CURVE('',#431,#429,#223,.T.);
#536=EDGE_CURVE('',#432,#430,#224,.T.);
#537=EDGE_CURVE('',#431,#432,#225,.T.);
#538=EDGE_CURVE('',#433,#431,#226,.T.);
#539=EDGE_CURVE('',#434,#432,#227,.T.);
#540=EDGE_CURVE('',#433,#434,#228,.T.);
#541=EDGE_CURVE('',#435,#433,#229,.T.);
#542=EDGE_CURVE('',#436,#434,#230,.T.);
#543=EDGE_CURVE('',#435,#436,#231,.T.);
#544=EDGE_CURVE('',#435,#437,#232,.T.);
#545=EDGE_CURVE('',#438,#436,#233,.T.);
#546=EDGE_CURVE('',#437,#438,#234,.T.);
#547=EDGE_CURVE('',#437,#439,#235,.T.);
#548=EDGE_CURVE('',#440,#438,#236,.T.);
#549=EDGE_CURVE('',#439,#440,#237,.T.);
#550=EDGE_CURVE('',#439,#441,#238,.T.);
#551=EDGE_CURVE('',#442,#440,#239,.T.);
#552=EDGE_CURVE('',#441,#442,#240,.T.);
#553=EDGE_CURVE('',#443,#441,#241,.T.);
#554=EDGE_CURVE('',#444,#442,#242,.T.);
#555=EDGE_CURVE('',#443,#444,#243,.T.);
#556=EDGE_CURVE('',#445,#443,#244,.T.);
#557=EDGE_CURVE('',#446,#444,#245,.T.);
#558=EDGE_CURVE('',#445,#446,#246,.T.);
#559=EDGE_CURVE('',#445,#447,#247,.T.);
#560=EDGE_CURVE('',#448,#446,#248,.T.);
#561=EDGE_CURVE('',#447,#448,#249,.T.);
#562=EDGE_CURVE('',#447,#449,#250,.T.);
#563=EDGE_CURVE('',#450,#448,#251,.T.);
#564=EDGE_CURVE('',#449,#450,#252,.T.);
#565=EDGE_CURVE('',#449,#451,#253,.T.);
#566=EDGE_CURVE('',#452,#450,#254,.T.);
#567=EDGE_CURVE('',#451,#452,#255,.T.);
#568=EDGE_CURVE('',#381,#451,#256,.T.);
#569=EDGE_CURVE('',#383,#452,#257,.T.);
#570=ORIENTED_EDGE('',*,*,#453,.F.);
#571=ORIENTED_EDGE('',*,*,#454,.T.);
#572=ORIENTED_EDGE('',*,*,#455,.F.);
#573=ORIENTED_EDGE('',*,*,#454,.F.);
#574=ORIENTED_EDGE('',*,*,#456,.F.);
#575=ORIENTED_EDGE('',*,*,#457,.T.);
#576=ORIENTED_EDGE('',*,*,#458,.F.);
#577=ORIENTED_EDGE('',*,*,#457,.F.);
#578=ORIENTED_EDGE('',*,*,#459,.F.);
#579=ORIENTED_EDGE('',*,*,#460,.T.);
#580=ORIENTED_EDGE('',*,*,#461,.F.);
#581=ORIENTED_EDGE('',*,*,#460,.F.);
#582=ORIENTED_EDGE('',*,*,#462,.F.);
#583=ORIENTED_EDGE('',*,*,#463,.T.);
#584=ORIENTED_EDGE('',*,*,#464,.F.);
#585=ORIENTED_EDGE('',*,*,#465,.F.);
#586=ORIENTED_EDGE('',*,*,#466,.F.);
#587=ORIENTED_EDGE('',*,*,#465,.T.);
#588=ORIENTED_EDGE('',*,*,#467,.F.);
#589=ORIENTED_EDGE('',*,*,#468,.F.);
#590=ORIENTED_EDGE('',*,*,#469,.F.);
#591=ORIENTED_EDGE('',*,*,#468,.T.);
#592=ORIENTED_EDGE('',*,*,#470,.F.);
#593=ORIENTED_EDGE('',*,*,#471,.F.);
#594=ORIENTED_EDGE('',*,*,#472,.F.);
#595=ORIENTED_EDGE('',*,*,#471,.T.);
#596=ORIENTED_EDGE('',*,*,#473,.F.);
#597=ORIENTED_EDGE('',*,*,#474,.F.);
#598=ORIENTED_EDGE('',*,*,#475,.F.);
#599=ORIENTED_EDGE('',*,*,#474,.T.);
#600=ORIENTED_EDGE('',*,*,#476,.F.);
#601=ORIENTED_EDGE('',*,*,#477,.F.);
#602=ORIENTED_EDGE('',*,*,#478,.F.);
#603=ORIENTED_EDGE('',*,*,#477,.T.);
#604=ORIENTED_EDGE('',*,*,#479,.F.);
#605=ORIENTED_EDGE('',*,*,#480,.F.);
#606=ORIENTED_EDGE('',*,*,#481,.F.);
#607=ORIENTED_EDGE('',*,*,#480,.T.);
#608=ORIENTED_EDGE('',*,*,#482,.F.);
#609=ORIENTED_EDGE('',*,*,#483,.F.);
#610=ORIENTED_EDGE('',*,*,#484,.F.);
#611=ORIENTED_EDGE('',*,*,#483,.T.);
#612=ORIENTED_EDGE('',*,*,#485,.F.);
#613=ORIENTED_EDGE('',*,*,#486,.F.);
#614=ORIENTED_EDGE('',*,*,#487,.T.);
#615=ORIENTED_EDGE('',*,*,#486,.T.);
#616=ORIENTED_EDGE('',*,*,#488,.F.);
#617=ORIENTED_EDGE('',*,*,#489,.F.);
#618=ORIENTED_EDGE('',*,*,#490,.T.);
#619=ORIENTED_EDGE('',*,*,#489,.T.);
#620=ORIENTED_EDGE('',*,*,#491,.F.);
#621=ORIENTED_EDGE('',*,*,#492,.F.);
#622=ORIENTED_EDGE('',*,*,#493,.F.);
#623=ORIENTED_EDGE('',*,*,#492,.T.);
#624=ORIENTED_EDGE('',*,*,#494,.F.);
#625=ORIENTED_EDGE('',*,*,#495,.F.);
#626=ORIENTED_EDGE('',*,*,#496,.T.);
#627=ORIENTED_EDGE('',*,*,#495,.T.);
#628=ORIENTED_EDGE('',*,*,#497,.F.);
#629=ORIENTED_EDGE('',*,*,#498,.F.);
#630=ORIENTED_EDGE('',*,*,#499,.F.);
#631=ORIENTED_EDGE('',*,*,#498,.T.);
#632=ORIENTED_EDGE('',*,*,#500,.F.);
#633=ORIENTED_EDGE('',*,*,#501,.F.);
#634=ORIENTED_EDGE('',*,*,#502,.F.);
#635=ORIENTED_EDGE('',*,*,#501,.T.);
#636=ORIENTED_EDGE('',*,*,#503,.F.);
#637=ORIENTED_EDGE('',*,*,#504,.F.);
#638=ORIENTED_EDGE('',*,*,#505,.F.);
#639=ORIENTED_EDGE('',*,*,#504,.T.);
#640=ORIENTED_EDGE('',*,*,#506,.F.);
#641=ORIENTED_EDGE('',*,*,#507,.F.);
#642=ORIENTED_EDGE('',*,*,#508,.T.);
#643=ORIENTED_EDGE('',*,*,#507,.T.);
#644=ORIENTED_EDGE('',*,*,#509,.F.);
#645=ORIENTED_EDGE('',*,*,#510,.F.);
#646=ORIENTED_EDGE('',*,*,#511,.F.);
#647=ORIENTED_EDGE('',*,*,#510,.T.);
#648=ORIENTED_EDGE('',*,*,#512,.F.);
#649=ORIENTED_EDGE('',*,*,#513,.F.);
#650=ORIENTED_EDGE('',*,*,#514,.F.);
#651=ORIENTED_EDGE('',*,*,#513,.T.);
#652=ORIENTED_EDGE('',*,*,#515,.F.);
#653=ORIENTED_EDGE('',*,*,#516,.F.);
#654=ORIENTED_EDGE('',*,*,#517,.F.);
#655=ORIENTED_EDGE('',*,*,#516,.T.);
#656=ORIENTED_EDGE('',*,*,#518,.F.);
#657=ORIENTED_EDGE('',*,*,#519,.F.);
#658=ORIENTED_EDGE('',*,*,#520,.F.);
#659=ORIENTED_EDGE('',*,*,#519,.T.);
#660=ORIENTED_EDGE('',*,*,#521,.F.);
#661=ORIENTED_EDGE('',*,*,#522,.F.);
#662=ORIENTED_EDGE('',*,*,#523,.T.);
#663=ORIENTED_EDGE('',*,*,#522,.T.);
#664=ORIENTED_EDGE('',*,*,#524,.F.);
#665=ORIENTED_EDGE('',*,*,#525,.F.);
#666=ORIENTED_EDGE('',*,*,#526,.T.);
#667=ORIENTED_EDGE('',*,*,#525,.T.);
#668=ORIENTED_EDGE('',*,*,#527,.F.);
#669=ORIENTED_EDGE('',*,*,#528,.F.);
#670=ORIENTED_EDGE('',*,*,#529,.T.);
#671=ORIENTED_EDGE('',*,*,#528,.T.);
#672=ORIENTED_EDGE('',*,*,#530,.F.);
#673=ORIENTED_EDGE('',*,*,#531,.F.);
#674=ORIENTED_EDGE('',*,*,#532,.T.);
#675=ORIENTED_EDGE('',*,*,#531,.T.);
#676=ORIENTED_EDGE('',*,*,#533,.F.);
#677=ORIENTED_EDGE('',*,*,#534,.F.);
#678=ORIENTED_EDGE('',*,*,#535,.T.);
#679=ORIENTED_EDGE('',*,*,#534,.T.);
#680=ORIENTED_EDGE('',*,*,#536,.F.);
#681=ORIENTED_EDGE('',*,*,#537,.F.);
#682=ORIENTED_EDGE('',*,*,#538,.T.);
#683=ORIENTED_EDGE('',*,*,#537,.T.);
#684=ORIENTED_EDGE('',*,*,#539,.F.);
#685=ORIENTED_EDGE('',*,*,#540,.F.);
#686=ORIENTED_EDGE('',*,*,#541,.T.);
#687=ORIENTED_EDGE('',*,*,#540,.T.);
#688=ORIENTED_EDGE('',*,*,#542,.F.);
#689=ORIENTED_EDGE('',*,*,#543,.F.);
#690=ORIENTED_EDGE('',*,*,#544,.F.);
#691=ORIENTED_EDGE('',*,*,#543,.T.);
#692=ORIENTED_EDGE('',*,*,#545,.F.);
#693=ORIENTED_EDGE('',*,*,#546,.F.);
#694=ORIENTED_EDGE('',*,*,#547,.F.);
#695=ORIENTED_EDGE('',*,*,#546,.T.);
#696=ORIENTED_EDGE('',*,*,#548,.F.);
#697=ORIENTED_EDGE('',*,*,#549,.F.);
#698=ORIENTED_EDGE('',*,*,#550,.F.);
#699=ORIENTED_EDGE('',*,*,#549,.T.);
#700=ORIENTED_EDGE('',*,*,#551,.F.);
#701=ORIENTED_EDGE('',*,*,#552,.F.);
#702=ORIENTED_EDGE('',*,*,#553,.T.);
#703=ORIENTED_EDGE('',*,*,#552,.T.);
#704=ORIENTED_EDGE('',*,*,#554,.F.);
#705=ORIENTED_EDGE('',*,*,#555,.F.);
#706=ORIENTED_EDGE('',*,*,#556,.T.);
#707=ORIENTED_EDGE('',*,*,#555,.T.);
#708=ORIENTED_EDGE('',*,*,#557,.F.);
#709=ORIENTED_EDGE('',*,*,#558,.F.);
#710=ORIENTED_EDGE('',*,*,#559,.F.);
#711=ORIENTED_EDGE('',*,*,#558,.T.);
#712=ORIENTED_EDGE('',*,*,#560,.F.);
#713=ORIENTED_EDGE('',*,*,#561,.F.);
#714=ORIENTED_EDGE('',*,*,#562,.F.);
#715=ORIENTED_EDGE('',*,*,#561,.T.);
#716=ORIENTED_EDGE('',*,*,#563,.F.);
#717=ORIENTED_EDGE('',*,*,#564,.F.);
#718=ORIENTED_EDGE('',*,*,#565,.F.);
#719=ORIENTED_EDGE('',*,*,#564,.T.);
#720=ORIENTED_EDGE('',*,*,#566,.F.);
#721=ORIENTED_EDGE('',*,*,#567,.F.);
#722=ORIENTED_EDGE('',*,*,#568,.T.);
#723=ORIENTED_EDGE('',*,*,#567,.T.);
#724=ORIENTED_EDGE('',*,*,#569,.F.);
#725=ORIENTED_EDGE('',*,*,#463,.F.);
#726=ORIENTED_EDGE('',*,*,#569,.T.);
#727=ORIENTED_EDGE('',*,*,#566,.T.);
#728=ORIENTED_EDGE('',*,*,#563,.T.);
#729=ORIENTED_EDGE('',*,*,#560,.T.);
#730=ORIENTED_EDGE('',*,*,#557,.T.);
#731=ORIENTED_EDGE('',*,*,#554,.T.);
#732=ORIENTED_EDGE('',*,*,#551,.T.);
#733=ORIENTED_EDGE('',*,*,#548,.T.);
#734=ORIENTED_EDGE('',*,*,#545,.T.);
#735=ORIENTED_EDGE('',*,*,#542,.T.);
#736=ORIENTED_EDGE('',*,*,#539,.T.);
#737=ORIENTED_EDGE('',*,*,#536,.T.);
#738=ORIENTED_EDGE('',*,*,#533,.T.);
#739=ORIENTED_EDGE('',*,*,#530,.T.);
#740=ORIENTED_EDGE('',*,*,#527,.T.);
#741=ORIENTED_EDGE('',*,*,#524,.T.);
#742=ORIENTED_EDGE('',*,*,#521,.T.);
#743=ORIENTED_EDGE('',*,*,#518,.T.);
#744=ORIENTED_EDGE('',*,*,#515,.T.);
#745=ORIENTED_EDGE('',*,*,#512,.T.);
#746=ORIENTED_EDGE('',*,*,#509,.T.);
#747=ORIENTED_EDGE('',*,*,#506,.T.);
#748=ORIENTED_EDGE('',*,*,#503,.T.);
#749=ORIENTED_EDGE('',*,*,#500,.T.);
#750=ORIENTED_EDGE('',*,*,#497,.T.);
#751=ORIENTED_EDGE('',*,*,#494,.T.);
#752=ORIENTED_EDGE('',*,*,#491,.T.);
#753=ORIENTED_EDGE('',*,*,#488,.T.);
#754=ORIENTED_EDGE('',*,*,#485,.T.);
#755=ORIENTED_EDGE('',*,*,#482,.T.);
#756=ORIENTED_EDGE('',*,*,#479,.T.);
#757=ORIENTED_EDGE('',*,*,#476,.T.);
#758=ORIENTED_EDGE('',*,*,#473,.T.);
#759=ORIENTED_EDGE('',*,*,#470,.T.);
#760=ORIENTED_EDGE('',*,*,#467,.T.);
#761=ORIENTED_EDGE('',*,*,#464,.T.);
#762=ORIENTED_EDGE('',*,*,#455,.T.);
#763=ORIENTED_EDGE('',*,*,#458,.T.);
#764=ORIENTED_EDGE('',*,*,#461,.T.);
#765=ORIENTED_EDGE('',*,*,#568,.F.);
#766=ORIENTED_EDGE('',*,*,#462,.T.);
#767=ORIENTED_EDGE('',*,*,#466,.T.);
#768=ORIENTED_EDGE('',*,*,#469,.T.);
#769=ORIENTED_EDGE('',*,*,#472,.T.);
#770=ORIENTED_EDGE('',*,*,#475,.T.);
#771=ORIENTED_EDGE('',*,*,#478,.T.);
#772=ORIENTED_EDGE('',*,*,#481,.T.);
#773=ORIENTED_EDGE('',*,*,#484,.T.);
#774=ORIENTED_EDGE('',*,*,#487,.F.);
#775=ORIENTED_EDGE('',*,*,#490,.F.);
#776=ORIENTED_EDGE('',*,*,#493,.T.);
#777=ORIENTED_EDGE('',*,*,#496,.F.);
#778=ORIENTED_EDGE('',*,*,#499,.T.);
#779=ORIENTED_EDGE('',*,*,#502,.T.);
#780=ORIENTED_EDGE('',*,*,#505,.T.);
#781=ORIENTED_EDGE('',*,*,#508,.F.);
#782=ORIENTED_EDGE('',*,*,#511,.T.);
#783=ORIENTED_EDGE('',*,*,#514,.T.);
#784=ORIENTED_EDGE('',*,*,#517,.T.);
#785=ORIENTED_EDGE('',*,*,#520,.T.);
#786=ORIENTED_EDGE('',*,*,#523,.F.);
#787=ORIENTED_EDGE('',*,*,#526,.F.);
#788=ORIENTED_EDGE('',*,*,#529,.F.);
#789=ORIENTED_EDGE('',*,*,#532,.F.);
#790=ORIENTED_EDGE('',*,*,#535,.F.);
#791=ORIENTED_EDGE('',*,*,#538,.F.);
#792=ORIENTED_EDGE('',*,*,#541,.F.);
#793=ORIENTED_EDGE('',*,*,#544,.T.);
#794=ORIENTED_EDGE('',*,*,#547,.T.);
#795=ORIENTED_EDGE('',*,*,#550,.T.);
#796=ORIENTED_EDGE('',*,*,#553,.F.);
#797=ORIENTED_EDGE('',*,*,#556,.F.);
#798=ORIENTED_EDGE('',*,*,#559,.T.);
#799=ORIENTED_EDGE('',*,*,#562,.T.);
#800=ORIENTED_EDGE('',*,*,#565,.T.);
#801=ORIENTED_EDGE('',*,*,#453,.T.);
#802=ORIENTED_EDGE('',*,*,#456,.T.);
#803=ORIENTED_EDGE('',*,*,#459,.T.);
#804=CYLINDRICAL_SURFACE('',#862,5.74999999999999);
#805=CYLINDRICAL_SURFACE('',#865,11.25);
#806=CYLINDRICAL_SURFACE('',#868,5.74999999999999);
#807=ADVANCED_FACE('',(#59),#804,.F.);
#808=ADVANCED_FACE('',(#60),#805,.F.);
#809=ADVANCED_FACE('',(#61),#806,.F.);
#810=ADVANCED_FACE('',(#62),#21,.T.);
#811=ADVANCED_FACE('',(#63),#22,.T.);
#812=ADVANCED_FACE('',(#64),#23,.T.);
#813=ADVANCED_FACE('',(#65),#24,.T.);
#814=ADVANCED_FACE('',(#66),#25,.T.);
#815=ADVANCED_FACE('',(#67),#26,.T.);
#816=ADVANCED_FACE('',(#68),#27,.T.);
#817=ADVANCED_FACE('',(#69),#28,.T.);
#818=ADVANCED_FACE('',(#70),#29,.T.);
#819=ADVANCED_FACE('',(#71),#30,.T.);
#820=ADVANCED_FACE('',(#72),#31,.T.);
#821=ADVANCED_FACE('',(#73),#32,.T.);
#822=ADVANCED_FACE('',(#74),#33,.T.);
#823=ADVANCED_FACE('',(#75),#34,.T.);
#824=ADVANCED_FACE('',(#76),#35,.T.);
#825=ADVANCED_FACE('',(#77),#36,.T.);
#826=ADVANCED_FACE('',(#78),#37,.T.);
#827=ADVANCED_FACE('',(#79),#38,.T.);
#828=ADVANCED_FACE('',(#80),#39,.T.);
#829=ADVANCED_FACE('',(#81),#40,.T.);
#830=ADVANCED_FACE('',(#82),#41,.T.);
#831=ADVANCED_FACE('',(#83),#42,.T.);
#832=ADVANCED_FACE('',(#84),#43,.T.);
#833=ADVANCED_FACE('',(#85),#44,.T.);
#834=ADVANCED_FACE('',(#86),#45,.T.);
#835=ADVANCED_FACE('',(#87),#46,.T.);
#836=ADVANCED_FACE('',(#88),#47,.T.);
#837=ADVANCED_FACE('',(#89),#48,.T.);
#838=ADVANCED_FACE('',(#90),#49,.T.);
#839=ADVANCED_FACE('',(#91),#50,.T.);
#840=ADVANCED_FACE('',(#92),#51,.T.);
#841=ADVANCED_FACE('',(#93),#52,.T.);
#842=ADVANCED_FACE('',(#94),#53,.T.);
#843=ADVANCED_FACE('',(#95),#54,.T.);
#844=ADVANCED_FACE('',(#96),#55,.T.);
#845=ADVANCED_FACE('',(#97),#56,.T.);
#846=ADVANCED_FACE('',(#98,#15,#16,#17),#57,.T.);
#847=ADVANCED_FACE('',(#99,#18,#19,#20),#58,.F.);
#848=CLOSED_SHELL('',(#807,#808,#809,#810,#811,#812,#813,#814,#815,#816,
#817,#818,#819,#820,#821,#822,#823,#824,#825,#826,#827,#828,#829,#830,#831,
#832,#833,#834,#835,#836,#837,#838,#839,#840,#841,#842,#843,#844,#845,#846,
#847));
#849=DERIVED_UNIT_ELEMENT(#851,1.);
#850=DERIVED_UNIT_ELEMENT(#1358,-3.);
#851=(
MASS_UNIT()
NAMED_UNIT(*)
SI_UNIT(.KILO.,.GRAM.)
);
#852=DERIVED_UNIT((#849,#850));
#853=MEASURE_REPRESENTATION_ITEM('density measure',
POSITIVE_RATIO_MEASURE(7850.),#852);
#854=PROPERTY_DEFINITION_REPRESENTATION(#859,#856);
#855=PROPERTY_DEFINITION_REPRESENTATION(#860,#857);
#856=REPRESENTATION('material name',(#858),#1355);
#857=REPRESENTATION('density',(#853),#1355);
#858=DESCRIPTIVE_REPRESENTATION_ITEM('A\X\E7o','A\X\E7o');
#859=PROPERTY_DEFINITION('material property','material name',#1365);
#860=PROPERTY_DEFINITION('material property','density of part',#1365);
#861=AXIS2_PLACEMENT_3D('',#1116,#909,#910);
#862=AXIS2_PLACEMENT_3D('',#1117,#911,#912);
#863=AXIS2_PLACEMENT_3D('',#1119,#913,#914);
#864=AXIS2_PLACEMENT_3D('',#1122,#916,#917);
#865=AXIS2_PLACEMENT_3D('',#1123,#918,#919);
#866=AXIS2_PLACEMENT_3D('',#1125,#920,#921);
#867=AXIS2_PLACEMENT_3D('',#1128,#923,#924);
#868=AXIS2_PLACEMENT_3D('',#1129,#925,#926);
#869=AXIS2_PLACEMENT_3D('',#1131,#927,#928);
#870=AXIS2_PLACEMENT_3D('',#1134,#930,#931);
#871=AXIS2_PLACEMENT_3D('',#1135,#932,#933);
#872=AXIS2_PLACEMENT_3D('',#1144,#938,#939);
#873=AXIS2_PLACEMENT_3D('',#1150,#943,#944);
#874=AXIS2_PLACEMENT_3D('',#1156,#948,#949);
#875=AXIS2_PLACEMENT_3D('',#1162,#953,#954);
#876=AXIS2_PLACEMENT_3D('',#1168,#958,#959);
#877=AXIS2_PLACEMENT_3D('',#1174,#963,#964);
#878=AXIS2_PLACEMENT_3D('',#1180,#968,#969);
#879=AXIS2_PLACEMENT_3D('',#1186,#973,#974);
#880=AXIS2_PLACEMENT_3D('',#1192,#978,#979);
#881=AXIS2_PLACEMENT_3D('',#1198,#983,#984);
#882=AXIS2_PLACEMENT_3D('',#1204,#988,#989);
#883=AXIS2_PLACEMENT_3D('',#1210,#993,#994);
#884=AXIS2_PLACEMENT_3D('',#1216,#998,#999);
#885=AXIS2_PLACEMENT_3D('',#1222,#1003,#1004);
#886=AXIS2_PLACEMENT_3D('',#1228,#1008,#1009);
#887=AXIS2_PLACEMENT_3D('',#1234,#1013,#1014);
#888=AXIS2_PLACEMENT_3D('',#1240,#1018,#1019);
#889=AXIS2_PLACEMENT_3D('',#1246,#1023,#1024);
#890=AXIS2_PLACEMENT_3D('',#1252,#1028,#1029);
#891=AXIS2_PLACEMENT_3D('',#1258,#1033,#1034);
#892=AXIS2_PLACEMENT_3D('',#1264,#1038,#1039);
#893=AXIS2_PLACEMENT_3D('',#1270,#1043,#1044);
#894=AXIS2_PLACEMENT_3D('',#1276,#1048,#1049);
#895=AXIS2_PLACEMENT_3D('',#1282,#1053,#1054);
#896=AXIS2_PLACEMENT_3D('',#1288,#1058,#1059);
#897=AXIS2_PLACEMENT_3D('',#1294,#1063,#1064);
#898=AXIS2_PLACEMENT_3D('',#1300,#1068,#1069);
#899=AXIS2_PLACEMENT_3D('',#1306,#1073,#1074);
#900=AXIS2_PLACEMENT_3D('',#1312,#1078,#1079);
#901=AXIS2_PLACEMENT_3D('',#1318,#1083,#1084);
#902=AXIS2_PLACEMENT_3D('',#1324,#1088,#1089);
#903=AXIS2_PLACEMENT_3D('',#1330,#1093,#1094);
#904=AXIS2_PLACEMENT_3D('',#1336,#1098,#1099);
#905=AXIS2_PLACEMENT_3D('',#1342,#1103,#1104);
#906=AXIS2_PLACEMENT_3D('',#1348,#1108,#1109);
#907=AXIS2_PLACEMENT_3D('',#1351,#1112,#1113);
#908=AXIS2_PLACEMENT_3D('',#1352,#1114,#1115);
#909=DIRECTION('axis',(0.,0.,1.));
#910=DIRECTION('refdir',(1.,0.,0.));
#911=DIRECTION('center_axis',(0.,1.,0.));
#912=DIRECTION('ref_axis',(1.,0.,0.));
#913=DIRECTION('center_axis',(0.,1.,0.));
#914=DIRECTION('ref_axis',(1.,0.,0.));
#915=DIRECTION('',(0.,1.,0.));
#916=DIRECTION('center_axis',(0.,-1.,0.));
#917=DIRECTION('ref_axis',(1.,0.,0.));
#918=DIRECTION('center_axis',(0.,1.,0.));
#919=DIRECTION('ref_axis',(1.,0.,0.));
#920=DIRECTION('center_axis',(0.,1.,0.));
#921=DIRECTION('ref_axis',(1.,0.,0.));
#922=DIRECTION('',(0.,1.,0.));
#923=DIRECTION('center_axis',(0.,-1.,0.));
#924=DIRECTION('ref_axis',(1.,0.,0.));
#925=DIRECTION('center_axis',(0.,1.,0.));
#926=DIRECTION('ref_axis',(1.,0.,0.));
#927=DIRECTION('center_axis',(0.,1.,0.));
#928=DIRECTION('ref_axis',(1.,0.,0.));
#929=DIRECTION('',(0.,1.,0.));
#930=DIRECTION('center_axis',(0.,-1.,0.));
#931=DIRECTION('ref_axis',(1.,0.,0.));
#932=DIRECTION('center_axis',(-1.,0.,0.));
#933=DIRECTION('ref_axis',(0.,0.,1.));
#934=DIRECTION('',(0.,0.,-1.));
#935=DIRECTION('',(0.,1.,0.));
#936=DIRECTION('',(0.,0.,1.));
#937=DIRECTION('',(0.,1.,0.));
#938=DIRECTION('center_axis',(0.,0.,-1.));
#939=DIRECTION('ref_axis',(-1.,0.,0.));
#940=DIRECTION('',(1.,0.,0.));
#941=DIRECTION('',(-1.,0.,0.));
#942=DIRECTION('',(0.,1.,0.));
#943=DIRECTION('center_axis',(-1.,0.,0.));
#944=DIRECTION('ref_axis',(0.,0.,1.));
#945=DIRECTION('',(0.,0.,-1.));
#946=DIRECTION('',(0.,0.,1.));
#947=DIRECTION('',(0.,1.,0.));
#948=DIRECTION('center_axis',(0.,0.,-1.));
#949=DIRECTION('ref_axis',(-1.,0.,0.));
#950=DIRECTION('',(1.,0.,0.));
#951=DIRECTION('',(-1.,0.,0.));
#952=DIRECTION('',(0.,1.,0.));
#953=DIRECTION('center_axis',(1.,0.,0.));
#954=DIRECTION('ref_axis',(0.,0.,-1.));
#955=DIRECTION('',(0.,0.,1.));
#956=DIRECTION('',(0.,0.,-1.));
#957=DIRECTION('',(0.,1.,0.));
#958=DIRECTION('center_axis',(0.,0.,-1.));
#959=DIRECTION('ref_axis',(-1.,0.,0.));
#960=DIRECTION('',(1.,0.,0.));
#961=DIRECTION('',(-1.,0.,0.));
#962=DIRECTION('',(0.,1.,0.));
#963=DIRECTION('center_axis',(-1.,0.,0.));
#964=DIRECTION('ref_axis',(0.,0.,1.));
#965=DIRECTION('',(0.,0.,-1.));
#966=DIRECTION('',(0.,0.,1.));
#967=DIRECTION('',(0.,1.,0.));
#968=DIRECTION('center_axis',(0.,0.,-1.));
#969=DIRECTION('ref_axis',(-1.,0.,0.));
#970=DIRECTION('',(1.,0.,0.));
#971=DIRECTION('',(-1.,0.,0.));
#972=DIRECTION('',(0.,1.,0.));
#973=DIRECTION('center_axis',(0.999999999999884,0.,-4.81804208381809E-7));
#974=DIRECTION('ref_axis',(-4.81804208381809E-7,0.,-0.999999999999884));
#975=DIRECTION('',(-4.81804208381809E-7,0.,-0.999999999999884));
#976=DIRECTION('',(-4.81804208381809E-7,0.,-0.999999999999884));
#977=DIRECTION('',(0.,1.,0.));
#978=DIRECTION('center_axis',(0.,0.,-1.));
#979=DIRECTION('ref_axis',(-1.,0.,0.));
#980=DIRECTION('',(-1.,0.,0.));
#981=DIRECTION('',(-1.,0.,0.));
#982=DIRECTION('',(0.,1.,0.));
#983=DIRECTION('center_axis',(1.,0.,0.));
#984=DIRECTION('ref_axis',(0.,0.,-1.));
#985=DIRECTION('',(0.,0.,1.));
#986=DIRECTION('',(0.,0.,-1.));
#987=DIRECTION('',(0.,1.,0.));
#988=DIRECTION('center_axis',(0.,0.,1.));
#989=DIRECTION('ref_axis',(1.,0.,0.));
#990=DIRECTION('',(1.,0.,0.));
#991=DIRECTION('',(1.,0.,0.));
#992=DIRECTION('',(0.,1.,0.));
#993=DIRECTION('center_axis',(1.,0.,0.));
#994=DIRECTION('ref_axis',(0.,0.,-1.));
#995=DIRECTION('',(0.,0.,1.));
#996=DIRECTION('',(0.,0.,-1.));
#997=DIRECTION('',(0.,1.,0.));
#998=DIRECTION('center_axis',(0.,0.,-1.));
#999=DIRECTION('ref_axis',(-1.,0.,0.));
#1000=DIRECTION('',(1.,0.,0.));
#1001=DIRECTION('',(-1.,0.,0.));
#1002=DIRECTION('',(0.,1.,0.));
#1003=DIRECTION('center_axis',(1.,0.,0.));
#1004=DIRECTION('ref_axis',(0.,0.,-1.));
#1005=DIRECTION('',(0.,0.,1.));
#1006=DIRECTION('',(0.,0.,-1.));
#1007=DIRECTION('',(0.,1.,0.));
#1008=DIRECTION('center_axis',(0.,0.,1.));
#1009=DIRECTION('ref_axis',(1.,0.,0.));
#1010=DIRECTION('',(1.,0.,0.));
#1011=DIRECTION('',(1.,0.,0.));
#1012=DIRECTION('',(0.,1.,0.));
#1013=DIRECTION('center_axis',(1.,0.,0.));
#1014=DIRECTION('ref_axis',(0.,0.,-1.));
#1015=DIRECTION('',(0.,0.,1.));
#1016=DIRECTION('',(0.,0.,-1.));
#1017=DIRECTION('',(0.,1.,0.));
#1018=DIRECTION('center_axis',(0.,0.,-1.));
#1019=DIRECTION('ref_axis',(-1.,0.,0.));
#1020=DIRECTION('',(1.,0.,0.));
#1021=DIRECTION('',(-1.,0.,0.));
#1022=DIRECTION('',(0.,1.,0.));
#1023=DIRECTION('center_axis',(1.,0.,0.));
#1024=DIRECTION('ref_axis',(0.,0.,-1.));
#1025=DIRECTION('',(0.,0.,1.));
#1026=DIRECTION('',(0.,0.,-1.));
#1027=DIRECTION('',(0.,1.,0.));
#1028=DIRECTION('center_axis',(-2.28484469862635E-7,0.,0.999999999999974));
#1029=DIRECTION('ref_axis',(0.999999999999974,0.,2.28484469862635E-7));
#1030=DIRECTION('',(-0.999999999999974,0.,-2.28484469862635E-7));
#1031=DIRECTION('',(0.999999999999974,0.,2.28484469862635E-7));
#1032=DIRECTION('',(0.,1.,0.));
#1033=DIRECTION('center_axis',(1.,0.,0.));
#1034=DIRECTION('ref_axis',(0.,0.,-1.));
#1035=DIRECTION('',(0.,0.,-1.));
#1036=DIRECTION('',(0.,0.,-1.));
#1037=DIRECTION('',(0.,1.,0.));
#1038=DIRECTION('center_axis',(0.,0.,1.));
#1039=DIRECTION('ref_axis',(1.,0.,0.));
#1040=DIRECTION('',(1.,0.,0.));
#1041=DIRECTION('',(1.,0.,0.));
#1042=DIRECTION('',(0.,1.,0.));
#1043=DIRECTION('center_axis',(-1.,0.,0.));
#1044=DIRECTION('ref_axis',(0.,0.,1.));
#1045=DIRECTION('',(0.,0.,1.));
#1046=DIRECTION('',(0.,0.,1.));
#1047=DIRECTION('',(0.,1.,0.));
#1048=DIRECTION('center_axis',(0.,0.,1.));
#1049=DIRECTION('ref_axis',(1.,0.,0.));
#1050=DIRECTION('',(1.,0.,0.));
#1051=DIRECTION('',(1.,0.,0.));
#1052=DIRECTION('',(0.,1.,0.));
#1053=DIRECTION('center_axis',(1.,0.,0.));
#1054=DIRECTION('ref_axis',(0.,0.,-1.));
#1055=DIRECTION('',(0.,0.,-1.));
#1056=DIRECTION('',(0.,0.,-1.));
#1057=DIRECTION('',(0.,1.,0.));
#1058=DIRECTION('center_axis',(0.,0.,1.));
#1059=DIRECTION('ref_axis',(1.,0.,0.));
#1060=DIRECTION('',(1.,0.,0.));
#1061=DIRECTION('',(1.,0.,0.));
#1062=DIRECTION('',(0.,1.,0.));
#1063=DIRECTION('center_axis',(-1.,0.,0.));
#1064=DIRECTION('ref_axis',(0.,0.,1.));
#1065=DIRECTION('',(0.,0.,1.));
#1066=DIRECTION('',(0.,0.,1.));
#1067=DIRECTION('',(0.,1.,0.));
#1068=DIRECTION('center_axis',(0.,0.,1.));
#1069=DIRECTION('ref_axis',(1.,0.,0.));
#1070=DIRECTION('',(-1.,0.,0.));
#1071=DIRECTION('',(1.,0.,0.));
#1072=DIRECTION('',(0.,1.,0.));
#1073=DIRECTION('center_axis',(-1.,0.,0.));
#1074=DIRECTION('ref_axis',(0.,0.,1.));
#1075=DIRECTION('',(0.,0.,-1.));
#1076=DIRECTION('',(0.,0.,1.));
#1077=DIRECTION('',(0.,1.,0.));
#1078=DIRECTION('center_axis',(0.,0.,-1.));
#1079=DIRECTION('ref_axis',(-1.,0.,0.));
#1080=DIRECTION('',(1.,0.,0.));
#1081=DIRECTION('',(-1.,0.,0.));
#1082=DIRECTION('',(0.,1.,0.));
#1083=DIRECTION('center_axis',(-1.,0.,0.));
#1084=DIRECTION('ref_axis',(0.,0.,1.));
#1085=DIRECTION('',(0.,0.,1.));
#1086=DIRECTION('',(0.,0.,1.));
#1087=DIRECTION('',(0.,1.,0.));
#1088=DIRECTION('center_axis',(2.13583308076669E-7,0.,0.999999999999977));
#1089=DIRECTION('ref_axis',(0.999999999999977,0.,-2.13583308076669E-7));
#1090=DIRECTION('',(0.999999999999977,0.,-2.13583308076669E-7));
#1091=DIRECTION('',(0.999999999999977,0.,-2.13583308076669E-7));
#1092=DIRECTION('',(0.,1.,0.));
#1093=DIRECTION('center_axis',(-0.999999999999977,0.,2.13583308261711E-7));
#1094=DIRECTION('ref_axis',(2.13583308261711E-7,0.,0.999999999999977));
#1095=DIRECTION('',(-2.13583308261711E-7,0.,-0.999999999999977));
#1096=DIRECTION('',(2.13583308261711E-7,0.,0.999999999999977));
#1097=DIRECTION('',(0.,1.,0.));
#1098=DIRECTION('center_axis',(0.,0.,-1.));
#1099=DIRECTION('ref_axis',(-1.,0.,0.));
#1100=DIRECTION('',(1.,0.,0.));
#1101=DIRECTION('',(-1.,0.,0.));
#1102=DIRECTION('',(0.,1.,0.));
#1103=DIRECTION('center_axis',(-1.,0.,0.));
#1104=DIRECTION('ref_axis',(0.,0.,1.));
#1105=DIRECTION('',(0.,0.,-1.));
#1106=DIRECTION('',(0.,0.,1.));
#1107=DIRECTION('',(0.,1.,0.));
#1108=DIRECTION('center_axis',(0.,0.,1.));
#1109=DIRECTION('ref_axis',(1.,0.,0.));
#1110=DIRECTION('',(1.,0.,0.));
#1111=DIRECTION('',(1.,0.,0.));
#1112=DIRECTION('center_axis',(0.,1.,0.));
#1113=DIRECTION('ref_axis',(0.,0.,1.));
#1114=DIRECTION('center_axis',(0.,1.,0.));
#1115=DIRECTION('ref_axis',(1.,0.,0.));
#1116=CARTESIAN_POINT('',(0.,0.,0.));
#1117=CARTESIAN_POINT('Origin',(100.,0.,66.));
#1118=CARTESIAN_POINT('',(94.25,0.,66.));
#1119=CARTESIAN_POINT('Origin',(100.,0.,66.));
#1120=CARTESIAN_POINT('',(94.25,6.,66.));
#1121=CARTESIAN_POINT('',(94.25,0.,66.));
#1122=CARTESIAN_POINT('Origin',(100.,6.,66.));
#1123=CARTESIAN_POINT('Origin',(145.,0.,46.));
#1124=CARTESIAN_POINT('',(133.75,0.,46.));
#1125=CARTESIAN_POINT('Origin',(145.,0.,46.));
#1126=CARTESIAN_POINT('',(133.75,6.,46.));
#1127=CARTESIAN_POINT('',(133.75,0.,46.));
#1128=CARTESIAN_POINT('Origin',(145.,6.,46.));
#1129=CARTESIAN_POINT('Origin',(100.,0.,26.));
#1130=CARTESIAN_POINT('',(94.25,0.,26.));
#1131=CARTESIAN_POINT('Origin',(100.,0.,26.));
#1132=CARTESIAN_POINT('',(94.25,6.,26.));
#1133=CARTESIAN_POINT('',(94.25,0.,26.));
#1134=CARTESIAN_POINT('Origin',(100.,6.,26.));
#1135=CARTESIAN_POINT('Origin',(44.9999965826671,0.,0.));
#1136=CARTESIAN_POINT('',(44.9999965826671,0.,22.0000012815002));
#1137=CARTESIAN_POINT('',(44.9999965826671,0.,0.));
#1138=CARTESIAN_POINT('',(44.9999965826671,0.,6.00000128150024));
#1139=CARTESIAN_POINT('',(44.9999965826671,6.,22.0000012815002));
#1140=CARTESIAN_POINT('',(44.9999965826671,0.,22.0000012815002));
#1141=CARTESIAN_POINT('',(44.9999965826671,6.,0.));
#1142=CARTESIAN_POINT('',(44.9999965826671,6.,6.00000128150024));
#1143=CARTESIAN_POINT('',(44.9999965826671,0.,0.));
#1144=CARTESIAN_POINT('Origin',(81.2,0.,0.));
#1145=CARTESIAN_POINT('',(81.2,0.,0.));
#1146=CARTESIAN_POINT('',(44.9999965826671,0.,0.));
#1147=CARTESIAN_POINT('',(81.2,6.,0.));
#1148=CARTESIAN_POINT('',(44.9999965826671,6.,0.));
#1149=CARTESIAN_POINT('',(81.2,0.,0.));
#1150=CARTESIAN_POINT('Origin',(81.2,0.,-6.));
#1151=CARTESIAN_POINT('',(81.2,0.,-6.));
#1152=CARTESIAN_POINT('',(81.2,0.,0.));
#1153=CARTESIAN_POINT('',(81.2,6.,-6.));
#1154=CARTESIAN_POINT('',(81.2,6.,0.));
#1155=CARTESIAN_POINT('',(81.2,0.,-6.));
#1156=CARTESIAN_POINT('Origin',(118.8,0.,-6.));
#1157=CARTESIAN_POINT('',(118.8,0.,-6.));
#1158=CARTESIAN_POINT('',(81.2,0.,-6.));
#1159=CARTESIAN_POINT('',(118.8,6.,-6.));
#1160=CARTESIAN_POINT('',(81.2,6.,-6.));
#1161=CARTESIAN_POINT('',(118.8,0.,-6.));
#1162=CARTESIAN_POINT('Origin',(118.8,0.,0.));
#1163=CARTESIAN_POINT('',(118.8,0.,0.));
#1164=CARTESIAN_POINT('',(118.8,0.,-6.));
#1165=CARTESIAN_POINT('',(118.8,6.,0.));
#1166=CARTESIAN_POINT('',(118.8,6.,-6.));
#1167=CARTESIAN_POINT('',(118.8,0.,0.));
#1168=CARTESIAN_POINT('Origin',(156.4,0.,0.));
#1169=CARTESIAN_POINT('',(156.4,0.,0.));
#1170=CARTESIAN_POINT('',(118.8,0.,0.));
#1171=CARTESIAN_POINT('',(156.4,6.,0.));
#1172=CARTESIAN_POINT('',(118.8,6.,0.));
#1173=CARTESIAN_POINT('',(156.4,0.,0.));
#1174=CARTESIAN_POINT('Origin',(156.4,0.,-6.));
#1175=CARTESIAN_POINT('',(156.4,0.,-6.));
#1176=CARTESIAN_POINT('',(156.4,0.,0.));
#1177=CARTESIAN_POINT('',(156.4,6.,-6.));
#1178=CARTESIAN_POINT('',(156.4,6.,0.));
#1179=CARTESIAN_POINT('',(156.4,0.,-6.));
#1180=CARTESIAN_POINT('Origin',(194.,0.,-6.));
#1181=CARTESIAN_POINT('',(194.,0.,-6.));
#1182=CARTESIAN_POINT('',(156.4,0.,-6.));
#1183=CARTESIAN_POINT('',(194.,6.,-6.));
#1184=CARTESIAN_POINT('',(156.4,6.,-6.));
#1185=CARTESIAN_POINT('',(194.,0.,-6.));
#1186=CARTESIAN_POINT('Origin',(194.,0.,0.));
#1187=CARTESIAN_POINT('',(194.,0.,0.));
#1188=CARTESIAN_POINT('',(194.,0.,0.));
#1189=CARTESIAN_POINT('',(194.,6.,0.));
#1190=CARTESIAN_POINT('',(194.,6.,0.));
#1191=CARTESIAN_POINT('',(194.,0.,0.));
#1192=CARTESIAN_POINT('Origin',(200.,0.,0.));
#1193=CARTESIAN_POINT('',(200.,0.,0.));
#1194=CARTESIAN_POINT('',(200.,0.,0.));
#1195=CARTESIAN_POINT('',(200.,6.,0.));
#1196=CARTESIAN_POINT('',(200.,6.,0.));
#1197=CARTESIAN_POINT('',(200.,0.,0.));
#1198=CARTESIAN_POINT('Origin',(200.,0.,22.));
#1199=CARTESIAN_POINT('',(200.,0.,22.));
#1200=CARTESIAN_POINT('',(200.,0.,6.));
#1201=CARTESIAN_POINT('',(200.,6.,22.));
#1202=CARTESIAN_POINT('',(200.,6.,6.));
#1203=CARTESIAN_POINT('',(200.,0.,22.));
#1204=CARTESIAN_POINT('Origin',(194.,0.,22.));
#1205=CARTESIAN_POINT('',(194.,0.,22.));
#1206=CARTESIAN_POINT('',(194.,0.,22.));
#1207=CARTESIAN_POINT('',(194.,6.,22.));
#1208=CARTESIAN_POINT('',(194.,6.,22.));
#1209=CARTESIAN_POINT('',(194.,0.,22.));
#1210=CARTESIAN_POINT('Origin',(194.,0.,38.));
#1211=CARTESIAN_POINT('',(194.,0.,38.));
#1212=CARTESIAN_POINT('',(194.,0.,22.));
#1213=CARTESIAN_POINT('',(194.,6.,38.));
#1214=CARTESIAN_POINT('',(194.,6.,22.));
#1215=CARTESIAN_POINT('',(194.,0.,38.));
#1216=CARTESIAN_POINT('Origin',(200.,0.,38.));
#1217=CARTESIAN_POINT('',(200.,0.,38.));
#1218=CARTESIAN_POINT('',(194.,0.,38.));
#1219=CARTESIAN_POINT('',(200.,6.,38.));
#1220=CARTESIAN_POINT('',(194.,6.,38.));
#1221=CARTESIAN_POINT('',(200.,0.,38.));
#1222=CARTESIAN_POINT('Origin',(200.,0.,54.));
#1223=CARTESIAN_POINT('',(200.,0.,54.));
#1224=CARTESIAN_POINT('',(200.,0.,38.));
#1225=CARTESIAN_POINT('',(200.,6.,54.));
#1226=CARTESIAN_POINT('',(200.,6.,38.));
#1227=CARTESIAN_POINT('',(200.,0.,54.));
#1228=CARTESIAN_POINT('Origin',(194.,0.,54.));
#1229=CARTESIAN_POINT('',(194.,0.,54.));
#1230=CARTESIAN_POINT('',(194.,0.,54.));
#1231=CARTESIAN_POINT('',(194.,6.,54.));
#1232=CARTESIAN_POINT('',(194.,6.,54.));
#1233=CARTESIAN_POINT('',(194.,0.,54.));
#1234=CARTESIAN_POINT('Origin',(194.,0.,70.));
#1235=CARTESIAN_POINT('',(194.,0.,70.));
#1236=CARTESIAN_POINT('',(194.,0.,54.));
#1237=CARTESIAN_POINT('',(194.,6.,70.));
#1238=CARTESIAN_POINT('',(194.,6.,54.));
#1239=CARTESIAN_POINT('',(194.,0.,70.));
#1240=CARTESIAN_POINT('Origin',(200.,0.,70.));
#1241=CARTESIAN_POINT('',(200.,0.,70.));
#1242=CARTESIAN_POINT('',(194.,0.,70.));
#1243=CARTESIAN_POINT('',(200.,6.,70.));
#1244=CARTESIAN_POINT('',(194.,6.,70.));
#1245=CARTESIAN_POINT('',(200.,0.,70.));
#1246=CARTESIAN_POINT('Origin',(200.,0.,92.0000013709068));
#1247=CARTESIAN_POINT('',(200.,0.,92.0000013709068));
#1248=CARTESIAN_POINT('',(200.,0.,86.));
#1249=CARTESIAN_POINT('',(200.,6.,92.0000013709068));
#1250=CARTESIAN_POINT('',(200.,6.,86.));
#1251=CARTESIAN_POINT('',(200.,0.,92.0000013709068));
#1252=CARTESIAN_POINT('Origin',(194.,0.,92.));
#1253=CARTESIAN_POINT('',(194.,0.,92.));
#1254=CARTESIAN_POINT('',(200.,0.,92.0000013709068));
#1255=CARTESIAN_POINT('',(194.,6.,92.));
#1256=CARTESIAN_POINT('',(200.,6.,92.0000013709068));
#1257=CARTESIAN_POINT('',(194.,0.,92.));
#1258=CARTESIAN_POINT('Origin',(194.,0.,98.));
#1259=CARTESIAN_POINT('',(194.,0.,98.));
#1260=CARTESIAN_POINT('',(194.,0.,98.));
#1261=CARTESIAN_POINT('',(194.,6.,98.));
#1262=CARTESIAN_POINT('',(194.,6.,98.));
#1263=CARTESIAN_POINT('',(194.,0.,98.));
#1264=CARTESIAN_POINT('Origin',(156.4,0.,98.));
#1265=CARTESIAN_POINT('',(156.4,0.,98.));
#1266=CARTESIAN_POINT('',(156.4,0.,98.));
#1267=CARTESIAN_POINT('',(156.4,6.,98.));
#1268=CARTESIAN_POINT('',(156.4,6.,98.));
#1269=CARTESIAN_POINT('',(156.4,0.,98.));
#1270=CARTESIAN_POINT('Origin',(156.4,0.,92.));
#1271=CARTESIAN_POINT('',(156.4,0.,92.));
#1272=CARTESIAN_POINT('',(156.4,0.,92.));
#1273=CARTESIAN_POINT('',(156.4,6.,92.));
#1274=CARTESIAN_POINT('',(156.4,6.,92.));
#1275=CARTESIAN_POINT('',(156.4,0.,92.));
#1276=CARTESIAN_POINT('Origin',(118.8,0.,92.));
#1277=CARTESIAN_POINT('',(118.8,0.,92.));
#1278=CARTESIAN_POINT('',(118.8,0.,92.));
#1279=CARTESIAN_POINT('',(118.8,6.,92.));
#1280=CARTESIAN_POINT('',(118.8,6.,92.));
#1281=CARTESIAN_POINT('',(118.8,0.,92.));
#1282=CARTESIAN_POINT('Origin',(118.8,0.,98.));
#1283=CARTESIAN_POINT('',(118.8,0.,98.));
#1284=CARTESIAN_POINT('',(118.8,0.,98.));
#1285=CARTESIAN_POINT('',(118.8,6.,98.));
#1286=CARTESIAN_POINT('',(118.8,6.,98.));
#1287=CARTESIAN_POINT('',(118.8,0.,98.));
#1288=CARTESIAN_POINT('Origin',(81.2,0.,98.));
#1289=CARTESIAN_POINT('',(81.2,0.,98.));
#1290=CARTESIAN_POINT('',(81.2,0.,98.));
#1291=CARTESIAN_POINT('',(81.2,6.,98.));
#1292=CARTESIAN_POINT('',(81.2,6.,98.));
#1293=CARTESIAN_POINT('',(81.2,0.,98.));
#1294=CARTESIAN_POINT('Origin',(81.2,0.,92.));
#1295=CARTESIAN_POINT('',(81.2,0.,92.));
#1296=CARTESIAN_POINT('',(81.2,0.,92.));
#1297=CARTESIAN_POINT('',(81.2,6.,92.));
#1298=CARTESIAN_POINT('',(81.2,6.,92.));
#1299=CARTESIAN_POINT('',(81.2,0.,92.));
#1300=CARTESIAN_POINT('Origin',(45.,0.,92.));
#1301=CARTESIAN_POINT('',(45.,0.,92.));
#1302=CARTESIAN_POINT('',(51.,0.,92.));
#1303=CARTESIAN_POINT('',(45.,6.,92.));
#1304=CARTESIAN_POINT('',(51.,6.,92.));
#1305=CARTESIAN_POINT('',(45.,0.,92.));
#1306=CARTESIAN_POINT('Origin',(45.,0.,70.0000012814999));
#1307=CARTESIAN_POINT('',(45.,0.,70.0000012814999));
#1308=CARTESIAN_POINT('',(45.,0.,86.0000012814999));
#1309=CARTESIAN_POINT('',(45.,6.,70.0000012814999));
#1310=CARTESIAN_POINT('',(45.,6.,86.0000012814999));
#1311=CARTESIAN_POINT('',(45.,0.,70.0000012814999));
#1312=CARTESIAN_POINT('Origin',(51.,0.,70.0000012814999));
#1313=CARTESIAN_POINT('',(51.,0.,70.0000012814999));
#1314=CARTESIAN_POINT('',(45.,0.,70.0000012814999));
#1315=CARTESIAN_POINT('',(51.,6.,70.0000012814999));
#1316=CARTESIAN_POINT('',(45.,6.,70.0000012814999));
#1317=CARTESIAN_POINT('',(51.,0.,70.0000012814999));
#1318=CARTESIAN_POINT('Origin',(51.,0.,54.));
#1319=CARTESIAN_POINT('',(51.,0.,54.));
#1320=CARTESIAN_POINT('',(51.,0.,54.));
#1321=CARTESIAN_POINT('',(51.,6.,54.));
#1322=CARTESIAN_POINT('',(51.,6.,54.));
#1323=CARTESIAN_POINT('',(51.,0.,54.));
#1324=CARTESIAN_POINT('Origin',(45.,0.,54.0000012814999));
#1325=CARTESIAN_POINT('',(45.,0.,54.0000012814999));
#1326=CARTESIAN_POINT('',(45.,0.,54.0000012814999));
#1327=CARTESIAN_POINT('',(45.,6.,54.0000012814999));
#1328=CARTESIAN_POINT('',(45.,6.,54.0000012814999));
#1329=CARTESIAN_POINT('',(45.,0.,54.0000012814999));
#1330=CARTESIAN_POINT('Origin',(44.9999965826671,0.,38.0000012815002));
#1331=CARTESIAN_POINT('',(44.9999965826671,0.,38.0000012815002));
#1332=CARTESIAN_POINT('',(45.,0.,54.0000012814999));
#1333=CARTESIAN_POINT('',(44.9999965826671,6.,38.0000012815002));
#1334=CARTESIAN_POINT('',(45.,6.,54.0000012814999));
#1335=CARTESIAN_POINT('',(44.9999965826671,0.,38.0000012815002));
#1336=CARTESIAN_POINT('Origin',(51.,0.,38.0000012815002));
#1337=CARTESIAN_POINT('',(51.,0.,38.0000012815002));
#1338=CARTESIAN_POINT('',(44.9999965826671,0.,38.0000012815002));
#1339=CARTESIAN_POINT('',(51.,6.,38.0000012815002));
#1340=CARTESIAN_POINT('',(44.9999965826671,6.,38.0000012815002));
#1341=CARTESIAN_POINT('',(51.,0.,38.0000012815002));
#1342=CARTESIAN_POINT('Origin',(51.,0.,22.0000012815002));
#1343=CARTESIAN_POINT('',(51.,0.,22.0000012815002));
#1344=CARTESIAN_POINT('',(51.,0.,38.0000012815002));
#1345=CARTESIAN_POINT('',(51.,6.,22.0000012815002));
#1346=CARTESIAN_POINT('',(51.,6.,38.0000012815002));
#1347=CARTESIAN_POINT('',(51.,0.,22.0000012815002));
#1348=CARTESIAN_POINT('Origin',(44.9999965826671,0.,22.0000012815002));
#1349=CARTESIAN_POINT('',(44.9999965826671,0.,22.0000012815002));
#1350=CARTESIAN_POINT('',(44.9999965826671,6.,22.0000012815002));
#1351=CARTESIAN_POINT('Origin',(122.499998291334,6.,45.9999935545874));
#1352=CARTESIAN_POINT('Origin',(122.499998291334,0.,45.9999935545874));
#1353=UNCERTAINTY_MEASURE_WITH_UNIT(LENGTH_MEASURE(0.01),#1357,
'DISTANCE_ACCURACY_VALUE',
'Maximum model space distance between geometric entities at asserted c
onnectivities');
#1354=UNCERTAINTY_MEASURE_WITH_UNIT(LENGTH_MEASURE(0.01),#1357,
'DISTANCE_ACCURACY_VALUE',
'Maximum model space distance between geometric entities at asserted c
onnectivities');
#1355=(
GEOMETRIC_REPRESENTATION_CONTEXT(3)
GLOBAL_UNCERTAINTY_ASSIGNED_CONTEXT((#1353))
GLOBAL_UNIT_ASSIGNED_CONTEXT((#1357,#1359,#1360))
REPRESENTATION_CONTEXT('','3D')
);
#1356=(
GEOMETRIC_REPRESENTATION_CONTEXT(3)
GLOBAL_UNCERTAINTY_ASSIGNED_CONTEXT((#1354))
GLOBAL_UNIT_ASSIGNED_CONTEXT((#1357,#1359,#1360))
REPRESENTATION_CONTEXT('','3D')
);
#1357=(
LENGTH_UNIT()
NAMED_UNIT(*)
SI_UNIT(.MILLI.,.METRE.)
);
#1358=(
LENGTH_UNIT()
NAMED_UNIT(*)
SI_UNIT($,.METRE.)
);
#1359=(
NAMED_UNIT(*)
PLANE_ANGLE_UNIT()
SI_UNIT($,.RADIAN.)
);
#1360=(
NAMED_UNIT(*)
SI_UNIT($,.STERADIAN.)
SOLID_ANGLE_UNIT()
);
#1361=SHAPE_DEFINITION_REPRESENTATION(#1362,#1363);
#1362=PRODUCT_DEFINITION_SHAPE('',$,#1365);
#1363=SHAPE_REPRESENTATION('',(#861),#1355);
#1364=PRODUCT_DEFINITION_CONTEXT('part definition',#1369,'design');
#1365=PRODUCT_DEFINITION('Base Superior Tampa',
'Base Superior Tampa v10',#1366,#1364);
#1366=PRODUCT_DEFINITION_FORMATION('',$,#1371);
#1367=PRODUCT_RELATED_PRODUCT_CATEGORY('Base Superior Tampa v10',
'Base Superior Tampa v10',(#1371));
#1368=APPLICATION_PROTOCOL_DEFINITION('international standard',
'automotive_design',2009,#1369);
#1369=APPLICATION_CONTEXT(
'Core Data for Automotive Mechanical Design Process');
#1370=PRODUCT_CONTEXT('part definition',#1369,'mechanical');
#1371=PRODUCT('Base Superior Tampa','Base Superior Tampa v10',$,(#1370));
#1372=PRESENTATION_STYLE_ASSIGNMENT((#1373));
#1373=SURFACE_STYLE_USAGE(.BOTH.,#1374);
#1374=SURFACE_SIDE_STYLE('',(#1375));
#1375=SURFACE_STYLE_FILL_AREA(#1376);
#1376=FILL_AREA_STYLE('A\X\E7o - Acetinado',(#1377));
#1377=FILL_AREA_STYLE_COLOUR('A\X\E7o - Acetinado',#1378);
#1378=COLOUR_RGB('A\X\E7o - Acetinado',0.627450980392157,0.627450980392157,
0.627450980392157);
ENDSEC;
END-ISO-10303-21;
